# Tiled2Unity generated file. Do not modify by hand.
# Wavefront file for 'Village_mesh_0027.obj'

# Vertices (Count = 20)
v -134400 -76800 0
v -137600 -76800 0
v -137600 -73600 0
v -134400 -73600 0
v -137600 -76800 0
v -140800 -76800 0
v -140800 -73600 0
v -137600 -73600 0
v -134400 -80000 0
v -137600 -80000 0
v -137600 -76800 0
v -134400 -76800 0
v -137600 -80000 0
v -140800 -80000 0
v -140800 -76800 0
v -137600 -76800 0
v -134400 -83200 0
v -137600 -83200 0
v -137600 -80000 0
v -134400 -80000 0

# Texture cooridinates (Count = 13)
vt 0.25 0.9375
vt 0.3125 0.9375
vt 0.3125 1
vt 0.25 1
vt 0.375 0.9375
vt 0.375 1
vt 0.25 0.875
vt 0.3125 0.875
vt 0.375 0.875
vt 0.0625 0.9375
vt 0.125 0.9375
vt 0.125 1
vt 0.0625 1

# Normal
vn 0 0 -1

# Mesh description
g Village_mesh_0027

# Faces
f 1/1/1 2/2/1 3/3/1 4/4/1
f 5/2/1 6/5/1 7/6/1 8/3/1
f 9/7/1 10/8/1 11/2/1 12/1/1
f 13/8/1 14/9/1 15/5/1 16/2/1
f 17/10/1 18/11/1 19/12/1 20/13/1

