# Tiled2Unity generated file. Do not modify by hand.
# Wavefront file for 'Village_mesh_0015.obj'

# Vertices (Count = 112)
v -22400 -25600 0
v -25600 -25600 0
v -25600 -22400 0
v -22400 -22400 0
v -64000 -25600 0
v -67200 -25600 0
v -67200 -22400 0
v -64000 -22400 0
v -22400 -28800 0
v -25600 -28800 0
v -25600 -25600 0
v -22400 -25600 0
v -64000 -28800 0
v -67200 -28800 0
v -67200 -25600 0
v -64000 -25600 0
v -22400 -32000 0
v -25600 -32000 0
v -25600 -28800 0
v -22400 -28800 0
v -64000 -32000 0
v -67200 -32000 0
v -67200 -28800 0
v -64000 -28800 0
v -22400 -35200 0
v -25600 -35200 0
v -25600 -32000 0
v -22400 -32000 0
v -64000 -35200 0
v -67200 -35200 0
v -67200 -32000 0
v -64000 -32000 0
v -64000 -38400 0
v -67200 -38400 0
v -67200 -35200 0
v -64000 -35200 0
v -44800 -41600 0
v -48000 -41600 0
v -48000 -38400 0
v -44800 -38400 0
v -48000 -41600 0
v -51200 -41600 0
v -51200 -38400 0
v -48000 -38400 0
v -51200 -41600 0
v -54400 -41600 0
v -54400 -38400 0
v -51200 -38400 0
v -54400 -41600 0
v -57600 -41600 0
v -57600 -38400 0
v -54400 -38400 0
v -57600 -41600 0
v -60800 -41600 0
v -60800 -38400 0
v -57600 -38400 0
v -60800 -41600 0
v -64000 -41600 0
v -64000 -38400 0
v -60800 -38400 0
v -64000 -41600 0
v -67200 -41600 0
v -67200 -38400 0
v -64000 -38400 0
v -35200 -73600 0
v -38400 -73600 0
v -38400 -70400 0
v -35200 -70400 0
v -12800 -76800 0
v -16000 -76800 0
v -16000 -73600 0
v -12800 -73600 0
v -12800 -80000 0
v -16000 -80000 0
v -16000 -76800 0
v -12800 -76800 0
v -12800 -83200 0
v -16000 -83200 0
v -16000 -80000 0
v -12800 -80000 0
v -12800 -86400 0
v -16000 -86400 0
v -16000 -83200 0
v -12800 -83200 0
v -16000 -86400 0
v -19200 -86400 0
v -19200 -83200 0
v -16000 -83200 0
v -19200 -86400 0
v -22400 -86400 0
v -22400 -83200 0
v -19200 -83200 0
v -22400 -86400 0
v -25600 -86400 0
v -25600 -83200 0
v -22400 -83200 0
v -25600 -86400 0
v -28800 -86400 0
v -28800 -83200 0
v -25600 -83200 0
v -28800 -86400 0
v -32000 -86400 0
v -32000 -83200 0
v -28800 -83200 0
v -32000 -86400 0
v -35200 -86400 0
v -35200 -83200 0
v -32000 -83200 0
v -35200 -86400 0
v -38400 -86400 0
v -38400 -83200 0
v -35200 -83200 0

# Texture cooridinates (Count = 16)
vt 0.8125 0.59375
vt 0.84375 0.59375
vt 0.84375 0.625
vt 0.8125 0.625
vt 0.84375 0.65625
vt 0.8125 0.65625
vt 0.84375 0.5
vt 0.875 0.5
vt 0.875 0.53125
vt 0.84375 0.53125
vt 0.875 0.625
vt 0.875 0.65625
vt 0.78125 0.5
vt 0.8125 0.5
vt 0.8125 0.53125
vt 0.78125 0.53125

# Normal
vn 0 0 -1

# Mesh description
g Village_mesh_0015

# Faces
f 1/1/1 2/2/1 3/3/1 4/4/1
f 5/1/1 6/2/1 7/3/1 8/4/1
f 9/1/1 10/2/1 11/3/1 12/4/1
f 13/1/1 14/2/1 15/3/1 16/4/1
f 17/1/1 18/2/1 19/3/1 20/4/1
f 21/1/1 22/2/1 23/3/1 24/4/1
f 25/1/1 26/2/1 27/3/1 28/4/1
f 29/1/1 30/2/1 31/3/1 32/4/1
f 33/1/1 34/2/1 35/3/1 36/4/1
f 37/4/1 38/3/1 39/5/1 40/6/1
f 41/4/1 42/3/1 43/5/1 44/6/1
f 45/4/1 46/3/1 47/5/1 48/6/1
f 49/4/1 50/3/1 51/5/1 52/6/1
f 53/4/1 54/3/1 55/5/1 56/6/1
f 57/4/1 58/3/1 59/5/1 60/6/1
f 61/7/1 62/8/1 63/9/1 64/10/1
f 65/3/1 66/11/1 67/12/1 68/5/1
f 69/1/1 70/2/1 71/3/1 72/4/1
f 73/1/1 74/2/1 75/3/1 76/4/1
f 77/1/1 78/2/1 79/3/1 80/4/1
f 81/13/1 82/14/1 83/15/1 84/16/1
f 85/4/1 86/3/1 87/5/1 88/6/1
f 89/4/1 90/3/1 91/5/1 92/6/1
f 93/4/1 94/3/1 95/5/1 96/6/1
f 97/4/1 98/3/1 99/5/1 100/6/1
f 101/4/1 102/3/1 103/5/1 104/6/1
f 105/4/1 106/3/1 107/5/1 108/6/1
f 109/4/1 110/3/1 111/5/1 112/6/1

