# Tiled2Unity generated file. Do not modify by hand.
# Wavefront file for 'Village_mesh_0019.obj'

# Vertices (Count = 708)
v -73600 -9600 0
v -76800 -9600 0
v -76800 -6400 0
v -73600 -6400 0
v -76800 -9600 0
v -80000 -9600 0
v -80000 -6400 0
v -76800 -6400 0
v -80000 -9600 0
v -83200 -9600 0
v -83200 -6400 0
v -80000 -6400 0
v -83200 -9600 0
v -86400 -9600 0
v -86400 -6400 0
v -83200 -6400 0
v -86400 -9600 0
v -89600 -9600 0
v -89600 -6400 0
v -86400 -6400 0
v -89600 -9600 0
v -92800 -9600 0
v -92800 -6400 0
v -89600 -6400 0
v -92800 -9600 0
v -96000 -9600 0
v -96000 -6400 0
v -92800 -6400 0
v -96000 -9600 0
v -99200 -9600 0
v -99200 -6400 0
v -96000 -6400 0
v -99200 -9600 0
v -102400 -9600 0
v -102400 -6400 0
v -99200 -6400 0
v -102400 -9600 0
v -105600 -9600 0
v -105600 -6400 0
v -102400 -6400 0
v -73600 -12800 0
v -76800 -12800 0
v -76800 -9600 0
v -73600 -9600 0
v -76800 -12800 0
v -80000 -12800 0
v -80000 -9600 0
v -76800 -9600 0
v -80000 -12800 0
v -83200 -12800 0
v -83200 -9600 0
v -80000 -9600 0
v -83200 -12800 0
v -86400 -12800 0
v -86400 -9600 0
v -83200 -9600 0
v -86400 -12800 0
v -89600 -12800 0
v -89600 -9600 0
v -86400 -9600 0
v -89600 -12800 0
v -92800 -12800 0
v -92800 -9600 0
v -89600 -9600 0
v -92800 -12800 0
v -96000 -12800 0
v -96000 -9600 0
v -92800 -9600 0
v -96000 -12800 0
v -99200 -12800 0
v -99200 -9600 0
v -96000 -9600 0
v -99200 -12800 0
v -102400 -12800 0
v -102400 -9600 0
v -99200 -9600 0
v -102400 -12800 0
v -105600 -12800 0
v -105600 -9600 0
v -102400 -9600 0
v -73600 -16000 0
v -76800 -16000 0
v -76800 -12800 0
v -73600 -12800 0
v -76800 -16000 0
v -80000 -16000 0
v -80000 -12800 0
v -76800 -12800 0
v -80000 -16000 0
v -83200 -16000 0
v -83200 -12800 0
v -80000 -12800 0
v -83200 -16000 0
v -86400 -16000 0
v -86400 -12800 0
v -83200 -12800 0
v -86400 -16000 0
v -89600 -16000 0
v -89600 -12800 0
v -86400 -12800 0
v -89600 -16000 0
v -92800 -16000 0
v -92800 -12800 0
v -89600 -12800 0
v -92800 -16000 0
v -96000 -16000 0
v -96000 -12800 0
v -92800 -12800 0
v -96000 -16000 0
v -99200 -16000 0
v -99200 -12800 0
v -96000 -12800 0
v -99200 -16000 0
v -102400 -16000 0
v -102400 -12800 0
v -99200 -12800 0
v -102400 -16000 0
v -105600 -16000 0
v -105600 -12800 0
v -102400 -12800 0
v -73600 -19200 0
v -76800 -19200 0
v -76800 -16000 0
v -73600 -16000 0
v -76800 -19200 0
v -80000 -19200 0
v -80000 -16000 0
v -76800 -16000 0
v -80000 -19200 0
v -83200 -19200 0
v -83200 -16000 0
v -80000 -16000 0
v -83200 -19200 0
v -86400 -19200 0
v -86400 -16000 0
v -83200 -16000 0
v -86400 -19200 0
v -89600 -19200 0
v -89600 -16000 0
v -86400 -16000 0
v -89600 -19200 0
v -92800 -19200 0
v -92800 -16000 0
v -89600 -16000 0
v -92800 -19200 0
v -96000 -19200 0
v -96000 -16000 0
v -92800 -16000 0
v -73600 -22400 0
v -76800 -22400 0
v -76800 -19200 0
v -73600 -19200 0
v -76800 -22400 0
v -80000 -22400 0
v -80000 -19200 0
v -76800 -19200 0
v -80000 -22400 0
v -83200 -22400 0
v -83200 -19200 0
v -80000 -19200 0
v -83200 -22400 0
v -86400 -22400 0
v -86400 -19200 0
v -83200 -19200 0
v -86400 -22400 0
v -89600 -22400 0
v -89600 -19200 0
v -86400 -19200 0
v -89600 -22400 0
v -92800 -22400 0
v -92800 -19200 0
v -89600 -19200 0
v -92800 -22400 0
v -96000 -22400 0
v -96000 -19200 0
v -92800 -19200 0
v -22400 -35200 0
v -25600 -35200 0
v -25600 -32000 0
v -22400 -32000 0
v -25600 -35200 0
v -28800 -35200 0
v -28800 -32000 0
v -25600 -32000 0
v -28800 -35200 0
v -32000 -35200 0
v -32000 -32000 0
v -28800 -32000 0
v -32000 -35200 0
v -35200 -35200 0
v -35200 -32000 0
v -32000 -32000 0
v -35200 -35200 0
v -38400 -35200 0
v -38400 -32000 0
v -35200 -32000 0
v -38400 -35200 0
v -41600 -35200 0
v -41600 -32000 0
v -38400 -32000 0
v -41600 -35200 0
v -44800 -35200 0
v -44800 -32000 0
v -41600 -32000 0
v -44800 -35200 0
v -48000 -35200 0
v -48000 -32000 0
v -44800 -32000 0
v -22400 -38400 0
v -25600 -38400 0
v -25600 -35200 0
v -22400 -35200 0
v -25600 -38400 0
v -28800 -38400 0
v -28800 -35200 0
v -25600 -35200 0
v -28800 -38400 0
v -32000 -38400 0
v -32000 -35200 0
v -28800 -35200 0
v -32000 -38400 0
v -35200 -38400 0
v -35200 -35200 0
v -32000 -35200 0
v -35200 -38400 0
v -38400 -38400 0
v -38400 -35200 0
v -35200 -35200 0
v -38400 -38400 0
v -41600 -38400 0
v -41600 -35200 0
v -38400 -35200 0
v -41600 -38400 0
v -44800 -38400 0
v -44800 -35200 0
v -41600 -35200 0
v -44800 -38400 0
v -48000 -38400 0
v -48000 -35200 0
v -44800 -35200 0
v -22400 -41600 0
v -25600 -41600 0
v -25600 -38400 0
v -22400 -38400 0
v -25600 -41600 0
v -28800 -41600 0
v -28800 -38400 0
v -25600 -38400 0
v -28800 -41600 0
v -32000 -41600 0
v -32000 -38400 0
v -28800 -38400 0
v -32000 -41600 0
v -35200 -41600 0
v -35200 -38400 0
v -32000 -38400 0
v -35200 -41600 0
v -38400 -41600 0
v -38400 -38400 0
v -35200 -38400 0
v -38400 -41600 0
v -41600 -41600 0
v -41600 -38400 0
v -38400 -38400 0
v -41600 -41600 0
v -44800 -41600 0
v -44800 -38400 0
v -41600 -38400 0
v -44800 -41600 0
v -48000 -41600 0
v -48000 -38400 0
v -44800 -38400 0
v -22400 -44800 0
v -25600 -44800 0
v -25600 -41600 0
v -22400 -41600 0
v -25600 -44800 0
v -28800 -44800 0
v -28800 -41600 0
v -25600 -41600 0
v -28800 -44800 0
v -32000 -44800 0
v -32000 -41600 0
v -28800 -41600 0
v -32000 -44800 0
v -35200 -44800 0
v -35200 -41600 0
v -32000 -41600 0
v -35200 -44800 0
v -38400 -44800 0
v -38400 -41600 0
v -35200 -41600 0
v -38400 -44800 0
v -41600 -44800 0
v -41600 -41600 0
v -38400 -41600 0
v -41600 -44800 0
v -44800 -44800 0
v -44800 -41600 0
v -41600 -41600 0
v -44800 -44800 0
v -48000 -44800 0
v -48000 -41600 0
v -44800 -41600 0
v -99200 -54400 0
v -102400 -54400 0
v -102400 -51200 0
v -99200 -51200 0
v -102400 -54400 0
v -105600 -54400 0
v -105600 -51200 0
v -102400 -51200 0
v -105600 -54400 0
v -108800 -54400 0
v -108800 -51200 0
v -105600 -51200 0
v -108800 -54400 0
v -112000 -54400 0
v -112000 -51200 0
v -108800 -51200 0
v -112000 -54400 0
v -115200 -54400 0
v -115200 -51200 0
v -112000 -51200 0
v -115200 -54400 0
v -118400 -54400 0
v -118400 -51200 0
v -115200 -51200 0
v -118400 -54400 0
v -121600 -54400 0
v -121600 -51200 0
v -118400 -51200 0
v -121600 -54400 0
v -124800 -54400 0
v -124800 -51200 0
v -121600 -51200 0
v -124800 -54400 0
v -128000 -54400 0
v -128000 -51200 0
v -124800 -51200 0
v -128000 -54400 0
v -131200 -54400 0
v -131200 -51200 0
v -128000 -51200 0
v -131200 -54400 0
v -134400 -54400 0
v -134400 -51200 0
v -131200 -51200 0
v -99200 -57600 0
v -102400 -57600 0
v -102400 -54400 0
v -99200 -54400 0
v -102400 -57600 0
v -105600 -57600 0
v -105600 -54400 0
v -102400 -54400 0
v -105600 -57600 0
v -108800 -57600 0
v -108800 -54400 0
v -105600 -54400 0
v -108800 -57600 0
v -112000 -57600 0
v -112000 -54400 0
v -108800 -54400 0
v -112000 -57600 0
v -115200 -57600 0
v -115200 -54400 0
v -112000 -54400 0
v -115200 -57600 0
v -118400 -57600 0
v -118400 -54400 0
v -115200 -54400 0
v -118400 -57600 0
v -121600 -57600 0
v -121600 -54400 0
v -118400 -54400 0
v -121600 -57600 0
v -124800 -57600 0
v -124800 -54400 0
v -121600 -54400 0
v -124800 -57600 0
v -128000 -57600 0
v -128000 -54400 0
v -124800 -54400 0
v -128000 -57600 0
v -131200 -57600 0
v -131200 -54400 0
v -128000 -54400 0
v -131200 -57600 0
v -134400 -57600 0
v -134400 -54400 0
v -131200 -54400 0
v -99200 -60800 0
v -102400 -60800 0
v -102400 -57600 0
v -99200 -57600 0
v -102400 -60800 0
v -105600 -60800 0
v -105600 -57600 0
v -102400 -57600 0
v -105600 -60800 0
v -108800 -60800 0
v -108800 -57600 0
v -105600 -57600 0
v -108800 -60800 0
v -112000 -60800 0
v -112000 -57600 0
v -108800 -57600 0
v -112000 -60800 0
v -115200 -60800 0
v -115200 -57600 0
v -112000 -57600 0
v -115200 -60800 0
v -118400 -60800 0
v -118400 -57600 0
v -115200 -57600 0
v -118400 -60800 0
v -121600 -60800 0
v -121600 -57600 0
v -118400 -57600 0
v -121600 -60800 0
v -124800 -60800 0
v -124800 -57600 0
v -121600 -57600 0
v -124800 -60800 0
v -128000 -60800 0
v -128000 -57600 0
v -124800 -57600 0
v -128000 -60800 0
v -131200 -60800 0
v -131200 -57600 0
v -128000 -57600 0
v -131200 -60800 0
v -134400 -60800 0
v -134400 -57600 0
v -131200 -57600 0
v -99200 -64000 0
v -102400 -64000 0
v -102400 -60800 0
v -99200 -60800 0
v -102400 -64000 0
v -105600 -64000 0
v -105600 -60800 0
v -102400 -60800 0
v -105600 -64000 0
v -108800 -64000 0
v -108800 -60800 0
v -105600 -60800 0
v -108800 -64000 0
v -112000 -64000 0
v -112000 -60800 0
v -108800 -60800 0
v -112000 -64000 0
v -115200 -64000 0
v -115200 -60800 0
v -112000 -60800 0
v -115200 -64000 0
v -118400 -64000 0
v -118400 -60800 0
v -115200 -60800 0
v -118400 -64000 0
v -121600 -64000 0
v -121600 -60800 0
v -118400 -60800 0
v -121600 -64000 0
v -124800 -64000 0
v -124800 -60800 0
v -121600 -60800 0
v -124800 -64000 0
v -128000 -64000 0
v -128000 -60800 0
v -124800 -60800 0
v -128000 -64000 0
v -131200 -64000 0
v -131200 -60800 0
v -128000 -60800 0
v -131200 -64000 0
v -134400 -64000 0
v -134400 -60800 0
v -131200 -60800 0
v -99200 -67200 0
v -102400 -67200 0
v -102400 -64000 0
v -99200 -64000 0
v -102400 -67200 0
v -105600 -67200 0
v -105600 -64000 0
v -102400 -64000 0
v -105600 -67200 0
v -108800 -67200 0
v -108800 -64000 0
v -105600 -64000 0
v -108800 -67200 0
v -112000 -67200 0
v -112000 -64000 0
v -108800 -64000 0
v -112000 -67200 0
v -115200 -67200 0
v -115200 -64000 0
v -112000 -64000 0
v -115200 -67200 0
v -118400 -67200 0
v -118400 -64000 0
v -115200 -64000 0
v -118400 -67200 0
v -121600 -67200 0
v -121600 -64000 0
v -118400 -64000 0
v -121600 -67200 0
v -124800 -67200 0
v -124800 -64000 0
v -121600 -64000 0
v -124800 -67200 0
v -128000 -67200 0
v -128000 -64000 0
v -124800 -64000 0
v -128000 -67200 0
v -131200 -67200 0
v -131200 -64000 0
v -128000 -64000 0
v -131200 -67200 0
v -134400 -67200 0
v -134400 -64000 0
v -131200 -64000 0
v -35200 -70400 0
v -38400 -70400 0
v -38400 -67200 0
v -35200 -67200 0
v -38400 -70400 0
v -41600 -70400 0
v -41600 -67200 0
v -38400 -67200 0
v -41600 -70400 0
v -44800 -70400 0
v -44800 -67200 0
v -41600 -67200 0
v -44800 -70400 0
v -48000 -70400 0
v -48000 -67200 0
v -44800 -67200 0
v -48000 -70400 0
v -51200 -70400 0
v -51200 -67200 0
v -48000 -67200 0
v -51200 -70400 0
v -54400 -70400 0
v -54400 -67200 0
v -51200 -67200 0
v -54400 -70400 0
v -57600 -70400 0
v -57600 -67200 0
v -54400 -67200 0
v -99200 -70400 0
v -102400 -70400 0
v -102400 -67200 0
v -99200 -67200 0
v -102400 -70400 0
v -105600 -70400 0
v -105600 -67200 0
v -102400 -67200 0
v -105600 -70400 0
v -108800 -70400 0
v -108800 -67200 0
v -105600 -67200 0
v -108800 -70400 0
v -112000 -70400 0
v -112000 -67200 0
v -108800 -67200 0
v -112000 -70400 0
v -115200 -70400 0
v -115200 -67200 0
v -112000 -67200 0
v -115200 -70400 0
v -118400 -70400 0
v -118400 -67200 0
v -115200 -67200 0
v -118400 -70400 0
v -121600 -70400 0
v -121600 -67200 0
v -118400 -67200 0
v -121600 -70400 0
v -124800 -70400 0
v -124800 -67200 0
v -121600 -67200 0
v -124800 -70400 0
v -128000 -70400 0
v -128000 -67200 0
v -124800 -67200 0
v -128000 -70400 0
v -131200 -70400 0
v -131200 -67200 0
v -128000 -67200 0
v -131200 -70400 0
v -134400 -70400 0
v -134400 -67200 0
v -131200 -67200 0
v -35200 -73600 0
v -38400 -73600 0
v -38400 -70400 0
v -35200 -70400 0
v -38400 -73600 0
v -41600 -73600 0
v -41600 -70400 0
v -38400 -70400 0
v -41600 -73600 0
v -44800 -73600 0
v -44800 -70400 0
v -41600 -70400 0
v -44800 -73600 0
v -48000 -73600 0
v -48000 -70400 0
v -44800 -70400 0
v -48000 -73600 0
v -51200 -73600 0
v -51200 -70400 0
v -48000 -70400 0
v -51200 -73600 0
v -54400 -73600 0
v -54400 -70400 0
v -51200 -70400 0
v -54400 -73600 0
v -57600 -73600 0
v -57600 -70400 0
v -54400 -70400 0
v -35200 -76800 0
v -38400 -76800 0
v -38400 -73600 0
v -35200 -73600 0
v -38400 -76800 0
v -41600 -76800 0
v -41600 -73600 0
v -38400 -73600 0
v -41600 -76800 0
v -44800 -76800 0
v -44800 -73600 0
v -41600 -73600 0
v -44800 -76800 0
v -48000 -76800 0
v -48000 -73600 0
v -44800 -73600 0
v -48000 -76800 0
v -51200 -76800 0
v -51200 -73600 0
v -48000 -73600 0
v -51200 -76800 0
v -54400 -76800 0
v -54400 -73600 0
v -51200 -73600 0
v -54400 -76800 0
v -57600 -76800 0
v -57600 -73600 0
v -54400 -73600 0
v -35200 -80000 0
v -38400 -80000 0
v -38400 -76800 0
v -35200 -76800 0
v -38400 -80000 0
v -41600 -80000 0
v -41600 -76800 0
v -38400 -76800 0
v -41600 -80000 0
v -44800 -80000 0
v -44800 -76800 0
v -41600 -76800 0
v -44800 -80000 0
v -48000 -80000 0
v -48000 -76800 0
v -44800 -76800 0
v -48000 -80000 0
v -51200 -80000 0
v -51200 -76800 0
v -48000 -76800 0
v -51200 -80000 0
v -54400 -80000 0
v -54400 -76800 0
v -51200 -76800 0
v -54400 -80000 0
v -57600 -80000 0
v -57600 -76800 0
v -54400 -76800 0
v -35200 -83200 0
v -38400 -83200 0
v -38400 -80000 0
v -35200 -80000 0
v -38400 -83200 0
v -41600 -83200 0
v -41600 -80000 0
v -38400 -80000 0
v -41600 -83200 0
v -44800 -83200 0
v -44800 -80000 0
v -41600 -80000 0
v -44800 -83200 0
v -48000 -83200 0
v -48000 -80000 0
v -44800 -80000 0
v -48000 -83200 0
v -51200 -83200 0
v -51200 -80000 0
v -48000 -80000 0
v -51200 -83200 0
v -54400 -83200 0
v -54400 -80000 0
v -51200 -80000 0
v -54400 -83200 0
v -57600 -83200 0
v -57600 -80000 0
v -54400 -80000 0

# Texture cooridinates (Count = 30)
vt 0 0.59375
vt 0.03125 0.59375
vt 0.03125 0.625
vt 0 0.625
vt 0.09375 0.5625
vt 0.125 0.5625
vt 0.125 0.59375
vt 0.09375 0.59375
vt 0.15625 0.5625
vt 0.15625 0.59375
vt 0.1875 0.5625
vt 0.1875 0.59375
vt 0.0625 0.59375
vt 0.09375 0.625
vt 0.0625 0.625
vt 0 0.5625
vt 0.03125 0.5625
vt 0.09375 0.5
vt 0.125 0.5
vt 0.125 0.53125
vt 0.09375 0.53125
vt 0.15625 0.5
vt 0.15625 0.53125
vt 0.1875 0.53125
vt 0.0625 0.5625
vt 0.1875 0.5
vt 0.0625 0.5
vt 0.0625 0.53125
vt 0.03125 0.53125
vt 0 0.53125

# Normal
vn 0 0 -1

# Mesh description
g Village_mesh_0019

# Faces
f 1/1/1 2/2/1 3/3/1 4/4/1
f 5/5/1 6/6/1 7/7/1 8/8/1
f 9/6/1 10/9/1 11/10/1 12/7/1
f 13/6/1 14/9/1 15/10/1 16/7/1
f 17/6/1 18/9/1 19/10/1 20/7/1
f 21/6/1 22/9/1 23/10/1 24/7/1
f 25/6/1 26/9/1 27/10/1 28/7/1
f 29/6/1 30/9/1 31/10/1 32/7/1
f 33/9/1 34/11/1 35/12/1 36/10/1
f 37/13/1 38/8/1 39/14/1 40/15/1
f 41/16/1 42/17/1 43/2/1 44/1/1
f 45/18/1 46/19/1 47/20/1 48/21/1
f 49/19/1 50/22/1 51/23/1 52/20/1
f 53/19/1 54/22/1 55/23/1 56/20/1
f 57/19/1 58/22/1 59/23/1 60/20/1
f 61/19/1 62/22/1 63/23/1 64/20/1
f 65/20/1 66/23/1 67/9/1 68/6/1
f 69/20/1 70/23/1 71/9/1 72/6/1
f 73/23/1 74/24/1 75/11/1 76/9/1
f 77/25/1 78/5/1 79/8/1 80/13/1
f 81/16/1 82/17/1 83/2/1 84/1/1
f 85/18/1 86/19/1 87/20/1 88/21/1
f 89/19/1 90/22/1 91/23/1 92/20/1
f 93/19/1 94/22/1 95/23/1 96/20/1
f 97/19/1 98/22/1 99/23/1 100/20/1
f 101/22/1 102/26/1 103/24/1 104/23/1
f 105/27/1 106/18/1 107/21/1 108/28/1
f 109/29/1 110/28/1 111/25/1 112/17/1
f 113/29/1 114/28/1 115/25/1 116/17/1
f 117/28/1 118/21/1 119/5/1 120/25/1
f 121/16/1 122/17/1 123/2/1 124/1/1
f 125/21/1 126/20/1 127/6/1 128/5/1
f 129/20/1 130/23/1 131/9/1 132/6/1
f 133/20/1 134/23/1 135/9/1 136/6/1
f 137/20/1 138/23/1 139/9/1 140/6/1
f 141/23/1 142/24/1 143/11/1 144/9/1
f 145/25/1 146/5/1 147/8/1 148/13/1
f 149/30/1 150/29/1 151/17/1 152/16/1
f 153/29/1 154/28/1 155/25/1 156/17/1
f 157/29/1 158/28/1 159/25/1 160/17/1
f 161/29/1 162/28/1 163/25/1 164/17/1
f 165/29/1 166/28/1 167/25/1 168/17/1
f 169/29/1 170/28/1 171/25/1 172/17/1
f 173/28/1 174/21/1 175/5/1 176/25/1
f 177/1/1 178/2/1 179/3/1 180/4/1
f 181/5/1 182/6/1 183/7/1 184/8/1
f 185/6/1 186/9/1 187/10/1 188/7/1
f 189/6/1 190/9/1 191/10/1 192/7/1
f 193/6/1 194/9/1 195/10/1 196/7/1
f 197/6/1 198/9/1 199/10/1 200/7/1
f 201/9/1 202/11/1 203/12/1 204/10/1
f 205/13/1 206/8/1 207/14/1 208/15/1
f 209/16/1 210/17/1 211/2/1 212/1/1
f 213/18/1 214/19/1 215/20/1 216/21/1
f 217/19/1 218/22/1 219/23/1 220/20/1
f 221/19/1 222/22/1 223/23/1 224/20/1
f 225/19/1 226/22/1 227/23/1 228/20/1
f 229/19/1 230/22/1 231/23/1 232/20/1
f 233/22/1 234/26/1 235/24/1 236/23/1
f 237/25/1 238/5/1 239/8/1 240/13/1
f 241/16/1 242/17/1 243/2/1 244/1/1
f 245/21/1 246/20/1 247/6/1 248/5/1
f 249/20/1 250/23/1 251/9/1 252/6/1
f 253/20/1 254/23/1 255/9/1 256/6/1
f 257/20/1 258/23/1 259/9/1 260/6/1
f 261/20/1 262/23/1 263/9/1 264/6/1
f 265/23/1 266/24/1 267/11/1 268/9/1
f 269/25/1 270/5/1 271/8/1 272/13/1
f 273/30/1 274/29/1 275/17/1 276/16/1
f 277/29/1 278/28/1 279/25/1 280/17/1
f 281/29/1 282/28/1 283/25/1 284/17/1
f 285/29/1 286/28/1 287/25/1 288/17/1
f 289/29/1 290/28/1 291/25/1 292/17/1
f 293/29/1 294/28/1 295/25/1 296/17/1
f 297/29/1 298/28/1 299/25/1 300/17/1
f 301/28/1 302/21/1 303/5/1 304/25/1
f 305/1/1 306/2/1 307/3/1 308/4/1
f 309/5/1 310/6/1 311/7/1 312/8/1
f 313/6/1 314/9/1 315/10/1 316/7/1
f 317/6/1 318/9/1 319/10/1 320/7/1
f 321/6/1 322/9/1 323/10/1 324/7/1
f 325/6/1 326/9/1 327/10/1 328/7/1
f 329/6/1 330/9/1 331/10/1 332/7/1
f 333/6/1 334/9/1 335/10/1 336/7/1
f 337/6/1 338/9/1 339/10/1 340/7/1
f 341/9/1 342/11/1 343/12/1 344/10/1
f 345/13/1 346/8/1 347/14/1 348/15/1
f 349/16/1 350/17/1 351/2/1 352/1/1
f 353/18/1 354/19/1 355/20/1 356/21/1
f 357/19/1 358/22/1 359/23/1 360/20/1
f 361/19/1 362/22/1 363/23/1 364/20/1
f 365/19/1 366/22/1 367/23/1 368/20/1
f 369/19/1 370/22/1 371/23/1 372/20/1
f 373/19/1 374/22/1 375/23/1 376/20/1
f 377/19/1 378/22/1 379/23/1 380/20/1
f 381/19/1 382/22/1 383/23/1 384/20/1
f 385/22/1 386/26/1 387/24/1 388/23/1
f 389/25/1 390/5/1 391/8/1 392/13/1
f 393/16/1 394/17/1 395/2/1 396/1/1
f 397/18/1 398/19/1 399/20/1 400/21/1
f 401/19/1 402/22/1 403/23/1 404/20/1
f 405/19/1 406/22/1 407/23/1 408/20/1
f 409/19/1 410/22/1 411/23/1 412/20/1
f 413/19/1 414/22/1 415/23/1 416/20/1
f 417/19/1 418/22/1 419/23/1 420/20/1
f 421/19/1 422/22/1 423/23/1 424/20/1
f 425/19/1 426/22/1 427/23/1 428/20/1
f 429/22/1 430/26/1 431/24/1 432/23/1
f 433/25/1 434/5/1 435/8/1 436/13/1
f 437/16/1 438/17/1 439/2/1 440/1/1
f 441/18/1 442/19/1 443/20/1 444/21/1
f 445/19/1 446/22/1 447/23/1 448/20/1
f 449/19/1 450/22/1 451/23/1 452/20/1
f 453/19/1 454/22/1 455/23/1 456/20/1
f 457/19/1 458/22/1 459/23/1 460/20/1
f 461/19/1 462/22/1 463/23/1 464/20/1
f 465/19/1 466/22/1 467/23/1 468/20/1
f 469/19/1 470/22/1 471/23/1 472/20/1
f 473/22/1 474/26/1 475/24/1 476/23/1
f 477/25/1 478/5/1 479/8/1 480/13/1
f 481/16/1 482/17/1 483/2/1 484/1/1
f 485/21/1 486/20/1 487/6/1 488/5/1
f 489/20/1 490/23/1 491/9/1 492/6/1
f 493/20/1 494/23/1 495/9/1 496/6/1
f 497/20/1 498/23/1 499/9/1 500/6/1
f 501/20/1 502/23/1 503/9/1 504/6/1
f 505/20/1 506/23/1 507/9/1 508/6/1
f 509/20/1 510/23/1 511/9/1 512/6/1
f 513/20/1 514/23/1 515/9/1 516/6/1
f 517/23/1 518/24/1 519/11/1 520/9/1
f 521/25/1 522/5/1 523/8/1 524/13/1
f 525/1/1 526/2/1 527/3/1 528/4/1
f 529/5/1 530/6/1 531/7/1 532/8/1
f 533/6/1 534/9/1 535/10/1 536/7/1
f 537/6/1 538/9/1 539/10/1 540/7/1
f 541/6/1 542/9/1 543/10/1 544/7/1
f 545/9/1 546/11/1 547/12/1 548/10/1
f 549/13/1 550/8/1 551/14/1 552/15/1
f 553/30/1 554/29/1 555/17/1 556/16/1
f 557/29/1 558/28/1 559/25/1 560/17/1
f 561/29/1 562/28/1 563/25/1 564/17/1
f 565/29/1 566/28/1 567/25/1 568/17/1
f 569/29/1 570/28/1 571/25/1 572/17/1
f 573/29/1 574/28/1 575/25/1 576/17/1
f 577/29/1 578/28/1 579/25/1 580/17/1
f 581/29/1 582/28/1 583/25/1 584/17/1
f 585/29/1 586/28/1 587/25/1 588/17/1
f 589/29/1 590/28/1 591/25/1 592/17/1
f 593/28/1 594/21/1 595/5/1 596/25/1
f 597/16/1 598/17/1 599/2/1 600/1/1
f 601/18/1 602/19/1 603/20/1 604/21/1
f 605/19/1 606/22/1 607/23/1 608/20/1
f 609/19/1 610/22/1 611/23/1 612/20/1
f 613/19/1 614/22/1 615/23/1 616/20/1
f 617/22/1 618/26/1 619/24/1 620/23/1
f 621/25/1 622/5/1 623/8/1 624/13/1
f 625/16/1 626/17/1 627/2/1 628/1/1
f 629/18/1 630/19/1 631/20/1 632/21/1
f 633/19/1 634/22/1 635/23/1 636/20/1
f 637/19/1 638/22/1 639/23/1 640/20/1
f 641/19/1 642/22/1 643/23/1 644/20/1
f 645/22/1 646/26/1 647/24/1 648/23/1
f 649/25/1 650/5/1 651/8/1 652/13/1
f 653/16/1 654/17/1 655/2/1 656/1/1
f 657/21/1 658/20/1 659/6/1 660/5/1
f 661/20/1 662/23/1 663/9/1 664/6/1
f 665/20/1 666/23/1 667/9/1 668/6/1
f 669/20/1 670/23/1 671/9/1 672/6/1
f 673/23/1 674/24/1 675/11/1 676/9/1
f 677/25/1 678/5/1 679/8/1 680/13/1
f 681/30/1 682/29/1 683/17/1 684/16/1
f 685/29/1 686/28/1 687/25/1 688/17/1
f 689/29/1 690/28/1 691/25/1 692/17/1
f 693/29/1 694/28/1 695/25/1 696/17/1
f 697/29/1 698/28/1 699/25/1 700/17/1
f 701/29/1 702/28/1 703/25/1 704/17/1
f 705/28/1 706/21/1 707/5/1 708/25/1

