# Tiled2Unity generated file. Do not modify by hand.
# Wavefront file for 'Village_mesh_0013.obj'

# Vertices (Count = 532)
v -6400 -3200 0
v -9600 -3200 0
v -9600 0 0
v -6400 0 0
v -9600 -3200 0
v -12800 -3200 0
v -12800 0 0
v -9600 0 0
v -12800 -3200 0
v -16000 -3200 0
v -16000 0 0
v -12800 0 0
v -38400 -3200 0
v -41600 -3200 0
v -41600 0 0
v -38400 0 0
v -41600 -3200 0
v -44800 -3200 0
v -44800 0 0
v -41600 0 0
v -44800 -3200 0
v -48000 -3200 0
v -48000 0 0
v -44800 0 0
v -51200 -3200 0
v -54400 -3200 0
v -54400 0 0
v -51200 0 0
v -54400 -3200 0
v -57600 -3200 0
v -57600 0 0
v -54400 0 0
v -57600 -3200 0
v -60800 -3200 0
v -60800 0 0
v -57600 0 0
v -118400 -3200 0
v -121600 -3200 0
v -121600 0 0
v -118400 0 0
v -121600 -3200 0
v -124800 -3200 0
v -124800 0 0
v -121600 0 0
v -124800 -3200 0
v -128000 -3200 0
v -128000 0 0
v -124800 0 0
v -128000 -3200 0
v -131200 -3200 0
v -131200 0 0
v -128000 0 0
v -131200 -3200 0
v -134400 -3200 0
v -134400 0 0
v -131200 0 0
v -134400 -3200 0
v -137600 -3200 0
v -137600 0 0
v -134400 0 0
v -6400 -6400 0
v -9600 -6400 0
v -9600 -3200 0
v -6400 -3200 0
v -9600 -6400 0
v -12800 -6400 0
v -12800 -3200 0
v -9600 -3200 0
v -12800 -6400 0
v -16000 -6400 0
v -16000 -3200 0
v -12800 -3200 0
v -16000 -6400 0
v -19200 -6400 0
v -19200 -3200 0
v -16000 -3200 0
v -19200 -6400 0
v -22400 -6400 0
v -22400 -3200 0
v -19200 -3200 0
v -22400 -6400 0
v -25600 -6400 0
v -25600 -3200 0
v -22400 -3200 0
v -28800 -6400 0
v -32000 -6400 0
v -32000 -3200 0
v -28800 -3200 0
v -32000 -6400 0
v -35200 -6400 0
v -35200 -3200 0
v -32000 -3200 0
v -35200 -6400 0
v -38400 -6400 0
v -38400 -3200 0
v -35200 -3200 0
v -38400 -6400 0
v -41600 -6400 0
v -41600 -3200 0
v -38400 -3200 0
v -41600 -6400 0
v -44800 -6400 0
v -44800 -3200 0
v -41600 -3200 0
v -44800 -6400 0
v -48000 -6400 0
v -48000 -3200 0
v -44800 -3200 0
v -51200 -6400 0
v -54400 -6400 0
v -54400 -3200 0
v -51200 -3200 0
v -54400 -6400 0
v -57600 -6400 0
v -57600 -3200 0
v -54400 -3200 0
v -57600 -6400 0
v -60800 -6400 0
v -60800 -3200 0
v -57600 -3200 0
v -118400 -6400 0
v -121600 -6400 0
v -121600 -3200 0
v -118400 -3200 0
v -121600 -6400 0
v -124800 -6400 0
v -124800 -3200 0
v -121600 -3200 0
v -124800 -6400 0
v -128000 -6400 0
v -128000 -3200 0
v -124800 -3200 0
v -128000 -6400 0
v -131200 -6400 0
v -131200 -3200 0
v -128000 -3200 0
v -131200 -6400 0
v -134400 -6400 0
v -134400 -3200 0
v -131200 -3200 0
v -134400 -6400 0
v -137600 -6400 0
v -137600 -3200 0
v -134400 -3200 0
v 0 -9600 0
v -3200 -9600 0
v -3200 -6400 0
v 0 -6400 0
v -6400 -9600 0
v -9600 -9600 0
v -9600 -6400 0
v -6400 -6400 0
v -9600 -9600 0
v -12800 -9600 0
v -12800 -6400 0
v -9600 -6400 0
v -12800 -9600 0
v -16000 -9600 0
v -16000 -6400 0
v -12800 -6400 0
v -16000 -9600 0
v -19200 -9600 0
v -19200 -6400 0
v -16000 -6400 0
v -19200 -9600 0
v -22400 -9600 0
v -22400 -6400 0
v -19200 -6400 0
v -22400 -9600 0
v -25600 -9600 0
v -25600 -6400 0
v -22400 -6400 0
v -28800 -9600 0
v -32000 -9600 0
v -32000 -6400 0
v -28800 -6400 0
v -32000 -9600 0
v -35200 -9600 0
v -35200 -6400 0
v -32000 -6400 0
v -35200 -9600 0
v -38400 -9600 0
v -38400 -6400 0
v -35200 -6400 0
v -38400 -9600 0
v -41600 -9600 0
v -41600 -6400 0
v -38400 -6400 0
v -41600 -9600 0
v -44800 -9600 0
v -44800 -6400 0
v -41600 -6400 0
v -44800 -9600 0
v -48000 -9600 0
v -48000 -6400 0
v -44800 -6400 0
v -128000 -9600 0
v -131200 -9600 0
v -131200 -6400 0
v -128000 -6400 0
v -131200 -9600 0
v -134400 -9600 0
v -134400 -6400 0
v -131200 -6400 0
v -134400 -9600 0
v -137600 -9600 0
v -137600 -6400 0
v -134400 -6400 0
v -147200 -9600 0
v -150400 -9600 0
v -150400 -6400 0
v -147200 -6400 0
v -150400 -9600 0
v -153600 -9600 0
v -153600 -6400 0
v -150400 -6400 0
v -153600 -9600 0
v -156800 -9600 0
v -156800 -6400 0
v -153600 -6400 0
v 0 -12800 0
v -3200 -12800 0
v -3200 -9600 0
v 0 -9600 0
v -3200 -12800 0
v -6400 -12800 0
v -6400 -9600 0
v -3200 -9600 0
v -6400 -12800 0
v -9600 -12800 0
v -9600 -9600 0
v -6400 -9600 0
v -9600 -12800 0
v -12800 -12800 0
v -12800 -9600 0
v -9600 -9600 0
v -16000 -12800 0
v -19200 -12800 0
v -19200 -9600 0
v -16000 -9600 0
v -19200 -12800 0
v -22400 -12800 0
v -22400 -9600 0
v -19200 -9600 0
v -22400 -12800 0
v -25600 -12800 0
v -25600 -9600 0
v -22400 -9600 0
v -28800 -12800 0
v -32000 -12800 0
v -32000 -9600 0
v -28800 -9600 0
v -32000 -12800 0
v -35200 -12800 0
v -35200 -9600 0
v -32000 -9600 0
v -35200 -12800 0
v -38400 -12800 0
v -38400 -9600 0
v -35200 -9600 0
v -128000 -12800 0
v -131200 -12800 0
v -131200 -9600 0
v -128000 -9600 0
v -131200 -12800 0
v -134400 -12800 0
v -134400 -9600 0
v -131200 -9600 0
v -134400 -12800 0
v -137600 -12800 0
v -137600 -9600 0
v -134400 -9600 0
v -147200 -12800 0
v -150400 -12800 0
v -150400 -9600 0
v -147200 -9600 0
v -150400 -12800 0
v -153600 -12800 0
v -153600 -9600 0
v -150400 -9600 0
v -153600 -12800 0
v -156800 -12800 0
v -156800 -9600 0
v -153600 -9600 0
v 0 -16000 0
v -3200 -16000 0
v -3200 -12800 0
v 0 -12800 0
v -3200 -16000 0
v -6400 -16000 0
v -6400 -12800 0
v -3200 -12800 0
v -6400 -16000 0
v -9600 -16000 0
v -9600 -12800 0
v -6400 -12800 0
v -9600 -16000 0
v -12800 -16000 0
v -12800 -12800 0
v -9600 -12800 0
v -16000 -16000 0
v -19200 -16000 0
v -19200 -12800 0
v -16000 -12800 0
v -19200 -16000 0
v -22400 -16000 0
v -22400 -12800 0
v -19200 -12800 0
v -22400 -16000 0
v -25600 -16000 0
v -25600 -12800 0
v -22400 -12800 0
v -128000 -16000 0
v -131200 -16000 0
v -131200 -12800 0
v -128000 -12800 0
v -131200 -16000 0
v -134400 -16000 0
v -134400 -12800 0
v -131200 -12800 0
v -134400 -16000 0
v -137600 -16000 0
v -137600 -12800 0
v -134400 -12800 0
v -147200 -16000 0
v -150400 -16000 0
v -150400 -12800 0
v -147200 -12800 0
v -150400 -16000 0
v -153600 -16000 0
v -153600 -12800 0
v -150400 -12800 0
v -153600 -16000 0
v -156800 -16000 0
v -156800 -12800 0
v -153600 -12800 0
v -156800 -16000 0
v -160000 -16000 0
v -160000 -12800 0
v -156800 -12800 0
v 0 -19200 0
v -3200 -19200 0
v -3200 -16000 0
v 0 -16000 0
v -3200 -19200 0
v -6400 -19200 0
v -6400 -16000 0
v -3200 -16000 0
v -6400 -19200 0
v -9600 -19200 0
v -9600 -16000 0
v -6400 -16000 0
v -9600 -19200 0
v -12800 -19200 0
v -12800 -16000 0
v -9600 -16000 0
v -144000 -19200 0
v -147200 -19200 0
v -147200 -16000 0
v -144000 -16000 0
v -147200 -19200 0
v -150400 -19200 0
v -150400 -16000 0
v -147200 -16000 0
v -150400 -19200 0
v -153600 -19200 0
v -153600 -16000 0
v -150400 -16000 0
v -156800 -19200 0
v -160000 -19200 0
v -160000 -16000 0
v -156800 -16000 0
v 0 -22400 0
v -3200 -22400 0
v -3200 -19200 0
v 0 -19200 0
v -144000 -22400 0
v -147200 -22400 0
v -147200 -19200 0
v -144000 -19200 0
v -147200 -22400 0
v -150400 -22400 0
v -150400 -19200 0
v -147200 -19200 0
v -150400 -22400 0
v -153600 -22400 0
v -153600 -19200 0
v -150400 -19200 0
v -156800 -22400 0
v -160000 -22400 0
v -160000 -19200 0
v -156800 -19200 0
v 0 -25600 0
v -3200 -25600 0
v -3200 -22400 0
v 0 -22400 0
v -144000 -25600 0
v -147200 -25600 0
v -147200 -22400 0
v -144000 -22400 0
v -147200 -25600 0
v -150400 -25600 0
v -150400 -22400 0
v -147200 -22400 0
v -150400 -25600 0
v -153600 -25600 0
v -153600 -22400 0
v -150400 -22400 0
v 0 -28800 0
v -3200 -28800 0
v -3200 -25600 0
v 0 -25600 0
v 0 -147200 0
v -3200 -147200 0
v -3200 -144000 0
v 0 -144000 0
v -19200 -147200 0
v -22400 -147200 0
v -22400 -144000 0
v -19200 -144000 0
v -22400 -147200 0
v -25600 -147200 0
v -25600 -144000 0
v -22400 -144000 0
v -25600 -147200 0
v -28800 -147200 0
v -28800 -144000 0
v -25600 -144000 0
v -41600 -147200 0
v -44800 -147200 0
v -44800 -144000 0
v -41600 -144000 0
v -44800 -147200 0
v -48000 -147200 0
v -48000 -144000 0
v -44800 -144000 0
v -48000 -147200 0
v -51200 -147200 0
v -51200 -144000 0
v -48000 -144000 0
v 0 -150400 0
v -3200 -150400 0
v -3200 -147200 0
v 0 -147200 0
v -19200 -150400 0
v -22400 -150400 0
v -22400 -147200 0
v -19200 -147200 0
v -22400 -150400 0
v -25600 -150400 0
v -25600 -147200 0
v -22400 -147200 0
v -25600 -150400 0
v -28800 -150400 0
v -28800 -147200 0
v -25600 -147200 0
v -28800 -150400 0
v -32000 -150400 0
v -32000 -147200 0
v -28800 -147200 0
v -32000 -150400 0
v -35200 -150400 0
v -35200 -147200 0
v -32000 -147200 0
v -35200 -150400 0
v -38400 -150400 0
v -38400 -147200 0
v -35200 -147200 0
v -41600 -150400 0
v -44800 -150400 0
v -44800 -147200 0
v -41600 -147200 0
v -44800 -150400 0
v -48000 -150400 0
v -48000 -147200 0
v -44800 -147200 0
v -48000 -150400 0
v -51200 -150400 0
v -51200 -147200 0
v -48000 -147200 0
v 0 -153600 0
v -3200 -153600 0
v -3200 -150400 0
v 0 -150400 0
v -19200 -153600 0
v -22400 -153600 0
v -22400 -150400 0
v -19200 -150400 0
v -22400 -153600 0
v -25600 -153600 0
v -25600 -150400 0
v -22400 -150400 0
v -25600 -153600 0
v -28800 -153600 0
v -28800 -150400 0
v -25600 -150400 0
v -28800 -153600 0
v -32000 -153600 0
v -32000 -150400 0
v -28800 -150400 0
v -32000 -153600 0
v -35200 -153600 0
v -35200 -150400 0
v -32000 -150400 0
v -35200 -153600 0
v -38400 -153600 0
v -38400 -150400 0
v -35200 -150400 0
v -41600 -153600 0
v -44800 -153600 0
v -44800 -150400 0
v -41600 -150400 0
v -44800 -153600 0
v -48000 -153600 0
v -48000 -150400 0
v -44800 -150400 0
v -48000 -153600 0
v -51200 -153600 0
v -51200 -150400 0
v -48000 -150400 0
v -28800 -156800 0
v -32000 -156800 0
v -32000 -153600 0
v -28800 -153600 0
v -32000 -156800 0
v -35200 -156800 0
v -35200 -153600 0
v -32000 -153600 0
v -35200 -156800 0
v -38400 -156800 0
v -38400 -153600 0
v -35200 -153600 0

# Texture cooridinates (Count = 47)
vt 0.5 0.8571429
vt 0.6666667 0.8571429
vt 0.6666667 1
vt 0.5 1
vt 0.8333333 0.8571429
vt 0.8333333 1
vt 1 0.8571429
vt 1 1
vt 0 0.4285714
vt 0.1666667 0.4285714
vt 0.1666667 0.5714285
vt 0 0.5714285
vt 0.3333333 0.4285714
vt 0.3333333 0.5714285
vt 0.5 0.4285714
vt 0.5 0.5714285
vt 0.5 0.7142857
vt 0.6666667 0.7142857
vt 0.8333333 0.7142857
vt 1 0.7142857
vt 0.1666667 0.7142857
vt 0 0.7142857
vt 0.3333333 0.7142857
vt 0.6666667 0.4285714
vt 0.6666667 0.5714285
vt 0.8333333 0.4285714
vt 0.8333333 0.5714285
vt 1 0.4285714
vt 1 0.5714285
vt 0 0.2857143
vt 0.1666667 0.2857143
vt 0.3333333 0.2857143
vt 0.5 0.2857143
vt 0.6666667 0.2857143
vt 0.8333333 0.2857143
vt 1 0.2857143
vt 0 0.1428571
vt 0.1666667 0.1428571
vt 0.3333333 0.1428571
vt 0.5 0.1428571
vt 0.6666667 0.1428571
vt 0.8333333 0.1428571
vt 1 0.1428571
vt 0.5 0
vt 0.6666667 0
vt 0.8333333 0
vt 1 0

# Normal
vn 0 0 -1

# Mesh description
g Village_mesh_0013

# Faces
f 1/1/1 2/2/1 3/3/1 4/4/1
f 5/2/1 6/5/1 7/6/1 8/3/1
f 9/5/1 10/7/1 11/8/1 12/6/1
f 13/9/1 14/10/1 15/11/1 16/12/1
f 17/10/1 18/13/1 19/14/1 20/11/1
f 21/13/1 22/15/1 23/16/1 24/14/1
f 25/17/1 26/18/1 27/2/1 28/1/1
f 29/18/1 30/19/1 31/5/1 32/2/1
f 33/19/1 34/20/1 35/7/1 36/5/1
f 37/17/1 38/18/1 39/2/1 40/1/1
f 41/18/1 42/19/1 43/5/1 44/2/1
f 45/19/1 46/20/1 47/7/1 48/5/1
f 49/12/1 50/11/1 51/21/1 52/22/1
f 53/11/1 54/14/1 55/23/1 56/21/1
f 57/14/1 58/16/1 59/17/1 60/23/1
f 61/17/1 62/18/1 63/2/1 64/1/1
f 65/18/1 66/19/1 67/5/1 68/2/1
f 69/19/1 70/20/1 71/7/1 72/5/1
f 73/15/1 74/24/1 75/25/1 76/16/1
f 77/24/1 78/26/1 79/27/1 80/25/1
f 81/26/1 82/28/1 83/29/1 84/27/1
f 85/9/1 86/10/1 87/11/1 88/12/1
f 89/10/1 90/13/1 91/14/1 92/11/1
f 93/13/1 94/15/1 95/16/1 96/14/1
f 97/30/1 98/31/1 99/10/1 100/9/1
f 101/31/1 102/32/1 103/13/1 104/10/1
f 105/32/1 106/33/1 107/15/1 108/13/1
f 109/16/1 110/25/1 111/18/1 112/17/1
f 113/25/1 114/27/1 115/19/1 116/18/1
f 117/27/1 118/29/1 119/20/1 120/19/1
f 121/16/1 122/25/1 123/18/1 124/17/1
f 125/25/1 126/27/1 127/19/1 128/18/1
f 129/27/1 130/29/1 131/20/1 132/19/1
f 133/15/1 134/24/1 135/25/1 136/16/1
f 137/24/1 138/26/1 139/27/1 140/25/1
f 141/26/1 142/28/1 143/29/1 144/27/1
f 145/26/1 146/28/1 147/29/1 148/27/1
f 149/16/1 150/25/1 151/18/1 152/17/1
f 153/25/1 154/27/1 155/19/1 156/18/1
f 157/27/1 158/29/1 159/20/1 160/19/1
f 161/33/1 162/34/1 163/24/1 164/15/1
f 165/34/1 166/35/1 167/26/1 168/24/1
f 169/35/1 170/36/1 171/28/1 172/26/1
f 173/30/1 174/31/1 175/10/1 176/9/1
f 177/31/1 178/32/1 179/13/1 180/10/1
f 181/32/1 182/33/1 183/15/1 184/13/1
f 185/37/1 186/38/1 187/31/1 188/30/1
f 189/38/1 190/39/1 191/32/1 192/31/1
f 193/39/1 194/40/1 195/33/1 196/32/1
f 197/33/1 198/34/1 199/24/1 200/15/1
f 201/34/1 202/35/1 203/26/1 204/24/1
f 205/35/1 206/36/1 207/28/1 208/26/1
f 209/1/1 210/2/1 211/3/1 212/4/1
f 213/2/1 214/5/1 215/6/1 216/3/1
f 217/5/1 218/7/1 219/8/1 220/6/1
f 221/35/1 222/36/1 223/28/1 224/26/1
f 225/9/1 226/10/1 227/11/1 228/12/1
f 229/10/1 230/13/1 231/14/1 232/11/1
f 233/13/1 234/15/1 235/16/1 236/14/1
f 237/40/1 238/41/1 239/34/1 240/33/1
f 241/41/1 242/42/1 243/35/1 244/34/1
f 245/42/1 246/43/1 247/36/1 248/35/1
f 249/37/1 250/38/1 251/31/1 252/30/1
f 253/38/1 254/39/1 255/32/1 256/31/1
f 257/39/1 258/40/1 259/33/1 260/32/1
f 261/40/1 262/41/1 263/34/1 264/33/1
f 265/41/1 266/42/1 267/35/1 268/34/1
f 269/42/1 270/43/1 271/36/1 272/35/1
f 273/17/1 274/18/1 275/2/1 276/1/1
f 277/18/1 278/19/1 279/5/1 280/2/1
f 281/19/1 282/20/1 283/7/1 284/5/1
f 285/42/1 286/43/1 287/36/1 288/35/1
f 289/30/1 290/31/1 291/10/1 292/9/1
f 293/31/1 294/32/1 295/13/1 296/10/1
f 297/32/1 298/33/1 299/15/1 300/13/1
f 301/44/1 302/45/1 303/41/1 304/40/1
f 305/45/1 306/46/1 307/42/1 308/41/1
f 309/46/1 310/47/1 311/43/1 312/42/1
f 313/44/1 314/45/1 315/41/1 316/40/1
f 317/45/1 318/46/1 319/42/1 320/41/1
f 321/46/1 322/47/1 323/43/1 324/42/1
f 325/16/1 326/25/1 327/18/1 328/17/1
f 329/25/1 330/27/1 331/19/1 332/18/1
f 333/27/1 334/29/1 335/20/1 336/19/1
f 337/1/1 338/2/1 339/3/1 340/4/1
f 341/46/1 342/47/1 343/43/1 344/42/1
f 345/37/1 346/38/1 347/31/1 348/30/1
f 349/38/1 350/39/1 351/32/1 352/31/1
f 353/39/1 354/40/1 355/33/1 356/32/1
f 357/9/1 358/10/1 359/11/1 360/12/1
f 361/10/1 362/13/1 363/14/1 364/11/1
f 365/13/1 366/15/1 367/16/1 368/14/1
f 369/17/1 370/18/1 371/2/1 372/1/1
f 373/5/1 374/7/1 375/8/1 376/6/1
f 377/30/1 378/31/1 379/10/1 380/9/1
f 381/31/1 382/32/1 383/13/1 384/10/1
f 385/32/1 386/33/1 387/15/1 388/13/1
f 389/16/1 390/25/1 391/18/1 392/17/1
f 393/19/1 394/20/1 395/7/1 396/5/1
f 397/37/1 398/38/1 399/31/1 400/30/1
f 401/38/1 402/39/1 403/32/1 404/31/1
f 405/39/1 406/40/1 407/33/1 408/32/1
f 409/27/1 410/29/1 411/20/1 412/19/1
f 413/5/1 414/7/1 415/8/1 416/6/1
f 417/1/1 418/2/1 419/3/1 420/4/1
f 421/2/1 422/5/1 423/6/1 424/3/1
f 425/5/1 426/7/1 427/8/1 428/6/1
f 429/9/1 430/10/1 431/11/1 432/12/1
f 433/10/1 434/13/1 435/14/1 436/11/1
f 437/13/1 438/15/1 439/16/1 440/14/1
f 441/19/1 442/20/1 443/7/1 444/5/1
f 445/17/1 446/18/1 447/2/1 448/1/1
f 449/18/1 450/19/1 451/5/1 452/2/1
f 453/19/1 454/20/1 455/7/1 456/5/1
f 457/9/1 458/10/1 459/11/1 460/12/1
f 461/10/1 462/13/1 463/14/1 464/11/1
f 465/13/1 466/15/1 467/16/1 468/14/1
f 469/30/1 470/31/1 471/10/1 472/9/1
f 473/31/1 474/32/1 475/13/1 476/10/1
f 477/32/1 478/33/1 479/15/1 480/13/1
f 481/27/1 482/29/1 483/20/1 484/19/1
f 485/16/1 486/25/1 487/18/1 488/17/1
f 489/25/1 490/27/1 491/19/1 492/18/1
f 493/27/1 494/29/1 495/20/1 496/19/1
f 497/30/1 498/31/1 499/10/1 500/9/1
f 501/31/1 502/32/1 503/13/1 504/10/1
f 505/32/1 506/33/1 507/15/1 508/13/1
f 509/37/1 510/38/1 511/31/1 512/30/1
f 513/38/1 514/39/1 515/32/1 516/31/1
f 517/39/1 518/40/1 519/33/1 520/32/1
f 521/37/1 522/38/1 523/31/1 524/30/1
f 525/38/1 526/39/1 527/32/1 528/31/1
f 529/39/1 530/40/1 531/33/1 532/32/1

