# Tiled2Unity generated file. Do not modify by hand.
# Wavefront file for 'Village_mesh_0020.obj'

# Vertices (Count = 84)
v -22400 -22400 0
v -25600 -22400 0
v -25600 -19200 0
v -22400 -19200 0
v -25600 -22400 0
v -28800 -22400 0
v -28800 -19200 0
v -25600 -19200 0
v -28800 -22400 0
v -32000 -22400 0
v -32000 -19200 0
v -28800 -19200 0
v -32000 -22400 0
v -35200 -22400 0
v -35200 -19200 0
v -32000 -19200 0
v -35200 -22400 0
v -38400 -22400 0
v -38400 -19200 0
v -35200 -19200 0
v -38400 -22400 0
v -41600 -22400 0
v -41600 -19200 0
v -38400 -19200 0
v -41600 -22400 0
v -44800 -22400 0
v -44800 -19200 0
v -41600 -19200 0
v -44800 -22400 0
v -48000 -22400 0
v -48000 -19200 0
v -44800 -19200 0
v -48000 -22400 0
v -51200 -22400 0
v -51200 -19200 0
v -48000 -19200 0
v -51200 -22400 0
v -54400 -22400 0
v -54400 -19200 0
v -51200 -19200 0
v -54400 -22400 0
v -57600 -22400 0
v -57600 -19200 0
v -54400 -19200 0
v -57600 -22400 0
v -60800 -22400 0
v -60800 -19200 0
v -57600 -19200 0
v -60800 -22400 0
v -64000 -22400 0
v -64000 -19200 0
v -60800 -19200 0
v -64000 -22400 0
v -67200 -22400 0
v -67200 -19200 0
v -64000 -19200 0
v -12800 -73600 0
v -16000 -73600 0
v -16000 -70400 0
v -12800 -70400 0
v -16000 -73600 0
v -19200 -73600 0
v -19200 -70400 0
v -16000 -70400 0
v -19200 -73600 0
v -22400 -73600 0
v -22400 -70400 0
v -19200 -70400 0
v -22400 -73600 0
v -25600 -73600 0
v -25600 -70400 0
v -22400 -70400 0
v -25600 -73600 0
v -28800 -73600 0
v -28800 -70400 0
v -25600 -70400 0
v -28800 -73600 0
v -32000 -73600 0
v -32000 -70400 0
v -28800 -70400 0
v -32000 -73600 0
v -35200 -73600 0
v -35200 -70400 0
v -32000 -70400 0

# Texture cooridinates (Count = 12)
vt 0.78125 0.5625
vt 0.8125 0.5625
vt 0.8125 0.59375
vt 0.78125 0.59375
vt 0.8125 0.625
vt 0.84375 0.625
vt 0.84375 0.65625
vt 0.8125 0.65625
vt 0.84375 0.5625
vt 0.875 0.5625
vt 0.875 0.59375
vt 0.84375 0.59375

# Normal
vn 0 0 -1

# Mesh description
g Village_mesh_0020

# Faces
f 1/1/1 2/2/1 3/3/1 4/4/1
f 5/5/1 6/6/1 7/7/1 8/8/1
f 9/5/1 10/6/1 11/7/1 12/8/1
f 13/5/1 14/6/1 15/7/1 16/8/1
f 17/5/1 18/6/1 19/7/1 20/8/1
f 21/5/1 22/6/1 23/7/1 24/8/1
f 25/5/1 26/6/1 27/7/1 28/8/1
f 29/5/1 30/6/1 31/7/1 32/8/1
f 33/5/1 34/6/1 35/7/1 36/8/1
f 37/5/1 38/6/1 39/7/1 40/8/1
f 41/5/1 42/6/1 43/7/1 44/8/1
f 45/5/1 46/6/1 47/7/1 48/8/1
f 49/5/1 50/6/1 51/7/1 52/8/1
f 53/9/1 54/10/1 55/11/1 56/12/1
f 57/1/1 58/2/1 59/3/1 60/4/1
f 61/5/1 62/6/1 63/7/1 64/8/1
f 65/5/1 66/6/1 67/7/1 68/8/1
f 69/5/1 70/6/1 71/7/1 72/8/1
f 73/5/1 74/6/1 75/7/1 76/8/1
f 77/5/1 78/6/1 79/7/1 80/8/1
f 81/5/1 82/6/1 83/7/1 84/8/1

