# Tiled2Unity generated file. Do not modify by hand.
# Wavefront file for 'Village_mesh_0017.obj'

# Vertices (Count = 128)
v -22400 -48000 0
v -25600 -48000 0
v -25600 -44800 0
v -22400 -44800 0
v -25600 -48000 0
v -28800 -48000 0
v -28800 -44800 0
v -25600 -44800 0
v -28800 -48000 0
v -32000 -48000 0
v -32000 -44800 0
v -28800 -44800 0
v -32000 -48000 0
v -35200 -48000 0
v -35200 -44800 0
v -32000 -44800 0
v -35200 -48000 0
v -38400 -48000 0
v -38400 -44800 0
v -35200 -44800 0
v -38400 -48000 0
v -41600 -48000 0
v -41600 -44800 0
v -38400 -44800 0
v -41600 -48000 0
v -44800 -48000 0
v -44800 -44800 0
v -41600 -44800 0
v -44800 -48000 0
v -48000 -48000 0
v -48000 -44800 0
v -44800 -44800 0
v -22400 -51200 0
v -25600 -51200 0
v -25600 -48000 0
v -22400 -48000 0
v -25600 -51200 0
v -28800 -51200 0
v -28800 -48000 0
v -25600 -48000 0
v -28800 -51200 0
v -32000 -51200 0
v -32000 -48000 0
v -28800 -48000 0
v -32000 -51200 0
v -35200 -51200 0
v -35200 -48000 0
v -32000 -48000 0
v -35200 -51200 0
v -38400 -51200 0
v -38400 -48000 0
v -35200 -48000 0
v -38400 -51200 0
v -41600 -51200 0
v -41600 -48000 0
v -38400 -48000 0
v -41600 -51200 0
v -44800 -51200 0
v -44800 -48000 0
v -41600 -48000 0
v -44800 -51200 0
v -48000 -51200 0
v -48000 -48000 0
v -44800 -48000 0
v -22400 -54400 0
v -25600 -54400 0
v -25600 -51200 0
v -22400 -51200 0
v -25600 -54400 0
v -28800 -54400 0
v -28800 -51200 0
v -25600 -51200 0
v -28800 -54400 0
v -32000 -54400 0
v -32000 -51200 0
v -28800 -51200 0
v -32000 -54400 0
v -35200 -54400 0
v -35200 -51200 0
v -32000 -51200 0
v -35200 -54400 0
v -38400 -54400 0
v -38400 -51200 0
v -35200 -51200 0
v -38400 -54400 0
v -41600 -54400 0
v -41600 -51200 0
v -38400 -51200 0
v -41600 -54400 0
v -44800 -54400 0
v -44800 -51200 0
v -41600 -51200 0
v -44800 -54400 0
v -48000 -54400 0
v -48000 -51200 0
v -44800 -51200 0
v -22400 -57600 0
v -25600 -57600 0
v -25600 -54400 0
v -22400 -54400 0
v -25600 -57600 0
v -28800 -57600 0
v -28800 -54400 0
v -25600 -54400 0
v -28800 -57600 0
v -32000 -57600 0
v -32000 -54400 0
v -28800 -54400 0
v -32000 -57600 0
v -35200 -57600 0
v -35200 -54400 0
v -32000 -54400 0
v -35200 -57600 0
v -38400 -57600 0
v -38400 -54400 0
v -35200 -54400 0
v -38400 -57600 0
v -41600 -57600 0
v -41600 -54400 0
v -38400 -54400 0
v -41600 -57600 0
v -44800 -57600 0
v -44800 -54400 0
v -41600 -54400 0
v -44800 -57600 0
v -48000 -57600 0
v -48000 -54400 0
v -44800 -54400 0

# Texture cooridinates (Count = 16)
vt 0 0.90625
vt 0.03125 0.90625
vt 0.03125 0.9375
vt 0 0.9375
vt 0.0625 0.90625
vt 0.0625 0.9375
vt 0.09375 0.90625
vt 0.09375 0.9375
vt 0 0.875
vt 0.03125 0.875
vt 0.0625 0.875
vt 0.09375 0.875
vt 0 0.84375
vt 0.03125 0.84375
vt 0.0625 0.84375
vt 0.09375 0.84375

# Normal
vn 0 0 -1

# Mesh description
g Village_mesh_0017

# Faces
f 1/1/1 2/2/1 3/3/1 4/4/1
f 5/2/1 6/5/1 7/6/1 8/3/1
f 9/2/1 10/5/1 11/6/1 12/3/1
f 13/2/1 14/5/1 15/6/1 16/3/1
f 17/2/1 18/5/1 19/6/1 20/3/1
f 21/2/1 22/5/1 23/6/1 24/3/1
f 25/2/1 26/5/1 27/6/1 28/3/1
f 29/5/1 30/7/1 31/8/1 32/6/1
f 33/9/1 34/10/1 35/2/1 36/1/1
f 37/10/1 38/11/1 39/5/1 40/2/1
f 41/10/1 42/11/1 43/5/1 44/2/1
f 45/10/1 46/11/1 47/5/1 48/2/1
f 49/10/1 50/11/1 51/5/1 52/2/1
f 53/10/1 54/11/1 55/5/1 56/2/1
f 57/10/1 58/11/1 59/5/1 60/2/1
f 61/11/1 62/12/1 63/7/1 64/5/1
f 65/9/1 66/10/1 67/2/1 68/1/1
f 69/10/1 70/11/1 71/5/1 72/2/1
f 73/10/1 74/11/1 75/5/1 76/2/1
f 77/10/1 78/11/1 79/5/1 80/2/1
f 81/10/1 82/11/1 83/5/1 84/2/1
f 85/10/1 86/11/1 87/5/1 88/2/1
f 89/10/1 90/11/1 91/5/1 92/2/1
f 93/11/1 94/12/1 95/7/1 96/5/1
f 97/13/1 98/14/1 99/10/1 100/9/1
f 101/14/1 102/15/1 103/11/1 104/10/1
f 105/14/1 106/15/1 107/11/1 108/10/1
f 109/14/1 110/15/1 111/11/1 112/10/1
f 113/14/1 114/15/1 115/11/1 116/10/1
f 117/14/1 118/15/1 119/11/1 120/10/1
f 121/14/1 122/15/1 123/11/1 124/10/1
f 125/15/1 126/16/1 127/12/1 128/11/1

