# Tiled2Unity generated file. Do not modify by hand.
# Wavefront file for 'Village_mesh_0002.obj'

# Vertices (Count = 356)
v -96000 -3200 0
v -99200 -3200 0
v -99200 0 0
v -96000 0 0
v -9600 -6400 0
v -12800 -6400 0
v -12800 -3200 0
v -9600 -3200 0
v -38400 -9600 0
v -41600 -9600 0
v -41600 -6400 0
v -38400 -6400 0
v -44800 -9600 0
v -48000 -9600 0
v -48000 -6400 0
v -44800 -6400 0
v -105600 -9600 0
v -108800 -9600 0
v -108800 -6400 0
v -105600 -6400 0
v -134400 -9600 0
v -137600 -9600 0
v -137600 -6400 0
v -134400 -6400 0
v -64000 -12800 0
v -67200 -12800 0
v -67200 -9600 0
v -64000 -9600 0
v -124800 -12800 0
v -128000 -12800 0
v -128000 -9600 0
v -124800 -9600 0
v -115200 -16000 0
v -118400 -16000 0
v -118400 -12800 0
v -115200 -12800 0
v -83200 -19200 0
v -86400 -19200 0
v -86400 -16000 0
v -83200 -16000 0
v -144000 -19200 0
v -147200 -19200 0
v -147200 -16000 0
v -144000 -16000 0
v -6400 -22400 0
v -9600 -22400 0
v -9600 -19200 0
v -6400 -19200 0
v -105600 -22400 0
v -108800 -22400 0
v -108800 -19200 0
v -105600 -19200 0
v -147200 -22400 0
v -150400 -22400 0
v -150400 -19200 0
v -147200 -19200 0
v -51200 -25600 0
v -54400 -25600 0
v -54400 -22400 0
v -51200 -22400 0
v -134400 -28800 0
v -137600 -28800 0
v -137600 -25600 0
v -134400 -25600 0
v -19200 -35200 0
v -22400 -35200 0
v -22400 -32000 0
v -19200 -32000 0
v -35200 -35200 0
v -38400 -35200 0
v -38400 -32000 0
v -35200 -32000 0
v -140800 -35200 0
v -144000 -35200 0
v -144000 -32000 0
v -140800 -32000 0
v -73600 -38400 0
v -76800 -38400 0
v -76800 -35200 0
v -73600 -35200 0
v -54400 -41600 0
v -57600 -41600 0
v -57600 -38400 0
v -54400 -38400 0
v -73600 -48000 0
v -76800 -48000 0
v -76800 -44800 0
v -73600 -44800 0
v -121600 -51200 0
v -124800 -51200 0
v -124800 -48000 0
v -121600 -48000 0
v -131200 -51200 0
v -134400 -51200 0
v -134400 -48000 0
v -131200 -48000 0
v -9600 -54400 0
v -12800 -54400 0
v -12800 -51200 0
v -9600 -51200 0
v -54400 -54400 0
v -57600 -54400 0
v -57600 -51200 0
v -54400 -51200 0
v -153600 -54400 0
v -156800 -54400 0
v -156800 -51200 0
v -153600 -51200 0
v -35200 -57600 0
v -38400 -57600 0
v -38400 -54400 0
v -35200 -54400 0
v -38400 -57600 0
v -41600 -57600 0
v -41600 -54400 0
v -38400 -54400 0
v -9600 -60800 0
v -12800 -60800 0
v -12800 -57600 0
v -9600 -57600 0
v -102400 -67200 0
v -105600 -67200 0
v -105600 -64000 0
v -102400 -64000 0
v -150400 -67200 0
v -153600 -67200 0
v -153600 -64000 0
v -150400 -64000 0
v -70400 -70400 0
v -73600 -70400 0
v -73600 -67200 0
v -70400 -67200 0
v -150400 -70400 0
v -153600 -70400 0
v -153600 -67200 0
v -150400 -67200 0
v -32000 -73600 0
v -35200 -73600 0
v -35200 -70400 0
v -32000 -70400 0
v -115200 -76800 0
v -118400 -76800 0
v -118400 -73600 0
v -115200 -73600 0
v -108800 -80000 0
v -112000 -80000 0
v -112000 -76800 0
v -108800 -76800 0
v -144000 -83200 0
v -147200 -83200 0
v -147200 -80000 0
v -144000 -80000 0
v -9600 -86400 0
v -12800 -86400 0
v -12800 -83200 0
v -9600 -83200 0
v -19200 -89600 0
v -22400 -89600 0
v -22400 -86400 0
v -19200 -86400 0
v -64000 -89600 0
v -67200 -89600 0
v -67200 -86400 0
v -64000 -86400 0
v -115200 -89600 0
v -118400 -89600 0
v -118400 -86400 0
v -115200 -86400 0
v -134400 -89600 0
v -137600 -89600 0
v -137600 -86400 0
v -134400 -86400 0
v -137600 -89600 0
v -140800 -89600 0
v -140800 -86400 0
v -137600 -86400 0
v -134400 -92800 0
v -137600 -92800 0
v -137600 -89600 0
v -134400 -89600 0
v -12800 -99200 0
v -16000 -99200 0
v -16000 -96000 0
v -12800 -96000 0
v -124800 -99200 0
v -128000 -99200 0
v -128000 -96000 0
v -124800 -96000 0
v -6400 -102400 0
v -9600 -102400 0
v -9600 -99200 0
v -6400 -99200 0
v -32000 -102400 0
v -35200 -102400 0
v -35200 -99200 0
v -32000 -99200 0
v -64000 -105600 0
v -67200 -105600 0
v -67200 -102400 0
v -64000 -102400 0
v -96000 -105600 0
v -99200 -105600 0
v -99200 -102400 0
v -96000 -102400 0
v -147200 -105600 0
v -150400 -105600 0
v -150400 -102400 0
v -147200 -102400 0
v -86400 -108800 0
v -89600 -108800 0
v -89600 -105600 0
v -86400 -105600 0
v -115200 -108800 0
v -118400 -108800 0
v -118400 -105600 0
v -115200 -105600 0
v -44800 -112000 0
v -48000 -112000 0
v -48000 -108800 0
v -44800 -108800 0
v -86400 -112000 0
v -89600 -112000 0
v -89600 -108800 0
v -86400 -108800 0
v -73600 -118400 0
v -76800 -118400 0
v -76800 -115200 0
v -73600 -115200 0
v -102400 -118400 0
v -105600 -118400 0
v -105600 -115200 0
v -102400 -115200 0
v -137600 -121600 0
v -140800 -121600 0
v -140800 -118400 0
v -137600 -118400 0
v -3200 -124800 0
v -6400 -124800 0
v -6400 -121600 0
v -3200 -121600 0
v -19200 -124800 0
v -22400 -124800 0
v -22400 -121600 0
v -19200 -121600 0
v -48000 -124800 0
v -51200 -124800 0
v -51200 -121600 0
v -48000 -121600 0
v -92800 -124800 0
v -96000 -124800 0
v -96000 -121600 0
v -92800 -121600 0
v -115200 -124800 0
v -118400 -124800 0
v -118400 -121600 0
v -115200 -121600 0
v -112000 -128000 0
v -115200 -128000 0
v -115200 -124800 0
v -112000 -124800 0
v -54400 -131200 0
v -57600 -131200 0
v -57600 -128000 0
v -54400 -128000 0
v -25600 -134400 0
v -28800 -134400 0
v -28800 -131200 0
v -25600 -131200 0
v -76800 -134400 0
v -80000 -134400 0
v -80000 -131200 0
v -76800 -131200 0
v -6400 -137600 0
v -9600 -137600 0
v -9600 -134400 0
v -6400 -134400 0
v -96000 -137600 0
v -99200 -137600 0
v -99200 -134400 0
v -96000 -134400 0
v -153600 -137600 0
v -156800 -137600 0
v -156800 -134400 0
v -153600 -134400 0
v -121600 -140800 0
v -124800 -140800 0
v -124800 -137600 0
v -121600 -137600 0
v -140800 -140800 0
v -144000 -140800 0
v -144000 -137600 0
v -140800 -137600 0
v -60800 -144000 0
v -64000 -144000 0
v -64000 -140800 0
v -60800 -140800 0
v -73600 -144000 0
v -76800 -144000 0
v -76800 -140800 0
v -73600 -140800 0
v -64000 -147200 0
v -67200 -147200 0
v -67200 -144000 0
v -64000 -144000 0
v -73600 -147200 0
v -76800 -147200 0
v -76800 -144000 0
v -73600 -144000 0
v -41600 -150400 0
v -44800 -150400 0
v -44800 -147200 0
v -41600 -147200 0
v -105600 -150400 0
v -108800 -150400 0
v -108800 -147200 0
v -105600 -147200 0
v -6400 -153600 0
v -9600 -153600 0
v -9600 -150400 0
v -6400 -150400 0
v -19200 -153600 0
v -22400 -153600 0
v -22400 -150400 0
v -19200 -150400 0
v -118400 -153600 0
v -121600 -153600 0
v -121600 -150400 0
v -118400 -150400 0
v -137600 -153600 0
v -140800 -153600 0
v -140800 -150400 0
v -137600 -150400 0
v -83200 -156800 0
v -86400 -156800 0
v -86400 -153600 0
v -83200 -153600 0
v -86400 -156800 0
v -89600 -156800 0
v -89600 -153600 0
v -86400 -153600 0
v -121600 -156800 0
v -124800 -156800 0
v -124800 -153600 0
v -121600 -153600 0
v -150400 -156800 0
v -153600 -156800 0
v -153600 -153600 0
v -150400 -153600 0
v -153600 -156800 0
v -156800 -156800 0
v -156800 -153600 0
v -153600 -153600 0
v -54400 -160000 0
v -57600 -160000 0
v -57600 -156800 0
v -54400 -156800 0

# Texture cooridinates (Count = 8)
vt 0.25 0.9375
vt 0.375 0.9375
vt 0.375 1
vt 0.25 1
vt 0 0.9375
vt 0.125 0.9375
vt 0.125 1
vt 0 1

# Normal
vn 0 0 -1

# Mesh description
g Village_mesh_0002

# Faces
f 1/1/1 2/2/1 3/3/1 4/4/1
f 5/5/1 6/6/1 7/7/1 8/8/1
f 9/5/1 10/6/1 11/7/1 12/8/1
f 13/6/1 14/1/1 15/4/1 16/7/1
f 17/1/1 18/2/1 19/3/1 20/4/1
f 21/1/1 22/2/1 23/3/1 24/4/1
f 25/5/1 26/6/1 27/7/1 28/8/1
f 29/1/1 30/2/1 31/3/1 32/4/1
f 33/1/1 34/2/1 35/3/1 36/4/1
f 37/5/1 38/6/1 39/7/1 40/8/1
f 41/1/1 42/2/1 43/3/1 44/4/1
f 45/6/1 46/1/1 47/4/1 48/7/1
f 49/6/1 50/1/1 51/4/1 52/7/1
f 53/1/1 54/2/1 55/3/1 56/4/1
f 57/5/1 58/6/1 59/7/1 60/8/1
f 61/5/1 62/6/1 63/7/1 64/8/1
f 65/5/1 66/6/1 67/7/1 68/8/1
f 69/1/1 70/2/1 71/3/1 72/4/1
f 73/6/1 74/1/1 75/4/1 76/7/1
f 77/1/1 78/2/1 79/3/1 80/4/1
f 81/1/1 82/2/1 83/3/1 84/4/1
f 85/5/1 86/6/1 87/7/1 88/8/1
f 89/1/1 90/2/1 91/3/1 92/4/1
f 93/1/1 94/2/1 95/3/1 96/4/1
f 97/5/1 98/6/1 99/7/1 100/8/1
f 101/6/1 102/1/1 103/4/1 104/7/1
f 105/6/1 106/1/1 107/4/1 108/7/1
f 109/6/1 110/1/1 111/4/1 112/7/1
f 113/6/1 114/1/1 115/4/1 116/7/1
f 117/6/1 118/1/1 119/4/1 120/7/1
f 121/6/1 122/1/1 123/4/1 124/7/1
f 125/1/1 126/2/1 127/3/1 128/4/1
f 129/5/1 130/6/1 131/7/1 132/8/1
f 133/1/1 134/2/1 135/3/1 136/4/1
f 137/1/1 138/2/1 139/3/1 140/4/1
f 141/1/1 142/2/1 143/3/1 144/4/1
f 145/6/1 146/1/1 147/4/1 148/7/1
f 149/1/1 150/2/1 151/3/1 152/4/1
f 153/1/1 154/2/1 155/3/1 156/4/1
f 157/6/1 158/1/1 159/4/1 160/7/1
f 161/5/1 162/6/1 163/7/1 164/8/1
f 165/6/1 166/1/1 167/4/1 168/7/1
f 169/6/1 170/1/1 171/4/1 172/7/1
f 173/5/1 174/6/1 175/7/1 176/8/1
f 177/6/1 178/1/1 179/4/1 180/7/1
f 181/6/1 182/1/1 183/4/1 184/7/1
f 185/6/1 186/1/1 187/4/1 188/7/1
f 189/6/1 190/1/1 191/4/1 192/7/1
f 193/6/1 194/1/1 195/4/1 196/7/1
f 197/6/1 198/1/1 199/4/1 200/7/1
f 201/6/1 202/1/1 203/4/1 204/7/1
f 205/1/1 206/2/1 207/3/1 208/4/1
f 209/5/1 210/6/1 211/7/1 212/8/1
f 213/6/1 214/1/1 215/4/1 216/7/1
f 217/1/1 218/2/1 219/3/1 220/4/1
f 221/6/1 222/1/1 223/4/1 224/7/1
f 225/5/1 226/6/1 227/7/1 228/8/1
f 229/1/1 230/2/1 231/3/1 232/4/1
f 233/1/1 234/2/1 235/3/1 236/4/1
f 237/6/1 238/1/1 239/4/1 240/7/1
f 241/5/1 242/6/1 243/7/1 244/8/1
f 245/1/1 246/2/1 247/3/1 248/4/1
f 249/1/1 250/2/1 251/3/1 252/4/1
f 253/6/1 254/1/1 255/4/1 256/7/1
f 257/1/1 258/2/1 259/3/1 260/4/1
f 261/1/1 262/2/1 263/3/1 264/4/1
f 265/6/1 266/1/1 267/4/1 268/7/1
f 269/6/1 270/1/1 271/4/1 272/7/1
f 273/5/1 274/6/1 275/7/1 276/8/1
f 277/1/1 278/2/1 279/3/1 280/4/1
f 281/6/1 282/1/1 283/4/1 284/7/1
f 285/5/1 286/6/1 287/7/1 288/8/1
f 289/5/1 290/6/1 291/7/1 292/8/1
f 293/6/1 294/1/1 295/4/1 296/7/1
f 297/6/1 298/1/1 299/4/1 300/7/1
f 301/6/1 302/1/1 303/4/1 304/7/1
f 305/5/1 306/6/1 307/7/1 308/8/1
f 309/5/1 310/6/1 311/7/1 312/8/1
f 313/6/1 314/1/1 315/4/1 316/7/1
f 317/1/1 318/2/1 319/3/1 320/4/1
f 321/6/1 322/1/1 323/4/1 324/7/1
f 325/6/1 326/1/1 327/4/1 328/7/1
f 329/1/1 330/2/1 331/3/1 332/4/1
f 333/1/1 334/2/1 335/3/1 336/4/1
f 337/5/1 338/6/1 339/7/1 340/8/1
f 341/5/1 342/6/1 343/7/1 344/8/1
f 345/5/1 346/6/1 347/7/1 348/8/1
f 349/6/1 350/1/1 351/4/1 352/7/1
f 353/1/1 354/2/1 355/3/1 356/4/1

