# Tiled2Unity generated file. Do not modify by hand.
# Wavefront file for 'Village_mesh_0021.obj'

# Vertices (Count = 40)
v -80000 -9600 0
v -83200 -9600 0
v -83200 -6400 0
v -80000 -6400 0
v -80000 -12800 0
v -83200 -12800 0
v -83200 -9600 0
v -80000 -9600 0
v -99200 -32000 0
v -102400 -32000 0
v -102400 -28800 0
v -99200 -28800 0
v -102400 -32000 0
v -105600 -32000 0
v -105600 -28800 0
v -102400 -28800 0
v -38400 -35200 0
v -41600 -35200 0
v -41600 -32000 0
v -38400 -32000 0
v -99200 -35200 0
v -102400 -35200 0
v -102400 -32000 0
v -99200 -32000 0
v -102400 -35200 0
v -105600 -35200 0
v -105600 -32000 0
v -102400 -32000 0
v -38400 -38400 0
v -41600 -38400 0
v -41600 -35200 0
v -38400 -35200 0
v -28800 -51200 0
v -32000 -51200 0
v -32000 -48000 0
v -28800 -48000 0
v -28800 -54400 0
v -32000 -54400 0
v -32000 -51200 0
v -28800 -51200 0

# Texture cooridinates (Count = 21)
vt 0.15625 0.875
vt 0.1875 0.875
vt 0.1875 0.90625
vt 0.15625 0.90625
vt 0.15625 0.84375
vt 0.1875 0.84375
vt 0.59375 0.3125
vt 0.625 0.3125
vt 0.625 0.34375
vt 0.59375 0.34375
vt 0.65625 0.3125
vt 0.65625 0.34375
vt 0.59375 0.28125
vt 0.625 0.28125
vt 0.65625 0.28125
vt 0.25 0.6875
vt 0.28125 0.6875
vt 0.28125 0.71875
vt 0.25 0.71875
vt 0.25 0.65625
vt 0.28125 0.65625

# Normal
vn 0 0 -1

# Mesh description
g Village_mesh_0021

# Faces
f 1/1/1 2/2/1 3/3/1 4/4/1
f 5/5/1 6/6/1 7/2/1 8/1/1
f 9/7/1 10/8/1 11/9/1 12/10/1
f 13/8/1 14/11/1 15/12/1 16/9/1
f 17/1/1 18/2/1 19/3/1 20/4/1
f 21/13/1 22/14/1 23/8/1 24/7/1
f 25/14/1 26/15/1 27/11/1 28/8/1
f 29/5/1 30/6/1 31/2/1 32/1/1
f 33/16/1 34/17/1 35/18/1 36/19/1
f 37/20/1 38/21/1 39/17/1 40/16/1

