# Tiled2Unity generated file. Do not modify by hand.
# Wavefront file for 'Village_mesh_0024.obj'

# Vertices (Count = 24)
v -134400 -70400 0
v -137600 -70400 0
v -137600 -67200 0
v -134400 -67200 0
v -137600 -70400 0
v -140800 -70400 0
v -140800 -67200 0
v -137600 -67200 0
v -134400 -73600 0
v -137600 -73600 0
v -137600 -70400 0
v -134400 -70400 0
v -137600 -73600 0
v -140800 -73600 0
v -140800 -70400 0
v -137600 -70400 0
v -140800 -73600 0
v -144000 -73600 0
v -144000 -70400 0
v -140800 -70400 0
v -140800 -76800 0
v -144000 -76800 0
v -144000 -73600 0
v -140800 -73600 0

# Texture cooridinates (Count = 12)
vt 0.375 0.9375
vt 0.3125 0.9375
vt 0.3125 1
vt 0.375 1
vt 0.25 0.9375
vt 0.25 1
vt 0.375 0.875
vt 0.3125 0.875
vt 0.25 0.875
vt 0.1875 0.9375
vt 0.1875 1
vt 0.1875 0.875

# Normal
vn 0 0 -1

# Mesh description
g Village_mesh_0024

# Faces
f 1/1/1 2/2/1 3/3/1 4/4/1
f 5/2/1 6/5/1 7/6/1 8/3/1
f 9/7/1 10/8/1 11/2/1 12/1/1
f 13/8/1 14/9/1 15/5/1 16/2/1
f 17/10/1 18/5/1 19/6/1 20/11/1
f 21/12/1 22/9/1 23/5/1 24/10/1

