# Tiled2Unity generated file. Do not modify by hand.
# Wavefront file for 'Village_mesh_0026.obj'

# Vertices (Count = 24)
v -83200 -35200 0
v -86400 -35200 0
v -86400 -32000 0
v -83200 -32000 0
v -83200 -38400 0
v -86400 -38400 0
v -86400 -35200 0
v -83200 -35200 0
v -38400 -57600 0
v -41600 -57600 0
v -41600 -54400 0
v -38400 -54400 0
v -38400 -60800 0
v -41600 -60800 0
v -41600 -57600 0
v -38400 -57600 0
v -41600 -96000 0
v -44800 -96000 0
v -44800 -92800 0
v -41600 -92800 0
v -41600 -99200 0
v -44800 -99200 0
v -44800 -96000 0
v -41600 -96000 0

# Texture cooridinates (Count = 6)
vt 0.4444444 0.8571429
vt 0.5555556 0.8571429
vt 0.5555556 1
vt 0.4444444 1
vt 0.4444444 0.7142857
vt 0.5555556 0.7142857

# Normal
vn 0 0 -1

# Mesh description
g Village_mesh_0026

# Faces
f 1/1/1 2/2/1 3/3/1 4/4/1
f 5/5/1 6/6/1 7/2/1 8/1/1
f 9/1/1 10/2/1 11/3/1 12/4/1
f 13/5/1 14/6/1 15/2/1 16/1/1
f 17/1/1 18/2/1 19/3/1 20/4/1
f 21/5/1 22/6/1 23/2/1 24/1/1

