# Tiled2Unity generated file. Do not modify by hand.
# Wavefront file for 'HouseInsideMapADgame_mesh_0007.obj'

# Vertices (Count = 140)
v -35200 -9600 0
v -38400 -9600 0
v -38400 -6400 0
v -35200 -6400 0
v -38400 -9600 0
v -41600 -9600 0
v -41600 -6400 0
v -38400 -6400 0
v -41600 -9600 0
v -44800 -9600 0
v -44800 -6400 0
v -41600 -6400 0
v -35200 -12800 0
v -38400 -12800 0
v -38400 -9600 0
v -35200 -9600 0
v -38400 -12800 0
v -41600 -12800 0
v -41600 -9600 0
v -38400 -9600 0
v -41600 -12800 0
v -44800 -12800 0
v -44800 -9600 0
v -41600 -9600 0
v -51200 -12800 0
v -54400 -12800 0
v -54400 -9600 0
v -51200 -9600 0
v -35200 -16000 0
v -38400 -16000 0
v -38400 -12800 0
v -35200 -12800 0
v -38400 -16000 0
v -41600 -16000 0
v -41600 -12800 0
v -38400 -12800 0
v -41600 -16000 0
v -44800 -16000 0
v -44800 -12800 0
v -41600 -12800 0
v -35200 -22400 0
v -38400 -22400 0
v -38400 -19200 0
v -35200 -19200 0
v -38400 -22400 0
v -41600 -22400 0
v -41600 -19200 0
v -38400 -19200 0
v -41600 -22400 0
v -44800 -22400 0
v -44800 -19200 0
v -41600 -19200 0
v -35200 -25600 0
v -38400 -25600 0
v -38400 -22400 0
v -35200 -22400 0
v -38400 -25600 0
v -41600 -25600 0
v -41600 -22400 0
v -38400 -22400 0
v -41600 -25600 0
v -44800 -25600 0
v -44800 -22400 0
v -41600 -22400 0
v -35200 -28800 0
v -38400 -28800 0
v -38400 -25600 0
v -35200 -25600 0
v -38400 -28800 0
v -41600 -28800 0
v -41600 -25600 0
v -38400 -25600 0
v -41600 -28800 0
v -44800 -28800 0
v -44800 -25600 0
v -41600 -25600 0
v -73600 -28800 0
v -76800 -28800 0
v -76800 -25600 0
v -73600 -25600 0
v -73600 -32000 0
v -76800 -32000 0
v -76800 -28800 0
v -73600 -28800 0
v -57600 -35200 0
v -60800 -35200 0
v -60800 -32000 0
v -57600 -32000 0
v -60800 -35200 0
v -64000 -35200 0
v -64000 -32000 0
v -60800 -32000 0
v -64000 -35200 0
v -67200 -35200 0
v -67200 -32000 0
v -64000 -32000 0
v -67200 -35200 0
v -70400 -35200 0
v -70400 -32000 0
v -67200 -32000 0
v -70400 -35200 0
v -73600 -35200 0
v -73600 -32000 0
v -70400 -32000 0
v -73600 -35200 0
v -76800 -35200 0
v -76800 -32000 0
v -73600 -32000 0
v -76800 -35200 0
v -80000 -35200 0
v -80000 -32000 0
v -76800 -32000 0
v -57600 -38400 0
v -60800 -38400 0
v -60800 -35200 0
v -57600 -35200 0
v -60800 -38400 0
v -64000 -38400 0
v -64000 -35200 0
v -60800 -35200 0
v -64000 -38400 0
v -67200 -38400 0
v -67200 -35200 0
v -64000 -35200 0
v -67200 -38400 0
v -70400 -38400 0
v -70400 -35200 0
v -67200 -35200 0
v -70400 -38400 0
v -73600 -38400 0
v -73600 -35200 0
v -70400 -35200 0
v -73600 -38400 0
v -76800 -38400 0
v -76800 -35200 0
v -73600 -35200 0
v -76800 -38400 0
v -80000 -38400 0
v -80000 -35200 0
v -76800 -35200 0

# Texture cooridinates (Count = 76)
vt 0.5 0.9375
vt 0.5625 0.9375
vt 0.5625 1
vt 0.5 1
vt 0.625 0.9375
vt 0.625 1
vt 0.6875 0.9375
vt 0.6875 1
vt 0.5 0.875
vt 0.5625 0.875
vt 0.625 0.875
vt 0.875 0.9375
vt 0.9375 0.9375
vt 0.9375 1
vt 0.875 1
vt 0.375 0.6875
vt 0.4375 0.6875
vt 0.4375 0.75
vt 0.375 0.75
vt 0.5 0.8125
vt 0.5625 0.8125
vt 0.625 0.8125
vt 0.875 0.875
vt 0.9375 0.875
vt 0 0.6875
vt 0.0625 0.6875
vt 0.0625 0.75
vt 0 0.75
vt 0.125 0.6875
vt 0.125 0.75
vt 0.1875 0.6875
vt 0.1875 0.75
vt 0.375 0.625
vt 0.4375 0.625
vt 0.0625 0.625
vt 0.125 0.625
vt 0.5 0.625
vt 0.5 0.6875
vt 0 0.5625
vt 0.0625 0.5625
vt 0 0.625
vt 0.125 0.5625
vt 0.1875 0.5625
vt 0.1875 0.625
vt 0.5 0.375
vt 0.5625 0.375
vt 0.5625 0.4375
vt 0.5 0.4375
vt 0.5 0.3125
vt 0.5625 0.3125
vt 0.625 0.0625
vt 0.6875 0.0625
vt 0.6875 0.125
vt 0.625 0.125
vt 0.6875 0.375
vt 0.75 0.375
vt 0.75 0.4375
vt 0.6875 0.4375
vt 0.625 0.375
vt 0.625 0.4375
vt 0.75 0.0625
vt 0.75 0.125
vt 0.5 0.25
vt 0.5625 0.25
vt 0.8125 0.25
vt 0.875 0.25
vt 0.875 0.3125
vt 0.8125 0.3125
vt 0.8125 0.125
vt 0.875 0.125
vt 0.875 0.1875
vt 0.8125 0.1875
vt 0.9375 0.125
vt 0.9375 0.1875
vt 0.5 0.1875
vt 0.5625 0.1875

# Normal
vn 0 0 -1

# Mesh description
g HouseInsideMapADgame_mesh_0007

# Faces
f 1/1/1 2/2/1 3/3/1 4/4/1
f 5/2/1 6/5/1 7/6/1 8/3/1
f 9/5/1 10/7/1 11/8/1 12/6/1
f 13/9/1 14/10/1 15/2/1 16/1/1
f 17/10/1 18/11/1 19/5/1 20/2/1
f 21/12/1 22/13/1 23/14/1 24/15/1
f 25/16/1 26/17/1 27/18/1 28/19/1
f 29/20/1 30/21/1 31/10/1 32/9/1
f 33/21/1 34/22/1 35/11/1 36/10/1
f 37/23/1 38/24/1 39/13/1 40/12/1
f 41/25/1 42/26/1 43/27/1 44/28/1
f 45/26/1 46/29/1 47/30/1 48/27/1
f 49/29/1 50/31/1 51/32/1 52/30/1
f 53/33/1 54/34/1 55/17/1 56/16/1
f 57/35/1 58/36/1 59/29/1 60/26/1
f 61/34/1 62/37/1 63/38/1 64/17/1
f 65/39/1 66/40/1 67/35/1 68/41/1
f 69/40/1 70/42/1 71/36/1 72/35/1
f 73/42/1 74/43/1 75/44/1 76/36/1
f 77/45/1 78/46/1 79/47/1 80/48/1
f 81/49/1 82/50/1 83/46/1 84/45/1
f 85/51/1 86/52/1 87/53/1 88/54/1
f 89/55/1 90/56/1 91/57/1 92/58/1
f 93/55/1 94/56/1 95/57/1 96/58/1
f 97/46/1 98/59/1 99/60/1 100/47/1
f 101/52/1 102/61/1 103/62/1 104/53/1
f 105/63/1 106/64/1 107/50/1 108/49/1
f 109/65/1 110/66/1 111/67/1 112/68/1
f 113/69/1 114/70/1 115/71/1 116/72/1
f 117/69/1 118/70/1 119/71/1 120/72/1
f 121/69/1 122/70/1 123/71/1 124/72/1
f 125/70/1 126/73/1 127/74/1 128/71/1
f 129/70/1 130/73/1 131/74/1 132/71/1
f 133/75/1 134/76/1 135/64/1 136/63/1
f 137/70/1 138/73/1 139/74/1 140/71/1

