# Tiled2Unity generated file. Do not modify by hand.
# Wavefront file for 'HouseInsideMapADgame_mesh_0001.obj'

# Vertices (Count = 120)
v -25600 -3200 0
v -28800 -3200 0
v -28800 0 0
v -25600 0 0
v -28800 -3200 0
v -32000 -3200 0
v -32000 0 0
v -28800 0 0
v -32000 -3200 0
v -35200 -3200 0
v -35200 0 0
v -32000 0 0
v -35200 -3200 0
v -38400 -3200 0
v -38400 0 0
v -35200 0 0
v -38400 -3200 0
v -41600 -3200 0
v -41600 0 0
v -38400 0 0
v -41600 -3200 0
v -44800 -3200 0
v -44800 0 0
v -41600 0 0
v -44800 -3200 0
v -48000 -3200 0
v -48000 0 0
v -44800 0 0
v -48000 -3200 0
v -51200 -3200 0
v -51200 0 0
v -48000 0 0
v -51200 -3200 0
v -54400 -3200 0
v -54400 0 0
v -51200 0 0
v -54400 -3200 0
v -57600 -3200 0
v -57600 0 0
v -54400 0 0
v -25600 -6400 0
v -28800 -6400 0
v -28800 -3200 0
v -25600 -3200 0
v -28800 -6400 0
v -32000 -6400 0
v -32000 -3200 0
v -28800 -3200 0
v -32000 -6400 0
v -35200 -6400 0
v -35200 -3200 0
v -32000 -3200 0
v -35200 -6400 0
v -38400 -6400 0
v -38400 -3200 0
v -35200 -3200 0
v -38400 -6400 0
v -41600 -6400 0
v -41600 -3200 0
v -38400 -3200 0
v -41600 -6400 0
v -44800 -6400 0
v -44800 -3200 0
v -41600 -3200 0
v -44800 -6400 0
v -48000 -6400 0
v -48000 -3200 0
v -44800 -3200 0
v -48000 -6400 0
v -51200 -6400 0
v -51200 -3200 0
v -48000 -3200 0
v -51200 -6400 0
v -54400 -6400 0
v -54400 -3200 0
v -51200 -3200 0
v -54400 -6400 0
v -57600 -6400 0
v -57600 -3200 0
v -54400 -3200 0
v -25600 -9600 0
v -28800 -9600 0
v -28800 -6400 0
v -25600 -6400 0
v -28800 -9600 0
v -32000 -9600 0
v -32000 -6400 0
v -28800 -6400 0
v -32000 -9600 0
v -35200 -9600 0
v -35200 -6400 0
v -32000 -6400 0
v -35200 -9600 0
v -38400 -9600 0
v -38400 -6400 0
v -35200 -6400 0
v -38400 -9600 0
v -41600 -9600 0
v -41600 -6400 0
v -38400 -6400 0
v -41600 -9600 0
v -44800 -9600 0
v -44800 -6400 0
v -41600 -6400 0
v -44800 -9600 0
v -48000 -9600 0
v -48000 -6400 0
v -44800 -6400 0
v -48000 -9600 0
v -51200 -9600 0
v -51200 -6400 0
v -48000 -6400 0
v -51200 -9600 0
v -54400 -9600 0
v -54400 -6400 0
v -51200 -6400 0
v -54400 -9600 0
v -57600 -9600 0
v -57600 -6400 0
v -54400 -6400 0

# Texture cooridinates (Count = 8)
vt 0.1 0.9
vt 0.2 0.9
vt 0.2 1
vt 0.1 1
vt 0.1 0.8
vt 0.2 0.8
vt 0.1 0.7
vt 0.2 0.7

# Normal
vn 0 0 -1

# Mesh description
g HouseInsideMapADgame_mesh_0001

# Faces
f 1/1/1 2/2/1 3/3/1 4/4/1
f 5/1/1 6/2/1 7/3/1 8/4/1
f 9/1/1 10/2/1 11/3/1 12/4/1
f 13/1/1 14/2/1 15/3/1 16/4/1
f 17/1/1 18/2/1 19/3/1 20/4/1
f 21/1/1 22/2/1 23/3/1 24/4/1
f 25/1/1 26/2/1 27/3/1 28/4/1
f 29/1/1 30/2/1 31/3/1 32/4/1
f 33/1/1 34/2/1 35/3/1 36/4/1
f 37/1/1 38/2/1 39/3/1 40/4/1
f 41/5/1 42/6/1 43/2/1 44/1/1
f 45/5/1 46/6/1 47/2/1 48/1/1
f 49/5/1 50/6/1 51/2/1 52/1/1
f 53/5/1 54/6/1 55/2/1 56/1/1
f 57/5/1 58/6/1 59/2/1 60/1/1
f 61/5/1 62/6/1 63/2/1 64/1/1
f 65/5/1 66/6/1 67/2/1 68/1/1
f 69/5/1 70/6/1 71/2/1 72/1/1
f 73/5/1 74/6/1 75/2/1 76/1/1
f 77/5/1 78/6/1 79/2/1 80/1/1
f 81/7/1 82/8/1 83/6/1 84/5/1
f 85/7/1 86/8/1 87/6/1 88/5/1
f 89/7/1 90/8/1 91/6/1 92/5/1
f 93/7/1 94/8/1 95/6/1 96/5/1
f 97/7/1 98/8/1 99/6/1 100/5/1
f 101/7/1 102/8/1 103/6/1 104/5/1
f 105/7/1 106/8/1 107/6/1 108/5/1
f 109/7/1 110/8/1 111/6/1 112/5/1
f 113/7/1 114/8/1 115/6/1 116/5/1
f 117/7/1 118/8/1 119/6/1 120/5/1

