# Tiled2Unity generated file. Do not modify by hand.
# Wavefront file for 'HouseInsideMapADgame_mesh_0005.obj'

# Vertices (Count = 20)
v -22400 -28800 0
v -25600 -28800 0
v -25600 -25600 0
v -22400 -25600 0
v -25600 -28800 0
v -28800 -28800 0
v -28800 -25600 0
v -25600 -25600 0
v -57600 -28800 0
v -60800 -28800 0
v -60800 -25600 0
v -57600 -25600 0
v -25600 -32000 0
v -28800 -32000 0
v -28800 -28800 0
v -25600 -28800 0
v -25600 -35200 0
v -28800 -35200 0
v -28800 -32000 0
v -25600 -32000 0

# Texture cooridinates (Count = 14)
vt 0.1 0.4
vt 0.2 0.4
vt 0.2 0.5
vt 0.1 0.5
vt 0.4 0.8
vt 0.5 0.8
vt 0.5 0.9
vt 0.4 0.9
vt 0.3 0.4
vt 0.3 0.5
vt 0.4 0.7
vt 0.5 0.7
vt 0.4 0.6
vt 0.5 0.6

# Normal
vn 0 0 -1

# Mesh description
g HouseInsideMapADgame_mesh_0005

# Faces
f 1/1/1 2/2/1 3/3/1 4/4/1
f 5/5/1 6/6/1 7/7/1 8/8/1
f 9/2/1 10/9/1 11/10/1 12/3/1
f 13/11/1 14/12/1 15/6/1 16/5/1
f 17/13/1 18/14/1 19/12/1 20/11/1

