# Tiled2Unity generated file. Do not modify by hand.
# Wavefront file for 'Room_mesh_0003.obj'

# Vertices (Count = 52)
v -44800 -28800 0
v -48000 -28800 0
v -48000 -25600 0
v -44800 -25600 0
v -32000 -32000 0
v -35200 -32000 0
v -35200 -28800 0
v -32000 -28800 0
v -44800 -32000 0
v -48000 -32000 0
v -48000 -28800 0
v -44800 -28800 0
v -32000 -35200 0
v -35200 -35200 0
v -35200 -32000 0
v -32000 -32000 0
v -38400 -35200 0
v -41600 -35200 0
v -41600 -32000 0
v -38400 -32000 0
v -41600 -35200 0
v -44800 -35200 0
v -44800 -32000 0
v -41600 -32000 0
v -44800 -35200 0
v -48000 -35200 0
v -48000 -32000 0
v -44800 -32000 0
v -32000 -38400 0
v -35200 -38400 0
v -35200 -35200 0
v -32000 -35200 0
v -38400 -38400 0
v -41600 -38400 0
v -41600 -35200 0
v -38400 -35200 0
v -41600 -38400 0
v -44800 -38400 0
v -44800 -35200 0
v -41600 -35200 0
v -44800 -38400 0
v -48000 -38400 0
v -48000 -35200 0
v -44800 -35200 0
v -38400 -41600 0
v -41600 -41600 0
v -41600 -38400 0
v -38400 -38400 0
v -41600 -41600 0
v -44800 -41600 0
v -44800 -38400 0
v -41600 -38400 0

# Texture cooridinates (Count = 37)
vt 0.25 0.9375
vt 0.3125 0.9375
vt 0.3125 1
vt 0.25 1
vt 0.8125 0.75
vt 0.875 0.75
vt 0.875 0.8125
vt 0.8125 0.8125
vt 0.25 0.875
vt 0.3125 0.875
vt 0.5625 0.6875
vt 0.625 0.6875
vt 0.625 0.75
vt 0.5625 0.75
vt 0.375 0.375
vt 0.4375 0.375
vt 0.4375 0.4375
vt 0.375 0.4375
vt 0.5 0.375
vt 0.5 0.4375
vt 0.25 0.5
vt 0.3125 0.5
vt 0.3125 0.5625
vt 0.25 0.5625
vt 0.5625 0.625
vt 0.625 0.625
vt 0.125 0.3125
vt 0.1875 0.3125
vt 0.1875 0.375
vt 0.125 0.375
vt 0.25 0.3125
vt 0.25 0.375
vt 0.25 0.4375
vt 0.3125 0.4375
vt 0.125 0.25
vt 0.1875 0.25
vt 0.25 0.25

# Normal
vn 0 0 -1

# Mesh description
g Room_mesh_0003

# Faces
f 1/1/1 2/2/1 3/3/1 4/4/1
f 5/5/1 6/6/1 7/7/1 8/8/1
f 9/9/1 10/10/1 11/2/1 12/1/1
f 13/11/1 14/12/1 15/13/1 16/14/1
f 17/15/1 18/16/1 19/17/1 20/18/1
f 21/16/1 22/19/1 23/20/1 24/17/1
f 25/21/1 26/22/1 27/23/1 28/24/1
f 29/25/1 30/26/1 31/12/1 32/11/1
f 33/27/1 34/28/1 35/29/1 36/30/1
f 37/28/1 38/31/1 39/32/1 40/29/1
f 41/33/1 42/34/1 43/22/1 44/21/1
f 45/35/1 46/36/1 47/28/1 48/27/1
f 49/36/1 50/37/1 51/31/1 52/28/1

