# Tiled2Unity generated file. Do not modify by hand.
# Wavefront file for 'HouseOutsideMap_mesh_0008.obj'

# Vertices (Count = 72)
v -19200 -22400 0
v -22400 -22400 0
v -22400 -19200 0
v -19200 -19200 0
v -22400 -22400 0
v -25600 -22400 0
v -25600 -19200 0
v -22400 -19200 0
v -25600 -22400 0
v -28800 -22400 0
v -28800 -19200 0
v -25600 -19200 0
v -28800 -22400 0
v -32000 -22400 0
v -32000 -19200 0
v -28800 -19200 0
v -19200 -25600 0
v -22400 -25600 0
v -22400 -22400 0
v -19200 -22400 0
v -22400 -25600 0
v -25600 -25600 0
v -25600 -22400 0
v -22400 -22400 0
v -25600 -25600 0
v -28800 -25600 0
v -28800 -22400 0
v -25600 -22400 0
v -28800 -25600 0
v -32000 -25600 0
v -32000 -22400 0
v -28800 -22400 0
v -19200 -28800 0
v -22400 -28800 0
v -22400 -25600 0
v -19200 -25600 0
v -22400 -28800 0
v -25600 -28800 0
v -25600 -25600 0
v -22400 -25600 0
v -25600 -28800 0
v -28800 -28800 0
v -28800 -25600 0
v -25600 -25600 0
v -28800 -28800 0
v -32000 -28800 0
v -32000 -25600 0
v -28800 -25600 0
v -32000 -28800 0
v -35200 -28800 0
v -35200 -25600 0
v -32000 -25600 0
v -19200 -32000 0
v -22400 -32000 0
v -22400 -28800 0
v -19200 -28800 0
v -22400 -32000 0
v -25600 -32000 0
v -25600 -28800 0
v -22400 -28800 0
v -25600 -32000 0
v -28800 -32000 0
v -28800 -28800 0
v -25600 -28800 0
v -28800 -32000 0
v -32000 -32000 0
v -32000 -28800 0
v -28800 -28800 0
v -32000 -32000 0
v -35200 -32000 0
v -35200 -28800 0
v -32000 -28800 0

# Texture cooridinates (Count = 12)
vt 0 0.8571429
vt 0.1111111 0.8571429
vt 0.1111111 1
vt 0 1
vt 0.2222222 0.8571429
vt 0.2222222 1
vt 0 0.7142857
vt 0.1111111 0.7142857
vt 0.2222222 0.7142857
vt 0 0.5714285
vt 0.1111111 0.5714285
vt 0.2222222 0.5714285

# Normal
vn 0 0 -1

# Mesh description
g HouseOutsideMap_mesh_0008

# Faces
f 1/1/1 2/2/1 3/3/1 4/4/1
f 5/2/1 6/5/1 7/6/1 8/3/1
f 9/2/1 10/5/1 11/6/1 12/3/1
f 13/2/1 14/5/1 15/6/1 16/3/1
f 17/7/1 18/8/1 19/2/1 20/1/1
f 21/8/1 22/9/1 23/5/1 24/2/1
f 25/8/1 26/9/1 27/5/1 28/2/1
f 29/8/1 30/9/1 31/5/1 32/2/1
f 33/7/1 34/8/1 35/2/1 36/1/1
f 37/8/1 38/9/1 39/5/1 40/2/1
f 41/8/1 42/9/1 43/5/1 44/2/1
f 45/8/1 46/9/1 47/5/1 48/2/1
f 49/8/1 50/9/1 51/5/1 52/2/1
f 53/10/1 54/11/1 55/8/1 56/7/1
f 57/11/1 58/12/1 59/9/1 60/8/1
f 61/11/1 62/12/1 63/9/1 64/8/1
f 65/11/1 66/12/1 67/9/1 68/8/1
f 69/11/1 70/12/1 71/9/1 72/8/1

