# Tiled2Unity generated file. Do not modify by hand.
# Wavefront file for 'HouseOutsideMap_mesh_0006.obj'

# Vertices (Count = 300)
v -6400 -12800 0
v -9600 -12800 0
v -9600 -9600 0
v -6400 -9600 0
v -9600 -12800 0
v -12800 -12800 0
v -12800 -9600 0
v -9600 -9600 0
v -12800 -12800 0
v -16000 -12800 0
v -16000 -9600 0
v -12800 -9600 0
v -6400 -16000 0
v -9600 -16000 0
v -9600 -12800 0
v -6400 -12800 0
v -9600 -16000 0
v -12800 -16000 0
v -12800 -12800 0
v -9600 -12800 0
v -12800 -16000 0
v -16000 -16000 0
v -16000 -12800 0
v -12800 -12800 0
v -6400 -19200 0
v -9600 -19200 0
v -9600 -16000 0
v -6400 -16000 0
v -9600 -19200 0
v -12800 -19200 0
v -12800 -16000 0
v -9600 -16000 0
v -12800 -19200 0
v -16000 -19200 0
v -16000 -16000 0
v -12800 -16000 0
v -6400 -22400 0
v -9600 -22400 0
v -9600 -19200 0
v -6400 -19200 0
v -9600 -22400 0
v -12800 -22400 0
v -12800 -19200 0
v -9600 -19200 0
v -12800 -22400 0
v -16000 -22400 0
v -16000 -19200 0
v -12800 -19200 0
v -64000 -35200 0
v -67200 -35200 0
v -67200 -32000 0
v -64000 -32000 0
v -67200 -35200 0
v -70400 -35200 0
v -70400 -32000 0
v -67200 -32000 0
v -70400 -35200 0
v -73600 -35200 0
v -73600 -32000 0
v -70400 -32000 0
v -64000 -38400 0
v -67200 -38400 0
v -67200 -35200 0
v -64000 -35200 0
v -67200 -38400 0
v -70400 -38400 0
v -70400 -35200 0
v -67200 -35200 0
v -70400 -38400 0
v -73600 -38400 0
v -73600 -35200 0
v -70400 -35200 0
v -64000 -41600 0
v -67200 -41600 0
v -67200 -38400 0
v -64000 -38400 0
v -67200 -41600 0
v -70400 -41600 0
v -70400 -38400 0
v -67200 -38400 0
v -70400 -41600 0
v -73600 -41600 0
v -73600 -38400 0
v -70400 -38400 0
v -64000 -44800 0
v -67200 -44800 0
v -67200 -41600 0
v -64000 -41600 0
v -67200 -44800 0
v -70400 -44800 0
v -70400 -41600 0
v -67200 -41600 0
v -70400 -44800 0
v -73600 -44800 0
v -73600 -41600 0
v -70400 -41600 0
v -6400 -48000 0
v -9600 -48000 0
v -9600 -44800 0
v -6400 -44800 0
v -9600 -48000 0
v -12800 -48000 0
v -12800 -44800 0
v -9600 -44800 0
v -12800 -48000 0
v -16000 -48000 0
v -16000 -44800 0
v -12800 -44800 0
v -6400 -51200 0
v -9600 -51200 0
v -9600 -48000 0
v -6400 -48000 0
v -9600 -51200 0
v -12800 -51200 0
v -12800 -48000 0
v -9600 -48000 0
v -12800 -51200 0
v -16000 -51200 0
v -16000 -48000 0
v -12800 -48000 0
v -6400 -54400 0
v -9600 -54400 0
v -9600 -51200 0
v -6400 -51200 0
v -9600 -54400 0
v -12800 -54400 0
v -12800 -51200 0
v -9600 -51200 0
v -12800 -54400 0
v -16000 -54400 0
v -16000 -51200 0
v -12800 -51200 0
v -48000 -76800 0
v -51200 -76800 0
v -51200 -73600 0
v -48000 -73600 0
v -51200 -76800 0
v -54400 -76800 0
v -54400 -73600 0
v -51200 -73600 0
v -54400 -76800 0
v -57600 -76800 0
v -57600 -73600 0
v -54400 -73600 0
v -48000 -80000 0
v -51200 -80000 0
v -51200 -76800 0
v -48000 -76800 0
v -51200 -80000 0
v -54400 -80000 0
v -54400 -76800 0
v -51200 -76800 0
v -54400 -80000 0
v -57600 -80000 0
v -57600 -76800 0
v -54400 -76800 0
v -70400 -80000 0
v -73600 -80000 0
v -73600 -76800 0
v -70400 -76800 0
v -73600 -80000 0
v -76800 -80000 0
v -76800 -76800 0
v -73600 -76800 0
v -76800 -80000 0
v -80000 -80000 0
v -80000 -76800 0
v -76800 -76800 0
v -48000 -83200 0
v -51200 -83200 0
v -51200 -80000 0
v -48000 -80000 0
v -51200 -83200 0
v -54400 -83200 0
v -54400 -80000 0
v -51200 -80000 0
v -54400 -83200 0
v -57600 -83200 0
v -57600 -80000 0
v -54400 -80000 0
v -60800 -83200 0
v -64000 -83200 0
v -64000 -80000 0
v -60800 -80000 0
v -64000 -83200 0
v -67200 -83200 0
v -67200 -80000 0
v -64000 -80000 0
v -67200 -83200 0
v -70400 -83200 0
v -70400 -80000 0
v -67200 -80000 0
v -70400 -83200 0
v -73600 -83200 0
v -73600 -80000 0
v -70400 -80000 0
v -73600 -83200 0
v -76800 -83200 0
v -76800 -80000 0
v -73600 -80000 0
v -76800 -83200 0
v -80000 -83200 0
v -80000 -80000 0
v -76800 -80000 0
v -86400 -83200 0
v -89600 -83200 0
v -89600 -80000 0
v -86400 -80000 0
v -89600 -83200 0
v -92800 -83200 0
v -92800 -80000 0
v -89600 -80000 0
v -92800 -83200 0
v -96000 -83200 0
v -96000 -80000 0
v -92800 -80000 0
v -60800 -86400 0
v -64000 -86400 0
v -64000 -83200 0
v -60800 -83200 0
v -64000 -86400 0
v -67200 -86400 0
v -67200 -83200 0
v -64000 -83200 0
v -67200 -86400 0
v -70400 -86400 0
v -70400 -83200 0
v -67200 -83200 0
v -70400 -86400 0
v -73600 -86400 0
v -73600 -83200 0
v -70400 -83200 0
v -73600 -86400 0
v -76800 -86400 0
v -76800 -83200 0
v -73600 -83200 0
v -76800 -86400 0
v -80000 -86400 0
v -80000 -83200 0
v -76800 -83200 0
v -86400 -86400 0
v -89600 -86400 0
v -89600 -83200 0
v -86400 -83200 0
v -89600 -86400 0
v -92800 -86400 0
v -92800 -83200 0
v -89600 -83200 0
v -92800 -86400 0
v -96000 -86400 0
v -96000 -83200 0
v -92800 -83200 0
v -60800 -89600 0
v -64000 -89600 0
v -64000 -86400 0
v -60800 -86400 0
v -64000 -89600 0
v -67200 -89600 0
v -67200 -86400 0
v -64000 -86400 0
v -67200 -89600 0
v -70400 -89600 0
v -70400 -86400 0
v -67200 -86400 0
v -70400 -89600 0
v -73600 -89600 0
v -73600 -86400 0
v -70400 -86400 0
v -73600 -89600 0
v -76800 -89600 0
v -76800 -86400 0
v -73600 -86400 0
v -76800 -89600 0
v -80000 -89600 0
v -80000 -86400 0
v -76800 -86400 0
v -86400 -89600 0
v -89600 -89600 0
v -89600 -86400 0
v -86400 -86400 0
v -89600 -89600 0
v -92800 -89600 0
v -92800 -86400 0
v -89600 -86400 0
v -92800 -89600 0
v -96000 -89600 0
v -96000 -86400 0
v -92800 -86400 0
v -86400 -92800 0
v -89600 -92800 0
v -89600 -89600 0
v -86400 -89600 0
v -89600 -92800 0
v -92800 -92800 0
v -92800 -89600 0
v -89600 -89600 0
v -92800 -92800 0
v -96000 -92800 0
v -96000 -89600 0
v -92800 -89600 0

# Texture cooridinates (Count = 32)
vt 0.5 0.4285714
vt 0.6666667 0.4285714
vt 0.6666667 0.5714285
vt 0.5 0.5714285
vt 0.8333333 0.4285714
vt 0.8333333 0.5714285
vt 1 0.4285714
vt 1 0.5714285
vt 0.5 0.2857143
vt 0.6666667 0.2857143
vt 0.8333333 0.2857143
vt 1 0.2857143
vt 0.5 0.1428571
vt 0.6666667 0.1428571
vt 0.8333333 0.1428571
vt 1 0.1428571
vt 0.5 0
vt 0.6666667 0
vt 0.8333333 0
vt 1 0
vt 0.5 0.8571429
vt 0.6666667 0.8571429
vt 0.6666667 1
vt 0.5 1
vt 0.8333333 0.8571429
vt 0.8333333 1
vt 1 0.8571429
vt 1 1
vt 0.5 0.7142857
vt 0.6666667 0.7142857
vt 0.8333333 0.7142857
vt 1 0.7142857

# Normal
vn 0 0 -1

# Mesh description
g HouseOutsideMap_mesh_0006

# Faces
f 1/1/1 2/2/1 3/3/1 4/4/1
f 5/2/1 6/5/1 7/6/1 8/3/1
f 9/5/1 10/7/1 11/8/1 12/6/1
f 13/9/1 14/10/1 15/2/1 16/1/1
f 17/10/1 18/11/1 19/5/1 20/2/1
f 21/11/1 22/12/1 23/7/1 24/5/1
f 25/13/1 26/14/1 27/10/1 28/9/1
f 29/14/1 30/15/1 31/11/1 32/10/1
f 33/15/1 34/16/1 35/12/1 36/11/1
f 37/17/1 38/18/1 39/14/1 40/13/1
f 41/18/1 42/19/1 43/15/1 44/14/1
f 45/19/1 46/20/1 47/16/1 48/15/1
f 49/1/1 50/2/1 51/3/1 52/4/1
f 53/2/1 54/5/1 55/6/1 56/3/1
f 57/5/1 58/7/1 59/8/1 60/6/1
f 61/9/1 62/10/1 63/2/1 64/1/1
f 65/10/1 66/11/1 67/5/1 68/2/1
f 69/11/1 70/12/1 71/7/1 72/5/1
f 73/13/1 74/14/1 75/10/1 76/9/1
f 77/14/1 78/15/1 79/11/1 80/10/1
f 81/15/1 82/16/1 83/12/1 84/11/1
f 85/17/1 86/18/1 87/14/1 88/13/1
f 89/18/1 90/19/1 91/15/1 92/14/1
f 93/19/1 94/20/1 95/16/1 96/15/1
f 97/21/1 98/22/1 99/23/1 100/24/1
f 101/22/1 102/25/1 103/26/1 104/23/1
f 105/25/1 106/27/1 107/28/1 108/26/1
f 109/29/1 110/30/1 111/22/1 112/21/1
f 113/30/1 114/31/1 115/25/1 116/22/1
f 117/31/1 118/32/1 119/27/1 120/25/1
f 121/4/1 122/3/1 123/30/1 124/29/1
f 125/3/1 126/6/1 127/31/1 128/30/1
f 129/6/1 130/8/1 131/32/1 132/31/1
f 133/21/1 134/22/1 135/23/1 136/24/1
f 137/22/1 138/25/1 139/26/1 140/23/1
f 141/25/1 142/27/1 143/28/1 144/26/1
f 145/29/1 146/30/1 147/22/1 148/21/1
f 149/30/1 150/31/1 151/25/1 152/22/1
f 153/31/1 154/32/1 155/27/1 156/25/1
f 157/1/1 158/2/1 159/3/1 160/4/1
f 161/2/1 162/5/1 163/6/1 164/3/1
f 165/5/1 166/7/1 167/8/1 168/6/1
f 169/4/1 170/3/1 171/30/1 172/29/1
f 173/3/1 174/6/1 175/31/1 176/30/1
f 177/6/1 178/8/1 179/32/1 180/31/1
f 181/21/1 182/22/1 183/23/1 184/24/1
f 185/22/1 186/25/1 187/26/1 188/23/1
f 189/25/1 190/27/1 191/28/1 192/26/1
f 193/9/1 194/10/1 195/2/1 196/1/1
f 197/10/1 198/11/1 199/5/1 200/2/1
f 201/11/1 202/12/1 203/7/1 204/5/1
f 205/1/1 206/2/1 207/3/1 208/4/1
f 209/2/1 210/5/1 211/6/1 212/3/1
f 213/5/1 214/7/1 215/8/1 216/6/1
f 217/29/1 218/30/1 219/22/1 220/21/1
f 221/30/1 222/31/1 223/25/1 224/22/1
f 225/31/1 226/32/1 227/27/1 228/25/1
f 229/13/1 230/14/1 231/10/1 232/9/1
f 233/14/1 234/15/1 235/11/1 236/10/1
f 237/15/1 238/16/1 239/12/1 240/11/1
f 241/9/1 242/10/1 243/2/1 244/1/1
f 245/10/1 246/11/1 247/5/1 248/2/1
f 249/11/1 250/12/1 251/7/1 252/5/1
f 253/4/1 254/3/1 255/30/1 256/29/1
f 257/3/1 258/6/1 259/31/1 260/30/1
f 261/6/1 262/8/1 263/32/1 264/31/1
f 265/17/1 266/18/1 267/14/1 268/13/1
f 269/18/1 270/19/1 271/15/1 272/14/1
f 273/19/1 274/20/1 275/16/1 276/15/1
f 277/13/1 278/14/1 279/10/1 280/9/1
f 281/14/1 282/15/1 283/11/1 284/10/1
f 285/15/1 286/16/1 287/12/1 288/11/1
f 289/17/1 290/18/1 291/14/1 292/13/1
f 293/18/1 294/19/1 295/15/1 296/14/1
f 297/19/1 298/20/1 299/16/1 300/15/1

