# Tiled2Unity generated file. Do not modify by hand.
# Wavefront file for 'HouseOutsideMap_mesh_0007.obj'

# Vertices (Count = 124)
v -83200 -44800 0
v -86400 -44800 0
v -86400 -41600 0
v -83200 -41600 0
v -86400 -44800 0
v -89600 -44800 0
v -89600 -41600 0
v -86400 -41600 0
v -89600 -44800 0
v -92800 -44800 0
v -92800 -41600 0
v -89600 -41600 0
v -70400 -48000 0
v -73600 -48000 0
v -73600 -44800 0
v -70400 -44800 0
v -73600 -48000 0
v -76800 -48000 0
v -76800 -44800 0
v -73600 -44800 0
v -76800 -48000 0
v -80000 -48000 0
v -80000 -44800 0
v -76800 -44800 0
v -83200 -48000 0
v -86400 -48000 0
v -86400 -44800 0
v -83200 -44800 0
v -86400 -48000 0
v -89600 -48000 0
v -89600 -44800 0
v -86400 -44800 0
v -89600 -48000 0
v -92800 -48000 0
v -92800 -44800 0
v -89600 -44800 0
v -70400 -51200 0
v -73600 -51200 0
v -73600 -48000 0
v -70400 -48000 0
v -73600 -51200 0
v -76800 -51200 0
v -76800 -48000 0
v -73600 -48000 0
v -76800 -51200 0
v -80000 -51200 0
v -80000 -48000 0
v -76800 -48000 0
v -83200 -51200 0
v -86400 -51200 0
v -86400 -48000 0
v -83200 -48000 0
v -86400 -51200 0
v -89600 -51200 0
v -89600 -48000 0
v -86400 -48000 0
v -89600 -51200 0
v -92800 -51200 0
v -92800 -48000 0
v -89600 -48000 0
v -70400 -54400 0
v -73600 -54400 0
v -73600 -51200 0
v -70400 -51200 0
v -73600 -54400 0
v -76800 -54400 0
v -76800 -51200 0
v -73600 -51200 0
v -76800 -54400 0
v -80000 -54400 0
v -80000 -51200 0
v -76800 -51200 0
v -70400 -57600 0
v -73600 -57600 0
v -73600 -54400 0
v -70400 -54400 0
v -73600 -57600 0
v -76800 -57600 0
v -76800 -54400 0
v -73600 -54400 0
v -76800 -57600 0
v -80000 -57600 0
v -80000 -54400 0
v -76800 -54400 0
v -89600 -57600 0
v -92800 -57600 0
v -92800 -54400 0
v -89600 -54400 0
v -92800 -57600 0
v -96000 -57600 0
v -96000 -54400 0
v -92800 -54400 0
v -89600 -60800 0
v -92800 -60800 0
v -92800 -57600 0
v -89600 -57600 0
v -92800 -60800 0
v -96000 -60800 0
v -96000 -57600 0
v -92800 -57600 0
v -89600 -64000 0
v -92800 -64000 0
v -92800 -60800 0
v -89600 -60800 0
v -92800 -64000 0
v -96000 -64000 0
v -96000 -60800 0
v -92800 -60800 0
v -89600 -67200 0
v -92800 -67200 0
v -92800 -64000 0
v -89600 -64000 0
v -92800 -67200 0
v -96000 -67200 0
v -96000 -64000 0
v -92800 -64000 0
v -54400 -86400 0
v -57600 -86400 0
v -57600 -83200 0
v -54400 -83200 0
v -57600 -86400 0
v -60800 -86400 0
v -60800 -83200 0
v -57600 -83200 0

# Texture cooridinates (Count = 42)
vt 0.75 0.59375
vt 0.78125 0.59375
vt 0.78125 0.625
vt 0.75 0.625
vt 0.8125 0.59375
vt 0.8125 0.625
vt 0.84375 0.59375
vt 0.84375 0.625
vt 0.75 0.5
vt 0.78125 0.5
vt 0.78125 0.53125
vt 0.75 0.53125
vt 0.8125 0.5
vt 0.8125 0.53125
vt 0.84375 0.5
vt 0.84375 0.53125
vt 0.75 0.5625
vt 0.78125 0.5625
vt 0.8125 0.5625
vt 0.84375 0.5625
vt 0.75 0.46875
vt 0.78125 0.46875
vt 0.8125 0.46875
vt 0.84375 0.46875
vt 0.75 0.4375
vt 0.78125 0.4375
vt 0.8125 0.4375
vt 0.84375 0.4375
vt 0.75 0.40625
vt 0.78125 0.40625
vt 0.8125 0.40625
vt 0.84375 0.40625
vt 0.875 0.5
vt 0.875 0.53125
vt 0.90625 0.5
vt 0.90625 0.53125
vt 0.875 0.46875
vt 0.90625 0.46875
vt 0.875 0.4375
vt 0.90625 0.4375
vt 0.875 0.40625
vt 0.90625 0.40625

# Normal
vn 0 0 -1

# Mesh description
g HouseOutsideMap_mesh_0007

# Faces
f 1/1/1 2/2/1 3/3/1 4/4/1
f 5/2/1 6/5/1 7/6/1 8/3/1
f 9/5/1 10/7/1 11/8/1 12/6/1
f 13/9/1 14/10/1 15/11/1 16/12/1
f 17/10/1 18/13/1 19/14/1 20/11/1
f 21/13/1 22/15/1 23/16/1 24/14/1
f 25/17/1 26/18/1 27/2/1 28/1/1
f 29/18/1 30/19/1 31/5/1 32/2/1
f 33/19/1 34/20/1 35/7/1 36/5/1
f 37/21/1 38/22/1 39/10/1 40/9/1
f 41/22/1 42/23/1 43/13/1 44/10/1
f 45/23/1 46/24/1 47/15/1 48/13/1
f 49/12/1 50/11/1 51/18/1 52/17/1
f 53/11/1 54/14/1 55/19/1 56/18/1
f 57/14/1 58/16/1 59/20/1 60/19/1
f 61/25/1 62/26/1 63/22/1 64/21/1
f 65/26/1 66/27/1 67/23/1 68/22/1
f 69/27/1 70/28/1 71/24/1 72/23/1
f 73/29/1 74/30/1 75/26/1 76/25/1
f 77/30/1 78/31/1 79/27/1 80/26/1
f 81/31/1 82/32/1 83/28/1 84/27/1
f 85/15/1 86/33/1 87/34/1 88/16/1
f 89/33/1 90/35/1 91/36/1 92/34/1
f 93/24/1 94/37/1 95/33/1 96/15/1
f 97/37/1 98/38/1 99/35/1 100/33/1
f 101/28/1 102/39/1 103/37/1 104/24/1
f 105/39/1 106/40/1 107/38/1 108/37/1
f 109/32/1 110/41/1 111/39/1 112/28/1
f 113/41/1 114/42/1 115/40/1 116/39/1
f 117/29/1 118/30/1 119/26/1 120/25/1
f 121/30/1 122/31/1 123/27/1 124/26/1

