# Tiled2Unity generated file. Do not modify by hand.
# Wavefront file for 'HouseOutsideMap_mesh_0004.obj'

# Vertices (Count = 248)
v -6400 -22400 0
v -9600 -22400 0
v -9600 -19200 0
v -6400 -19200 0
v -9600 -22400 0
v -12800 -22400 0
v -12800 -19200 0
v -9600 -19200 0
v -12800 -22400 0
v -16000 -22400 0
v -16000 -19200 0
v -12800 -19200 0
v -6400 -25600 0
v -9600 -25600 0
v -9600 -22400 0
v -6400 -22400 0
v -9600 -25600 0
v -12800 -25600 0
v -12800 -22400 0
v -9600 -22400 0
v -12800 -25600 0
v -16000 -25600 0
v -16000 -22400 0
v -12800 -22400 0
v -6400 -28800 0
v -9600 -28800 0
v -9600 -25600 0
v -6400 -25600 0
v -9600 -28800 0
v -12800 -28800 0
v -12800 -25600 0
v -9600 -25600 0
v -12800 -28800 0
v -16000 -28800 0
v -16000 -25600 0
v -12800 -25600 0
v -64000 -44800 0
v -67200 -44800 0
v -67200 -41600 0
v -64000 -41600 0
v -67200 -44800 0
v -70400 -44800 0
v -70400 -41600 0
v -67200 -41600 0
v -70400 -44800 0
v -73600 -44800 0
v -73600 -41600 0
v -70400 -41600 0
v -64000 -48000 0
v -67200 -48000 0
v -67200 -44800 0
v -64000 -44800 0
v -67200 -48000 0
v -70400 -48000 0
v -70400 -44800 0
v -67200 -44800 0
v -70400 -48000 0
v -73600 -48000 0
v -73600 -44800 0
v -70400 -44800 0
v -64000 -51200 0
v -67200 -51200 0
v -67200 -48000 0
v -64000 -48000 0
v -67200 -51200 0
v -70400 -51200 0
v -70400 -48000 0
v -67200 -48000 0
v -70400 -51200 0
v -73600 -51200 0
v -73600 -48000 0
v -70400 -48000 0
v -6400 -54400 0
v -9600 -54400 0
v -9600 -51200 0
v -6400 -51200 0
v -9600 -54400 0
v -12800 -54400 0
v -12800 -51200 0
v -9600 -51200 0
v -12800 -54400 0
v -16000 -54400 0
v -16000 -51200 0
v -12800 -51200 0
v -6400 -57600 0
v -9600 -57600 0
v -9600 -54400 0
v -6400 -54400 0
v -9600 -57600 0
v -12800 -57600 0
v -12800 -54400 0
v -9600 -54400 0
v -12800 -57600 0
v -16000 -57600 0
v -16000 -54400 0
v -12800 -54400 0
v -6400 -60800 0
v -9600 -60800 0
v -9600 -57600 0
v -6400 -57600 0
v -9600 -60800 0
v -12800 -60800 0
v -12800 -57600 0
v -9600 -57600 0
v -12800 -60800 0
v -16000 -60800 0
v -16000 -57600 0
v -12800 -57600 0
v -48000 -83200 0
v -51200 -83200 0
v -51200 -80000 0
v -48000 -80000 0
v -51200 -83200 0
v -54400 -83200 0
v -54400 -80000 0
v -51200 -80000 0
v -54400 -83200 0
v -57600 -83200 0
v -57600 -80000 0
v -54400 -80000 0
v -48000 -86400 0
v -51200 -86400 0
v -51200 -83200 0
v -48000 -83200 0
v -51200 -86400 0
v -54400 -86400 0
v -54400 -83200 0
v -51200 -83200 0
v -54400 -86400 0
v -57600 -86400 0
v -57600 -83200 0
v -54400 -83200 0
v -70400 -86400 0
v -73600 -86400 0
v -73600 -83200 0
v -70400 -83200 0
v -73600 -86400 0
v -76800 -86400 0
v -76800 -83200 0
v -73600 -83200 0
v -76800 -86400 0
v -80000 -86400 0
v -80000 -83200 0
v -76800 -83200 0
v -48000 -89600 0
v -51200 -89600 0
v -51200 -86400 0
v -48000 -86400 0
v -51200 -89600 0
v -54400 -89600 0
v -54400 -86400 0
v -51200 -86400 0
v -54400 -89600 0
v -57600 -89600 0
v -57600 -86400 0
v -54400 -86400 0
v -64000 -89600 0
v -67200 -89600 0
v -67200 -86400 0
v -64000 -86400 0
v -67200 -89600 0
v -70400 -89600 0
v -70400 -86400 0
v -67200 -86400 0
v -70400 -89600 0
v -73600 -89600 0
v -73600 -86400 0
v -70400 -86400 0
v -73600 -89600 0
v -76800 -89600 0
v -76800 -86400 0
v -73600 -86400 0
v -76800 -89600 0
v -80000 -89600 0
v -80000 -86400 0
v -76800 -86400 0
v -86400 -89600 0
v -89600 -89600 0
v -89600 -86400 0
v -86400 -86400 0
v -89600 -89600 0
v -92800 -89600 0
v -92800 -86400 0
v -89600 -86400 0
v -92800 -89600 0
v -96000 -89600 0
v -96000 -86400 0
v -92800 -86400 0
v -60800 -92800 0
v -64000 -92800 0
v -64000 -89600 0
v -60800 -89600 0
v -64000 -92800 0
v -67200 -92800 0
v -67200 -89600 0
v -64000 -89600 0
v -67200 -92800 0
v -70400 -92800 0
v -70400 -89600 0
v -67200 -89600 0
v -70400 -92800 0
v -73600 -92800 0
v -73600 -89600 0
v -70400 -89600 0
v -73600 -92800 0
v -76800 -92800 0
v -76800 -89600 0
v -73600 -89600 0
v -76800 -92800 0
v -80000 -92800 0
v -80000 -89600 0
v -76800 -89600 0
v -86400 -92800 0
v -89600 -92800 0
v -89600 -89600 0
v -86400 -89600 0
v -89600 -92800 0
v -92800 -92800 0
v -92800 -89600 0
v -89600 -89600 0
v -92800 -92800 0
v -96000 -92800 0
v -96000 -89600 0
v -92800 -89600 0
v -60800 -96000 0
v -64000 -96000 0
v -64000 -92800 0
v -60800 -92800 0
v -64000 -96000 0
v -67200 -96000 0
v -67200 -92800 0
v -64000 -92800 0
v -67200 -96000 0
v -70400 -96000 0
v -70400 -92800 0
v -67200 -92800 0
v -86400 -96000 0
v -89600 -96000 0
v -89600 -92800 0
v -86400 -92800 0
v -89600 -96000 0
v -92800 -96000 0
v -92800 -92800 0
v -89600 -92800 0
v -92800 -96000 0
v -96000 -96000 0
v -96000 -92800 0
v -92800 -92800 0

# Texture cooridinates (Count = 28)
vt 0 0.6666666
vt 0.1666667 0.6666666
vt 0.1666667 1
vt 0 1
vt 0.3333333 0.6666666
vt 0.3333333 1
vt 0.5 0.6666666
vt 0.5 1
vt 0 0.3333333
vt 0.1666667 0.3333333
vt 0.3333333 0.3333333
vt 0.5 0.3333333
vt 0 0
vt 0.1666667 0
vt 0.3333333 0
vt 0.5 0
vt 0.6666667 0.6666666
vt 0.6666667 1
vt 0.8333333 0.6666666
vt 0.8333333 1
vt 1 0.6666666
vt 1 1
vt 0.6666667 0.3333333
vt 0.8333333 0.3333333
vt 1 0.3333333
vt 0.6666667 0
vt 0.8333333 0
vt 1 0

# Normal
vn 0 0 -1

# Mesh description
g HouseOutsideMap_mesh_0004

# Faces
f 1/1/1 2/2/1 3/3/1 4/4/1
f 5/2/1 6/5/1 7/6/1 8/3/1
f 9/5/1 10/7/1 11/8/1 12/6/1
f 13/9/1 14/10/1 15/2/1 16/1/1
f 17/10/1 18/11/1 19/5/1 20/2/1
f 21/11/1 22/12/1 23/7/1 24/5/1
f 25/13/1 26/14/1 27/10/1 28/9/1
f 29/14/1 30/15/1 31/11/1 32/10/1
f 33/15/1 34/16/1 35/12/1 36/11/1
f 37/7/1 38/17/1 39/18/1 40/8/1
f 41/17/1 42/19/1 43/20/1 44/18/1
f 45/19/1 46/21/1 47/22/1 48/20/1
f 49/12/1 50/23/1 51/17/1 52/7/1
f 53/23/1 54/24/1 55/19/1 56/17/1
f 57/24/1 58/25/1 59/21/1 60/19/1
f 61/16/1 62/26/1 63/23/1 64/12/1
f 65/26/1 66/27/1 67/24/1 68/23/1
f 69/27/1 70/28/1 71/25/1 72/24/1
f 73/7/1 74/17/1 75/18/1 76/8/1
f 77/17/1 78/19/1 79/20/1 80/18/1
f 81/19/1 82/21/1 83/22/1 84/20/1
f 85/12/1 86/23/1 87/17/1 88/7/1
f 89/23/1 90/24/1 91/19/1 92/17/1
f 93/24/1 94/25/1 95/21/1 96/19/1
f 97/16/1 98/26/1 99/23/1 100/12/1
f 101/26/1 102/27/1 103/24/1 104/23/1
f 105/27/1 106/28/1 107/25/1 108/24/1
f 109/1/1 110/2/1 111/3/1 112/4/1
f 113/2/1 114/5/1 115/6/1 116/3/1
f 117/5/1 118/7/1 119/8/1 120/6/1
f 121/9/1 122/10/1 123/2/1 124/1/1
f 125/10/1 126/11/1 127/5/1 128/2/1
f 129/11/1 130/12/1 131/7/1 132/5/1
f 133/7/1 134/17/1 135/18/1 136/8/1
f 137/17/1 138/19/1 139/20/1 140/18/1
f 141/19/1 142/21/1 143/22/1 144/20/1
f 145/13/1 146/14/1 147/10/1 148/9/1
f 149/14/1 150/15/1 151/11/1 152/10/1
f 153/15/1 154/16/1 155/12/1 156/11/1
f 157/2/1 158/5/1 159/6/1 160/3/1
f 161/5/1 162/7/1 163/8/1 164/6/1
f 165/12/1 166/23/1 167/17/1 168/7/1
f 169/23/1 170/24/1 171/19/1 172/17/1
f 173/24/1 174/25/1 175/21/1 176/19/1
f 177/1/1 178/2/1 179/3/1 180/4/1
f 181/2/1 182/5/1 183/6/1 184/3/1
f 185/5/1 186/7/1 187/8/1 188/6/1
f 189/9/1 190/10/1 191/2/1 192/1/1
f 193/10/1 194/11/1 195/5/1 196/2/1
f 197/11/1 198/12/1 199/7/1 200/5/1
f 201/16/1 202/26/1 203/23/1 204/12/1
f 205/26/1 206/27/1 207/24/1 208/23/1
f 209/27/1 210/28/1 211/25/1 212/24/1
f 213/9/1 214/10/1 215/2/1 216/1/1
f 217/10/1 218/11/1 219/5/1 220/2/1
f 221/11/1 222/12/1 223/7/1 224/5/1
f 225/13/1 226/14/1 227/10/1 228/9/1
f 229/14/1 230/15/1 231/11/1 232/10/1
f 233/15/1 234/16/1 235/12/1 236/11/1
f 237/13/1 238/14/1 239/10/1 240/9/1
f 241/14/1 242/15/1 243/11/1 244/10/1
f 245/15/1 246/16/1 247/12/1 248/11/1

