# Tiled2Unity generated file. Do not modify by hand.
# Wavefront file for 'HouseOutsideMap_mesh_0011.obj'

# Vertices (Count = 232)
v -19200 -9600 0
v -22400 -9600 0
v -22400 -6400 0
v -19200 -6400 0
v -22400 -9600 0
v -25600 -9600 0
v -25600 -6400 0
v -22400 -6400 0
v -25600 -9600 0
v -28800 -9600 0
v -28800 -6400 0
v -25600 -6400 0
v -28800 -9600 0
v -32000 -9600 0
v -32000 -6400 0
v -28800 -6400 0
v -32000 -9600 0
v -35200 -9600 0
v -35200 -6400 0
v -32000 -6400 0
v -35200 -9600 0
v -38400 -9600 0
v -38400 -6400 0
v -35200 -6400 0
v -38400 -9600 0
v -41600 -9600 0
v -41600 -6400 0
v -38400 -6400 0
v -41600 -9600 0
v -44800 -9600 0
v -44800 -6400 0
v -41600 -6400 0
v -44800 -9600 0
v -48000 -9600 0
v -48000 -6400 0
v -44800 -6400 0
v -48000 -9600 0
v -51200 -9600 0
v -51200 -6400 0
v -48000 -6400 0
v -51200 -9600 0
v -54400 -9600 0
v -54400 -6400 0
v -51200 -6400 0
v -19200 -12800 0
v -22400 -12800 0
v -22400 -9600 0
v -19200 -9600 0
v -22400 -12800 0
v -25600 -12800 0
v -25600 -9600 0
v -22400 -9600 0
v -25600 -12800 0
v -28800 -12800 0
v -28800 -9600 0
v -25600 -9600 0
v -28800 -12800 0
v -32000 -12800 0
v -32000 -9600 0
v -28800 -9600 0
v -32000 -12800 0
v -35200 -12800 0
v -35200 -9600 0
v -32000 -9600 0
v -35200 -12800 0
v -38400 -12800 0
v -38400 -9600 0
v -35200 -9600 0
v -38400 -12800 0
v -41600 -12800 0
v -41600 -9600 0
v -38400 -9600 0
v -41600 -12800 0
v -44800 -12800 0
v -44800 -9600 0
v -41600 -9600 0
v -44800 -12800 0
v -48000 -12800 0
v -48000 -9600 0
v -44800 -9600 0
v -48000 -12800 0
v -51200 -12800 0
v -51200 -9600 0
v -48000 -9600 0
v -51200 -12800 0
v -54400 -12800 0
v -54400 -9600 0
v -51200 -9600 0
v -19200 -16000 0
v -22400 -16000 0
v -22400 -12800 0
v -19200 -12800 0
v -22400 -16000 0
v -25600 -16000 0
v -25600 -12800 0
v -22400 -12800 0
v -25600 -16000 0
v -28800 -16000 0
v -28800 -12800 0
v -25600 -12800 0
v -28800 -16000 0
v -32000 -16000 0
v -32000 -12800 0
v -28800 -12800 0
v -32000 -16000 0
v -35200 -16000 0
v -35200 -12800 0
v -32000 -12800 0
v -35200 -16000 0
v -38400 -16000 0
v -38400 -12800 0
v -35200 -12800 0
v -38400 -16000 0
v -41600 -16000 0
v -41600 -12800 0
v -38400 -12800 0
v -41600 -16000 0
v -44800 -16000 0
v -44800 -12800 0
v -41600 -12800 0
v -44800 -16000 0
v -48000 -16000 0
v -48000 -12800 0
v -44800 -12800 0
v -48000 -16000 0
v -51200 -16000 0
v -51200 -12800 0
v -48000 -12800 0
v -51200 -16000 0
v -54400 -16000 0
v -54400 -12800 0
v -51200 -12800 0
v -19200 -19200 0
v -22400 -19200 0
v -22400 -16000 0
v -19200 -16000 0
v -22400 -19200 0
v -25600 -19200 0
v -25600 -16000 0
v -22400 -16000 0
v -25600 -19200 0
v -28800 -19200 0
v -28800 -16000 0
v -25600 -16000 0
v -28800 -19200 0
v -32000 -19200 0
v -32000 -16000 0
v -28800 -16000 0
v -32000 -19200 0
v -35200 -19200 0
v -35200 -16000 0
v -32000 -16000 0
v -35200 -19200 0
v -38400 -19200 0
v -38400 -16000 0
v -35200 -16000 0
v -38400 -19200 0
v -41600 -19200 0
v -41600 -16000 0
v -38400 -16000 0
v -41600 -19200 0
v -44800 -19200 0
v -44800 -16000 0
v -41600 -16000 0
v -44800 -19200 0
v -48000 -19200 0
v -48000 -16000 0
v -44800 -16000 0
v -48000 -19200 0
v -51200 -19200 0
v -51200 -16000 0
v -48000 -16000 0
v -51200 -19200 0
v -54400 -19200 0
v -54400 -16000 0
v -51200 -16000 0
v -32000 -22400 0
v -35200 -22400 0
v -35200 -19200 0
v -32000 -19200 0
v -35200 -22400 0
v -38400 -22400 0
v -38400 -19200 0
v -35200 -19200 0
v -38400 -22400 0
v -41600 -22400 0
v -41600 -19200 0
v -38400 -19200 0
v -41600 -22400 0
v -44800 -22400 0
v -44800 -19200 0
v -41600 -19200 0
v -44800 -22400 0
v -48000 -22400 0
v -48000 -19200 0
v -44800 -19200 0
v -48000 -22400 0
v -51200 -22400 0
v -51200 -19200 0
v -48000 -19200 0
v -51200 -22400 0
v -54400 -22400 0
v -54400 -19200 0
v -51200 -19200 0
v -32000 -25600 0
v -35200 -25600 0
v -35200 -22400 0
v -32000 -22400 0
v -35200 -25600 0
v -38400 -25600 0
v -38400 -22400 0
v -35200 -22400 0
v -38400 -25600 0
v -41600 -25600 0
v -41600 -22400 0
v -38400 -22400 0
v -41600 -25600 0
v -44800 -25600 0
v -44800 -22400 0
v -41600 -22400 0
v -44800 -25600 0
v -48000 -25600 0
v -48000 -22400 0
v -44800 -22400 0
v -48000 -25600 0
v -51200 -25600 0
v -51200 -22400 0
v -48000 -22400 0
v -51200 -25600 0
v -54400 -25600 0
v -54400 -22400 0
v -51200 -22400 0

# Texture cooridinates (Count = 31)
vt 0 0.4285714
vt 0.1111111 0.4285714
vt 0.1111111 0.5714285
vt 0 0.5714285
vt 0.3333333 0.2857143
vt 0.4444444 0.2857143
vt 0.4444444 0.4285714
vt 0.3333333 0.4285714
vt 0.5555556 0.2857143
vt 0.5555556 0.4285714
vt 0.6666667 0.2857143
vt 0.6666667 0.4285714
vt 0.2222222 0.4285714
vt 0.3333333 0.5714285
vt 0.2222222 0.5714285
vt 0 0.2857143
vt 0.1111111 0.2857143
vt 0.3333333 0
vt 0.4444444 0
vt 0.4444444 0.1428571
vt 0.3333333 0.1428571
vt 0.5555556 0
vt 0.5555556 0.1428571
vt 0.6666667 0
vt 0.6666667 0.1428571
vt 0.2222222 0.2857143
vt 0 0
vt 0.1111111 0
vt 0.1111111 0.1428571
vt 0 0.1428571
vt 0.2222222 0.1428571

# Normal
vn 0 0 -1

# Mesh description
g HouseOutsideMap_mesh_0011

# Faces
f 1/1/1 2/2/1 3/3/1 4/4/1
f 5/5/1 6/6/1 7/7/1 8/8/1
f 9/6/1 10/9/1 11/10/1 12/7/1
f 13/6/1 14/9/1 15/10/1 16/7/1
f 17/6/1 18/9/1 19/10/1 20/7/1
f 21/6/1 22/9/1 23/10/1 24/7/1
f 25/6/1 26/9/1 27/10/1 28/7/1
f 29/6/1 30/9/1 31/10/1 32/7/1
f 33/6/1 34/9/1 35/10/1 36/7/1
f 37/9/1 38/11/1 39/12/1 40/10/1
f 41/13/1 42/8/1 43/14/1 44/15/1
f 45/16/1 46/17/1 47/2/1 48/1/1
f 49/18/1 50/19/1 51/20/1 52/21/1
f 53/19/1 54/22/1 55/23/1 56/20/1
f 57/19/1 58/22/1 59/23/1 60/20/1
f 61/19/1 62/22/1 63/23/1 64/20/1
f 65/19/1 66/22/1 67/23/1 68/20/1
f 69/19/1 70/22/1 71/23/1 72/20/1
f 73/19/1 74/22/1 75/23/1 76/20/1
f 77/19/1 78/22/1 79/23/1 80/20/1
f 81/22/1 82/24/1 83/25/1 84/23/1
f 85/26/1 86/5/1 87/8/1 88/13/1
f 89/16/1 90/17/1 91/2/1 92/1/1
f 93/21/1 94/20/1 95/6/1 96/5/1
f 97/20/1 98/23/1 99/9/1 100/6/1
f 101/20/1 102/23/1 103/9/1 104/6/1
f 105/20/1 106/23/1 107/9/1 108/6/1
f 109/19/1 110/22/1 111/23/1 112/20/1
f 113/19/1 114/22/1 115/23/1 116/20/1
f 117/19/1 118/22/1 119/23/1 120/20/1
f 121/19/1 122/22/1 123/23/1 124/20/1
f 125/22/1 126/24/1 127/25/1 128/23/1
f 129/26/1 130/5/1 131/8/1 132/13/1
f 133/27/1 134/28/1 135/29/1 136/30/1
f 137/29/1 138/31/1 139/26/1 140/17/1
f 141/29/1 142/31/1 143/26/1 144/17/1
f 145/29/1 146/31/1 147/26/1 148/17/1
f 149/27/1 150/28/1 151/29/1 152/30/1
f 153/18/1 154/19/1 155/20/1 156/21/1
f 157/19/1 158/22/1 159/23/1 160/20/1
f 161/19/1 162/22/1 163/23/1 164/20/1
f 165/19/1 166/22/1 167/23/1 168/20/1
f 169/22/1 170/24/1 171/25/1 172/23/1
f 173/26/1 174/5/1 175/8/1 176/13/1
f 177/16/1 178/17/1 179/2/1 180/1/1
f 181/21/1 182/20/1 183/6/1 184/5/1
f 185/20/1 186/23/1 187/9/1 188/6/1
f 189/20/1 190/23/1 191/9/1 192/6/1
f 193/20/1 194/23/1 195/9/1 196/6/1
f 197/23/1 198/25/1 199/11/1 200/9/1
f 201/26/1 202/5/1 203/8/1 204/13/1
f 205/30/1 206/29/1 207/17/1 208/16/1
f 209/29/1 210/31/1 211/26/1 212/17/1
f 213/29/1 214/31/1 215/26/1 216/17/1
f 217/29/1 218/31/1 219/26/1 220/17/1
f 221/29/1 222/31/1 223/26/1 224/17/1
f 225/29/1 226/31/1 227/26/1 228/17/1
f 229/31/1 230/21/1 231/5/1 232/26/1

