# Tiled2Unity generated file. Do not modify by hand.
# Wavefront file for 'HouseOutsideMap_mesh_0018.obj'

# Vertices (Count = 332)
v -64000 -3200 0
v -67200 -3200 0
v -67200 0 0
v -64000 0 0
v -67200 -3200 0
v -70400 -3200 0
v -70400 0 0
v -67200 0 0
v -70400 -3200 0
v -73600 -3200 0
v -73600 0 0
v -70400 0 0
v -73600 -3200 0
v -76800 -3200 0
v -76800 0 0
v -73600 0 0
v -76800 -3200 0
v -80000 -3200 0
v -80000 0 0
v -76800 0 0
v -80000 -3200 0
v -83200 -3200 0
v -83200 0 0
v -80000 0 0
v -83200 -3200 0
v -86400 -3200 0
v -86400 0 0
v -83200 0 0
v -86400 -3200 0
v -89600 -3200 0
v -89600 0 0
v -86400 0 0
v -89600 -3200 0
v -92800 -3200 0
v -92800 0 0
v -89600 0 0
v -92800 -3200 0
v -96000 -3200 0
v -96000 0 0
v -92800 0 0
v -64000 -6400 0
v -67200 -6400 0
v -67200 -3200 0
v -64000 -3200 0
v -67200 -6400 0
v -70400 -6400 0
v -70400 -3200 0
v -67200 -3200 0
v -70400 -6400 0
v -73600 -6400 0
v -73600 -3200 0
v -70400 -3200 0
v -73600 -6400 0
v -76800 -6400 0
v -76800 -3200 0
v -73600 -3200 0
v -76800 -6400 0
v -80000 -6400 0
v -80000 -3200 0
v -76800 -3200 0
v -80000 -6400 0
v -83200 -6400 0
v -83200 -3200 0
v -80000 -3200 0
v -83200 -6400 0
v -86400 -6400 0
v -86400 -3200 0
v -83200 -3200 0
v -86400 -6400 0
v -89600 -6400 0
v -89600 -3200 0
v -86400 -3200 0
v -89600 -6400 0
v -92800 -6400 0
v -92800 -3200 0
v -89600 -3200 0
v -92800 -6400 0
v -96000 -6400 0
v -96000 -3200 0
v -92800 -3200 0
v -67200 -9600 0
v -70400 -9600 0
v -70400 -6400 0
v -67200 -6400 0
v -70400 -9600 0
v -73600 -9600 0
v -73600 -6400 0
v -70400 -6400 0
v -73600 -9600 0
v -76800 -9600 0
v -76800 -6400 0
v -73600 -6400 0
v -76800 -9600 0
v -80000 -9600 0
v -80000 -6400 0
v -76800 -6400 0
v -80000 -9600 0
v -83200 -9600 0
v -83200 -6400 0
v -80000 -6400 0
v -83200 -9600 0
v -86400 -9600 0
v -86400 -6400 0
v -83200 -6400 0
v -86400 -9600 0
v -89600 -9600 0
v -89600 -6400 0
v -86400 -6400 0
v -89600 -9600 0
v -92800 -9600 0
v -92800 -6400 0
v -89600 -6400 0
v -92800 -9600 0
v -96000 -9600 0
v -96000 -6400 0
v -92800 -6400 0
v -70400 -12800 0
v -73600 -12800 0
v -73600 -9600 0
v -70400 -9600 0
v -73600 -12800 0
v -76800 -12800 0
v -76800 -9600 0
v -73600 -9600 0
v -76800 -12800 0
v -80000 -12800 0
v -80000 -9600 0
v -76800 -9600 0
v -80000 -12800 0
v -83200 -12800 0
v -83200 -9600 0
v -80000 -9600 0
v -83200 -12800 0
v -86400 -12800 0
v -86400 -9600 0
v -83200 -9600 0
v -86400 -12800 0
v -89600 -12800 0
v -89600 -9600 0
v -86400 -9600 0
v -89600 -12800 0
v -92800 -12800 0
v -92800 -9600 0
v -89600 -9600 0
v -92800 -12800 0
v -96000 -12800 0
v -96000 -9600 0
v -92800 -9600 0
v -73600 -16000 0
v -76800 -16000 0
v -76800 -12800 0
v -73600 -12800 0
v -76800 -16000 0
v -80000 -16000 0
v -80000 -12800 0
v -76800 -12800 0
v -80000 -16000 0
v -83200 -16000 0
v -83200 -12800 0
v -80000 -12800 0
v -83200 -16000 0
v -86400 -16000 0
v -86400 -12800 0
v -83200 -12800 0
v -86400 -16000 0
v -89600 -16000 0
v -89600 -12800 0
v -86400 -12800 0
v -89600 -16000 0
v -92800 -16000 0
v -92800 -12800 0
v -89600 -12800 0
v -92800 -16000 0
v -96000 -16000 0
v -96000 -12800 0
v -92800 -12800 0
v -67200 -19200 0
v -70400 -19200 0
v -70400 -16000 0
v -67200 -16000 0
v -70400 -19200 0
v -73600 -19200 0
v -73600 -16000 0
v -70400 -16000 0
v -73600 -19200 0
v -76800 -19200 0
v -76800 -16000 0
v -73600 -16000 0
v -76800 -19200 0
v -80000 -19200 0
v -80000 -16000 0
v -76800 -16000 0
v -80000 -19200 0
v -83200 -19200 0
v -83200 -16000 0
v -80000 -16000 0
v -83200 -19200 0
v -86400 -19200 0
v -86400 -16000 0
v -83200 -16000 0
v -86400 -19200 0
v -89600 -19200 0
v -89600 -16000 0
v -86400 -16000 0
v -89600 -19200 0
v -92800 -19200 0
v -92800 -16000 0
v -89600 -16000 0
v -92800 -19200 0
v -96000 -19200 0
v -96000 -16000 0
v -92800 -16000 0
v -67200 -22400 0
v -70400 -22400 0
v -70400 -19200 0
v -67200 -19200 0
v -70400 -22400 0
v -73600 -22400 0
v -73600 -19200 0
v -70400 -19200 0
v -73600 -22400 0
v -76800 -22400 0
v -76800 -19200 0
v -73600 -19200 0
v -76800 -22400 0
v -80000 -22400 0
v -80000 -19200 0
v -76800 -19200 0
v -80000 -22400 0
v -83200 -22400 0
v -83200 -19200 0
v -80000 -19200 0
v -83200 -22400 0
v -86400 -22400 0
v -86400 -19200 0
v -83200 -19200 0
v -86400 -22400 0
v -89600 -22400 0
v -89600 -19200 0
v -86400 -19200 0
v -89600 -22400 0
v -92800 -22400 0
v -92800 -19200 0
v -89600 -19200 0
v -92800 -22400 0
v -96000 -22400 0
v -96000 -19200 0
v -92800 -19200 0
v -67200 -25600 0
v -70400 -25600 0
v -70400 -22400 0
v -67200 -22400 0
v -70400 -25600 0
v -73600 -25600 0
v -73600 -22400 0
v -70400 -22400 0
v -73600 -25600 0
v -76800 -25600 0
v -76800 -22400 0
v -73600 -22400 0
v -76800 -25600 0
v -80000 -25600 0
v -80000 -22400 0
v -76800 -22400 0
v -80000 -25600 0
v -83200 -25600 0
v -83200 -22400 0
v -80000 -22400 0
v -83200 -25600 0
v -86400 -25600 0
v -86400 -22400 0
v -83200 -22400 0
v -86400 -25600 0
v -89600 -25600 0
v -89600 -22400 0
v -86400 -22400 0
v -89600 -25600 0
v -92800 -25600 0
v -92800 -22400 0
v -89600 -22400 0
v -92800 -25600 0
v -96000 -25600 0
v -96000 -22400 0
v -92800 -22400 0
v -70400 -28800 0
v -73600 -28800 0
v -73600 -25600 0
v -70400 -25600 0
v -73600 -28800 0
v -76800 -28800 0
v -76800 -25600 0
v -73600 -25600 0
v -76800 -28800 0
v -80000 -28800 0
v -80000 -25600 0
v -76800 -25600 0
v -80000 -28800 0
v -83200 -28800 0
v -83200 -25600 0
v -80000 -25600 0
v -83200 -28800 0
v -86400 -28800 0
v -86400 -25600 0
v -83200 -25600 0
v -86400 -28800 0
v -89600 -28800 0
v -89600 -25600 0
v -86400 -25600 0
v -89600 -28800 0
v -92800 -28800 0
v -92800 -25600 0
v -89600 -25600 0
v -70400 -32000 0
v -73600 -32000 0
v -73600 -28800 0
v -70400 -28800 0
v -73600 -32000 0
v -76800 -32000 0
v -76800 -28800 0
v -73600 -28800 0
v -76800 -32000 0
v -80000 -32000 0
v -80000 -28800 0
v -76800 -28800 0
v -80000 -32000 0
v -83200 -32000 0
v -83200 -28800 0
v -80000 -28800 0
v -83200 -32000 0
v -86400 -32000 0
v -86400 -28800 0
v -83200 -28800 0

# Texture cooridinates (Count = 25)
vt 0 0.3333333
vt 0.3333333 0.3333333
vt 0.3333333 0.5
vt 0 0.5
vt 0.6666667 0.3333333
vt 0.6666667 0.5
vt 0 0.1666667
vt 0.3333333 0.1666667
vt 0.6666667 0.8333333
vt 1 0.8333333
vt 1 1
vt 0.6666667 1
vt 0.6666667 0
vt 1 0
vt 1 0.1666667
vt 0.6666667 0.1666667
vt 0.3333333 0
vt 0 0
vt 0.3333333 0.6666666
vt 0 0.6666666
vt 0.6666667 0.6666666
vt 1 0.6666666
vt 0.3333333 0.8333333
vt 0.3333333 1
vt 1 0.3333333

# Normal
vn 0 0 -1

# Mesh description
g HouseOutsideMap_mesh_0018

# Faces
f 1/1/1 2/2/1 3/3/1 4/4/1
f 5/2/1 6/5/1 7/6/1 8/3/1
f 9/2/1 10/5/1 11/6/1 12/3/1
f 13/2/1 14/5/1 15/6/1 16/3/1
f 17/2/1 18/5/1 19/6/1 20/3/1
f 21/2/1 22/5/1 23/6/1 24/3/1
f 25/2/1 26/5/1 27/6/1 28/3/1
f 29/2/1 30/5/1 31/6/1 32/3/1
f 33/2/1 34/5/1 35/6/1 36/3/1
f 37/2/1 38/5/1 39/6/1 40/3/1
f 41/7/1 42/8/1 43/2/1 44/1/1
f 45/9/1 46/10/1 47/11/1 48/12/1
f 49/2/1 50/5/1 51/6/1 52/3/1
f 53/13/1 54/14/1 55/15/1 56/16/1
f 57/2/1 58/5/1 59/6/1 60/3/1
f 61/2/1 62/5/1 63/6/1 64/3/1
f 65/2/1 66/5/1 67/6/1 68/3/1
f 69/2/1 70/5/1 71/6/1 72/3/1
f 73/14/1 74/13/1 75/16/1 76/15/1
f 77/2/1 78/5/1 79/6/1 80/3/1
f 81/7/1 82/8/1 83/2/1 84/1/1
f 85/9/1 86/10/1 87/11/1 88/12/1
f 89/2/1 90/5/1 91/6/1 92/3/1
f 93/2/1 94/5/1 95/6/1 96/3/1
f 97/2/1 98/5/1 99/6/1 100/3/1
f 101/13/1 102/17/1 103/8/1 104/16/1
f 105/2/1 106/5/1 107/6/1 108/3/1
f 109/2/1 110/5/1 111/6/1 112/3/1
f 113/2/1 114/5/1 115/6/1 116/3/1
f 117/7/1 118/8/1 119/2/1 120/1/1
f 121/9/1 122/10/1 123/11/1 124/12/1
f 125/2/1 126/5/1 127/6/1 128/3/1
f 129/2/1 130/5/1 131/6/1 132/3/1
f 133/2/1 134/5/1 135/6/1 136/3/1
f 137/2/1 138/5/1 139/6/1 140/3/1
f 141/18/1 142/17/1 143/8/1 144/7/1
f 145/2/1 146/5/1 147/6/1 148/3/1
f 149/1/1 150/2/1 151/3/1 152/4/1
f 153/2/1 154/5/1 155/6/1 156/3/1
f 157/17/1 158/13/1 159/16/1 160/8/1
f 161/2/1 162/5/1 163/6/1 164/3/1
f 165/2/1 166/5/1 167/6/1 168/3/1
f 169/2/1 170/5/1 171/6/1 172/3/1
f 173/2/1 174/5/1 175/6/1 176/3/1
f 177/4/1 178/3/1 179/19/1 180/20/1
f 181/3/1 182/6/1 183/21/1 184/19/1
f 185/21/1 186/22/1 187/10/1 188/9/1
f 189/2/1 190/5/1 191/6/1 192/3/1
f 193/2/1 194/5/1 195/6/1 196/3/1
f 197/2/1 198/5/1 199/6/1 200/3/1
f 201/2/1 202/5/1 203/6/1 204/3/1
f 205/2/1 206/5/1 207/6/1 208/3/1
f 209/2/1 210/5/1 211/6/1 212/3/1
f 213/1/1 214/2/1 215/3/1 216/4/1
f 217/2/1 218/5/1 219/6/1 220/3/1
f 221/2/1 222/5/1 223/6/1 224/3/1
f 225/2/1 226/5/1 227/6/1 228/3/1
f 229/2/1 230/5/1 231/6/1 232/3/1
f 233/2/1 234/5/1 235/6/1 236/3/1
f 237/2/1 238/5/1 239/6/1 240/3/1
f 241/13/1 242/17/1 243/8/1 244/16/1
f 245/23/1 246/9/1 247/12/1 248/24/1
f 249/7/1 250/8/1 251/2/1 252/1/1
f 253/9/1 254/10/1 255/11/1 256/12/1
f 257/2/1 258/5/1 259/6/1 260/3/1
f 261/13/1 262/14/1 263/15/1 264/16/1
f 265/2/1 266/5/1 267/6/1 268/3/1
f 269/2/1 270/5/1 271/6/1 272/3/1
f 273/2/1 274/5/1 275/6/1 276/3/1
f 277/23/1 278/9/1 279/12/1 280/24/1
f 281/16/1 282/15/1 283/25/1 284/5/1
f 285/1/1 286/2/1 287/3/1 288/4/1
f 289/2/1 290/5/1 291/6/1 292/3/1
f 293/2/1 294/5/1 295/6/1 296/3/1
f 297/2/1 298/5/1 299/6/1 300/3/1
f 301/23/1 302/9/1 303/12/1 304/24/1
f 305/8/1 306/16/1 307/5/1 308/2/1
f 309/16/1 310/15/1 311/25/1 312/5/1
f 313/7/1 314/8/1 315/2/1 316/1/1
f 317/8/1 318/16/1 319/5/1 320/2/1
f 321/8/1 322/16/1 323/5/1 324/2/1
f 325/8/1 326/16/1 327/5/1 328/2/1
f 329/16/1 330/15/1 331/25/1 332/5/1

