# Tiled2Unity generated file. Do not modify by hand.
# Wavefront file for 'HouseOutsideMap_mesh_0013.obj'

# Vertices (Count = 28)
v -25600 -25600 0
v -28800 -25600 0
v -28800 -22400 0
v -25600 -22400 0
v -25600 -28800 0
v -28800 -28800 0
v -28800 -25600 0
v -25600 -25600 0
v -35200 -32000 0
v -38400 -32000 0
v -38400 -28800 0
v -35200 -28800 0
v -41600 -32000 0
v -44800 -32000 0
v -44800 -28800 0
v -41600 -28800 0
v -48000 -32000 0
v -51200 -32000 0
v -51200 -28800 0
v -48000 -28800 0
v -35200 -35200 0
v -38400 -35200 0
v -38400 -32000 0
v -35200 -32000 0
v -48000 -35200 0
v -51200 -35200 0
v -51200 -32000 0
v -48000 -32000 0

# Texture cooridinates (Count = 10)
vt 0.8888889 0.8571429
vt 1 0.8571429
vt 1 1
vt 0.8888889 1
vt 0.8888889 0.7142857
vt 1 0.7142857
vt 0.3333333 0.5714285
vt 0.4444444 0.5714285
vt 0.4444444 0.7142857
vt 0.3333333 0.7142857

# Normal
vn 0 0 -1

# Mesh description
g HouseOutsideMap_mesh_0013

# Faces
f 1/1/1 2/2/1 3/3/1 4/4/1
f 5/5/1 6/6/1 7/2/1 8/1/1
f 9/1/1 10/2/1 11/3/1 12/4/1
f 13/7/1 14/8/1 15/9/1 16/10/1
f 17/1/1 18/2/1 19/3/1 20/4/1
f 21/5/1 22/6/1 23/2/1 24/1/1
f 25/5/1 26/6/1 27/2/1 28/1/1

