# Tiled2Unity generated file. Do not modify by hand.
# Wavefront file for 'HouseOutsideMap_mesh_0020.obj'

# Vertices (Count = 192)
v -73600 -6400 0
v -76800 -6400 0
v -76800 -3200 0
v -73600 -3200 0
v -86400 -12800 0
v -89600 -12800 0
v -89600 -9600 0
v -86400 -9600 0
v -70400 -16000 0
v -73600 -16000 0
v -73600 -12800 0
v -70400 -12800 0
v -86400 -16000 0
v -89600 -16000 0
v -89600 -12800 0
v -86400 -12800 0
v -70400 -19200 0
v -73600 -19200 0
v -73600 -16000 0
v -70400 -16000 0
v -73600 -19200 0
v -76800 -19200 0
v -76800 -16000 0
v -73600 -16000 0
v -70400 -22400 0
v -73600 -22400 0
v -73600 -19200 0
v -70400 -19200 0
v -73600 -22400 0
v -76800 -22400 0
v -76800 -19200 0
v -73600 -19200 0
v -70400 -25600 0
v -73600 -25600 0
v -73600 -22400 0
v -70400 -22400 0
v -76800 -25600 0
v -80000 -25600 0
v -80000 -22400 0
v -76800 -22400 0
v -6400 -73600 0
v -9600 -73600 0
v -9600 -70400 0
v -6400 -70400 0
v -19200 -73600 0
v -22400 -73600 0
v -22400 -70400 0
v -19200 -70400 0
v -32000 -73600 0
v -35200 -73600 0
v -35200 -70400 0
v -32000 -70400 0
v -6400 -76800 0
v -9600 -76800 0
v -9600 -73600 0
v -6400 -73600 0
v -12800 -76800 0
v -16000 -76800 0
v -16000 -73600 0
v -12800 -73600 0
v -19200 -76800 0
v -22400 -76800 0
v -22400 -73600 0
v -19200 -73600 0
v -25600 -76800 0
v -28800 -76800 0
v -28800 -73600 0
v -25600 -73600 0
v -32000 -76800 0
v -35200 -76800 0
v -35200 -73600 0
v -32000 -73600 0
v -9600 -80000 0
v -12800 -80000 0
v -12800 -76800 0
v -9600 -76800 0
v -12800 -80000 0
v -16000 -80000 0
v -16000 -76800 0
v -12800 -76800 0
v -19200 -80000 0
v -22400 -80000 0
v -22400 -76800 0
v -19200 -76800 0
v -22400 -80000 0
v -25600 -80000 0
v -25600 -76800 0
v -22400 -76800 0
v -25600 -80000 0
v -28800 -80000 0
v -28800 -76800 0
v -25600 -76800 0
v -35200 -80000 0
v -38400 -80000 0
v -38400 -76800 0
v -35200 -76800 0
v -3200 -83200 0
v -6400 -83200 0
v -6400 -80000 0
v -3200 -80000 0
v -9600 -83200 0
v -12800 -83200 0
v -12800 -80000 0
v -9600 -80000 0
v -16000 -83200 0
v -19200 -83200 0
v -19200 -80000 0
v -16000 -80000 0
v -19200 -83200 0
v -22400 -83200 0
v -22400 -80000 0
v -19200 -80000 0
v -22400 -83200 0
v -25600 -83200 0
v -25600 -80000 0
v -22400 -80000 0
v -28800 -83200 0
v -32000 -83200 0
v -32000 -80000 0
v -28800 -80000 0
v -35200 -83200 0
v -38400 -83200 0
v -38400 -80000 0
v -35200 -80000 0
v -3200 -86400 0
v -6400 -86400 0
v -6400 -83200 0
v -3200 -83200 0
v -6400 -86400 0
v -9600 -86400 0
v -9600 -83200 0
v -6400 -83200 0
v -12800 -86400 0
v -16000 -86400 0
v -16000 -83200 0
v -12800 -83200 0
v -16000 -86400 0
v -19200 -86400 0
v -19200 -83200 0
v -16000 -83200 0
v -25600 -86400 0
v -28800 -86400 0
v -28800 -83200 0
v -25600 -83200 0
v -28800 -86400 0
v -32000 -86400 0
v -32000 -83200 0
v -28800 -83200 0
v -32000 -86400 0
v -35200 -86400 0
v -35200 -83200 0
v -32000 -83200 0
v -6400 -89600 0
v -9600 -89600 0
v -9600 -86400 0
v -6400 -86400 0
v -9600 -89600 0
v -12800 -89600 0
v -12800 -86400 0
v -9600 -86400 0
v -12800 -89600 0
v -16000 -89600 0
v -16000 -86400 0
v -12800 -86400 0
v -19200 -89600 0
v -22400 -89600 0
v -22400 -86400 0
v -19200 -86400 0
v -25600 -89600 0
v -28800 -89600 0
v -28800 -86400 0
v -25600 -86400 0
v -32000 -89600 0
v -35200 -89600 0
v -35200 -86400 0
v -32000 -86400 0
v -35200 -89600 0
v -38400 -89600 0
v -38400 -86400 0
v -35200 -86400 0
v -9600 -92800 0
v -12800 -92800 0
v -12800 -89600 0
v -9600 -89600 0
v -19200 -92800 0
v -22400 -92800 0
v -22400 -89600 0
v -19200 -89600 0
v -35200 -92800 0
v -38400 -92800 0
v -38400 -89600 0
v -35200 -89600 0

# Texture cooridinates (Count = 33)
vt 0.1875 0.03125
vt 0.21875 0.03125
vt 0.21875 0.0625
vt 0.1875 0.0625
vt 0.25 0.03125
vt 0.25 0.0625
vt 0.8125 0.0625
vt 0.84375 0.0625
vt 0.84375 0.09375
vt 0.8125 0.09375
vt 0.21875 0
vt 0.25 0
vt 0.8125 0.03125
vt 0.84375 0.03125
vt 0.1875 0
vt 0.46875 0.15625
vt 0.5 0.15625
vt 0.5 0.1875
vt 0.46875 0.1875
vt 0.46875 0.03125
vt 0.5 0.03125
vt 0.5 0.0625
vt 0.46875 0.0625
vt 0.46875 0.21875
vt 0.5 0.21875
vt 0.5 0.25
vt 0.46875 0.25
vt 0.46875 0.125
vt 0.5 0.125
vt 0.46875 0.09375
vt 0.5 0.09375
vt 0.46875 0
vt 0.5 0

# Normal
vn 0 0 -1

# Mesh description
g HouseOutsideMap_mesh_0020

# Faces
f 1/1/1 2/2/1 3/3/1 4/4/1
f 5/2/1 6/5/1 7/6/1 8/3/1
f 9/7/1 10/8/1 11/9/1 12/10/1
f 13/11/1 14/12/1 15/5/1 16/2/1
f 17/13/1 18/14/1 19/8/1 20/7/1
f 21/8/1 22/7/1 23/10/1 24/9/1
f 25/7/1 26/8/1 27/9/1 28/10/1
f 29/14/1 30/13/1 31/7/1 32/8/1
f 33/13/1 34/14/1 35/8/1 36/7/1
f 37/15/1 38/11/1 39/2/1 40/1/1
f 41/16/1 42/17/1 43/18/1 44/19/1
f 45/20/1 46/21/1 47/22/1 48/23/1
f 49/24/1 50/25/1 51/26/1 52/27/1
f 53/28/1 54/29/1 55/17/1 56/16/1
f 57/30/1 58/31/1 59/29/1 60/28/1
f 61/32/1 62/33/1 63/21/1 64/20/1
f 65/16/1 66/17/1 67/18/1 68/19/1
f 69/19/1 70/18/1 71/25/1 72/24/1
f 73/20/1 74/21/1 75/22/1 76/23/1
f 77/23/1 78/22/1 79/31/1 80/30/1
f 81/16/1 82/17/1 83/18/1 84/19/1
f 85/30/1 86/31/1 87/29/1 88/28/1
f 89/28/1 90/29/1 91/17/1 92/16/1
f 93/16/1 94/17/1 95/18/1 96/19/1
f 97/16/1 98/17/1 99/18/1 100/19/1
f 101/32/1 102/33/1 103/21/1 104/20/1
f 105/24/1 106/25/1 107/26/1 108/27/1
f 109/28/1 110/29/1 111/17/1 112/16/1
f 113/23/1 114/22/1 115/31/1 116/30/1
f 117/20/1 118/21/1 119/22/1 120/23/1
f 121/28/1 122/29/1 123/17/1 124/16/1
f 125/28/1 126/29/1 127/17/1 128/16/1
f 129/30/1 130/31/1 131/29/1 132/28/1
f 133/24/1 134/25/1 135/26/1 136/27/1
f 137/19/1 138/18/1 139/25/1 140/24/1
f 141/24/1 142/25/1 143/26/1 144/27/1
f 145/32/1 146/33/1 147/21/1 148/20/1
f 149/30/1 150/31/1 151/29/1 152/28/1
f 153/23/1 154/22/1 155/31/1 156/30/1
f 157/30/1 158/31/1 159/29/1 160/28/1
f 161/19/1 162/18/1 163/25/1 164/24/1
f 165/16/1 166/17/1 167/18/1 168/19/1
f 169/19/1 170/18/1 171/25/1 172/24/1
f 173/23/1 174/22/1 175/31/1 176/30/1
f 177/20/1 178/21/1 179/22/1 180/23/1
f 181/23/1 182/22/1 183/31/1 184/30/1
f 185/28/1 186/29/1 187/17/1 188/16/1
f 189/32/1 190/33/1 191/21/1 192/20/1

