# Tiled2Unity generated file. Do not modify by hand.
# Wavefront file for 'HouseOutsideMap_mesh_0014.obj'

# Vertices (Count = 32)
v -19200 -32000 0
v -22400 -32000 0
v -22400 -28800 0
v -19200 -28800 0
v -22400 -32000 0
v -25600 -32000 0
v -25600 -28800 0
v -22400 -28800 0
v -25600 -32000 0
v -28800 -32000 0
v -28800 -28800 0
v -25600 -28800 0
v -28800 -32000 0
v -32000 -32000 0
v -32000 -28800 0
v -28800 -28800 0
v -19200 -35200 0
v -22400 -35200 0
v -22400 -32000 0
v -19200 -32000 0
v -22400 -35200 0
v -25600 -35200 0
v -25600 -32000 0
v -22400 -32000 0
v -25600 -35200 0
v -28800 -35200 0
v -28800 -32000 0
v -25600 -32000 0
v -28800 -35200 0
v -32000 -35200 0
v -32000 -32000 0
v -28800 -32000 0

# Texture cooridinates (Count = 15)
vt 0.5 0.5
vt 0.75 0.5
vt 0.75 1
vt 0.5 1
vt 1 0.5
vt 1 1
vt 0 0.5
vt 0.25 0.5
vt 0.25 1
vt 0 1
vt 0.5 0
vt 0.75 0
vt 1 0
vt 0 0
vt 0.25 0

# Normal
vn 0 0 -1

# Mesh description
g HouseOutsideMap_mesh_0014

# Faces
f 1/1/1 2/2/1 3/3/1 4/4/1
f 5/2/1 6/5/1 7/6/1 8/3/1
f 9/7/1 10/8/1 11/9/1 12/10/1
f 13/8/1 14/1/1 15/4/1 16/9/1
f 17/11/1 18/12/1 19/2/1 20/1/1
f 21/12/1 22/13/1 23/5/1 24/2/1
f 25/14/1 26/15/1 27/8/1 28/7/1
f 29/15/1 30/11/1 31/1/1 32/8/1

