# Tiled2Unity generated file. Do not modify by hand.
# Wavefront file for 'Shop_mesh_0004.obj'

# Vertices (Count = 8)
v -35200 -3200 0
v -38400 -3200 0
v -38400 0 0
v -35200 0 0
v -35200 -6400 0
v -38400 -6400 0
v -38400 -3200 0
v -35200 -3200 0

# Texture cooridinates (Count = 6)
vt 0.5555556 0.8571429
vt 0.6666667 0.8571429
vt 0.6666667 1
vt 0.5555556 1
vt 0.5555556 0.7142857
vt 0.6666667 0.7142857

# Normal
vn 0 0 -1

# Mesh description
g Shop_mesh_0004

# Faces
f 1/1/1 2/2/1 3/3/1 4/4/1
f 5/5/1 6/6/1 7/2/1 8/1/1

