# Tiled2Unity generated file. Do not modify by hand.
# Wavefront file for 'Shop_mesh_0011.obj'

# Vertices (Count = 36)
v -19200 -16000 0
v -22400 -16000 0
v -22400 -12800 0
v -19200 -12800 0
v -22400 -16000 0
v -25600 -16000 0
v -25600 -12800 0
v -22400 -12800 0
v -25600 -16000 0
v -28800 -16000 0
v -28800 -12800 0
v -25600 -12800 0
v -28800 -16000 0
v -32000 -16000 0
v -32000 -12800 0
v -28800 -12800 0
v -32000 -16000 0
v -35200 -16000 0
v -35200 -12800 0
v -32000 -12800 0
v -35200 -16000 0
v -38400 -16000 0
v -38400 -12800 0
v -35200 -12800 0
v -38400 -16000 0
v -41600 -16000 0
v -41600 -12800 0
v -38400 -12800 0
v -41600 -16000 0
v -44800 -16000 0
v -44800 -12800 0
v -41600 -12800 0
v -44800 -16000 0
v -48000 -16000 0
v -48000 -12800 0
v -44800 -12800 0

# Texture cooridinates (Count = 34)
vt 0.03125 0.34375
vt 0.0625 0.34375
vt 0.0625 0.375
vt 0.03125 0.375
vt 0.03125 0.28125
vt 0.0625 0.28125
vt 0.0625 0.3125
vt 0.03125 0.3125
vt 0.03125 0.21875
vt 0.0625 0.21875
vt 0.0625 0.25
vt 0.03125 0.25
vt 0.03125 0.15625
vt 0.0625 0.15625
vt 0.0625 0.1875
vt 0.03125 0.1875
vt 0.03125 0.09375
vt 0.0625 0.09375
vt 0.0625 0.125
vt 0.03125 0.125
vt 0.46875 0.15625
vt 0.5 0.15625
vt 0.5 0.1875
vt 0.46875 0.1875
vt 0.21875 0.375
vt 0.25 0.375
vt 0.25 0.40625
vt 0.21875 0.40625
vt 0.21875 0.34375
vt 0.25 0.34375
vt 0.15625 0.09375
vt 0.1875 0.09375
vt 0.1875 0.125
vt 0.15625 0.125

# Normal
vn 0 0 -1

# Mesh description
g Shop_mesh_0011

# Faces
f 1/1/1 2/2/1 3/3/1 4/4/1
f 5/5/1 6/6/1 7/7/1 8/8/1
f 9/9/1 10/10/1 11/11/1 12/12/1
f 13/13/1 14/14/1 15/15/1 16/16/1
f 17/17/1 18/18/1 19/19/1 20/20/1
f 21/21/1 22/22/1 23/23/1 24/24/1
f 25/25/1 26/26/1 27/27/1 28/28/1
f 29/29/1 30/30/1 31/26/1 32/25/1
f 33/31/1 34/32/1 35/33/1 36/34/1

