# Tiled2Unity generated file. Do not modify by hand.
# Wavefront file for 'Shop_mesh_0009.obj'

# Vertices (Count = 12)
v 0 -16000 0
v -3200 -16000 0
v -3200 -12800 0
v 0 -12800 0
v -3200 -16000 0
v -6400 -16000 0
v -6400 -12800 0
v -3200 -12800 0
v -6400 -16000 0
v -9600 -16000 0
v -9600 -12800 0
v -6400 -12800 0

# Texture cooridinates (Count = 10)
vt 0.8125 0
vt 0.84375 0
vt 0.84375 0.03125
vt 0.8125 0.03125
vt 0.3125 0.53125
vt 0.34375 0.53125
vt 0.34375 0.5625
vt 0.3125 0.5625
vt 0.28125 0.53125
vt 0.28125 0.5625

# Normal
vn 0 0 -1

# Mesh description
g Shop_mesh_0009

# Faces
f 1/1/1 2/2/1 3/3/1 4/4/1
f 5/5/1 6/6/1 7/7/1 8/8/1
f 9/9/1 10/5/1 11/8/1 12/10/1

