# Tiled2Unity generated file. Do not modify by hand.
# Wavefront file for 'Shop_mesh_0012.obj'

# Vertices (Count = 12)
v -28800 -3200 0
v -32000 -3200 0
v -32000 0 0
v -28800 0 0
v -12800 -16000 0
v -16000 -16000 0
v -16000 -12800 0
v -12800 -12800 0
v -16000 -16000 0
v -19200 -16000 0
v -19200 -12800 0
v -16000 -12800 0

# Texture cooridinates (Count = 8)
vt 0.5 0.875
vt 0.5625 0.875
vt 0.5625 0.9375
vt 0.5 0.9375
vt 0.5625 0.6875
vt 0.625 0.6875
vt 0.625 0.75
vt 0.5625 0.75

# Normal
vn 0 0 -1

# Mesh description
g Shop_mesh_0012

# Faces
f 1/1/1 2/2/1 3/3/1 4/4/1
f 5/5/1 6/6/1 7/7/1 8/8/1
f 9/5/1 10/6/1 11/7/1 12/8/1

