# Tiled2Unity generated file. Do not modify by hand.
# Wavefront file for 'Shop_mesh_0013.obj'

# Vertices (Count = 8)
v -28800 -6400 0
v -32000 -6400 0
v -32000 -3200 0
v -28800 -3200 0
v -28800 -9600 0
v -32000 -9600 0
v -32000 -6400 0
v -28800 -6400 0

# Texture cooridinates (Count = 8)
vt 0.8125 0.25
vt 0.875 0.25
vt 0.875 0.3125
vt 0.8125 0.3125
vt 0.8125 0.125
vt 0.875 0.125
vt 0.875 0.1875
vt 0.8125 0.1875

# Normal
vn 0 0 -1

# Mesh description
g Shop_mesh_0013

# Faces
f 1/1/1 2/2/1 3/3/1 4/4/1
f 5/5/1 6/6/1 7/7/1 8/8/1

