# Tiled2Unity generated file. Do not modify by hand.
# Wavefront file for 'Forest_mesh_0002.obj'

# Vertices (Count = 600)
v -22400 -73600 0
v -25600 -73600 0
v -25600 -70400 0
v -22400 -70400 0
v -25600 -73600 0
v -28800 -73600 0
v -28800 -70400 0
v -25600 -70400 0
v -28800 -73600 0
v -32000 -73600 0
v -32000 -70400 0
v -28800 -70400 0
v -32000 -73600 0
v -35200 -73600 0
v -35200 -70400 0
v -32000 -70400 0
v -35200 -73600 0
v -38400 -73600 0
v -38400 -70400 0
v -35200 -70400 0
v -38400 -73600 0
v -41600 -73600 0
v -41600 -70400 0
v -38400 -70400 0
v -41600 -73600 0
v -44800 -73600 0
v -44800 -70400 0
v -41600 -70400 0
v -44800 -73600 0
v -48000 -73600 0
v -48000 -70400 0
v -44800 -70400 0
v -48000 -73600 0
v -51200 -73600 0
v -51200 -70400 0
v -48000 -70400 0
v -51200 -73600 0
v -54400 -73600 0
v -54400 -70400 0
v -51200 -70400 0
v -54400 -73600 0
v -57600 -73600 0
v -57600 -70400 0
v -54400 -70400 0
v -16000 -76800 0
v -19200 -76800 0
v -19200 -73600 0
v -16000 -73600 0
v -19200 -76800 0
v -22400 -76800 0
v -22400 -73600 0
v -19200 -73600 0
v -22400 -76800 0
v -25600 -76800 0
v -25600 -73600 0
v -22400 -73600 0
v -25600 -76800 0
v -28800 -76800 0
v -28800 -73600 0
v -25600 -73600 0
v -28800 -76800 0
v -32000 -76800 0
v -32000 -73600 0
v -28800 -73600 0
v -32000 -76800 0
v -35200 -76800 0
v -35200 -73600 0
v -32000 -73600 0
v -35200 -76800 0
v -38400 -76800 0
v -38400 -73600 0
v -35200 -73600 0
v -38400 -76800 0
v -41600 -76800 0
v -41600 -73600 0
v -38400 -73600 0
v -41600 -76800 0
v -44800 -76800 0
v -44800 -73600 0
v -41600 -73600 0
v -44800 -76800 0
v -48000 -76800 0
v -48000 -73600 0
v -44800 -73600 0
v -48000 -76800 0
v -51200 -76800 0
v -51200 -73600 0
v -48000 -73600 0
v -51200 -76800 0
v -54400 -76800 0
v -54400 -73600 0
v -51200 -73600 0
v -54400 -76800 0
v -57600 -76800 0
v -57600 -73600 0
v -54400 -73600 0
v -57600 -76800 0
v -60800 -76800 0
v -60800 -73600 0
v -57600 -73600 0
v -60800 -76800 0
v -64000 -76800 0
v -64000 -73600 0
v -60800 -73600 0
v -6400 -80000 0
v -9600 -80000 0
v -9600 -76800 0
v -6400 -76800 0
v -9600 -80000 0
v -12800 -80000 0
v -12800 -76800 0
v -9600 -76800 0
v -12800 -80000 0
v -16000 -80000 0
v -16000 -76800 0
v -12800 -76800 0
v -16000 -80000 0
v -19200 -80000 0
v -19200 -76800 0
v -16000 -76800 0
v -19200 -80000 0
v -22400 -80000 0
v -22400 -76800 0
v -19200 -76800 0
v -22400 -80000 0
v -25600 -80000 0
v -25600 -76800 0
v -22400 -76800 0
v -25600 -80000 0
v -28800 -80000 0
v -28800 -76800 0
v -25600 -76800 0
v -28800 -80000 0
v -32000 -80000 0
v -32000 -76800 0
v -28800 -76800 0
v -32000 -80000 0
v -35200 -80000 0
v -35200 -76800 0
v -32000 -76800 0
v -35200 -80000 0
v -38400 -80000 0
v -38400 -76800 0
v -35200 -76800 0
v -38400 -80000 0
v -41600 -80000 0
v -41600 -76800 0
v -38400 -76800 0
v -41600 -80000 0
v -44800 -80000 0
v -44800 -76800 0
v -41600 -76800 0
v -44800 -80000 0
v -48000 -80000 0
v -48000 -76800 0
v -44800 -76800 0
v -48000 -80000 0
v -51200 -80000 0
v -51200 -76800 0
v -48000 -76800 0
v -51200 -80000 0
v -54400 -80000 0
v -54400 -76800 0
v -51200 -76800 0
v -54400 -80000 0
v -57600 -80000 0
v -57600 -76800 0
v -54400 -76800 0
v -57600 -80000 0
v -60800 -80000 0
v -60800 -76800 0
v -57600 -76800 0
v -60800 -80000 0
v -64000 -80000 0
v -64000 -76800 0
v -60800 -76800 0
v -64000 -80000 0
v -67200 -80000 0
v -67200 -76800 0
v -64000 -76800 0
v -67200 -80000 0
v -70400 -80000 0
v -70400 -76800 0
v -67200 -76800 0
v 0 -83200 0
v -3200 -83200 0
v -3200 -80000 0
v 0 -80000 0
v -3200 -83200 0
v -6400 -83200 0
v -6400 -80000 0
v -3200 -80000 0
v -6400 -83200 0
v -9600 -83200 0
v -9600 -80000 0
v -6400 -80000 0
v -9600 -83200 0
v -12800 -83200 0
v -12800 -80000 0
v -9600 -80000 0
v -12800 -83200 0
v -16000 -83200 0
v -16000 -80000 0
v -12800 -80000 0
v -16000 -83200 0
v -19200 -83200 0
v -19200 -80000 0
v -16000 -80000 0
v -19200 -83200 0
v -22400 -83200 0
v -22400 -80000 0
v -19200 -80000 0
v -22400 -83200 0
v -25600 -83200 0
v -25600 -80000 0
v -22400 -80000 0
v -25600 -83200 0
v -28800 -83200 0
v -28800 -80000 0
v -25600 -80000 0
v -28800 -83200 0
v -32000 -83200 0
v -32000 -80000 0
v -28800 -80000 0
v -48000 -83200 0
v -51200 -83200 0
v -51200 -80000 0
v -48000 -80000 0
v -51200 -83200 0
v -54400 -83200 0
v -54400 -80000 0
v -51200 -80000 0
v -54400 -83200 0
v -57600 -83200 0
v -57600 -80000 0
v -54400 -80000 0
v -57600 -83200 0
v -60800 -83200 0
v -60800 -80000 0
v -57600 -80000 0
v -60800 -83200 0
v -64000 -83200 0
v -64000 -80000 0
v -60800 -80000 0
v -64000 -83200 0
v -67200 -83200 0
v -67200 -80000 0
v -64000 -80000 0
v -67200 -83200 0
v -70400 -83200 0
v -70400 -80000 0
v -67200 -80000 0
v -70400 -83200 0
v -73600 -83200 0
v -73600 -80000 0
v -70400 -80000 0
v -73600 -83200 0
v -76800 -83200 0
v -76800 -80000 0
v -73600 -80000 0
v -76800 -83200 0
v -80000 -83200 0
v -80000 -80000 0
v -76800 -80000 0
v -105600 -83200 0
v -108800 -83200 0
v -108800 -80000 0
v -105600 -80000 0
v -108800 -83200 0
v -112000 -83200 0
v -112000 -80000 0
v -108800 -80000 0
v -112000 -83200 0
v -115200 -83200 0
v -115200 -80000 0
v -112000 -80000 0
v -115200 -83200 0
v -118400 -83200 0
v -118400 -80000 0
v -115200 -80000 0
v -118400 -83200 0
v -121600 -83200 0
v -121600 -80000 0
v -118400 -80000 0
v -121600 -83200 0
v -124800 -83200 0
v -124800 -80000 0
v -121600 -80000 0
v -124800 -83200 0
v -128000 -83200 0
v -128000 -80000 0
v -124800 -80000 0
v 0 -86400 0
v -3200 -86400 0
v -3200 -83200 0
v 0 -83200 0
v -3200 -86400 0
v -6400 -86400 0
v -6400 -83200 0
v -3200 -83200 0
v -6400 -86400 0
v -9600 -86400 0
v -9600 -83200 0
v -6400 -83200 0
v -9600 -86400 0
v -12800 -86400 0
v -12800 -83200 0
v -9600 -83200 0
v -12800 -86400 0
v -16000 -86400 0
v -16000 -83200 0
v -12800 -83200 0
v -16000 -86400 0
v -19200 -86400 0
v -19200 -83200 0
v -16000 -83200 0
v -19200 -86400 0
v -22400 -86400 0
v -22400 -83200 0
v -19200 -83200 0
v -22400 -86400 0
v -25600 -86400 0
v -25600 -83200 0
v -22400 -83200 0
v -54400 -86400 0
v -57600 -86400 0
v -57600 -83200 0
v -54400 -83200 0
v -57600 -86400 0
v -60800 -86400 0
v -60800 -83200 0
v -57600 -83200 0
v -60800 -86400 0
v -64000 -86400 0
v -64000 -83200 0
v -60800 -83200 0
v -64000 -86400 0
v -67200 -86400 0
v -67200 -83200 0
v -64000 -83200 0
v -67200 -86400 0
v -70400 -86400 0
v -70400 -83200 0
v -67200 -83200 0
v -70400 -86400 0
v -73600 -86400 0
v -73600 -83200 0
v -70400 -83200 0
v -73600 -86400 0
v -76800 -86400 0
v -76800 -83200 0
v -73600 -83200 0
v -76800 -86400 0
v -80000 -86400 0
v -80000 -83200 0
v -76800 -83200 0
v -80000 -86400 0
v -83200 -86400 0
v -83200 -83200 0
v -80000 -83200 0
v -83200 -86400 0
v -86400 -86400 0
v -86400 -83200 0
v -83200 -83200 0
v -96000 -86400 0
v -99200 -86400 0
v -99200 -83200 0
v -96000 -83200 0
v -99200 -86400 0
v -102400 -86400 0
v -102400 -83200 0
v -99200 -83200 0
v -102400 -86400 0
v -105600 -86400 0
v -105600 -83200 0
v -102400 -83200 0
v -105600 -86400 0
v -108800 -86400 0
v -108800 -83200 0
v -105600 -83200 0
v -108800 -86400 0
v -112000 -86400 0
v -112000 -83200 0
v -108800 -83200 0
v -112000 -86400 0
v -115200 -86400 0
v -115200 -83200 0
v -112000 -83200 0
v -115200 -86400 0
v -118400 -86400 0
v -118400 -83200 0
v -115200 -83200 0
v -118400 -86400 0
v -121600 -86400 0
v -121600 -83200 0
v -118400 -83200 0
v -121600 -86400 0
v -124800 -86400 0
v -124800 -83200 0
v -121600 -83200 0
v -124800 -86400 0
v -128000 -86400 0
v -128000 -83200 0
v -124800 -83200 0
v 0 -89600 0
v -3200 -89600 0
v -3200 -86400 0
v 0 -86400 0
v -3200 -89600 0
v -6400 -89600 0
v -6400 -86400 0
v -3200 -86400 0
v -6400 -89600 0
v -9600 -89600 0
v -9600 -86400 0
v -6400 -86400 0
v -9600 -89600 0
v -12800 -89600 0
v -12800 -86400 0
v -9600 -86400 0
v -12800 -89600 0
v -16000 -89600 0
v -16000 -86400 0
v -12800 -86400 0
v -60800 -89600 0
v -64000 -89600 0
v -64000 -86400 0
v -60800 -86400 0
v -64000 -89600 0
v -67200 -89600 0
v -67200 -86400 0
v -64000 -86400 0
v -67200 -89600 0
v -70400 -89600 0
v -70400 -86400 0
v -67200 -86400 0
v -70400 -89600 0
v -73600 -89600 0
v -73600 -86400 0
v -70400 -86400 0
v -73600 -89600 0
v -76800 -89600 0
v -76800 -86400 0
v -73600 -86400 0
v -76800 -89600 0
v -80000 -89600 0
v -80000 -86400 0
v -76800 -86400 0
v -80000 -89600 0
v -83200 -89600 0
v -83200 -86400 0
v -80000 -86400 0
v -83200 -89600 0
v -86400 -89600 0
v -86400 -86400 0
v -83200 -86400 0
v -86400 -89600 0
v -89600 -89600 0
v -89600 -86400 0
v -86400 -86400 0
v -89600 -89600 0
v -92800 -89600 0
v -92800 -86400 0
v -89600 -86400 0
v -92800 -89600 0
v -96000 -89600 0
v -96000 -86400 0
v -92800 -86400 0
v -96000 -89600 0
v -99200 -89600 0
v -99200 -86400 0
v -96000 -86400 0
v -99200 -89600 0
v -102400 -89600 0
v -102400 -86400 0
v -99200 -86400 0
v -102400 -89600 0
v -105600 -89600 0
v -105600 -86400 0
v -102400 -86400 0
v -105600 -89600 0
v -108800 -89600 0
v -108800 -86400 0
v -105600 -86400 0
v -108800 -89600 0
v -112000 -89600 0
v -112000 -86400 0
v -108800 -86400 0
v -112000 -89600 0
v -115200 -89600 0
v -115200 -86400 0
v -112000 -86400 0
v -115200 -89600 0
v -118400 -89600 0
v -118400 -86400 0
v -115200 -86400 0
v -118400 -89600 0
v -121600 -89600 0
v -121600 -86400 0
v -118400 -86400 0
v -121600 -89600 0
v -124800 -89600 0
v -124800 -86400 0
v -121600 -86400 0
v -124800 -89600 0
v -128000 -89600 0
v -128000 -86400 0
v -124800 -86400 0
v -70400 -92800 0
v -73600 -92800 0
v -73600 -89600 0
v -70400 -89600 0
v -73600 -92800 0
v -76800 -92800 0
v -76800 -89600 0
v -73600 -89600 0
v -76800 -92800 0
v -80000 -92800 0
v -80000 -89600 0
v -76800 -89600 0
v -80000 -92800 0
v -83200 -92800 0
v -83200 -89600 0
v -80000 -89600 0
v -83200 -92800 0
v -86400 -92800 0
v -86400 -89600 0
v -83200 -89600 0
v -86400 -92800 0
v -89600 -92800 0
v -89600 -89600 0
v -86400 -89600 0
v -89600 -92800 0
v -92800 -92800 0
v -92800 -89600 0
v -89600 -89600 0
v -92800 -92800 0
v -96000 -92800 0
v -96000 -89600 0
v -92800 -89600 0
v -96000 -92800 0
v -99200 -92800 0
v -99200 -89600 0
v -96000 -89600 0
v -99200 -92800 0
v -102400 -92800 0
v -102400 -89600 0
v -99200 -89600 0
v -102400 -92800 0
v -105600 -92800 0
v -105600 -89600 0
v -102400 -89600 0
v -105600 -92800 0
v -108800 -92800 0
v -108800 -89600 0
v -105600 -89600 0
v -108800 -92800 0
v -112000 -92800 0
v -112000 -89600 0
v -108800 -89600 0
v -112000 -92800 0
v -115200 -92800 0
v -115200 -89600 0
v -112000 -89600 0
v -76800 -96000 0
v -80000 -96000 0
v -80000 -92800 0
v -76800 -92800 0
v -80000 -96000 0
v -83200 -96000 0
v -83200 -92800 0
v -80000 -92800 0
v -83200 -96000 0
v -86400 -96000 0
v -86400 -92800 0
v -83200 -92800 0
v -86400 -96000 0
v -89600 -96000 0
v -89600 -92800 0
v -86400 -92800 0
v -89600 -96000 0
v -92800 -96000 0
v -92800 -92800 0
v -89600 -92800 0
v -92800 -96000 0
v -96000 -96000 0
v -96000 -92800 0
v -92800 -92800 0
v -96000 -96000 0
v -99200 -96000 0
v -99200 -92800 0
v -96000 -92800 0
v -99200 -96000 0
v -102400 -96000 0
v -102400 -92800 0
v -99200 -92800 0
v -102400 -96000 0
v -105600 -96000 0
v -105600 -92800 0
v -102400 -92800 0

# Texture cooridinates (Count = 22)
vt 0.46875 0.90625
vt 0.5 0.90625
vt 0.5 0.9375
vt 0.46875 0.9375
vt 0.53125 0.90625
vt 0.53125 0.9375
vt 0.5625 0.90625
vt 0.5625 0.9375
vt 0.5625 0.96875
vt 0.53125 0.96875
vt 0.5 0.875
vt 0.53125 0.875
vt 0.5 0.96875
vt 0.53125 1
vt 0.5 1
vt 0.5 0.84375
vt 0.53125 0.84375
vt 0.5625 1
vt 0.5625 0.84375
vt 0.5625 0.875
vt 0.46875 0.84375
vt 0.46875 0.875

# Normal
vn 0 0 -1

# Mesh description
g Forest_mesh_0002

# Faces
f 1/1/1 2/2/1 3/3/1 4/4/1
f 5/2/1 6/5/1 7/6/1 8/3/1
f 9/2/1 10/5/1 11/6/1 12/3/1
f 13/2/1 14/5/1 15/6/1 16/3/1
f 17/2/1 18/5/1 19/6/1 20/3/1
f 21/2/1 22/5/1 23/6/1 24/3/1
f 25/2/1 26/5/1 27/6/1 28/3/1
f 29/2/1 30/5/1 31/6/1 32/3/1
f 33/2/1 34/5/1 35/6/1 36/3/1
f 37/2/1 38/5/1 39/6/1 40/3/1
f 41/5/1 42/7/1 43/8/1 44/6/1
f 45/1/1 46/2/1 47/3/1 48/4/1
f 49/2/1 50/5/1 51/6/1 52/3/1
f 53/6/1 54/8/1 55/9/1 56/10/1
f 57/11/1 58/12/1 59/5/1 60/2/1
f 61/11/1 62/12/1 63/5/1 64/2/1
f 65/11/1 66/12/1 67/5/1 68/2/1
f 69/11/1 70/12/1 71/5/1 72/2/1
f 73/11/1 74/12/1 75/5/1 76/2/1
f 77/11/1 78/12/1 79/5/1 80/2/1
f 81/11/1 82/12/1 83/5/1 84/2/1
f 85/11/1 86/12/1 87/5/1 88/2/1
f 89/11/1 90/12/1 91/5/1 92/2/1
f 93/3/1 94/6/1 95/10/1 96/13/1
f 97/2/1 98/5/1 99/6/1 100/3/1
f 101/5/1 102/7/1 103/8/1 104/6/1
f 105/1/1 106/2/1 107/3/1 108/4/1
f 109/2/1 110/5/1 111/6/1 112/3/1
f 113/2/1 114/5/1 115/6/1 116/3/1
f 117/6/1 118/8/1 119/9/1 120/10/1
f 121/11/1 122/12/1 123/5/1 124/2/1
f 125/11/1 126/12/1 127/5/1 128/2/1
f 129/11/1 130/12/1 131/5/1 132/2/1
f 133/13/1 134/10/1 135/14/1 136/15/1
f 137/16/1 138/17/1 139/12/1 140/11/1
f 141/16/1 142/17/1 143/12/1 144/11/1
f 145/16/1 146/17/1 147/12/1 148/11/1
f 149/16/1 150/17/1 151/12/1 152/11/1
f 153/16/1 154/17/1 155/12/1 156/11/1
f 157/10/1 158/9/1 159/18/1 160/14/1
f 161/11/1 162/12/1 163/5/1 164/2/1
f 165/11/1 166/12/1 167/5/1 168/2/1
f 169/11/1 170/12/1 171/5/1 172/2/1
f 173/3/1 174/6/1 175/10/1 176/13/1
f 177/2/1 178/5/1 179/6/1 180/3/1
f 181/5/1 182/7/1 183/8/1 184/6/1
f 185/2/1 186/5/1 187/6/1 188/3/1
f 189/2/1 190/5/1 191/6/1 192/3/1
f 193/6/1 194/8/1 195/9/1 196/10/1
f 197/11/1 198/12/1 199/5/1 200/2/1
f 201/11/1 202/12/1 203/5/1 204/2/1
f 205/11/1 206/12/1 207/5/1 208/2/1
f 209/11/1 210/12/1 211/5/1 212/2/1
f 213/13/1 214/10/1 215/14/1 216/15/1
f 217/16/1 218/17/1 219/12/1 220/11/1
f 221/17/1 222/19/1 223/20/1 224/12/1
f 225/21/1 226/16/1 227/11/1 228/22/1
f 229/16/1 230/17/1 231/12/1 232/11/1
f 233/10/1 234/9/1 235/18/1 236/14/1
f 237/11/1 238/12/1 239/5/1 240/2/1
f 241/11/1 242/12/1 243/5/1 244/2/1
f 245/11/1 246/12/1 247/5/1 248/2/1
f 249/3/1 250/6/1 251/10/1 252/13/1
f 253/2/1 254/5/1 255/6/1 256/3/1
f 257/2/1 258/5/1 259/6/1 260/3/1
f 261/5/1 262/7/1 263/8/1 264/6/1
f 265/1/1 266/2/1 267/3/1 268/4/1
f 269/2/1 270/5/1 271/6/1 272/3/1
f 273/2/1 274/5/1 275/6/1 276/3/1
f 277/2/1 278/5/1 279/6/1 280/3/1
f 281/2/1 282/5/1 283/6/1 284/3/1
f 285/2/1 286/5/1 287/6/1 288/3/1
f 289/2/1 290/5/1 291/6/1 292/3/1
f 293/11/1 294/12/1 295/5/1 296/2/1
f 297/11/1 298/12/1 299/5/1 300/2/1
f 301/11/1 302/12/1 303/5/1 304/2/1
f 305/11/1 306/12/1 307/5/1 308/2/1
f 309/13/1 310/10/1 311/14/1 312/15/1
f 313/16/1 314/17/1 315/12/1 316/11/1
f 317/16/1 318/17/1 319/12/1 320/11/1
f 321/17/1 322/19/1 323/20/1 324/12/1
f 325/21/1 326/16/1 327/11/1 328/22/1
f 329/16/1 330/17/1 331/12/1 332/11/1
f 333/10/1 334/9/1 335/18/1 336/14/1
f 337/11/1 338/12/1 339/5/1 340/2/1
f 341/11/1 342/12/1 343/5/1 344/2/1
f 345/11/1 346/12/1 347/5/1 348/2/1
f 349/11/1 350/12/1 351/5/1 352/2/1
f 353/3/1 354/6/1 355/10/1 356/13/1
f 357/2/1 358/5/1 359/6/1 360/3/1
f 361/5/1 362/7/1 363/8/1 364/6/1
f 365/1/1 366/2/1 367/3/1 368/4/1
f 369/2/1 370/5/1 371/6/1 372/3/1
f 373/2/1 374/5/1 375/6/1 376/3/1
f 377/6/1 378/8/1 379/9/1 380/10/1
f 381/11/1 382/12/1 383/5/1 384/2/1
f 385/11/1 386/12/1 387/5/1 388/2/1
f 389/11/1 390/12/1 391/5/1 392/2/1
f 393/11/1 394/12/1 395/5/1 396/2/1
f 397/11/1 398/12/1 399/5/1 400/2/1
f 401/11/1 402/12/1 403/5/1 404/2/1
f 405/16/1 406/17/1 407/12/1 408/11/1
f 409/16/1 410/17/1 411/12/1 412/11/1
f 413/16/1 414/17/1 415/12/1 416/11/1
f 417/16/1 418/17/1 419/12/1 420/11/1
f 421/17/1 422/19/1 423/20/1 424/12/1
f 425/21/1 426/16/1 427/11/1 428/22/1
f 429/16/1 430/17/1 431/12/1 432/11/1
f 433/16/1 434/17/1 435/12/1 436/11/1
f 437/10/1 438/9/1 439/18/1 440/14/1
f 441/11/1 442/12/1 443/5/1 444/2/1
f 445/11/1 446/12/1 447/5/1 448/2/1
f 449/11/1 450/12/1 451/5/1 452/2/1
f 453/3/1 454/6/1 455/10/1 456/13/1
f 457/2/1 458/5/1 459/6/1 460/3/1
f 461/2/1 462/5/1 463/6/1 464/3/1
f 465/2/1 466/5/1 467/6/1 468/3/1
f 469/6/1 470/8/1 471/9/1 472/10/1
f 473/11/1 474/12/1 475/5/1 476/2/1
f 477/11/1 478/12/1 479/5/1 480/2/1
f 481/11/1 482/12/1 483/5/1 484/2/1
f 485/11/1 486/12/1 487/5/1 488/2/1
f 489/13/1 490/10/1 491/14/1 492/15/1
f 493/16/1 494/17/1 495/12/1 496/11/1
f 497/16/1 498/17/1 499/12/1 500/11/1
f 501/16/1 502/17/1 503/12/1 504/11/1
f 505/16/1 506/17/1 507/12/1 508/11/1
f 509/21/1 510/16/1 511/11/1 512/22/1
f 513/16/1 514/17/1 515/12/1 516/11/1
f 517/10/1 518/9/1 519/18/1 520/14/1
f 521/11/1 522/12/1 523/5/1 524/2/1
f 525/11/1 526/12/1 527/5/1 528/2/1
f 529/11/1 530/12/1 531/5/1 532/2/1
f 533/11/1 534/12/1 535/5/1 536/2/1
f 537/11/1 538/12/1 539/5/1 540/2/1
f 541/11/1 542/12/1 543/5/1 544/2/1
f 545/11/1 546/12/1 547/5/1 548/2/1
f 549/13/1 550/10/1 551/14/1 552/15/1
f 553/16/1 554/17/1 555/12/1 556/11/1
f 557/16/1 558/17/1 559/12/1 560/11/1
f 561/17/1 562/19/1 563/20/1 564/12/1
f 565/21/1 566/16/1 567/11/1 568/22/1
f 569/16/1 570/17/1 571/12/1 572/11/1
f 573/16/1 574/17/1 575/12/1 576/11/1
f 577/16/1 578/17/1 579/12/1 580/11/1
f 581/16/1 582/17/1 583/12/1 584/11/1
f 585/16/1 586/17/1 587/12/1 588/11/1
f 589/16/1 590/17/1 591/12/1 592/11/1
f 593/16/1 594/17/1 595/12/1 596/11/1
f 597/17/1 598/19/1 599/20/1 600/12/1

