# Tiled2Unity generated file. Do not modify by hand.
# Wavefront file for 'Forest_mesh_0003.obj'

# Vertices (Count = 52)
v -32000 -9600 0
v -35200 -9600 0
v -35200 -6400 0
v -32000 -6400 0
v -32000 -16000 0
v -35200 -16000 0
v -35200 -12800 0
v -32000 -12800 0
v -32000 -19200 0
v -35200 -19200 0
v -35200 -16000 0
v -32000 -16000 0
v -41600 -32000 0
v -44800 -32000 0
v -44800 -28800 0
v -41600 -28800 0
v -6400 -38400 0
v -9600 -38400 0
v -9600 -35200 0
v -6400 -35200 0
v -99200 -54400 0
v -102400 -54400 0
v -102400 -51200 0
v -99200 -51200 0
v -22400 -73600 0
v -25600 -73600 0
v -25600 -70400 0
v -22400 -70400 0
v -44800 -83200 0
v -48000 -83200 0
v -48000 -80000 0
v -44800 -80000 0
v -108800 -83200 0
v -112000 -83200 0
v -112000 -80000 0
v -108800 -80000 0
v -76800 -92800 0
v -80000 -92800 0
v -80000 -89600 0
v -76800 -89600 0
v -22400 -105600 0
v -25600 -105600 0
v -25600 -102400 0
v -22400 -102400 0
v -102400 -118400 0
v -105600 -118400 0
v -105600 -115200 0
v -102400 -115200 0
v -115200 -144000 0
v -118400 -144000 0
v -118400 -140800 0
v -115200 -140800 0

# Texture cooridinates (Count = 22)
vt 0.90625 0.1875
vt 0.9375 0.1875
vt 0.9375 0.21875
vt 0.90625 0.21875
vt 0.53125 0.59375
vt 0.5625 0.59375
vt 0.5625 0.625
vt 0.53125 0.625
vt 0.53125 0.5625
vt 0.5625 0.5625
vt 0.4375 0.21875
vt 0.46875 0.21875
vt 0.46875 0.25
vt 0.4375 0.25
vt 0.875 0.1875
vt 0.875 0.21875
vt 0.84375 0.1875
vt 0.84375 0.21875
vt 0.8125 0
vt 0.84375 0
vt 0.84375 0.03125
vt 0.8125 0.03125

# Normal
vn 0 0 -1

# Mesh description
g Forest_mesh_0003

# Faces
f 1/1/1 2/2/1 3/3/1 4/4/1
f 5/5/1 6/6/1 7/7/1 8/8/1
f 9/9/1 10/10/1 11/6/1 12/5/1
f 13/11/1 14/12/1 15/13/1 16/14/1
f 17/1/1 18/2/1 19/3/1 20/4/1
f 21/11/1 22/12/1 23/13/1 24/14/1
f 25/15/1 26/1/1 27/4/1 28/16/1
f 29/17/1 30/15/1 31/16/1 32/18/1
f 33/1/1 34/2/1 35/3/1 36/4/1
f 37/17/1 38/15/1 39/16/1 40/18/1
f 41/11/1 42/12/1 43/13/1 44/14/1
f 45/11/1 46/12/1 47/13/1 48/14/1
f 49/19/1 50/20/1 51/21/1 52/22/1

