# Tiled2Unity generated file. Do not modify by hand.
# Wavefront file for 'Forest_mesh_0008.obj'

# Vertices (Count = 412)
v 0 -3200 0
v -3200 -3200 0
v -3200 0 0
v 0 0 0
v -3200 -3200 0
v -6400 -3200 0
v -6400 0 0
v -3200 0 0
v -6400 -3200 0
v -9600 -3200 0
v -9600 0 0
v -6400 0 0
v -9600 -3200 0
v -12800 -3200 0
v -12800 0 0
v -9600 0 0
v -12800 -3200 0
v -16000 -3200 0
v -16000 0 0
v -12800 0 0
v -16000 -3200 0
v -19200 -3200 0
v -19200 0 0
v -16000 0 0
v -19200 -3200 0
v -22400 -3200 0
v -22400 0 0
v -19200 0 0
v -22400 -3200 0
v -25600 -3200 0
v -25600 0 0
v -22400 0 0
v -25600 -3200 0
v -28800 -3200 0
v -28800 0 0
v -25600 0 0
v -28800 -3200 0
v -32000 -3200 0
v -32000 0 0
v -28800 0 0
v -32000 -3200 0
v -35200 -3200 0
v -35200 0 0
v -32000 0 0
v 0 -6400 0
v -3200 -6400 0
v -3200 -3200 0
v 0 -3200 0
v -3200 -6400 0
v -6400 -6400 0
v -6400 -3200 0
v -3200 -3200 0
v -6400 -6400 0
v -9600 -6400 0
v -9600 -3200 0
v -6400 -3200 0
v -9600 -6400 0
v -12800 -6400 0
v -12800 -3200 0
v -9600 -3200 0
v -12800 -6400 0
v -16000 -6400 0
v -16000 -3200 0
v -12800 -3200 0
v -16000 -6400 0
v -19200 -6400 0
v -19200 -3200 0
v -16000 -3200 0
v -19200 -6400 0
v -22400 -6400 0
v -22400 -3200 0
v -19200 -3200 0
v -22400 -6400 0
v -25600 -6400 0
v -25600 -3200 0
v -22400 -3200 0
v -25600 -6400 0
v -28800 -6400 0
v -28800 -3200 0
v -25600 -3200 0
v -28800 -6400 0
v -32000 -6400 0
v -32000 -3200 0
v -28800 -3200 0
v -32000 -6400 0
v -35200 -6400 0
v -35200 -3200 0
v -32000 -3200 0
v 0 -9600 0
v -3200 -9600 0
v -3200 -6400 0
v 0 -6400 0
v -3200 -9600 0
v -6400 -9600 0
v -6400 -6400 0
v -3200 -6400 0
v -6400 -9600 0
v -9600 -9600 0
v -9600 -6400 0
v -6400 -6400 0
v -9600 -9600 0
v -12800 -9600 0
v -12800 -6400 0
v -9600 -6400 0
v -12800 -9600 0
v -16000 -9600 0
v -16000 -6400 0
v -12800 -6400 0
v -16000 -9600 0
v -19200 -9600 0
v -19200 -6400 0
v -16000 -6400 0
v -19200 -9600 0
v -22400 -9600 0
v -22400 -6400 0
v -19200 -6400 0
v -22400 -9600 0
v -25600 -9600 0
v -25600 -6400 0
v -22400 -6400 0
v -25600 -9600 0
v -28800 -9600 0
v -28800 -6400 0
v -25600 -6400 0
v -28800 -9600 0
v -32000 -9600 0
v -32000 -6400 0
v -28800 -6400 0
v 0 -12800 0
v -3200 -12800 0
v -3200 -9600 0
v 0 -9600 0
v -3200 -12800 0
v -6400 -12800 0
v -6400 -9600 0
v -3200 -9600 0
v -6400 -12800 0
v -9600 -12800 0
v -9600 -9600 0
v -6400 -9600 0
v -9600 -12800 0
v -12800 -12800 0
v -12800 -9600 0
v -9600 -9600 0
v -12800 -12800 0
v -16000 -12800 0
v -16000 -9600 0
v -12800 -9600 0
v -16000 -12800 0
v -19200 -12800 0
v -19200 -9600 0
v -16000 -9600 0
v -19200 -12800 0
v -22400 -12800 0
v -22400 -9600 0
v -19200 -9600 0
v -22400 -12800 0
v -25600 -12800 0
v -25600 -9600 0
v -22400 -9600 0
v 0 -16000 0
v -3200 -16000 0
v -3200 -12800 0
v 0 -12800 0
v -3200 -16000 0
v -6400 -16000 0
v -6400 -12800 0
v -3200 -12800 0
v -6400 -16000 0
v -9600 -16000 0
v -9600 -12800 0
v -6400 -12800 0
v -9600 -16000 0
v -12800 -16000 0
v -12800 -12800 0
v -9600 -12800 0
v -12800 -16000 0
v -16000 -16000 0
v -16000 -12800 0
v -12800 -12800 0
v -16000 -16000 0
v -19200 -16000 0
v -19200 -12800 0
v -16000 -12800 0
v -19200 -16000 0
v -22400 -16000 0
v -22400 -12800 0
v -19200 -12800 0
v -22400 -16000 0
v -25600 -16000 0
v -25600 -12800 0
v -22400 -12800 0
v 0 -19200 0
v -3200 -19200 0
v -3200 -16000 0
v 0 -16000 0
v -3200 -19200 0
v -6400 -19200 0
v -6400 -16000 0
v -3200 -16000 0
v -6400 -19200 0
v -9600 -19200 0
v -9600 -16000 0
v -6400 -16000 0
v -9600 -19200 0
v -12800 -19200 0
v -12800 -16000 0
v -9600 -16000 0
v -12800 -19200 0
v -16000 -19200 0
v -16000 -16000 0
v -12800 -16000 0
v -16000 -19200 0
v -19200 -19200 0
v -19200 -16000 0
v -16000 -16000 0
v -19200 -19200 0
v -22400 -19200 0
v -22400 -16000 0
v -19200 -16000 0
v -22400 -19200 0
v -25600 -19200 0
v -25600 -16000 0
v -22400 -16000 0
v -25600 -19200 0
v -28800 -19200 0
v -28800 -16000 0
v -25600 -16000 0
v 0 -22400 0
v -3200 -22400 0
v -3200 -19200 0
v 0 -19200 0
v -3200 -22400 0
v -6400 -22400 0
v -6400 -19200 0
v -3200 -19200 0
v -6400 -22400 0
v -9600 -22400 0
v -9600 -19200 0
v -6400 -19200 0
v -9600 -22400 0
v -12800 -22400 0
v -12800 -19200 0
v -9600 -19200 0
v -12800 -22400 0
v -16000 -22400 0
v -16000 -19200 0
v -12800 -19200 0
v -16000 -22400 0
v -19200 -22400 0
v -19200 -19200 0
v -16000 -19200 0
v -19200 -22400 0
v -22400 -22400 0
v -22400 -19200 0
v -19200 -19200 0
v -22400 -22400 0
v -25600 -22400 0
v -25600 -19200 0
v -22400 -19200 0
v -25600 -22400 0
v -28800 -22400 0
v -28800 -19200 0
v -25600 -19200 0
v 0 -25600 0
v -3200 -25600 0
v -3200 -22400 0
v 0 -22400 0
v -3200 -25600 0
v -6400 -25600 0
v -6400 -22400 0
v -3200 -22400 0
v -6400 -25600 0
v -9600 -25600 0
v -9600 -22400 0
v -6400 -22400 0
v -9600 -25600 0
v -12800 -25600 0
v -12800 -22400 0
v -9600 -22400 0
v -12800 -25600 0
v -16000 -25600 0
v -16000 -22400 0
v -12800 -22400 0
v -16000 -25600 0
v -19200 -25600 0
v -19200 -22400 0
v -16000 -22400 0
v -19200 -25600 0
v -22400 -25600 0
v -22400 -22400 0
v -19200 -22400 0
v -22400 -25600 0
v -25600 -25600 0
v -25600 -22400 0
v -22400 -22400 0
v -25600 -25600 0
v -28800 -25600 0
v -28800 -22400 0
v -25600 -22400 0
v 0 -28800 0
v -3200 -28800 0
v -3200 -25600 0
v 0 -25600 0
v -3200 -28800 0
v -6400 -28800 0
v -6400 -25600 0
v -3200 -25600 0
v -6400 -28800 0
v -9600 -28800 0
v -9600 -25600 0
v -6400 -25600 0
v -9600 -28800 0
v -12800 -28800 0
v -12800 -25600 0
v -9600 -25600 0
v -12800 -28800 0
v -16000 -28800 0
v -16000 -25600 0
v -12800 -25600 0
v -16000 -28800 0
v -19200 -28800 0
v -19200 -25600 0
v -16000 -25600 0
v -19200 -28800 0
v -22400 -28800 0
v -22400 -25600 0
v -19200 -25600 0
v -22400 -28800 0
v -25600 -28800 0
v -25600 -25600 0
v -22400 -25600 0
v -25600 -28800 0
v -28800 -28800 0
v -28800 -25600 0
v -25600 -25600 0
v 0 -32000 0
v -3200 -32000 0
v -3200 -28800 0
v 0 -28800 0
v -3200 -32000 0
v -6400 -32000 0
v -6400 -28800 0
v -3200 -28800 0
v -6400 -32000 0
v -9600 -32000 0
v -9600 -28800 0
v -6400 -28800 0
v -9600 -32000 0
v -12800 -32000 0
v -12800 -28800 0
v -9600 -28800 0
v -12800 -32000 0
v -16000 -32000 0
v -16000 -28800 0
v -12800 -28800 0
v -16000 -32000 0
v -19200 -32000 0
v -19200 -28800 0
v -16000 -28800 0
v -19200 -32000 0
v -22400 -32000 0
v -22400 -28800 0
v -19200 -28800 0
v -22400 -32000 0
v -25600 -32000 0
v -25600 -28800 0
v -22400 -28800 0
v -3200 -35200 0
v -6400 -35200 0
v -6400 -32000 0
v -3200 -32000 0
v -6400 -35200 0
v -9600 -35200 0
v -9600 -32000 0
v -6400 -32000 0
v -9600 -35200 0
v -12800 -35200 0
v -12800 -32000 0
v -9600 -32000 0
v -12800 -35200 0
v -16000 -35200 0
v -16000 -32000 0
v -12800 -32000 0
v -16000 -35200 0
v -19200 -35200 0
v -19200 -32000 0
v -16000 -32000 0
v -19200 -35200 0
v -22400 -35200 0
v -22400 -32000 0
v -19200 -32000 0
v -22400 -35200 0
v -25600 -35200 0
v -25600 -32000 0
v -22400 -32000 0
v -9600 -38400 0
v -12800 -38400 0
v -12800 -35200 0
v -9600 -35200 0
v -12800 -38400 0
v -16000 -38400 0
v -16000 -35200 0
v -12800 -35200 0
v -16000 -38400 0
v -19200 -38400 0
v -19200 -35200 0
v -16000 -35200 0
v -19200 -38400 0
v -22400 -38400 0
v -22400 -35200 0
v -19200 -35200 0

# Texture cooridinates (Count = 20)
vt 0.21875 0.59375
vt 0.25 0.59375
vt 0.25 0.625
vt 0.21875 0.625
vt 0.28125 0.59375
vt 0.28125 0.625
vt 0.21875 0.6875
vt 0.25 0.6875
vt 0.25 0.71875
vt 0.21875 0.71875
vt 0.25 0.5625
vt 0.28125 0.5625
vt 0.21875 0.5625
vt 0.21875 0.65625
vt 0.25 0.65625
vt 0.28125 0.65625
vt 0.28125 0.6875
vt 0.28125 0.71875
vt 0.1875 0.5625
vt 0.1875 0.59375

# Normal
vn 0 0 -1

# Mesh description
g Forest_mesh_0008

# Faces
f 1/1/1 2/2/1 3/3/1 4/4/1
f 5/1/1 6/2/1 7/3/1 8/4/1
f 9/1/1 10/2/1 11/3/1 12/4/1
f 13/1/1 14/2/1 15/3/1 16/4/1
f 17/1/1 18/2/1 19/3/1 20/4/1
f 21/1/1 22/2/1 23/3/1 24/4/1
f 25/1/1 26/2/1 27/3/1 28/4/1
f 29/1/1 30/2/1 31/3/1 32/4/1
f 33/1/1 34/2/1 35/3/1 36/4/1
f 37/1/1 38/2/1 39/3/1 40/4/1
f 41/2/1 42/5/1 43/6/1 44/3/1
f 45/1/1 46/2/1 47/3/1 48/4/1
f 49/1/1 50/2/1 51/3/1 52/4/1
f 53/1/1 54/2/1 55/3/1 56/4/1
f 57/1/1 58/2/1 59/3/1 60/4/1
f 61/1/1 62/2/1 63/3/1 64/4/1
f 65/1/1 66/2/1 67/3/1 68/4/1
f 69/1/1 70/2/1 71/3/1 72/4/1
f 73/1/1 74/2/1 75/3/1 76/4/1
f 77/1/1 78/2/1 79/3/1 80/4/1
f 81/7/1 82/8/1 83/9/1 84/10/1
f 85/11/1 86/12/1 87/5/1 88/2/1
f 89/1/1 90/2/1 91/3/1 92/4/1
f 93/1/1 94/2/1 95/3/1 96/4/1
f 97/1/1 98/2/1 99/3/1 100/4/1
f 101/1/1 102/2/1 103/3/1 104/4/1
f 105/1/1 106/2/1 107/3/1 108/4/1
f 109/1/1 110/2/1 111/3/1 112/4/1
f 113/1/1 114/2/1 115/3/1 116/4/1
f 117/7/1 118/8/1 119/9/1 120/10/1
f 121/13/1 122/11/1 123/2/1 124/1/1
f 125/11/1 126/12/1 127/5/1 128/2/1
f 129/1/1 130/2/1 131/3/1 132/4/1
f 133/1/1 134/2/1 135/3/1 136/4/1
f 137/1/1 138/2/1 139/3/1 140/4/1
f 141/1/1 142/2/1 143/3/1 144/4/1
f 145/1/1 146/2/1 147/3/1 148/4/1
f 149/1/1 150/2/1 151/3/1 152/4/1
f 153/7/1 154/8/1 155/9/1 156/10/1
f 157/11/1 158/12/1 159/5/1 160/2/1
f 161/1/1 162/2/1 163/3/1 164/4/1
f 165/1/1 166/2/1 167/3/1 168/4/1
f 169/1/1 170/2/1 171/3/1 172/4/1
f 173/1/1 174/2/1 175/3/1 176/4/1
f 177/1/1 178/2/1 179/3/1 180/4/1
f 181/1/1 182/2/1 183/3/1 184/4/1
f 185/14/1 186/15/1 187/8/1 188/7/1
f 189/3/1 190/6/1 191/16/1 192/15/1
f 193/1/1 194/2/1 195/3/1 196/4/1
f 197/1/1 198/2/1 199/3/1 200/4/1
f 201/1/1 202/2/1 203/3/1 204/4/1
f 205/1/1 206/2/1 207/3/1 208/4/1
f 209/1/1 210/2/1 211/3/1 212/4/1
f 213/1/1 214/2/1 215/3/1 216/4/1
f 217/1/1 218/2/1 219/3/1 220/4/1
f 221/14/1 222/15/1 223/8/1 224/7/1
f 225/3/1 226/6/1 227/16/1 228/15/1
f 229/1/1 230/2/1 231/3/1 232/4/1
f 233/1/1 234/2/1 235/3/1 236/4/1
f 237/1/1 238/2/1 239/3/1 240/4/1
f 241/1/1 242/2/1 243/3/1 244/4/1
f 245/1/1 246/2/1 247/3/1 248/4/1
f 249/1/1 250/2/1 251/3/1 252/4/1
f 253/1/1 254/2/1 255/3/1 256/4/1
f 257/1/1 258/2/1 259/3/1 260/4/1
f 261/2/1 262/5/1 263/6/1 264/3/1
f 265/1/1 266/2/1 267/3/1 268/4/1
f 269/1/1 270/2/1 271/3/1 272/4/1
f 273/1/1 274/2/1 275/3/1 276/4/1
f 277/1/1 278/2/1 279/3/1 280/4/1
f 281/1/1 282/2/1 283/3/1 284/4/1
f 285/1/1 286/2/1 287/3/1 288/4/1
f 289/1/1 290/2/1 291/3/1 292/4/1
f 293/1/1 294/2/1 295/3/1 296/4/1
f 297/2/1 298/5/1 299/6/1 300/3/1
f 301/8/1 302/17/1 303/18/1 304/9/1
f 305/1/1 306/2/1 307/3/1 308/4/1
f 309/1/1 310/2/1 311/3/1 312/4/1
f 313/1/1 314/2/1 315/3/1 316/4/1
f 317/1/1 318/2/1 319/3/1 320/4/1
f 321/1/1 322/2/1 323/3/1 324/4/1
f 325/1/1 326/2/1 327/3/1 328/4/1
f 329/7/1 330/8/1 331/9/1 332/10/1
f 333/11/1 334/12/1 335/5/1 336/2/1
f 337/19/1 338/13/1 339/1/1 340/20/1
f 341/8/1 342/17/1 343/18/1 344/9/1
f 345/1/1 346/2/1 347/3/1 348/4/1
f 349/1/1 350/2/1 351/3/1 352/4/1
f 353/1/1 354/2/1 355/3/1 356/4/1
f 357/1/1 358/2/1 359/3/1 360/4/1
f 361/1/1 362/2/1 363/3/1 364/4/1
f 365/2/1 366/5/1 367/6/1 368/3/1
f 369/19/1 370/13/1 371/1/1 372/20/1
f 373/13/1 374/11/1 375/2/1 376/1/1
f 377/8/1 378/17/1 379/18/1 380/9/1
f 381/1/1 382/2/1 383/3/1 384/4/1
f 385/1/1 386/2/1 387/3/1 388/4/1
f 389/7/1 390/8/1 391/9/1 392/10/1
f 393/11/1 394/12/1 395/5/1 396/2/1
f 397/19/1 398/13/1 399/1/1 400/20/1
f 401/13/1 402/11/1 403/2/1 404/1/1
f 405/13/1 406/11/1 407/2/1 408/1/1
f 409/11/1 410/12/1 411/5/1 412/2/1

