# Tiled2Unity generated file. Do not modify by hand.
# Wavefront file for 'CoinCollecteMap2_mesh_0008.obj'

# Vertices (Count = 144)
v -105600 -32000 0
v -108800 -32000 0
v -108800 -28800 0
v -105600 -28800 0
v -108800 -32000 0
v -112000 -32000 0
v -112000 -28800 0
v -108800 -28800 0
v -112000 -32000 0
v -115200 -32000 0
v -115200 -28800 0
v -112000 -28800 0
v -115200 -32000 0
v -118400 -32000 0
v -118400 -28800 0
v -115200 -28800 0
v -118400 -32000 0
v -121600 -32000 0
v -121600 -28800 0
v -118400 -28800 0
v -121600 -32000 0
v -124800 -32000 0
v -124800 -28800 0
v -121600 -28800 0
v -19200 -35200 0
v -22400 -35200 0
v -22400 -32000 0
v -19200 -32000 0
v -22400 -35200 0
v -25600 -35200 0
v -25600 -32000 0
v -22400 -32000 0
v -25600 -35200 0
v -28800 -35200 0
v -28800 -32000 0
v -25600 -32000 0
v -28800 -35200 0
v -32000 -35200 0
v -32000 -32000 0
v -28800 -32000 0
v -32000 -35200 0
v -35200 -35200 0
v -35200 -32000 0
v -32000 -32000 0
v -35200 -35200 0
v -38400 -35200 0
v -38400 -32000 0
v -35200 -32000 0
v -105600 -35200 0
v -108800 -35200 0
v -108800 -32000 0
v -105600 -32000 0
v -108800 -35200 0
v -112000 -35200 0
v -112000 -32000 0
v -108800 -32000 0
v -112000 -35200 0
v -115200 -35200 0
v -115200 -32000 0
v -112000 -32000 0
v -115200 -35200 0
v -118400 -35200 0
v -118400 -32000 0
v -115200 -32000 0
v -118400 -35200 0
v -121600 -35200 0
v -121600 -32000 0
v -118400 -32000 0
v -121600 -35200 0
v -124800 -35200 0
v -124800 -32000 0
v -121600 -32000 0
v -19200 -38400 0
v -22400 -38400 0
v -22400 -35200 0
v -19200 -35200 0
v -22400 -38400 0
v -25600 -38400 0
v -25600 -35200 0
v -22400 -35200 0
v -25600 -38400 0
v -28800 -38400 0
v -28800 -35200 0
v -25600 -35200 0
v -28800 -38400 0
v -32000 -38400 0
v -32000 -35200 0
v -28800 -35200 0
v -32000 -38400 0
v -35200 -38400 0
v -35200 -35200 0
v -32000 -35200 0
v -35200 -38400 0
v -38400 -38400 0
v -38400 -35200 0
v -35200 -35200 0
v -105600 -38400 0
v -108800 -38400 0
v -108800 -35200 0
v -105600 -35200 0
v -108800 -38400 0
v -112000 -38400 0
v -112000 -35200 0
v -108800 -35200 0
v -112000 -38400 0
v -115200 -38400 0
v -115200 -35200 0
v -112000 -35200 0
v -115200 -38400 0
v -118400 -38400 0
v -118400 -35200 0
v -115200 -35200 0
v -118400 -38400 0
v -121600 -38400 0
v -121600 -35200 0
v -118400 -35200 0
v -121600 -38400 0
v -124800 -38400 0
v -124800 -35200 0
v -121600 -35200 0
v -19200 -41600 0
v -22400 -41600 0
v -22400 -38400 0
v -19200 -38400 0
v -22400 -41600 0
v -25600 -41600 0
v -25600 -38400 0
v -22400 -38400 0
v -25600 -41600 0
v -28800 -41600 0
v -28800 -38400 0
v -25600 -38400 0
v -28800 -41600 0
v -32000 -41600 0
v -32000 -38400 0
v -28800 -38400 0
v -32000 -41600 0
v -35200 -41600 0
v -35200 -38400 0
v -32000 -38400 0
v -35200 -41600 0
v -38400 -41600 0
v -38400 -38400 0
v -35200 -38400 0

# Texture cooridinates (Count = 16)
vt 0.5 0.6666666
vt 0.6666667 0.6666666
vt 0.6666667 1
vt 0.5 1
vt 0.8333333 0.6666666
vt 0.8333333 1
vt 1 0.6666666
vt 1 1
vt 0.5 0.3333333
vt 0.6666667 0.3333333
vt 0.8333333 0.3333333
vt 1 0.3333333
vt 0.5 0
vt 0.6666667 0
vt 0.8333333 0
vt 1 0

# Normal
vn 0 0 -1

# Mesh description
g CoinCollecteMap2_mesh_0008

# Faces
f 1/1/1 2/2/1 3/3/1 4/4/1
f 5/2/1 6/5/1 7/6/1 8/3/1
f 9/5/1 10/7/1 11/8/1 12/6/1
f 13/1/1 14/2/1 15/3/1 16/4/1
f 17/2/1 18/5/1 19/6/1 20/3/1
f 21/5/1 22/7/1 23/8/1 24/6/1
f 25/1/1 26/2/1 27/3/1 28/4/1
f 29/2/1 30/5/1 31/6/1 32/3/1
f 33/5/1 34/7/1 35/8/1 36/6/1
f 37/1/1 38/2/1 39/3/1 40/4/1
f 41/2/1 42/5/1 43/6/1 44/3/1
f 45/5/1 46/7/1 47/8/1 48/6/1
f 49/9/1 50/10/1 51/2/1 52/1/1
f 53/10/1 54/11/1 55/5/1 56/2/1
f 57/11/1 58/12/1 59/7/1 60/5/1
f 61/9/1 62/10/1 63/2/1 64/1/1
f 65/10/1 66/11/1 67/5/1 68/2/1
f 69/11/1 70/12/1 71/7/1 72/5/1
f 73/9/1 74/10/1 75/2/1 76/1/1
f 77/10/1 78/11/1 79/5/1 80/2/1
f 81/11/1 82/12/1 83/7/1 84/5/1
f 85/9/1 86/10/1 87/2/1 88/1/1
f 89/10/1 90/11/1 91/5/1 92/2/1
f 93/11/1 94/12/1 95/7/1 96/5/1
f 97/13/1 98/14/1 99/10/1 100/9/1
f 101/14/1 102/15/1 103/11/1 104/10/1
f 105/15/1 106/16/1 107/12/1 108/11/1
f 109/13/1 110/14/1 111/10/1 112/9/1
f 113/14/1 114/15/1 115/11/1 116/10/1
f 117/15/1 118/16/1 119/12/1 120/11/1
f 121/13/1 122/14/1 123/10/1 124/9/1
f 125/14/1 126/15/1 127/11/1 128/10/1
f 129/15/1 130/16/1 131/12/1 132/11/1
f 133/13/1 134/14/1 135/10/1 136/9/1
f 137/14/1 138/15/1 139/11/1 140/10/1
f 141/15/1 142/16/1 143/12/1 144/11/1

