# Tiled2Unity generated file. Do not modify by hand.
# Wavefront file for 'CoinCollecteMap2_mesh_0042.obj'

# Vertices (Count = 156)
v 0 -233600 0
v -3200 -233600 0
v -3200 -230400 0
v 0 -230400 0
v -3200 -233600 0
v -6400 -233600 0
v -6400 -230400 0
v -3200 -230400 0
v -12800 -233600 0
v -16000 -233600 0
v -16000 -230400 0
v -12800 -230400 0
v -16000 -233600 0
v -19200 -233600 0
v -19200 -230400 0
v -16000 -230400 0
v -19200 -233600 0
v -22400 -233600 0
v -22400 -230400 0
v -19200 -230400 0
v 0 -236800 0
v -3200 -236800 0
v -3200 -233600 0
v 0 -233600 0
v -3200 -236800 0
v -6400 -236800 0
v -6400 -233600 0
v -3200 -233600 0
v -12800 -236800 0
v -16000 -236800 0
v -16000 -233600 0
v -12800 -233600 0
v -16000 -236800 0
v -19200 -236800 0
v -19200 -233600 0
v -16000 -233600 0
v -19200 -236800 0
v -22400 -236800 0
v -22400 -233600 0
v -19200 -233600 0
v 0 -240000 0
v -3200 -240000 0
v -3200 -236800 0
v 0 -236800 0
v -3200 -240000 0
v -6400 -240000 0
v -6400 -236800 0
v -3200 -236800 0
v -12800 -240000 0
v -16000 -240000 0
v -16000 -236800 0
v -12800 -236800 0
v -16000 -240000 0
v -19200 -240000 0
v -19200 -236800 0
v -16000 -236800 0
v -19200 -240000 0
v -22400 -240000 0
v -22400 -236800 0
v -19200 -236800 0
v -128000 -240000 0
v -131200 -240000 0
v -131200 -236800 0
v -128000 -236800 0
v -131200 -240000 0
v -134400 -240000 0
v -134400 -236800 0
v -131200 -236800 0
v -9600 -243200 0
v -12800 -243200 0
v -12800 -240000 0
v -9600 -240000 0
v -12800 -243200 0
v -16000 -243200 0
v -16000 -240000 0
v -12800 -240000 0
v -16000 -243200 0
v -19200 -243200 0
v -19200 -240000 0
v -16000 -240000 0
v -128000 -243200 0
v -131200 -243200 0
v -131200 -240000 0
v -128000 -240000 0
v -131200 -243200 0
v -134400 -243200 0
v -134400 -240000 0
v -131200 -240000 0
v -9600 -246400 0
v -12800 -246400 0
v -12800 -243200 0
v -9600 -243200 0
v -12800 -246400 0
v -16000 -246400 0
v -16000 -243200 0
v -12800 -243200 0
v -16000 -246400 0
v -19200 -246400 0
v -19200 -243200 0
v -16000 -243200 0
v -128000 -246400 0
v -131200 -246400 0
v -131200 -243200 0
v -128000 -243200 0
v -131200 -246400 0
v -134400 -246400 0
v -134400 -243200 0
v -131200 -243200 0
v -9600 -249600 0
v -12800 -249600 0
v -12800 -246400 0
v -9600 -246400 0
v -12800 -249600 0
v -16000 -249600 0
v -16000 -246400 0
v -12800 -246400 0
v -16000 -249600 0
v -19200 -249600 0
v -19200 -246400 0
v -16000 -246400 0
v -118400 -249600 0
v -121600 -249600 0
v -121600 -246400 0
v -118400 -246400 0
v -121600 -249600 0
v -124800 -249600 0
v -124800 -246400 0
v -121600 -246400 0
v -124800 -249600 0
v -128000 -249600 0
v -128000 -246400 0
v -124800 -246400 0
v -118400 -252800 0
v -121600 -252800 0
v -121600 -249600 0
v -118400 -249600 0
v -121600 -252800 0
v -124800 -252800 0
v -124800 -249600 0
v -121600 -249600 0
v -124800 -252800 0
v -128000 -252800 0
v -128000 -249600 0
v -124800 -249600 0
v -118400 -256000 0
v -121600 -256000 0
v -121600 -252800 0
v -118400 -252800 0
v -121600 -256000 0
v -124800 -256000 0
v -124800 -252800 0
v -121600 -252800 0
v -124800 -256000 0
v -128000 -256000 0
v -128000 -252800 0
v -124800 -252800 0

# Texture cooridinates (Count = 28)
vt 0.6666667 0.6666666
vt 0.8333333 0.6666666
vt 0.8333333 1
vt 0.6666667 1
vt 1 0.6666666
vt 1 1
vt 0.5 0.6666666
vt 0.5 1
vt 0.6666667 0.3333333
vt 0.8333333 0.3333333
vt 1 0.3333333
vt 0.5 0.3333333
vt 0.6666667 0
vt 0.8333333 0
vt 1 0
vt 0.5 0
vt 0 0.6666666
vt 0.1666667 0.6666666
vt 0.1666667 1
vt 0 1
vt 0.3333333 0.6666666
vt 0.3333333 1
vt 0 0.3333333
vt 0.1666667 0.3333333
vt 0.3333333 0.3333333
vt 0 0
vt 0.1666667 0
vt 0.3333333 0

# Normal
vn 0 0 -1

# Mesh description
g CoinCollecteMap2_mesh_0042

# Faces
f 1/1/1 2/2/1 3/3/1 4/4/1
f 5/2/1 6/5/1 7/6/1 8/3/1
f 9/7/1 10/1/1 11/4/1 12/8/1
f 13/1/1 14/2/1 15/3/1 16/4/1
f 17/2/1 18/5/1 19/6/1 20/3/1
f 21/9/1 22/10/1 23/2/1 24/1/1
f 25/10/1 26/11/1 27/5/1 28/2/1
f 29/12/1 30/9/1 31/1/1 32/7/1
f 33/9/1 34/10/1 35/2/1 36/1/1
f 37/10/1 38/11/1 39/5/1 40/2/1
f 41/13/1 42/14/1 43/10/1 44/9/1
f 45/14/1 46/15/1 47/11/1 48/10/1
f 49/16/1 50/13/1 51/9/1 52/12/1
f 53/13/1 54/14/1 55/10/1 56/9/1
f 57/14/1 58/15/1 59/11/1 60/10/1
f 61/7/1 62/1/1 63/4/1 64/8/1
f 65/1/1 66/2/1 67/3/1 68/4/1
f 69/17/1 70/18/1 71/19/1 72/20/1
f 73/18/1 74/21/1 75/22/1 76/19/1
f 77/21/1 78/7/1 79/8/1 80/22/1
f 81/12/1 82/9/1 83/1/1 84/7/1
f 85/9/1 86/10/1 87/2/1 88/1/1
f 89/23/1 90/24/1 91/18/1 92/17/1
f 93/24/1 94/25/1 95/21/1 96/18/1
f 97/25/1 98/12/1 99/7/1 100/21/1
f 101/16/1 102/13/1 103/9/1 104/12/1
f 105/13/1 106/14/1 107/10/1 108/9/1
f 109/26/1 110/27/1 111/24/1 112/23/1
f 113/27/1 114/28/1 115/25/1 116/24/1
f 117/28/1 118/16/1 119/12/1 120/25/1
f 121/7/1 122/1/1 123/4/1 124/8/1
f 125/1/1 126/2/1 127/3/1 128/4/1
f 129/2/1 130/5/1 131/6/1 132/3/1
f 133/12/1 134/9/1 135/1/1 136/7/1
f 137/9/1 138/10/1 139/2/1 140/1/1
f 141/10/1 142/11/1 143/5/1 144/2/1
f 145/16/1 146/13/1 147/9/1 148/12/1
f 149/13/1 150/14/1 151/10/1 152/9/1
f 153/14/1 154/15/1 155/11/1 156/10/1

