# Tiled2Unity generated file. Do not modify by hand.
# Wavefront file for 'CoinCollecteMap2_mesh_0097.obj'

# Vertices (Count = 120)
v -16000 -179200 0
v -19200 -179200 0
v -19200 -176000 0
v -16000 -176000 0
v -19200 -179200 0
v -22400 -179200 0
v -22400 -176000 0
v -19200 -176000 0
v -22400 -179200 0
v -25600 -179200 0
v -25600 -176000 0
v -22400 -176000 0
v -25600 -179200 0
v -28800 -179200 0
v -28800 -176000 0
v -25600 -176000 0
v -28800 -179200 0
v -32000 -179200 0
v -32000 -176000 0
v -28800 -176000 0
v -102400 -179200 0
v -105600 -179200 0
v -105600 -176000 0
v -102400 -176000 0
v -105600 -179200 0
v -108800 -179200 0
v -108800 -176000 0
v -105600 -176000 0
v -108800 -179200 0
v -112000 -179200 0
v -112000 -176000 0
v -108800 -176000 0
v -16000 -182400 0
v -19200 -182400 0
v -19200 -179200 0
v -16000 -179200 0
v -19200 -182400 0
v -22400 -182400 0
v -22400 -179200 0
v -19200 -179200 0
v -22400 -182400 0
v -25600 -182400 0
v -25600 -179200 0
v -22400 -179200 0
v -25600 -182400 0
v -28800 -182400 0
v -28800 -179200 0
v -25600 -179200 0
v -28800 -182400 0
v -32000 -182400 0
v -32000 -179200 0
v -28800 -179200 0
v -102400 -182400 0
v -105600 -182400 0
v -105600 -179200 0
v -102400 -179200 0
v -105600 -182400 0
v -108800 -182400 0
v -108800 -179200 0
v -105600 -179200 0
v -108800 -182400 0
v -112000 -182400 0
v -112000 -179200 0
v -108800 -179200 0
v -112000 -182400 0
v -115200 -182400 0
v -115200 -179200 0
v -112000 -179200 0
v -115200 -182400 0
v -118400 -182400 0
v -118400 -179200 0
v -115200 -179200 0
v -16000 -185600 0
v -19200 -185600 0
v -19200 -182400 0
v -16000 -182400 0
v -19200 -185600 0
v -22400 -185600 0
v -22400 -182400 0
v -19200 -182400 0
v -22400 -185600 0
v -25600 -185600 0
v -25600 -182400 0
v -22400 -182400 0
v -25600 -185600 0
v -28800 -185600 0
v -28800 -182400 0
v -25600 -182400 0
v -28800 -185600 0
v -32000 -185600 0
v -32000 -182400 0
v -28800 -182400 0
v -102400 -185600 0
v -105600 -185600 0
v -105600 -182400 0
v -102400 -182400 0
v -105600 -185600 0
v -108800 -185600 0
v -108800 -182400 0
v -105600 -182400 0
v -108800 -185600 0
v -112000 -185600 0
v -112000 -182400 0
v -108800 -182400 0
v -112000 -185600 0
v -115200 -185600 0
v -115200 -182400 0
v -112000 -182400 0
v -115200 -185600 0
v -118400 -185600 0
v -118400 -182400 0
v -115200 -182400 0
v -112000 -188800 0
v -115200 -188800 0
v -115200 -185600 0
v -112000 -185600 0
v -115200 -188800 0
v -118400 -188800 0
v -118400 -185600 0
v -115200 -185600 0

# Texture cooridinates (Count = 16)
vt 0.6666667 0.6666666
vt 0.8333333 0.6666666
vt 0.8333333 1
vt 0.6666667 1
vt 1 0.6666666
vt 1 1
vt 0.5 0.6666666
vt 0.5 1
vt 0.6666667 0.3333333
vt 0.8333333 0.3333333
vt 1 0.3333333
vt 0.5 0.3333333
vt 0.6666667 0
vt 0.8333333 0
vt 1 0
vt 0.5 0

# Normal
vn 0 0 -1

# Mesh description
g CoinCollecteMap2_mesh_0097

# Faces
f 1/1/1 2/2/1 3/3/1 4/4/1
f 5/2/1 6/5/1 7/6/1 8/3/1
f 9/7/1 10/1/1 11/4/1 12/8/1
f 13/1/1 14/2/1 15/3/1 16/4/1
f 17/2/1 18/5/1 19/6/1 20/3/1
f 21/7/1 22/1/1 23/4/1 24/8/1
f 25/1/1 26/2/1 27/3/1 28/4/1
f 29/2/1 30/5/1 31/6/1 32/3/1
f 33/9/1 34/10/1 35/2/1 36/1/1
f 37/10/1 38/11/1 39/5/1 40/2/1
f 41/12/1 42/9/1 43/1/1 44/7/1
f 45/9/1 46/10/1 47/2/1 48/1/1
f 49/10/1 50/11/1 51/5/1 52/2/1
f 53/12/1 54/9/1 55/1/1 56/7/1
f 57/9/1 58/10/1 59/2/1 60/1/1
f 61/10/1 62/11/1 63/5/1 64/2/1
f 65/7/1 66/1/1 67/4/1 68/8/1
f 69/1/1 70/2/1 71/3/1 72/4/1
f 73/13/1 74/14/1 75/10/1 76/9/1
f 77/14/1 78/15/1 79/11/1 80/10/1
f 81/16/1 82/13/1 83/9/1 84/12/1
f 85/13/1 86/14/1 87/10/1 88/9/1
f 89/14/1 90/15/1 91/11/1 92/10/1
f 93/16/1 94/13/1 95/9/1 96/12/1
f 97/13/1 98/14/1 99/10/1 100/9/1
f 101/14/1 102/15/1 103/11/1 104/10/1
f 105/12/1 106/9/1 107/1/1 108/7/1
f 109/9/1 110/10/1 111/2/1 112/1/1
f 113/16/1 114/13/1 115/9/1 116/12/1
f 117/13/1 118/14/1 119/10/1 120/9/1

