# Tiled2Unity generated file. Do not modify by hand.
# Wavefront file for 'CoinCollecteMap2_mesh_0203.obj'

# Vertices (Count = 44)
v -67200 -172800 0
v -70400 -172800 0
v -70400 -169600 0
v -67200 -169600 0
v -73600 -172800 0
v -76800 -172800 0
v -76800 -169600 0
v -73600 -169600 0
v -67200 -176000 0
v -70400 -176000 0
v -70400 -172800 0
v -67200 -172800 0
v -70400 -176000 0
v -73600 -176000 0
v -73600 -172800 0
v -70400 -172800 0
v -73600 -176000 0
v -76800 -176000 0
v -76800 -172800 0
v -73600 -172800 0
v -67200 -179200 0
v -70400 -179200 0
v -70400 -176000 0
v -67200 -176000 0
v -70400 -179200 0
v -73600 -179200 0
v -73600 -176000 0
v -70400 -176000 0
v -73600 -179200 0
v -76800 -179200 0
v -76800 -176000 0
v -73600 -176000 0
v -67200 -182400 0
v -70400 -182400 0
v -70400 -179200 0
v -67200 -179200 0
v -70400 -182400 0
v -73600 -182400 0
v -73600 -179200 0
v -70400 -179200 0
v -73600 -182400 0
v -76800 -182400 0
v -76800 -179200 0
v -73600 -179200 0

# Texture cooridinates (Count = 23)
vt 0 0.4285714
vt 0.1666667 0.4285714
vt 0.1666667 0.5714285
vt 0 0.5714285
vt 0.3333333 0.4285714
vt 0.5 0.4285714
vt 0.5 0.5714285
vt 0.3333333 0.5714285
vt 0.5 0.2857143
vt 0.6666667 0.2857143
vt 0.6666667 0.4285714
vt 0.8333333 0.2857143
vt 0.8333333 0.4285714
vt 1 0.2857143
vt 1 0.4285714
vt 0.5 0.1428571
vt 0.6666667 0.1428571
vt 0.8333333 0.1428571
vt 1 0.1428571
vt 0.5 0
vt 0.6666667 0
vt 0.8333333 0
vt 1 0

# Normal
vn 0 0 -1

# Mesh description
g CoinCollecteMap2_mesh_0203

# Faces
f 1/1/1 2/2/1 3/3/1 4/4/1
f 5/5/1 6/6/1 7/7/1 8/8/1
f 9/9/1 10/10/1 11/11/1 12/6/1
f 13/10/1 14/12/1 15/13/1 16/11/1
f 17/12/1 18/14/1 19/15/1 20/13/1
f 21/16/1 22/17/1 23/10/1 24/9/1
f 25/17/1 26/18/1 27/12/1 28/10/1
f 29/18/1 30/19/1 31/14/1 32/12/1
f 33/20/1 34/21/1 35/17/1 36/16/1
f 37/21/1 38/22/1 39/18/1 40/17/1
f 41/22/1 42/23/1 43/19/1 44/18/1

