# Tiled2Unity generated file. Do not modify by hand.
# Wavefront file for 'CoinCollecteMap2_mesh_0131.obj'

# Vertices (Count = 84)
v -44800 -89600 0
v -48000 -89600 0
v -48000 -86400 0
v -44800 -86400 0
v -48000 -89600 0
v -51200 -89600 0
v -51200 -86400 0
v -48000 -86400 0
v -51200 -89600 0
v -54400 -89600 0
v -54400 -86400 0
v -51200 -86400 0
v -89600 -89600 0
v -92800 -89600 0
v -92800 -86400 0
v -89600 -86400 0
v -96000 -89600 0
v -99200 -89600 0
v -99200 -86400 0
v -96000 -86400 0
v -32000 -92800 0
v -35200 -92800 0
v -35200 -89600 0
v -32000 -89600 0
v -35200 -92800 0
v -38400 -92800 0
v -38400 -89600 0
v -35200 -89600 0
v -38400 -92800 0
v -41600 -92800 0
v -41600 -89600 0
v -38400 -89600 0
v -44800 -92800 0
v -48000 -92800 0
v -48000 -89600 0
v -44800 -89600 0
v -48000 -92800 0
v -51200 -92800 0
v -51200 -89600 0
v -48000 -89600 0
v -51200 -92800 0
v -54400 -92800 0
v -54400 -89600 0
v -51200 -89600 0
v -32000 -96000 0
v -35200 -96000 0
v -35200 -92800 0
v -32000 -92800 0
v -35200 -96000 0
v -38400 -96000 0
v -38400 -92800 0
v -35200 -92800 0
v -38400 -96000 0
v -41600 -96000 0
v -41600 -92800 0
v -38400 -92800 0
v -44800 -96000 0
v -48000 -96000 0
v -48000 -92800 0
v -44800 -92800 0
v -48000 -96000 0
v -51200 -96000 0
v -51200 -92800 0
v -48000 -92800 0
v -51200 -96000 0
v -54400 -96000 0
v -54400 -92800 0
v -51200 -92800 0
v -89600 -96000 0
v -92800 -96000 0
v -92800 -92800 0
v -89600 -92800 0
v -32000 -99200 0
v -35200 -99200 0
v -35200 -96000 0
v -32000 -96000 0
v -35200 -99200 0
v -38400 -99200 0
v -38400 -96000 0
v -35200 -96000 0
v -38400 -99200 0
v -41600 -99200 0
v -41600 -96000 0
v -38400 -96000 0

# Texture cooridinates (Count = 24)
vt 0 0.6666666
vt 0.1666667 0.6666666
vt 0.1666667 1
vt 0 1
vt 0.3333333 0.6666666
vt 0.3333333 1
vt 0.5 0.6666666
vt 0.5 1
vt 0.6666667 0.6666666
vt 0.6666667 1
vt 0.8333333 0.6666666
vt 1 0.6666666
vt 1 1
vt 0.8333333 1
vt 0 0.3333333
vt 0.1666667 0.3333333
vt 0.3333333 0.3333333
vt 0.5 0.3333333
vt 0 0
vt 0.1666667 0
vt 0.3333333 0
vt 0.5 0
vt 0.6666667 0
vt 0.6666667 0.3333333

# Normal
vn 0 0 -1

# Mesh description
g CoinCollecteMap2_mesh_0131

# Faces
f 1/1/1 2/2/1 3/3/1 4/4/1
f 5/2/1 6/5/1 7/6/1 8/3/1
f 9/5/1 10/7/1 11/8/1 12/6/1
f 13/7/1 14/9/1 15/10/1 16/8/1
f 17/11/1 18/12/1 19/13/1 20/14/1
f 21/1/1 22/2/1 23/3/1 24/4/1
f 25/2/1 26/5/1 27/6/1 28/3/1
f 29/5/1 30/7/1 31/8/1 32/6/1
f 33/15/1 34/16/1 35/2/1 36/1/1
f 37/16/1 38/17/1 39/5/1 40/2/1
f 41/17/1 42/18/1 43/7/1 44/5/1
f 45/15/1 46/16/1 47/2/1 48/1/1
f 49/16/1 50/17/1 51/5/1 52/2/1
f 53/17/1 54/18/1 55/7/1 56/5/1
f 57/19/1 58/20/1 59/16/1 60/15/1
f 61/20/1 62/21/1 63/17/1 64/16/1
f 65/21/1 66/22/1 67/18/1 68/17/1
f 69/22/1 70/23/1 71/24/1 72/18/1
f 73/19/1 74/20/1 75/16/1 76/15/1
f 77/20/1 78/21/1 79/17/1 80/16/1
f 81/21/1 82/22/1 83/18/1 84/17/1

