# Tiled2Unity generated file. Do not modify by hand.
# Wavefront file for 'CoinCollecteMap2_mesh_0049.obj'

# Vertices (Count = 252)
v 0 -12800 0
v -3200 -12800 0
v -3200 -9600 0
v 0 -9600 0
v -3200 -12800 0
v -6400 -12800 0
v -6400 -9600 0
v -3200 -9600 0
v -6400 -12800 0
v -9600 -12800 0
v -9600 -9600 0
v -6400 -9600 0
v -70400 -12800 0
v -73600 -12800 0
v -73600 -9600 0
v -70400 -9600 0
v -73600 -12800 0
v -76800 -12800 0
v -76800 -9600 0
v -73600 -9600 0
v -76800 -12800 0
v -80000 -12800 0
v -80000 -9600 0
v -76800 -9600 0
v -121600 -12800 0
v -124800 -12800 0
v -124800 -9600 0
v -121600 -9600 0
v -124800 -12800 0
v -128000 -12800 0
v -128000 -9600 0
v -124800 -9600 0
v -128000 -12800 0
v -131200 -12800 0
v -131200 -9600 0
v -128000 -9600 0
v 0 -16000 0
v -3200 -16000 0
v -3200 -12800 0
v 0 -12800 0
v -3200 -16000 0
v -6400 -16000 0
v -6400 -12800 0
v -3200 -12800 0
v -6400 -16000 0
v -9600 -16000 0
v -9600 -12800 0
v -6400 -12800 0
v -60800 -16000 0
v -64000 -16000 0
v -64000 -12800 0
v -60800 -12800 0
v -64000 -16000 0
v -67200 -16000 0
v -67200 -12800 0
v -64000 -12800 0
v -67200 -16000 0
v -70400 -16000 0
v -70400 -12800 0
v -67200 -12800 0
v -70400 -16000 0
v -73600 -16000 0
v -73600 -12800 0
v -70400 -12800 0
v -73600 -16000 0
v -76800 -16000 0
v -76800 -12800 0
v -73600 -12800 0
v -76800 -16000 0
v -80000 -16000 0
v -80000 -12800 0
v -76800 -12800 0
v -121600 -16000 0
v -124800 -16000 0
v -124800 -12800 0
v -121600 -12800 0
v -124800 -16000 0
v -128000 -16000 0
v -128000 -12800 0
v -124800 -12800 0
v -128000 -16000 0
v -131200 -16000 0
v -131200 -12800 0
v -128000 -12800 0
v 0 -19200 0
v -3200 -19200 0
v -3200 -16000 0
v 0 -16000 0
v -3200 -19200 0
v -6400 -19200 0
v -6400 -16000 0
v -3200 -16000 0
v -6400 -19200 0
v -9600 -19200 0
v -9600 -16000 0
v -6400 -16000 0
v -60800 -19200 0
v -64000 -19200 0
v -64000 -16000 0
v -60800 -16000 0
v -64000 -19200 0
v -67200 -19200 0
v -67200 -16000 0
v -64000 -16000 0
v -67200 -19200 0
v -70400 -19200 0
v -70400 -16000 0
v -67200 -16000 0
v -70400 -19200 0
v -73600 -19200 0
v -73600 -16000 0
v -70400 -16000 0
v -73600 -19200 0
v -76800 -19200 0
v -76800 -16000 0
v -73600 -16000 0
v -76800 -19200 0
v -80000 -19200 0
v -80000 -16000 0
v -76800 -16000 0
v -121600 -19200 0
v -124800 -19200 0
v -124800 -16000 0
v -121600 -16000 0
v -124800 -19200 0
v -128000 -19200 0
v -128000 -16000 0
v -124800 -16000 0
v -128000 -19200 0
v -131200 -19200 0
v -131200 -16000 0
v -128000 -16000 0
v -3200 -22400 0
v -6400 -22400 0
v -6400 -19200 0
v -3200 -19200 0
v -6400 -22400 0
v -9600 -22400 0
v -9600 -19200 0
v -6400 -19200 0
v -9600 -22400 0
v -12800 -22400 0
v -12800 -19200 0
v -9600 -19200 0
v -60800 -22400 0
v -64000 -22400 0
v -64000 -19200 0
v -60800 -19200 0
v -64000 -22400 0
v -67200 -22400 0
v -67200 -19200 0
v -64000 -19200 0
v -67200 -22400 0
v -70400 -22400 0
v -70400 -19200 0
v -67200 -19200 0
v -70400 -22400 0
v -73600 -22400 0
v -73600 -19200 0
v -70400 -19200 0
v -73600 -22400 0
v -76800 -22400 0
v -76800 -19200 0
v -73600 -19200 0
v -76800 -22400 0
v -80000 -22400 0
v -80000 -19200 0
v -76800 -19200 0
v -118400 -22400 0
v -121600 -22400 0
v -121600 -19200 0
v -118400 -19200 0
v -121600 -22400 0
v -124800 -22400 0
v -124800 -19200 0
v -121600 -19200 0
v -124800 -22400 0
v -128000 -22400 0
v -128000 -19200 0
v -124800 -19200 0
v -3200 -25600 0
v -6400 -25600 0
v -6400 -22400 0
v -3200 -22400 0
v -6400 -25600 0
v -9600 -25600 0
v -9600 -22400 0
v -6400 -22400 0
v -9600 -25600 0
v -12800 -25600 0
v -12800 -22400 0
v -9600 -22400 0
v -70400 -25600 0
v -73600 -25600 0
v -73600 -22400 0
v -70400 -22400 0
v -73600 -25600 0
v -76800 -25600 0
v -76800 -22400 0
v -73600 -22400 0
v -76800 -25600 0
v -80000 -25600 0
v -80000 -22400 0
v -76800 -22400 0
v -118400 -25600 0
v -121600 -25600 0
v -121600 -22400 0
v -118400 -22400 0
v -121600 -25600 0
v -124800 -25600 0
v -124800 -22400 0
v -121600 -22400 0
v -124800 -25600 0
v -128000 -25600 0
v -128000 -22400 0
v -124800 -22400 0
v -3200 -28800 0
v -6400 -28800 0
v -6400 -25600 0
v -3200 -25600 0
v -6400 -28800 0
v -9600 -28800 0
v -9600 -25600 0
v -6400 -25600 0
v -9600 -28800 0
v -12800 -28800 0
v -12800 -25600 0
v -9600 -25600 0
v -70400 -28800 0
v -73600 -28800 0
v -73600 -25600 0
v -70400 -25600 0
v -73600 -28800 0
v -76800 -28800 0
v -76800 -25600 0
v -73600 -25600 0
v -76800 -28800 0
v -80000 -28800 0
v -80000 -25600 0
v -76800 -25600 0
v -118400 -28800 0
v -121600 -28800 0
v -121600 -25600 0
v -118400 -25600 0
v -121600 -28800 0
v -124800 -28800 0
v -124800 -25600 0
v -121600 -25600 0
v -124800 -28800 0
v -128000 -28800 0
v -128000 -25600 0
v -124800 -25600 0

# Texture cooridinates (Count = 28)
vt 0 0.4285714
vt 0.1666667 0.4285714
vt 0.1666667 0.5714285
vt 0 0.5714285
vt 0.3333333 0.4285714
vt 0.3333333 0.5714285
vt 0.5 0.4285714
vt 0.5 0.5714285
vt 0 0.8571429
vt 0.1666667 0.8571429
vt 0.1666667 1
vt 0 1
vt 0.3333333 0.8571429
vt 0.3333333 1
vt 0.5 0.8571429
vt 0.5 1
vt 0 0.2857143
vt 0.1666667 0.2857143
vt 0.3333333 0.2857143
vt 0.5 0.2857143
vt 0 0.7142857
vt 0.1666667 0.7142857
vt 0.3333333 0.7142857
vt 0.5 0.7142857
vt 0 0.1428571
vt 0.1666667 0.1428571
vt 0.3333333 0.1428571
vt 0.5 0.1428571

# Normal
vn 0 0 -1

# Mesh description
g CoinCollecteMap2_mesh_0049

# Faces
f 1/1/1 2/2/1 3/3/1 4/4/1
f 5/2/1 6/5/1 7/6/1 8/3/1
f 9/5/1 10/7/1 11/8/1 12/6/1
f 13/9/1 14/10/1 15/11/1 16/12/1
f 17/10/1 18/13/1 19/14/1 20/11/1
f 21/13/1 22/15/1 23/16/1 24/14/1
f 25/9/1 26/10/1 27/11/1 28/12/1
f 29/10/1 30/13/1 31/14/1 32/11/1
f 33/13/1 34/15/1 35/16/1 36/14/1
f 37/17/1 38/18/1 39/2/1 40/1/1
f 41/18/1 42/19/1 43/5/1 44/2/1
f 45/19/1 46/20/1 47/7/1 48/5/1
f 49/9/1 50/10/1 51/11/1 52/12/1
f 53/10/1 54/13/1 55/14/1 56/11/1
f 57/13/1 58/15/1 59/16/1 60/14/1
f 61/21/1 62/22/1 63/10/1 64/9/1
f 65/22/1 66/23/1 67/13/1 68/10/1
f 69/23/1 70/24/1 71/15/1 72/13/1
f 73/21/1 74/22/1 75/10/1 76/9/1
f 77/22/1 78/23/1 79/13/1 80/10/1
f 81/23/1 82/24/1 83/15/1 84/13/1
f 85/25/1 86/26/1 87/18/1 88/17/1
f 89/26/1 90/27/1 91/19/1 92/18/1
f 93/27/1 94/28/1 95/20/1 96/19/1
f 97/21/1 98/22/1 99/10/1 100/9/1
f 101/22/1 102/23/1 103/13/1 104/10/1
f 105/23/1 106/24/1 107/15/1 108/13/1
f 109/4/1 110/3/1 111/22/1 112/21/1
f 113/3/1 114/6/1 115/23/1 116/22/1
f 117/6/1 118/8/1 119/24/1 120/23/1
f 121/4/1 122/3/1 123/22/1 124/21/1
f 125/3/1 126/6/1 127/23/1 128/22/1
f 129/6/1 130/8/1 131/24/1 132/23/1
f 133/1/1 134/2/1 135/3/1 136/4/1
f 137/2/1 138/5/1 139/6/1 140/3/1
f 141/5/1 142/7/1 143/8/1 144/6/1
f 145/4/1 146/3/1 147/22/1 148/21/1
f 149/3/1 150/6/1 151/23/1 152/22/1
f 153/6/1 154/8/1 155/24/1 156/23/1
f 157/1/1 158/2/1 159/3/1 160/4/1
f 161/2/1 162/5/1 163/6/1 164/3/1
f 165/5/1 166/7/1 167/8/1 168/6/1
f 169/1/1 170/2/1 171/3/1 172/4/1
f 173/2/1 174/5/1 175/6/1 176/3/1
f 177/5/1 178/7/1 179/8/1 180/6/1
f 181/17/1 182/18/1 183/2/1 184/1/1
f 185/18/1 186/19/1 187/5/1 188/2/1
f 189/19/1 190/20/1 191/7/1 192/5/1
f 193/17/1 194/18/1 195/2/1 196/1/1
f 197/18/1 198/19/1 199/5/1 200/2/1
f 201/19/1 202/20/1 203/7/1 204/5/1
f 205/17/1 206/18/1 207/2/1 208/1/1
f 209/18/1 210/19/1 211/5/1 212/2/1
f 213/19/1 214/20/1 215/7/1 216/5/1
f 217/25/1 218/26/1 219/18/1 220/17/1
f 221/26/1 222/27/1 223/19/1 224/18/1
f 225/27/1 226/28/1 227/20/1 228/19/1
f 229/25/1 230/26/1 231/18/1 232/17/1
f 233/26/1 234/27/1 235/19/1 236/18/1
f 237/27/1 238/28/1 239/20/1 240/19/1
f 241/25/1 242/26/1 243/18/1 244/17/1
f 245/26/1 246/27/1 247/19/1 248/18/1
f 249/27/1 250/28/1 251/20/1 252/19/1

