# Tiled2Unity generated file. Do not modify by hand.
# Wavefront file for 'CoinCollecteMap2_mesh_0038.obj'

# Vertices (Count = 196)
v -3200 -208000 0
v -6400 -208000 0
v -6400 -204800 0
v -3200 -204800 0
v -6400 -208000 0
v -9600 -208000 0
v -9600 -204800 0
v -6400 -204800 0
v -9600 -208000 0
v -12800 -208000 0
v -12800 -204800 0
v -9600 -204800 0
v -121600 -208000 0
v -124800 -208000 0
v -124800 -204800 0
v -121600 -204800 0
v -124800 -208000 0
v -128000 -208000 0
v -128000 -204800 0
v -124800 -204800 0
v -128000 -208000 0
v -131200 -208000 0
v -131200 -204800 0
v -128000 -204800 0
v -3200 -211200 0
v -6400 -211200 0
v -6400 -208000 0
v -3200 -208000 0
v -6400 -211200 0
v -9600 -211200 0
v -9600 -208000 0
v -6400 -208000 0
v -9600 -211200 0
v -12800 -211200 0
v -12800 -208000 0
v -9600 -208000 0
v -121600 -211200 0
v -124800 -211200 0
v -124800 -208000 0
v -121600 -208000 0
v -124800 -211200 0
v -128000 -211200 0
v -128000 -208000 0
v -124800 -208000 0
v -128000 -211200 0
v -131200 -211200 0
v -131200 -208000 0
v -128000 -208000 0
v 0 -214400 0
v -3200 -214400 0
v -3200 -211200 0
v 0 -211200 0
v -3200 -214400 0
v -6400 -214400 0
v -6400 -211200 0
v -3200 -211200 0
v -6400 -214400 0
v -9600 -214400 0
v -9600 -211200 0
v -6400 -211200 0
v -9600 -214400 0
v -12800 -214400 0
v -12800 -211200 0
v -9600 -211200 0
v -12800 -214400 0
v -16000 -214400 0
v -16000 -211200 0
v -12800 -211200 0
v -16000 -214400 0
v -19200 -214400 0
v -19200 -211200 0
v -16000 -211200 0
v -121600 -214400 0
v -124800 -214400 0
v -124800 -211200 0
v -121600 -211200 0
v -124800 -214400 0
v -128000 -214400 0
v -128000 -211200 0
v -124800 -211200 0
v -128000 -214400 0
v -131200 -214400 0
v -131200 -211200 0
v -128000 -211200 0
v -131200 -214400 0
v -134400 -214400 0
v -134400 -211200 0
v -131200 -211200 0
v 0 -217600 0
v -3200 -217600 0
v -3200 -214400 0
v 0 -214400 0
v -3200 -217600 0
v -6400 -217600 0
v -6400 -214400 0
v -3200 -214400 0
v -9600 -217600 0
v -12800 -217600 0
v -12800 -214400 0
v -9600 -214400 0
v -12800 -217600 0
v -16000 -217600 0
v -16000 -214400 0
v -12800 -214400 0
v -16000 -217600 0
v -19200 -217600 0
v -19200 -214400 0
v -16000 -214400 0
v -118400 -217600 0
v -121600 -217600 0
v -121600 -214400 0
v -118400 -214400 0
v -121600 -217600 0
v -124800 -217600 0
v -124800 -214400 0
v -121600 -214400 0
v -124800 -217600 0
v -128000 -217600 0
v -128000 -214400 0
v -124800 -214400 0
v -131200 -217600 0
v -134400 -217600 0
v -134400 -214400 0
v -131200 -214400 0
v 0 -220800 0
v -3200 -220800 0
v -3200 -217600 0
v 0 -217600 0
v -3200 -220800 0
v -6400 -220800 0
v -6400 -217600 0
v -3200 -217600 0
v -9600 -220800 0
v -12800 -220800 0
v -12800 -217600 0
v -9600 -217600 0
v -12800 -220800 0
v -16000 -220800 0
v -16000 -217600 0
v -12800 -217600 0
v -16000 -220800 0
v -19200 -220800 0
v -19200 -217600 0
v -16000 -217600 0
v -118400 -220800 0
v -121600 -220800 0
v -121600 -217600 0
v -118400 -217600 0
v -121600 -220800 0
v -124800 -220800 0
v -124800 -217600 0
v -121600 -217600 0
v -124800 -220800 0
v -128000 -220800 0
v -128000 -217600 0
v -124800 -217600 0
v -128000 -220800 0
v -131200 -220800 0
v -131200 -217600 0
v -128000 -217600 0
v -131200 -220800 0
v -134400 -220800 0
v -134400 -217600 0
v -131200 -217600 0
v -118400 -224000 0
v -121600 -224000 0
v -121600 -220800 0
v -118400 -220800 0
v -121600 -224000 0
v -124800 -224000 0
v -124800 -220800 0
v -121600 -220800 0
v -124800 -224000 0
v -128000 -224000 0
v -128000 -220800 0
v -124800 -220800 0
v -128000 -224000 0
v -131200 -224000 0
v -131200 -220800 0
v -128000 -220800 0
v -131200 -224000 0
v -134400 -224000 0
v -134400 -220800 0
v -131200 -220800 0
v -124800 -227200 0
v -128000 -227200 0
v -128000 -224000 0
v -124800 -224000 0
v -128000 -227200 0
v -131200 -227200 0
v -131200 -224000 0
v -128000 -224000 0
v -131200 -227200 0
v -134400 -227200 0
v -134400 -224000 0
v -131200 -224000 0

# Texture cooridinates (Count = 16)
vt 0.5 0.6666666
vt 0.6666667 0.6666666
vt 0.6666667 1
vt 0.5 1
vt 0.8333333 0.6666666
vt 0.8333333 1
vt 1 0.6666666
vt 1 1
vt 0.5 0.3333333
vt 0.6666667 0.3333333
vt 0.8333333 0.3333333
vt 1 0.3333333
vt 0.6666667 0
vt 0.8333333 0
vt 0.5 0
vt 1 0

# Normal
vn 0 0 -1

# Mesh description
g CoinCollecteMap2_mesh_0038

# Faces
f 1/1/1 2/2/1 3/3/1 4/4/1
f 5/2/1 6/5/1 7/6/1 8/3/1
f 9/5/1 10/7/1 11/8/1 12/6/1
f 13/1/1 14/2/1 15/3/1 16/4/1
f 17/2/1 18/5/1 19/6/1 20/3/1
f 21/5/1 22/7/1 23/8/1 24/6/1
f 25/9/1 26/10/1 27/2/1 28/1/1
f 29/10/1 30/11/1 31/5/1 32/2/1
f 33/11/1 34/12/1 35/7/1 36/5/1
f 37/9/1 38/10/1 39/2/1 40/1/1
f 41/10/1 42/11/1 43/5/1 44/2/1
f 45/11/1 46/12/1 47/7/1 48/5/1
f 49/2/1 50/5/1 51/6/1 52/3/1
f 53/5/1 54/7/1 55/8/1 56/6/1
f 57/13/1 58/14/1 59/11/1 60/10/1
f 61/1/1 62/2/1 63/3/1 64/4/1
f 65/2/1 66/5/1 67/6/1 68/3/1
f 69/5/1 70/7/1 71/8/1 72/6/1
f 73/15/1 74/13/1 75/10/1 76/9/1
f 77/13/1 78/14/1 79/11/1 80/10/1
f 81/14/1 82/16/1 83/12/1 84/11/1
f 85/1/1 86/2/1 87/3/1 88/4/1
f 89/10/1 90/11/1 91/5/1 92/2/1
f 93/11/1 94/12/1 95/7/1 96/5/1
f 97/9/1 98/10/1 99/2/1 100/1/1
f 101/10/1 102/11/1 103/5/1 104/2/1
f 105/11/1 106/12/1 107/7/1 108/5/1
f 109/1/1 110/2/1 111/3/1 112/4/1
f 113/2/1 114/5/1 115/6/1 116/3/1
f 117/5/1 118/7/1 119/8/1 120/6/1
f 121/9/1 122/10/1 123/2/1 124/1/1
f 125/13/1 126/14/1 127/11/1 128/10/1
f 129/14/1 130/16/1 131/12/1 132/11/1
f 133/15/1 134/13/1 135/10/1 136/9/1
f 137/13/1 138/14/1 139/11/1 140/10/1
f 141/14/1 142/16/1 143/12/1 144/11/1
f 145/9/1 146/10/1 147/2/1 148/1/1
f 149/10/1 150/11/1 151/5/1 152/2/1
f 153/1/1 154/2/1 155/3/1 156/4/1
f 157/2/1 158/5/1 159/6/1 160/3/1
f 161/15/1 162/13/1 163/10/1 164/9/1
f 165/15/1 166/13/1 167/10/1 168/9/1
f 169/13/1 170/14/1 171/11/1 172/10/1
f 173/9/1 174/10/1 175/2/1 176/1/1
f 177/10/1 178/11/1 179/5/1 180/2/1
f 181/11/1 182/12/1 183/7/1 184/5/1
f 185/15/1 186/13/1 187/10/1 188/9/1
f 189/13/1 190/14/1 191/11/1 192/10/1
f 193/14/1 194/16/1 195/12/1 196/11/1

