# Tiled2Unity generated file. Do not modify by hand.
# Wavefront file for 'CoinCollecteMap2_mesh_0083.obj'

# Vertices (Count = 60)
v 0 -201600 0
v -3200 -201600 0
v -3200 -198400 0
v 0 -198400 0
v -3200 -201600 0
v -6400 -201600 0
v -6400 -198400 0
v -3200 -198400 0
v -121600 -201600 0
v -124800 -201600 0
v -124800 -198400 0
v -121600 -198400 0
v -124800 -201600 0
v -128000 -201600 0
v -128000 -198400 0
v -124800 -198400 0
v -128000 -201600 0
v -131200 -201600 0
v -131200 -198400 0
v -128000 -198400 0
v 0 -204800 0
v -3200 -204800 0
v -3200 -201600 0
v 0 -201600 0
v -3200 -204800 0
v -6400 -204800 0
v -6400 -201600 0
v -3200 -201600 0
v -121600 -204800 0
v -124800 -204800 0
v -124800 -201600 0
v -121600 -201600 0
v -124800 -204800 0
v -128000 -204800 0
v -128000 -201600 0
v -124800 -201600 0
v -128000 -204800 0
v -131200 -204800 0
v -131200 -201600 0
v -128000 -201600 0
v 0 -208000 0
v -3200 -208000 0
v -3200 -204800 0
v 0 -204800 0
v -3200 -208000 0
v -6400 -208000 0
v -6400 -204800 0
v -3200 -204800 0
v -121600 -208000 0
v -124800 -208000 0
v -124800 -204800 0
v -121600 -204800 0
v -124800 -208000 0
v -128000 -208000 0
v -128000 -204800 0
v -124800 -204800 0
v -128000 -208000 0
v -131200 -208000 0
v -131200 -204800 0
v -128000 -204800 0

# Texture cooridinates (Count = 25)
vt 0.1666667 0.8571429
vt 0.3333333 0.8571429
vt 0.3333333 1
vt 0.1666667 1
vt 0.5 0.8571429
vt 0.5 1
vt 0 0.4285714
vt 0.1666667 0.4285714
vt 0.1666667 0.5714285
vt 0 0.5714285
vt 0.3333333 0.4285714
vt 0.3333333 0.5714285
vt 0.5 0.4285714
vt 0.5 0.5714285
vt 0.1666667 0.7142857
vt 0.3333333 0.7142857
vt 0.5 0.7142857
vt 0 0.2857143
vt 0.1666667 0.2857143
vt 0.3333333 0.2857143
vt 0.5 0.2857143
vt 0 0.1428571
vt 0.1666667 0.1428571
vt 0.3333333 0.1428571
vt 0.5 0.1428571

# Normal
vn 0 0 -1

# Mesh description
g CoinCollecteMap2_mesh_0083

# Faces
f 1/1/1 2/2/1 3/3/1 4/4/1
f 5/2/1 6/5/1 7/6/1 8/3/1
f 9/7/1 10/8/1 11/9/1 12/10/1
f 13/8/1 14/11/1 15/12/1 16/9/1
f 17/11/1 18/13/1 19/14/1 20/12/1
f 21/15/1 22/16/1 23/2/1 24/1/1
f 25/16/1 26/17/1 27/5/1 28/2/1
f 29/18/1 30/19/1 31/8/1 32/7/1
f 33/19/1 34/20/1 35/11/1 36/8/1
f 37/20/1 38/21/1 39/13/1 40/11/1
f 41/9/1 42/12/1 43/16/1 44/15/1
f 45/12/1 46/14/1 47/17/1 48/16/1
f 49/22/1 50/23/1 51/19/1 52/18/1
f 53/23/1 54/24/1 55/20/1 56/19/1
f 57/24/1 58/25/1 59/21/1 60/20/1

