# Tiled2Unity generated file. Do not modify by hand.
# Wavefront file for 'CoinCollecteMap2_mesh_0074.obj'

# Vertices (Count = 160)
v 0 -153600 0
v -3200 -153600 0
v -3200 -150400 0
v 0 -150400 0
v -3200 -153600 0
v -6400 -153600 0
v -6400 -150400 0
v -3200 -150400 0
v 0 -156800 0
v -3200 -156800 0
v -3200 -153600 0
v 0 -153600 0
v -3200 -156800 0
v -6400 -156800 0
v -6400 -153600 0
v -3200 -153600 0
v -6400 -156800 0
v -9600 -156800 0
v -9600 -153600 0
v -6400 -153600 0
v -9600 -156800 0
v -12800 -156800 0
v -12800 -153600 0
v -9600 -153600 0
v -12800 -156800 0
v -16000 -156800 0
v -16000 -153600 0
v -12800 -153600 0
v 0 -160000 0
v -3200 -160000 0
v -3200 -156800 0
v 0 -156800 0
v -3200 -160000 0
v -6400 -160000 0
v -6400 -156800 0
v -3200 -156800 0
v -6400 -160000 0
v -9600 -160000 0
v -9600 -156800 0
v -6400 -156800 0
v -9600 -160000 0
v -12800 -160000 0
v -12800 -156800 0
v -9600 -156800 0
v -12800 -160000 0
v -16000 -160000 0
v -16000 -156800 0
v -12800 -156800 0
v 0 -163200 0
v -3200 -163200 0
v -3200 -160000 0
v 0 -160000 0
v -3200 -163200 0
v -6400 -163200 0
v -6400 -160000 0
v -3200 -160000 0
v -6400 -163200 0
v -9600 -163200 0
v -9600 -160000 0
v -6400 -160000 0
v -9600 -163200 0
v -12800 -163200 0
v -12800 -160000 0
v -9600 -160000 0
v -12800 -163200 0
v -16000 -163200 0
v -16000 -160000 0
v -12800 -160000 0
v -115200 -163200 0
v -118400 -163200 0
v -118400 -160000 0
v -115200 -160000 0
v -118400 -163200 0
v -121600 -163200 0
v -121600 -160000 0
v -118400 -160000 0
v -121600 -163200 0
v -124800 -163200 0
v -124800 -160000 0
v -121600 -160000 0
v -128000 -163200 0
v -131200 -163200 0
v -131200 -160000 0
v -128000 -160000 0
v -131200 -163200 0
v -134400 -163200 0
v -134400 -160000 0
v -131200 -160000 0
v -6400 -166400 0
v -9600 -166400 0
v -9600 -163200 0
v -6400 -163200 0
v -9600 -166400 0
v -12800 -166400 0
v -12800 -163200 0
v -9600 -163200 0
v -12800 -166400 0
v -16000 -166400 0
v -16000 -163200 0
v -12800 -163200 0
v -115200 -166400 0
v -118400 -166400 0
v -118400 -163200 0
v -115200 -163200 0
v -118400 -166400 0
v -121600 -166400 0
v -121600 -163200 0
v -118400 -163200 0
v -121600 -166400 0
v -124800 -166400 0
v -124800 -163200 0
v -121600 -163200 0
v -128000 -166400 0
v -131200 -166400 0
v -131200 -163200 0
v -128000 -163200 0
v -131200 -166400 0
v -134400 -166400 0
v -134400 -163200 0
v -131200 -163200 0
v -115200 -169600 0
v -118400 -169600 0
v -118400 -166400 0
v -115200 -166400 0
v -118400 -169600 0
v -121600 -169600 0
v -121600 -166400 0
v -118400 -166400 0
v -121600 -169600 0
v -124800 -169600 0
v -124800 -166400 0
v -121600 -166400 0
v -128000 -169600 0
v -131200 -169600 0
v -131200 -166400 0
v -128000 -166400 0
v -131200 -169600 0
v -134400 -169600 0
v -134400 -166400 0
v -131200 -166400 0
v -115200 -172800 0
v -118400 -172800 0
v -118400 -169600 0
v -115200 -169600 0
v -118400 -172800 0
v -121600 -172800 0
v -121600 -169600 0
v -118400 -169600 0
v -121600 -172800 0
v -124800 -172800 0
v -124800 -169600 0
v -121600 -169600 0
v -128000 -172800 0
v -131200 -172800 0
v -131200 -169600 0
v -128000 -169600 0
v -131200 -172800 0
v -134400 -172800 0
v -134400 -169600 0
v -131200 -169600 0

# Texture cooridinates (Count = 20)
vt 0.6666667 0.4285714
vt 0.8333333 0.4285714
vt 0.8333333 0.5714285
vt 0.6666667 0.5714285
vt 1 0.4285714
vt 1 0.5714285
vt 0.6666667 0.2857143
vt 0.8333333 0.2857143
vt 1 0.2857143
vt 0.5 0.4285714
vt 0.5 0.5714285
vt 0.6666667 0.1428571
vt 0.8333333 0.1428571
vt 1 0.1428571
vt 0.5 0.2857143
vt 0.6666667 0
vt 0.8333333 0
vt 1 0
vt 0.5 0.1428571
vt 0.5 0

# Normal
vn 0 0 -1

# Mesh description
g CoinCollecteMap2_mesh_0074

# Faces
f 1/1/1 2/2/1 3/3/1 4/4/1
f 5/2/1 6/5/1 7/6/1 8/3/1
f 9/7/1 10/8/1 11/2/1 12/1/1
f 13/8/1 14/9/1 15/5/1 16/2/1
f 17/10/1 18/1/1 19/4/1 20/11/1
f 21/1/1 22/2/1 23/3/1 24/4/1
f 25/2/1 26/5/1 27/6/1 28/3/1
f 29/12/1 30/13/1 31/8/1 32/7/1
f 33/13/1 34/14/1 35/9/1 36/8/1
f 37/15/1 38/7/1 39/1/1 40/10/1
f 41/7/1 42/8/1 43/2/1 44/1/1
f 45/8/1 46/9/1 47/5/1 48/2/1
f 49/16/1 50/17/1 51/13/1 52/12/1
f 53/17/1 54/18/1 55/14/1 56/13/1
f 57/19/1 58/12/1 59/7/1 60/15/1
f 61/12/1 62/13/1 63/8/1 64/7/1
f 65/13/1 66/14/1 67/9/1 68/8/1
f 69/10/1 70/1/1 71/4/1 72/11/1
f 73/1/1 74/2/1 75/3/1 76/4/1
f 77/2/1 78/5/1 79/6/1 80/3/1
f 81/10/1 82/1/1 83/4/1 84/11/1
f 85/1/1 86/2/1 87/3/1 88/4/1
f 89/20/1 90/16/1 91/12/1 92/19/1
f 93/16/1 94/17/1 95/13/1 96/12/1
f 97/17/1 98/18/1 99/14/1 100/13/1
f 101/15/1 102/7/1 103/1/1 104/10/1
f 105/7/1 106/8/1 107/2/1 108/1/1
f 109/8/1 110/9/1 111/5/1 112/2/1
f 113/15/1 114/7/1 115/1/1 116/10/1
f 117/7/1 118/8/1 119/2/1 120/1/1
f 121/19/1 122/12/1 123/7/1 124/15/1
f 125/12/1 126/13/1 127/8/1 128/7/1
f 129/13/1 130/14/1 131/9/1 132/8/1
f 133/19/1 134/12/1 135/7/1 136/15/1
f 137/12/1 138/13/1 139/8/1 140/7/1
f 141/20/1 142/16/1 143/12/1 144/19/1
f 145/16/1 146/17/1 147/13/1 148/12/1
f 149/17/1 150/18/1 151/14/1 152/13/1
f 153/20/1 154/16/1 155/12/1 156/19/1
f 157/16/1 158/17/1 159/13/1 160/12/1

