# Tiled2Unity generated file. Do not modify by hand.
# Wavefront file for 'CoinCollecteMap2_mesh_0087.obj'

# Vertices (Count = 48)
v -9600 -217600 0
v -12800 -217600 0
v -12800 -214400 0
v -9600 -214400 0
v -12800 -217600 0
v -16000 -217600 0
v -16000 -214400 0
v -12800 -214400 0
v -16000 -217600 0
v -19200 -217600 0
v -19200 -214400 0
v -16000 -214400 0
v -9600 -220800 0
v -12800 -220800 0
v -12800 -217600 0
v -9600 -217600 0
v -12800 -220800 0
v -16000 -220800 0
v -16000 -217600 0
v -12800 -217600 0
v -16000 -220800 0
v -19200 -220800 0
v -19200 -217600 0
v -16000 -217600 0
v -9600 -224000 0
v -12800 -224000 0
v -12800 -220800 0
v -9600 -220800 0
v -12800 -224000 0
v -16000 -224000 0
v -16000 -220800 0
v -12800 -220800 0
v -16000 -224000 0
v -19200 -224000 0
v -19200 -220800 0
v -16000 -220800 0
v -9600 -227200 0
v -12800 -227200 0
v -12800 -224000 0
v -9600 -224000 0
v -12800 -227200 0
v -16000 -227200 0
v -16000 -224000 0
v -12800 -224000 0
v -16000 -227200 0
v -19200 -227200 0
v -19200 -224000 0
v -16000 -224000 0

# Texture cooridinates (Count = 20)
vt 0.5 0.4285714
vt 0.6666667 0.4285714
vt 0.6666667 0.5714285
vt 0.5 0.5714285
vt 0.8333333 0.4285714
vt 0.8333333 0.5714285
vt 1 0.4285714
vt 1 0.5714285
vt 0.5 0.2857143
vt 0.6666667 0.2857143
vt 0.8333333 0.2857143
vt 1 0.2857143
vt 0.5 0.1428571
vt 0.6666667 0.1428571
vt 0.8333333 0.1428571
vt 1 0.1428571
vt 0.5 0
vt 0.6666667 0
vt 0.8333333 0
vt 1 0

# Normal
vn 0 0 -1

# Mesh description
g CoinCollecteMap2_mesh_0087

# Faces
f 1/1/1 2/2/1 3/3/1 4/4/1
f 5/2/1 6/5/1 7/6/1 8/3/1
f 9/5/1 10/7/1 11/8/1 12/6/1
f 13/9/1 14/10/1 15/2/1 16/1/1
f 17/10/1 18/11/1 19/5/1 20/2/1
f 21/11/1 22/12/1 23/7/1 24/5/1
f 25/13/1 26/14/1 27/10/1 28/9/1
f 29/14/1 30/15/1 31/11/1 32/10/1
f 33/15/1 34/16/1 35/12/1 36/11/1
f 37/17/1 38/18/1 39/14/1 40/13/1
f 41/18/1 42/19/1 43/15/1 44/14/1
f 45/19/1 46/20/1 47/16/1 48/15/1

