# Tiled2Unity generated file. Do not modify by hand.
# Wavefront file for 'CoinCollecteMap2_mesh_0123.obj'

# Vertices (Count = 168)
v -41600 -249600 0
v -44800 -249600 0
v -44800 -246400 0
v -41600 -246400 0
v -44800 -249600 0
v -48000 -249600 0
v -48000 -246400 0
v -44800 -246400 0
v -48000 -249600 0
v -51200 -249600 0
v -51200 -246400 0
v -48000 -246400 0
v -64000 -249600 0
v -67200 -249600 0
v -67200 -246400 0
v -64000 -246400 0
v -67200 -249600 0
v -70400 -249600 0
v -70400 -246400 0
v -67200 -246400 0
v -70400 -249600 0
v -73600 -249600 0
v -73600 -246400 0
v -70400 -246400 0
v -28800 -252800 0
v -32000 -252800 0
v -32000 -249600 0
v -28800 -249600 0
v -32000 -252800 0
v -35200 -252800 0
v -35200 -249600 0
v -32000 -249600 0
v -35200 -252800 0
v -38400 -252800 0
v -38400 -249600 0
v -35200 -249600 0
v -41600 -252800 0
v -44800 -252800 0
v -44800 -249600 0
v -41600 -249600 0
v -44800 -252800 0
v -48000 -252800 0
v -48000 -249600 0
v -44800 -249600 0
v -48000 -252800 0
v -51200 -252800 0
v -51200 -249600 0
v -48000 -249600 0
v -64000 -252800 0
v -67200 -252800 0
v -67200 -249600 0
v -64000 -249600 0
v -67200 -252800 0
v -70400 -252800 0
v -70400 -249600 0
v -67200 -249600 0
v -70400 -252800 0
v -73600 -252800 0
v -73600 -249600 0
v -70400 -249600 0
v -89600 -252800 0
v -92800 -252800 0
v -92800 -249600 0
v -89600 -249600 0
v -92800 -252800 0
v -96000 -252800 0
v -96000 -249600 0
v -92800 -249600 0
v -96000 -252800 0
v -99200 -252800 0
v -99200 -249600 0
v -96000 -249600 0
v -105600 -252800 0
v -108800 -252800 0
v -108800 -249600 0
v -105600 -249600 0
v -108800 -252800 0
v -112000 -252800 0
v -112000 -249600 0
v -108800 -249600 0
v -112000 -252800 0
v -115200 -252800 0
v -115200 -249600 0
v -112000 -249600 0
v -19200 -256000 0
v -22400 -256000 0
v -22400 -252800 0
v -19200 -252800 0
v -22400 -256000 0
v -25600 -256000 0
v -25600 -252800 0
v -22400 -252800 0
v -25600 -256000 0
v -28800 -256000 0
v -28800 -252800 0
v -25600 -252800 0
v -28800 -256000 0
v -32000 -256000 0
v -32000 -252800 0
v -28800 -252800 0
v -32000 -256000 0
v -35200 -256000 0
v -35200 -252800 0
v -32000 -252800 0
v -35200 -256000 0
v -38400 -256000 0
v -38400 -252800 0
v -35200 -252800 0
v -41600 -256000 0
v -44800 -256000 0
v -44800 -252800 0
v -41600 -252800 0
v -44800 -256000 0
v -48000 -256000 0
v -48000 -252800 0
v -44800 -252800 0
v -48000 -256000 0
v -51200 -256000 0
v -51200 -252800 0
v -48000 -252800 0
v -64000 -256000 0
v -67200 -256000 0
v -67200 -252800 0
v -64000 -252800 0
v -67200 -256000 0
v -70400 -256000 0
v -70400 -252800 0
v -67200 -252800 0
v -70400 -256000 0
v -73600 -256000 0
v -73600 -252800 0
v -70400 -252800 0
v -76800 -256000 0
v -80000 -256000 0
v -80000 -252800 0
v -76800 -252800 0
v -80000 -256000 0
v -83200 -256000 0
v -83200 -252800 0
v -80000 -252800 0
v -83200 -256000 0
v -86400 -256000 0
v -86400 -252800 0
v -83200 -252800 0
v -89600 -256000 0
v -92800 -256000 0
v -92800 -252800 0
v -89600 -252800 0
v -92800 -256000 0
v -96000 -256000 0
v -96000 -252800 0
v -92800 -252800 0
v -96000 -256000 0
v -99200 -256000 0
v -99200 -252800 0
v -96000 -252800 0
v -105600 -256000 0
v -108800 -256000 0
v -108800 -252800 0
v -105600 -252800 0
v -108800 -256000 0
v -112000 -256000 0
v -112000 -252800 0
v -108800 -252800 0
v -112000 -256000 0
v -115200 -256000 0
v -115200 -252800 0
v -112000 -252800 0

# Texture cooridinates (Count = 25)
vt 0 0.4285714
vt 0.1666667 0.4285714
vt 0.1666667 0.5714285
vt 0 0.5714285
vt 0.3333333 0.4285714
vt 0.3333333 0.5714285
vt 0.5 0.4285714
vt 0.5 0.5714285
vt 0.6666667 0.4285714
vt 0.6666667 0.5714285
vt 0.8333333 0.4285714
vt 0.8333333 0.5714285
vt 1 0.4285714
vt 1 0.5714285
vt 0 0.2857143
vt 0.1666667 0.2857143
vt 0.3333333 0.2857143
vt 0.5 0.2857143
vt 0.6666667 0.2857143
vt 0.8333333 0.2857143
vt 1 0.2857143
vt 0 0.1428571
vt 0.1666667 0.1428571
vt 0.3333333 0.1428571
vt 0.5 0.1428571

# Normal
vn 0 0 -1

# Mesh description
g CoinCollecteMap2_mesh_0123

# Faces
f 1/1/1 2/2/1 3/3/1 4/4/1
f 5/2/1 6/5/1 7/6/1 8/3/1
f 9/5/1 10/7/1 11/8/1 12/6/1
f 13/1/1 14/2/1 15/3/1 16/4/1
f 17/2/1 18/5/1 19/6/1 20/3/1
f 21/5/1 22/7/1 23/8/1 24/6/1
f 25/7/1 26/9/1 27/10/1 28/8/1
f 29/9/1 30/11/1 31/12/1 32/10/1
f 33/11/1 34/13/1 35/14/1 36/12/1
f 37/15/1 38/16/1 39/2/1 40/1/1
f 41/16/1 42/17/1 43/5/1 44/2/1
f 45/17/1 46/18/1 47/7/1 48/5/1
f 49/15/1 50/16/1 51/2/1 52/1/1
f 53/16/1 54/17/1 55/5/1 56/2/1
f 57/17/1 58/18/1 59/7/1 60/5/1
f 61/7/1 62/9/1 63/10/1 64/8/1
f 65/9/1 66/11/1 67/12/1 68/10/1
f 69/11/1 70/13/1 71/14/1 72/12/1
f 73/1/1 74/2/1 75/3/1 76/4/1
f 77/2/1 78/5/1 79/6/1 80/3/1
f 81/5/1 82/7/1 83/8/1 84/6/1
f 85/1/1 86/2/1 87/3/1 88/4/1
f 89/2/1 90/5/1 91/6/1 92/3/1
f 93/5/1 94/7/1 95/8/1 96/6/1
f 97/18/1 98/19/1 99/9/1 100/7/1
f 101/19/1 102/20/1 103/11/1 104/9/1
f 105/20/1 106/21/1 107/13/1 108/11/1
f 109/22/1 110/23/1 111/16/1 112/15/1
f 113/23/1 114/24/1 115/17/1 116/16/1
f 117/24/1 118/25/1 119/18/1 120/17/1
f 121/22/1 122/23/1 123/16/1 124/15/1
f 125/23/1 126/24/1 127/17/1 128/16/1
f 129/24/1 130/25/1 131/18/1 132/17/1
f 133/1/1 134/2/1 135/3/1 136/4/1
f 137/2/1 138/5/1 139/6/1 140/3/1
f 141/5/1 142/7/1 143/8/1 144/6/1
f 145/18/1 146/19/1 147/9/1 148/7/1
f 149/19/1 150/20/1 151/11/1 152/9/1
f 153/20/1 154/21/1 155/13/1 156/11/1
f 157/15/1 158/16/1 159/2/1 160/1/1
f 161/16/1 162/17/1 163/5/1 164/2/1
f 165/17/1 166/18/1 167/7/1 168/5/1

