# Tiled2Unity generated file. Do not modify by hand.
# Wavefront file for 'CoinCollecteMap2_mesh_0027.obj'

# Vertices (Count = 120)
v 0 -160000 0
v -3200 -160000 0
v -3200 -156800 0
v 0 -156800 0
v -3200 -160000 0
v -6400 -160000 0
v -6400 -156800 0
v -3200 -156800 0
v 0 -163200 0
v -3200 -163200 0
v -3200 -160000 0
v 0 -160000 0
v -3200 -163200 0
v -6400 -163200 0
v -6400 -160000 0
v -3200 -160000 0
v -6400 -163200 0
v -9600 -163200 0
v -9600 -160000 0
v -6400 -160000 0
v -9600 -163200 0
v -12800 -163200 0
v -12800 -160000 0
v -9600 -160000 0
v -12800 -163200 0
v -16000 -163200 0
v -16000 -160000 0
v -12800 -160000 0
v 0 -166400 0
v -3200 -166400 0
v -3200 -163200 0
v 0 -163200 0
v -3200 -166400 0
v -6400 -166400 0
v -6400 -163200 0
v -3200 -163200 0
v -6400 -166400 0
v -9600 -166400 0
v -9600 -163200 0
v -6400 -163200 0
v -9600 -166400 0
v -12800 -166400 0
v -12800 -163200 0
v -9600 -163200 0
v -12800 -166400 0
v -16000 -166400 0
v -16000 -163200 0
v -12800 -163200 0
v -6400 -169600 0
v -9600 -169600 0
v -9600 -166400 0
v -6400 -166400 0
v -9600 -169600 0
v -12800 -169600 0
v -12800 -166400 0
v -9600 -166400 0
v -12800 -169600 0
v -16000 -169600 0
v -16000 -166400 0
v -12800 -166400 0
v -115200 -169600 0
v -118400 -169600 0
v -118400 -166400 0
v -115200 -166400 0
v -118400 -169600 0
v -121600 -169600 0
v -121600 -166400 0
v -118400 -166400 0
v -121600 -169600 0
v -124800 -169600 0
v -124800 -166400 0
v -121600 -166400 0
v -128000 -169600 0
v -131200 -169600 0
v -131200 -166400 0
v -128000 -166400 0
v -131200 -169600 0
v -134400 -169600 0
v -134400 -166400 0
v -131200 -166400 0
v -115200 -172800 0
v -118400 -172800 0
v -118400 -169600 0
v -115200 -169600 0
v -118400 -172800 0
v -121600 -172800 0
v -121600 -169600 0
v -118400 -169600 0
v -121600 -172800 0
v -124800 -172800 0
v -124800 -169600 0
v -121600 -169600 0
v -128000 -172800 0
v -131200 -172800 0
v -131200 -169600 0
v -128000 -169600 0
v -131200 -172800 0
v -134400 -172800 0
v -134400 -169600 0
v -131200 -169600 0
v -115200 -176000 0
v -118400 -176000 0
v -118400 -172800 0
v -115200 -172800 0
v -118400 -176000 0
v -121600 -176000 0
v -121600 -172800 0
v -118400 -172800 0
v -121600 -176000 0
v -124800 -176000 0
v -124800 -172800 0
v -121600 -172800 0
v -128000 -176000 0
v -131200 -176000 0
v -131200 -172800 0
v -128000 -172800 0
v -131200 -176000 0
v -134400 -176000 0
v -134400 -172800 0
v -131200 -172800 0

# Texture cooridinates (Count = 16)
vt 0.6666667 0.6666666
vt 0.8333333 0.6666666
vt 0.8333333 1
vt 0.6666667 1
vt 1 0.6666666
vt 1 1
vt 0.6666667 0.3333333
vt 0.8333333 0.3333333
vt 1 0.3333333
vt 0.5 0.6666666
vt 0.5 1
vt 0.6666667 0
vt 0.8333333 0
vt 1 0
vt 0.5 0.3333333
vt 0.5 0

# Normal
vn 0 0 -1

# Mesh description
g CoinCollecteMap2_mesh_0027

# Faces
f 1/1/1 2/2/1 3/3/1 4/4/1
f 5/2/1 6/5/1 7/6/1 8/3/1
f 9/7/1 10/8/1 11/2/1 12/1/1
f 13/8/1 14/9/1 15/5/1 16/2/1
f 17/10/1 18/1/1 19/4/1 20/11/1
f 21/1/1 22/2/1 23/3/1 24/4/1
f 25/2/1 26/5/1 27/6/1 28/3/1
f 29/12/1 30/13/1 31/8/1 32/7/1
f 33/13/1 34/14/1 35/9/1 36/8/1
f 37/15/1 38/7/1 39/1/1 40/10/1
f 41/7/1 42/8/1 43/2/1 44/1/1
f 45/8/1 46/9/1 47/5/1 48/2/1
f 49/16/1 50/12/1 51/7/1 52/15/1
f 53/12/1 54/13/1 55/8/1 56/7/1
f 57/13/1 58/14/1 59/9/1 60/8/1
f 61/10/1 62/1/1 63/4/1 64/11/1
f 65/1/1 66/2/1 67/3/1 68/4/1
f 69/2/1 70/5/1 71/6/1 72/3/1
f 73/10/1 74/1/1 75/4/1 76/11/1
f 77/1/1 78/2/1 79/3/1 80/4/1
f 81/15/1 82/7/1 83/1/1 84/10/1
f 85/7/1 86/8/1 87/2/1 88/1/1
f 89/8/1 90/9/1 91/5/1 92/2/1
f 93/15/1 94/7/1 95/1/1 96/10/1
f 97/7/1 98/8/1 99/2/1 100/1/1
f 101/16/1 102/12/1 103/7/1 104/15/1
f 105/12/1 106/13/1 107/8/1 108/7/1
f 109/13/1 110/14/1 111/9/1 112/8/1
f 113/16/1 114/12/1 115/7/1 116/15/1
f 117/12/1 118/13/1 119/8/1 120/7/1

