# Tiled2Unity generated file. Do not modify by hand.
# Wavefront file for 'CoinCollecteMap2_mesh_0177.obj'

# Vertices (Count = 580)
v -35200 -86400 0
v -38400 -86400 0
v -38400 -83200 0
v -35200 -83200 0
v -38400 -86400 0
v -41600 -86400 0
v -41600 -83200 0
v -38400 -83200 0
v -41600 -86400 0
v -44800 -86400 0
v -44800 -83200 0
v -41600 -83200 0
v -44800 -86400 0
v -48000 -86400 0
v -48000 -83200 0
v -44800 -83200 0
v -48000 -86400 0
v -51200 -86400 0
v -51200 -83200 0
v -48000 -83200 0
v -51200 -86400 0
v -54400 -86400 0
v -54400 -83200 0
v -51200 -83200 0
v -54400 -86400 0
v -57600 -86400 0
v -57600 -83200 0
v -54400 -83200 0
v -57600 -86400 0
v -60800 -86400 0
v -60800 -83200 0
v -57600 -83200 0
v -60800 -86400 0
v -64000 -86400 0
v -64000 -83200 0
v -60800 -83200 0
v -64000 -86400 0
v -67200 -86400 0
v -67200 -83200 0
v -64000 -83200 0
v -67200 -86400 0
v -70400 -86400 0
v -70400 -83200 0
v -67200 -83200 0
v -70400 -86400 0
v -73600 -86400 0
v -73600 -83200 0
v -70400 -83200 0
v -73600 -86400 0
v -76800 -86400 0
v -76800 -83200 0
v -73600 -83200 0
v -76800 -86400 0
v -80000 -86400 0
v -80000 -83200 0
v -76800 -83200 0
v -80000 -86400 0
v -83200 -86400 0
v -83200 -83200 0
v -80000 -83200 0
v -83200 -86400 0
v -86400 -86400 0
v -86400 -83200 0
v -83200 -83200 0
v -86400 -86400 0
v -89600 -86400 0
v -89600 -83200 0
v -86400 -83200 0
v -89600 -86400 0
v -92800 -86400 0
v -92800 -83200 0
v -89600 -83200 0
v -92800 -86400 0
v -96000 -86400 0
v -96000 -83200 0
v -92800 -83200 0
v -96000 -86400 0
v -99200 -86400 0
v -99200 -83200 0
v -96000 -83200 0
v -99200 -86400 0
v -102400 -86400 0
v -102400 -83200 0
v -99200 -83200 0
v -102400 -86400 0
v -105600 -86400 0
v -105600 -83200 0
v -102400 -83200 0
v -35200 -89600 0
v -38400 -89600 0
v -38400 -86400 0
v -35200 -86400 0
v -38400 -89600 0
v -41600 -89600 0
v -41600 -86400 0
v -38400 -86400 0
v -41600 -89600 0
v -44800 -89600 0
v -44800 -86400 0
v -41600 -86400 0
v -44800 -89600 0
v -48000 -89600 0
v -48000 -86400 0
v -44800 -86400 0
v -48000 -89600 0
v -51200 -89600 0
v -51200 -86400 0
v -48000 -86400 0
v -51200 -89600 0
v -54400 -89600 0
v -54400 -86400 0
v -51200 -86400 0
v -54400 -89600 0
v -57600 -89600 0
v -57600 -86400 0
v -54400 -86400 0
v -57600 -89600 0
v -60800 -89600 0
v -60800 -86400 0
v -57600 -86400 0
v -60800 -89600 0
v -64000 -89600 0
v -64000 -86400 0
v -60800 -86400 0
v -64000 -89600 0
v -67200 -89600 0
v -67200 -86400 0
v -64000 -86400 0
v -67200 -89600 0
v -70400 -89600 0
v -70400 -86400 0
v -67200 -86400 0
v -70400 -89600 0
v -73600 -89600 0
v -73600 -86400 0
v -70400 -86400 0
v -73600 -89600 0
v -76800 -89600 0
v -76800 -86400 0
v -73600 -86400 0
v -76800 -89600 0
v -80000 -89600 0
v -80000 -86400 0
v -76800 -86400 0
v -80000 -89600 0
v -83200 -89600 0
v -83200 -86400 0
v -80000 -86400 0
v -83200 -89600 0
v -86400 -89600 0
v -86400 -86400 0
v -83200 -86400 0
v -86400 -89600 0
v -89600 -89600 0
v -89600 -86400 0
v -86400 -86400 0
v -89600 -89600 0
v -92800 -89600 0
v -92800 -86400 0
v -89600 -86400 0
v -92800 -89600 0
v -96000 -89600 0
v -96000 -86400 0
v -92800 -86400 0
v -96000 -89600 0
v -99200 -89600 0
v -99200 -86400 0
v -96000 -86400 0
v -99200 -89600 0
v -102400 -89600 0
v -102400 -86400 0
v -99200 -86400 0
v -102400 -89600 0
v -105600 -89600 0
v -105600 -86400 0
v -102400 -86400 0
v -35200 -92800 0
v -38400 -92800 0
v -38400 -89600 0
v -35200 -89600 0
v -38400 -92800 0
v -41600 -92800 0
v -41600 -89600 0
v -38400 -89600 0
v -41600 -92800 0
v -44800 -92800 0
v -44800 -89600 0
v -41600 -89600 0
v -44800 -92800 0
v -48000 -92800 0
v -48000 -89600 0
v -44800 -89600 0
v -48000 -92800 0
v -51200 -92800 0
v -51200 -89600 0
v -48000 -89600 0
v -51200 -92800 0
v -54400 -92800 0
v -54400 -89600 0
v -51200 -89600 0
v -54400 -92800 0
v -57600 -92800 0
v -57600 -89600 0
v -54400 -89600 0
v -57600 -92800 0
v -60800 -92800 0
v -60800 -89600 0
v -57600 -89600 0
v -60800 -92800 0
v -64000 -92800 0
v -64000 -89600 0
v -60800 -89600 0
v -64000 -92800 0
v -67200 -92800 0
v -67200 -89600 0
v -64000 -89600 0
v -67200 -92800 0
v -70400 -92800 0
v -70400 -89600 0
v -67200 -89600 0
v -70400 -92800 0
v -73600 -92800 0
v -73600 -89600 0
v -70400 -89600 0
v -73600 -92800 0
v -76800 -92800 0
v -76800 -89600 0
v -73600 -89600 0
v -76800 -92800 0
v -80000 -92800 0
v -80000 -89600 0
v -76800 -89600 0
v -80000 -92800 0
v -83200 -92800 0
v -83200 -89600 0
v -80000 -89600 0
v -83200 -92800 0
v -86400 -92800 0
v -86400 -89600 0
v -83200 -89600 0
v -86400 -92800 0
v -89600 -92800 0
v -89600 -89600 0
v -86400 -89600 0
v -89600 -92800 0
v -92800 -92800 0
v -92800 -89600 0
v -89600 -89600 0
v -92800 -92800 0
v -96000 -92800 0
v -96000 -89600 0
v -92800 -89600 0
v -96000 -92800 0
v -99200 -92800 0
v -99200 -89600 0
v -96000 -89600 0
v -99200 -92800 0
v -102400 -92800 0
v -102400 -89600 0
v -99200 -89600 0
v -35200 -96000 0
v -38400 -96000 0
v -38400 -92800 0
v -35200 -92800 0
v -38400 -96000 0
v -41600 -96000 0
v -41600 -92800 0
v -38400 -92800 0
v -41600 -96000 0
v -44800 -96000 0
v -44800 -92800 0
v -41600 -92800 0
v -44800 -96000 0
v -48000 -96000 0
v -48000 -92800 0
v -44800 -92800 0
v -48000 -96000 0
v -51200 -96000 0
v -51200 -92800 0
v -48000 -92800 0
v -51200 -96000 0
v -54400 -96000 0
v -54400 -92800 0
v -51200 -92800 0
v -54400 -96000 0
v -57600 -96000 0
v -57600 -92800 0
v -54400 -92800 0
v -57600 -96000 0
v -60800 -96000 0
v -60800 -92800 0
v -57600 -92800 0
v -60800 -96000 0
v -64000 -96000 0
v -64000 -92800 0
v -60800 -92800 0
v -64000 -96000 0
v -67200 -96000 0
v -67200 -92800 0
v -64000 -92800 0
v -67200 -96000 0
v -70400 -96000 0
v -70400 -92800 0
v -67200 -92800 0
v -70400 -96000 0
v -73600 -96000 0
v -73600 -92800 0
v -70400 -92800 0
v -73600 -96000 0
v -76800 -96000 0
v -76800 -92800 0
v -73600 -92800 0
v -76800 -96000 0
v -80000 -96000 0
v -80000 -92800 0
v -76800 -92800 0
v -80000 -96000 0
v -83200 -96000 0
v -83200 -92800 0
v -80000 -92800 0
v -83200 -96000 0
v -86400 -96000 0
v -86400 -92800 0
v -83200 -92800 0
v -86400 -96000 0
v -89600 -96000 0
v -89600 -92800 0
v -86400 -92800 0
v -89600 -96000 0
v -92800 -96000 0
v -92800 -92800 0
v -89600 -92800 0
v -92800 -96000 0
v -96000 -96000 0
v -96000 -92800 0
v -92800 -92800 0
v -96000 -96000 0
v -99200 -96000 0
v -99200 -92800 0
v -96000 -92800 0
v -35200 -99200 0
v -38400 -99200 0
v -38400 -96000 0
v -35200 -96000 0
v -38400 -99200 0
v -41600 -99200 0
v -41600 -96000 0
v -38400 -96000 0
v -41600 -99200 0
v -44800 -99200 0
v -44800 -96000 0
v -41600 -96000 0
v -44800 -99200 0
v -48000 -99200 0
v -48000 -96000 0
v -44800 -96000 0
v -48000 -99200 0
v -51200 -99200 0
v -51200 -96000 0
v -48000 -96000 0
v -51200 -99200 0
v -54400 -99200 0
v -54400 -96000 0
v -51200 -96000 0
v -54400 -99200 0
v -57600 -99200 0
v -57600 -96000 0
v -54400 -96000 0
v -57600 -99200 0
v -60800 -99200 0
v -60800 -96000 0
v -57600 -96000 0
v -60800 -99200 0
v -64000 -99200 0
v -64000 -96000 0
v -60800 -96000 0
v -64000 -99200 0
v -67200 -99200 0
v -67200 -96000 0
v -64000 -96000 0
v -67200 -99200 0
v -70400 -99200 0
v -70400 -96000 0
v -67200 -96000 0
v -70400 -99200 0
v -73600 -99200 0
v -73600 -96000 0
v -70400 -96000 0
v -73600 -99200 0
v -76800 -99200 0
v -76800 -96000 0
v -73600 -96000 0
v -76800 -99200 0
v -80000 -99200 0
v -80000 -96000 0
v -76800 -96000 0
v -80000 -99200 0
v -83200 -99200 0
v -83200 -96000 0
v -80000 -96000 0
v -83200 -99200 0
v -86400 -99200 0
v -86400 -96000 0
v -83200 -96000 0
v -86400 -99200 0
v -89600 -99200 0
v -89600 -96000 0
v -86400 -96000 0
v -89600 -99200 0
v -92800 -99200 0
v -92800 -96000 0
v -89600 -96000 0
v -92800 -99200 0
v -96000 -99200 0
v -96000 -96000 0
v -92800 -96000 0
v -96000 -99200 0
v -99200 -99200 0
v -99200 -96000 0
v -96000 -96000 0
v -41600 -102400 0
v -44800 -102400 0
v -44800 -99200 0
v -41600 -99200 0
v -44800 -102400 0
v -48000 -102400 0
v -48000 -99200 0
v -44800 -99200 0
v -48000 -102400 0
v -51200 -102400 0
v -51200 -99200 0
v -48000 -99200 0
v -51200 -102400 0
v -54400 -102400 0
v -54400 -99200 0
v -51200 -99200 0
v -54400 -102400 0
v -57600 -102400 0
v -57600 -99200 0
v -54400 -99200 0
v -57600 -102400 0
v -60800 -102400 0
v -60800 -99200 0
v -57600 -99200 0
v -60800 -102400 0
v -64000 -102400 0
v -64000 -99200 0
v -60800 -99200 0
v -64000 -102400 0
v -67200 -102400 0
v -67200 -99200 0
v -64000 -99200 0
v -67200 -102400 0
v -70400 -102400 0
v -70400 -99200 0
v -67200 -99200 0
v -70400 -102400 0
v -73600 -102400 0
v -73600 -99200 0
v -70400 -99200 0
v -73600 -102400 0
v -76800 -102400 0
v -76800 -99200 0
v -73600 -99200 0
v -76800 -102400 0
v -80000 -102400 0
v -80000 -99200 0
v -76800 -99200 0
v -80000 -102400 0
v -83200 -102400 0
v -83200 -99200 0
v -80000 -99200 0
v -83200 -102400 0
v -86400 -102400 0
v -86400 -99200 0
v -83200 -99200 0
v -86400 -102400 0
v -89600 -102400 0
v -89600 -99200 0
v -86400 -99200 0
v -89600 -102400 0
v -92800 -102400 0
v -92800 -99200 0
v -89600 -99200 0
v -92800 -102400 0
v -96000 -102400 0
v -96000 -99200 0
v -92800 -99200 0
v -96000 -102400 0
v -99200 -102400 0
v -99200 -99200 0
v -96000 -99200 0
v -41600 -105600 0
v -44800 -105600 0
v -44800 -102400 0
v -41600 -102400 0
v -44800 -105600 0
v -48000 -105600 0
v -48000 -102400 0
v -44800 -102400 0
v -48000 -105600 0
v -51200 -105600 0
v -51200 -102400 0
v -48000 -102400 0
v -51200 -105600 0
v -54400 -105600 0
v -54400 -102400 0
v -51200 -102400 0
v -54400 -105600 0
v -57600 -105600 0
v -57600 -102400 0
v -54400 -102400 0
v -57600 -105600 0
v -60800 -105600 0
v -60800 -102400 0
v -57600 -102400 0
v -60800 -105600 0
v -64000 -105600 0
v -64000 -102400 0
v -60800 -102400 0
v -64000 -105600 0
v -67200 -105600 0
v -67200 -102400 0
v -64000 -102400 0
v -67200 -105600 0
v -70400 -105600 0
v -70400 -102400 0
v -67200 -102400 0
v -70400 -105600 0
v -73600 -105600 0
v -73600 -102400 0
v -70400 -102400 0
v -73600 -105600 0
v -76800 -105600 0
v -76800 -102400 0
v -73600 -102400 0
v -76800 -105600 0
v -80000 -105600 0
v -80000 -102400 0
v -76800 -102400 0
v -80000 -105600 0
v -83200 -105600 0
v -83200 -102400 0
v -80000 -102400 0
v -83200 -105600 0
v -86400 -105600 0
v -86400 -102400 0
v -83200 -102400 0
v -96000 -105600 0
v -99200 -105600 0
v -99200 -102400 0
v -96000 -102400 0
v -51200 -108800 0
v -54400 -108800 0
v -54400 -105600 0
v -51200 -105600 0
v -54400 -108800 0
v -57600 -108800 0
v -57600 -105600 0
v -54400 -105600 0
v -57600 -108800 0
v -60800 -108800 0
v -60800 -105600 0
v -57600 -105600 0
v -80000 -108800 0
v -83200 -108800 0
v -83200 -105600 0
v -80000 -105600 0
v -83200 -108800 0
v -86400 -108800 0
v -86400 -105600 0
v -83200 -105600 0
v -54400 -112000 0
v -57600 -112000 0
v -57600 -108800 0
v -54400 -108800 0
v -57600 -112000 0
v -60800 -112000 0
v -60800 -108800 0
v -57600 -108800 0

# Texture cooridinates (Count = 179)
vt 0.15311 0.7180617
vt 0.1837321 0.7180617
vt 0.1837321 0.7885463
vt 0.15311 0.7885463
vt 0.2143541 0.7180617
vt 0.2143541 0.7885463
vt 0.2449761 0.7180617
vt 0.2449761 0.7885463
vt 0.2755981 0.7180617
vt 0.2755981 0.7885463
vt 0.3062201 0.7180617
vt 0.3062201 0.7885463
vt 0.3368421 0.7180617
vt 0.3368421 0.7885463
vt 0.3674641 0.7180617
vt 0.3674641 0.7885463
vt 0.3980861 0.7180617
vt 0.3980861 0.7885463
vt 0.4287081 0.7180617
vt 0.4287081 0.7885463
vt 0.4593301 0.7180617
vt 0.4593301 0.7885463
vt 0.4899521 0.7180617
vt 0.4899521 0.7885463
vt 0.5205742 0.7180617
vt 0.5205742 0.7885463
vt 0.5511962 0.7180617
vt 0.5511962 0.7885463
vt 0.5818182 0.7180617
vt 0.5818182 0.7885463
vt 0.6124402 0.7180617
vt 0.6124402 0.7885463
vt 0.6430622 0.7180617
vt 0.6430622 0.7885463
vt 0.6736842 0.7180617
vt 0.6736842 0.7885463
vt 0.7043062 0.7180617
vt 0.7043062 0.7885463
vt 0.7349283 0.7180617
vt 0.7349283 0.7885463
vt 0.7655503 0.7180617
vt 0.7655503 0.7885463
vt 0.7961723 0.7180617
vt 0.7961723 0.7885463
vt 0.8267943 0.7180617
vt 0.8267943 0.7885463
vt 0.15311 0.6475771
vt 0.1837321 0.6475771
vt 0.2143541 0.6475771
vt 0.2449761 0.6475771
vt 0.2755981 0.6475771
vt 0.3062201 0.6475771
vt 0.3368421 0.6475771
vt 0.3674641 0.6475771
vt 0.3980861 0.6475771
vt 0.4287081 0.6475771
vt 0.4593301 0.6475771
vt 0.4899521 0.6475771
vt 0.5205742 0.6475771
vt 0.5511962 0.6475771
vt 0.5818182 0.6475771
vt 0.6124402 0.6475771
vt 0.6430622 0.6475771
vt 0.6736842 0.6475771
vt 0.7043062 0.6475771
vt 0.7349283 0.6475771
vt 0.7655503 0.6475771
vt 0.7961723 0.6475771
vt 0.8267943 0.6475771
vt 0.15311 0.5770925
vt 0.1837321 0.5770925
vt 0.2143541 0.5770925
vt 0.2449761 0.5770925
vt 0.2755981 0.5770925
vt 0.3062201 0.5770925
vt 0.3368421 0.5770925
vt 0.3674641 0.5770925
vt 0.3980861 0.5770925
vt 0.4287081 0.5770925
vt 0.4593301 0.5770925
vt 0.4899521 0.5770925
vt 0.5205742 0.5770925
vt 0.5511962 0.5770925
vt 0.5818182 0.5770925
vt 0.6124402 0.5770925
vt 0.6430622 0.5770925
vt 0.6736842 0.5770925
vt 0.7043062 0.5770925
vt 0.7349283 0.5770925
vt 0.7655503 0.5770925
vt 0.7961723 0.5770925
vt 0.15311 0.5066079
vt 0.1837321 0.5066079
vt 0.2143541 0.5066079
vt 0.2449761 0.5066079
vt 0.2755981 0.5066079
vt 0.3062201 0.5066079
vt 0.3368421 0.5066079
vt 0.3674641 0.5066079
vt 0.3980861 0.5066079
vt 0.4287081 0.5066079
vt 0.4593301 0.5066079
vt 0.4899521 0.5066079
vt 0.5205742 0.5066079
vt 0.5511962 0.5066079
vt 0.5818182 0.5066079
vt 0.6124402 0.5066079
vt 0.6430622 0.5066079
vt 0.6736842 0.5066079
vt 0.7043062 0.5066079
vt 0.7349283 0.5066079
vt 0.7655503 0.5066079
vt 0.15311 0.4361234
vt 0.1837321 0.4361234
vt 0.2143541 0.4361234
vt 0.2449761 0.4361234
vt 0.2755981 0.4361234
vt 0.3062201 0.4361234
vt 0.3368421 0.4361234
vt 0.3674641 0.4361234
vt 0.3980861 0.4361234
vt 0.4287081 0.4361234
vt 0.4593301 0.4361234
vt 0.4899521 0.4361234
vt 0.5205742 0.4361234
vt 0.5511962 0.4361234
vt 0.5818182 0.4361234
vt 0.6124402 0.4361234
vt 0.6430622 0.4361234
vt 0.6736842 0.4361234
vt 0.7043062 0.4361234
vt 0.7349283 0.4361234
vt 0.7655503 0.4361234
vt 0.2143541 0.3656388
vt 0.2449761 0.3656388
vt 0.2755981 0.3656388
vt 0.3062201 0.3656388
vt 0.3368421 0.3656388
vt 0.3674641 0.3656388
vt 0.3980861 0.3656388
vt 0.4287081 0.3656388
vt 0.4593301 0.3656388
vt 0.4899521 0.3656388
vt 0.5205742 0.3656388
vt 0.5511962 0.3656388
vt 0.5818182 0.3656388
vt 0.6124402 0.3656388
vt 0.6430622 0.3656388
vt 0.6736842 0.3656388
vt 0.7043062 0.3656388
vt 0.7349283 0.3656388
vt 0.7655503 0.3656388
vt 0.2143541 0.2951542
vt 0.2449761 0.2951542
vt 0.2755981 0.2951542
vt 0.3062201 0.2951542
vt 0.3368421 0.2951542
vt 0.3674641 0.2951542
vt 0.3980861 0.2951542
vt 0.4287081 0.2951542
vt 0.4593301 0.2951542
vt 0.4899521 0.2951542
vt 0.5205742 0.2951542
vt 0.5511962 0.2951542
vt 0.5818182 0.2951542
vt 0.6124402 0.2951542
vt 0.6430622 0.2951542
vt 0.7349283 0.2951542
vt 0.7655503 0.2951542
vt 0.3062201 0.2246696
vt 0.3368421 0.2246696
vt 0.3674641 0.2246696
vt 0.3980861 0.2246696
vt 0.5818182 0.2246696
vt 0.6124402 0.2246696
vt 0.6430622 0.2246696
vt 0.3368421 0.154185
vt 0.3674641 0.154185
vt 0.3980861 0.154185

# Normal
vn 0 0 -1

# Mesh description
g CoinCollecteMap2_mesh_0177

# Faces
f 1/1/1 2/2/1 3/3/1 4/4/1
f 5/2/1 6/5/1 7/6/1 8/3/1
f 9/5/1 10/7/1 11/8/1 12/6/1
f 13/7/1 14/9/1 15/10/1 16/8/1
f 17/9/1 18/11/1 19/12/1 20/10/1
f 21/11/1 22/13/1 23/14/1 24/12/1
f 25/13/1 26/15/1 27/16/1 28/14/1
f 29/15/1 30/17/1 31/18/1 32/16/1
f 33/17/1 34/19/1 35/20/1 36/18/1
f 37/19/1 38/21/1 39/22/1 40/20/1
f 41/21/1 42/23/1 43/24/1 44/22/1
f 45/23/1 46/25/1 47/26/1 48/24/1
f 49/25/1 50/27/1 51/28/1 52/26/1
f 53/27/1 54/29/1 55/30/1 56/28/1
f 57/29/1 58/31/1 59/32/1 60/30/1
f 61/31/1 62/33/1 63/34/1 64/32/1
f 65/33/1 66/35/1 67/36/1 68/34/1
f 69/35/1 70/37/1 71/38/1 72/36/1
f 73/37/1 74/39/1 75/40/1 76/38/1
f 77/39/1 78/41/1 79/42/1 80/40/1
f 81/41/1 82/43/1 83/44/1 84/42/1
f 85/43/1 86/45/1 87/46/1 88/44/1
f 89/47/1 90/48/1 91/2/1 92/1/1
f 93/48/1 94/49/1 95/5/1 96/2/1
f 97/49/1 98/50/1 99/7/1 100/5/1
f 101/50/1 102/51/1 103/9/1 104/7/1
f 105/51/1 106/52/1 107/11/1 108/9/1
f 109/52/1 110/53/1 111/13/1 112/11/1
f 113/53/1 114/54/1 115/15/1 116/13/1
f 117/54/1 118/55/1 119/17/1 120/15/1
f 121/55/1 122/56/1 123/19/1 124/17/1
f 125/56/1 126/57/1 127/21/1 128/19/1
f 129/57/1 130/58/1 131/23/1 132/21/1
f 133/58/1 134/59/1 135/25/1 136/23/1
f 137/59/1 138/60/1 139/27/1 140/25/1
f 141/60/1 142/61/1 143/29/1 144/27/1
f 145/61/1 146/62/1 147/31/1 148/29/1
f 149/62/1 150/63/1 151/33/1 152/31/1
f 153/63/1 154/64/1 155/35/1 156/33/1
f 157/64/1 158/65/1 159/37/1 160/35/1
f 161/65/1 162/66/1 163/39/1 164/37/1
f 165/66/1 166/67/1 167/41/1 168/39/1
f 169/67/1 170/68/1 171/43/1 172/41/1
f 173/68/1 174/69/1 175/45/1 176/43/1
f 177/70/1 178/71/1 179/48/1 180/47/1
f 181/71/1 182/72/1 183/49/1 184/48/1
f 185/72/1 186/73/1 187/50/1 188/49/1
f 189/73/1 190/74/1 191/51/1 192/50/1
f 193/74/1 194/75/1 195/52/1 196/51/1
f 197/75/1 198/76/1 199/53/1 200/52/1
f 201/76/1 202/77/1 203/54/1 204/53/1
f 205/77/1 206/78/1 207/55/1 208/54/1
f 209/78/1 210/79/1 211/56/1 212/55/1
f 213/79/1 214/80/1 215/57/1 216/56/1
f 217/80/1 218/81/1 219/58/1 220/57/1
f 221/81/1 222/82/1 223/59/1 224/58/1
f 225/82/1 226/83/1 227/60/1 228/59/1
f 229/83/1 230/84/1 231/61/1 232/60/1
f 233/84/1 234/85/1 235/62/1 236/61/1
f 237/85/1 238/86/1 239/63/1 240/62/1
f 241/86/1 242/87/1 243/64/1 244/63/1
f 245/87/1 246/88/1 247/65/1 248/64/1
f 249/88/1 250/89/1 251/66/1 252/65/1
f 253/89/1 254/90/1 255/67/1 256/66/1
f 257/90/1 258/91/1 259/68/1 260/67/1
f 261/92/1 262/93/1 263/71/1 264/70/1
f 265/93/1 266/94/1 267/72/1 268/71/1
f 269/94/1 270/95/1 271/73/1 272/72/1
f 273/95/1 274/96/1 275/74/1 276/73/1
f 277/96/1 278/97/1 279/75/1 280/74/1
f 281/97/1 282/98/1 283/76/1 284/75/1
f 285/98/1 286/99/1 287/77/1 288/76/1
f 289/99/1 290/100/1 291/78/1 292/77/1
f 293/100/1 294/101/1 295/79/1 296/78/1
f 297/101/1 298/102/1 299/80/1 300/79/1
f 301/102/1 302/103/1 303/81/1 304/80/1
f 305/103/1 306/104/1 307/82/1 308/81/1
f 309/104/1 310/105/1 311/83/1 312/82/1
f 313/105/1 314/106/1 315/84/1 316/83/1
f 317/106/1 318/107/1 319/85/1 320/84/1
f 321/107/1 322/108/1 323/86/1 324/85/1
f 325/108/1 326/109/1 327/87/1 328/86/1
f 329/109/1 330/110/1 331/88/1 332/87/1
f 333/110/1 334/111/1 335/89/1 336/88/1
f 337/111/1 338/112/1 339/90/1 340/89/1
f 341/113/1 342/114/1 343/93/1 344/92/1
f 345/114/1 346/115/1 347/94/1 348/93/1
f 349/115/1 350/116/1 351/95/1 352/94/1
f 353/116/1 354/117/1 355/96/1 356/95/1
f 357/117/1 358/118/1 359/97/1 360/96/1
f 361/118/1 362/119/1 363/98/1 364/97/1
f 365/119/1 366/120/1 367/99/1 368/98/1
f 369/120/1 370/121/1 371/100/1 372/99/1
f 373/121/1 374/122/1 375/101/1 376/100/1
f 377/122/1 378/123/1 379/102/1 380/101/1
f 381/123/1 382/124/1 383/103/1 384/102/1
f 385/124/1 386/125/1 387/104/1 388/103/1
f 389/125/1 390/126/1 391/105/1 392/104/1
f 393/126/1 394/127/1 395/106/1 396/105/1
f 397/127/1 398/128/1 399/107/1 400/106/1
f 401/128/1 402/129/1 403/108/1 404/107/1
f 405/129/1 406/130/1 407/109/1 408/108/1
f 409/130/1 410/131/1 411/110/1 412/109/1
f 413/131/1 414/132/1 415/111/1 416/110/1
f 417/132/1 418/133/1 419/112/1 420/111/1
f 421/134/1 422/135/1 423/116/1 424/115/1
f 425/135/1 426/136/1 427/117/1 428/116/1
f 429/136/1 430/137/1 431/118/1 432/117/1
f 433/137/1 434/138/1 435/119/1 436/118/1
f 437/138/1 438/139/1 439/120/1 440/119/1
f 441/139/1 442/140/1 443/121/1 444/120/1
f 445/140/1 446/141/1 447/122/1 448/121/1
f 449/141/1 450/142/1 451/123/1 452/122/1
f 453/142/1 454/143/1 455/124/1 456/123/1
f 457/143/1 458/144/1 459/125/1 460/124/1
f 461/144/1 462/145/1 463/126/1 464/125/1
f 465/145/1 466/146/1 467/127/1 468/126/1
f 469/146/1 470/147/1 471/128/1 472/127/1
f 473/147/1 474/148/1 475/129/1 476/128/1
f 477/148/1 478/149/1 479/130/1 480/129/1
f 481/149/1 482/150/1 483/131/1 484/130/1
f 485/150/1 486/151/1 487/132/1 488/131/1
f 489/151/1 490/152/1 491/133/1 492/132/1
f 493/153/1 494/154/1 495/135/1 496/134/1
f 497/154/1 498/155/1 499/136/1 500/135/1
f 501/155/1 502/156/1 503/137/1 504/136/1
f 505/156/1 506/157/1 507/138/1 508/137/1
f 509/157/1 510/158/1 511/139/1 512/138/1
f 513/158/1 514/159/1 515/140/1 516/139/1
f 517/159/1 518/160/1 519/141/1 520/140/1
f 521/160/1 522/161/1 523/142/1 524/141/1
f 525/161/1 526/162/1 527/143/1 528/142/1
f 529/162/1 530/163/1 531/144/1 532/143/1
f 533/163/1 534/164/1 535/145/1 536/144/1
f 537/164/1 538/165/1 539/146/1 540/145/1
f 541/165/1 542/166/1 543/147/1 544/146/1
f 545/166/1 546/167/1 547/148/1 548/147/1
f 549/168/1 550/169/1 551/152/1 552/151/1
f 553/170/1 554/171/1 555/157/1 556/156/1
f 557/171/1 558/172/1 559/158/1 560/157/1
f 561/172/1 562/173/1 563/159/1 564/158/1
f 565/174/1 566/175/1 567/166/1 568/165/1
f 569/175/1 570/176/1 571/167/1 572/166/1
f 573/177/1 574/178/1 575/172/1 576/171/1
f 577/178/1 578/179/1 579/173/1 580/172/1

