# Tiled2Unity generated file. Do not modify by hand.
# Wavefront file for 'CoinCollecteMap2_mesh_0144.obj'

# Vertices (Count = 140)
v -19200 -140800 0
v -22400 -140800 0
v -22400 -137600 0
v -19200 -137600 0
v -22400 -140800 0
v -25600 -140800 0
v -25600 -137600 0
v -22400 -137600 0
v -25600 -140800 0
v -28800 -140800 0
v -28800 -137600 0
v -25600 -137600 0
v -105600 -140800 0
v -108800 -140800 0
v -108800 -137600 0
v -105600 -137600 0
v -108800 -140800 0
v -112000 -140800 0
v -112000 -137600 0
v -108800 -137600 0
v -112000 -140800 0
v -115200 -140800 0
v -115200 -137600 0
v -112000 -137600 0
v -19200 -144000 0
v -22400 -144000 0
v -22400 -140800 0
v -19200 -140800 0
v -22400 -144000 0
v -25600 -144000 0
v -25600 -140800 0
v -22400 -140800 0
v -25600 -144000 0
v -28800 -144000 0
v -28800 -140800 0
v -25600 -140800 0
v -105600 -144000 0
v -108800 -144000 0
v -108800 -140800 0
v -105600 -140800 0
v -108800 -144000 0
v -112000 -144000 0
v -112000 -140800 0
v -108800 -140800 0
v -112000 -144000 0
v -115200 -144000 0
v -115200 -140800 0
v -112000 -140800 0
v -19200 -147200 0
v -22400 -147200 0
v -22400 -144000 0
v -19200 -144000 0
v -22400 -147200 0
v -25600 -147200 0
v -25600 -144000 0
v -22400 -144000 0
v -25600 -147200 0
v -28800 -147200 0
v -28800 -144000 0
v -25600 -144000 0
v -99200 -147200 0
v -102400 -147200 0
v -102400 -144000 0
v -99200 -144000 0
v -102400 -147200 0
v -105600 -147200 0
v -105600 -144000 0
v -102400 -144000 0
v -105600 -147200 0
v -108800 -147200 0
v -108800 -144000 0
v -105600 -144000 0
v -108800 -147200 0
v -112000 -147200 0
v -112000 -144000 0
v -108800 -144000 0
v -112000 -147200 0
v -115200 -147200 0
v -115200 -144000 0
v -112000 -144000 0
v -99200 -150400 0
v -102400 -150400 0
v -102400 -147200 0
v -99200 -147200 0
v -102400 -150400 0
v -105600 -150400 0
v -105600 -147200 0
v -102400 -147200 0
v -105600 -150400 0
v -108800 -150400 0
v -108800 -147200 0
v -105600 -147200 0
v -19200 -153600 0
v -22400 -153600 0
v -22400 -150400 0
v -19200 -150400 0
v -22400 -153600 0
v -25600 -153600 0
v -25600 -150400 0
v -22400 -150400 0
v -25600 -153600 0
v -28800 -153600 0
v -28800 -150400 0
v -25600 -150400 0
v -99200 -153600 0
v -102400 -153600 0
v -102400 -150400 0
v -99200 -150400 0
v -102400 -153600 0
v -105600 -153600 0
v -105600 -150400 0
v -102400 -150400 0
v -105600 -153600 0
v -108800 -153600 0
v -108800 -150400 0
v -105600 -150400 0
v -19200 -156800 0
v -22400 -156800 0
v -22400 -153600 0
v -19200 -153600 0
v -22400 -156800 0
v -25600 -156800 0
v -25600 -153600 0
v -22400 -153600 0
v -25600 -156800 0
v -28800 -156800 0
v -28800 -153600 0
v -25600 -153600 0
v -19200 -160000 0
v -22400 -160000 0
v -22400 -156800 0
v -19200 -156800 0
v -22400 -160000 0
v -25600 -160000 0
v -25600 -156800 0
v -22400 -156800 0
v -25600 -160000 0
v -28800 -160000 0
v -28800 -156800 0
v -25600 -156800 0

# Texture cooridinates (Count = 16)
vt 0.5 0.6666666
vt 0.6666667 0.6666666
vt 0.6666667 1
vt 0.5 1
vt 0.8333333 0.6666666
vt 0.8333333 1
vt 1 0.6666666
vt 1 1
vt 0.5 0.3333333
vt 0.6666667 0.3333333
vt 0.8333333 0.3333333
vt 1 0.3333333
vt 0.5 0
vt 0.6666667 0
vt 0.8333333 0
vt 1 0

# Normal
vn 0 0 -1

# Mesh description
g CoinCollecteMap2_mesh_0144

# Faces
f 1/1/1 2/2/1 3/3/1 4/4/1
f 5/2/1 6/5/1 7/6/1 8/3/1
f 9/5/1 10/7/1 11/8/1 12/6/1
f 13/1/1 14/2/1 15/3/1 16/4/1
f 17/2/1 18/5/1 19/6/1 20/3/1
f 21/5/1 22/7/1 23/8/1 24/6/1
f 25/9/1 26/10/1 27/2/1 28/1/1
f 29/10/1 30/11/1 31/5/1 32/2/1
f 33/11/1 34/12/1 35/7/1 36/5/1
f 37/9/1 38/10/1 39/2/1 40/1/1
f 41/10/1 42/11/1 43/5/1 44/2/1
f 45/11/1 46/12/1 47/7/1 48/5/1
f 49/13/1 50/14/1 51/10/1 52/9/1
f 53/14/1 54/15/1 55/11/1 56/10/1
f 57/15/1 58/16/1 59/12/1 60/11/1
f 61/1/1 62/2/1 63/3/1 64/4/1
f 65/2/1 66/5/1 67/6/1 68/3/1
f 69/5/1 70/7/1 71/8/1 72/6/1
f 73/14/1 74/15/1 75/11/1 76/10/1
f 77/15/1 78/16/1 79/12/1 80/11/1
f 81/9/1 82/10/1 83/2/1 84/1/1
f 85/10/1 86/11/1 87/5/1 88/2/1
f 89/11/1 90/12/1 91/7/1 92/5/1
f 93/1/1 94/2/1 95/3/1 96/4/1
f 97/2/1 98/5/1 99/6/1 100/3/1
f 101/5/1 102/7/1 103/8/1 104/6/1
f 105/13/1 106/14/1 107/10/1 108/9/1
f 109/14/1 110/15/1 111/11/1 112/10/1
f 113/15/1 114/16/1 115/12/1 116/11/1
f 117/9/1 118/10/1 119/2/1 120/1/1
f 121/10/1 122/11/1 123/5/1 124/2/1
f 125/11/1 126/12/1 127/7/1 128/5/1
f 129/13/1 130/14/1 131/10/1 132/9/1
f 133/14/1 134/15/1 135/11/1 136/10/1
f 137/15/1 138/16/1 139/12/1 140/11/1

