# Tiled2Unity generated file. Do not modify by hand.
# Wavefront file for 'CoinCollecteMap2_mesh_0098.obj'

# Vertices (Count = 84)
v -105600 -185600 0
v -108800 -185600 0
v -108800 -182400 0
v -105600 -182400 0
v -108800 -185600 0
v -112000 -185600 0
v -112000 -182400 0
v -108800 -182400 0
v -112000 -185600 0
v -115200 -185600 0
v -115200 -182400 0
v -112000 -182400 0
v -16000 -188800 0
v -19200 -188800 0
v -19200 -185600 0
v -16000 -185600 0
v -19200 -188800 0
v -22400 -188800 0
v -22400 -185600 0
v -19200 -185600 0
v -22400 -188800 0
v -25600 -188800 0
v -25600 -185600 0
v -22400 -185600 0
v -25600 -188800 0
v -28800 -188800 0
v -28800 -185600 0
v -25600 -185600 0
v -105600 -188800 0
v -108800 -188800 0
v -108800 -185600 0
v -105600 -185600 0
v -108800 -188800 0
v -112000 -188800 0
v -112000 -185600 0
v -108800 -185600 0
v -112000 -188800 0
v -115200 -188800 0
v -115200 -185600 0
v -112000 -185600 0
v -16000 -192000 0
v -19200 -192000 0
v -19200 -188800 0
v -16000 -188800 0
v -19200 -192000 0
v -22400 -192000 0
v -22400 -188800 0
v -19200 -188800 0
v -22400 -192000 0
v -25600 -192000 0
v -25600 -188800 0
v -22400 -188800 0
v -25600 -192000 0
v -28800 -192000 0
v -28800 -188800 0
v -25600 -188800 0
v -105600 -192000 0
v -108800 -192000 0
v -108800 -188800 0
v -105600 -188800 0
v -108800 -192000 0
v -112000 -192000 0
v -112000 -188800 0
v -108800 -188800 0
v -112000 -192000 0
v -115200 -192000 0
v -115200 -188800 0
v -112000 -188800 0
v -16000 -195200 0
v -19200 -195200 0
v -19200 -192000 0
v -16000 -192000 0
v -19200 -195200 0
v -22400 -195200 0
v -22400 -192000 0
v -19200 -192000 0
v -22400 -195200 0
v -25600 -195200 0
v -25600 -192000 0
v -22400 -192000 0
v -25600 -195200 0
v -28800 -195200 0
v -28800 -192000 0
v -25600 -192000 0

# Texture cooridinates (Count = 16)
vt 0.5 0.6666666
vt 0.6666667 0.6666666
vt 0.6666667 1
vt 0.5 1
vt 0.8333333 0.6666666
vt 0.8333333 1
vt 1 0.6666666
vt 1 1
vt 0.5 0.3333333
vt 0.6666667 0.3333333
vt 0.8333333 0.3333333
vt 1 0.3333333
vt 0.5 0
vt 0.6666667 0
vt 0.8333333 0
vt 1 0

# Normal
vn 0 0 -1

# Mesh description
g CoinCollecteMap2_mesh_0098

# Faces
f 1/1/1 2/2/1 3/3/1 4/4/1
f 5/2/1 6/5/1 7/6/1 8/3/1
f 9/5/1 10/7/1 11/8/1 12/6/1
f 13/5/1 14/7/1 15/8/1 16/6/1
f 17/1/1 18/2/1 19/3/1 20/4/1
f 21/2/1 22/5/1 23/6/1 24/3/1
f 25/5/1 26/7/1 27/8/1 28/6/1
f 29/9/1 30/10/1 31/2/1 32/1/1
f 33/10/1 34/11/1 35/5/1 36/2/1
f 37/11/1 38/12/1 39/7/1 40/5/1
f 41/11/1 42/12/1 43/7/1 44/5/1
f 45/9/1 46/10/1 47/2/1 48/1/1
f 49/10/1 50/11/1 51/5/1 52/2/1
f 53/11/1 54/12/1 55/7/1 56/5/1
f 57/13/1 58/14/1 59/10/1 60/9/1
f 61/14/1 62/15/1 63/11/1 64/10/1
f 65/15/1 66/16/1 67/12/1 68/11/1
f 69/15/1 70/16/1 71/12/1 72/11/1
f 73/13/1 74/14/1 75/10/1 76/9/1
f 77/14/1 78/15/1 79/11/1 80/10/1
f 81/15/1 82/16/1 83/12/1 84/11/1

