# Tiled2Unity generated file. Do not modify by hand.
# Wavefront file for 'CoinCollecteMap2_mesh_0077.obj'

# Vertices (Count = 60)
v 0 -169600 0
v -3200 -169600 0
v -3200 -166400 0
v 0 -166400 0
v -3200 -169600 0
v -6400 -169600 0
v -6400 -166400 0
v -3200 -166400 0
v -6400 -169600 0
v -9600 -169600 0
v -9600 -166400 0
v -6400 -166400 0
v -9600 -169600 0
v -12800 -169600 0
v -12800 -166400 0
v -9600 -166400 0
v -12800 -169600 0
v -16000 -169600 0
v -16000 -166400 0
v -12800 -166400 0
v 0 -172800 0
v -3200 -172800 0
v -3200 -169600 0
v 0 -169600 0
v -3200 -172800 0
v -6400 -172800 0
v -6400 -169600 0
v -3200 -169600 0
v -6400 -172800 0
v -9600 -172800 0
v -9600 -169600 0
v -6400 -169600 0
v -9600 -172800 0
v -12800 -172800 0
v -12800 -169600 0
v -9600 -169600 0
v -12800 -172800 0
v -16000 -172800 0
v -16000 -169600 0
v -12800 -169600 0
v 0 -176000 0
v -3200 -176000 0
v -3200 -172800 0
v 0 -172800 0
v -3200 -176000 0
v -6400 -176000 0
v -6400 -172800 0
v -3200 -172800 0
v -6400 -176000 0
v -9600 -176000 0
v -9600 -172800 0
v -6400 -172800 0
v -9600 -176000 0
v -12800 -176000 0
v -12800 -172800 0
v -9600 -172800 0
v -12800 -176000 0
v -16000 -176000 0
v -16000 -172800 0
v -12800 -172800 0

# Texture cooridinates (Count = 16)
vt 0.1666667 0.8571429
vt 0.3333333 0.8571429
vt 0.3333333 1
vt 0.1666667 1
vt 0.5 0.8571429
vt 0.5 1
vt 0 0.8571429
vt 0 1
vt 0.1666667 0.7142857
vt 0.3333333 0.7142857
vt 0.5 0.7142857
vt 0 0.7142857
vt 0.1666667 0.5714285
vt 0.3333333 0.5714285
vt 0.5 0.5714285
vt 0 0.5714285

# Normal
vn 0 0 -1

# Mesh description
g CoinCollecteMap2_mesh_0077

# Faces
f 1/1/1 2/2/1 3/3/1 4/4/1
f 5/2/1 6/5/1 7/6/1 8/3/1
f 9/7/1 10/1/1 11/4/1 12/8/1
f 13/1/1 14/2/1 15/3/1 16/4/1
f 17/2/1 18/5/1 19/6/1 20/3/1
f 21/9/1 22/10/1 23/2/1 24/1/1
f 25/10/1 26/11/1 27/5/1 28/2/1
f 29/12/1 30/9/1 31/1/1 32/7/1
f 33/9/1 34/10/1 35/2/1 36/1/1
f 37/10/1 38/11/1 39/5/1 40/2/1
f 41/13/1 42/14/1 43/10/1 44/9/1
f 45/14/1 46/15/1 47/11/1 48/10/1
f 49/16/1 50/13/1 51/9/1 52/12/1
f 53/13/1 54/14/1 55/10/1 56/9/1
f 57/14/1 58/15/1 59/11/1 60/10/1

