# Tiled2Unity generated file. Do not modify by hand.
# Wavefront file for 'CoinCollecteMap2_mesh_0160.obj'

# Vertices (Count = 144)
v -54400 -201600 0
v -57600 -201600 0
v -57600 -198400 0
v -54400 -198400 0
v -57600 -201600 0
v -60800 -201600 0
v -60800 -198400 0
v -57600 -198400 0
v -60800 -201600 0
v -64000 -201600 0
v -64000 -198400 0
v -60800 -198400 0
v -86400 -201600 0
v -89600 -201600 0
v -89600 -198400 0
v -86400 -198400 0
v -89600 -201600 0
v -92800 -201600 0
v -92800 -198400 0
v -89600 -198400 0
v -92800 -201600 0
v -96000 -201600 0
v -96000 -198400 0
v -92800 -198400 0
v -41600 -204800 0
v -44800 -204800 0
v -44800 -201600 0
v -41600 -201600 0
v -44800 -204800 0
v -48000 -204800 0
v -48000 -201600 0
v -44800 -201600 0
v -48000 -204800 0
v -51200 -204800 0
v -51200 -201600 0
v -48000 -201600 0
v -54400 -204800 0
v -57600 -204800 0
v -57600 -201600 0
v -54400 -201600 0
v -57600 -204800 0
v -60800 -204800 0
v -60800 -201600 0
v -57600 -201600 0
v -60800 -204800 0
v -64000 -204800 0
v -64000 -201600 0
v -60800 -201600 0
v -70400 -204800 0
v -73600 -204800 0
v -73600 -201600 0
v -70400 -201600 0
v -73600 -204800 0
v -76800 -204800 0
v -76800 -201600 0
v -73600 -201600 0
v -76800 -204800 0
v -80000 -204800 0
v -80000 -201600 0
v -76800 -201600 0
v -86400 -204800 0
v -89600 -204800 0
v -89600 -201600 0
v -86400 -201600 0
v -89600 -204800 0
v -92800 -204800 0
v -92800 -201600 0
v -89600 -201600 0
v -92800 -204800 0
v -96000 -204800 0
v -96000 -201600 0
v -92800 -201600 0
v -41600 -208000 0
v -44800 -208000 0
v -44800 -204800 0
v -41600 -204800 0
v -44800 -208000 0
v -48000 -208000 0
v -48000 -204800 0
v -44800 -204800 0
v -48000 -208000 0
v -51200 -208000 0
v -51200 -204800 0
v -48000 -204800 0
v -54400 -208000 0
v -57600 -208000 0
v -57600 -204800 0
v -54400 -204800 0
v -57600 -208000 0
v -60800 -208000 0
v -60800 -204800 0
v -57600 -204800 0
v -60800 -208000 0
v -64000 -208000 0
v -64000 -204800 0
v -60800 -204800 0
v -70400 -208000 0
v -73600 -208000 0
v -73600 -204800 0
v -70400 -204800 0
v -73600 -208000 0
v -76800 -208000 0
v -76800 -204800 0
v -73600 -204800 0
v -76800 -208000 0
v -80000 -208000 0
v -80000 -204800 0
v -76800 -204800 0
v -86400 -208000 0
v -89600 -208000 0
v -89600 -204800 0
v -86400 -204800 0
v -89600 -208000 0
v -92800 -208000 0
v -92800 -204800 0
v -89600 -204800 0
v -92800 -208000 0
v -96000 -208000 0
v -96000 -204800 0
v -92800 -204800 0
v -41600 -211200 0
v -44800 -211200 0
v -44800 -208000 0
v -41600 -208000 0
v -44800 -211200 0
v -48000 -211200 0
v -48000 -208000 0
v -44800 -208000 0
v -48000 -211200 0
v -51200 -211200 0
v -51200 -208000 0
v -48000 -208000 0
v -70400 -211200 0
v -73600 -211200 0
v -73600 -208000 0
v -70400 -208000 0
v -73600 -211200 0
v -76800 -211200 0
v -76800 -208000 0
v -73600 -208000 0
v -76800 -211200 0
v -80000 -211200 0
v -80000 -208000 0
v -76800 -208000 0

# Texture cooridinates (Count = 16)
vt 0.5 0.6666666
vt 0.6666667 0.6666666
vt 0.6666667 1
vt 0.5 1
vt 0.8333333 0.6666666
vt 0.8333333 1
vt 1 0.6666666
vt 1 1
vt 0.5 0.3333333
vt 0.6666667 0.3333333
vt 0.8333333 0.3333333
vt 1 0.3333333
vt 0.5 0
vt 0.6666667 0
vt 0.8333333 0
vt 1 0

# Normal
vn 0 0 -1

# Mesh description
g CoinCollecteMap2_mesh_0160

# Faces
f 1/1/1 2/2/1 3/3/1 4/4/1
f 5/2/1 6/5/1 7/6/1 8/3/1
f 9/5/1 10/7/1 11/8/1 12/6/1
f 13/1/1 14/2/1 15/3/1 16/4/1
f 17/2/1 18/5/1 19/6/1 20/3/1
f 21/5/1 22/7/1 23/8/1 24/6/1
f 25/1/1 26/2/1 27/3/1 28/4/1
f 29/2/1 30/5/1 31/6/1 32/3/1
f 33/5/1 34/7/1 35/8/1 36/6/1
f 37/9/1 38/10/1 39/2/1 40/1/1
f 41/10/1 42/11/1 43/5/1 44/2/1
f 45/11/1 46/12/1 47/7/1 48/5/1
f 49/1/1 50/2/1 51/3/1 52/4/1
f 53/2/1 54/5/1 55/6/1 56/3/1
f 57/5/1 58/7/1 59/8/1 60/6/1
f 61/9/1 62/10/1 63/2/1 64/1/1
f 65/10/1 66/11/1 67/5/1 68/2/1
f 69/11/1 70/12/1 71/7/1 72/5/1
f 73/9/1 74/10/1 75/2/1 76/1/1
f 77/10/1 78/11/1 79/5/1 80/2/1
f 81/11/1 82/12/1 83/7/1 84/5/1
f 85/13/1 86/14/1 87/10/1 88/9/1
f 89/14/1 90/15/1 91/11/1 92/10/1
f 93/15/1 94/16/1 95/12/1 96/11/1
f 97/9/1 98/10/1 99/2/1 100/1/1
f 101/10/1 102/11/1 103/5/1 104/2/1
f 105/11/1 106/12/1 107/7/1 108/5/1
f 109/13/1 110/14/1 111/10/1 112/9/1
f 113/14/1 114/15/1 115/11/1 116/10/1
f 117/15/1 118/16/1 119/12/1 120/11/1
f 121/13/1 122/14/1 123/10/1 124/9/1
f 125/14/1 126/15/1 127/11/1 128/10/1
f 129/15/1 130/16/1 131/12/1 132/11/1
f 133/13/1 134/14/1 135/10/1 136/9/1
f 137/14/1 138/15/1 139/11/1 140/10/1
f 141/15/1 142/16/1 143/12/1 144/11/1

