# Tiled2Unity generated file. Do not modify by hand.
# Wavefront file for 'CoinCollecteMap2_mesh_0024.obj'

# Vertices (Count = 80)
v 0 -131200 0
v -3200 -131200 0
v -3200 -128000 0
v 0 -128000 0
v 0 -134400 0
v -3200 -134400 0
v -3200 -131200 0
v 0 -131200 0
v 0 -137600 0
v -3200 -137600 0
v -3200 -134400 0
v 0 -134400 0
v 0 -140800 0
v -3200 -140800 0
v -3200 -137600 0
v 0 -137600 0
v 0 -144000 0
v -3200 -144000 0
v -3200 -140800 0
v 0 -140800 0
v -124800 -150400 0
v -128000 -150400 0
v -128000 -147200 0
v -124800 -147200 0
v -128000 -150400 0
v -131200 -150400 0
v -131200 -147200 0
v -128000 -147200 0
v -131200 -150400 0
v -134400 -150400 0
v -134400 -147200 0
v -131200 -147200 0
v -124800 -153600 0
v -128000 -153600 0
v -128000 -150400 0
v -124800 -150400 0
v -128000 -153600 0
v -131200 -153600 0
v -131200 -150400 0
v -128000 -150400 0
v -131200 -153600 0
v -134400 -153600 0
v -134400 -150400 0
v -131200 -150400 0
v -124800 -156800 0
v -128000 -156800 0
v -128000 -153600 0
v -124800 -153600 0
v -128000 -156800 0
v -131200 -156800 0
v -131200 -153600 0
v -128000 -153600 0
v -131200 -156800 0
v -134400 -156800 0
v -134400 -153600 0
v -131200 -153600 0
v -128000 -163200 0
v -131200 -163200 0
v -131200 -160000 0
v -128000 -160000 0
v -131200 -163200 0
v -134400 -163200 0
v -134400 -160000 0
v -131200 -160000 0
v -128000 -166400 0
v -131200 -166400 0
v -131200 -163200 0
v -128000 -163200 0
v -131200 -166400 0
v -134400 -166400 0
v -134400 -163200 0
v -131200 -163200 0
v -128000 -169600 0
v -131200 -169600 0
v -131200 -166400 0
v -128000 -166400 0
v -131200 -169600 0
v -134400 -169600 0
v -134400 -166400 0
v -131200 -166400 0

# Texture cooridinates (Count = 24)
vt 0.8333333 0.6666666
vt 1 0.6666666
vt 1 1
vt 0.8333333 1
vt 0.8333333 0.3333333
vt 1 0.3333333
vt 0.8333333 0
vt 1 0
vt 0 0.6666666
vt 0.1666667 0.6666666
vt 0.1666667 1
vt 0 1
vt 0.3333333 0.6666666
vt 0.3333333 1
vt 0.5 0.6666666
vt 0.5 1
vt 0 0.3333333
vt 0.1666667 0.3333333
vt 0.3333333 0.3333333
vt 0.5 0.3333333
vt 0 0
vt 0.1666667 0
vt 0.3333333 0
vt 0.5 0

# Normal
vn 0 0 -1

# Mesh description
g CoinCollecteMap2_mesh_0024

# Faces
f 1/1/1 2/2/1 3/3/1 4/4/1
f 5/5/1 6/6/1 7/2/1 8/1/1
f 9/7/1 10/8/1 11/6/1 12/5/1
f 13/5/1 14/6/1 15/2/1 16/1/1
f 17/7/1 18/8/1 19/6/1 20/5/1
f 21/9/1 22/10/1 23/11/1 24/12/1
f 25/10/1 26/13/1 27/14/1 28/11/1
f 29/13/1 30/15/1 31/16/1 32/14/1
f 33/17/1 34/18/1 35/10/1 36/9/1
f 37/18/1 38/19/1 39/13/1 40/10/1
f 41/19/1 42/20/1 43/15/1 44/13/1
f 45/21/1 46/22/1 47/18/1 48/17/1
f 49/22/1 50/23/1 51/19/1 52/18/1
f 53/23/1 54/24/1 55/20/1 56/19/1
f 57/9/1 58/10/1 59/11/1 60/12/1
f 61/10/1 62/13/1 63/14/1 64/11/1
f 65/17/1 66/18/1 67/10/1 68/9/1
f 69/18/1 70/19/1 71/13/1 72/10/1
f 73/21/1 74/22/1 75/18/1 76/17/1
f 77/22/1 78/23/1 79/19/1 80/18/1

