# Tiled2Unity generated file. Do not modify by hand.
# Wavefront file for 'CoinCollecteMap2_mesh_0168.obj'

# Vertices (Count = 144)
v -32000 -227200 0
v -35200 -227200 0
v -35200 -224000 0
v -32000 -224000 0
v -35200 -227200 0
v -38400 -227200 0
v -38400 -224000 0
v -35200 -224000 0
v -38400 -227200 0
v -41600 -227200 0
v -41600 -224000 0
v -38400 -224000 0
v -44800 -227200 0
v -48000 -227200 0
v -48000 -224000 0
v -44800 -224000 0
v -48000 -227200 0
v -51200 -227200 0
v -51200 -224000 0
v -48000 -224000 0
v -51200 -227200 0
v -54400 -227200 0
v -54400 -224000 0
v -51200 -224000 0
v -80000 -227200 0
v -83200 -227200 0
v -83200 -224000 0
v -80000 -224000 0
v -83200 -227200 0
v -86400 -227200 0
v -86400 -224000 0
v -83200 -224000 0
v -86400 -227200 0
v -89600 -227200 0
v -89600 -224000 0
v -86400 -224000 0
v -92800 -227200 0
v -96000 -227200 0
v -96000 -224000 0
v -92800 -224000 0
v -96000 -227200 0
v -99200 -227200 0
v -99200 -224000 0
v -96000 -224000 0
v -99200 -227200 0
v -102400 -227200 0
v -102400 -224000 0
v -99200 -224000 0
v -32000 -230400 0
v -35200 -230400 0
v -35200 -227200 0
v -32000 -227200 0
v -35200 -230400 0
v -38400 -230400 0
v -38400 -227200 0
v -35200 -227200 0
v -38400 -230400 0
v -41600 -230400 0
v -41600 -227200 0
v -38400 -227200 0
v -44800 -230400 0
v -48000 -230400 0
v -48000 -227200 0
v -44800 -227200 0
v -48000 -230400 0
v -51200 -230400 0
v -51200 -227200 0
v -48000 -227200 0
v -51200 -230400 0
v -54400 -230400 0
v -54400 -227200 0
v -51200 -227200 0
v -80000 -230400 0
v -83200 -230400 0
v -83200 -227200 0
v -80000 -227200 0
v -83200 -230400 0
v -86400 -230400 0
v -86400 -227200 0
v -83200 -227200 0
v -86400 -230400 0
v -89600 -230400 0
v -89600 -227200 0
v -86400 -227200 0
v -92800 -230400 0
v -96000 -230400 0
v -96000 -227200 0
v -92800 -227200 0
v -96000 -230400 0
v -99200 -230400 0
v -99200 -227200 0
v -96000 -227200 0
v -99200 -230400 0
v -102400 -230400 0
v -102400 -227200 0
v -99200 -227200 0
v -32000 -233600 0
v -35200 -233600 0
v -35200 -230400 0
v -32000 -230400 0
v -35200 -233600 0
v -38400 -233600 0
v -38400 -230400 0
v -35200 -230400 0
v -38400 -233600 0
v -41600 -233600 0
v -41600 -230400 0
v -38400 -230400 0
v -44800 -233600 0
v -48000 -233600 0
v -48000 -230400 0
v -44800 -230400 0
v -48000 -233600 0
v -51200 -233600 0
v -51200 -230400 0
v -48000 -230400 0
v -51200 -233600 0
v -54400 -233600 0
v -54400 -230400 0
v -51200 -230400 0
v -80000 -233600 0
v -83200 -233600 0
v -83200 -230400 0
v -80000 -230400 0
v -83200 -233600 0
v -86400 -233600 0
v -86400 -230400 0
v -83200 -230400 0
v -86400 -233600 0
v -89600 -233600 0
v -89600 -230400 0
v -86400 -230400 0
v -92800 -233600 0
v -96000 -233600 0
v -96000 -230400 0
v -92800 -230400 0
v -96000 -233600 0
v -99200 -233600 0
v -99200 -230400 0
v -96000 -230400 0
v -99200 -233600 0
v -102400 -233600 0
v -102400 -230400 0
v -99200 -230400 0

# Texture cooridinates (Count = 28)
vt 0 0.6666666
vt 0.1666667 0.6666666
vt 0.1666667 1
vt 0 1
vt 0.3333333 0.6666666
vt 0.3333333 1
vt 0.5 0.6666666
vt 0.5 1
vt 0.6666667 0.6666666
vt 0.6666667 1
vt 0.8333333 0.6666666
vt 0.8333333 1
vt 1 0.6666666
vt 1 1
vt 0 0.3333333
vt 0.1666667 0.3333333
vt 0.3333333 0.3333333
vt 0.5 0.3333333
vt 0.6666667 0.3333333
vt 0.8333333 0.3333333
vt 1 0.3333333
vt 0 0
vt 0.1666667 0
vt 0.3333333 0
vt 0.5 0
vt 0.6666667 0
vt 0.8333333 0
vt 1 0

# Normal
vn 0 0 -1

# Mesh description
g CoinCollecteMap2_mesh_0168

# Faces
f 1/1/1 2/2/1 3/3/1 4/4/1
f 5/2/1 6/5/1 7/6/1 8/3/1
f 9/5/1 10/7/1 11/8/1 12/6/1
f 13/7/1 14/9/1 15/10/1 16/8/1
f 17/9/1 18/11/1 19/12/1 20/10/1
f 21/11/1 22/13/1 23/14/1 24/12/1
f 25/7/1 26/9/1 27/10/1 28/8/1
f 29/9/1 30/11/1 31/12/1 32/10/1
f 33/11/1 34/13/1 35/14/1 36/12/1
f 37/1/1 38/2/1 39/3/1 40/4/1
f 41/2/1 42/5/1 43/6/1 44/3/1
f 45/5/1 46/7/1 47/8/1 48/6/1
f 49/15/1 50/16/1 51/2/1 52/1/1
f 53/16/1 54/17/1 55/5/1 56/2/1
f 57/17/1 58/18/1 59/7/1 60/5/1
f 61/18/1 62/19/1 63/9/1 64/7/1
f 65/19/1 66/20/1 67/11/1 68/9/1
f 69/20/1 70/21/1 71/13/1 72/11/1
f 73/18/1 74/19/1 75/9/1 76/7/1
f 77/19/1 78/20/1 79/11/1 80/9/1
f 81/20/1 82/21/1 83/13/1 84/11/1
f 85/15/1 86/16/1 87/2/1 88/1/1
f 89/16/1 90/17/1 91/5/1 92/2/1
f 93/17/1 94/18/1 95/7/1 96/5/1
f 97/22/1 98/23/1 99/16/1 100/15/1
f 101/23/1 102/24/1 103/17/1 104/16/1
f 105/24/1 106/25/1 107/18/1 108/17/1
f 109/25/1 110/26/1 111/19/1 112/18/1
f 113/26/1 114/27/1 115/20/1 116/19/1
f 117/27/1 118/28/1 119/21/1 120/20/1
f 121/25/1 122/26/1 123/19/1 124/18/1
f 125/26/1 126/27/1 127/20/1 128/19/1
f 129/27/1 130/28/1 131/21/1 132/20/1
f 133/22/1 134/23/1 135/16/1 136/15/1
f 137/23/1 138/24/1 139/17/1 140/16/1
f 141/24/1 142/25/1 143/18/1 144/17/1

