# Tiled2Unity generated file. Do not modify by hand.
# Wavefront file for 'CoinCollecteMap2_mesh_0199.obj'

# Vertices (Count = 144)
v -35200 -163200 0
v -38400 -163200 0
v -38400 -160000 0
v -35200 -160000 0
v -38400 -163200 0
v -41600 -163200 0
v -41600 -160000 0
v -38400 -160000 0
v -41600 -163200 0
v -44800 -163200 0
v -44800 -160000 0
v -41600 -160000 0
v -44800 -163200 0
v -48000 -163200 0
v -48000 -160000 0
v -44800 -160000 0
v -48000 -163200 0
v -51200 -163200 0
v -51200 -160000 0
v -48000 -160000 0
v -51200 -163200 0
v -54400 -163200 0
v -54400 -160000 0
v -51200 -160000 0
v -73600 -163200 0
v -76800 -163200 0
v -76800 -160000 0
v -73600 -160000 0
v -76800 -163200 0
v -80000 -163200 0
v -80000 -160000 0
v -76800 -160000 0
v -80000 -163200 0
v -83200 -163200 0
v -83200 -160000 0
v -80000 -160000 0
v -86400 -163200 0
v -89600 -163200 0
v -89600 -160000 0
v -86400 -160000 0
v -89600 -163200 0
v -92800 -163200 0
v -92800 -160000 0
v -89600 -160000 0
v -92800 -163200 0
v -96000 -163200 0
v -96000 -160000 0
v -92800 -160000 0
v -35200 -166400 0
v -38400 -166400 0
v -38400 -163200 0
v -35200 -163200 0
v -38400 -166400 0
v -41600 -166400 0
v -41600 -163200 0
v -38400 -163200 0
v -41600 -166400 0
v -44800 -166400 0
v -44800 -163200 0
v -41600 -163200 0
v -44800 -166400 0
v -48000 -166400 0
v -48000 -163200 0
v -44800 -163200 0
v -48000 -166400 0
v -51200 -166400 0
v -51200 -163200 0
v -48000 -163200 0
v -51200 -166400 0
v -54400 -166400 0
v -54400 -163200 0
v -51200 -163200 0
v -73600 -166400 0
v -76800 -166400 0
v -76800 -163200 0
v -73600 -163200 0
v -76800 -166400 0
v -80000 -166400 0
v -80000 -163200 0
v -76800 -163200 0
v -80000 -166400 0
v -83200 -166400 0
v -83200 -163200 0
v -80000 -163200 0
v -86400 -166400 0
v -89600 -166400 0
v -89600 -163200 0
v -86400 -163200 0
v -89600 -166400 0
v -92800 -166400 0
v -92800 -163200 0
v -89600 -163200 0
v -92800 -166400 0
v -96000 -166400 0
v -96000 -163200 0
v -92800 -163200 0
v -35200 -169600 0
v -38400 -169600 0
v -38400 -166400 0
v -35200 -166400 0
v -38400 -169600 0
v -41600 -169600 0
v -41600 -166400 0
v -38400 -166400 0
v -41600 -169600 0
v -44800 -169600 0
v -44800 -166400 0
v -41600 -166400 0
v -44800 -169600 0
v -48000 -169600 0
v -48000 -166400 0
v -44800 -166400 0
v -48000 -169600 0
v -51200 -169600 0
v -51200 -166400 0
v -48000 -166400 0
v -51200 -169600 0
v -54400 -169600 0
v -54400 -166400 0
v -51200 -166400 0
v -73600 -169600 0
v -76800 -169600 0
v -76800 -166400 0
v -73600 -166400 0
v -76800 -169600 0
v -80000 -169600 0
v -80000 -166400 0
v -76800 -166400 0
v -80000 -169600 0
v -83200 -169600 0
v -83200 -166400 0
v -80000 -166400 0
v -86400 -169600 0
v -89600 -169600 0
v -89600 -166400 0
v -86400 -166400 0
v -89600 -169600 0
v -92800 -169600 0
v -92800 -166400 0
v -89600 -166400 0
v -92800 -169600 0
v -96000 -169600 0
v -96000 -166400 0
v -92800 -166400 0

# Texture cooridinates (Count = 28)
vt 0 0.4285714
vt 0.1666667 0.4285714
vt 0.1666667 0.5714285
vt 0 0.5714285
vt 0.3333333 0.4285714
vt 0.3333333 0.5714285
vt 0.5 0.4285714
vt 0.5 0.5714285
vt 0 0.8571429
vt 0.1666667 0.8571429
vt 0.1666667 1
vt 0 1
vt 0.3333333 0.8571429
vt 0.3333333 1
vt 0.5 0.8571429
vt 0.5 1
vt 0 0.2857143
vt 0.1666667 0.2857143
vt 0.3333333 0.2857143
vt 0.5 0.2857143
vt 0 0.7142857
vt 0.1666667 0.7142857
vt 0.3333333 0.7142857
vt 0.5 0.7142857
vt 0 0.1428571
vt 0.1666667 0.1428571
vt 0.3333333 0.1428571
vt 0.5 0.1428571

# Normal
vn 0 0 -1

# Mesh description
g CoinCollecteMap2_mesh_0199

# Faces
f 1/1/1 2/2/1 3/3/1 4/4/1
f 5/2/1 6/5/1 7/6/1 8/3/1
f 9/5/1 10/7/1 11/8/1 12/6/1
f 13/9/1 14/10/1 15/11/1 16/12/1
f 17/10/1 18/13/1 19/14/1 20/11/1
f 21/13/1 22/15/1 23/16/1 24/14/1
f 25/9/1 26/10/1 27/11/1 28/12/1
f 29/10/1 30/13/1 31/14/1 32/11/1
f 33/13/1 34/15/1 35/16/1 36/14/1
f 37/1/1 38/2/1 39/3/1 40/4/1
f 41/2/1 42/5/1 43/6/1 44/3/1
f 45/5/1 46/7/1 47/8/1 48/6/1
f 49/17/1 50/18/1 51/2/1 52/1/1
f 53/18/1 54/19/1 55/5/1 56/2/1
f 57/19/1 58/20/1 59/7/1 60/5/1
f 61/21/1 62/22/1 63/10/1 64/9/1
f 65/22/1 66/23/1 67/13/1 68/10/1
f 69/23/1 70/24/1 71/15/1 72/13/1
f 73/21/1 74/22/1 75/10/1 76/9/1
f 77/22/1 78/23/1 79/13/1 80/10/1
f 81/23/1 82/24/1 83/15/1 84/13/1
f 85/17/1 86/18/1 87/2/1 88/1/1
f 89/18/1 90/19/1 91/5/1 92/2/1
f 93/19/1 94/20/1 95/7/1 96/5/1
f 97/25/1 98/26/1 99/18/1 100/17/1
f 101/26/1 102/27/1 103/19/1 104/18/1
f 105/27/1 106/28/1 107/20/1 108/19/1
f 109/4/1 110/3/1 111/22/1 112/21/1
f 113/3/1 114/6/1 115/23/1 116/22/1
f 117/6/1 118/8/1 119/24/1 120/23/1
f 121/4/1 122/3/1 123/22/1 124/21/1
f 125/3/1 126/6/1 127/23/1 128/22/1
f 129/6/1 130/8/1 131/24/1 132/23/1
f 133/25/1 134/26/1 135/18/1 136/17/1
f 137/26/1 138/27/1 139/19/1 140/18/1
f 141/27/1 142/28/1 143/20/1 144/19/1

