# Tiled2Unity generated file. Do not modify by hand.
# Wavefront file for 'CoinCollecteMap2_mesh_0173.obj'

# Vertices (Count = 108)
v -38400 -60800 0
v -41600 -60800 0
v -41600 -57600 0
v -38400 -57600 0
v -41600 -60800 0
v -44800 -60800 0
v -44800 -57600 0
v -41600 -57600 0
v -44800 -60800 0
v -48000 -60800 0
v -48000 -57600 0
v -44800 -57600 0
v -28800 -64000 0
v -32000 -64000 0
v -32000 -60800 0
v -28800 -60800 0
v -32000 -64000 0
v -35200 -64000 0
v -35200 -60800 0
v -32000 -60800 0
v -35200 -64000 0
v -38400 -64000 0
v -38400 -60800 0
v -35200 -60800 0
v -38400 -64000 0
v -41600 -64000 0
v -41600 -60800 0
v -38400 -60800 0
v -41600 -64000 0
v -44800 -64000 0
v -44800 -60800 0
v -41600 -60800 0
v -44800 -64000 0
v -48000 -64000 0
v -48000 -60800 0
v -44800 -60800 0
v -28800 -67200 0
v -32000 -67200 0
v -32000 -64000 0
v -28800 -64000 0
v -32000 -67200 0
v -35200 -67200 0
v -35200 -64000 0
v -32000 -64000 0
v -35200 -67200 0
v -38400 -67200 0
v -38400 -64000 0
v -35200 -64000 0
v -38400 -67200 0
v -41600 -67200 0
v -41600 -64000 0
v -38400 -64000 0
v -41600 -67200 0
v -44800 -67200 0
v -44800 -64000 0
v -41600 -64000 0
v -44800 -67200 0
v -48000 -67200 0
v -48000 -64000 0
v -44800 -64000 0
v -92800 -67200 0
v -96000 -67200 0
v -96000 -64000 0
v -92800 -64000 0
v -96000 -67200 0
v -99200 -67200 0
v -99200 -64000 0
v -96000 -64000 0
v -99200 -67200 0
v -102400 -67200 0
v -102400 -64000 0
v -99200 -64000 0
v -28800 -70400 0
v -32000 -70400 0
v -32000 -67200 0
v -28800 -67200 0
v -32000 -70400 0
v -35200 -70400 0
v -35200 -67200 0
v -32000 -67200 0
v -35200 -70400 0
v -38400 -70400 0
v -38400 -67200 0
v -35200 -67200 0
v -92800 -70400 0
v -96000 -70400 0
v -96000 -67200 0
v -92800 -67200 0
v -96000 -70400 0
v -99200 -70400 0
v -99200 -67200 0
v -96000 -67200 0
v -99200 -70400 0
v -102400 -70400 0
v -102400 -67200 0
v -99200 -67200 0
v -92800 -73600 0
v -96000 -73600 0
v -96000 -70400 0
v -92800 -70400 0
v -96000 -73600 0
v -99200 -73600 0
v -99200 -70400 0
v -96000 -70400 0
v -99200 -73600 0
v -102400 -73600 0
v -102400 -70400 0
v -99200 -70400 0

# Texture cooridinates (Count = 16)
vt 0 0.4285714
vt 0.1666667 0.4285714
vt 0.1666667 0.5714285
vt 0 0.5714285
vt 0.3333333 0.4285714
vt 0.3333333 0.5714285
vt 0.5 0.4285714
vt 0.5 0.5714285
vt 0 0.2857143
vt 0.1666667 0.2857143
vt 0.3333333 0.2857143
vt 0.5 0.2857143
vt 0 0.1428571
vt 0.1666667 0.1428571
vt 0.3333333 0.1428571
vt 0.5 0.1428571

# Normal
vn 0 0 -1

# Mesh description
g CoinCollecteMap2_mesh_0173

# Faces
f 1/1/1 2/2/1 3/3/1 4/4/1
f 5/2/1 6/5/1 7/6/1 8/3/1
f 9/5/1 10/7/1 11/8/1 12/6/1
f 13/1/1 14/2/1 15/3/1 16/4/1
f 17/2/1 18/5/1 19/6/1 20/3/1
f 21/5/1 22/7/1 23/8/1 24/6/1
f 25/9/1 26/10/1 27/2/1 28/1/1
f 29/10/1 30/11/1 31/5/1 32/2/1
f 33/11/1 34/12/1 35/7/1 36/5/1
f 37/9/1 38/10/1 39/2/1 40/1/1
f 41/10/1 42/11/1 43/5/1 44/2/1
f 45/11/1 46/12/1 47/7/1 48/5/1
f 49/13/1 50/14/1 51/10/1 52/9/1
f 53/14/1 54/15/1 55/11/1 56/10/1
f 57/15/1 58/16/1 59/12/1 60/11/1
f 61/1/1 62/2/1 63/3/1 64/4/1
f 65/2/1 66/5/1 67/6/1 68/3/1
f 69/5/1 70/7/1 71/8/1 72/6/1
f 73/13/1 74/14/1 75/10/1 76/9/1
f 77/14/1 78/15/1 79/11/1 80/10/1
f 81/15/1 82/16/1 83/12/1 84/11/1
f 85/9/1 86/10/1 87/2/1 88/1/1
f 89/10/1 90/11/1 91/5/1 92/2/1
f 93/11/1 94/12/1 95/7/1 96/5/1
f 97/13/1 98/14/1 99/10/1 100/9/1
f 101/14/1 102/15/1 103/11/1 104/10/1
f 105/15/1 106/16/1 107/12/1 108/11/1

