# Tiled2Unity generated file. Do not modify by hand.
# Wavefront file for 'CoinCollecteMap2_mesh_0155.obj'

# Vertices (Count = 208)
v -54400 -172800 0
v -57600 -172800 0
v -57600 -169600 0
v -54400 -169600 0
v -57600 -172800 0
v -60800 -172800 0
v -60800 -169600 0
v -57600 -169600 0
v -60800 -172800 0
v -64000 -172800 0
v -64000 -169600 0
v -60800 -169600 0
v -64000 -172800 0
v -67200 -172800 0
v -67200 -169600 0
v -64000 -169600 0
v -67200 -172800 0
v -70400 -172800 0
v -70400 -169600 0
v -67200 -169600 0
v -70400 -172800 0
v -73600 -172800 0
v -73600 -169600 0
v -70400 -169600 0
v -54400 -176000 0
v -57600 -176000 0
v -57600 -172800 0
v -54400 -172800 0
v -57600 -176000 0
v -60800 -176000 0
v -60800 -172800 0
v -57600 -172800 0
v -60800 -176000 0
v -64000 -176000 0
v -64000 -172800 0
v -60800 -172800 0
v -64000 -176000 0
v -67200 -176000 0
v -67200 -172800 0
v -64000 -172800 0
v -67200 -176000 0
v -70400 -176000 0
v -70400 -172800 0
v -67200 -172800 0
v -70400 -176000 0
v -73600 -176000 0
v -73600 -172800 0
v -70400 -172800 0
v -73600 -176000 0
v -76800 -176000 0
v -76800 -172800 0
v -73600 -172800 0
v -76800 -176000 0
v -80000 -176000 0
v -80000 -172800 0
v -76800 -172800 0
v -80000 -176000 0
v -83200 -176000 0
v -83200 -172800 0
v -80000 -172800 0
v -54400 -179200 0
v -57600 -179200 0
v -57600 -176000 0
v -54400 -176000 0
v -57600 -179200 0
v -60800 -179200 0
v -60800 -176000 0
v -57600 -176000 0
v -60800 -179200 0
v -64000 -179200 0
v -64000 -176000 0
v -60800 -176000 0
v -64000 -179200 0
v -67200 -179200 0
v -67200 -176000 0
v -64000 -176000 0
v -67200 -179200 0
v -70400 -179200 0
v -70400 -176000 0
v -67200 -176000 0
v -70400 -179200 0
v -73600 -179200 0
v -73600 -176000 0
v -70400 -176000 0
v -73600 -179200 0
v -76800 -179200 0
v -76800 -176000 0
v -73600 -176000 0
v -76800 -179200 0
v -80000 -179200 0
v -80000 -176000 0
v -76800 -176000 0
v -80000 -179200 0
v -83200 -179200 0
v -83200 -176000 0
v -80000 -176000 0
v -57600 -182400 0
v -60800 -182400 0
v -60800 -179200 0
v -57600 -179200 0
v -60800 -182400 0
v -64000 -182400 0
v -64000 -179200 0
v -60800 -179200 0
v -64000 -182400 0
v -67200 -182400 0
v -67200 -179200 0
v -64000 -179200 0
v -67200 -182400 0
v -70400 -182400 0
v -70400 -179200 0
v -67200 -179200 0
v -70400 -182400 0
v -73600 -182400 0
v -73600 -179200 0
v -70400 -179200 0
v -73600 -182400 0
v -76800 -182400 0
v -76800 -179200 0
v -73600 -179200 0
v -76800 -182400 0
v -80000 -182400 0
v -80000 -179200 0
v -76800 -179200 0
v -80000 -182400 0
v -83200 -182400 0
v -83200 -179200 0
v -80000 -179200 0
v -57600 -185600 0
v -60800 -185600 0
v -60800 -182400 0
v -57600 -182400 0
v -60800 -185600 0
v -64000 -185600 0
v -64000 -182400 0
v -60800 -182400 0
v -64000 -185600 0
v -67200 -185600 0
v -67200 -182400 0
v -64000 -182400 0
v -67200 -185600 0
v -70400 -185600 0
v -70400 -182400 0
v -67200 -182400 0
v -70400 -185600 0
v -73600 -185600 0
v -73600 -182400 0
v -70400 -182400 0
v -73600 -185600 0
v -76800 -185600 0
v -76800 -182400 0
v -73600 -182400 0
v -76800 -185600 0
v -80000 -185600 0
v -80000 -182400 0
v -76800 -182400 0
v -80000 -185600 0
v -83200 -185600 0
v -83200 -182400 0
v -80000 -182400 0
v -73600 -188800 0
v -76800 -188800 0
v -76800 -185600 0
v -73600 -185600 0
v -76800 -188800 0
v -80000 -188800 0
v -80000 -185600 0
v -76800 -185600 0
v -80000 -188800 0
v -83200 -188800 0
v -83200 -185600 0
v -80000 -185600 0
v -38400 -201600 0
v -41600 -201600 0
v -41600 -198400 0
v -38400 -198400 0
v -41600 -201600 0
v -44800 -201600 0
v -44800 -198400 0
v -41600 -198400 0
v -44800 -201600 0
v -48000 -201600 0
v -48000 -198400 0
v -44800 -198400 0
v -38400 -204800 0
v -41600 -204800 0
v -41600 -201600 0
v -38400 -201600 0
v -41600 -204800 0
v -44800 -204800 0
v -44800 -201600 0
v -41600 -201600 0
v -44800 -204800 0
v -48000 -204800 0
v -48000 -201600 0
v -44800 -201600 0
v -38400 -208000 0
v -41600 -208000 0
v -41600 -204800 0
v -38400 -204800 0
v -41600 -208000 0
v -44800 -208000 0
v -44800 -204800 0
v -41600 -204800 0
v -44800 -208000 0
v -48000 -208000 0
v -48000 -204800 0
v -44800 -204800 0

# Texture cooridinates (Count = 16)
vt 0.5 0.6666666
vt 0.6666667 0.6666666
vt 0.6666667 1
vt 0.5 1
vt 0.8333333 0.6666666
vt 0.8333333 1
vt 1 0.6666666
vt 1 1
vt 0.5 0.3333333
vt 0.6666667 0.3333333
vt 0.8333333 0.3333333
vt 1 0.3333333
vt 0.5 0
vt 0.6666667 0
vt 0.8333333 0
vt 1 0

# Normal
vn 0 0 -1

# Mesh description
g CoinCollecteMap2_mesh_0155

# Faces
f 1/1/1 2/2/1 3/3/1 4/4/1
f 5/2/1 6/5/1 7/6/1 8/3/1
f 9/5/1 10/7/1 11/8/1 12/6/1
f 13/1/1 14/2/1 15/3/1 16/4/1
f 17/2/1 18/5/1 19/6/1 20/3/1
f 21/5/1 22/7/1 23/8/1 24/6/1
f 25/9/1 26/10/1 27/2/1 28/1/1
f 29/10/1 30/11/1 31/5/1 32/2/1
f 33/11/1 34/12/1 35/7/1 36/5/1
f 37/9/1 38/10/1 39/2/1 40/1/1
f 41/10/1 42/11/1 43/5/1 44/2/1
f 45/11/1 46/12/1 47/7/1 48/5/1
f 49/1/1 50/2/1 51/3/1 52/4/1
f 53/2/1 54/5/1 55/6/1 56/3/1
f 57/5/1 58/7/1 59/8/1 60/6/1
f 61/13/1 62/14/1 63/10/1 64/9/1
f 65/14/1 66/15/1 67/11/1 68/10/1
f 69/15/1 70/16/1 71/12/1 72/11/1
f 73/13/1 74/14/1 75/10/1 76/9/1
f 77/14/1 78/15/1 79/11/1 80/10/1
f 81/15/1 82/16/1 83/12/1 84/11/1
f 85/9/1 86/10/1 87/2/1 88/1/1
f 89/10/1 90/11/1 91/5/1 92/2/1
f 93/11/1 94/12/1 95/7/1 96/5/1
f 97/9/1 98/10/1 99/2/1 100/1/1
f 101/10/1 102/11/1 103/5/1 104/2/1
f 105/11/1 106/12/1 107/7/1 108/5/1
f 109/9/1 110/10/1 111/2/1 112/1/1
f 113/10/1 114/11/1 115/5/1 116/2/1
f 117/13/1 118/14/1 119/10/1 120/9/1
f 121/14/1 122/15/1 123/11/1 124/10/1
f 125/15/1 126/16/1 127/12/1 128/11/1
f 129/13/1 130/14/1 131/10/1 132/9/1
f 133/14/1 134/15/1 135/11/1 136/10/1
f 137/15/1 138/16/1 139/12/1 140/11/1
f 141/13/1 142/14/1 143/10/1 144/9/1
f 145/14/1 146/15/1 147/11/1 148/10/1
f 149/15/1 150/16/1 151/12/1 152/11/1
f 153/10/1 154/11/1 155/5/1 156/2/1
f 157/11/1 158/12/1 159/7/1 160/5/1
f 161/13/1 162/14/1 163/10/1 164/9/1
f 165/14/1 166/15/1 167/11/1 168/10/1
f 169/15/1 170/16/1 171/12/1 172/11/1
f 173/1/1 174/2/1 175/3/1 176/4/1
f 177/2/1 178/5/1 179/6/1 180/3/1
f 181/5/1 182/7/1 183/8/1 184/6/1
f 185/9/1 186/10/1 187/2/1 188/1/1
f 189/10/1 190/11/1 191/5/1 192/2/1
f 193/11/1 194/12/1 195/7/1 196/5/1
f 197/13/1 198/14/1 199/10/1 200/9/1
f 201/14/1 202/15/1 203/11/1 204/10/1
f 205/15/1 206/16/1 207/12/1 208/11/1

