# Tiled2Unity generated file. Do not modify by hand.
# Wavefront file for 'CoinCollecteMap2_mesh_0050.obj'

# Vertices (Count = 120)
v -128000 -12800 0
v -131200 -12800 0
v -131200 -9600 0
v -128000 -9600 0
v -131200 -12800 0
v -134400 -12800 0
v -134400 -9600 0
v -131200 -9600 0
v -128000 -16000 0
v -131200 -16000 0
v -131200 -12800 0
v -128000 -12800 0
v -131200 -16000 0
v -134400 -16000 0
v -134400 -12800 0
v -131200 -12800 0
v -128000 -19200 0
v -131200 -19200 0
v -131200 -16000 0
v -128000 -16000 0
v -131200 -19200 0
v -134400 -19200 0
v -134400 -16000 0
v -131200 -16000 0
v -64000 -22400 0
v -67200 -22400 0
v -67200 -19200 0
v -64000 -19200 0
v -67200 -22400 0
v -70400 -22400 0
v -70400 -19200 0
v -67200 -19200 0
v -70400 -22400 0
v -73600 -22400 0
v -73600 -19200 0
v -70400 -19200 0
v -64000 -25600 0
v -67200 -25600 0
v -67200 -22400 0
v -64000 -22400 0
v -67200 -25600 0
v -70400 -25600 0
v -70400 -22400 0
v -67200 -22400 0
v -70400 -25600 0
v -73600 -25600 0
v -73600 -22400 0
v -70400 -22400 0
v -128000 -25600 0
v -131200 -25600 0
v -131200 -22400 0
v -128000 -22400 0
v -131200 -25600 0
v -134400 -25600 0
v -134400 -22400 0
v -131200 -22400 0
v -64000 -28800 0
v -67200 -28800 0
v -67200 -25600 0
v -64000 -25600 0
v -67200 -28800 0
v -70400 -28800 0
v -70400 -25600 0
v -67200 -25600 0
v -70400 -28800 0
v -73600 -28800 0
v -73600 -25600 0
v -70400 -25600 0
v -115200 -28800 0
v -118400 -28800 0
v -118400 -25600 0
v -115200 -25600 0
v -118400 -28800 0
v -121600 -28800 0
v -121600 -25600 0
v -118400 -25600 0
v -121600 -28800 0
v -124800 -28800 0
v -124800 -25600 0
v -121600 -25600 0
v -128000 -28800 0
v -131200 -28800 0
v -131200 -25600 0
v -128000 -25600 0
v -131200 -28800 0
v -134400 -28800 0
v -134400 -25600 0
v -131200 -25600 0
v -115200 -32000 0
v -118400 -32000 0
v -118400 -28800 0
v -115200 -28800 0
v -118400 -32000 0
v -121600 -32000 0
v -121600 -28800 0
v -118400 -28800 0
v -121600 -32000 0
v -124800 -32000 0
v -124800 -28800 0
v -121600 -28800 0
v -128000 -32000 0
v -131200 -32000 0
v -131200 -28800 0
v -128000 -28800 0
v -131200 -32000 0
v -134400 -32000 0
v -134400 -28800 0
v -131200 -28800 0
v -115200 -35200 0
v -118400 -35200 0
v -118400 -32000 0
v -115200 -32000 0
v -118400 -35200 0
v -121600 -35200 0
v -121600 -32000 0
v -118400 -32000 0
v -121600 -35200 0
v -124800 -35200 0
v -124800 -32000 0
v -121600 -32000 0

# Texture cooridinates (Count = 25)
vt 0 0.4285714
vt 0.1666667 0.4285714
vt 0.1666667 0.5714285
vt 0 0.5714285
vt 0.3333333 0.4285714
vt 0.3333333 0.5714285
vt 0 0.2857143
vt 0.1666667 0.2857143
vt 0.3333333 0.2857143
vt 0 0.1428571
vt 0.1666667 0.1428571
vt 0.3333333 0.1428571
vt 0.5 0.4285714
vt 0.5 0.5714285
vt 0.5 0.2857143
vt 0 0.8571429
vt 0.1666667 0.8571429
vt 0.1666667 1
vt 0 1
vt 0.3333333 0.8571429
vt 0.3333333 1
vt 0.5 0.1428571
vt 0 0.7142857
vt 0.1666667 0.7142857
vt 0.3333333 0.7142857

# Normal
vn 0 0 -1

# Mesh description
g CoinCollecteMap2_mesh_0050

# Faces
f 1/1/1 2/2/1 3/3/1 4/4/1
f 5/2/1 6/5/1 7/6/1 8/3/1
f 9/7/1 10/8/1 11/2/1 12/1/1
f 13/8/1 14/9/1 15/5/1 16/2/1
f 17/10/1 18/11/1 19/8/1 20/7/1
f 21/11/1 22/12/1 23/9/1 24/8/1
f 25/1/1 26/2/1 27/3/1 28/4/1
f 29/2/1 30/5/1 31/6/1 32/3/1
f 33/5/1 34/13/1 35/14/1 36/6/1
f 37/7/1 38/8/1 39/2/1 40/1/1
f 41/8/1 42/9/1 43/5/1 44/2/1
f 45/9/1 46/15/1 47/13/1 48/5/1
f 49/16/1 50/17/1 51/18/1 52/19/1
f 53/17/1 54/20/1 55/21/1 56/18/1
f 57/10/1 58/11/1 59/8/1 60/7/1
f 61/11/1 62/12/1 63/9/1 64/8/1
f 65/12/1 66/22/1 67/15/1 68/9/1
f 69/1/1 70/2/1 71/3/1 72/4/1
f 73/2/1 74/5/1 75/6/1 76/3/1
f 77/5/1 78/13/1 79/14/1 80/6/1
f 81/23/1 82/24/1 83/17/1 84/16/1
f 85/24/1 86/25/1 87/20/1 88/17/1
f 89/7/1 90/8/1 91/2/1 92/1/1
f 93/8/1 94/9/1 95/5/1 96/2/1
f 97/9/1 98/15/1 99/13/1 100/5/1
f 101/4/1 102/3/1 103/24/1 104/23/1
f 105/3/1 106/6/1 107/25/1 108/24/1
f 109/10/1 110/11/1 111/8/1 112/7/1
f 113/11/1 114/12/1 115/9/1 116/8/1
f 117/12/1 118/22/1 119/15/1 120/9/1

