# Tiled2Unity generated file. Do not modify by hand.
# Wavefront file for 'CoinCollecteMap2_mesh_0058.obj'

# Vertices (Count = 128)
v -118400 -80000 0
v -121600 -80000 0
v -121600 -76800 0
v -118400 -76800 0
v -121600 -80000 0
v -124800 -80000 0
v -124800 -76800 0
v -121600 -76800 0
v -124800 -80000 0
v -128000 -80000 0
v -128000 -76800 0
v -124800 -76800 0
v -118400 -83200 0
v -121600 -83200 0
v -121600 -80000 0
v -118400 -80000 0
v -121600 -83200 0
v -124800 -83200 0
v -124800 -80000 0
v -121600 -80000 0
v -124800 -83200 0
v -128000 -83200 0
v -128000 -80000 0
v -124800 -80000 0
v -118400 -86400 0
v -121600 -86400 0
v -121600 -83200 0
v -118400 -83200 0
v -121600 -86400 0
v -124800 -86400 0
v -124800 -83200 0
v -121600 -83200 0
v -124800 -86400 0
v -128000 -86400 0
v -128000 -83200 0
v -124800 -83200 0
v -6400 -89600 0
v -9600 -89600 0
v -9600 -86400 0
v -6400 -86400 0
v -9600 -89600 0
v -12800 -89600 0
v -12800 -86400 0
v -9600 -86400 0
v -12800 -89600 0
v -16000 -89600 0
v -16000 -86400 0
v -12800 -86400 0
v -118400 -89600 0
v -121600 -89600 0
v -121600 -86400 0
v -118400 -86400 0
v -121600 -89600 0
v -124800 -89600 0
v -124800 -86400 0
v -121600 -86400 0
v -124800 -89600 0
v -128000 -89600 0
v -128000 -86400 0
v -124800 -86400 0
v 0 -92800 0
v -3200 -92800 0
v -3200 -89600 0
v 0 -89600 0
v -3200 -92800 0
v -6400 -92800 0
v -6400 -89600 0
v -3200 -89600 0
v -6400 -92800 0
v -9600 -92800 0
v -9600 -89600 0
v -6400 -89600 0
v -9600 -92800 0
v -12800 -92800 0
v -12800 -89600 0
v -9600 -89600 0
v -12800 -92800 0
v -16000 -92800 0
v -16000 -89600 0
v -12800 -89600 0
v 0 -96000 0
v -3200 -96000 0
v -3200 -92800 0
v 0 -92800 0
v -3200 -96000 0
v -6400 -96000 0
v -6400 -92800 0
v -3200 -92800 0
v -6400 -96000 0
v -9600 -96000 0
v -9600 -92800 0
v -6400 -92800 0
v -9600 -96000 0
v -12800 -96000 0
v -12800 -92800 0
v -9600 -92800 0
v -12800 -96000 0
v -16000 -96000 0
v -16000 -92800 0
v -12800 -92800 0
v 0 -99200 0
v -3200 -99200 0
v -3200 -96000 0
v 0 -96000 0
v -3200 -99200 0
v -6400 -99200 0
v -6400 -96000 0
v -3200 -96000 0
v -6400 -99200 0
v -9600 -99200 0
v -9600 -96000 0
v -6400 -96000 0
v -9600 -99200 0
v -12800 -99200 0
v -12800 -96000 0
v -9600 -96000 0
v -12800 -99200 0
v -16000 -99200 0
v -16000 -96000 0
v -12800 -96000 0
v 0 -102400 0
v -3200 -102400 0
v -3200 -99200 0
v 0 -99200 0
v -3200 -102400 0
v -6400 -102400 0
v -6400 -99200 0
v -3200 -99200 0

# Texture cooridinates (Count = 20)
vt 0.5 0.4285714
vt 0.6666667 0.4285714
vt 0.6666667 0.5714285
vt 0.5 0.5714285
vt 0.8333333 0.4285714
vt 0.8333333 0.5714285
vt 1 0.4285714
vt 1 0.5714285
vt 0.5 0.2857143
vt 0.6666667 0.2857143
vt 0.8333333 0.2857143
vt 1 0.2857143
vt 0.5 0.1428571
vt 0.6666667 0.1428571
vt 0.8333333 0.1428571
vt 1 0.1428571
vt 0.5 0
vt 0.6666667 0
vt 0.8333333 0
vt 1 0

# Normal
vn 0 0 -1

# Mesh description
g CoinCollecteMap2_mesh_0058

# Faces
f 1/1/1 2/2/1 3/3/1 4/4/1
f 5/2/1 6/5/1 7/6/1 8/3/1
f 9/5/1 10/7/1 11/8/1 12/6/1
f 13/9/1 14/10/1 15/2/1 16/1/1
f 17/10/1 18/11/1 19/5/1 20/2/1
f 21/11/1 22/12/1 23/7/1 24/5/1
f 25/13/1 26/14/1 27/10/1 28/9/1
f 29/14/1 30/15/1 31/11/1 32/10/1
f 33/15/1 34/16/1 35/12/1 36/11/1
f 37/1/1 38/2/1 39/3/1 40/4/1
f 41/2/1 42/5/1 43/6/1 44/3/1
f 45/5/1 46/7/1 47/8/1 48/6/1
f 49/17/1 50/18/1 51/14/1 52/13/1
f 53/18/1 54/19/1 55/15/1 56/14/1
f 57/19/1 58/20/1 59/16/1 60/15/1
f 61/2/1 62/5/1 63/6/1 64/3/1
f 65/5/1 66/7/1 67/8/1 68/6/1
f 69/9/1 70/10/1 71/2/1 72/1/1
f 73/10/1 74/11/1 75/5/1 76/2/1
f 77/11/1 78/12/1 79/7/1 80/5/1
f 81/10/1 82/11/1 83/5/1 84/2/1
f 85/11/1 86/12/1 87/7/1 88/5/1
f 89/13/1 90/14/1 91/10/1 92/9/1
f 93/14/1 94/15/1 95/11/1 96/10/1
f 97/15/1 98/16/1 99/12/1 100/11/1
f 101/14/1 102/15/1 103/11/1 104/10/1
f 105/15/1 106/16/1 107/12/1 108/11/1
f 109/17/1 110/18/1 111/14/1 112/13/1
f 113/18/1 114/19/1 115/15/1 116/14/1
f 117/19/1 118/20/1 119/16/1 120/15/1
f 121/18/1 122/19/1 123/15/1 124/14/1
f 125/19/1 126/20/1 127/16/1 128/15/1

