# Tiled2Unity generated file. Do not modify by hand.
# Wavefront file for 'CoinCollecteMap2_mesh_0029.obj'

# Vertices (Count = 72)
v 0 -163200 0
v -3200 -163200 0
v -3200 -160000 0
v 0 -160000 0
v 0 -166400 0
v -3200 -166400 0
v -3200 -163200 0
v 0 -163200 0
v 0 -169600 0
v -3200 -169600 0
v -3200 -166400 0
v 0 -166400 0
v -9600 -169600 0
v -12800 -169600 0
v -12800 -166400 0
v -9600 -166400 0
v -12800 -169600 0
v -16000 -169600 0
v -16000 -166400 0
v -12800 -166400 0
v -16000 -169600 0
v -19200 -169600 0
v -19200 -166400 0
v -16000 -166400 0
v 0 -172800 0
v -3200 -172800 0
v -3200 -169600 0
v 0 -169600 0
v -3200 -172800 0
v -6400 -172800 0
v -6400 -169600 0
v -3200 -169600 0
v -9600 -172800 0
v -12800 -172800 0
v -12800 -169600 0
v -9600 -169600 0
v -12800 -172800 0
v -16000 -172800 0
v -16000 -169600 0
v -12800 -169600 0
v -16000 -172800 0
v -19200 -172800 0
v -19200 -169600 0
v -16000 -169600 0
v 0 -176000 0
v -3200 -176000 0
v -3200 -172800 0
v 0 -172800 0
v -3200 -176000 0
v -6400 -176000 0
v -6400 -172800 0
v -3200 -172800 0
v -9600 -176000 0
v -12800 -176000 0
v -12800 -172800 0
v -9600 -172800 0
v -12800 -176000 0
v -16000 -176000 0
v -16000 -172800 0
v -12800 -172800 0
v -16000 -176000 0
v -19200 -176000 0
v -19200 -172800 0
v -16000 -172800 0
v 0 -179200 0
v -3200 -179200 0
v -3200 -176000 0
v 0 -176000 0
v -3200 -179200 0
v -6400 -179200 0
v -6400 -176000 0
v -3200 -176000 0

# Texture cooridinates (Count = 16)
vt 0.3333333 0.6666666
vt 0.5 0.6666666
vt 0.5 1
vt 0.3333333 1
vt 0.3333333 0.3333333
vt 0.5 0.3333333
vt 0.3333333 0
vt 0.5 0
vt 0 0.6666666
vt 0.1666667 0.6666666
vt 0.1666667 1
vt 0 1
vt 0 0.3333333
vt 0.1666667 0.3333333
vt 0 0
vt 0.1666667 0

# Normal
vn 0 0 -1

# Mesh description
g CoinCollecteMap2_mesh_0029

# Faces
f 1/1/1 2/2/1 3/3/1 4/4/1
f 5/5/1 6/6/1 7/2/1 8/1/1
f 9/7/1 10/8/1 11/6/1 12/5/1
f 13/9/1 14/10/1 15/11/1 16/12/1
f 17/10/1 18/1/1 19/4/1 20/11/1
f 21/1/1 22/2/1 23/3/1 24/4/1
f 25/10/1 26/1/1 27/4/1 28/11/1
f 29/1/1 30/2/1 31/3/1 32/4/1
f 33/13/1 34/14/1 35/10/1 36/9/1
f 37/14/1 38/5/1 39/1/1 40/10/1
f 41/5/1 42/6/1 43/2/1 44/1/1
f 45/14/1 46/5/1 47/1/1 48/10/1
f 49/5/1 50/6/1 51/2/1 52/1/1
f 53/15/1 54/16/1 55/14/1 56/13/1
f 57/16/1 58/7/1 59/5/1 60/14/1
f 61/7/1 62/8/1 63/6/1 64/5/1
f 65/16/1 66/7/1 67/5/1 68/14/1
f 69/7/1 70/8/1 71/6/1 72/5/1

