# Tiled2Unity generated file. Do not modify by hand.
# Wavefront file for 'CoinCollecteMap2_mesh_0085.obj'

# Vertices (Count = 144)
v 0 -208000 0
v -3200 -208000 0
v -3200 -204800 0
v 0 -204800 0
v -3200 -208000 0
v -6400 -208000 0
v -6400 -204800 0
v -3200 -204800 0
v -9600 -208000 0
v -12800 -208000 0
v -12800 -204800 0
v -9600 -204800 0
v -12800 -208000 0
v -16000 -208000 0
v -16000 -204800 0
v -12800 -204800 0
v -16000 -208000 0
v -19200 -208000 0
v -19200 -204800 0
v -16000 -204800 0
v -131200 -208000 0
v -134400 -208000 0
v -134400 -204800 0
v -131200 -204800 0
v 0 -211200 0
v -3200 -211200 0
v -3200 -208000 0
v 0 -208000 0
v -3200 -211200 0
v -6400 -211200 0
v -6400 -208000 0
v -3200 -208000 0
v -9600 -211200 0
v -12800 -211200 0
v -12800 -208000 0
v -9600 -208000 0
v -12800 -211200 0
v -16000 -211200 0
v -16000 -208000 0
v -12800 -208000 0
v -16000 -211200 0
v -19200 -211200 0
v -19200 -208000 0
v -16000 -208000 0
v -118400 -211200 0
v -121600 -211200 0
v -121600 -208000 0
v -118400 -208000 0
v -121600 -211200 0
v -124800 -211200 0
v -124800 -208000 0
v -121600 -208000 0
v -124800 -211200 0
v -128000 -211200 0
v -128000 -208000 0
v -124800 -208000 0
v -131200 -211200 0
v -134400 -211200 0
v -134400 -208000 0
v -131200 -208000 0
v 0 -214400 0
v -3200 -214400 0
v -3200 -211200 0
v 0 -211200 0
v -3200 -214400 0
v -6400 -214400 0
v -6400 -211200 0
v -3200 -211200 0
v -9600 -214400 0
v -12800 -214400 0
v -12800 -211200 0
v -9600 -211200 0
v -12800 -214400 0
v -16000 -214400 0
v -16000 -211200 0
v -12800 -211200 0
v -16000 -214400 0
v -19200 -214400 0
v -19200 -211200 0
v -16000 -211200 0
v -118400 -214400 0
v -121600 -214400 0
v -121600 -211200 0
v -118400 -211200 0
v -121600 -214400 0
v -124800 -214400 0
v -124800 -211200 0
v -121600 -211200 0
v -124800 -214400 0
v -128000 -214400 0
v -128000 -211200 0
v -124800 -211200 0
v -131200 -214400 0
v -134400 -214400 0
v -134400 -211200 0
v -131200 -211200 0
v 0 -217600 0
v -3200 -217600 0
v -3200 -214400 0
v 0 -214400 0
v -3200 -217600 0
v -6400 -217600 0
v -6400 -214400 0
v -3200 -214400 0
v -9600 -217600 0
v -12800 -217600 0
v -12800 -214400 0
v -9600 -214400 0
v -12800 -217600 0
v -16000 -217600 0
v -16000 -214400 0
v -12800 -214400 0
v -16000 -217600 0
v -19200 -217600 0
v -19200 -214400 0
v -16000 -214400 0
v -118400 -217600 0
v -121600 -217600 0
v -121600 -214400 0
v -118400 -214400 0
v -121600 -217600 0
v -124800 -217600 0
v -124800 -214400 0
v -121600 -214400 0
v -124800 -217600 0
v -128000 -217600 0
v -128000 -214400 0
v -124800 -214400 0
v -131200 -217600 0
v -134400 -217600 0
v -134400 -214400 0
v -131200 -214400 0
v -118400 -220800 0
v -121600 -220800 0
v -121600 -217600 0
v -118400 -217600 0
v -121600 -220800 0
v -124800 -220800 0
v -124800 -217600 0
v -121600 -217600 0
v -124800 -220800 0
v -128000 -220800 0
v -128000 -217600 0
v -124800 -217600 0

# Texture cooridinates (Count = 20)
vt 0.6666667 0.4285714
vt 0.8333333 0.4285714
vt 0.8333333 0.5714285
vt 0.6666667 0.5714285
vt 1 0.4285714
vt 1 0.5714285
vt 0.5 0.4285714
vt 0.5 0.5714285
vt 0.6666667 0.2857143
vt 0.8333333 0.2857143
vt 1 0.2857143
vt 0.5 0.2857143
vt 0.6666667 0.1428571
vt 0.8333333 0.1428571
vt 1 0.1428571
vt 0.5 0.1428571
vt 0.6666667 0
vt 0.8333333 0
vt 1 0
vt 0.5 0

# Normal
vn 0 0 -1

# Mesh description
g CoinCollecteMap2_mesh_0085

# Faces
f 1/1/1 2/2/1 3/3/1 4/4/1
f 5/2/1 6/5/1 7/6/1 8/3/1
f 9/7/1 10/1/1 11/4/1 12/8/1
f 13/1/1 14/2/1 15/3/1 16/4/1
f 17/2/1 18/5/1 19/6/1 20/3/1
f 21/7/1 22/1/1 23/4/1 24/8/1
f 25/9/1 26/10/1 27/2/1 28/1/1
f 29/10/1 30/11/1 31/5/1 32/2/1
f 33/12/1 34/9/1 35/1/1 36/7/1
f 37/9/1 38/10/1 39/2/1 40/1/1
f 41/10/1 42/11/1 43/5/1 44/2/1
f 45/7/1 46/1/1 47/4/1 48/8/1
f 49/1/1 50/2/1 51/3/1 52/4/1
f 53/2/1 54/5/1 55/6/1 56/3/1
f 57/12/1 58/9/1 59/1/1 60/7/1
f 61/13/1 62/14/1 63/10/1 64/9/1
f 65/14/1 66/15/1 67/11/1 68/10/1
f 69/16/1 70/13/1 71/9/1 72/12/1
f 73/13/1 74/14/1 75/10/1 76/9/1
f 77/14/1 78/15/1 79/11/1 80/10/1
f 81/12/1 82/9/1 83/1/1 84/7/1
f 85/9/1 86/10/1 87/2/1 88/1/1
f 89/10/1 90/11/1 91/5/1 92/2/1
f 93/16/1 94/13/1 95/9/1 96/12/1
f 97/17/1 98/18/1 99/14/1 100/13/1
f 101/18/1 102/19/1 103/15/1 104/14/1
f 105/20/1 106/17/1 107/13/1 108/16/1
f 109/17/1 110/18/1 111/14/1 112/13/1
f 113/18/1 114/19/1 115/15/1 116/14/1
f 117/16/1 118/13/1 119/9/1 120/12/1
f 121/13/1 122/14/1 123/10/1 124/9/1
f 125/14/1 126/15/1 127/11/1 128/10/1
f 129/20/1 130/17/1 131/13/1 132/16/1
f 133/20/1 134/17/1 135/13/1 136/16/1
f 137/17/1 138/18/1 139/14/1 140/13/1
f 141/18/1 142/19/1 143/15/1 144/14/1

