# Tiled2Unity generated file. Do not modify by hand.
# Wavefront file for 'CoinCollecteMap2_mesh_0150.obj'

# Vertices (Count = 208)
v -32000 -156800 0
v -35200 -156800 0
v -35200 -153600 0
v -32000 -153600 0
v -35200 -156800 0
v -38400 -156800 0
v -38400 -153600 0
v -35200 -153600 0
v -38400 -156800 0
v -41600 -156800 0
v -41600 -153600 0
v -38400 -153600 0
v -48000 -156800 0
v -51200 -156800 0
v -51200 -153600 0
v -48000 -153600 0
v -51200 -156800 0
v -54400 -156800 0
v -54400 -153600 0
v -51200 -153600 0
v -54400 -156800 0
v -57600 -156800 0
v -57600 -153600 0
v -54400 -153600 0
v -73600 -156800 0
v -76800 -156800 0
v -76800 -153600 0
v -73600 -153600 0
v -76800 -156800 0
v -80000 -156800 0
v -80000 -153600 0
v -76800 -153600 0
v -80000 -156800 0
v -83200 -156800 0
v -83200 -153600 0
v -80000 -153600 0
v -89600 -156800 0
v -92800 -156800 0
v -92800 -153600 0
v -89600 -153600 0
v -92800 -156800 0
v -96000 -156800 0
v -96000 -153600 0
v -92800 -153600 0
v -96000 -156800 0
v -99200 -156800 0
v -99200 -153600 0
v -96000 -153600 0
v -25600 -160000 0
v -28800 -160000 0
v -28800 -156800 0
v -25600 -156800 0
v -28800 -160000 0
v -32000 -160000 0
v -32000 -156800 0
v -28800 -156800 0
v -32000 -160000 0
v -35200 -160000 0
v -35200 -156800 0
v -32000 -156800 0
v -35200 -160000 0
v -38400 -160000 0
v -38400 -156800 0
v -35200 -156800 0
v -38400 -160000 0
v -41600 -160000 0
v -41600 -156800 0
v -38400 -156800 0
v -48000 -160000 0
v -51200 -160000 0
v -51200 -156800 0
v -48000 -156800 0
v -51200 -160000 0
v -54400 -160000 0
v -54400 -156800 0
v -51200 -156800 0
v -54400 -160000 0
v -57600 -160000 0
v -57600 -156800 0
v -54400 -156800 0
v -64000 -160000 0
v -67200 -160000 0
v -67200 -156800 0
v -64000 -156800 0
v -67200 -160000 0
v -70400 -160000 0
v -70400 -156800 0
v -67200 -156800 0
v -70400 -160000 0
v -73600 -160000 0
v -73600 -156800 0
v -70400 -156800 0
v -73600 -160000 0
v -76800 -160000 0
v -76800 -156800 0
v -73600 -156800 0
v -76800 -160000 0
v -80000 -160000 0
v -80000 -156800 0
v -76800 -156800 0
v -80000 -160000 0
v -83200 -160000 0
v -83200 -156800 0
v -80000 -156800 0
v -89600 -160000 0
v -92800 -160000 0
v -92800 -156800 0
v -89600 -156800 0
v -92800 -160000 0
v -96000 -160000 0
v -96000 -156800 0
v -92800 -156800 0
v -96000 -160000 0
v -99200 -160000 0
v -99200 -156800 0
v -96000 -156800 0
v -25600 -163200 0
v -28800 -163200 0
v -28800 -160000 0
v -25600 -160000 0
v -28800 -163200 0
v -32000 -163200 0
v -32000 -160000 0
v -28800 -160000 0
v -32000 -163200 0
v -35200 -163200 0
v -35200 -160000 0
v -32000 -160000 0
v -35200 -163200 0
v -38400 -163200 0
v -38400 -160000 0
v -35200 -160000 0
v -38400 -163200 0
v -41600 -163200 0
v -41600 -160000 0
v -38400 -160000 0
v -48000 -163200 0
v -51200 -163200 0
v -51200 -160000 0
v -48000 -160000 0
v -51200 -163200 0
v -54400 -163200 0
v -54400 -160000 0
v -51200 -160000 0
v -54400 -163200 0
v -57600 -163200 0
v -57600 -160000 0
v -54400 -160000 0
v -64000 -163200 0
v -67200 -163200 0
v -67200 -160000 0
v -64000 -160000 0
v -67200 -163200 0
v -70400 -163200 0
v -70400 -160000 0
v -67200 -160000 0
v -70400 -163200 0
v -73600 -163200 0
v -73600 -160000 0
v -70400 -160000 0
v -73600 -163200 0
v -76800 -163200 0
v -76800 -160000 0
v -73600 -160000 0
v -76800 -163200 0
v -80000 -163200 0
v -80000 -160000 0
v -76800 -160000 0
v -80000 -163200 0
v -83200 -163200 0
v -83200 -160000 0
v -80000 -160000 0
v -89600 -163200 0
v -92800 -163200 0
v -92800 -160000 0
v -89600 -160000 0
v -92800 -163200 0
v -96000 -163200 0
v -96000 -160000 0
v -92800 -160000 0
v -96000 -163200 0
v -99200 -163200 0
v -99200 -160000 0
v -96000 -160000 0
v -25600 -166400 0
v -28800 -166400 0
v -28800 -163200 0
v -25600 -163200 0
v -28800 -166400 0
v -32000 -166400 0
v -32000 -163200 0
v -28800 -163200 0
v -32000 -166400 0
v -35200 -166400 0
v -35200 -163200 0
v -32000 -163200 0
v -64000 -166400 0
v -67200 -166400 0
v -67200 -163200 0
v -64000 -163200 0
v -67200 -166400 0
v -70400 -166400 0
v -70400 -163200 0
v -67200 -163200 0
v -70400 -166400 0
v -73600 -166400 0
v -73600 -163200 0
v -70400 -163200 0

# Texture cooridinates (Count = 16)
vt 0.5 0.6666666
vt 0.6666667 0.6666666
vt 0.6666667 1
vt 0.5 1
vt 0.8333333 0.6666666
vt 0.8333333 1
vt 1 0.6666666
vt 1 1
vt 0.5 0.3333333
vt 0.6666667 0.3333333
vt 0.8333333 0.3333333
vt 1 0.3333333
vt 0.5 0
vt 0.6666667 0
vt 0.8333333 0
vt 1 0

# Normal
vn 0 0 -1

# Mesh description
g CoinCollecteMap2_mesh_0150

# Faces
f 1/1/1 2/2/1 3/3/1 4/4/1
f 5/2/1 6/5/1 7/6/1 8/3/1
f 9/5/1 10/7/1 11/8/1 12/6/1
f 13/1/1 14/2/1 15/3/1 16/4/1
f 17/2/1 18/5/1 19/6/1 20/3/1
f 21/5/1 22/7/1 23/8/1 24/6/1
f 25/1/1 26/2/1 27/3/1 28/4/1
f 29/2/1 30/5/1 31/6/1 32/3/1
f 33/5/1 34/7/1 35/8/1 36/6/1
f 37/1/1 38/2/1 39/3/1 40/4/1
f 41/2/1 42/5/1 43/6/1 44/3/1
f 45/5/1 46/7/1 47/8/1 48/6/1
f 49/1/1 50/2/1 51/3/1 52/4/1
f 53/2/1 54/5/1 55/6/1 56/3/1
f 57/9/1 58/10/1 59/2/1 60/1/1
f 61/10/1 62/11/1 63/5/1 64/2/1
f 65/11/1 66/12/1 67/7/1 68/5/1
f 69/9/1 70/10/1 71/2/1 72/1/1
f 73/10/1 74/11/1 75/5/1 76/2/1
f 77/11/1 78/12/1 79/7/1 80/5/1
f 81/1/1 82/2/1 83/3/1 84/4/1
f 85/2/1 86/5/1 87/6/1 88/3/1
f 89/5/1 90/7/1 91/8/1 92/6/1
f 93/9/1 94/10/1 95/2/1 96/1/1
f 97/10/1 98/11/1 99/5/1 100/2/1
f 101/11/1 102/12/1 103/7/1 104/5/1
f 105/9/1 106/10/1 107/2/1 108/1/1
f 109/10/1 110/11/1 111/5/1 112/2/1
f 113/11/1 114/12/1 115/7/1 116/5/1
f 117/9/1 118/10/1 119/2/1 120/1/1
f 121/10/1 122/11/1 123/5/1 124/2/1
f 125/13/1 126/14/1 127/10/1 128/9/1
f 129/14/1 130/15/1 131/11/1 132/10/1
f 133/15/1 134/16/1 135/12/1 136/11/1
f 137/13/1 138/14/1 139/10/1 140/9/1
f 141/14/1 142/15/1 143/11/1 144/10/1
f 145/15/1 146/16/1 147/12/1 148/11/1
f 149/9/1 150/10/1 151/2/1 152/1/1
f 153/10/1 154/11/1 155/5/1 156/2/1
f 157/11/1 158/12/1 159/7/1 160/5/1
f 161/13/1 162/14/1 163/10/1 164/9/1
f 165/14/1 166/15/1 167/11/1 168/10/1
f 169/15/1 170/16/1 171/12/1 172/11/1
f 173/13/1 174/14/1 175/10/1 176/9/1
f 177/14/1 178/15/1 179/11/1 180/10/1
f 181/15/1 182/16/1 183/12/1 184/11/1
f 185/13/1 186/14/1 187/10/1 188/9/1
f 189/14/1 190/15/1 191/11/1 192/10/1
f 193/15/1 194/16/1 195/12/1 196/11/1
f 197/13/1 198/14/1 199/10/1 200/9/1
f 201/14/1 202/15/1 203/11/1 204/10/1
f 205/15/1 206/16/1 207/12/1 208/11/1

