# Tiled2Unity generated file. Do not modify by hand.
# Wavefront file for 'CoinCollecteMap2_mesh_0059.obj'

# Vertices (Count = 192)
v -124800 -86400 0
v -128000 -86400 0
v -128000 -83200 0
v -124800 -83200 0
v -128000 -86400 0
v -131200 -86400 0
v -131200 -83200 0
v -128000 -83200 0
v -131200 -86400 0
v -134400 -86400 0
v -134400 -83200 0
v -131200 -83200 0
v -115200 -89600 0
v -118400 -89600 0
v -118400 -86400 0
v -115200 -86400 0
v -118400 -89600 0
v -121600 -89600 0
v -121600 -86400 0
v -118400 -86400 0
v -121600 -89600 0
v -124800 -89600 0
v -124800 -86400 0
v -121600 -86400 0
v -124800 -89600 0
v -128000 -89600 0
v -128000 -86400 0
v -124800 -86400 0
v -128000 -89600 0
v -131200 -89600 0
v -131200 -86400 0
v -128000 -86400 0
v -131200 -89600 0
v -134400 -89600 0
v -134400 -86400 0
v -131200 -86400 0
v -115200 -92800 0
v -118400 -92800 0
v -118400 -89600 0
v -115200 -89600 0
v -118400 -92800 0
v -121600 -92800 0
v -121600 -89600 0
v -118400 -89600 0
v -121600 -92800 0
v -124800 -92800 0
v -124800 -89600 0
v -121600 -89600 0
v -124800 -92800 0
v -128000 -92800 0
v -128000 -89600 0
v -124800 -89600 0
v -128000 -92800 0
v -131200 -92800 0
v -131200 -89600 0
v -128000 -89600 0
v -131200 -92800 0
v -134400 -92800 0
v -134400 -89600 0
v -131200 -89600 0
v -115200 -96000 0
v -118400 -96000 0
v -118400 -92800 0
v -115200 -92800 0
v -118400 -96000 0
v -121600 -96000 0
v -121600 -92800 0
v -118400 -92800 0
v -121600 -96000 0
v -124800 -96000 0
v -124800 -92800 0
v -121600 -92800 0
v -124800 -96000 0
v -128000 -96000 0
v -128000 -92800 0
v -124800 -92800 0
v -128000 -96000 0
v -131200 -96000 0
v -131200 -92800 0
v -128000 -92800 0
v -131200 -96000 0
v -134400 -96000 0
v -134400 -92800 0
v -131200 -92800 0
v 0 -99200 0
v -3200 -99200 0
v -3200 -96000 0
v 0 -96000 0
v -3200 -99200 0
v -6400 -99200 0
v -6400 -96000 0
v -3200 -96000 0
v -6400 -99200 0
v -9600 -99200 0
v -9600 -96000 0
v -6400 -96000 0
v -115200 -99200 0
v -118400 -99200 0
v -118400 -96000 0
v -115200 -96000 0
v -118400 -99200 0
v -121600 -99200 0
v -121600 -96000 0
v -118400 -96000 0
v -121600 -99200 0
v -124800 -99200 0
v -124800 -96000 0
v -121600 -96000 0
v 0 -102400 0
v -3200 -102400 0
v -3200 -99200 0
v 0 -99200 0
v -3200 -102400 0
v -6400 -102400 0
v -6400 -99200 0
v -3200 -99200 0
v -6400 -102400 0
v -9600 -102400 0
v -9600 -99200 0
v -6400 -99200 0
v 0 -105600 0
v -3200 -105600 0
v -3200 -102400 0
v 0 -102400 0
v -3200 -105600 0
v -6400 -105600 0
v -6400 -102400 0
v -3200 -102400 0
v -6400 -105600 0
v -9600 -105600 0
v -9600 -102400 0
v -6400 -102400 0
v -9600 -105600 0
v -12800 -105600 0
v -12800 -102400 0
v -9600 -102400 0
v -12800 -105600 0
v -16000 -105600 0
v -16000 -102400 0
v -12800 -102400 0
v -16000 -105600 0
v -19200 -105600 0
v -19200 -102400 0
v -16000 -102400 0
v -9600 -108800 0
v -12800 -108800 0
v -12800 -105600 0
v -9600 -105600 0
v -12800 -108800 0
v -16000 -108800 0
v -16000 -105600 0
v -12800 -105600 0
v -16000 -108800 0
v -19200 -108800 0
v -19200 -105600 0
v -16000 -105600 0
v 0 -112000 0
v -3200 -112000 0
v -3200 -108800 0
v 0 -108800 0
v -3200 -112000 0
v -6400 -112000 0
v -6400 -108800 0
v -3200 -108800 0
v -9600 -112000 0
v -12800 -112000 0
v -12800 -108800 0
v -9600 -108800 0
v -12800 -112000 0
v -16000 -112000 0
v -16000 -108800 0
v -12800 -108800 0
v -16000 -112000 0
v -19200 -112000 0
v -19200 -108800 0
v -16000 -108800 0
v 0 -115200 0
v -3200 -115200 0
v -3200 -112000 0
v 0 -112000 0
v -3200 -115200 0
v -6400 -115200 0
v -6400 -112000 0
v -3200 -112000 0
v 0 -118400 0
v -3200 -118400 0
v -3200 -115200 0
v 0 -115200 0
v -3200 -118400 0
v -6400 -118400 0
v -6400 -115200 0
v -3200 -115200 0

# Texture cooridinates (Count = 44)
vt 0.5 0.4285714
vt 0.6666667 0.4285714
vt 0.6666667 0.5714285
vt 0.5 0.5714285
vt 0.8333333 0.4285714
vt 0.8333333 0.5714285
vt 1 0.4285714
vt 1 0.5714285
vt 0.5 0.2857143
vt 0.6666667 0.2857143
vt 0.8333333 0.2857143
vt 1 0.2857143
vt 0.5 0.1428571
vt 0.6666667 0.1428571
vt 0.8333333 0.1428571
vt 1 0.1428571
vt 0.5 0
vt 0.6666667 0
vt 0.8333333 0
vt 1 0
vt 0.5 0.8571429
vt 0.6666667 0.8571429
vt 0.6666667 1
vt 0.5 1
vt 0.8333333 0.8571429
vt 0.8333333 1
vt 1 0.8571429
vt 1 1
vt 0.5 0.7142857
vt 0.6666667 0.7142857
vt 0.8333333 0.7142857
vt 1 0.7142857
vt 0 0.8571429
vt 0.1666667 0.8571429
vt 0.1666667 1
vt 0 1
vt 0.3333333 0.8571429
vt 0.3333333 1
vt 0 0.7142857
vt 0.1666667 0.7142857
vt 0.3333333 0.7142857
vt 0 0.5714285
vt 0.1666667 0.5714285
vt 0.3333333 0.5714285

# Normal
vn 0 0 -1

# Mesh description
g CoinCollecteMap2_mesh_0059

# Faces
f 1/1/1 2/2/1 3/3/1 4/4/1
f 5/2/1 6/5/1 7/6/1 8/3/1
f 9/5/1 10/7/1 11/8/1 12/6/1
f 13/1/1 14/2/1 15/3/1 16/4/1
f 17/2/1 18/5/1 19/6/1 20/3/1
f 21/5/1 22/7/1 23/8/1 24/6/1
f 25/9/1 26/10/1 27/2/1 28/1/1
f 29/10/1 30/11/1 31/5/1 32/2/1
f 33/11/1 34/12/1 35/7/1 36/5/1
f 37/9/1 38/10/1 39/2/1 40/1/1
f 41/10/1 42/11/1 43/5/1 44/2/1
f 45/11/1 46/12/1 47/7/1 48/5/1
f 49/13/1 50/14/1 51/10/1 52/9/1
f 53/14/1 54/15/1 55/11/1 56/10/1
f 57/15/1 58/16/1 59/12/1 60/11/1
f 61/13/1 62/14/1 63/10/1 64/9/1
f 65/14/1 66/15/1 67/11/1 68/10/1
f 69/15/1 70/16/1 71/12/1 72/11/1
f 73/17/1 74/18/1 75/14/1 76/13/1
f 77/18/1 78/19/1 79/15/1 80/14/1
f 81/19/1 82/20/1 83/16/1 84/15/1
f 85/21/1 86/22/1 87/23/1 88/24/1
f 89/22/1 90/25/1 91/26/1 92/23/1
f 93/25/1 94/27/1 95/28/1 96/26/1
f 97/17/1 98/18/1 99/14/1 100/13/1
f 101/18/1 102/19/1 103/15/1 104/14/1
f 105/19/1 106/20/1 107/16/1 108/15/1
f 109/29/1 110/30/1 111/22/1 112/21/1
f 113/30/1 114/31/1 115/25/1 116/22/1
f 117/31/1 118/32/1 119/27/1 120/25/1
f 121/4/1 122/3/1 123/30/1 124/29/1
f 125/3/1 126/6/1 127/31/1 128/30/1
f 129/6/1 130/8/1 131/32/1 132/31/1
f 133/33/1 134/34/1 135/35/1 136/36/1
f 137/34/1 138/37/1 139/38/1 140/35/1
f 141/37/1 142/21/1 143/24/1 144/38/1
f 145/39/1 146/40/1 147/34/1 148/33/1
f 149/40/1 150/41/1 151/37/1 152/34/1
f 153/41/1 154/29/1 155/21/1 156/37/1
f 157/34/1 158/37/1 159/38/1 160/35/1
f 161/37/1 162/21/1 163/24/1 164/38/1
f 165/42/1 166/43/1 167/40/1 168/39/1
f 169/43/1 170/44/1 171/41/1 172/40/1
f 173/44/1 174/4/1 175/29/1 176/41/1
f 177/40/1 178/41/1 179/37/1 180/34/1
f 181/41/1 182/29/1 183/21/1 184/37/1
f 185/43/1 186/44/1 187/41/1 188/40/1
f 189/44/1 190/4/1 191/29/1 192/41/1

