# Tiled2Unity generated file. Do not modify by hand.
# Wavefront file for 'CoinCollecteMap2_mesh_0209.obj'

# Vertices (Count = 144)
v -92800 -198400 0
v -96000 -198400 0
v -96000 -195200 0
v -92800 -195200 0
v -96000 -198400 0
v -99200 -198400 0
v -99200 -195200 0
v -96000 -195200 0
v -99200 -198400 0
v -102400 -198400 0
v -102400 -195200 0
v -99200 -195200 0
v -64000 -201600 0
v -67200 -201600 0
v -67200 -198400 0
v -64000 -198400 0
v -67200 -201600 0
v -70400 -201600 0
v -70400 -198400 0
v -67200 -198400 0
v -70400 -201600 0
v -73600 -201600 0
v -73600 -198400 0
v -70400 -198400 0
v -80000 -201600 0
v -83200 -201600 0
v -83200 -198400 0
v -80000 -198400 0
v -83200 -201600 0
v -86400 -201600 0
v -86400 -198400 0
v -83200 -198400 0
v -86400 -201600 0
v -89600 -201600 0
v -89600 -198400 0
v -86400 -198400 0
v -92800 -201600 0
v -96000 -201600 0
v -96000 -198400 0
v -92800 -198400 0
v -96000 -201600 0
v -99200 -201600 0
v -99200 -198400 0
v -96000 -198400 0
v -99200 -201600 0
v -102400 -201600 0
v -102400 -198400 0
v -99200 -198400 0
v -51200 -204800 0
v -54400 -204800 0
v -54400 -201600 0
v -51200 -201600 0
v -54400 -204800 0
v -57600 -204800 0
v -57600 -201600 0
v -54400 -201600 0
v -57600 -204800 0
v -60800 -204800 0
v -60800 -201600 0
v -57600 -201600 0
v -64000 -204800 0
v -67200 -204800 0
v -67200 -201600 0
v -64000 -201600 0
v -67200 -204800 0
v -70400 -204800 0
v -70400 -201600 0
v -67200 -201600 0
v -70400 -204800 0
v -73600 -204800 0
v -73600 -201600 0
v -70400 -201600 0
v -80000 -204800 0
v -83200 -204800 0
v -83200 -201600 0
v -80000 -201600 0
v -83200 -204800 0
v -86400 -204800 0
v -86400 -201600 0
v -83200 -201600 0
v -86400 -204800 0
v -89600 -204800 0
v -89600 -201600 0
v -86400 -201600 0
v -92800 -204800 0
v -96000 -204800 0
v -96000 -201600 0
v -92800 -201600 0
v -96000 -204800 0
v -99200 -204800 0
v -99200 -201600 0
v -96000 -201600 0
v -99200 -204800 0
v -102400 -204800 0
v -102400 -201600 0
v -99200 -201600 0
v -51200 -208000 0
v -54400 -208000 0
v -54400 -204800 0
v -51200 -204800 0
v -54400 -208000 0
v -57600 -208000 0
v -57600 -204800 0
v -54400 -204800 0
v -57600 -208000 0
v -60800 -208000 0
v -60800 -204800 0
v -57600 -204800 0
v -64000 -208000 0
v -67200 -208000 0
v -67200 -204800 0
v -64000 -204800 0
v -67200 -208000 0
v -70400 -208000 0
v -70400 -204800 0
v -67200 -204800 0
v -70400 -208000 0
v -73600 -208000 0
v -73600 -204800 0
v -70400 -204800 0
v -80000 -208000 0
v -83200 -208000 0
v -83200 -204800 0
v -80000 -204800 0
v -83200 -208000 0
v -86400 -208000 0
v -86400 -204800 0
v -83200 -204800 0
v -86400 -208000 0
v -89600 -208000 0
v -89600 -204800 0
v -86400 -204800 0
v -51200 -211200 0
v -54400 -211200 0
v -54400 -208000 0
v -51200 -208000 0
v -54400 -211200 0
v -57600 -211200 0
v -57600 -208000 0
v -54400 -208000 0
v -57600 -211200 0
v -60800 -211200 0
v -60800 -208000 0
v -57600 -208000 0

# Texture cooridinates (Count = 28)
vt 0.5 0.8571429
vt 0.6666667 0.8571429
vt 0.6666667 1
vt 0.5 1
vt 0.8333333 0.8571429
vt 0.8333333 1
vt 1 0.8571429
vt 1 1
vt 0.5 0.7142857
vt 0.6666667 0.7142857
vt 0.8333333 0.7142857
vt 1 0.7142857
vt 0 0.8571429
vt 0.1666667 0.8571429
vt 0.1666667 1
vt 0 1
vt 0.3333333 0.8571429
vt 0.3333333 1
vt 0.5 0.5714285
vt 0.6666667 0.5714285
vt 0.8333333 0.5714285
vt 1 0.5714285
vt 0 0.7142857
vt 0.1666667 0.7142857
vt 0.3333333 0.7142857
vt 0 0.5714285
vt 0.1666667 0.5714285
vt 0.3333333 0.5714285

# Normal
vn 0 0 -1

# Mesh description
g CoinCollecteMap2_mesh_0209

# Faces
f 1/1/1 2/2/1 3/3/1 4/4/1
f 5/2/1 6/5/1 7/6/1 8/3/1
f 9/5/1 10/7/1 11/8/1 12/6/1
f 13/1/1 14/2/1 15/3/1 16/4/1
f 17/2/1 18/5/1 19/6/1 20/3/1
f 21/5/1 22/7/1 23/8/1 24/6/1
f 25/1/1 26/2/1 27/3/1 28/4/1
f 29/2/1 30/5/1 31/6/1 32/3/1
f 33/5/1 34/7/1 35/8/1 36/6/1
f 37/9/1 38/10/1 39/2/1 40/1/1
f 41/10/1 42/11/1 43/5/1 44/2/1
f 45/11/1 46/12/1 47/7/1 48/5/1
f 49/13/1 50/14/1 51/15/1 52/16/1
f 53/14/1 54/17/1 55/18/1 56/15/1
f 57/17/1 58/1/1 59/4/1 60/18/1
f 61/9/1 62/10/1 63/2/1 64/1/1
f 65/10/1 66/11/1 67/5/1 68/2/1
f 69/11/1 70/12/1 71/7/1 72/5/1
f 73/9/1 74/10/1 75/2/1 76/1/1
f 77/10/1 78/11/1 79/5/1 80/2/1
f 81/11/1 82/12/1 83/7/1 84/5/1
f 85/19/1 86/20/1 87/10/1 88/9/1
f 89/20/1 90/21/1 91/11/1 92/10/1
f 93/21/1 94/22/1 95/12/1 96/11/1
f 97/23/1 98/24/1 99/14/1 100/13/1
f 101/24/1 102/25/1 103/17/1 104/14/1
f 105/25/1 106/9/1 107/1/1 108/17/1
f 109/19/1 110/20/1 111/10/1 112/9/1
f 113/20/1 114/21/1 115/11/1 116/10/1
f 117/21/1 118/22/1 119/12/1 120/11/1
f 121/19/1 122/20/1 123/10/1 124/9/1
f 125/20/1 126/21/1 127/11/1 128/10/1
f 129/21/1 130/22/1 131/12/1 132/11/1
f 133/26/1 134/27/1 135/24/1 136/23/1
f 137/27/1 138/28/1 139/25/1 140/24/1
f 141/28/1 142/19/1 143/9/1 144/25/1

