# Tiled2Unity generated file. Do not modify by hand.
# Wavefront file for 'CoinCollecteMap2_mesh_0070.obj'

# Vertices (Count = 48)
v 0 -134400 0
v -3200 -134400 0
v -3200 -131200 0
v 0 -131200 0
v 0 -137600 0
v -3200 -137600 0
v -3200 -134400 0
v 0 -134400 0
v 0 -140800 0
v -3200 -140800 0
v -3200 -137600 0
v 0 -137600 0
v -124800 -147200 0
v -128000 -147200 0
v -128000 -144000 0
v -124800 -144000 0
v -128000 -147200 0
v -131200 -147200 0
v -131200 -144000 0
v -128000 -144000 0
v -131200 -147200 0
v -134400 -147200 0
v -134400 -144000 0
v -131200 -144000 0
v -124800 -150400 0
v -128000 -150400 0
v -128000 -147200 0
v -124800 -147200 0
v -128000 -150400 0
v -131200 -150400 0
v -131200 -147200 0
v -128000 -147200 0
v -131200 -150400 0
v -134400 -150400 0
v -134400 -147200 0
v -131200 -147200 0
v -124800 -153600 0
v -128000 -153600 0
v -128000 -150400 0
v -124800 -150400 0
v -128000 -153600 0
v -131200 -153600 0
v -131200 -150400 0
v -128000 -150400 0
v -131200 -153600 0
v -134400 -153600 0
v -134400 -150400 0
v -131200 -150400 0

# Texture cooridinates (Count = 22)
vt 0.3333333 0.4285714
vt 0.5 0.4285714
vt 0.5 0.5714285
vt 0.3333333 0.5714285
vt 0.3333333 0.2857143
vt 0.5 0.2857143
vt 0.3333333 0.1428571
vt 0.5 0.1428571
vt 0 0.8571429
vt 0.1666667 0.8571429
vt 0.1666667 1
vt 0 1
vt 0.3333333 0.8571429
vt 0.3333333 1
vt 0.5 0.8571429
vt 0.5 1
vt 0 0.7142857
vt 0.1666667 0.7142857
vt 0.3333333 0.7142857
vt 0.5 0.7142857
vt 0 0.5714285
vt 0.1666667 0.5714285

# Normal
vn 0 0 -1

# Mesh description
g CoinCollecteMap2_mesh_0070

# Faces
f 1/1/1 2/2/1 3/3/1 4/4/1
f 5/5/1 6/6/1 7/2/1 8/1/1
f 9/7/1 10/8/1 11/6/1 12/5/1
f 13/9/1 14/10/1 15/11/1 16/12/1
f 17/10/1 18/13/1 19/14/1 20/11/1
f 21/13/1 22/15/1 23/16/1 24/14/1
f 25/17/1 26/18/1 27/10/1 28/9/1
f 29/18/1 30/19/1 31/13/1 32/10/1
f 33/19/1 34/20/1 35/15/1 36/13/1
f 37/21/1 38/22/1 39/18/1 40/17/1
f 41/22/1 42/4/1 43/19/1 44/18/1
f 45/4/1 46/3/1 47/20/1 48/19/1

