# Tiled2Unity generated file. Do not modify by hand.
# Wavefront file for 'CoinCollecteMap2_mesh_0200.obj'

# Vertices (Count = 108)
v -51200 -163200 0
v -54400 -163200 0
v -54400 -160000 0
v -51200 -160000 0
v -54400 -163200 0
v -57600 -163200 0
v -57600 -160000 0
v -54400 -160000 0
v -57600 -163200 0
v -60800 -163200 0
v -60800 -160000 0
v -57600 -160000 0
v -60800 -163200 0
v -64000 -163200 0
v -64000 -160000 0
v -60800 -160000 0
v -64000 -163200 0
v -67200 -163200 0
v -67200 -160000 0
v -64000 -160000 0
v -67200 -163200 0
v -70400 -163200 0
v -70400 -160000 0
v -67200 -160000 0
v -70400 -163200 0
v -73600 -163200 0
v -73600 -160000 0
v -70400 -160000 0
v -73600 -163200 0
v -76800 -163200 0
v -76800 -160000 0
v -73600 -160000 0
v -76800 -163200 0
v -80000 -163200 0
v -80000 -160000 0
v -76800 -160000 0
v -51200 -166400 0
v -54400 -166400 0
v -54400 -163200 0
v -51200 -163200 0
v -54400 -166400 0
v -57600 -166400 0
v -57600 -163200 0
v -54400 -163200 0
v -57600 -166400 0
v -60800 -166400 0
v -60800 -163200 0
v -57600 -163200 0
v -60800 -166400 0
v -64000 -166400 0
v -64000 -163200 0
v -60800 -163200 0
v -64000 -166400 0
v -67200 -166400 0
v -67200 -163200 0
v -64000 -163200 0
v -67200 -166400 0
v -70400 -166400 0
v -70400 -163200 0
v -67200 -163200 0
v -70400 -166400 0
v -73600 -166400 0
v -73600 -163200 0
v -70400 -163200 0
v -73600 -166400 0
v -76800 -166400 0
v -76800 -163200 0
v -73600 -163200 0
v -76800 -166400 0
v -80000 -166400 0
v -80000 -163200 0
v -76800 -163200 0
v -51200 -169600 0
v -54400 -169600 0
v -54400 -166400 0
v -51200 -166400 0
v -54400 -169600 0
v -57600 -169600 0
v -57600 -166400 0
v -54400 -166400 0
v -57600 -169600 0
v -60800 -169600 0
v -60800 -166400 0
v -57600 -166400 0
v -60800 -169600 0
v -64000 -169600 0
v -64000 -166400 0
v -60800 -166400 0
v -64000 -169600 0
v -67200 -169600 0
v -67200 -166400 0
v -64000 -166400 0
v -67200 -169600 0
v -70400 -169600 0
v -70400 -166400 0
v -67200 -166400 0
v -70400 -169600 0
v -73600 -169600 0
v -73600 -166400 0
v -70400 -166400 0
v -73600 -169600 0
v -76800 -169600 0
v -76800 -166400 0
v -73600 -166400 0
v -76800 -169600 0
v -80000 -169600 0
v -80000 -166400 0
v -76800 -166400 0

# Texture cooridinates (Count = 31)
vt 0.5 0.8571429
vt 0.6666667 0.8571429
vt 0.6666667 1
vt 0.5 1
vt 0.8333333 0.8571429
vt 0.8333333 1
vt 1 0.8571429
vt 1 1
vt 0 0.4285714
vt 0.1666667 0.4285714
vt 0.1666667 0.5714285
vt 0 0.5714285
vt 0.3333333 0.4285714
vt 0.3333333 0.5714285
vt 0.5 0.4285714
vt 0.5 0.5714285
vt 0.5 0.7142857
vt 0.6666667 0.7142857
vt 0.8333333 0.7142857
vt 1 0.7142857
vt 0 0.2857143
vt 0.1666667 0.2857143
vt 0.3333333 0.2857143
vt 0.5 0.2857143
vt 0.6666667 0.5714285
vt 0.8333333 0.5714285
vt 1 0.5714285
vt 0 0.1428571
vt 0.1666667 0.1428571
vt 0.3333333 0.1428571
vt 0.5 0.1428571

# Normal
vn 0 0 -1

# Mesh description
g CoinCollecteMap2_mesh_0200

# Faces
f 1/1/1 2/2/1 3/3/1 4/4/1
f 5/2/1 6/5/1 7/6/1 8/3/1
f 9/5/1 10/7/1 11/8/1 12/6/1
f 13/9/1 14/10/1 15/11/1 16/12/1
f 17/10/1 18/13/1 19/14/1 20/11/1
f 21/13/1 22/15/1 23/16/1 24/14/1
f 25/9/1 26/10/1 27/11/1 28/12/1
f 29/10/1 30/13/1 31/14/1 32/11/1
f 33/13/1 34/15/1 35/16/1 36/14/1
f 37/17/1 38/18/1 39/2/1 40/1/1
f 41/18/1 42/19/1 43/5/1 44/2/1
f 45/19/1 46/20/1 47/7/1 48/5/1
f 49/21/1 50/22/1 51/10/1 52/9/1
f 53/22/1 54/23/1 55/13/1 56/10/1
f 57/23/1 58/24/1 59/15/1 60/13/1
f 61/21/1 62/22/1 63/10/1 64/9/1
f 65/22/1 66/23/1 67/13/1 68/10/1
f 69/23/1 70/24/1 71/15/1 72/13/1
f 73/16/1 74/25/1 75/18/1 76/17/1
f 77/25/1 78/26/1 79/19/1 80/18/1
f 81/26/1 82/27/1 83/20/1 84/19/1
f 85/28/1 86/29/1 87/22/1 88/21/1
f 89/29/1 90/30/1 91/23/1 92/22/1
f 93/30/1 94/31/1 95/24/1 96/23/1
f 97/28/1 98/29/1 99/22/1 100/21/1
f 101/29/1 102/30/1 103/23/1 104/22/1
f 105/30/1 106/31/1 107/24/1 108/23/1

