# Tiled2Unity generated file. Do not modify by hand.
# Wavefront file for 'CoinCollecteMap2_mesh_0192.obj'

# Vertices (Count = 252)
v -19200 -137600 0
v -22400 -137600 0
v -22400 -134400 0
v -19200 -134400 0
v -22400 -137600 0
v -25600 -137600 0
v -25600 -134400 0
v -22400 -134400 0
v -25600 -137600 0
v -28800 -137600 0
v -28800 -134400 0
v -25600 -134400 0
v -32000 -137600 0
v -35200 -137600 0
v -35200 -134400 0
v -32000 -134400 0
v -35200 -137600 0
v -38400 -137600 0
v -38400 -134400 0
v -35200 -134400 0
v -38400 -137600 0
v -41600 -137600 0
v -41600 -134400 0
v -38400 -134400 0
v -48000 -137600 0
v -51200 -137600 0
v -51200 -134400 0
v -48000 -134400 0
v -51200 -137600 0
v -54400 -137600 0
v -54400 -134400 0
v -51200 -134400 0
v -54400 -137600 0
v -57600 -137600 0
v -57600 -134400 0
v -54400 -134400 0
v -80000 -137600 0
v -83200 -137600 0
v -83200 -134400 0
v -80000 -134400 0
v -83200 -137600 0
v -86400 -137600 0
v -86400 -134400 0
v -83200 -134400 0
v -86400 -137600 0
v -89600 -137600 0
v -89600 -134400 0
v -86400 -134400 0
v -92800 -137600 0
v -96000 -137600 0
v -96000 -134400 0
v -92800 -134400 0
v -96000 -137600 0
v -99200 -137600 0
v -99200 -134400 0
v -96000 -134400 0
v -99200 -137600 0
v -102400 -137600 0
v -102400 -134400 0
v -99200 -134400 0
v -105600 -137600 0
v -108800 -137600 0
v -108800 -134400 0
v -105600 -134400 0
v -108800 -137600 0
v -112000 -137600 0
v -112000 -134400 0
v -108800 -134400 0
v -112000 -137600 0
v -115200 -137600 0
v -115200 -134400 0
v -112000 -134400 0
v -19200 -140800 0
v -22400 -140800 0
v -22400 -137600 0
v -19200 -137600 0
v -22400 -140800 0
v -25600 -140800 0
v -25600 -137600 0
v -22400 -137600 0
v -25600 -140800 0
v -28800 -140800 0
v -28800 -137600 0
v -25600 -137600 0
v -32000 -140800 0
v -35200 -140800 0
v -35200 -137600 0
v -32000 -137600 0
v -35200 -140800 0
v -38400 -140800 0
v -38400 -137600 0
v -35200 -137600 0
v -38400 -140800 0
v -41600 -140800 0
v -41600 -137600 0
v -38400 -137600 0
v -48000 -140800 0
v -51200 -140800 0
v -51200 -137600 0
v -48000 -137600 0
v -51200 -140800 0
v -54400 -140800 0
v -54400 -137600 0
v -51200 -137600 0
v -54400 -140800 0
v -57600 -140800 0
v -57600 -137600 0
v -54400 -137600 0
v -80000 -140800 0
v -83200 -140800 0
v -83200 -137600 0
v -80000 -137600 0
v -83200 -140800 0
v -86400 -140800 0
v -86400 -137600 0
v -83200 -137600 0
v -86400 -140800 0
v -89600 -140800 0
v -89600 -137600 0
v -86400 -137600 0
v -92800 -140800 0
v -96000 -140800 0
v -96000 -137600 0
v -92800 -137600 0
v -96000 -140800 0
v -99200 -140800 0
v -99200 -137600 0
v -96000 -137600 0
v -99200 -140800 0
v -102400 -140800 0
v -102400 -137600 0
v -99200 -137600 0
v -105600 -140800 0
v -108800 -140800 0
v -108800 -137600 0
v -105600 -137600 0
v -108800 -140800 0
v -112000 -140800 0
v -112000 -137600 0
v -108800 -137600 0
v -112000 -140800 0
v -115200 -140800 0
v -115200 -137600 0
v -112000 -137600 0
v -19200 -144000 0
v -22400 -144000 0
v -22400 -140800 0
v -19200 -140800 0
v -22400 -144000 0
v -25600 -144000 0
v -25600 -140800 0
v -22400 -140800 0
v -25600 -144000 0
v -28800 -144000 0
v -28800 -140800 0
v -25600 -140800 0
v -32000 -144000 0
v -35200 -144000 0
v -35200 -140800 0
v -32000 -140800 0
v -35200 -144000 0
v -38400 -144000 0
v -38400 -140800 0
v -35200 -140800 0
v -38400 -144000 0
v -41600 -144000 0
v -41600 -140800 0
v -38400 -140800 0
v -48000 -144000 0
v -51200 -144000 0
v -51200 -140800 0
v -48000 -140800 0
v -51200 -144000 0
v -54400 -144000 0
v -54400 -140800 0
v -51200 -140800 0
v -54400 -144000 0
v -57600 -144000 0
v -57600 -140800 0
v -54400 -140800 0
v -80000 -144000 0
v -83200 -144000 0
v -83200 -140800 0
v -80000 -140800 0
v -83200 -144000 0
v -86400 -144000 0
v -86400 -140800 0
v -83200 -140800 0
v -86400 -144000 0
v -89600 -144000 0
v -89600 -140800 0
v -86400 -140800 0
v -92800 -144000 0
v -96000 -144000 0
v -96000 -140800 0
v -92800 -140800 0
v -96000 -144000 0
v -99200 -144000 0
v -99200 -140800 0
v -96000 -140800 0
v -99200 -144000 0
v -102400 -144000 0
v -102400 -140800 0
v -99200 -140800 0
v -105600 -144000 0
v -108800 -144000 0
v -108800 -140800 0
v -105600 -140800 0
v -108800 -144000 0
v -112000 -144000 0
v -112000 -140800 0
v -108800 -140800 0
v -112000 -144000 0
v -115200 -144000 0
v -115200 -140800 0
v -112000 -140800 0
v -32000 -147200 0
v -35200 -147200 0
v -35200 -144000 0
v -32000 -144000 0
v -35200 -147200 0
v -38400 -147200 0
v -38400 -144000 0
v -35200 -144000 0
v -38400 -147200 0
v -41600 -147200 0
v -41600 -144000 0
v -38400 -144000 0
v -48000 -147200 0
v -51200 -147200 0
v -51200 -144000 0
v -48000 -144000 0
v -51200 -147200 0
v -54400 -147200 0
v -54400 -144000 0
v -51200 -144000 0
v -54400 -147200 0
v -57600 -147200 0
v -57600 -144000 0
v -54400 -144000 0
v -92800 -147200 0
v -96000 -147200 0
v -96000 -144000 0
v -92800 -144000 0
v -96000 -147200 0
v -99200 -147200 0
v -99200 -144000 0
v -96000 -144000 0
v -99200 -147200 0
v -102400 -147200 0
v -102400 -144000 0
v -99200 -144000 0

# Texture cooridinates (Count = 44)
vt 0 0.4285714
vt 0.1666667 0.4285714
vt 0.1666667 0.5714285
vt 0 0.5714285
vt 0.3333333 0.4285714
vt 0.3333333 0.5714285
vt 0.5 0.4285714
vt 0.5 0.5714285
vt 0.6666667 0.4285714
vt 0.6666667 0.5714285
vt 0.8333333 0.4285714
vt 0.8333333 0.5714285
vt 1 0.4285714
vt 1 0.5714285
vt 0 0.8571429
vt 0.1666667 0.8571429
vt 0.1666667 1
vt 0 1
vt 0.3333333 0.8571429
vt 0.3333333 1
vt 0.5 0.8571429
vt 0.5 1
vt 0 0.2857143
vt 0.1666667 0.2857143
vt 0.3333333 0.2857143
vt 0.5 0.2857143
vt 0.6666667 0.2857143
vt 0.8333333 0.2857143
vt 1 0.2857143
vt 0 0.7142857
vt 0.1666667 0.7142857
vt 0.3333333 0.7142857
vt 0.5 0.7142857
vt 0 0.1428571
vt 0.1666667 0.1428571
vt 0.3333333 0.1428571
vt 0.5 0.1428571
vt 0.6666667 0.1428571
vt 0.8333333 0.1428571
vt 1 0.1428571
vt 0.5 0
vt 0.6666667 0
vt 0.8333333 0
vt 1 0

# Normal
vn 0 0 -1

# Mesh description
g CoinCollecteMap2_mesh_0192

# Faces
f 1/1/1 2/2/1 3/3/1 4/4/1
f 5/2/1 6/5/1 7/6/1 8/3/1
f 9/5/1 10/7/1 11/8/1 12/6/1
f 13/7/1 14/9/1 15/10/1 16/8/1
f 17/9/1 18/11/1 19/12/1 20/10/1
f 21/11/1 22/13/1 23/14/1 24/12/1
f 25/7/1 26/9/1 27/10/1 28/8/1
f 29/9/1 30/11/1 31/12/1 32/10/1
f 33/11/1 34/13/1 35/14/1 36/12/1
f 37/15/1 38/16/1 39/17/1 40/18/1
f 41/16/1 42/19/1 43/20/1 44/17/1
f 45/19/1 46/21/1 47/22/1 48/20/1
f 49/7/1 50/9/1 51/10/1 52/8/1
f 53/9/1 54/11/1 55/12/1 56/10/1
f 57/11/1 58/13/1 59/14/1 60/12/1
f 61/1/1 62/2/1 63/3/1 64/4/1
f 65/2/1 66/5/1 67/6/1 68/3/1
f 69/5/1 70/7/1 71/8/1 72/6/1
f 73/23/1 74/24/1 75/2/1 76/1/1
f 77/24/1 78/25/1 79/5/1 80/2/1
f 81/25/1 82/26/1 83/7/1 84/5/1
f 85/26/1 86/27/1 87/9/1 88/7/1
f 89/27/1 90/28/1 91/11/1 92/9/1
f 93/28/1 94/29/1 95/13/1 96/11/1
f 97/26/1 98/27/1 99/9/1 100/7/1
f 101/27/1 102/28/1 103/11/1 104/9/1
f 105/28/1 106/29/1 107/13/1 108/11/1
f 109/30/1 110/31/1 111/16/1 112/15/1
f 113/31/1 114/32/1 115/19/1 116/16/1
f 117/32/1 118/33/1 119/21/1 120/19/1
f 121/26/1 122/27/1 123/9/1 124/7/1
f 125/27/1 126/28/1 127/11/1 128/9/1
f 129/28/1 130/29/1 131/13/1 132/11/1
f 133/23/1 134/24/1 135/2/1 136/1/1
f 137/24/1 138/25/1 139/5/1 140/2/1
f 141/25/1 142/26/1 143/7/1 144/5/1
f 145/34/1 146/35/1 147/24/1 148/23/1
f 149/35/1 150/36/1 151/25/1 152/24/1
f 153/36/1 154/37/1 155/26/1 156/25/1
f 157/37/1 158/38/1 159/27/1 160/26/1
f 161/38/1 162/39/1 163/28/1 164/27/1
f 165/39/1 166/40/1 167/29/1 168/28/1
f 169/37/1 170/38/1 171/27/1 172/26/1
f 173/38/1 174/39/1 175/28/1 176/27/1
f 177/39/1 178/40/1 179/29/1 180/28/1
f 181/4/1 182/3/1 183/31/1 184/30/1
f 185/3/1 186/6/1 187/32/1 188/31/1
f 189/6/1 190/8/1 191/33/1 192/32/1
f 193/37/1 194/38/1 195/27/1 196/26/1
f 197/38/1 198/39/1 199/28/1 200/27/1
f 201/39/1 202/40/1 203/29/1 204/28/1
f 205/34/1 206/35/1 207/24/1 208/23/1
f 209/35/1 210/36/1 211/25/1 212/24/1
f 213/36/1 214/37/1 215/26/1 216/25/1
f 217/41/1 218/42/1 219/38/1 220/37/1
f 221/42/1 222/43/1 223/39/1 224/38/1
f 225/43/1 226/44/1 227/40/1 228/39/1
f 229/41/1 230/42/1 231/38/1 232/37/1
f 233/42/1 234/43/1 235/39/1 236/38/1
f 237/43/1 238/44/1 239/40/1 240/39/1
f 241/41/1 242/42/1 243/38/1 244/37/1
f 245/42/1 246/43/1 247/39/1 248/38/1
f 249/43/1 250/44/1 251/40/1 252/39/1

