# Tiled2Unity generated file. Do not modify by hand.
# Wavefront file for 'CoinCollecteMap2_mesh_0079.obj'

# Vertices (Count = 144)
v 0 -176000 0
v -3200 -176000 0
v -3200 -172800 0
v 0 -172800 0
v -3200 -176000 0
v -6400 -176000 0
v -6400 -172800 0
v -3200 -172800 0
v -6400 -176000 0
v -9600 -176000 0
v -9600 -172800 0
v -6400 -172800 0
v -9600 -176000 0
v -12800 -176000 0
v -12800 -172800 0
v -9600 -172800 0
v 0 -179200 0
v -3200 -179200 0
v -3200 -176000 0
v 0 -176000 0
v -3200 -179200 0
v -6400 -179200 0
v -6400 -176000 0
v -3200 -176000 0
v -6400 -179200 0
v -9600 -179200 0
v -9600 -176000 0
v -6400 -176000 0
v -9600 -179200 0
v -12800 -179200 0
v -12800 -176000 0
v -9600 -176000 0
v 0 -182400 0
v -3200 -182400 0
v -3200 -179200 0
v 0 -179200 0
v -3200 -182400 0
v -6400 -182400 0
v -6400 -179200 0
v -3200 -179200 0
v -6400 -182400 0
v -9600 -182400 0
v -9600 -179200 0
v -6400 -179200 0
v -9600 -182400 0
v -12800 -182400 0
v -12800 -179200 0
v -9600 -179200 0
v -118400 -182400 0
v -121600 -182400 0
v -121600 -179200 0
v -118400 -179200 0
v -121600 -182400 0
v -124800 -182400 0
v -124800 -179200 0
v -121600 -179200 0
v -124800 -182400 0
v -128000 -182400 0
v -128000 -179200 0
v -124800 -179200 0
v -128000 -182400 0
v -131200 -182400 0
v -131200 -179200 0
v -128000 -179200 0
v -131200 -182400 0
v -134400 -182400 0
v -134400 -179200 0
v -131200 -179200 0
v 0 -185600 0
v -3200 -185600 0
v -3200 -182400 0
v 0 -182400 0
v -3200 -185600 0
v -6400 -185600 0
v -6400 -182400 0
v -3200 -182400 0
v -6400 -185600 0
v -9600 -185600 0
v -9600 -182400 0
v -6400 -182400 0
v -9600 -185600 0
v -12800 -185600 0
v -12800 -182400 0
v -9600 -182400 0
v -118400 -185600 0
v -121600 -185600 0
v -121600 -182400 0
v -118400 -182400 0
v -121600 -185600 0
v -124800 -185600 0
v -124800 -182400 0
v -121600 -182400 0
v -124800 -185600 0
v -128000 -185600 0
v -128000 -182400 0
v -124800 -182400 0
v -128000 -185600 0
v -131200 -185600 0
v -131200 -182400 0
v -128000 -182400 0
v -131200 -185600 0
v -134400 -185600 0
v -134400 -182400 0
v -131200 -182400 0
v -118400 -188800 0
v -121600 -188800 0
v -121600 -185600 0
v -118400 -185600 0
v -121600 -188800 0
v -124800 -188800 0
v -124800 -185600 0
v -121600 -185600 0
v -124800 -188800 0
v -128000 -188800 0
v -128000 -185600 0
v -124800 -185600 0
v -128000 -188800 0
v -131200 -188800 0
v -131200 -185600 0
v -128000 -185600 0
v -131200 -188800 0
v -134400 -188800 0
v -134400 -185600 0
v -131200 -185600 0
v -118400 -192000 0
v -121600 -192000 0
v -121600 -188800 0
v -118400 -188800 0
v -121600 -192000 0
v -124800 -192000 0
v -124800 -188800 0
v -121600 -188800 0
v -124800 -192000 0
v -128000 -192000 0
v -128000 -188800 0
v -124800 -188800 0
v -128000 -192000 0
v -131200 -192000 0
v -131200 -188800 0
v -128000 -188800 0
v -131200 -192000 0
v -134400 -192000 0
v -134400 -188800 0
v -131200 -188800 0

# Texture cooridinates (Count = 20)
vt 0.8333333 0.4285714
vt 1 0.4285714
vt 1 0.5714285
vt 0.8333333 0.5714285
vt 0.5 0.4285714
vt 0.6666667 0.4285714
vt 0.6666667 0.5714285
vt 0.5 0.5714285
vt 0.8333333 0.2857143
vt 1 0.2857143
vt 0.5 0.2857143
vt 0.6666667 0.2857143
vt 0.8333333 0.1428571
vt 1 0.1428571
vt 0.5 0.1428571
vt 0.6666667 0.1428571
vt 0.8333333 0
vt 1 0
vt 0.5 0
vt 0.6666667 0

# Normal
vn 0 0 -1

# Mesh description
g CoinCollecteMap2_mesh_0079

# Faces
f 1/1/1 2/2/1 3/3/1 4/4/1
f 5/5/1 6/6/1 7/7/1 8/8/1
f 9/6/1 10/1/1 11/4/1 12/7/1
f 13/1/1 14/2/1 15/3/1 16/4/1
f 17/9/1 18/10/1 19/2/1 20/1/1
f 21/11/1 22/12/1 23/6/1 24/5/1
f 25/12/1 26/9/1 27/1/1 28/6/1
f 29/9/1 30/10/1 31/2/1 32/1/1
f 33/13/1 34/14/1 35/10/1 36/9/1
f 37/15/1 38/16/1 39/12/1 40/11/1
f 41/16/1 42/13/1 43/9/1 44/12/1
f 45/13/1 46/14/1 47/10/1 48/9/1
f 49/5/1 50/6/1 51/7/1 52/8/1
f 53/6/1 54/1/1 55/4/1 56/7/1
f 57/1/1 58/2/1 59/3/1 60/4/1
f 61/5/1 62/6/1 63/7/1 64/8/1
f 65/6/1 66/1/1 67/4/1 68/7/1
f 69/17/1 70/18/1 71/14/1 72/13/1
f 73/19/1 74/20/1 75/16/1 76/15/1
f 77/20/1 78/17/1 79/13/1 80/16/1
f 81/17/1 82/18/1 83/14/1 84/13/1
f 85/11/1 86/12/1 87/6/1 88/5/1
f 89/12/1 90/9/1 91/1/1 92/6/1
f 93/9/1 94/10/1 95/2/1 96/1/1
f 97/11/1 98/12/1 99/6/1 100/5/1
f 101/12/1 102/9/1 103/1/1 104/6/1
f 105/15/1 106/16/1 107/12/1 108/11/1
f 109/16/1 110/13/1 111/9/1 112/12/1
f 113/13/1 114/14/1 115/10/1 116/9/1
f 117/15/1 118/16/1 119/12/1 120/11/1
f 121/16/1 122/13/1 123/9/1 124/12/1
f 125/19/1 126/20/1 127/16/1 128/15/1
f 129/20/1 130/17/1 131/13/1 132/16/1
f 133/17/1 134/18/1 135/14/1 136/13/1
f 137/19/1 138/20/1 139/16/1 140/15/1
f 141/20/1 142/17/1 143/13/1 144/16/1

