# Tiled2Unity generated file. Do not modify by hand.
# Wavefront file for 'CoinCollecteMap2_mesh_0033.obj'

# Vertices (Count = 84)
v 0 -182400 0
v -3200 -182400 0
v -3200 -179200 0
v 0 -179200 0
v -3200 -182400 0
v -6400 -182400 0
v -6400 -179200 0
v -3200 -179200 0
v -6400 -182400 0
v -9600 -182400 0
v -9600 -179200 0
v -6400 -179200 0
v -9600 -182400 0
v -12800 -182400 0
v -12800 -179200 0
v -9600 -179200 0
v 0 -185600 0
v -3200 -185600 0
v -3200 -182400 0
v 0 -182400 0
v -3200 -185600 0
v -6400 -185600 0
v -6400 -182400 0
v -3200 -182400 0
v -6400 -185600 0
v -9600 -185600 0
v -9600 -182400 0
v -6400 -182400 0
v -9600 -185600 0
v -12800 -185600 0
v -12800 -182400 0
v -9600 -182400 0
v 0 -188800 0
v -3200 -188800 0
v -3200 -185600 0
v 0 -185600 0
v -3200 -188800 0
v -6400 -188800 0
v -6400 -185600 0
v -3200 -185600 0
v -6400 -188800 0
v -9600 -188800 0
v -9600 -185600 0
v -6400 -185600 0
v -9600 -188800 0
v -12800 -188800 0
v -12800 -185600 0
v -9600 -185600 0
v -118400 -188800 0
v -121600 -188800 0
v -121600 -185600 0
v -118400 -185600 0
v -121600 -188800 0
v -124800 -188800 0
v -124800 -185600 0
v -121600 -185600 0
v -124800 -188800 0
v -128000 -188800 0
v -128000 -185600 0
v -124800 -185600 0
v -118400 -192000 0
v -121600 -192000 0
v -121600 -188800 0
v -118400 -188800 0
v -121600 -192000 0
v -124800 -192000 0
v -124800 -188800 0
v -121600 -188800 0
v -124800 -192000 0
v -128000 -192000 0
v -128000 -188800 0
v -124800 -188800 0
v -118400 -195200 0
v -121600 -195200 0
v -121600 -192000 0
v -118400 -192000 0
v -121600 -195200 0
v -124800 -195200 0
v -124800 -192000 0
v -121600 -192000 0
v -124800 -195200 0
v -128000 -195200 0
v -128000 -192000 0
v -124800 -192000 0

# Texture cooridinates (Count = 16)
vt 0.8333333 0.6666666
vt 1 0.6666666
vt 1 1
vt 0.8333333 1
vt 0.5 0.6666666
vt 0.6666667 0.6666666
vt 0.6666667 1
vt 0.5 1
vt 0.8333333 0.3333333
vt 1 0.3333333
vt 0.5 0.3333333
vt 0.6666667 0.3333333
vt 0.8333333 0
vt 1 0
vt 0.5 0
vt 0.6666667 0

# Normal
vn 0 0 -1

# Mesh description
g CoinCollecteMap2_mesh_0033

# Faces
f 1/1/1 2/2/1 3/3/1 4/4/1
f 5/5/1 6/6/1 7/7/1 8/8/1
f 9/6/1 10/1/1 11/4/1 12/7/1
f 13/1/1 14/2/1 15/3/1 16/4/1
f 17/9/1 18/10/1 19/2/1 20/1/1
f 21/11/1 22/12/1 23/6/1 24/5/1
f 25/12/1 26/9/1 27/1/1 28/6/1
f 29/9/1 30/10/1 31/2/1 32/1/1
f 33/13/1 34/14/1 35/10/1 36/9/1
f 37/15/1 38/16/1 39/12/1 40/11/1
f 41/16/1 42/13/1 43/9/1 44/12/1
f 45/13/1 46/14/1 47/10/1 48/9/1
f 49/5/1 50/6/1 51/7/1 52/8/1
f 53/6/1 54/1/1 55/4/1 56/7/1
f 57/1/1 58/2/1 59/3/1 60/4/1
f 61/11/1 62/12/1 63/6/1 64/5/1
f 65/12/1 66/9/1 67/1/1 68/6/1
f 69/9/1 70/10/1 71/2/1 72/1/1
f 73/15/1 74/16/1 75/12/1 76/11/1
f 77/16/1 78/13/1 79/9/1 80/12/1
f 81/13/1 82/14/1 83/10/1 84/9/1

