# Tiled2Unity generated file. Do not modify by hand.
# Wavefront file for 'CoinCollecteMap2_mesh_0213.obj'

# Vertices (Count = 168)
v -28800 -214400 0
v -32000 -214400 0
v -32000 -211200 0
v -28800 -211200 0
v -32000 -214400 0
v -35200 -214400 0
v -35200 -211200 0
v -32000 -211200 0
v -35200 -214400 0
v -38400 -214400 0
v -38400 -211200 0
v -35200 -211200 0
v -44800 -214400 0
v -48000 -214400 0
v -48000 -211200 0
v -44800 -211200 0
v -48000 -214400 0
v -51200 -214400 0
v -51200 -211200 0
v -48000 -211200 0
v -51200 -214400 0
v -54400 -214400 0
v -54400 -211200 0
v -51200 -211200 0
v -96000 -214400 0
v -99200 -214400 0
v -99200 -211200 0
v -96000 -211200 0
v -99200 -214400 0
v -102400 -214400 0
v -102400 -211200 0
v -99200 -211200 0
v -102400 -214400 0
v -105600 -214400 0
v -105600 -211200 0
v -102400 -211200 0
v -28800 -217600 0
v -32000 -217600 0
v -32000 -214400 0
v -28800 -214400 0
v -32000 -217600 0
v -35200 -217600 0
v -35200 -214400 0
v -32000 -214400 0
v -35200 -217600 0
v -38400 -217600 0
v -38400 -214400 0
v -35200 -214400 0
v -44800 -217600 0
v -48000 -217600 0
v -48000 -214400 0
v -44800 -214400 0
v -48000 -217600 0
v -51200 -217600 0
v -51200 -214400 0
v -48000 -214400 0
v -51200 -217600 0
v -54400 -217600 0
v -54400 -214400 0
v -51200 -214400 0
v -86400 -217600 0
v -89600 -217600 0
v -89600 -214400 0
v -86400 -214400 0
v -89600 -217600 0
v -92800 -217600 0
v -92800 -214400 0
v -89600 -214400 0
v -92800 -217600 0
v -96000 -217600 0
v -96000 -214400 0
v -92800 -214400 0
v -96000 -217600 0
v -99200 -217600 0
v -99200 -214400 0
v -96000 -214400 0
v -99200 -217600 0
v -102400 -217600 0
v -102400 -214400 0
v -99200 -214400 0
v -102400 -217600 0
v -105600 -217600 0
v -105600 -214400 0
v -102400 -214400 0
v -28800 -220800 0
v -32000 -220800 0
v -32000 -217600 0
v -28800 -217600 0
v -32000 -220800 0
v -35200 -220800 0
v -35200 -217600 0
v -32000 -217600 0
v -35200 -220800 0
v -38400 -220800 0
v -38400 -217600 0
v -35200 -217600 0
v -44800 -220800 0
v -48000 -220800 0
v -48000 -217600 0
v -44800 -217600 0
v -48000 -220800 0
v -51200 -220800 0
v -51200 -217600 0
v -48000 -217600 0
v -51200 -220800 0
v -54400 -220800 0
v -54400 -217600 0
v -51200 -217600 0
v -86400 -220800 0
v -89600 -220800 0
v -89600 -217600 0
v -86400 -217600 0
v -89600 -220800 0
v -92800 -220800 0
v -92800 -217600 0
v -89600 -217600 0
v -92800 -220800 0
v -96000 -220800 0
v -96000 -217600 0
v -92800 -217600 0
v -96000 -220800 0
v -99200 -220800 0
v -99200 -217600 0
v -96000 -217600 0
v -99200 -220800 0
v -102400 -220800 0
v -102400 -217600 0
v -99200 -217600 0
v -102400 -220800 0
v -105600 -220800 0
v -105600 -217600 0
v -102400 -217600 0
v -28800 -224000 0
v -32000 -224000 0
v -32000 -220800 0
v -28800 -220800 0
v -32000 -224000 0
v -35200 -224000 0
v -35200 -220800 0
v -32000 -220800 0
v -35200 -224000 0
v -38400 -224000 0
v -38400 -220800 0
v -35200 -220800 0
v -86400 -224000 0
v -89600 -224000 0
v -89600 -220800 0
v -86400 -220800 0
v -89600 -224000 0
v -92800 -224000 0
v -92800 -220800 0
v -89600 -220800 0
v -92800 -224000 0
v -96000 -224000 0
v -96000 -220800 0
v -92800 -220800 0
v -96000 -224000 0
v -99200 -224000 0
v -99200 -220800 0
v -96000 -220800 0
v -99200 -224000 0
v -102400 -224000 0
v -102400 -220800 0
v -99200 -220800 0
v -102400 -224000 0
v -105600 -224000 0
v -105600 -220800 0
v -102400 -220800 0

# Texture cooridinates (Count = 32)
vt 0.5 0.4285714
vt 0.6666667 0.4285714
vt 0.6666667 0.5714285
vt 0.5 0.5714285
vt 0.8333333 0.4285714
vt 0.8333333 0.5714285
vt 1 0.4285714
vt 1 0.5714285
vt 0 0.4285714
vt 0.1666667 0.4285714
vt 0.1666667 0.5714285
vt 0 0.5714285
vt 0.3333333 0.4285714
vt 0.3333333 0.5714285
vt 0.5 0.2857143
vt 0.6666667 0.2857143
vt 0.8333333 0.2857143
vt 1 0.2857143
vt 0 0.2857143
vt 0.1666667 0.2857143
vt 0.3333333 0.2857143
vt 0.5 0.1428571
vt 0.6666667 0.1428571
vt 0.8333333 0.1428571
vt 1 0.1428571
vt 0 0.1428571
vt 0.1666667 0.1428571
vt 0.3333333 0.1428571
vt 0.5 0
vt 0.6666667 0
vt 0.8333333 0
vt 1 0

# Normal
vn 0 0 -1

# Mesh description
g CoinCollecteMap2_mesh_0213

# Faces
f 1/1/1 2/2/1 3/3/1 4/4/1
f 5/2/1 6/5/1 7/6/1 8/3/1
f 9/5/1 10/7/1 11/8/1 12/6/1
f 13/9/1 14/10/1 15/11/1 16/12/1
f 17/10/1 18/13/1 19/14/1 20/11/1
f 21/13/1 22/1/1 23/4/1 24/14/1
f 25/1/1 26/2/1 27/3/1 28/4/1
f 29/2/1 30/5/1 31/6/1 32/3/1
f 33/5/1 34/7/1 35/8/1 36/6/1
f 37/15/1 38/16/1 39/2/1 40/1/1
f 41/16/1 42/17/1 43/5/1 44/2/1
f 45/17/1 46/18/1 47/7/1 48/5/1
f 49/19/1 50/20/1 51/10/1 52/9/1
f 53/20/1 54/21/1 55/13/1 56/10/1
f 57/21/1 58/15/1 59/1/1 60/13/1
f 61/9/1 62/10/1 63/11/1 64/12/1
f 65/10/1 66/13/1 67/14/1 68/11/1
f 69/13/1 70/1/1 71/4/1 72/14/1
f 73/15/1 74/16/1 75/2/1 76/1/1
f 77/16/1 78/17/1 79/5/1 80/2/1
f 81/17/1 82/18/1 83/7/1 84/5/1
f 85/22/1 86/23/1 87/16/1 88/15/1
f 89/23/1 90/24/1 91/17/1 92/16/1
f 93/24/1 94/25/1 95/18/1 96/17/1
f 97/26/1 98/27/1 99/20/1 100/19/1
f 101/27/1 102/28/1 103/21/1 104/20/1
f 105/28/1 106/22/1 107/15/1 108/21/1
f 109/19/1 110/20/1 111/10/1 112/9/1
f 113/20/1 114/21/1 115/13/1 116/10/1
f 117/21/1 118/15/1 119/1/1 120/13/1
f 121/22/1 122/23/1 123/16/1 124/15/1
f 125/23/1 126/24/1 127/17/1 128/16/1
f 129/24/1 130/25/1 131/18/1 132/17/1
f 133/29/1 134/30/1 135/23/1 136/22/1
f 137/30/1 138/31/1 139/24/1 140/23/1
f 141/31/1 142/32/1 143/25/1 144/24/1
f 145/26/1 146/27/1 147/20/1 148/19/1
f 149/27/1 150/28/1 151/21/1 152/20/1
f 153/28/1 154/22/1 155/15/1 156/21/1
f 157/29/1 158/30/1 159/23/1 160/22/1
f 161/30/1 162/31/1 163/24/1 164/23/1
f 165/31/1 166/32/1 167/25/1 168/24/1

