# Tiled2Unity generated file. Do not modify by hand.
# Wavefront file for 'CoinCollecteMap2_mesh_0212.obj'

# Vertices (Count = 108)
v -32000 -208000 0
v -35200 -208000 0
v -35200 -204800 0
v -32000 -204800 0
v -35200 -208000 0
v -38400 -208000 0
v -38400 -204800 0
v -35200 -204800 0
v -38400 -208000 0
v -41600 -208000 0
v -41600 -204800 0
v -38400 -204800 0
v -32000 -211200 0
v -35200 -211200 0
v -35200 -208000 0
v -32000 -208000 0
v -35200 -211200 0
v -38400 -211200 0
v -38400 -208000 0
v -35200 -208000 0
v -38400 -211200 0
v -41600 -211200 0
v -41600 -208000 0
v -38400 -208000 0
v -80000 -211200 0
v -83200 -211200 0
v -83200 -208000 0
v -80000 -208000 0
v -83200 -211200 0
v -86400 -211200 0
v -86400 -208000 0
v -83200 -208000 0
v -86400 -211200 0
v -89600 -211200 0
v -89600 -208000 0
v -86400 -208000 0
v -92800 -211200 0
v -96000 -211200 0
v -96000 -208000 0
v -92800 -208000 0
v -96000 -211200 0
v -99200 -211200 0
v -99200 -208000 0
v -96000 -208000 0
v -99200 -211200 0
v -102400 -211200 0
v -102400 -208000 0
v -99200 -208000 0
v -32000 -214400 0
v -35200 -214400 0
v -35200 -211200 0
v -32000 -211200 0
v -35200 -214400 0
v -38400 -214400 0
v -38400 -211200 0
v -35200 -211200 0
v -38400 -214400 0
v -41600 -214400 0
v -41600 -211200 0
v -38400 -211200 0
v -80000 -214400 0
v -83200 -214400 0
v -83200 -211200 0
v -80000 -211200 0
v -83200 -214400 0
v -86400 -214400 0
v -86400 -211200 0
v -83200 -211200 0
v -86400 -214400 0
v -89600 -214400 0
v -89600 -211200 0
v -86400 -211200 0
v -92800 -214400 0
v -96000 -214400 0
v -96000 -211200 0
v -92800 -211200 0
v -96000 -214400 0
v -99200 -214400 0
v -99200 -211200 0
v -96000 -211200 0
v -99200 -214400 0
v -102400 -214400 0
v -102400 -211200 0
v -99200 -211200 0
v -80000 -217600 0
v -83200 -217600 0
v -83200 -214400 0
v -80000 -214400 0
v -83200 -217600 0
v -86400 -217600 0
v -86400 -214400 0
v -83200 -214400 0
v -86400 -217600 0
v -89600 -217600 0
v -89600 -214400 0
v -86400 -214400 0
v -92800 -217600 0
v -96000 -217600 0
v -96000 -214400 0
v -92800 -214400 0
v -96000 -217600 0
v -99200 -217600 0
v -99200 -214400 0
v -96000 -214400 0
v -99200 -217600 0
v -102400 -217600 0
v -102400 -214400 0
v -99200 -214400 0

# Texture cooridinates (Count = 28)
vt 0.5 0.8571429
vt 0.6666667 0.8571429
vt 0.6666667 1
vt 0.5 1
vt 0.8333333 0.8571429
vt 0.8333333 1
vt 1 0.8571429
vt 1 1
vt 0.5 0.7142857
vt 0.6666667 0.7142857
vt 0.8333333 0.7142857
vt 1 0.7142857
vt 0 0.8571429
vt 0.1666667 0.8571429
vt 0.1666667 1
vt 0 1
vt 0.3333333 0.8571429
vt 0.3333333 1
vt 0.5 0.5714285
vt 0.6666667 0.5714285
vt 0.8333333 0.5714285
vt 1 0.5714285
vt 0 0.7142857
vt 0.1666667 0.7142857
vt 0.3333333 0.7142857
vt 0 0.5714285
vt 0.1666667 0.5714285
vt 0.3333333 0.5714285

# Normal
vn 0 0 -1

# Mesh description
g CoinCollecteMap2_mesh_0212

# Faces
f 1/1/1 2/2/1 3/3/1 4/4/1
f 5/2/1 6/5/1 7/6/1 8/3/1
f 9/5/1 10/7/1 11/8/1 12/6/1
f 13/9/1 14/10/1 15/2/1 16/1/1
f 17/10/1 18/11/1 19/5/1 20/2/1
f 21/11/1 22/12/1 23/7/1 24/5/1
f 25/13/1 26/14/1 27/15/1 28/16/1
f 29/14/1 30/17/1 31/18/1 32/15/1
f 33/17/1 34/1/1 35/4/1 36/18/1
f 37/13/1 38/14/1 39/15/1 40/16/1
f 41/14/1 42/17/1 43/18/1 44/15/1
f 45/17/1 46/1/1 47/4/1 48/18/1
f 49/19/1 50/20/1 51/10/1 52/9/1
f 53/20/1 54/21/1 55/11/1 56/10/1
f 57/21/1 58/22/1 59/12/1 60/11/1
f 61/23/1 62/24/1 63/14/1 64/13/1
f 65/24/1 66/25/1 67/17/1 68/14/1
f 69/25/1 70/9/1 71/1/1 72/17/1
f 73/23/1 74/24/1 75/14/1 76/13/1
f 77/24/1 78/25/1 79/17/1 80/14/1
f 81/25/1 82/9/1 83/1/1 84/17/1
f 85/26/1 86/27/1 87/24/1 88/23/1
f 89/27/1 90/28/1 91/25/1 92/24/1
f 93/28/1 94/19/1 95/9/1 96/25/1
f 97/26/1 98/27/1 99/24/1 100/23/1
f 101/27/1 102/28/1 103/25/1 104/24/1
f 105/28/1 106/19/1 107/9/1 108/25/1

