# Tiled2Unity generated file. Do not modify by hand.
# Wavefront file for 'CoinCollecteMap2_mesh_0187.obj'

# Vertices (Count = 108)
v -92800 -121600 0
v -96000 -121600 0
v -96000 -118400 0
v -92800 -118400 0
v -96000 -121600 0
v -99200 -121600 0
v -99200 -118400 0
v -96000 -118400 0
v -99200 -121600 0
v -102400 -121600 0
v -102400 -118400 0
v -99200 -118400 0
v -38400 -124800 0
v -41600 -124800 0
v -41600 -121600 0
v -38400 -121600 0
v -41600 -124800 0
v -44800 -124800 0
v -44800 -121600 0
v -41600 -121600 0
v -44800 -124800 0
v -48000 -124800 0
v -48000 -121600 0
v -44800 -121600 0
v -80000 -124800 0
v -83200 -124800 0
v -83200 -121600 0
v -80000 -121600 0
v -83200 -124800 0
v -86400 -124800 0
v -86400 -121600 0
v -83200 -121600 0
v -86400 -124800 0
v -89600 -124800 0
v -89600 -121600 0
v -86400 -121600 0
v -92800 -124800 0
v -96000 -124800 0
v -96000 -121600 0
v -92800 -121600 0
v -96000 -124800 0
v -99200 -124800 0
v -99200 -121600 0
v -96000 -121600 0
v -99200 -124800 0
v -102400 -124800 0
v -102400 -121600 0
v -99200 -121600 0
v -38400 -128000 0
v -41600 -128000 0
v -41600 -124800 0
v -38400 -124800 0
v -41600 -128000 0
v -44800 -128000 0
v -44800 -124800 0
v -41600 -124800 0
v -44800 -128000 0
v -48000 -128000 0
v -48000 -124800 0
v -44800 -124800 0
v -80000 -128000 0
v -83200 -128000 0
v -83200 -124800 0
v -80000 -124800 0
v -83200 -128000 0
v -86400 -128000 0
v -86400 -124800 0
v -83200 -124800 0
v -86400 -128000 0
v -89600 -128000 0
v -89600 -124800 0
v -86400 -124800 0
v -92800 -128000 0
v -96000 -128000 0
v -96000 -124800 0
v -92800 -124800 0
v -96000 -128000 0
v -99200 -128000 0
v -99200 -124800 0
v -96000 -124800 0
v -99200 -128000 0
v -102400 -128000 0
v -102400 -124800 0
v -99200 -124800 0
v -38400 -131200 0
v -41600 -131200 0
v -41600 -128000 0
v -38400 -128000 0
v -41600 -131200 0
v -44800 -131200 0
v -44800 -128000 0
v -41600 -128000 0
v -44800 -131200 0
v -48000 -131200 0
v -48000 -128000 0
v -44800 -128000 0
v -80000 -131200 0
v -83200 -131200 0
v -83200 -128000 0
v -80000 -128000 0
v -83200 -131200 0
v -86400 -131200 0
v -86400 -128000 0
v -83200 -128000 0
v -86400 -131200 0
v -89600 -131200 0
v -89600 -128000 0
v -86400 -128000 0

# Texture cooridinates (Count = 31)
vt 0.5 0.8571429
vt 0.6666667 0.8571429
vt 0.6666667 1
vt 0.5 1
vt 0.8333333 0.8571429
vt 0.8333333 1
vt 1 0.8571429
vt 1 1
vt 0 0.4285714
vt 0.1666667 0.4285714
vt 0.1666667 0.5714285
vt 0 0.5714285
vt 0.3333333 0.4285714
vt 0.3333333 0.5714285
vt 0.5 0.4285714
vt 0.5 0.5714285
vt 0.5 0.7142857
vt 0.6666667 0.7142857
vt 0.8333333 0.7142857
vt 1 0.7142857
vt 0 0.2857143
vt 0.1666667 0.2857143
vt 0.3333333 0.2857143
vt 0.5 0.2857143
vt 0.6666667 0.5714285
vt 0.8333333 0.5714285
vt 1 0.5714285
vt 0 0.1428571
vt 0.1666667 0.1428571
vt 0.3333333 0.1428571
vt 0.5 0.1428571

# Normal
vn 0 0 -1

# Mesh description
g CoinCollecteMap2_mesh_0187

# Faces
f 1/1/1 2/2/1 3/3/1 4/4/1
f 5/2/1 6/5/1 7/6/1 8/3/1
f 9/5/1 10/7/1 11/8/1 12/6/1
f 13/9/1 14/10/1 15/11/1 16/12/1
f 17/10/1 18/13/1 19/14/1 20/11/1
f 21/13/1 22/15/1 23/16/1 24/14/1
f 25/1/1 26/2/1 27/3/1 28/4/1
f 29/2/1 30/5/1 31/6/1 32/3/1
f 33/5/1 34/7/1 35/8/1 36/6/1
f 37/17/1 38/18/1 39/2/1 40/1/1
f 41/18/1 42/19/1 43/5/1 44/2/1
f 45/19/1 46/20/1 47/7/1 48/5/1
f 49/21/1 50/22/1 51/10/1 52/9/1
f 53/22/1 54/23/1 55/13/1 56/10/1
f 57/23/1 58/24/1 59/15/1 60/13/1
f 61/17/1 62/18/1 63/2/1 64/1/1
f 65/18/1 66/19/1 67/5/1 68/2/1
f 69/19/1 70/20/1 71/7/1 72/5/1
f 73/16/1 74/25/1 75/18/1 76/17/1
f 77/25/1 78/26/1 79/19/1 80/18/1
f 81/26/1 82/27/1 83/20/1 84/19/1
f 85/28/1 86/29/1 87/22/1 88/21/1
f 89/29/1 90/30/1 91/23/1 92/22/1
f 93/30/1 94/31/1 95/24/1 96/23/1
f 97/16/1 98/25/1 99/18/1 100/17/1
f 101/25/1 102/26/1 103/19/1 104/18/1
f 105/26/1 106/27/1 107/20/1 108/19/1

