# Tiled2Unity generated file. Do not modify by hand.
# Wavefront file for 'CoinCollecteMap2_mesh_0130.obj'

# Vertices (Count = 312)
v -86400 -73600 0
v -89600 -73600 0
v -89600 -70400 0
v -86400 -70400 0
v -89600 -73600 0
v -92800 -73600 0
v -92800 -70400 0
v -89600 -70400 0
v -92800 -73600 0
v -96000 -73600 0
v -96000 -70400 0
v -92800 -70400 0
v -99200 -73600 0
v -102400 -73600 0
v -102400 -70400 0
v -99200 -70400 0
v -102400 -73600 0
v -105600 -73600 0
v -105600 -70400 0
v -102400 -70400 0
v -105600 -73600 0
v -108800 -73600 0
v -108800 -70400 0
v -105600 -70400 0
v -28800 -76800 0
v -32000 -76800 0
v -32000 -73600 0
v -28800 -73600 0
v -32000 -76800 0
v -35200 -76800 0
v -35200 -73600 0
v -32000 -73600 0
v -35200 -76800 0
v -38400 -76800 0
v -38400 -73600 0
v -35200 -73600 0
v -41600 -76800 0
v -44800 -76800 0
v -44800 -73600 0
v -41600 -73600 0
v -44800 -76800 0
v -48000 -76800 0
v -48000 -73600 0
v -44800 -73600 0
v -48000 -76800 0
v -51200 -76800 0
v -51200 -73600 0
v -48000 -73600 0
v -86400 -76800 0
v -89600 -76800 0
v -89600 -73600 0
v -86400 -73600 0
v -89600 -76800 0
v -92800 -76800 0
v -92800 -73600 0
v -89600 -73600 0
v -92800 -76800 0
v -96000 -76800 0
v -96000 -73600 0
v -92800 -73600 0
v -99200 -76800 0
v -102400 -76800 0
v -102400 -73600 0
v -99200 -73600 0
v -102400 -76800 0
v -105600 -76800 0
v -105600 -73600 0
v -102400 -73600 0
v -105600 -76800 0
v -108800 -76800 0
v -108800 -73600 0
v -105600 -73600 0
v -28800 -80000 0
v -32000 -80000 0
v -32000 -76800 0
v -28800 -76800 0
v -32000 -80000 0
v -35200 -80000 0
v -35200 -76800 0
v -32000 -76800 0
v -35200 -80000 0
v -38400 -80000 0
v -38400 -76800 0
v -35200 -76800 0
v -41600 -80000 0
v -44800 -80000 0
v -44800 -76800 0
v -41600 -76800 0
v -44800 -80000 0
v -48000 -80000 0
v -48000 -76800 0
v -44800 -76800 0
v -48000 -80000 0
v -51200 -80000 0
v -51200 -76800 0
v -48000 -76800 0
v -86400 -80000 0
v -89600 -80000 0
v -89600 -76800 0
v -86400 -76800 0
v -89600 -80000 0
v -92800 -80000 0
v -92800 -76800 0
v -89600 -76800 0
v -92800 -80000 0
v -96000 -80000 0
v -96000 -76800 0
v -92800 -76800 0
v -96000 -80000 0
v -99200 -80000 0
v -99200 -76800 0
v -96000 -76800 0
v -99200 -80000 0
v -102400 -80000 0
v -102400 -76800 0
v -99200 -76800 0
v -102400 -80000 0
v -105600 -80000 0
v -105600 -76800 0
v -102400 -76800 0
v -105600 -80000 0
v -108800 -80000 0
v -108800 -76800 0
v -105600 -76800 0
v -28800 -83200 0
v -32000 -83200 0
v -32000 -80000 0
v -28800 -80000 0
v -32000 -83200 0
v -35200 -83200 0
v -35200 -80000 0
v -32000 -80000 0
v -35200 -83200 0
v -38400 -83200 0
v -38400 -80000 0
v -35200 -80000 0
v -41600 -83200 0
v -44800 -83200 0
v -44800 -80000 0
v -41600 -80000 0
v -44800 -83200 0
v -48000 -83200 0
v -48000 -80000 0
v -44800 -80000 0
v -48000 -83200 0
v -51200 -83200 0
v -51200 -80000 0
v -48000 -80000 0
v -92800 -83200 0
v -96000 -83200 0
v -96000 -80000 0
v -92800 -80000 0
v -96000 -83200 0
v -99200 -83200 0
v -99200 -80000 0
v -96000 -80000 0
v -99200 -83200 0
v -102400 -83200 0
v -102400 -80000 0
v -99200 -80000 0
v -28800 -86400 0
v -32000 -86400 0
v -32000 -83200 0
v -28800 -83200 0
v -32000 -86400 0
v -35200 -86400 0
v -35200 -83200 0
v -32000 -83200 0
v -35200 -86400 0
v -38400 -86400 0
v -38400 -83200 0
v -35200 -83200 0
v -41600 -86400 0
v -44800 -86400 0
v -44800 -83200 0
v -41600 -83200 0
v -44800 -86400 0
v -48000 -86400 0
v -48000 -83200 0
v -44800 -83200 0
v -48000 -86400 0
v -51200 -86400 0
v -51200 -83200 0
v -48000 -83200 0
v -86400 -86400 0
v -89600 -86400 0
v -89600 -83200 0
v -86400 -83200 0
v -89600 -86400 0
v -92800 -86400 0
v -92800 -83200 0
v -89600 -83200 0
v -92800 -86400 0
v -96000 -86400 0
v -96000 -83200 0
v -92800 -83200 0
v -96000 -86400 0
v -99200 -86400 0
v -99200 -83200 0
v -96000 -83200 0
v -99200 -86400 0
v -102400 -86400 0
v -102400 -83200 0
v -99200 -83200 0
v -102400 -86400 0
v -105600 -86400 0
v -105600 -83200 0
v -102400 -83200 0
v -28800 -89600 0
v -32000 -89600 0
v -32000 -86400 0
v -28800 -86400 0
v -32000 -89600 0
v -35200 -89600 0
v -35200 -86400 0
v -32000 -86400 0
v -35200 -89600 0
v -38400 -89600 0
v -38400 -86400 0
v -35200 -86400 0
v -38400 -89600 0
v -41600 -89600 0
v -41600 -86400 0
v -38400 -86400 0
v -41600 -89600 0
v -44800 -89600 0
v -44800 -86400 0
v -41600 -86400 0
v -44800 -89600 0
v -48000 -89600 0
v -48000 -86400 0
v -44800 -86400 0
v -48000 -89600 0
v -51200 -89600 0
v -51200 -86400 0
v -48000 -86400 0
v -86400 -89600 0
v -89600 -89600 0
v -89600 -86400 0
v -86400 -86400 0
v -89600 -89600 0
v -92800 -89600 0
v -92800 -86400 0
v -89600 -86400 0
v -92800 -89600 0
v -96000 -89600 0
v -96000 -86400 0
v -92800 -86400 0
v -96000 -89600 0
v -99200 -89600 0
v -99200 -86400 0
v -96000 -86400 0
v -99200 -89600 0
v -102400 -89600 0
v -102400 -86400 0
v -99200 -86400 0
v -102400 -89600 0
v -105600 -89600 0
v -105600 -86400 0
v -102400 -86400 0
v -28800 -92800 0
v -32000 -92800 0
v -32000 -89600 0
v -28800 -89600 0
v -32000 -92800 0
v -35200 -92800 0
v -35200 -89600 0
v -32000 -89600 0
v -35200 -92800 0
v -38400 -92800 0
v -38400 -89600 0
v -35200 -89600 0
v -44800 -92800 0
v -48000 -92800 0
v -48000 -89600 0
v -44800 -89600 0
v -48000 -92800 0
v -51200 -92800 0
v -51200 -89600 0
v -48000 -89600 0
v -86400 -92800 0
v -89600 -92800 0
v -89600 -89600 0
v -86400 -89600 0
v -89600 -92800 0
v -92800 -92800 0
v -92800 -89600 0
v -89600 -89600 0
v -92800 -92800 0
v -96000 -92800 0
v -96000 -89600 0
v -92800 -89600 0
v -96000 -92800 0
v -99200 -92800 0
v -99200 -89600 0
v -96000 -89600 0
v -99200 -92800 0
v -102400 -92800 0
v -102400 -89600 0
v -99200 -89600 0
v -102400 -92800 0
v -105600 -92800 0
v -105600 -89600 0
v -102400 -89600 0
v -35200 -96000 0
v -38400 -96000 0
v -38400 -92800 0
v -35200 -92800 0
v -41600 -96000 0
v -44800 -96000 0
v -44800 -92800 0
v -41600 -92800 0

# Texture cooridinates (Count = 28)
vt 0 0.6666666
vt 0.1666667 0.6666666
vt 0.1666667 1
vt 0 1
vt 0.3333333 0.6666666
vt 0.3333333 1
vt 0.5 0.6666666
vt 0.5 1
vt 0 0.3333333
vt 0.1666667 0.3333333
vt 0.3333333 0.3333333
vt 0.5 0.3333333
vt 0 0
vt 0.1666667 0
vt 0.3333333 0
vt 0.5 0
vt 0.6666667 0.6666666
vt 0.6666667 1
vt 0.8333333 0.6666666
vt 0.8333333 1
vt 1 0.6666666
vt 1 1
vt 0.6666667 0.3333333
vt 0.8333333 0.3333333
vt 1 0.3333333
vt 0.6666667 0
vt 0.8333333 0
vt 1 0

# Normal
vn 0 0 -1

# Mesh description
g CoinCollecteMap2_mesh_0130

# Faces
f 1/1/1 2/2/1 3/3/1 4/4/1
f 5/2/1 6/5/1 7/6/1 8/3/1
f 9/5/1 10/7/1 11/8/1 12/6/1
f 13/1/1 14/2/1 15/3/1 16/4/1
f 17/2/1 18/5/1 19/6/1 20/3/1
f 21/5/1 22/7/1 23/8/1 24/6/1
f 25/1/1 26/2/1 27/3/1 28/4/1
f 29/2/1 30/5/1 31/6/1 32/3/1
f 33/5/1 34/7/1 35/8/1 36/6/1
f 37/1/1 38/2/1 39/3/1 40/4/1
f 41/2/1 42/5/1 43/6/1 44/3/1
f 45/5/1 46/7/1 47/8/1 48/6/1
f 49/9/1 50/10/1 51/2/1 52/1/1
f 53/10/1 54/11/1 55/5/1 56/2/1
f 57/11/1 58/12/1 59/7/1 60/5/1
f 61/9/1 62/10/1 63/2/1 64/1/1
f 65/10/1 66/11/1 67/5/1 68/2/1
f 69/11/1 70/12/1 71/7/1 72/5/1
f 73/9/1 74/10/1 75/2/1 76/1/1
f 77/10/1 78/11/1 79/5/1 80/2/1
f 81/11/1 82/12/1 83/7/1 84/5/1
f 85/9/1 86/10/1 87/2/1 88/1/1
f 89/10/1 90/11/1 91/5/1 92/2/1
f 93/11/1 94/12/1 95/7/1 96/5/1
f 97/13/1 98/14/1 99/10/1 100/9/1
f 101/14/1 102/15/1 103/11/1 104/10/1
f 105/15/1 106/16/1 107/12/1 108/11/1
f 109/2/1 110/5/1 111/6/1 112/3/1
f 113/13/1 114/14/1 115/10/1 116/9/1
f 117/14/1 118/15/1 119/11/1 120/10/1
f 121/15/1 122/16/1 123/12/1 124/11/1
f 125/13/1 126/14/1 127/10/1 128/9/1
f 129/14/1 130/15/1 131/11/1 132/10/1
f 133/15/1 134/16/1 135/12/1 136/11/1
f 137/13/1 138/14/1 139/10/1 140/9/1
f 141/14/1 142/15/1 143/11/1 144/10/1
f 145/15/1 146/16/1 147/12/1 148/11/1
f 149/9/1 150/10/1 151/2/1 152/1/1
f 153/10/1 154/11/1 155/5/1 156/2/1
f 157/11/1 158/12/1 159/7/1 160/5/1
f 161/7/1 162/17/1 163/18/1 164/8/1
f 165/17/1 166/19/1 167/20/1 168/18/1
f 169/19/1 170/21/1 171/22/1 172/20/1
f 173/7/1 174/17/1 175/18/1 176/8/1
f 177/17/1 178/19/1 179/20/1 180/18/1
f 181/19/1 182/21/1 183/22/1 184/20/1
f 185/7/1 186/17/1 187/18/1 188/8/1
f 189/17/1 190/19/1 191/20/1 192/18/1
f 193/13/1 194/14/1 195/10/1 196/9/1
f 197/14/1 198/15/1 199/11/1 200/10/1
f 201/15/1 202/16/1 203/12/1 204/11/1
f 205/5/1 206/7/1 207/8/1 208/6/1
f 209/12/1 210/23/1 211/17/1 212/7/1
f 213/23/1 214/24/1 215/19/1 216/17/1
f 217/24/1 218/25/1 219/21/1 220/19/1
f 221/17/1 222/19/1 223/20/1 224/18/1
f 225/19/1 226/21/1 227/22/1 228/20/1
f 229/23/1 230/24/1 231/19/1 232/17/1
f 233/24/1 234/25/1 235/21/1 236/19/1
f 237/12/1 238/23/1 239/17/1 240/7/1
f 241/23/1 242/24/1 243/19/1 244/17/1
f 245/24/1 246/25/1 247/21/1 248/19/1
f 249/9/1 250/10/1 251/2/1 252/1/1
f 253/10/1 254/11/1 255/5/1 256/2/1
f 257/11/1 258/12/1 259/7/1 260/5/1
f 261/16/1 262/26/1 263/23/1 264/12/1
f 265/26/1 266/27/1 267/24/1 268/23/1
f 269/27/1 270/28/1 271/25/1 272/24/1
f 273/26/1 274/27/1 275/24/1 276/23/1
f 277/27/1 278/28/1 279/25/1 280/24/1
f 281/16/1 282/26/1 283/23/1 284/12/1
f 285/26/1 286/27/1 287/24/1 288/23/1
f 289/27/1 290/28/1 291/25/1 292/24/1
f 293/13/1 294/14/1 295/10/1 296/9/1
f 297/14/1 298/15/1 299/11/1 300/10/1
f 301/15/1 302/16/1 303/12/1 304/11/1
f 305/16/1 306/26/1 307/23/1 308/12/1
f 309/27/1 310/28/1 311/25/1 312/24/1

