# Tiled2Unity generated file. Do not modify by hand.
# Wavefront file for 'CoinCollecteMap2_mesh_0190.obj'

# Vertices (Count = 108)
v -32000 -131200 0
v -35200 -131200 0
v -35200 -128000 0
v -32000 -128000 0
v -35200 -131200 0
v -38400 -131200 0
v -38400 -128000 0
v -35200 -128000 0
v -38400 -131200 0
v -41600 -131200 0
v -41600 -128000 0
v -38400 -128000 0
v -89600 -131200 0
v -92800 -131200 0
v -92800 -128000 0
v -89600 -128000 0
v -92800 -131200 0
v -96000 -131200 0
v -96000 -128000 0
v -92800 -128000 0
v -96000 -131200 0
v -99200 -131200 0
v -99200 -128000 0
v -96000 -128000 0
v -32000 -134400 0
v -35200 -134400 0
v -35200 -131200 0
v -32000 -131200 0
v -35200 -134400 0
v -38400 -134400 0
v -38400 -131200 0
v -35200 -131200 0
v -38400 -134400 0
v -41600 -134400 0
v -41600 -131200 0
v -38400 -131200 0
v -44800 -134400 0
v -48000 -134400 0
v -48000 -131200 0
v -44800 -131200 0
v -48000 -134400 0
v -51200 -134400 0
v -51200 -131200 0
v -48000 -131200 0
v -51200 -134400 0
v -54400 -134400 0
v -54400 -131200 0
v -51200 -131200 0
v -89600 -134400 0
v -92800 -134400 0
v -92800 -131200 0
v -89600 -131200 0
v -92800 -134400 0
v -96000 -134400 0
v -96000 -131200 0
v -92800 -131200 0
v -96000 -134400 0
v -99200 -134400 0
v -99200 -131200 0
v -96000 -131200 0
v -32000 -137600 0
v -35200 -137600 0
v -35200 -134400 0
v -32000 -134400 0
v -35200 -137600 0
v -38400 -137600 0
v -38400 -134400 0
v -35200 -134400 0
v -38400 -137600 0
v -41600 -137600 0
v -41600 -134400 0
v -38400 -134400 0
v -44800 -137600 0
v -48000 -137600 0
v -48000 -134400 0
v -44800 -134400 0
v -48000 -137600 0
v -51200 -137600 0
v -51200 -134400 0
v -48000 -134400 0
v -51200 -137600 0
v -54400 -137600 0
v -54400 -134400 0
v -51200 -134400 0
v -89600 -137600 0
v -92800 -137600 0
v -92800 -134400 0
v -89600 -134400 0
v -92800 -137600 0
v -96000 -137600 0
v -96000 -134400 0
v -92800 -134400 0
v -96000 -137600 0
v -99200 -137600 0
v -99200 -134400 0
v -96000 -134400 0
v -44800 -140800 0
v -48000 -140800 0
v -48000 -137600 0
v -44800 -137600 0
v -48000 -140800 0
v -51200 -140800 0
v -51200 -137600 0
v -48000 -137600 0
v -51200 -140800 0
v -54400 -140800 0
v -54400 -137600 0
v -51200 -137600 0

# Texture cooridinates (Count = 31)
vt 0.5 0.8571429
vt 0.6666667 0.8571429
vt 0.6666667 1
vt 0.5 1
vt 0.8333333 0.8571429
vt 0.8333333 1
vt 1 0.8571429
vt 1 1
vt 0 0.4285714
vt 0.1666667 0.4285714
vt 0.1666667 0.5714285
vt 0 0.5714285
vt 0.3333333 0.4285714
vt 0.3333333 0.5714285
vt 0.5 0.4285714
vt 0.5 0.5714285
vt 0.5 0.7142857
vt 0.6666667 0.7142857
vt 0.8333333 0.7142857
vt 1 0.7142857
vt 0 0.2857143
vt 0.1666667 0.2857143
vt 0.3333333 0.2857143
vt 0.5 0.2857143
vt 0.6666667 0.5714285
vt 0.8333333 0.5714285
vt 1 0.5714285
vt 0 0.1428571
vt 0.1666667 0.1428571
vt 0.3333333 0.1428571
vt 0.5 0.1428571

# Normal
vn 0 0 -1

# Mesh description
g CoinCollecteMap2_mesh_0190

# Faces
f 1/1/1 2/2/1 3/3/1 4/4/1
f 5/2/1 6/5/1 7/6/1 8/3/1
f 9/5/1 10/7/1 11/8/1 12/6/1
f 13/9/1 14/10/1 15/11/1 16/12/1
f 17/10/1 18/13/1 19/14/1 20/11/1
f 21/13/1 22/15/1 23/16/1 24/14/1
f 25/17/1 26/18/1 27/2/1 28/1/1
f 29/18/1 30/19/1 31/5/1 32/2/1
f 33/19/1 34/20/1 35/7/1 36/5/1
f 37/9/1 38/10/1 39/11/1 40/12/1
f 41/10/1 42/13/1 43/14/1 44/11/1
f 45/13/1 46/15/1 47/16/1 48/14/1
f 49/21/1 50/22/1 51/10/1 52/9/1
f 53/22/1 54/23/1 55/13/1 56/10/1
f 57/23/1 58/24/1 59/15/1 60/13/1
f 61/16/1 62/25/1 63/18/1 64/17/1
f 65/25/1 66/26/1 67/19/1 68/18/1
f 69/26/1 70/27/1 71/20/1 72/19/1
f 73/21/1 74/22/1 75/10/1 76/9/1
f 77/22/1 78/23/1 79/13/1 80/10/1
f 81/23/1 82/24/1 83/15/1 84/13/1
f 85/28/1 86/29/1 87/22/1 88/21/1
f 89/29/1 90/30/1 91/23/1 92/22/1
f 93/30/1 94/31/1 95/24/1 96/23/1
f 97/28/1 98/29/1 99/22/1 100/21/1
f 101/29/1 102/30/1 103/23/1 104/22/1
f 105/30/1 106/31/1 107/24/1 108/23/1

