# Tiled2Unity generated file. Do not modify by hand.
# Wavefront file for 'CoinCollecteMap2_mesh_0133.obj'

# Vertices (Count = 144)
v -92800 -92800 0
v -96000 -92800 0
v -96000 -89600 0
v -92800 -89600 0
v -96000 -92800 0
v -99200 -92800 0
v -99200 -89600 0
v -96000 -89600 0
v -99200 -92800 0
v -102400 -92800 0
v -102400 -89600 0
v -99200 -89600 0
v -44800 -96000 0
v -48000 -96000 0
v -48000 -92800 0
v -44800 -92800 0
v -48000 -96000 0
v -51200 -96000 0
v -51200 -92800 0
v -48000 -92800 0
v -51200 -96000 0
v -54400 -96000 0
v -54400 -92800 0
v -51200 -92800 0
v -92800 -96000 0
v -96000 -96000 0
v -96000 -92800 0
v -92800 -92800 0
v -96000 -96000 0
v -99200 -96000 0
v -99200 -92800 0
v -96000 -92800 0
v -99200 -96000 0
v -102400 -96000 0
v -102400 -92800 0
v -99200 -92800 0
v -35200 -99200 0
v -38400 -99200 0
v -38400 -96000 0
v -35200 -96000 0
v -38400 -99200 0
v -41600 -99200 0
v -41600 -96000 0
v -38400 -96000 0
v -41600 -99200 0
v -44800 -99200 0
v -44800 -96000 0
v -41600 -96000 0
v -44800 -99200 0
v -48000 -99200 0
v -48000 -96000 0
v -44800 -96000 0
v -48000 -99200 0
v -51200 -99200 0
v -51200 -96000 0
v -48000 -96000 0
v -51200 -99200 0
v -54400 -99200 0
v -54400 -96000 0
v -51200 -96000 0
v -70400 -99200 0
v -73600 -99200 0
v -73600 -96000 0
v -70400 -96000 0
v -73600 -99200 0
v -76800 -99200 0
v -76800 -96000 0
v -73600 -96000 0
v -76800 -99200 0
v -80000 -99200 0
v -80000 -96000 0
v -76800 -96000 0
v -92800 -99200 0
v -96000 -99200 0
v -96000 -96000 0
v -92800 -96000 0
v -96000 -99200 0
v -99200 -99200 0
v -99200 -96000 0
v -96000 -96000 0
v -99200 -99200 0
v -102400 -99200 0
v -102400 -96000 0
v -99200 -96000 0
v -35200 -102400 0
v -38400 -102400 0
v -38400 -99200 0
v -35200 -99200 0
v -38400 -102400 0
v -41600 -102400 0
v -41600 -99200 0
v -38400 -99200 0
v -41600 -102400 0
v -44800 -102400 0
v -44800 -99200 0
v -41600 -99200 0
v -44800 -102400 0
v -48000 -102400 0
v -48000 -99200 0
v -44800 -99200 0
v -48000 -102400 0
v -51200 -102400 0
v -51200 -99200 0
v -48000 -99200 0
v -51200 -102400 0
v -54400 -102400 0
v -54400 -99200 0
v -51200 -99200 0
v -70400 -102400 0
v -73600 -102400 0
v -73600 -99200 0
v -70400 -99200 0
v -73600 -102400 0
v -76800 -102400 0
v -76800 -99200 0
v -73600 -99200 0
v -76800 -102400 0
v -80000 -102400 0
v -80000 -99200 0
v -76800 -99200 0
v -35200 -105600 0
v -38400 -105600 0
v -38400 -102400 0
v -35200 -102400 0
v -38400 -105600 0
v -41600 -105600 0
v -41600 -102400 0
v -38400 -102400 0
v -41600 -105600 0
v -44800 -105600 0
v -44800 -102400 0
v -41600 -102400 0
v -70400 -105600 0
v -73600 -105600 0
v -73600 -102400 0
v -70400 -102400 0
v -73600 -105600 0
v -76800 -105600 0
v -76800 -102400 0
v -73600 -102400 0
v -76800 -105600 0
v -80000 -105600 0
v -80000 -102400 0
v -76800 -102400 0

# Texture cooridinates (Count = 16)
vt 0.5 0.6666666
vt 0.6666667 0.6666666
vt 0.6666667 1
vt 0.5 1
vt 0.8333333 0.6666666
vt 0.8333333 1
vt 1 0.6666666
vt 1 1
vt 0.5 0.3333333
vt 0.6666667 0.3333333
vt 0.8333333 0.3333333
vt 1 0.3333333
vt 0.5 0
vt 0.6666667 0
vt 0.8333333 0
vt 1 0

# Normal
vn 0 0 -1

# Mesh description
g CoinCollecteMap2_mesh_0133

# Faces
f 1/1/1 2/2/1 3/3/1 4/4/1
f 5/2/1 6/5/1 7/6/1 8/3/1
f 9/5/1 10/7/1 11/8/1 12/6/1
f 13/1/1 14/2/1 15/3/1 16/4/1
f 17/2/1 18/5/1 19/6/1 20/3/1
f 21/5/1 22/7/1 23/8/1 24/6/1
f 25/9/1 26/10/1 27/2/1 28/1/1
f 29/10/1 30/11/1 31/5/1 32/2/1
f 33/11/1 34/12/1 35/7/1 36/5/1
f 37/1/1 38/2/1 39/3/1 40/4/1
f 41/2/1 42/5/1 43/6/1 44/3/1
f 45/5/1 46/7/1 47/8/1 48/6/1
f 49/9/1 50/10/1 51/2/1 52/1/1
f 53/10/1 54/11/1 55/5/1 56/2/1
f 57/11/1 58/12/1 59/7/1 60/5/1
f 61/1/1 62/2/1 63/3/1 64/4/1
f 65/2/1 66/5/1 67/6/1 68/3/1
f 69/5/1 70/7/1 71/8/1 72/6/1
f 73/13/1 74/14/1 75/10/1 76/9/1
f 77/14/1 78/15/1 79/11/1 80/10/1
f 81/15/1 82/16/1 83/12/1 84/11/1
f 85/9/1 86/10/1 87/2/1 88/1/1
f 89/10/1 90/11/1 91/5/1 92/2/1
f 93/11/1 94/12/1 95/7/1 96/5/1
f 97/13/1 98/14/1 99/10/1 100/9/1
f 101/14/1 102/15/1 103/11/1 104/10/1
f 105/15/1 106/16/1 107/12/1 108/11/1
f 109/9/1 110/10/1 111/2/1 112/1/1
f 113/10/1 114/11/1 115/5/1 116/2/1
f 117/11/1 118/12/1 119/7/1 120/5/1
f 121/13/1 122/14/1 123/10/1 124/9/1
f 125/14/1 126/15/1 127/11/1 128/10/1
f 129/15/1 130/16/1 131/12/1 132/11/1
f 133/13/1 134/14/1 135/10/1 136/9/1
f 137/14/1 138/15/1 139/11/1 140/10/1
f 141/15/1 142/16/1 143/12/1 144/11/1

