# Tiled2Unity generated file. Do not modify by hand.
# Wavefront file for 'CoinCollecteMap2_mesh_0153.obj'

# Vertices (Count = 116)
v -73600 -166400 0
v -76800 -166400 0
v -76800 -163200 0
v -73600 -163200 0
v -80000 -166400 0
v -83200 -166400 0
v -83200 -163200 0
v -80000 -163200 0
v -83200 -166400 0
v -86400 -166400 0
v -86400 -163200 0
v -83200 -163200 0
v -86400 -166400 0
v -89600 -166400 0
v -89600 -163200 0
v -86400 -163200 0
v -51200 -169600 0
v -54400 -169600 0
v -54400 -166400 0
v -51200 -166400 0
v -54400 -169600 0
v -57600 -169600 0
v -57600 -166400 0
v -54400 -166400 0
v -57600 -169600 0
v -60800 -169600 0
v -60800 -166400 0
v -57600 -166400 0
v -60800 -169600 0
v -64000 -169600 0
v -64000 -166400 0
v -60800 -166400 0
v -64000 -169600 0
v -67200 -169600 0
v -67200 -166400 0
v -64000 -166400 0
v -67200 -169600 0
v -70400 -169600 0
v -70400 -166400 0
v -67200 -166400 0
v -80000 -169600 0
v -83200 -169600 0
v -83200 -166400 0
v -80000 -166400 0
v -83200 -169600 0
v -86400 -169600 0
v -86400 -166400 0
v -83200 -166400 0
v -86400 -169600 0
v -89600 -169600 0
v -89600 -166400 0
v -86400 -166400 0
v -51200 -172800 0
v -54400 -172800 0
v -54400 -169600 0
v -51200 -169600 0
v -54400 -172800 0
v -57600 -172800 0
v -57600 -169600 0
v -54400 -169600 0
v -57600 -172800 0
v -60800 -172800 0
v -60800 -169600 0
v -57600 -169600 0
v -60800 -172800 0
v -64000 -172800 0
v -64000 -169600 0
v -60800 -169600 0
v -64000 -172800 0
v -67200 -172800 0
v -67200 -169600 0
v -64000 -169600 0
v -67200 -172800 0
v -70400 -172800 0
v -70400 -169600 0
v -67200 -169600 0
v -73600 -172800 0
v -76800 -172800 0
v -76800 -169600 0
v -73600 -169600 0
v -80000 -172800 0
v -83200 -172800 0
v -83200 -169600 0
v -80000 -169600 0
v -83200 -172800 0
v -86400 -172800 0
v -86400 -169600 0
v -83200 -169600 0
v -86400 -172800 0
v -89600 -172800 0
v -89600 -169600 0
v -86400 -169600 0
v -51200 -176000 0
v -54400 -176000 0
v -54400 -172800 0
v -51200 -172800 0
v -54400 -176000 0
v -57600 -176000 0
v -57600 -172800 0
v -54400 -172800 0
v -57600 -176000 0
v -60800 -176000 0
v -60800 -172800 0
v -57600 -172800 0
v -60800 -176000 0
v -64000 -176000 0
v -64000 -172800 0
v -60800 -172800 0
v -64000 -176000 0
v -67200 -176000 0
v -67200 -172800 0
v -64000 -172800 0
v -67200 -176000 0
v -70400 -176000 0
v -70400 -172800 0
v -67200 -172800 0

# Texture cooridinates (Count = 16)
vt 0 0.6666666
vt 0.1666667 0.6666666
vt 0.1666667 1
vt 0 1
vt 0.3333333 0.6666666
vt 0.3333333 1
vt 0.5 0.6666666
vt 0.5 1
vt 0 0.3333333
vt 0.1666667 0.3333333
vt 0.3333333 0.3333333
vt 0.5 0.3333333
vt 0 0
vt 0.1666667 0
vt 0.3333333 0
vt 0.5 0

# Normal
vn 0 0 -1

# Mesh description
g CoinCollecteMap2_mesh_0153

# Faces
f 1/1/1 2/2/1 3/3/1 4/4/1
f 5/1/1 6/2/1 7/3/1 8/4/1
f 9/2/1 10/5/1 11/6/1 12/3/1
f 13/5/1 14/7/1 15/8/1 16/6/1
f 17/1/1 18/2/1 19/3/1 20/4/1
f 21/2/1 22/5/1 23/6/1 24/3/1
f 25/5/1 26/7/1 27/8/1 28/6/1
f 29/1/1 30/2/1 31/3/1 32/4/1
f 33/2/1 34/5/1 35/6/1 36/3/1
f 37/5/1 38/7/1 39/8/1 40/6/1
f 41/9/1 42/10/1 43/2/1 44/1/1
f 45/10/1 46/11/1 47/5/1 48/2/1
f 49/11/1 50/12/1 51/7/1 52/5/1
f 53/9/1 54/10/1 55/2/1 56/1/1
f 57/10/1 58/11/1 59/5/1 60/2/1
f 61/11/1 62/12/1 63/7/1 64/5/1
f 65/9/1 66/10/1 67/2/1 68/1/1
f 69/10/1 70/11/1 71/5/1 72/2/1
f 73/11/1 74/12/1 75/7/1 76/5/1
f 77/13/1 78/14/1 79/10/1 80/9/1
f 81/13/1 82/14/1 83/10/1 84/9/1
f 85/14/1 86/15/1 87/11/1 88/10/1
f 89/15/1 90/16/1 91/12/1 92/11/1
f 93/13/1 94/14/1 95/10/1 96/9/1
f 97/14/1 98/15/1 99/11/1 100/10/1
f 101/15/1 102/16/1 103/12/1 104/11/1
f 105/13/1 106/14/1 107/10/1 108/9/1
f 109/14/1 110/15/1 111/11/1 112/10/1
f 113/15/1 114/16/1 115/12/1 116/11/1

