# Tiled2Unity generated file. Do not modify by hand.
# Wavefront file for 'CoinCollecteMap2_mesh_0184.obj'

# Vertices (Count = 180)
v -38400 -99200 0
v -41600 -99200 0
v -41600 -96000 0
v -38400 -96000 0
v -41600 -99200 0
v -44800 -99200 0
v -44800 -96000 0
v -41600 -96000 0
v -44800 -99200 0
v -48000 -99200 0
v -48000 -96000 0
v -44800 -96000 0
v -73600 -99200 0
v -76800 -99200 0
v -76800 -96000 0
v -73600 -96000 0
v -76800 -99200 0
v -80000 -99200 0
v -80000 -96000 0
v -76800 -96000 0
v -80000 -99200 0
v -83200 -99200 0
v -83200 -96000 0
v -80000 -96000 0
v -89600 -99200 0
v -92800 -99200 0
v -92800 -96000 0
v -89600 -96000 0
v -92800 -99200 0
v -96000 -99200 0
v -96000 -96000 0
v -92800 -96000 0
v -96000 -99200 0
v -99200 -99200 0
v -99200 -96000 0
v -96000 -96000 0
v -38400 -102400 0
v -41600 -102400 0
v -41600 -99200 0
v -38400 -99200 0
v -41600 -102400 0
v -44800 -102400 0
v -44800 -99200 0
v -41600 -99200 0
v -44800 -102400 0
v -48000 -102400 0
v -48000 -99200 0
v -44800 -99200 0
v -57600 -102400 0
v -60800 -102400 0
v -60800 -99200 0
v -57600 -99200 0
v -60800 -102400 0
v -64000 -102400 0
v -64000 -99200 0
v -60800 -99200 0
v -64000 -102400 0
v -67200 -102400 0
v -67200 -99200 0
v -64000 -99200 0
v -73600 -102400 0
v -76800 -102400 0
v -76800 -99200 0
v -73600 -99200 0
v -76800 -102400 0
v -80000 -102400 0
v -80000 -99200 0
v -76800 -99200 0
v -80000 -102400 0
v -83200 -102400 0
v -83200 -99200 0
v -80000 -99200 0
v -89600 -102400 0
v -92800 -102400 0
v -92800 -99200 0
v -89600 -99200 0
v -92800 -102400 0
v -96000 -102400 0
v -96000 -99200 0
v -92800 -99200 0
v -96000 -102400 0
v -99200 -102400 0
v -99200 -99200 0
v -96000 -99200 0
v -38400 -105600 0
v -41600 -105600 0
v -41600 -102400 0
v -38400 -102400 0
v -41600 -105600 0
v -44800 -105600 0
v -44800 -102400 0
v -41600 -102400 0
v -44800 -105600 0
v -48000 -105600 0
v -48000 -102400 0
v -44800 -102400 0
v -57600 -105600 0
v -60800 -105600 0
v -60800 -102400 0
v -57600 -102400 0
v -60800 -105600 0
v -64000 -105600 0
v -64000 -102400 0
v -60800 -102400 0
v -64000 -105600 0
v -67200 -105600 0
v -67200 -102400 0
v -64000 -102400 0
v -73600 -105600 0
v -76800 -105600 0
v -76800 -102400 0
v -73600 -102400 0
v -76800 -105600 0
v -80000 -105600 0
v -80000 -102400 0
v -76800 -102400 0
v -80000 -105600 0
v -83200 -105600 0
v -83200 -102400 0
v -80000 -102400 0
v -89600 -105600 0
v -92800 -105600 0
v -92800 -102400 0
v -89600 -102400 0
v -92800 -105600 0
v -96000 -105600 0
v -96000 -102400 0
v -92800 -102400 0
v -96000 -105600 0
v -99200 -105600 0
v -99200 -102400 0
v -96000 -102400 0
v -38400 -108800 0
v -41600 -108800 0
v -41600 -105600 0
v -38400 -105600 0
v -41600 -108800 0
v -44800 -108800 0
v -44800 -105600 0
v -41600 -105600 0
v -44800 -108800 0
v -48000 -108800 0
v -48000 -105600 0
v -44800 -105600 0
v -57600 -108800 0
v -60800 -108800 0
v -60800 -105600 0
v -57600 -105600 0
v -60800 -108800 0
v -64000 -108800 0
v -64000 -105600 0
v -60800 -105600 0
v -64000 -108800 0
v -67200 -108800 0
v -67200 -105600 0
v -64000 -105600 0
v -73600 -108800 0
v -76800 -108800 0
v -76800 -105600 0
v -73600 -105600 0
v -76800 -108800 0
v -80000 -108800 0
v -80000 -105600 0
v -76800 -105600 0
v -80000 -108800 0
v -83200 -108800 0
v -83200 -105600 0
v -80000 -105600 0
v -89600 -108800 0
v -92800 -108800 0
v -92800 -105600 0
v -89600 -105600 0
v -92800 -108800 0
v -96000 -108800 0
v -96000 -105600 0
v -92800 -105600 0
v -96000 -108800 0
v -99200 -108800 0
v -99200 -105600 0
v -96000 -105600 0

# Texture cooridinates (Count = 35)
vt 0.5 0.4285714
vt 0.6666667 0.4285714
vt 0.6666667 0.5714285
vt 0.5 0.5714285
vt 0.8333333 0.4285714
vt 0.8333333 0.5714285
vt 1 0.4285714
vt 1 0.5714285
vt 0.5 0.2857143
vt 0.6666667 0.2857143
vt 0.8333333 0.2857143
vt 1 0.2857143
vt 0 0.8571429
vt 0.1666667 0.8571429
vt 0.1666667 1
vt 0 1
vt 0.3333333 0.8571429
vt 0.3333333 1
vt 0.5 0.8571429
vt 0.5 1
vt 0.5 0.1428571
vt 0.6666667 0.1428571
vt 0.8333333 0.1428571
vt 1 0.1428571
vt 0 0.7142857
vt 0.1666667 0.7142857
vt 0.3333333 0.7142857
vt 0.5 0.7142857
vt 0.5 0
vt 0.6666667 0
vt 0.8333333 0
vt 1 0
vt 0 0.5714285
vt 0.1666667 0.5714285
vt 0.3333333 0.5714285

# Normal
vn 0 0 -1

# Mesh description
g CoinCollecteMap2_mesh_0184

# Faces
f 1/1/1 2/2/1 3/3/1 4/4/1
f 5/2/1 6/5/1 7/6/1 8/3/1
f 9/5/1 10/7/1 11/8/1 12/6/1
f 13/1/1 14/2/1 15/3/1 16/4/1
f 17/2/1 18/5/1 19/6/1 20/3/1
f 21/5/1 22/7/1 23/8/1 24/6/1
f 25/1/1 26/2/1 27/3/1 28/4/1
f 29/2/1 30/5/1 31/6/1 32/3/1
f 33/5/1 34/7/1 35/8/1 36/6/1
f 37/9/1 38/10/1 39/2/1 40/1/1
f 41/10/1 42/11/1 43/5/1 44/2/1
f 45/11/1 46/12/1 47/7/1 48/5/1
f 49/13/1 50/14/1 51/15/1 52/16/1
f 53/14/1 54/17/1 55/18/1 56/15/1
f 57/17/1 58/19/1 59/20/1 60/18/1
f 61/9/1 62/10/1 63/2/1 64/1/1
f 65/10/1 66/11/1 67/5/1 68/2/1
f 69/11/1 70/12/1 71/7/1 72/5/1
f 73/9/1 74/10/1 75/2/1 76/1/1
f 77/10/1 78/11/1 79/5/1 80/2/1
f 81/11/1 82/12/1 83/7/1 84/5/1
f 85/21/1 86/22/1 87/10/1 88/9/1
f 89/22/1 90/23/1 91/11/1 92/10/1
f 93/23/1 94/24/1 95/12/1 96/11/1
f 97/25/1 98/26/1 99/14/1 100/13/1
f 101/26/1 102/27/1 103/17/1 104/14/1
f 105/27/1 106/28/1 107/19/1 108/17/1
f 109/21/1 110/22/1 111/10/1 112/9/1
f 113/22/1 114/23/1 115/11/1 116/10/1
f 117/23/1 118/24/1 119/12/1 120/11/1
f 121/21/1 122/22/1 123/10/1 124/9/1
f 125/22/1 126/23/1 127/11/1 128/10/1
f 129/23/1 130/24/1 131/12/1 132/11/1
f 133/29/1 134/30/1 135/22/1 136/21/1
f 137/30/1 138/31/1 139/23/1 140/22/1
f 141/31/1 142/32/1 143/24/1 144/23/1
f 145/33/1 146/34/1 147/26/1 148/25/1
f 149/34/1 150/35/1 151/27/1 152/26/1
f 153/35/1 154/4/1 155/28/1 156/27/1
f 157/29/1 158/30/1 159/22/1 160/21/1
f 161/30/1 162/31/1 163/23/1 164/22/1
f 165/31/1 166/32/1 167/24/1 168/23/1
f 169/29/1 170/30/1 171/22/1 172/21/1
f 173/30/1 174/31/1 175/23/1 176/22/1
f 177/31/1 178/32/1 179/24/1 180/23/1

