# Tiled2Unity generated file. Do not modify by hand.
# Wavefront file for 'CoinCollecteMap2_mesh_0064.obj'

# Vertices (Count = 132)
v 0 -115200 0
v -3200 -115200 0
v -3200 -112000 0
v 0 -112000 0
v -3200 -115200 0
v -6400 -115200 0
v -6400 -112000 0
v -3200 -112000 0
v -6400 -115200 0
v -9600 -115200 0
v -9600 -112000 0
v -6400 -112000 0
v -12800 -115200 0
v -16000 -115200 0
v -16000 -112000 0
v -12800 -112000 0
v -16000 -115200 0
v -19200 -115200 0
v -19200 -112000 0
v -16000 -112000 0
v -19200 -115200 0
v -22400 -115200 0
v -22400 -112000 0
v -19200 -112000 0
v 0 -118400 0
v -3200 -118400 0
v -3200 -115200 0
v 0 -115200 0
v -3200 -118400 0
v -6400 -118400 0
v -6400 -115200 0
v -3200 -115200 0
v -6400 -118400 0
v -9600 -118400 0
v -9600 -115200 0
v -6400 -115200 0
v -12800 -118400 0
v -16000 -118400 0
v -16000 -115200 0
v -12800 -115200 0
v -16000 -118400 0
v -19200 -118400 0
v -19200 -115200 0
v -16000 -115200 0
v -19200 -118400 0
v -22400 -118400 0
v -22400 -115200 0
v -19200 -115200 0
v -121600 -118400 0
v -124800 -118400 0
v -124800 -115200 0
v -121600 -115200 0
v -124800 -118400 0
v -128000 -118400 0
v -128000 -115200 0
v -124800 -115200 0
v -128000 -118400 0
v -131200 -118400 0
v -131200 -115200 0
v -128000 -115200 0
v 0 -121600 0
v -3200 -121600 0
v -3200 -118400 0
v 0 -118400 0
v -3200 -121600 0
v -6400 -121600 0
v -6400 -118400 0
v -3200 -118400 0
v -6400 -121600 0
v -9600 -121600 0
v -9600 -118400 0
v -6400 -118400 0
v -12800 -121600 0
v -16000 -121600 0
v -16000 -118400 0
v -12800 -118400 0
v -16000 -121600 0
v -19200 -121600 0
v -19200 -118400 0
v -16000 -118400 0
v -19200 -121600 0
v -22400 -121600 0
v -22400 -118400 0
v -19200 -118400 0
v -121600 -121600 0
v -124800 -121600 0
v -124800 -118400 0
v -121600 -118400 0
v -124800 -121600 0
v -128000 -121600 0
v -128000 -118400 0
v -124800 -118400 0
v -128000 -121600 0
v -131200 -121600 0
v -131200 -118400 0
v -128000 -118400 0
v 0 -124800 0
v -3200 -124800 0
v -3200 -121600 0
v 0 -121600 0
v -3200 -124800 0
v -6400 -124800 0
v -6400 -121600 0
v -3200 -121600 0
v -6400 -124800 0
v -9600 -124800 0
v -9600 -121600 0
v -6400 -121600 0
v -12800 -124800 0
v -16000 -124800 0
v -16000 -121600 0
v -12800 -121600 0
v -16000 -124800 0
v -19200 -124800 0
v -19200 -121600 0
v -16000 -121600 0
v -19200 -124800 0
v -22400 -124800 0
v -22400 -121600 0
v -19200 -121600 0
v -121600 -124800 0
v -124800 -124800 0
v -124800 -121600 0
v -121600 -121600 0
v -124800 -124800 0
v -128000 -124800 0
v -128000 -121600 0
v -124800 -121600 0
v -128000 -124800 0
v -131200 -124800 0
v -131200 -121600 0
v -128000 -121600 0

# Texture cooridinates (Count = 35)
vt 0.5 0.4285714
vt 0.6666667 0.4285714
vt 0.6666667 0.5714285
vt 0.5 0.5714285
vt 0.8333333 0.4285714
vt 0.8333333 0.5714285
vt 1 0.4285714
vt 1 0.5714285
vt 0.5 0.2857143
vt 0.6666667 0.2857143
vt 0.8333333 0.2857143
vt 1 0.2857143
vt 0 0.8571429
vt 0.1666667 0.8571429
vt 0.1666667 1
vt 0 1
vt 0.3333333 0.8571429
vt 0.3333333 1
vt 0.5 0.8571429
vt 0.5 1
vt 0.5 0.1428571
vt 0.6666667 0.1428571
vt 0.8333333 0.1428571
vt 1 0.1428571
vt 0 0.7142857
vt 0.1666667 0.7142857
vt 0.3333333 0.7142857
vt 0.5 0.7142857
vt 0.5 0
vt 0.6666667 0
vt 0.8333333 0
vt 1 0
vt 0 0.5714285
vt 0.1666667 0.5714285
vt 0.3333333 0.5714285

# Normal
vn 0 0 -1

# Mesh description
g CoinCollecteMap2_mesh_0064

# Faces
f 1/1/1 2/2/1 3/3/1 4/4/1
f 5/2/1 6/5/1 7/6/1 8/3/1
f 9/5/1 10/7/1 11/8/1 12/6/1
f 13/1/1 14/2/1 15/3/1 16/4/1
f 17/2/1 18/5/1 19/6/1 20/3/1
f 21/5/1 22/7/1 23/8/1 24/6/1
f 25/9/1 26/10/1 27/2/1 28/1/1
f 29/10/1 30/11/1 31/5/1 32/2/1
f 33/11/1 34/12/1 35/7/1 36/5/1
f 37/9/1 38/10/1 39/2/1 40/1/1
f 41/10/1 42/11/1 43/5/1 44/2/1
f 45/11/1 46/12/1 47/7/1 48/5/1
f 49/13/1 50/14/1 51/15/1 52/16/1
f 53/14/1 54/17/1 55/18/1 56/15/1
f 57/17/1 58/19/1 59/20/1 60/18/1
f 61/21/1 62/22/1 63/10/1 64/9/1
f 65/22/1 66/23/1 67/11/1 68/10/1
f 69/23/1 70/24/1 71/12/1 72/11/1
f 73/21/1 74/22/1 75/10/1 76/9/1
f 77/22/1 78/23/1 79/11/1 80/10/1
f 81/23/1 82/24/1 83/12/1 84/11/1
f 85/25/1 86/26/1 87/14/1 88/13/1
f 89/26/1 90/27/1 91/17/1 92/14/1
f 93/27/1 94/28/1 95/19/1 96/17/1
f 97/29/1 98/30/1 99/22/1 100/21/1
f 101/30/1 102/31/1 103/23/1 104/22/1
f 105/31/1 106/32/1 107/24/1 108/23/1
f 109/29/1 110/30/1 111/22/1 112/21/1
f 113/30/1 114/31/1 115/23/1 116/22/1
f 117/31/1 118/32/1 119/24/1 120/23/1
f 121/33/1 122/34/1 123/26/1 124/25/1
f 125/34/1 126/35/1 127/27/1 128/26/1
f 129/35/1 130/4/1 131/28/1 132/27/1

