# Tiled2Unity generated file. Do not modify by hand.
# Wavefront file for 'CoinCollecteMap2_mesh_0216.obj'

# Vertices (Count = 96)
v -38400 -224000 0
v -41600 -224000 0
v -41600 -220800 0
v -38400 -220800 0
v -41600 -224000 0
v -44800 -224000 0
v -44800 -220800 0
v -41600 -220800 0
v -44800 -224000 0
v -48000 -224000 0
v -48000 -220800 0
v -44800 -220800 0
v -86400 -224000 0
v -89600 -224000 0
v -89600 -220800 0
v -86400 -220800 0
v -89600 -224000 0
v -92800 -224000 0
v -92800 -220800 0
v -89600 -220800 0
v -92800 -224000 0
v -96000 -224000 0
v -96000 -220800 0
v -92800 -220800 0
v -38400 -227200 0
v -41600 -227200 0
v -41600 -224000 0
v -38400 -224000 0
v -41600 -227200 0
v -44800 -227200 0
v -44800 -224000 0
v -41600 -224000 0
v -44800 -227200 0
v -48000 -227200 0
v -48000 -224000 0
v -44800 -224000 0
v -86400 -227200 0
v -89600 -227200 0
v -89600 -224000 0
v -86400 -224000 0
v -89600 -227200 0
v -92800 -227200 0
v -92800 -224000 0
v -89600 -224000 0
v -92800 -227200 0
v -96000 -227200 0
v -96000 -224000 0
v -92800 -224000 0
v -38400 -230400 0
v -41600 -230400 0
v -41600 -227200 0
v -38400 -227200 0
v -41600 -230400 0
v -44800 -230400 0
v -44800 -227200 0
v -41600 -227200 0
v -44800 -230400 0
v -48000 -230400 0
v -48000 -227200 0
v -44800 -227200 0
v -86400 -230400 0
v -89600 -230400 0
v -89600 -227200 0
v -86400 -227200 0
v -89600 -230400 0
v -92800 -230400 0
v -92800 -227200 0
v -89600 -227200 0
v -92800 -230400 0
v -96000 -230400 0
v -96000 -227200 0
v -92800 -227200 0
v -38400 -233600 0
v -41600 -233600 0
v -41600 -230400 0
v -38400 -230400 0
v -41600 -233600 0
v -44800 -233600 0
v -44800 -230400 0
v -41600 -230400 0
v -44800 -233600 0
v -48000 -233600 0
v -48000 -230400 0
v -44800 -230400 0
v -86400 -233600 0
v -89600 -233600 0
v -89600 -230400 0
v -86400 -230400 0
v -89600 -233600 0
v -92800 -233600 0
v -92800 -230400 0
v -89600 -230400 0
v -92800 -233600 0
v -96000 -233600 0
v -96000 -230400 0
v -92800 -230400 0

# Texture cooridinates (Count = 20)
vt 0.5 0.4285714
vt 0.6666667 0.4285714
vt 0.6666667 0.5714285
vt 0.5 0.5714285
vt 0.8333333 0.4285714
vt 0.8333333 0.5714285
vt 1 0.4285714
vt 1 0.5714285
vt 0.5 0.2857143
vt 0.6666667 0.2857143
vt 0.8333333 0.2857143
vt 1 0.2857143
vt 0.5 0.1428571
vt 0.6666667 0.1428571
vt 0.8333333 0.1428571
vt 1 0.1428571
vt 0.5 0
vt 0.6666667 0
vt 0.8333333 0
vt 1 0

# Normal
vn 0 0 -1

# Mesh description
g CoinCollecteMap2_mesh_0216

# Faces
f 1/1/1 2/2/1 3/3/1 4/4/1
f 5/2/1 6/5/1 7/6/1 8/3/1
f 9/5/1 10/7/1 11/8/1 12/6/1
f 13/1/1 14/2/1 15/3/1 16/4/1
f 17/2/1 18/5/1 19/6/1 20/3/1
f 21/5/1 22/7/1 23/8/1 24/6/1
f 25/9/1 26/10/1 27/2/1 28/1/1
f 29/10/1 30/11/1 31/5/1 32/2/1
f 33/11/1 34/12/1 35/7/1 36/5/1
f 37/9/1 38/10/1 39/2/1 40/1/1
f 41/10/1 42/11/1 43/5/1 44/2/1
f 45/11/1 46/12/1 47/7/1 48/5/1
f 49/13/1 50/14/1 51/10/1 52/9/1
f 53/14/1 54/15/1 55/11/1 56/10/1
f 57/15/1 58/16/1 59/12/1 60/11/1
f 61/13/1 62/14/1 63/10/1 64/9/1
f 65/14/1 66/15/1 67/11/1 68/10/1
f 69/15/1 70/16/1 71/12/1 72/11/1
f 73/17/1 74/18/1 75/14/1 76/13/1
f 77/18/1 78/19/1 79/15/1 80/14/1
f 81/19/1 82/20/1 83/16/1 84/15/1
f 85/17/1 86/18/1 87/14/1 88/13/1
f 89/18/1 90/19/1 91/15/1 92/14/1
f 93/19/1 94/20/1 95/16/1 96/15/1

