# Tiled2Unity generated file. Do not modify by hand.
# Wavefront file for 'CoinCollecteMap2_mesh_0048.obj'

# Vertices (Count = 296)
v 0 -3200 0
v -3200 -3200 0
v -3200 0 0
v 0 0 0
v -51200 -3200 0
v -54400 -3200 0
v -54400 0 0
v -51200 0 0
v -54400 -3200 0
v -57600 -3200 0
v -57600 0 0
v -54400 0 0
v -57600 -3200 0
v -60800 -3200 0
v -60800 0 0
v -57600 0 0
v 0 -6400 0
v -3200 -6400 0
v -3200 -3200 0
v 0 -3200 0
v -6400 -6400 0
v -9600 -6400 0
v -9600 -3200 0
v -6400 -3200 0
v -9600 -6400 0
v -12800 -6400 0
v -12800 -3200 0
v -9600 -3200 0
v -12800 -6400 0
v -16000 -6400 0
v -16000 -3200 0
v -12800 -3200 0
v -22400 -6400 0
v -25600 -6400 0
v -25600 -3200 0
v -22400 -3200 0
v -25600 -6400 0
v -28800 -6400 0
v -28800 -3200 0
v -25600 -3200 0
v -28800 -6400 0
v -32000 -6400 0
v -32000 -3200 0
v -28800 -3200 0
v -35200 -6400 0
v -38400 -6400 0
v -38400 -3200 0
v -35200 -3200 0
v -38400 -6400 0
v -41600 -6400 0
v -41600 -3200 0
v -38400 -3200 0
v -41600 -6400 0
v -44800 -6400 0
v -44800 -3200 0
v -41600 -3200 0
v -51200 -6400 0
v -54400 -6400 0
v -54400 -3200 0
v -51200 -3200 0
v -54400 -6400 0
v -57600 -6400 0
v -57600 -3200 0
v -54400 -3200 0
v -57600 -6400 0
v -60800 -6400 0
v -60800 -3200 0
v -57600 -3200 0
v -64000 -6400 0
v -67200 -6400 0
v -67200 -3200 0
v -64000 -3200 0
v -67200 -6400 0
v -70400 -6400 0
v -70400 -3200 0
v -67200 -3200 0
v -70400 -6400 0
v -73600 -6400 0
v -73600 -3200 0
v -70400 -3200 0
v -86400 -6400 0
v -89600 -6400 0
v -89600 -3200 0
v -86400 -3200 0
v -89600 -6400 0
v -92800 -6400 0
v -92800 -3200 0
v -89600 -3200 0
v -92800 -6400 0
v -96000 -6400 0
v -96000 -3200 0
v -92800 -3200 0
v -102400 -6400 0
v -105600 -6400 0
v -105600 -3200 0
v -102400 -3200 0
v -105600 -6400 0
v -108800 -6400 0
v -108800 -3200 0
v -105600 -3200 0
v -108800 -6400 0
v -112000 -6400 0
v -112000 -3200 0
v -108800 -3200 0
v -121600 -6400 0
v -124800 -6400 0
v -124800 -3200 0
v -121600 -3200 0
v -124800 -6400 0
v -128000 -6400 0
v -128000 -3200 0
v -124800 -3200 0
v -128000 -6400 0
v -131200 -6400 0
v -131200 -3200 0
v -128000 -3200 0
v -6400 -9600 0
v -9600 -9600 0
v -9600 -6400 0
v -6400 -6400 0
v -9600 -9600 0
v -12800 -9600 0
v -12800 -6400 0
v -9600 -6400 0
v -12800 -9600 0
v -16000 -9600 0
v -16000 -6400 0
v -12800 -6400 0
v -22400 -9600 0
v -25600 -9600 0
v -25600 -6400 0
v -22400 -6400 0
v -25600 -9600 0
v -28800 -9600 0
v -28800 -6400 0
v -25600 -6400 0
v -28800 -9600 0
v -32000 -9600 0
v -32000 -6400 0
v -28800 -6400 0
v -35200 -9600 0
v -38400 -9600 0
v -38400 -6400 0
v -35200 -6400 0
v -38400 -9600 0
v -41600 -9600 0
v -41600 -6400 0
v -38400 -6400 0
v -41600 -9600 0
v -44800 -9600 0
v -44800 -6400 0
v -41600 -6400 0
v -51200 -9600 0
v -54400 -9600 0
v -54400 -6400 0
v -51200 -6400 0
v -54400 -9600 0
v -57600 -9600 0
v -57600 -6400 0
v -54400 -6400 0
v -57600 -9600 0
v -60800 -9600 0
v -60800 -6400 0
v -57600 -6400 0
v -64000 -9600 0
v -67200 -9600 0
v -67200 -6400 0
v -64000 -6400 0
v -67200 -9600 0
v -70400 -9600 0
v -70400 -6400 0
v -67200 -6400 0
v -70400 -9600 0
v -73600 -9600 0
v -73600 -6400 0
v -70400 -6400 0
v -86400 -9600 0
v -89600 -9600 0
v -89600 -6400 0
v -86400 -6400 0
v -89600 -9600 0
v -92800 -9600 0
v -92800 -6400 0
v -89600 -6400 0
v -92800 -9600 0
v -96000 -9600 0
v -96000 -6400 0
v -92800 -6400 0
v -102400 -9600 0
v -105600 -9600 0
v -105600 -6400 0
v -102400 -6400 0
v -105600 -9600 0
v -108800 -9600 0
v -108800 -6400 0
v -105600 -6400 0
v -108800 -9600 0
v -112000 -9600 0
v -112000 -6400 0
v -108800 -6400 0
v -121600 -9600 0
v -124800 -9600 0
v -124800 -6400 0
v -121600 -6400 0
v -124800 -9600 0
v -128000 -9600 0
v -128000 -6400 0
v -124800 -6400 0
v -128000 -9600 0
v -131200 -9600 0
v -131200 -6400 0
v -128000 -6400 0
v -6400 -12800 0
v -9600 -12800 0
v -9600 -9600 0
v -6400 -9600 0
v -9600 -12800 0
v -12800 -12800 0
v -12800 -9600 0
v -9600 -9600 0
v -12800 -12800 0
v -16000 -12800 0
v -16000 -9600 0
v -12800 -9600 0
v -22400 -12800 0
v -25600 -12800 0
v -25600 -9600 0
v -22400 -9600 0
v -25600 -12800 0
v -28800 -12800 0
v -28800 -9600 0
v -25600 -9600 0
v -28800 -12800 0
v -32000 -12800 0
v -32000 -9600 0
v -28800 -9600 0
v -35200 -12800 0
v -38400 -12800 0
v -38400 -9600 0
v -35200 -9600 0
v -38400 -12800 0
v -41600 -12800 0
v -41600 -9600 0
v -38400 -9600 0
v -41600 -12800 0
v -44800 -12800 0
v -44800 -9600 0
v -41600 -9600 0
v -64000 -12800 0
v -67200 -12800 0
v -67200 -9600 0
v -64000 -9600 0
v -67200 -12800 0
v -70400 -12800 0
v -70400 -9600 0
v -67200 -9600 0
v -70400 -12800 0
v -73600 -12800 0
v -73600 -9600 0
v -70400 -9600 0
v -86400 -12800 0
v -89600 -12800 0
v -89600 -9600 0
v -86400 -9600 0
v -89600 -12800 0
v -92800 -12800 0
v -92800 -9600 0
v -89600 -9600 0
v -92800 -12800 0
v -96000 -12800 0
v -96000 -9600 0
v -92800 -9600 0
v -102400 -12800 0
v -105600 -12800 0
v -105600 -9600 0
v -102400 -9600 0
v -105600 -12800 0
v -108800 -12800 0
v -108800 -9600 0
v -105600 -9600 0
v -108800 -12800 0
v -112000 -12800 0
v -112000 -9600 0
v -108800 -9600 0
v -121600 -12800 0
v -124800 -12800 0
v -124800 -9600 0
v -121600 -9600 0
v -124800 -12800 0
v -128000 -12800 0
v -128000 -9600 0
v -124800 -9600 0
v -128000 -12800 0
v -131200 -12800 0
v -131200 -9600 0
v -128000 -9600 0

# Texture cooridinates (Count = 40)
vt 0.3333333 0.7142857
vt 0.5 0.7142857
vt 0.5 0.8571429
vt 0.3333333 0.8571429
vt 0 0.8571429
vt 0.1666667 0.8571429
vt 0.1666667 1
vt 0 1
vt 0.3333333 1
vt 0.5 1
vt 0.3333333 0.5714285
vt 0.5 0.5714285
vt 0.6666667 0.8571429
vt 0.6666667 1
vt 0.8333333 0.8571429
vt 0.8333333 1
vt 1 0.8571429
vt 1 1
vt 0 0.4285714
vt 0.1666667 0.4285714
vt 0.1666667 0.5714285
vt 0 0.5714285
vt 0.3333333 0.4285714
vt 0.5 0.4285714
vt 0 0.7142857
vt 0.1666667 0.7142857
vt 0.6666667 0.7142857
vt 0.8333333 0.7142857
vt 1 0.7142857
vt 0 0.2857143
vt 0.1666667 0.2857143
vt 0.3333333 0.2857143
vt 0.5 0.2857143
vt 0.6666667 0.5714285
vt 0.8333333 0.5714285
vt 1 0.5714285
vt 0 0.1428571
vt 0.1666667 0.1428571
vt 0.3333333 0.1428571
vt 0.5 0.1428571

# Normal
vn 0 0 -1

# Mesh description
g CoinCollecteMap2_mesh_0048

# Faces
f 1/1/1 2/2/1 3/3/1 4/4/1
f 5/5/1 6/6/1 7/7/1 8/8/1
f 9/6/1 10/4/1 11/9/1 12/7/1
f 13/4/1 14/3/1 15/10/1 16/9/1
f 17/11/1 18/12/1 19/2/1 20/1/1
f 21/3/1 22/13/1 23/14/1 24/10/1
f 25/13/1 26/15/1 27/16/1 28/14/1
f 29/15/1 30/17/1 31/18/1 32/16/1
f 33/19/1 34/20/1 35/21/1 36/22/1
f 37/20/1 38/23/1 39/11/1 40/21/1
f 41/23/1 42/24/1 43/12/1 44/11/1
f 45/5/1 46/6/1 47/7/1 48/8/1
f 49/6/1 50/4/1 51/9/1 52/7/1
f 53/4/1 54/3/1 55/10/1 56/9/1
f 57/25/1 58/26/1 59/6/1 60/5/1
f 61/26/1 62/1/1 63/4/1 64/6/1
f 65/1/1 66/2/1 67/3/1 68/4/1
f 69/5/1 70/6/1 71/7/1 72/8/1
f 73/6/1 74/4/1 75/9/1 76/7/1
f 77/4/1 78/3/1 79/10/1 80/9/1
f 81/5/1 82/6/1 83/7/1 84/8/1
f 85/6/1 86/4/1 87/9/1 88/7/1
f 89/4/1 90/3/1 91/10/1 92/9/1
f 93/5/1 94/6/1 95/7/1 96/8/1
f 97/6/1 98/4/1 99/9/1 100/7/1
f 101/4/1 102/3/1 103/10/1 104/9/1
f 105/5/1 106/6/1 107/7/1 108/8/1
f 109/6/1 110/4/1 111/9/1 112/7/1
f 113/4/1 114/3/1 115/10/1 116/9/1
f 117/2/1 118/27/1 119/13/1 120/3/1
f 121/27/1 122/28/1 123/15/1 124/13/1
f 125/28/1 126/29/1 127/17/1 128/15/1
f 129/30/1 130/31/1 131/20/1 132/19/1
f 133/31/1 134/32/1 135/23/1 136/20/1
f 137/32/1 138/33/1 139/24/1 140/23/1
f 141/25/1 142/26/1 143/6/1 144/5/1
f 145/26/1 146/1/1 147/4/1 148/6/1
f 149/1/1 150/2/1 151/3/1 152/4/1
f 153/22/1 154/21/1 155/26/1 156/25/1
f 157/21/1 158/11/1 159/1/1 160/26/1
f 161/11/1 162/12/1 163/2/1 164/1/1
f 165/25/1 166/26/1 167/6/1 168/5/1
f 169/26/1 170/1/1 171/4/1 172/6/1
f 173/1/1 174/2/1 175/3/1 176/4/1
f 177/25/1 178/26/1 179/6/1 180/5/1
f 181/26/1 182/1/1 183/4/1 184/6/1
f 185/1/1 186/2/1 187/3/1 188/4/1
f 189/25/1 190/26/1 191/6/1 192/5/1
f 193/26/1 194/1/1 195/4/1 196/6/1
f 197/1/1 198/2/1 199/3/1 200/4/1
f 201/25/1 202/26/1 203/6/1 204/5/1
f 205/26/1 206/1/1 207/4/1 208/6/1
f 209/1/1 210/2/1 211/3/1 212/4/1
f 213/12/1 214/34/1 215/27/1 216/2/1
f 217/34/1 218/35/1 219/28/1 220/27/1
f 221/35/1 222/36/1 223/29/1 224/28/1
f 225/37/1 226/38/1 227/31/1 228/30/1
f 229/38/1 230/39/1 231/32/1 232/31/1
f 233/39/1 234/40/1 235/33/1 236/32/1
f 237/22/1 238/21/1 239/26/1 240/25/1
f 241/21/1 242/11/1 243/1/1 244/26/1
f 245/11/1 246/12/1 247/2/1 248/1/1
f 249/22/1 250/21/1 251/26/1 252/25/1
f 253/21/1 254/11/1 255/1/1 256/26/1
f 257/11/1 258/12/1 259/2/1 260/1/1
f 261/22/1 262/21/1 263/26/1 264/25/1
f 265/21/1 266/11/1 267/1/1 268/26/1
f 269/11/1 270/12/1 271/2/1 272/1/1
f 273/22/1 274/21/1 275/26/1 276/25/1
f 277/21/1 278/11/1 279/1/1 280/26/1
f 281/11/1 282/12/1 283/2/1 284/1/1
f 285/22/1 286/21/1 287/26/1 288/25/1
f 289/21/1 290/11/1 291/1/1 292/26/1
f 293/11/1 294/12/1 295/2/1 296/1/1

