# Tiled2Unity generated file. Do not modify by hand.
# Wavefront file for 'CoinCollecteMap2_mesh_0009.obj'

# Vertices (Count = 180)
v -60800 -19200 0
v -64000 -19200 0
v -64000 -16000 0
v -60800 -16000 0
v -64000 -19200 0
v -67200 -19200 0
v -67200 -16000 0
v -64000 -16000 0
v -67200 -19200 0
v -70400 -19200 0
v -70400 -16000 0
v -67200 -16000 0
v -70400 -19200 0
v -73600 -19200 0
v -73600 -16000 0
v -70400 -16000 0
v -73600 -19200 0
v -76800 -19200 0
v -76800 -16000 0
v -73600 -16000 0
v -76800 -19200 0
v -80000 -19200 0
v -80000 -16000 0
v -76800 -16000 0
v -60800 -22400 0
v -64000 -22400 0
v -64000 -19200 0
v -60800 -19200 0
v -64000 -22400 0
v -67200 -22400 0
v -67200 -19200 0
v -64000 -19200 0
v -67200 -22400 0
v -70400 -22400 0
v -70400 -19200 0
v -67200 -19200 0
v -70400 -22400 0
v -73600 -22400 0
v -73600 -19200 0
v -70400 -19200 0
v -73600 -22400 0
v -76800 -22400 0
v -76800 -19200 0
v -73600 -19200 0
v -76800 -22400 0
v -80000 -22400 0
v -80000 -19200 0
v -76800 -19200 0
v -60800 -25600 0
v -64000 -25600 0
v -64000 -22400 0
v -60800 -22400 0
v -64000 -25600 0
v -67200 -25600 0
v -67200 -22400 0
v -64000 -22400 0
v -67200 -25600 0
v -70400 -25600 0
v -70400 -22400 0
v -67200 -22400 0
v -70400 -25600 0
v -73600 -25600 0
v -73600 -22400 0
v -70400 -22400 0
v -73600 -25600 0
v -76800 -25600 0
v -76800 -22400 0
v -73600 -22400 0
v -76800 -25600 0
v -80000 -25600 0
v -80000 -22400 0
v -76800 -22400 0
v -38400 -35200 0
v -41600 -35200 0
v -41600 -32000 0
v -38400 -32000 0
v -41600 -35200 0
v -44800 -35200 0
v -44800 -32000 0
v -41600 -32000 0
v -44800 -35200 0
v -48000 -35200 0
v -48000 -32000 0
v -44800 -32000 0
v -121600 -35200 0
v -124800 -35200 0
v -124800 -32000 0
v -121600 -32000 0
v -124800 -35200 0
v -128000 -35200 0
v -128000 -32000 0
v -124800 -32000 0
v -128000 -35200 0
v -131200 -35200 0
v -131200 -32000 0
v -128000 -32000 0
v -38400 -38400 0
v -41600 -38400 0
v -41600 -35200 0
v -38400 -35200 0
v -41600 -38400 0
v -44800 -38400 0
v -44800 -35200 0
v -41600 -35200 0
v -44800 -38400 0
v -48000 -38400 0
v -48000 -35200 0
v -44800 -35200 0
v -121600 -38400 0
v -124800 -38400 0
v -124800 -35200 0
v -121600 -35200 0
v -124800 -38400 0
v -128000 -38400 0
v -128000 -35200 0
v -124800 -35200 0
v -128000 -38400 0
v -131200 -38400 0
v -131200 -35200 0
v -128000 -35200 0
v -25600 -41600 0
v -28800 -41600 0
v -28800 -38400 0
v -25600 -38400 0
v -28800 -41600 0
v -32000 -41600 0
v -32000 -38400 0
v -28800 -38400 0
v -32000 -41600 0
v -35200 -41600 0
v -35200 -38400 0
v -32000 -38400 0
v -38400 -41600 0
v -41600 -41600 0
v -41600 -38400 0
v -38400 -38400 0
v -41600 -41600 0
v -44800 -41600 0
v -44800 -38400 0
v -41600 -38400 0
v -44800 -41600 0
v -48000 -41600 0
v -48000 -38400 0
v -44800 -38400 0
v -121600 -41600 0
v -124800 -41600 0
v -124800 -38400 0
v -121600 -38400 0
v -124800 -41600 0
v -128000 -41600 0
v -128000 -38400 0
v -124800 -38400 0
v -128000 -41600 0
v -131200 -41600 0
v -131200 -38400 0
v -128000 -38400 0
v -25600 -44800 0
v -28800 -44800 0
v -28800 -41600 0
v -25600 -41600 0
v -28800 -44800 0
v -32000 -44800 0
v -32000 -41600 0
v -28800 -41600 0
v -32000 -44800 0
v -35200 -44800 0
v -35200 -41600 0
v -32000 -41600 0
v -25600 -48000 0
v -28800 -48000 0
v -28800 -44800 0
v -25600 -44800 0
v -28800 -48000 0
v -32000 -48000 0
v -32000 -44800 0
v -28800 -44800 0
v -32000 -48000 0
v -35200 -48000 0
v -35200 -44800 0
v -32000 -44800 0

# Texture cooridinates (Count = 28)
vt 0 0.6666666
vt 0.1666667 0.6666666
vt 0.1666667 1
vt 0 1
vt 0.3333333 0.6666666
vt 0.3333333 1
vt 0.5 0.6666666
vt 0.5 1
vt 0 0.3333333
vt 0.1666667 0.3333333
vt 0.3333333 0.3333333
vt 0.5 0.3333333
vt 0 0
vt 0.1666667 0
vt 0.3333333 0
vt 0.5 0
vt 0.6666667 0.6666666
vt 0.6666667 1
vt 0.8333333 0.6666666
vt 0.8333333 1
vt 1 0.6666666
vt 1 1
vt 0.6666667 0.3333333
vt 0.8333333 0.3333333
vt 1 0.3333333
vt 0.6666667 0
vt 0.8333333 0
vt 1 0

# Normal
vn 0 0 -1

# Mesh description
g CoinCollecteMap2_mesh_0009

# Faces
f 1/1/1 2/2/1 3/3/1 4/4/1
f 5/2/1 6/5/1 7/6/1 8/3/1
f 9/5/1 10/7/1 11/8/1 12/6/1
f 13/1/1 14/2/1 15/3/1 16/4/1
f 17/2/1 18/5/1 19/6/1 20/3/1
f 21/5/1 22/7/1 23/8/1 24/6/1
f 25/9/1 26/10/1 27/2/1 28/1/1
f 29/10/1 30/11/1 31/5/1 32/2/1
f 33/11/1 34/12/1 35/7/1 36/5/1
f 37/9/1 38/10/1 39/2/1 40/1/1
f 41/10/1 42/11/1 43/5/1 44/2/1
f 45/11/1 46/12/1 47/7/1 48/5/1
f 49/13/1 50/14/1 51/10/1 52/9/1
f 53/14/1 54/15/1 55/11/1 56/10/1
f 57/15/1 58/16/1 59/12/1 60/11/1
f 61/13/1 62/14/1 63/10/1 64/9/1
f 65/14/1 66/15/1 67/11/1 68/10/1
f 69/15/1 70/16/1 71/12/1 72/11/1
f 73/1/1 74/2/1 75/3/1 76/4/1
f 77/2/1 78/5/1 79/6/1 80/3/1
f 81/5/1 82/7/1 83/8/1 84/6/1
f 85/7/1 86/17/1 87/18/1 88/8/1
f 89/17/1 90/19/1 91/20/1 92/18/1
f 93/19/1 94/21/1 95/22/1 96/20/1
f 97/9/1 98/10/1 99/2/1 100/1/1
f 101/10/1 102/11/1 103/5/1 104/2/1
f 105/11/1 106/12/1 107/7/1 108/5/1
f 109/12/1 110/23/1 111/17/1 112/7/1
f 113/23/1 114/24/1 115/19/1 116/17/1
f 117/24/1 118/25/1 119/21/1 120/19/1
f 121/1/1 122/2/1 123/3/1 124/4/1
f 125/2/1 126/5/1 127/6/1 128/3/1
f 129/5/1 130/7/1 131/8/1 132/6/1
f 133/13/1 134/14/1 135/10/1 136/9/1
f 137/14/1 138/15/1 139/11/1 140/10/1
f 141/15/1 142/16/1 143/12/1 144/11/1
f 145/16/1 146/26/1 147/23/1 148/12/1
f 149/26/1 150/27/1 151/24/1 152/23/1
f 153/27/1 154/28/1 155/25/1 156/24/1
f 157/9/1 158/10/1 159/2/1 160/1/1
f 161/10/1 162/11/1 163/5/1 164/2/1
f 165/11/1 166/12/1 167/7/1 168/5/1
f 169/13/1 170/14/1 171/10/1 172/9/1
f 173/14/1 174/15/1 175/11/1 176/10/1
f 177/15/1 178/16/1 179/12/1 180/11/1

