# Tiled2Unity generated file. Do not modify by hand.
# Wavefront file for 'CoinCollecteMap2_mesh_0023.obj'

# Vertices (Count = 96)
v 0 -134400 0
v -3200 -134400 0
v -3200 -131200 0
v 0 -131200 0
v -3200 -134400 0
v -6400 -134400 0
v -6400 -131200 0
v -3200 -131200 0
v -6400 -134400 0
v -9600 -134400 0
v -9600 -131200 0
v -6400 -131200 0
v 0 -137600 0
v -3200 -137600 0
v -3200 -134400 0
v 0 -134400 0
v -3200 -137600 0
v -6400 -137600 0
v -6400 -134400 0
v -3200 -134400 0
v -6400 -137600 0
v -9600 -137600 0
v -9600 -134400 0
v -6400 -134400 0
v 0 -140800 0
v -3200 -140800 0
v -3200 -137600 0
v 0 -137600 0
v -3200 -140800 0
v -6400 -140800 0
v -6400 -137600 0
v -3200 -137600 0
v -6400 -140800 0
v -9600 -140800 0
v -9600 -137600 0
v -6400 -137600 0
v 0 -144000 0
v -3200 -144000 0
v -3200 -140800 0
v 0 -140800 0
v -128000 -144000 0
v -131200 -144000 0
v -131200 -140800 0
v -128000 -140800 0
v -131200 -144000 0
v -134400 -144000 0
v -134400 -140800 0
v -131200 -140800 0
v 0 -147200 0
v -3200 -147200 0
v -3200 -144000 0
v 0 -144000 0
v -128000 -147200 0
v -131200 -147200 0
v -131200 -144000 0
v -128000 -144000 0
v -131200 -147200 0
v -134400 -147200 0
v -134400 -144000 0
v -131200 -144000 0
v 0 -150400 0
v -3200 -150400 0
v -3200 -147200 0
v 0 -147200 0
v -128000 -150400 0
v -131200 -150400 0
v -131200 -147200 0
v -128000 -147200 0
v -131200 -150400 0
v -134400 -150400 0
v -134400 -147200 0
v -131200 -147200 0
v -128000 -156800 0
v -131200 -156800 0
v -131200 -153600 0
v -128000 -153600 0
v -131200 -156800 0
v -134400 -156800 0
v -134400 -153600 0
v -131200 -153600 0
v -128000 -160000 0
v -131200 -160000 0
v -131200 -156800 0
v -128000 -156800 0
v -131200 -160000 0
v -134400 -160000 0
v -134400 -156800 0
v -131200 -156800 0
v -128000 -163200 0
v -131200 -163200 0
v -131200 -160000 0
v -128000 -160000 0
v -131200 -163200 0
v -134400 -163200 0
v -134400 -160000 0
v -131200 -160000 0

# Texture cooridinates (Count = 16)
vt 0.5 0.6666666
vt 0.6666667 0.6666666
vt 0.6666667 1
vt 0.5 1
vt 0.8333333 0.6666666
vt 0.8333333 1
vt 1 0.6666666
vt 1 1
vt 0.5 0.3333333
vt 0.6666667 0.3333333
vt 0.8333333 0.3333333
vt 1 0.3333333
vt 0.5 0
vt 0.6666667 0
vt 0.8333333 0
vt 1 0

# Normal
vn 0 0 -1

# Mesh description
g CoinCollecteMap2_mesh_0023

# Faces
f 1/1/1 2/2/1 3/3/1 4/4/1
f 5/2/1 6/5/1 7/6/1 8/3/1
f 9/5/1 10/7/1 11/8/1 12/6/1
f 13/9/1 14/10/1 15/2/1 16/1/1
f 17/10/1 18/11/1 19/5/1 20/2/1
f 21/11/1 22/12/1 23/7/1 24/5/1
f 25/13/1 26/14/1 27/10/1 28/9/1
f 29/14/1 30/15/1 31/11/1 32/10/1
f 33/15/1 34/16/1 35/12/1 36/11/1
f 37/5/1 38/7/1 39/8/1 40/6/1
f 41/1/1 42/2/1 43/3/1 44/4/1
f 45/2/1 46/5/1 47/6/1 48/3/1
f 49/11/1 50/12/1 51/7/1 52/5/1
f 53/9/1 54/10/1 55/2/1 56/1/1
f 57/10/1 58/11/1 59/5/1 60/2/1
f 61/15/1 62/16/1 63/12/1 64/11/1
f 65/13/1 66/14/1 67/10/1 68/9/1
f 69/14/1 70/15/1 71/11/1 72/10/1
f 73/1/1 74/2/1 75/3/1 76/4/1
f 77/2/1 78/5/1 79/6/1 80/3/1
f 81/9/1 82/10/1 83/2/1 84/1/1
f 85/10/1 86/11/1 87/5/1 88/2/1
f 89/13/1 90/14/1 91/10/1 92/9/1
f 93/14/1 94/15/1 95/11/1 96/10/1

