# Tiled2Unity generated file. Do not modify by hand.
# Wavefront file for 'CoinCollecteMap2_mesh_0005.obj'

# Vertices (Count = 288)
v -51200 -6400 0
v -54400 -6400 0
v -54400 -3200 0
v -51200 -3200 0
v -54400 -6400 0
v -57600 -6400 0
v -57600 -3200 0
v -54400 -3200 0
v -57600 -6400 0
v -60800 -6400 0
v -60800 -3200 0
v -57600 -3200 0
v -6400 -9600 0
v -9600 -9600 0
v -9600 -6400 0
v -6400 -6400 0
v -9600 -9600 0
v -12800 -9600 0
v -12800 -6400 0
v -9600 -6400 0
v -12800 -9600 0
v -16000 -9600 0
v -16000 -6400 0
v -12800 -6400 0
v -22400 -9600 0
v -25600 -9600 0
v -25600 -6400 0
v -22400 -6400 0
v -25600 -9600 0
v -28800 -9600 0
v -28800 -6400 0
v -25600 -6400 0
v -28800 -9600 0
v -32000 -9600 0
v -32000 -6400 0
v -28800 -6400 0
v -35200 -9600 0
v -38400 -9600 0
v -38400 -6400 0
v -35200 -6400 0
v -38400 -9600 0
v -41600 -9600 0
v -41600 -6400 0
v -38400 -6400 0
v -41600 -9600 0
v -44800 -9600 0
v -44800 -6400 0
v -41600 -6400 0
v -51200 -9600 0
v -54400 -9600 0
v -54400 -6400 0
v -51200 -6400 0
v -54400 -9600 0
v -57600 -9600 0
v -57600 -6400 0
v -54400 -6400 0
v -57600 -9600 0
v -60800 -9600 0
v -60800 -6400 0
v -57600 -6400 0
v -64000 -9600 0
v -67200 -9600 0
v -67200 -6400 0
v -64000 -6400 0
v -67200 -9600 0
v -70400 -9600 0
v -70400 -6400 0
v -67200 -6400 0
v -70400 -9600 0
v -73600 -9600 0
v -73600 -6400 0
v -70400 -6400 0
v -86400 -9600 0
v -89600 -9600 0
v -89600 -6400 0
v -86400 -6400 0
v -89600 -9600 0
v -92800 -9600 0
v -92800 -6400 0
v -89600 -6400 0
v -92800 -9600 0
v -96000 -9600 0
v -96000 -6400 0
v -92800 -6400 0
v -102400 -9600 0
v -105600 -9600 0
v -105600 -6400 0
v -102400 -6400 0
v -105600 -9600 0
v -108800 -9600 0
v -108800 -6400 0
v -105600 -6400 0
v -108800 -9600 0
v -112000 -9600 0
v -112000 -6400 0
v -108800 -6400 0
v -121600 -9600 0
v -124800 -9600 0
v -124800 -6400 0
v -121600 -6400 0
v -124800 -9600 0
v -128000 -9600 0
v -128000 -6400 0
v -124800 -6400 0
v -128000 -9600 0
v -131200 -9600 0
v -131200 -6400 0
v -128000 -6400 0
v -6400 -12800 0
v -9600 -12800 0
v -9600 -9600 0
v -6400 -9600 0
v -9600 -12800 0
v -12800 -12800 0
v -12800 -9600 0
v -9600 -9600 0
v -12800 -12800 0
v -16000 -12800 0
v -16000 -9600 0
v -12800 -9600 0
v -22400 -12800 0
v -25600 -12800 0
v -25600 -9600 0
v -22400 -9600 0
v -25600 -12800 0
v -28800 -12800 0
v -28800 -9600 0
v -25600 -9600 0
v -28800 -12800 0
v -32000 -12800 0
v -32000 -9600 0
v -28800 -9600 0
v -35200 -12800 0
v -38400 -12800 0
v -38400 -9600 0
v -35200 -9600 0
v -38400 -12800 0
v -41600 -12800 0
v -41600 -9600 0
v -38400 -9600 0
v -41600 -12800 0
v -44800 -12800 0
v -44800 -9600 0
v -41600 -9600 0
v -51200 -12800 0
v -54400 -12800 0
v -54400 -9600 0
v -51200 -9600 0
v -54400 -12800 0
v -57600 -12800 0
v -57600 -9600 0
v -54400 -9600 0
v -57600 -12800 0
v -60800 -12800 0
v -60800 -9600 0
v -57600 -9600 0
v -64000 -12800 0
v -67200 -12800 0
v -67200 -9600 0
v -64000 -9600 0
v -67200 -12800 0
v -70400 -12800 0
v -70400 -9600 0
v -67200 -9600 0
v -70400 -12800 0
v -73600 -12800 0
v -73600 -9600 0
v -70400 -9600 0
v -86400 -12800 0
v -89600 -12800 0
v -89600 -9600 0
v -86400 -9600 0
v -89600 -12800 0
v -92800 -12800 0
v -92800 -9600 0
v -89600 -9600 0
v -92800 -12800 0
v -96000 -12800 0
v -96000 -9600 0
v -92800 -9600 0
v -102400 -12800 0
v -105600 -12800 0
v -105600 -9600 0
v -102400 -9600 0
v -105600 -12800 0
v -108800 -12800 0
v -108800 -9600 0
v -105600 -9600 0
v -108800 -12800 0
v -112000 -12800 0
v -112000 -9600 0
v -108800 -9600 0
v -121600 -12800 0
v -124800 -12800 0
v -124800 -9600 0
v -121600 -9600 0
v -124800 -12800 0
v -128000 -12800 0
v -128000 -9600 0
v -124800 -9600 0
v -128000 -12800 0
v -131200 -12800 0
v -131200 -9600 0
v -128000 -9600 0
v -6400 -16000 0
v -9600 -16000 0
v -9600 -12800 0
v -6400 -12800 0
v -9600 -16000 0
v -12800 -16000 0
v -12800 -12800 0
v -9600 -12800 0
v -12800 -16000 0
v -16000 -16000 0
v -16000 -12800 0
v -12800 -12800 0
v -22400 -16000 0
v -25600 -16000 0
v -25600 -12800 0
v -22400 -12800 0
v -25600 -16000 0
v -28800 -16000 0
v -28800 -12800 0
v -25600 -12800 0
v -28800 -16000 0
v -32000 -16000 0
v -32000 -12800 0
v -28800 -12800 0
v -35200 -16000 0
v -38400 -16000 0
v -38400 -12800 0
v -35200 -12800 0
v -38400 -16000 0
v -41600 -16000 0
v -41600 -12800 0
v -38400 -12800 0
v -41600 -16000 0
v -44800 -16000 0
v -44800 -12800 0
v -41600 -12800 0
v -64000 -16000 0
v -67200 -16000 0
v -67200 -12800 0
v -64000 -12800 0
v -67200 -16000 0
v -70400 -16000 0
v -70400 -12800 0
v -67200 -12800 0
v -70400 -16000 0
v -73600 -16000 0
v -73600 -12800 0
v -70400 -12800 0
v -86400 -16000 0
v -89600 -16000 0
v -89600 -12800 0
v -86400 -12800 0
v -89600 -16000 0
v -92800 -16000 0
v -92800 -12800 0
v -89600 -12800 0
v -92800 -16000 0
v -96000 -16000 0
v -96000 -12800 0
v -92800 -12800 0
v -102400 -16000 0
v -105600 -16000 0
v -105600 -12800 0
v -102400 -12800 0
v -105600 -16000 0
v -108800 -16000 0
v -108800 -12800 0
v -105600 -12800 0
v -108800 -16000 0
v -112000 -16000 0
v -112000 -12800 0
v -108800 -12800 0
v -121600 -16000 0
v -124800 -16000 0
v -124800 -12800 0
v -121600 -12800 0
v -124800 -16000 0
v -128000 -16000 0
v -128000 -12800 0
v -124800 -12800 0
v -128000 -16000 0
v -131200 -16000 0
v -131200 -12800 0
v -128000 -12800 0

# Texture cooridinates (Count = 28)
vt 0 0.6666666
vt 0.1666667 0.6666666
vt 0.1666667 1
vt 0 1
vt 0.3333333 0.6666666
vt 0.3333333 1
vt 0.5 0.6666666
vt 0.5 1
vt 0.6666667 0.6666666
vt 0.6666667 1
vt 0.8333333 0.6666666
vt 0.8333333 1
vt 1 0.6666666
vt 1 1
vt 0 0.3333333
vt 0.1666667 0.3333333
vt 0.3333333 0.3333333
vt 0.5 0.3333333
vt 0.6666667 0.3333333
vt 0.8333333 0.3333333
vt 1 0.3333333
vt 0 0
vt 0.1666667 0
vt 0.3333333 0
vt 0.5 0
vt 0.6666667 0
vt 0.8333333 0
vt 1 0

# Normal
vn 0 0 -1

# Mesh description
g CoinCollecteMap2_mesh_0005

# Faces
f 1/1/1 2/2/1 3/3/1 4/4/1
f 5/2/1 6/5/1 7/6/1 8/3/1
f 9/5/1 10/7/1 11/8/1 12/6/1
f 13/1/1 14/2/1 15/3/1 16/4/1
f 17/2/1 18/5/1 19/6/1 20/3/1
f 21/5/1 22/7/1 23/8/1 24/6/1
f 25/7/1 26/9/1 27/10/1 28/8/1
f 29/9/1 30/11/1 31/12/1 32/10/1
f 33/11/1 34/13/1 35/14/1 36/12/1
f 37/1/1 38/2/1 39/3/1 40/4/1
f 41/2/1 42/5/1 43/6/1 44/3/1
f 45/5/1 46/7/1 47/8/1 48/6/1
f 49/15/1 50/16/1 51/2/1 52/1/1
f 53/16/1 54/17/1 55/5/1 56/2/1
f 57/17/1 58/18/1 59/7/1 60/5/1
f 61/1/1 62/2/1 63/3/1 64/4/1
f 65/2/1 66/5/1 67/6/1 68/3/1
f 69/5/1 70/7/1 71/8/1 72/6/1
f 73/1/1 74/2/1 75/3/1 76/4/1
f 77/2/1 78/5/1 79/6/1 80/3/1
f 81/5/1 82/7/1 83/8/1 84/6/1
f 85/1/1 86/2/1 87/3/1 88/4/1
f 89/2/1 90/5/1 91/6/1 92/3/1
f 93/5/1 94/7/1 95/8/1 96/6/1
f 97/1/1 98/2/1 99/3/1 100/4/1
f 101/2/1 102/5/1 103/6/1 104/3/1
f 105/5/1 106/7/1 107/8/1 108/6/1
f 109/15/1 110/16/1 111/2/1 112/1/1
f 113/16/1 114/17/1 115/5/1 116/2/1
f 117/17/1 118/18/1 119/7/1 120/5/1
f 121/18/1 122/19/1 123/9/1 124/7/1
f 125/19/1 126/20/1 127/11/1 128/9/1
f 129/20/1 130/21/1 131/13/1 132/11/1
f 133/15/1 134/16/1 135/2/1 136/1/1
f 137/16/1 138/17/1 139/5/1 140/2/1
f 141/17/1 142/18/1 143/7/1 144/5/1
f 145/22/1 146/23/1 147/16/1 148/15/1
f 149/23/1 150/24/1 151/17/1 152/16/1
f 153/24/1 154/25/1 155/18/1 156/17/1
f 157/15/1 158/16/1 159/2/1 160/1/1
f 161/16/1 162/17/1 163/5/1 164/2/1
f 165/17/1 166/18/1 167/7/1 168/5/1
f 169/15/1 170/16/1 171/2/1 172/1/1
f 173/16/1 174/17/1 175/5/1 176/2/1
f 177/17/1 178/18/1 179/7/1 180/5/1
f 181/15/1 182/16/1 183/2/1 184/1/1
f 185/16/1 186/17/1 187/5/1 188/2/1
f 189/17/1 190/18/1 191/7/1 192/5/1
f 193/15/1 194/16/1 195/2/1 196/1/1
f 197/16/1 198/17/1 199/5/1 200/2/1
f 201/17/1 202/18/1 203/7/1 204/5/1
f 205/22/1 206/23/1 207/16/1 208/15/1
f 209/23/1 210/24/1 211/17/1 212/16/1
f 213/24/1 214/25/1 215/18/1 216/17/1
f 217/25/1 218/26/1 219/19/1 220/18/1
f 221/26/1 222/27/1 223/20/1 224/19/1
f 225/27/1 226/28/1 227/21/1 228/20/1
f 229/22/1 230/23/1 231/16/1 232/15/1
f 233/23/1 234/24/1 235/17/1 236/16/1
f 237/24/1 238/25/1 239/18/1 240/17/1
f 241/22/1 242/23/1 243/16/1 244/15/1
f 245/23/1 246/24/1 247/17/1 248/16/1
f 249/24/1 250/25/1 251/18/1 252/17/1
f 253/22/1 254/23/1 255/16/1 256/15/1
f 257/23/1 258/24/1 259/17/1 260/16/1
f 261/24/1 262/25/1 263/18/1 264/17/1
f 265/22/1 266/23/1 267/16/1 268/15/1
f 269/23/1 270/24/1 271/17/1 272/16/1
f 273/24/1 274/25/1 275/18/1 276/17/1
f 277/22/1 278/23/1 279/16/1 280/15/1
f 281/23/1 282/24/1 283/17/1 284/16/1
f 285/24/1 286/25/1 287/18/1 288/17/1

