# Tiled2Unity generated file. Do not modify by hand.
# Wavefront file for 'CoinCollecteMap2_mesh_0039.obj'

# Vertices (Count = 128)
v -3200 -217600 0
v -6400 -217600 0
v -6400 -214400 0
v -3200 -214400 0
v -6400 -217600 0
v -9600 -217600 0
v -9600 -214400 0
v -6400 -214400 0
v -9600 -217600 0
v -12800 -217600 0
v -12800 -214400 0
v -9600 -214400 0
v -3200 -220800 0
v -6400 -220800 0
v -6400 -217600 0
v -3200 -217600 0
v -6400 -220800 0
v -9600 -220800 0
v -9600 -217600 0
v -6400 -217600 0
v -9600 -220800 0
v -12800 -220800 0
v -12800 -217600 0
v -9600 -217600 0
v -3200 -224000 0
v -6400 -224000 0
v -6400 -220800 0
v -3200 -220800 0
v -6400 -224000 0
v -9600 -224000 0
v -9600 -220800 0
v -6400 -220800 0
v -9600 -224000 0
v -12800 -224000 0
v -12800 -220800 0
v -9600 -220800 0
v -12800 -224000 0
v -16000 -224000 0
v -16000 -220800 0
v -12800 -220800 0
v -16000 -224000 0
v -19200 -224000 0
v -19200 -220800 0
v -16000 -220800 0
v -9600 -227200 0
v -12800 -227200 0
v -12800 -224000 0
v -9600 -224000 0
v -12800 -227200 0
v -16000 -227200 0
v -16000 -224000 0
v -12800 -224000 0
v -16000 -227200 0
v -19200 -227200 0
v -19200 -224000 0
v -16000 -224000 0
v -115200 -227200 0
v -118400 -227200 0
v -118400 -224000 0
v -115200 -224000 0
v -118400 -227200 0
v -121600 -227200 0
v -121600 -224000 0
v -118400 -224000 0
v -121600 -227200 0
v -124800 -227200 0
v -124800 -224000 0
v -121600 -224000 0
v -128000 -227200 0
v -131200 -227200 0
v -131200 -224000 0
v -128000 -224000 0
v -131200 -227200 0
v -134400 -227200 0
v -134400 -224000 0
v -131200 -224000 0
v -9600 -230400 0
v -12800 -230400 0
v -12800 -227200 0
v -9600 -227200 0
v -12800 -230400 0
v -16000 -230400 0
v -16000 -227200 0
v -12800 -227200 0
v -16000 -230400 0
v -19200 -230400 0
v -19200 -227200 0
v -16000 -227200 0
v -115200 -230400 0
v -118400 -230400 0
v -118400 -227200 0
v -115200 -227200 0
v -118400 -230400 0
v -121600 -230400 0
v -121600 -227200 0
v -118400 -227200 0
v -121600 -230400 0
v -124800 -230400 0
v -124800 -227200 0
v -121600 -227200 0
v -128000 -230400 0
v -131200 -230400 0
v -131200 -227200 0
v -128000 -227200 0
v -131200 -230400 0
v -134400 -230400 0
v -134400 -227200 0
v -131200 -227200 0
v -115200 -233600 0
v -118400 -233600 0
v -118400 -230400 0
v -115200 -230400 0
v -118400 -233600 0
v -121600 -233600 0
v -121600 -230400 0
v -118400 -230400 0
v -121600 -233600 0
v -124800 -233600 0
v -124800 -230400 0
v -121600 -230400 0
v -128000 -233600 0
v -131200 -233600 0
v -131200 -230400 0
v -128000 -230400 0
v -131200 -233600 0
v -134400 -233600 0
v -134400 -230400 0
v -131200 -230400 0

# Texture cooridinates (Count = 28)
vt 0.5 0.6666666
vt 0.6666667 0.6666666
vt 0.6666667 1
vt 0.5 1
vt 0.8333333 0.6666666
vt 0.8333333 1
vt 1 0.6666666
vt 1 1
vt 0.5 0.3333333
vt 0.6666667 0.3333333
vt 0.8333333 0.3333333
vt 1 0.3333333
vt 0.5 0
vt 0.6666667 0
vt 0.8333333 0
vt 0 0.6666666
vt 0.1666667 0.6666666
vt 0.1666667 1
vt 0 1
vt 0.3333333 0.6666666
vt 0.3333333 1
vt 1 0
vt 0 0.3333333
vt 0.1666667 0.3333333
vt 0.3333333 0.3333333
vt 0 0
vt 0.1666667 0
vt 0.3333333 0

# Normal
vn 0 0 -1

# Mesh description
g CoinCollecteMap2_mesh_0039

# Faces
f 1/1/1 2/2/1 3/3/1 4/4/1
f 5/2/1 6/5/1 7/6/1 8/3/1
f 9/5/1 10/7/1 11/8/1 12/6/1
f 13/9/1 14/10/1 15/2/1 16/1/1
f 17/10/1 18/11/1 19/5/1 20/2/1
f 21/11/1 22/12/1 23/7/1 24/5/1
f 25/13/1 26/14/1 27/10/1 28/9/1
f 29/14/1 30/15/1 31/11/1 32/10/1
f 33/1/1 34/2/1 35/3/1 36/4/1
f 37/2/1 38/5/1 39/6/1 40/3/1
f 41/5/1 42/7/1 43/8/1 44/6/1
f 45/9/1 46/10/1 47/2/1 48/1/1
f 49/10/1 50/11/1 51/5/1 52/2/1
f 53/11/1 54/12/1 55/7/1 56/5/1
f 57/1/1 58/2/1 59/3/1 60/4/1
f 61/2/1 62/5/1 63/6/1 64/3/1
f 65/5/1 66/7/1 67/8/1 68/6/1
f 69/16/1 70/17/1 71/18/1 72/19/1
f 73/17/1 74/20/1 75/21/1 76/18/1
f 77/13/1 78/14/1 79/10/1 80/9/1
f 81/14/1 82/15/1 83/11/1 84/10/1
f 85/15/1 86/22/1 87/12/1 88/11/1
f 89/9/1 90/10/1 91/2/1 92/1/1
f 93/10/1 94/11/1 95/5/1 96/2/1
f 97/11/1 98/12/1 99/7/1 100/5/1
f 101/23/1 102/24/1 103/17/1 104/16/1
f 105/24/1 106/25/1 107/20/1 108/17/1
f 109/13/1 110/14/1 111/10/1 112/9/1
f 113/14/1 114/15/1 115/11/1 116/10/1
f 117/15/1 118/22/1 119/12/1 120/11/1
f 121/26/1 122/27/1 123/24/1 124/23/1
f 125/27/1 126/28/1 127/25/1 128/24/1

