# Tiled2Unity generated file. Do not modify by hand.
# Wavefront file for 'CoinCollecteMap2_mesh_0026.obj'

# Vertices (Count = 48)
v 0 -153600 0
v -3200 -153600 0
v -3200 -150400 0
v 0 -150400 0
v 0 -156800 0
v -3200 -156800 0
v -3200 -153600 0
v 0 -153600 0
v -3200 -156800 0
v -6400 -156800 0
v -6400 -153600 0
v -3200 -153600 0
v -6400 -156800 0
v -9600 -156800 0
v -9600 -153600 0
v -6400 -153600 0
v -9600 -156800 0
v -12800 -156800 0
v -12800 -153600 0
v -9600 -153600 0
v 0 -160000 0
v -3200 -160000 0
v -3200 -156800 0
v 0 -156800 0
v -3200 -160000 0
v -6400 -160000 0
v -6400 -156800 0
v -3200 -156800 0
v -6400 -160000 0
v -9600 -160000 0
v -9600 -156800 0
v -6400 -156800 0
v -9600 -160000 0
v -12800 -160000 0
v -12800 -156800 0
v -9600 -156800 0
v -3200 -163200 0
v -6400 -163200 0
v -6400 -160000 0
v -3200 -160000 0
v -6400 -163200 0
v -9600 -163200 0
v -9600 -160000 0
v -6400 -160000 0
v -9600 -163200 0
v -12800 -163200 0
v -12800 -160000 0
v -9600 -160000 0

# Texture cooridinates (Count = 20)
vt 0.3333333 0.6666666
vt 0.5 0.6666666
vt 0.5 1
vt 0.3333333 1
vt 0.3333333 0.3333333
vt 0.5 0.3333333
vt 0.6666667 0.6666666
vt 0.6666667 1
vt 0.8333333 0.6666666
vt 0.8333333 1
vt 1 0.6666666
vt 1 1
vt 0.3333333 0
vt 0.5 0
vt 0.6666667 0.3333333
vt 0.8333333 0.3333333
vt 1 0.3333333
vt 0.6666667 0
vt 0.8333333 0
vt 1 0

# Normal
vn 0 0 -1

# Mesh description
g CoinCollecteMap2_mesh_0026

# Faces
f 1/1/1 2/2/1 3/3/1 4/4/1
f 5/5/1 6/6/1 7/2/1 8/1/1
f 9/2/1 10/7/1 11/8/1 12/3/1
f 13/7/1 14/9/1 15/10/1 16/8/1
f 17/9/1 18/11/1 19/12/1 20/10/1
f 21/13/1 22/14/1 23/6/1 24/5/1
f 25/6/1 26/15/1 27/7/1 28/2/1
f 29/15/1 30/16/1 31/9/1 32/7/1
f 33/16/1 34/17/1 35/11/1 36/9/1
f 37/14/1 38/18/1 39/15/1 40/6/1
f 41/18/1 42/19/1 43/16/1 44/15/1
f 45/19/1 46/20/1 47/17/1 48/16/1

