# Tiled2Unity generated file. Do not modify by hand.
# Wavefront file for 'CoinCollecteMap2_mesh_0063.obj'

# Vertices (Count = 96)
v -6400 -108800 0
v -9600 -108800 0
v -9600 -105600 0
v -6400 -105600 0
v -9600 -108800 0
v -12800 -108800 0
v -12800 -105600 0
v -9600 -105600 0
v -12800 -108800 0
v -16000 -108800 0
v -16000 -105600 0
v -12800 -105600 0
v -6400 -112000 0
v -9600 -112000 0
v -9600 -108800 0
v -6400 -108800 0
v -9600 -112000 0
v -12800 -112000 0
v -12800 -108800 0
v -9600 -108800 0
v -12800 -112000 0
v -16000 -112000 0
v -16000 -108800 0
v -12800 -108800 0
v -112000 -112000 0
v -115200 -112000 0
v -115200 -108800 0
v -112000 -108800 0
v -115200 -112000 0
v -118400 -112000 0
v -118400 -108800 0
v -115200 -108800 0
v -118400 -112000 0
v -121600 -112000 0
v -121600 -108800 0
v -118400 -108800 0
v -6400 -115200 0
v -9600 -115200 0
v -9600 -112000 0
v -6400 -112000 0
v -9600 -115200 0
v -12800 -115200 0
v -12800 -112000 0
v -9600 -112000 0
v -12800 -115200 0
v -16000 -115200 0
v -16000 -112000 0
v -12800 -112000 0
v -112000 -115200 0
v -115200 -115200 0
v -115200 -112000 0
v -112000 -112000 0
v -115200 -115200 0
v -118400 -115200 0
v -118400 -112000 0
v -115200 -112000 0
v -118400 -115200 0
v -121600 -115200 0
v -121600 -112000 0
v -118400 -112000 0
v -6400 -118400 0
v -9600 -118400 0
v -9600 -115200 0
v -6400 -115200 0
v -9600 -118400 0
v -12800 -118400 0
v -12800 -115200 0
v -9600 -115200 0
v -12800 -118400 0
v -16000 -118400 0
v -16000 -115200 0
v -12800 -115200 0
v -112000 -118400 0
v -115200 -118400 0
v -115200 -115200 0
v -112000 -115200 0
v -115200 -118400 0
v -118400 -118400 0
v -118400 -115200 0
v -115200 -115200 0
v -118400 -118400 0
v -121600 -118400 0
v -121600 -115200 0
v -118400 -115200 0
v -112000 -121600 0
v -115200 -121600 0
v -115200 -118400 0
v -112000 -118400 0
v -115200 -121600 0
v -118400 -121600 0
v -118400 -118400 0
v -115200 -118400 0
v -118400 -121600 0
v -121600 -121600 0
v -121600 -118400 0
v -118400 -118400 0

# Texture cooridinates (Count = 20)
vt 0.5 0.4285714
vt 0.6666667 0.4285714
vt 0.6666667 0.5714285
vt 0.5 0.5714285
vt 0.8333333 0.4285714
vt 0.8333333 0.5714285
vt 1 0.4285714
vt 1 0.5714285
vt 0.5 0.2857143
vt 0.6666667 0.2857143
vt 0.8333333 0.2857143
vt 1 0.2857143
vt 0.5 0.1428571
vt 0.6666667 0.1428571
vt 0.8333333 0.1428571
vt 1 0.1428571
vt 0.5 0
vt 0.6666667 0
vt 0.8333333 0
vt 1 0

# Normal
vn 0 0 -1

# Mesh description
g CoinCollecteMap2_mesh_0063

# Faces
f 1/1/1 2/2/1 3/3/1 4/4/1
f 5/2/1 6/5/1 7/6/1 8/3/1
f 9/5/1 10/7/1 11/8/1 12/6/1
f 13/9/1 14/10/1 15/2/1 16/1/1
f 17/10/1 18/11/1 19/5/1 20/2/1
f 21/11/1 22/12/1 23/7/1 24/5/1
f 25/1/1 26/2/1 27/3/1 28/4/1
f 29/2/1 30/5/1 31/6/1 32/3/1
f 33/5/1 34/7/1 35/8/1 36/6/1
f 37/13/1 38/14/1 39/10/1 40/9/1
f 41/14/1 42/15/1 43/11/1 44/10/1
f 45/15/1 46/16/1 47/12/1 48/11/1
f 49/9/1 50/10/1 51/2/1 52/1/1
f 53/10/1 54/11/1 55/5/1 56/2/1
f 57/11/1 58/12/1 59/7/1 60/5/1
f 61/17/1 62/18/1 63/14/1 64/13/1
f 65/18/1 66/19/1 67/15/1 68/14/1
f 69/19/1 70/20/1 71/16/1 72/15/1
f 73/13/1 74/14/1 75/10/1 76/9/1
f 77/14/1 78/15/1 79/11/1 80/10/1
f 81/15/1 82/16/1 83/12/1 84/11/1
f 85/17/1 86/18/1 87/14/1 88/13/1
f 89/18/1 90/19/1 91/15/1 92/14/1
f 93/19/1 94/20/1 95/16/1 96/15/1

