# Tiled2Unity generated file. Do not modify by hand.
# Wavefront file for 'CoinCollecteMap2_mesh_0154.obj'

# Vertices (Count = 148)
v -102400 -160000 0
v -105600 -160000 0
v -105600 -156800 0
v -102400 -156800 0
v -35200 -166400 0
v -38400 -166400 0
v -38400 -163200 0
v -35200 -163200 0
v -38400 -166400 0
v -41600 -166400 0
v -41600 -163200 0
v -38400 -163200 0
v -41600 -166400 0
v -44800 -166400 0
v -44800 -163200 0
v -41600 -163200 0
v -44800 -166400 0
v -48000 -166400 0
v -48000 -163200 0
v -44800 -163200 0
v -48000 -166400 0
v -51200 -166400 0
v -51200 -163200 0
v -48000 -163200 0
v -51200 -166400 0
v -54400 -166400 0
v -54400 -163200 0
v -51200 -163200 0
v -86400 -166400 0
v -89600 -166400 0
v -89600 -163200 0
v -86400 -163200 0
v -89600 -166400 0
v -92800 -166400 0
v -92800 -163200 0
v -89600 -163200 0
v -92800 -166400 0
v -96000 -166400 0
v -96000 -163200 0
v -92800 -163200 0
v -35200 -169600 0
v -38400 -169600 0
v -38400 -166400 0
v -35200 -166400 0
v -38400 -169600 0
v -41600 -169600 0
v -41600 -166400 0
v -38400 -166400 0
v -41600 -169600 0
v -44800 -169600 0
v -44800 -166400 0
v -41600 -166400 0
v -44800 -169600 0
v -48000 -169600 0
v -48000 -166400 0
v -44800 -166400 0
v -48000 -169600 0
v -51200 -169600 0
v -51200 -166400 0
v -48000 -166400 0
v -51200 -169600 0
v -54400 -169600 0
v -54400 -166400 0
v -51200 -166400 0
v -70400 -169600 0
v -73600 -169600 0
v -73600 -166400 0
v -70400 -166400 0
v -73600 -169600 0
v -76800 -169600 0
v -76800 -166400 0
v -73600 -166400 0
v -76800 -169600 0
v -80000 -169600 0
v -80000 -166400 0
v -76800 -166400 0
v -86400 -169600 0
v -89600 -169600 0
v -89600 -166400 0
v -86400 -166400 0
v -89600 -169600 0
v -92800 -169600 0
v -92800 -166400 0
v -89600 -166400 0
v -92800 -169600 0
v -96000 -169600 0
v -96000 -166400 0
v -92800 -166400 0
v -35200 -172800 0
v -38400 -172800 0
v -38400 -169600 0
v -35200 -169600 0
v -38400 -172800 0
v -41600 -172800 0
v -41600 -169600 0
v -38400 -169600 0
v -41600 -172800 0
v -44800 -172800 0
v -44800 -169600 0
v -41600 -169600 0
v -44800 -172800 0
v -48000 -172800 0
v -48000 -169600 0
v -44800 -169600 0
v -48000 -172800 0
v -51200 -172800 0
v -51200 -169600 0
v -48000 -169600 0
v -51200 -172800 0
v -54400 -172800 0
v -54400 -169600 0
v -51200 -169600 0
v -70400 -172800 0
v -73600 -172800 0
v -73600 -169600 0
v -70400 -169600 0
v -73600 -172800 0
v -76800 -172800 0
v -76800 -169600 0
v -73600 -169600 0
v -76800 -172800 0
v -80000 -172800 0
v -80000 -169600 0
v -76800 -169600 0
v -86400 -172800 0
v -89600 -172800 0
v -89600 -169600 0
v -86400 -169600 0
v -89600 -172800 0
v -92800 -172800 0
v -92800 -169600 0
v -89600 -169600 0
v -92800 -172800 0
v -96000 -172800 0
v -96000 -169600 0
v -92800 -169600 0
v -70400 -176000 0
v -73600 -176000 0
v -73600 -172800 0
v -70400 -172800 0
v -73600 -176000 0
v -76800 -176000 0
v -76800 -172800 0
v -73600 -172800 0
v -76800 -176000 0
v -80000 -176000 0
v -80000 -172800 0
v -76800 -172800 0

# Texture cooridinates (Count = 28)
vt 0.8333333 0.6666666
vt 1 0.6666666
vt 1 1
vt 0.8333333 1
vt 0.5 0.6666666
vt 0.6666667 0.6666666
vt 0.6666667 1
vt 0.5 1
vt 0 0.6666666
vt 0.1666667 0.6666666
vt 0.1666667 1
vt 0 1
vt 0.3333333 0.6666666
vt 0.3333333 1
vt 0.5 0.3333333
vt 0.6666667 0.3333333
vt 0.8333333 0.3333333
vt 1 0.3333333
vt 0 0.3333333
vt 0.1666667 0.3333333
vt 0.3333333 0.3333333
vt 0.5 0
vt 0.6666667 0
vt 0.8333333 0
vt 1 0
vt 0 0
vt 0.1666667 0
vt 0.3333333 0

# Normal
vn 0 0 -1

# Mesh description
g CoinCollecteMap2_mesh_0154

# Faces
f 1/1/1 2/2/1 3/3/1 4/4/1
f 5/5/1 6/6/1 7/7/1 8/8/1
f 9/6/1 10/1/1 11/4/1 12/7/1
f 13/1/1 14/2/1 15/3/1 16/4/1
f 17/9/1 18/10/1 19/11/1 20/12/1
f 21/10/1 22/13/1 23/14/1 24/11/1
f 25/13/1 26/5/1 27/8/1 28/14/1
f 29/5/1 30/6/1 31/7/1 32/8/1
f 33/6/1 34/1/1 35/4/1 36/7/1
f 37/1/1 38/2/1 39/3/1 40/4/1
f 41/15/1 42/16/1 43/6/1 44/5/1
f 45/16/1 46/17/1 47/1/1 48/6/1
f 49/17/1 50/18/1 51/2/1 52/1/1
f 53/19/1 54/20/1 55/10/1 56/9/1
f 57/20/1 58/21/1 59/13/1 60/10/1
f 61/21/1 62/15/1 63/5/1 64/13/1
f 65/5/1 66/6/1 67/7/1 68/8/1
f 69/6/1 70/1/1 71/4/1 72/7/1
f 73/1/1 74/2/1 75/3/1 76/4/1
f 77/15/1 78/16/1 79/6/1 80/5/1
f 81/16/1 82/17/1 83/1/1 84/6/1
f 85/17/1 86/18/1 87/2/1 88/1/1
f 89/22/1 90/23/1 91/16/1 92/15/1
f 93/23/1 94/24/1 95/17/1 96/16/1
f 97/24/1 98/25/1 99/18/1 100/17/1
f 101/26/1 102/27/1 103/20/1 104/19/1
f 105/27/1 106/28/1 107/21/1 108/20/1
f 109/28/1 110/22/1 111/15/1 112/21/1
f 113/15/1 114/16/1 115/6/1 116/5/1
f 117/16/1 118/17/1 119/1/1 120/6/1
f 121/17/1 122/18/1 123/2/1 124/1/1
f 125/22/1 126/23/1 127/16/1 128/15/1
f 129/23/1 130/24/1 131/17/1 132/16/1
f 133/24/1 134/25/1 135/18/1 136/17/1
f 137/22/1 138/23/1 139/16/1 140/15/1
f 141/23/1 142/24/1 143/17/1 144/16/1
f 145/24/1 146/25/1 147/18/1 148/17/1

