# Tiled2Unity generated file. Do not modify by hand.
# Wavefront file for 'CoinCollecteMap2_mesh_0207.obj'

# Vertices (Count = 216)
v -92800 -188800 0
v -96000 -188800 0
v -96000 -185600 0
v -92800 -185600 0
v -96000 -188800 0
v -99200 -188800 0
v -99200 -185600 0
v -96000 -185600 0
v -99200 -188800 0
v -102400 -188800 0
v -102400 -185600 0
v -99200 -185600 0
v -44800 -192000 0
v -48000 -192000 0
v -48000 -188800 0
v -44800 -188800 0
v -48000 -192000 0
v -51200 -192000 0
v -51200 -188800 0
v -48000 -188800 0
v -51200 -192000 0
v -54400 -192000 0
v -54400 -188800 0
v -51200 -188800 0
v -60800 -192000 0
v -64000 -192000 0
v -64000 -188800 0
v -60800 -188800 0
v -64000 -192000 0
v -67200 -192000 0
v -67200 -188800 0
v -64000 -188800 0
v -67200 -192000 0
v -70400 -192000 0
v -70400 -188800 0
v -67200 -188800 0
v -76800 -192000 0
v -80000 -192000 0
v -80000 -188800 0
v -76800 -188800 0
v -80000 -192000 0
v -83200 -192000 0
v -83200 -188800 0
v -80000 -188800 0
v -83200 -192000 0
v -86400 -192000 0
v -86400 -188800 0
v -83200 -188800 0
v -92800 -192000 0
v -96000 -192000 0
v -96000 -188800 0
v -92800 -188800 0
v -96000 -192000 0
v -99200 -192000 0
v -99200 -188800 0
v -96000 -188800 0
v -99200 -192000 0
v -102400 -192000 0
v -102400 -188800 0
v -99200 -188800 0
v -32000 -195200 0
v -35200 -195200 0
v -35200 -192000 0
v -32000 -192000 0
v -35200 -195200 0
v -38400 -195200 0
v -38400 -192000 0
v -35200 -192000 0
v -38400 -195200 0
v -41600 -195200 0
v -41600 -192000 0
v -38400 -192000 0
v -44800 -195200 0
v -48000 -195200 0
v -48000 -192000 0
v -44800 -192000 0
v -48000 -195200 0
v -51200 -195200 0
v -51200 -192000 0
v -48000 -192000 0
v -51200 -195200 0
v -54400 -195200 0
v -54400 -192000 0
v -51200 -192000 0
v -60800 -195200 0
v -64000 -195200 0
v -64000 -192000 0
v -60800 -192000 0
v -64000 -195200 0
v -67200 -195200 0
v -67200 -192000 0
v -64000 -192000 0
v -67200 -195200 0
v -70400 -195200 0
v -70400 -192000 0
v -67200 -192000 0
v -76800 -195200 0
v -80000 -195200 0
v -80000 -192000 0
v -76800 -192000 0
v -80000 -195200 0
v -83200 -195200 0
v -83200 -192000 0
v -80000 -192000 0
v -83200 -195200 0
v -86400 -195200 0
v -86400 -192000 0
v -83200 -192000 0
v -92800 -195200 0
v -96000 -195200 0
v -96000 -192000 0
v -92800 -192000 0
v -96000 -195200 0
v -99200 -195200 0
v -99200 -192000 0
v -96000 -192000 0
v -99200 -195200 0
v -102400 -195200 0
v -102400 -192000 0
v -99200 -192000 0
v -32000 -198400 0
v -35200 -198400 0
v -35200 -195200 0
v -32000 -195200 0
v -35200 -198400 0
v -38400 -198400 0
v -38400 -195200 0
v -35200 -195200 0
v -38400 -198400 0
v -41600 -198400 0
v -41600 -195200 0
v -38400 -195200 0
v -44800 -198400 0
v -48000 -198400 0
v -48000 -195200 0
v -44800 -195200 0
v -48000 -198400 0
v -51200 -198400 0
v -51200 -195200 0
v -48000 -195200 0
v -51200 -198400 0
v -54400 -198400 0
v -54400 -195200 0
v -51200 -195200 0
v -60800 -198400 0
v -64000 -198400 0
v -64000 -195200 0
v -60800 -195200 0
v -64000 -198400 0
v -67200 -198400 0
v -67200 -195200 0
v -64000 -195200 0
v -67200 -198400 0
v -70400 -198400 0
v -70400 -195200 0
v -67200 -195200 0
v -76800 -198400 0
v -80000 -198400 0
v -80000 -195200 0
v -76800 -195200 0
v -80000 -198400 0
v -83200 -198400 0
v -83200 -195200 0
v -80000 -195200 0
v -83200 -198400 0
v -86400 -198400 0
v -86400 -195200 0
v -83200 -195200 0
v -92800 -198400 0
v -96000 -198400 0
v -96000 -195200 0
v -92800 -195200 0
v -96000 -198400 0
v -99200 -198400 0
v -99200 -195200 0
v -96000 -195200 0
v -99200 -198400 0
v -102400 -198400 0
v -102400 -195200 0
v -99200 -195200 0
v -32000 -201600 0
v -35200 -201600 0
v -35200 -198400 0
v -32000 -198400 0
v -35200 -201600 0
v -38400 -201600 0
v -38400 -198400 0
v -35200 -198400 0
v -38400 -201600 0
v -41600 -201600 0
v -41600 -198400 0
v -38400 -198400 0
v -60800 -201600 0
v -64000 -201600 0
v -64000 -198400 0
v -60800 -198400 0
v -64000 -201600 0
v -67200 -201600 0
v -67200 -198400 0
v -64000 -198400 0
v -67200 -201600 0
v -70400 -201600 0
v -70400 -198400 0
v -67200 -198400 0
v -76800 -201600 0
v -80000 -201600 0
v -80000 -198400 0
v -76800 -198400 0
v -80000 -201600 0
v -83200 -201600 0
v -83200 -198400 0
v -80000 -198400 0
v -83200 -201600 0
v -86400 -201600 0
v -86400 -198400 0
v -83200 -198400 0

# Texture cooridinates (Count = 32)
vt 0.5 0.4285714
vt 0.6666667 0.4285714
vt 0.6666667 0.5714285
vt 0.5 0.5714285
vt 0.8333333 0.4285714
vt 0.8333333 0.5714285
vt 1 0.4285714
vt 1 0.5714285
vt 0 0.4285714
vt 0.1666667 0.4285714
vt 0.1666667 0.5714285
vt 0 0.5714285
vt 0.3333333 0.4285714
vt 0.3333333 0.5714285
vt 0.5 0.2857143
vt 0.6666667 0.2857143
vt 0.8333333 0.2857143
vt 1 0.2857143
vt 0 0.2857143
vt 0.1666667 0.2857143
vt 0.3333333 0.2857143
vt 0.5 0.1428571
vt 0.6666667 0.1428571
vt 0.8333333 0.1428571
vt 1 0.1428571
vt 0 0.1428571
vt 0.1666667 0.1428571
vt 0.3333333 0.1428571
vt 0.5 0
vt 0.6666667 0
vt 0.8333333 0
vt 1 0

# Normal
vn 0 0 -1

# Mesh description
g CoinCollecteMap2_mesh_0207

# Faces
f 1/1/1 2/2/1 3/3/1 4/4/1
f 5/2/1 6/5/1 7/6/1 8/3/1
f 9/5/1 10/7/1 11/8/1 12/6/1
f 13/9/1 14/10/1 15/11/1 16/12/1
f 17/10/1 18/13/1 19/14/1 20/11/1
f 21/13/1 22/1/1 23/4/1 24/14/1
f 25/1/1 26/2/1 27/3/1 28/4/1
f 29/2/1 30/5/1 31/6/1 32/3/1
f 33/5/1 34/7/1 35/8/1 36/6/1
f 37/1/1 38/2/1 39/3/1 40/4/1
f 41/2/1 42/5/1 43/6/1 44/3/1
f 45/5/1 46/7/1 47/8/1 48/6/1
f 49/15/1 50/16/1 51/2/1 52/1/1
f 53/16/1 54/17/1 55/5/1 56/2/1
f 57/17/1 58/18/1 59/7/1 60/5/1
f 61/9/1 62/10/1 63/11/1 64/12/1
f 65/10/1 66/13/1 67/14/1 68/11/1
f 69/13/1 70/1/1 71/4/1 72/14/1
f 73/19/1 74/20/1 75/10/1 76/9/1
f 77/20/1 78/21/1 79/13/1 80/10/1
f 81/21/1 82/15/1 83/1/1 84/13/1
f 85/15/1 86/16/1 87/2/1 88/1/1
f 89/16/1 90/17/1 91/5/1 92/2/1
f 93/17/1 94/18/1 95/7/1 96/5/1
f 97/15/1 98/16/1 99/2/1 100/1/1
f 101/16/1 102/17/1 103/5/1 104/2/1
f 105/17/1 106/18/1 107/7/1 108/5/1
f 109/22/1 110/23/1 111/16/1 112/15/1
f 113/23/1 114/24/1 115/17/1 116/16/1
f 117/24/1 118/25/1 119/18/1 120/17/1
f 121/19/1 122/20/1 123/10/1 124/9/1
f 125/20/1 126/21/1 127/13/1 128/10/1
f 129/21/1 130/15/1 131/1/1 132/13/1
f 133/26/1 134/27/1 135/20/1 136/19/1
f 137/27/1 138/28/1 139/21/1 140/20/1
f 141/28/1 142/22/1 143/15/1 144/21/1
f 145/22/1 146/23/1 147/16/1 148/15/1
f 149/23/1 150/24/1 151/17/1 152/16/1
f 153/24/1 154/25/1 155/18/1 156/17/1
f 157/22/1 158/23/1 159/16/1 160/15/1
f 161/23/1 162/24/1 163/17/1 164/16/1
f 165/24/1 166/25/1 167/18/1 168/17/1
f 169/29/1 170/30/1 171/23/1 172/22/1
f 173/30/1 174/31/1 175/24/1 176/23/1
f 177/31/1 178/32/1 179/25/1 180/24/1
f 181/26/1 182/27/1 183/20/1 184/19/1
f 185/27/1 186/28/1 187/21/1 188/20/1
f 189/28/1 190/22/1 191/15/1 192/21/1
f 193/29/1 194/30/1 195/23/1 196/22/1
f 197/30/1 198/31/1 199/24/1 200/23/1
f 201/31/1 202/32/1 203/25/1 204/24/1
f 205/29/1 206/30/1 207/23/1 208/22/1
f 209/30/1 210/31/1 211/24/1 212/23/1
f 213/31/1 214/32/1 215/25/1 216/24/1

