# Tiled2Unity generated file. Do not modify by hand.
# Wavefront file for 'CoinCollecteMap2_mesh_0210.obj'

# Vertices (Count = 288)
v -35200 -201600 0
v -38400 -201600 0
v -38400 -198400 0
v -35200 -198400 0
v -38400 -201600 0
v -41600 -201600 0
v -41600 -198400 0
v -38400 -198400 0
v -41600 -201600 0
v -44800 -201600 0
v -44800 -198400 0
v -41600 -198400 0
v -57600 -201600 0
v -60800 -201600 0
v -60800 -198400 0
v -57600 -198400 0
v -60800 -201600 0
v -64000 -201600 0
v -64000 -198400 0
v -60800 -198400 0
v -64000 -201600 0
v -67200 -201600 0
v -67200 -198400 0
v -64000 -198400 0
v -35200 -204800 0
v -38400 -204800 0
v -38400 -201600 0
v -35200 -201600 0
v -38400 -204800 0
v -41600 -204800 0
v -41600 -201600 0
v -38400 -201600 0
v -41600 -204800 0
v -44800 -204800 0
v -44800 -201600 0
v -41600 -201600 0
v -48000 -204800 0
v -51200 -204800 0
v -51200 -201600 0
v -48000 -201600 0
v -51200 -204800 0
v -54400 -204800 0
v -54400 -201600 0
v -51200 -201600 0
v -54400 -204800 0
v -57600 -204800 0
v -57600 -201600 0
v -54400 -201600 0
v -57600 -204800 0
v -60800 -204800 0
v -60800 -201600 0
v -57600 -201600 0
v -60800 -204800 0
v -64000 -204800 0
v -64000 -201600 0
v -60800 -201600 0
v -64000 -204800 0
v -67200 -204800 0
v -67200 -201600 0
v -64000 -201600 0
v -67200 -204800 0
v -70400 -204800 0
v -70400 -201600 0
v -67200 -201600 0
v -70400 -204800 0
v -73600 -204800 0
v -73600 -201600 0
v -70400 -201600 0
v -73600 -204800 0
v -76800 -204800 0
v -76800 -201600 0
v -73600 -201600 0
v -76800 -204800 0
v -80000 -204800 0
v -80000 -201600 0
v -76800 -201600 0
v -80000 -204800 0
v -83200 -204800 0
v -83200 -201600 0
v -80000 -201600 0
v -83200 -204800 0
v -86400 -204800 0
v -86400 -201600 0
v -83200 -201600 0
v -86400 -204800 0
v -89600 -204800 0
v -89600 -201600 0
v -86400 -201600 0
v -89600 -204800 0
v -92800 -204800 0
v -92800 -201600 0
v -89600 -201600 0
v -92800 -204800 0
v -96000 -204800 0
v -96000 -201600 0
v -92800 -201600 0
v -35200 -208000 0
v -38400 -208000 0
v -38400 -204800 0
v -35200 -204800 0
v -38400 -208000 0
v -41600 -208000 0
v -41600 -204800 0
v -38400 -204800 0
v -41600 -208000 0
v -44800 -208000 0
v -44800 -204800 0
v -41600 -204800 0
v -48000 -208000 0
v -51200 -208000 0
v -51200 -204800 0
v -48000 -204800 0
v -51200 -208000 0
v -54400 -208000 0
v -54400 -204800 0
v -51200 -204800 0
v -54400 -208000 0
v -57600 -208000 0
v -57600 -204800 0
v -54400 -204800 0
v -57600 -208000 0
v -60800 -208000 0
v -60800 -204800 0
v -57600 -204800 0
v -60800 -208000 0
v -64000 -208000 0
v -64000 -204800 0
v -60800 -204800 0
v -64000 -208000 0
v -67200 -208000 0
v -67200 -204800 0
v -64000 -204800 0
v -67200 -208000 0
v -70400 -208000 0
v -70400 -204800 0
v -67200 -204800 0
v -70400 -208000 0
v -73600 -208000 0
v -73600 -204800 0
v -70400 -204800 0
v -73600 -208000 0
v -76800 -208000 0
v -76800 -204800 0
v -73600 -204800 0
v -76800 -208000 0
v -80000 -208000 0
v -80000 -204800 0
v -76800 -204800 0
v -80000 -208000 0
v -83200 -208000 0
v -83200 -204800 0
v -80000 -204800 0
v -83200 -208000 0
v -86400 -208000 0
v -86400 -204800 0
v -83200 -204800 0
v -86400 -208000 0
v -89600 -208000 0
v -89600 -204800 0
v -86400 -204800 0
v -89600 -208000 0
v -92800 -208000 0
v -92800 -204800 0
v -89600 -204800 0
v -92800 -208000 0
v -96000 -208000 0
v -96000 -204800 0
v -92800 -204800 0
v -35200 -211200 0
v -38400 -211200 0
v -38400 -208000 0
v -35200 -208000 0
v -38400 -211200 0
v -41600 -211200 0
v -41600 -208000 0
v -38400 -208000 0
v -41600 -211200 0
v -44800 -211200 0
v -44800 -208000 0
v -41600 -208000 0
v -48000 -211200 0
v -51200 -211200 0
v -51200 -208000 0
v -48000 -208000 0
v -51200 -211200 0
v -54400 -211200 0
v -54400 -208000 0
v -51200 -208000 0
v -54400 -211200 0
v -57600 -211200 0
v -57600 -208000 0
v -54400 -208000 0
v -57600 -211200 0
v -60800 -211200 0
v -60800 -208000 0
v -57600 -208000 0
v -60800 -211200 0
v -64000 -211200 0
v -64000 -208000 0
v -60800 -208000 0
v -64000 -211200 0
v -67200 -211200 0
v -67200 -208000 0
v -64000 -208000 0
v -67200 -211200 0
v -70400 -211200 0
v -70400 -208000 0
v -67200 -208000 0
v -70400 -211200 0
v -73600 -211200 0
v -73600 -208000 0
v -70400 -208000 0
v -73600 -211200 0
v -76800 -211200 0
v -76800 -208000 0
v -73600 -208000 0
v -76800 -211200 0
v -80000 -211200 0
v -80000 -208000 0
v -76800 -208000 0
v -80000 -211200 0
v -83200 -211200 0
v -83200 -208000 0
v -80000 -208000 0
v -83200 -211200 0
v -86400 -211200 0
v -86400 -208000 0
v -83200 -208000 0
v -86400 -211200 0
v -89600 -211200 0
v -89600 -208000 0
v -86400 -208000 0
v -89600 -211200 0
v -92800 -211200 0
v -92800 -208000 0
v -89600 -208000 0
v -92800 -211200 0
v -96000 -211200 0
v -96000 -208000 0
v -92800 -208000 0
v -48000 -214400 0
v -51200 -214400 0
v -51200 -211200 0
v -48000 -211200 0
v -51200 -214400 0
v -54400 -214400 0
v -54400 -211200 0
v -51200 -211200 0
v -54400 -214400 0
v -57600 -214400 0
v -57600 -211200 0
v -54400 -211200 0
v -67200 -214400 0
v -70400 -214400 0
v -70400 -211200 0
v -67200 -211200 0
v -70400 -214400 0
v -73600 -214400 0
v -73600 -211200 0
v -70400 -211200 0
v -73600 -214400 0
v -76800 -214400 0
v -76800 -211200 0
v -73600 -211200 0
v -76800 -214400 0
v -80000 -214400 0
v -80000 -211200 0
v -76800 -211200 0
v -80000 -214400 0
v -83200 -214400 0
v -83200 -211200 0
v -80000 -211200 0
v -83200 -214400 0
v -86400 -214400 0
v -86400 -211200 0
v -83200 -211200 0
v -86400 -214400 0
v -89600 -214400 0
v -89600 -211200 0
v -86400 -211200 0
v -89600 -214400 0
v -92800 -214400 0
v -92800 -211200 0
v -89600 -211200 0
v -92800 -214400 0
v -96000 -214400 0
v -96000 -211200 0
v -92800 -211200 0

# Texture cooridinates (Count = 20)
vt 0.5 0.4285714
vt 0.6666667 0.4285714
vt 0.6666667 0.5714285
vt 0.5 0.5714285
vt 0.8333333 0.4285714
vt 0.8333333 0.5714285
vt 1 0.4285714
vt 1 0.5714285
vt 0.5 0.2857143
vt 0.6666667 0.2857143
vt 0.8333333 0.2857143
vt 1 0.2857143
vt 0.5 0.1428571
vt 0.6666667 0.1428571
vt 0.8333333 0.1428571
vt 1 0.1428571
vt 0.5 0
vt 0.6666667 0
vt 0.8333333 0
vt 1 0

# Normal
vn 0 0 -1

# Mesh description
g CoinCollecteMap2_mesh_0210

# Faces
f 1/1/1 2/2/1 3/3/1 4/4/1
f 5/2/1 6/5/1 7/6/1 8/3/1
f 9/5/1 10/7/1 11/8/1 12/6/1
f 13/1/1 14/2/1 15/3/1 16/4/1
f 17/2/1 18/5/1 19/6/1 20/3/1
f 21/5/1 22/7/1 23/8/1 24/6/1
f 25/9/1 26/10/1 27/2/1 28/1/1
f 29/10/1 30/11/1 31/5/1 32/2/1
f 33/11/1 34/12/1 35/7/1 36/5/1
f 37/1/1 38/2/1 39/3/1 40/4/1
f 41/2/1 42/5/1 43/6/1 44/3/1
f 45/5/1 46/7/1 47/8/1 48/6/1
f 49/9/1 50/10/1 51/2/1 52/1/1
f 53/10/1 54/11/1 55/5/1 56/2/1
f 57/11/1 58/12/1 59/7/1 60/5/1
f 61/1/1 62/2/1 63/3/1 64/4/1
f 65/2/1 66/5/1 67/6/1 68/3/1
f 69/5/1 70/7/1 71/8/1 72/6/1
f 73/1/1 74/2/1 75/3/1 76/4/1
f 77/2/1 78/5/1 79/6/1 80/3/1
f 81/5/1 82/7/1 83/8/1 84/6/1
f 85/1/1 86/2/1 87/3/1 88/4/1
f 89/2/1 90/5/1 91/6/1 92/3/1
f 93/5/1 94/7/1 95/8/1 96/6/1
f 97/13/1 98/14/1 99/10/1 100/9/1
f 101/14/1 102/15/1 103/11/1 104/10/1
f 105/15/1 106/16/1 107/12/1 108/11/1
f 109/9/1 110/10/1 111/2/1 112/1/1
f 113/10/1 114/11/1 115/5/1 116/2/1
f 117/11/1 118/12/1 119/7/1 120/5/1
f 121/13/1 122/14/1 123/10/1 124/9/1
f 125/14/1 126/15/1 127/11/1 128/10/1
f 129/15/1 130/16/1 131/12/1 132/11/1
f 133/9/1 134/10/1 135/2/1 136/1/1
f 137/10/1 138/11/1 139/5/1 140/2/1
f 141/11/1 142/12/1 143/7/1 144/5/1
f 145/9/1 146/10/1 147/2/1 148/1/1
f 149/10/1 150/11/1 151/5/1 152/2/1
f 153/11/1 154/12/1 155/7/1 156/5/1
f 157/9/1 158/10/1 159/2/1 160/1/1
f 161/10/1 162/11/1 163/5/1 164/2/1
f 165/11/1 166/12/1 167/7/1 168/5/1
f 169/17/1 170/18/1 171/14/1 172/13/1
f 173/18/1 174/19/1 175/15/1 176/14/1
f 177/19/1 178/20/1 179/16/1 180/15/1
f 181/13/1 182/14/1 183/10/1 184/9/1
f 185/14/1 186/15/1 187/11/1 188/10/1
f 189/15/1 190/16/1 191/12/1 192/11/1
f 193/17/1 194/18/1 195/14/1 196/13/1
f 197/18/1 198/19/1 199/15/1 200/14/1
f 201/19/1 202/20/1 203/16/1 204/15/1
f 205/13/1 206/14/1 207/10/1 208/9/1
f 209/14/1 210/15/1 211/11/1 212/10/1
f 213/15/1 214/16/1 215/12/1 216/11/1
f 217/13/1 218/14/1 219/10/1 220/9/1
f 221/14/1 222/15/1 223/11/1 224/10/1
f 225/15/1 226/16/1 227/12/1 228/11/1
f 229/13/1 230/14/1 231/10/1 232/9/1
f 233/14/1 234/15/1 235/11/1 236/10/1
f 237/15/1 238/16/1 239/12/1 240/11/1
f 241/17/1 242/18/1 243/14/1 244/13/1
f 245/18/1 246/19/1 247/15/1 248/14/1
f 249/19/1 250/20/1 251/16/1 252/15/1
f 253/17/1 254/18/1 255/14/1 256/13/1
f 257/18/1 258/19/1 259/15/1 260/14/1
f 261/19/1 262/20/1 263/16/1 264/15/1
f 265/17/1 266/18/1 267/14/1 268/13/1
f 269/18/1 270/19/1 271/15/1 272/14/1
f 273/19/1 274/20/1 275/16/1 276/15/1
f 277/17/1 278/18/1 279/14/1 280/13/1
f 281/18/1 282/19/1 283/15/1 284/14/1
f 285/19/1 286/20/1 287/16/1 288/15/1

