# Tiled2Unity generated file. Do not modify by hand.
# Wavefront file for 'CoinCollecteMap2_mesh_0051.obj'

# Vertices (Count = 324)
v -9600 -28800 0
v -12800 -28800 0
v -12800 -25600 0
v -9600 -25600 0
v -12800 -28800 0
v -16000 -28800 0
v -16000 -25600 0
v -12800 -25600 0
v -16000 -28800 0
v -19200 -28800 0
v -19200 -25600 0
v -16000 -25600 0
v -19200 -28800 0
v -22400 -28800 0
v -22400 -25600 0
v -19200 -25600 0
v -22400 -28800 0
v -25600 -28800 0
v -25600 -25600 0
v -22400 -25600 0
v -25600 -28800 0
v -28800 -28800 0
v -28800 -25600 0
v -25600 -25600 0
v -28800 -28800 0
v -32000 -28800 0
v -32000 -25600 0
v -28800 -25600 0
v -32000 -28800 0
v -35200 -28800 0
v -35200 -25600 0
v -32000 -25600 0
v -35200 -28800 0
v -38400 -28800 0
v -38400 -25600 0
v -35200 -25600 0
v -70400 -28800 0
v -73600 -28800 0
v -73600 -25600 0
v -70400 -25600 0
v -73600 -28800 0
v -76800 -28800 0
v -76800 -25600 0
v -73600 -25600 0
v -76800 -28800 0
v -80000 -28800 0
v -80000 -25600 0
v -76800 -25600 0
v -96000 -28800 0
v -99200 -28800 0
v -99200 -25600 0
v -96000 -25600 0
v -99200 -28800 0
v -102400 -28800 0
v -102400 -25600 0
v -99200 -25600 0
v -102400 -28800 0
v -105600 -28800 0
v -105600 -25600 0
v -102400 -25600 0
v -105600 -28800 0
v -108800 -28800 0
v -108800 -25600 0
v -105600 -25600 0
v -108800 -28800 0
v -112000 -28800 0
v -112000 -25600 0
v -108800 -25600 0
v -112000 -28800 0
v -115200 -28800 0
v -115200 -25600 0
v -112000 -25600 0
v 0 -32000 0
v -3200 -32000 0
v -3200 -28800 0
v 0 -28800 0
v -3200 -32000 0
v -6400 -32000 0
v -6400 -28800 0
v -3200 -28800 0
v -6400 -32000 0
v -9600 -32000 0
v -9600 -28800 0
v -6400 -28800 0
v -9600 -32000 0
v -12800 -32000 0
v -12800 -28800 0
v -9600 -28800 0
v -12800 -32000 0
v -16000 -32000 0
v -16000 -28800 0
v -12800 -28800 0
v -16000 -32000 0
v -19200 -32000 0
v -19200 -28800 0
v -16000 -28800 0
v -19200 -32000 0
v -22400 -32000 0
v -22400 -28800 0
v -19200 -28800 0
v -22400 -32000 0
v -25600 -32000 0
v -25600 -28800 0
v -22400 -28800 0
v -25600 -32000 0
v -28800 -32000 0
v -28800 -28800 0
v -25600 -28800 0
v -28800 -32000 0
v -32000 -32000 0
v -32000 -28800 0
v -28800 -28800 0
v -32000 -32000 0
v -35200 -32000 0
v -35200 -28800 0
v -32000 -28800 0
v -35200 -32000 0
v -38400 -32000 0
v -38400 -28800 0
v -35200 -28800 0
v -38400 -32000 0
v -41600 -32000 0
v -41600 -28800 0
v -38400 -28800 0
v -41600 -32000 0
v -44800 -32000 0
v -44800 -28800 0
v -41600 -28800 0
v -44800 -32000 0
v -48000 -32000 0
v -48000 -28800 0
v -44800 -28800 0
v -70400 -32000 0
v -73600 -32000 0
v -73600 -28800 0
v -70400 -28800 0
v -73600 -32000 0
v -76800 -32000 0
v -76800 -28800 0
v -73600 -28800 0
v -76800 -32000 0
v -80000 -32000 0
v -80000 -28800 0
v -76800 -28800 0
v -96000 -32000 0
v -99200 -32000 0
v -99200 -28800 0
v -96000 -28800 0
v -99200 -32000 0
v -102400 -32000 0
v -102400 -28800 0
v -99200 -28800 0
v -102400 -32000 0
v -105600 -32000 0
v -105600 -28800 0
v -102400 -28800 0
v -105600 -32000 0
v -108800 -32000 0
v -108800 -28800 0
v -105600 -28800 0
v -108800 -32000 0
v -112000 -32000 0
v -112000 -28800 0
v -108800 -28800 0
v -112000 -32000 0
v -115200 -32000 0
v -115200 -28800 0
v -112000 -28800 0
v -121600 -32000 0
v -124800 -32000 0
v -124800 -28800 0
v -121600 -28800 0
v -124800 -32000 0
v -128000 -32000 0
v -128000 -28800 0
v -124800 -28800 0
v -128000 -32000 0
v -131200 -32000 0
v -131200 -28800 0
v -128000 -28800 0
v 0 -35200 0
v -3200 -35200 0
v -3200 -32000 0
v 0 -32000 0
v -3200 -35200 0
v -6400 -35200 0
v -6400 -32000 0
v -3200 -32000 0
v -6400 -35200 0
v -9600 -35200 0
v -9600 -32000 0
v -6400 -32000 0
v -9600 -35200 0
v -12800 -35200 0
v -12800 -32000 0
v -9600 -32000 0
v -12800 -35200 0
v -16000 -35200 0
v -16000 -32000 0
v -12800 -32000 0
v -16000 -35200 0
v -19200 -35200 0
v -19200 -32000 0
v -16000 -32000 0
v -19200 -35200 0
v -22400 -35200 0
v -22400 -32000 0
v -19200 -32000 0
v -22400 -35200 0
v -25600 -35200 0
v -25600 -32000 0
v -22400 -32000 0
v -25600 -35200 0
v -28800 -35200 0
v -28800 -32000 0
v -25600 -32000 0
v -28800 -35200 0
v -32000 -35200 0
v -32000 -32000 0
v -28800 -32000 0
v -32000 -35200 0
v -35200 -35200 0
v -35200 -32000 0
v -32000 -32000 0
v -35200 -35200 0
v -38400 -35200 0
v -38400 -32000 0
v -35200 -32000 0
v -38400 -35200 0
v -41600 -35200 0
v -41600 -32000 0
v -38400 -32000 0
v -41600 -35200 0
v -44800 -35200 0
v -44800 -32000 0
v -41600 -32000 0
v -44800 -35200 0
v -48000 -35200 0
v -48000 -32000 0
v -44800 -32000 0
v -70400 -35200 0
v -73600 -35200 0
v -73600 -32000 0
v -70400 -32000 0
v -73600 -35200 0
v -76800 -35200 0
v -76800 -32000 0
v -73600 -32000 0
v -76800 -35200 0
v -80000 -35200 0
v -80000 -32000 0
v -76800 -32000 0
v -96000 -35200 0
v -99200 -35200 0
v -99200 -32000 0
v -96000 -32000 0
v -99200 -35200 0
v -102400 -35200 0
v -102400 -32000 0
v -99200 -32000 0
v -102400 -35200 0
v -105600 -35200 0
v -105600 -32000 0
v -102400 -32000 0
v -105600 -35200 0
v -108800 -35200 0
v -108800 -32000 0
v -105600 -32000 0
v -108800 -35200 0
v -112000 -35200 0
v -112000 -32000 0
v -108800 -32000 0
v -112000 -35200 0
v -115200 -35200 0
v -115200 -32000 0
v -112000 -32000 0
v -121600 -35200 0
v -124800 -35200 0
v -124800 -32000 0
v -121600 -32000 0
v -124800 -35200 0
v -128000 -35200 0
v -128000 -32000 0
v -124800 -32000 0
v -128000 -35200 0
v -131200 -35200 0
v -131200 -32000 0
v -128000 -32000 0
v 0 -38400 0
v -3200 -38400 0
v -3200 -35200 0
v 0 -35200 0
v -3200 -38400 0
v -6400 -38400 0
v -6400 -35200 0
v -3200 -35200 0
v -6400 -38400 0
v -9600 -38400 0
v -9600 -35200 0
v -6400 -35200 0
v -38400 -38400 0
v -41600 -38400 0
v -41600 -35200 0
v -38400 -35200 0
v -41600 -38400 0
v -44800 -38400 0
v -44800 -35200 0
v -41600 -35200 0
v -44800 -38400 0
v -48000 -38400 0
v -48000 -35200 0
v -44800 -35200 0
v -121600 -38400 0
v -124800 -38400 0
v -124800 -35200 0
v -121600 -35200 0
v -124800 -38400 0
v -128000 -38400 0
v -128000 -35200 0
v -124800 -35200 0
v -128000 -38400 0
v -131200 -38400 0
v -131200 -35200 0
v -128000 -35200 0

# Texture cooridinates (Count = 28)
vt 0 0.8571429
vt 0.1666667 0.8571429
vt 0.1666667 1
vt 0 1
vt 0.3333333 0.8571429
vt 0.3333333 1
vt 0.5 0.8571429
vt 0.5 1
vt 0 0.4285714
vt 0.1666667 0.4285714
vt 0.1666667 0.5714285
vt 0 0.5714285
vt 0.3333333 0.4285714
vt 0.3333333 0.5714285
vt 0.5 0.4285714
vt 0.5 0.5714285
vt 0 0.7142857
vt 0.1666667 0.7142857
vt 0.3333333 0.7142857
vt 0.5 0.7142857
vt 0 0.2857143
vt 0.1666667 0.2857143
vt 0.3333333 0.2857143
vt 0.5 0.2857143
vt 0 0.1428571
vt 0.1666667 0.1428571
vt 0.3333333 0.1428571
vt 0.5 0.1428571

# Normal
vn 0 0 -1

# Mesh description
g CoinCollecteMap2_mesh_0051

# Faces
f 1/1/1 2/2/1 3/3/1 4/4/1
f 5/2/1 6/5/1 7/6/1 8/3/1
f 9/5/1 10/7/1 11/8/1 12/6/1
f 13/9/1 14/10/1 15/11/1 16/12/1
f 17/10/1 18/13/1 19/14/1 20/11/1
f 21/13/1 22/15/1 23/16/1 24/14/1
f 25/9/1 26/10/1 27/11/1 28/12/1
f 29/10/1 30/13/1 31/14/1 32/11/1
f 33/13/1 34/15/1 35/16/1 36/14/1
f 37/9/1 38/10/1 39/11/1 40/12/1
f 41/10/1 42/13/1 43/14/1 44/11/1
f 45/13/1 46/15/1 47/16/1 48/14/1
f 49/9/1 50/10/1 51/11/1 52/12/1
f 53/10/1 54/13/1 55/14/1 56/11/1
f 57/13/1 58/15/1 59/16/1 60/14/1
f 61/9/1 62/10/1 63/11/1 64/12/1
f 65/10/1 66/13/1 67/14/1 68/11/1
f 69/13/1 70/15/1 71/16/1 72/14/1
f 73/1/1 74/2/1 75/3/1 76/4/1
f 77/2/1 78/5/1 79/6/1 80/3/1
f 81/5/1 82/7/1 83/8/1 84/6/1
f 85/17/1 86/18/1 87/2/1 88/1/1
f 89/18/1 90/19/1 91/5/1 92/2/1
f 93/19/1 94/20/1 95/7/1 96/5/1
f 97/21/1 98/22/1 99/10/1 100/9/1
f 101/22/1 102/23/1 103/13/1 104/10/1
f 105/23/1 106/24/1 107/15/1 108/13/1
f 109/21/1 110/22/1 111/10/1 112/9/1
f 113/22/1 114/23/1 115/13/1 116/10/1
f 117/23/1 118/24/1 119/15/1 120/13/1
f 121/1/1 122/2/1 123/3/1 124/4/1
f 125/2/1 126/5/1 127/6/1 128/3/1
f 129/5/1 130/7/1 131/8/1 132/6/1
f 133/21/1 134/22/1 135/10/1 136/9/1
f 137/22/1 138/23/1 139/13/1 140/10/1
f 141/23/1 142/24/1 143/15/1 144/13/1
f 145/21/1 146/22/1 147/10/1 148/9/1
f 149/22/1 150/23/1 151/13/1 152/10/1
f 153/23/1 154/24/1 155/15/1 156/13/1
f 157/21/1 158/22/1 159/10/1 160/9/1
f 161/22/1 162/23/1 163/13/1 164/10/1
f 165/23/1 166/24/1 167/15/1 168/13/1
f 169/9/1 170/10/1 171/11/1 172/12/1
f 173/10/1 174/13/1 175/14/1 176/11/1
f 177/13/1 178/15/1 179/16/1 180/14/1
f 181/17/1 182/18/1 183/2/1 184/1/1
f 185/18/1 186/19/1 187/5/1 188/2/1
f 189/19/1 190/20/1 191/7/1 192/5/1
f 193/12/1 194/11/1 195/18/1 196/17/1
f 197/11/1 198/14/1 199/19/1 200/18/1
f 201/14/1 202/16/1 203/20/1 204/19/1
f 205/25/1 206/26/1 207/22/1 208/21/1
f 209/26/1 210/27/1 211/23/1 212/22/1
f 213/27/1 214/28/1 215/24/1 216/23/1
f 217/25/1 218/26/1 219/22/1 220/21/1
f 221/26/1 222/27/1 223/23/1 224/22/1
f 225/27/1 226/28/1 227/24/1 228/23/1
f 229/17/1 230/18/1 231/2/1 232/1/1
f 233/18/1 234/19/1 235/5/1 236/2/1
f 237/19/1 238/20/1 239/7/1 240/5/1
f 241/25/1 242/26/1 243/22/1 244/21/1
f 245/26/1 246/27/1 247/23/1 248/22/1
f 249/27/1 250/28/1 251/24/1 252/23/1
f 253/25/1 254/26/1 255/22/1 256/21/1
f 257/26/1 258/27/1 259/23/1 260/22/1
f 261/27/1 262/28/1 263/24/1 264/23/1
f 265/25/1 266/26/1 267/22/1 268/21/1
f 269/26/1 270/27/1 271/23/1 272/22/1
f 273/27/1 274/28/1 275/24/1 276/23/1
f 277/21/1 278/22/1 279/10/1 280/9/1
f 281/22/1 282/23/1 283/13/1 284/10/1
f 285/23/1 286/24/1 287/15/1 288/13/1
f 289/12/1 290/11/1 291/18/1 292/17/1
f 293/11/1 294/14/1 295/19/1 296/18/1
f 297/14/1 298/16/1 299/20/1 300/19/1
f 301/12/1 302/11/1 303/18/1 304/17/1
f 305/11/1 306/14/1 307/19/1 308/18/1
f 309/14/1 310/16/1 311/20/1 312/19/1
f 313/25/1 314/26/1 315/22/1 316/21/1
f 317/26/1 318/27/1 319/23/1 320/22/1
f 321/27/1 322/28/1 323/24/1 324/23/1

