# Tiled2Unity generated file. Do not modify by hand.
# Wavefront file for 'CoinCollecteMap2_mesh_0171.obj'

# Vertices (Count = 36)
v -83200 -54400 0
v -86400 -54400 0
v -86400 -51200 0
v -83200 -51200 0
v -86400 -54400 0
v -89600 -54400 0
v -89600 -51200 0
v -86400 -51200 0
v -89600 -54400 0
v -92800 -54400 0
v -92800 -51200 0
v -89600 -51200 0
v -83200 -57600 0
v -86400 -57600 0
v -86400 -54400 0
v -83200 -54400 0
v -86400 -57600 0
v -89600 -57600 0
v -89600 -54400 0
v -86400 -54400 0
v -89600 -57600 0
v -92800 -57600 0
v -92800 -54400 0
v -89600 -54400 0
v -83200 -60800 0
v -86400 -60800 0
v -86400 -57600 0
v -83200 -57600 0
v -86400 -60800 0
v -89600 -60800 0
v -89600 -57600 0
v -86400 -57600 0
v -89600 -60800 0
v -92800 -60800 0
v -92800 -57600 0
v -89600 -57600 0

# Texture cooridinates (Count = 16)
vt 0 0.4285714
vt 0.1666667 0.4285714
vt 0.1666667 0.5714285
vt 0 0.5714285
vt 0.3333333 0.4285714
vt 0.3333333 0.5714285
vt 0.5 0.4285714
vt 0.5 0.5714285
vt 0 0.2857143
vt 0.1666667 0.2857143
vt 0.3333333 0.2857143
vt 0.5 0.2857143
vt 0 0.1428571
vt 0.1666667 0.1428571
vt 0.3333333 0.1428571
vt 0.5 0.1428571

# Normal
vn 0 0 -1

# Mesh description
g CoinCollecteMap2_mesh_0171

# Faces
f 1/1/1 2/2/1 3/3/1 4/4/1
f 5/2/1 6/5/1 7/6/1 8/3/1
f 9/5/1 10/7/1 11/8/1 12/6/1
f 13/9/1 14/10/1 15/2/1 16/1/1
f 17/10/1 18/11/1 19/5/1 20/2/1
f 21/11/1 22/12/1 23/7/1 24/5/1
f 25/13/1 26/14/1 27/10/1 28/9/1
f 29/14/1 30/15/1 31/11/1 32/10/1
f 33/15/1 34/16/1 35/12/1 36/11/1

