# Tiled2Unity generated file. Do not modify by hand.
# Wavefront file for 'CoinCollecteMap2_mesh_0057.obj'

# Vertices (Count = 144)
v -124800 -76800 0
v -128000 -76800 0
v -128000 -73600 0
v -124800 -73600 0
v -128000 -76800 0
v -131200 -76800 0
v -131200 -73600 0
v -128000 -73600 0
v -131200 -76800 0
v -134400 -76800 0
v -134400 -73600 0
v -131200 -73600 0
v -9600 -80000 0
v -12800 -80000 0
v -12800 -76800 0
v -9600 -76800 0
v -12800 -80000 0
v -16000 -80000 0
v -16000 -76800 0
v -12800 -76800 0
v -16000 -80000 0
v -19200 -80000 0
v -19200 -76800 0
v -16000 -76800 0
v -124800 -80000 0
v -128000 -80000 0
v -128000 -76800 0
v -124800 -76800 0
v -128000 -80000 0
v -131200 -80000 0
v -131200 -76800 0
v -128000 -76800 0
v -131200 -80000 0
v -134400 -80000 0
v -134400 -76800 0
v -131200 -76800 0
v 0 -83200 0
v -3200 -83200 0
v -3200 -80000 0
v 0 -80000 0
v -3200 -83200 0
v -6400 -83200 0
v -6400 -80000 0
v -3200 -80000 0
v -6400 -83200 0
v -9600 -83200 0
v -9600 -80000 0
v -6400 -80000 0
v -9600 -83200 0
v -12800 -83200 0
v -12800 -80000 0
v -9600 -80000 0
v -12800 -83200 0
v -16000 -83200 0
v -16000 -80000 0
v -12800 -80000 0
v -16000 -83200 0
v -19200 -83200 0
v -19200 -80000 0
v -16000 -80000 0
v -124800 -83200 0
v -128000 -83200 0
v -128000 -80000 0
v -124800 -80000 0
v -128000 -83200 0
v -131200 -83200 0
v -131200 -80000 0
v -128000 -80000 0
v -131200 -83200 0
v -134400 -83200 0
v -134400 -80000 0
v -131200 -80000 0
v 0 -86400 0
v -3200 -86400 0
v -3200 -83200 0
v 0 -83200 0
v -3200 -86400 0
v -6400 -86400 0
v -6400 -83200 0
v -3200 -83200 0
v -6400 -86400 0
v -9600 -86400 0
v -9600 -83200 0
v -6400 -83200 0
v -9600 -86400 0
v -12800 -86400 0
v -12800 -83200 0
v -9600 -83200 0
v -12800 -86400 0
v -16000 -86400 0
v -16000 -83200 0
v -12800 -83200 0
v -16000 -86400 0
v -19200 -86400 0
v -19200 -83200 0
v -16000 -83200 0
v -124800 -86400 0
v -128000 -86400 0
v -128000 -83200 0
v -124800 -83200 0
v -128000 -86400 0
v -131200 -86400 0
v -131200 -83200 0
v -128000 -83200 0
v -131200 -86400 0
v -134400 -86400 0
v -134400 -83200 0
v -131200 -83200 0
v 0 -89600 0
v -3200 -89600 0
v -3200 -86400 0
v 0 -86400 0
v -3200 -89600 0
v -6400 -89600 0
v -6400 -86400 0
v -3200 -86400 0
v -6400 -89600 0
v -9600 -89600 0
v -9600 -86400 0
v -6400 -86400 0
v -9600 -89600 0
v -12800 -89600 0
v -12800 -86400 0
v -9600 -86400 0
v -12800 -89600 0
v -16000 -89600 0
v -16000 -86400 0
v -12800 -86400 0
v -16000 -89600 0
v -19200 -89600 0
v -19200 -86400 0
v -16000 -86400 0
v 0 -92800 0
v -3200 -92800 0
v -3200 -89600 0
v 0 -89600 0
v -3200 -92800 0
v -6400 -92800 0
v -6400 -89600 0
v -3200 -89600 0
v -6400 -92800 0
v -9600 -92800 0
v -9600 -89600 0
v -6400 -89600 0

# Texture cooridinates (Count = 20)
vt 0.5 0.4285714
vt 0.6666667 0.4285714
vt 0.6666667 0.5714285
vt 0.5 0.5714285
vt 0.8333333 0.4285714
vt 0.8333333 0.5714285
vt 1 0.4285714
vt 1 0.5714285
vt 0.5 0.2857143
vt 0.6666667 0.2857143
vt 0.8333333 0.2857143
vt 1 0.2857143
vt 0.5 0.1428571
vt 0.6666667 0.1428571
vt 0.8333333 0.1428571
vt 1 0.1428571
vt 0.5 0
vt 0.6666667 0
vt 0.8333333 0
vt 1 0

# Normal
vn 0 0 -1

# Mesh description
g CoinCollecteMap2_mesh_0057

# Faces
f 1/1/1 2/2/1 3/3/1 4/4/1
f 5/2/1 6/5/1 7/6/1 8/3/1
f 9/5/1 10/7/1 11/8/1 12/6/1
f 13/1/1 14/2/1 15/3/1 16/4/1
f 17/2/1 18/5/1 19/6/1 20/3/1
f 21/5/1 22/7/1 23/8/1 24/6/1
f 25/9/1 26/10/1 27/2/1 28/1/1
f 29/10/1 30/11/1 31/5/1 32/2/1
f 33/11/1 34/12/1 35/7/1 36/5/1
f 37/1/1 38/2/1 39/3/1 40/4/1
f 41/2/1 42/5/1 43/6/1 44/3/1
f 45/5/1 46/7/1 47/8/1 48/6/1
f 49/9/1 50/10/1 51/2/1 52/1/1
f 53/10/1 54/11/1 55/5/1 56/2/1
f 57/11/1 58/12/1 59/7/1 60/5/1
f 61/13/1 62/14/1 63/10/1 64/9/1
f 65/14/1 66/15/1 67/11/1 68/10/1
f 69/15/1 70/16/1 71/12/1 72/11/1
f 73/9/1 74/10/1 75/2/1 76/1/1
f 77/10/1 78/11/1 79/5/1 80/2/1
f 81/11/1 82/12/1 83/7/1 84/5/1
f 85/13/1 86/14/1 87/10/1 88/9/1
f 89/14/1 90/15/1 91/11/1 92/10/1
f 93/15/1 94/16/1 95/12/1 96/11/1
f 97/17/1 98/18/1 99/14/1 100/13/1
f 101/18/1 102/19/1 103/15/1 104/14/1
f 105/19/1 106/20/1 107/16/1 108/15/1
f 109/13/1 110/14/1 111/10/1 112/9/1
f 113/14/1 114/15/1 115/11/1 116/10/1
f 117/15/1 118/16/1 119/12/1 120/11/1
f 121/17/1 122/18/1 123/14/1 124/13/1
f 125/18/1 126/19/1 127/15/1 128/14/1
f 129/19/1 130/20/1 131/16/1 132/15/1
f 133/17/1 134/18/1 135/14/1 136/13/1
f 137/18/1 138/19/1 139/15/1 140/14/1
f 141/19/1 142/20/1 143/16/1 144/15/1

