# Tiled2Unity generated file. Do not modify by hand.
# Wavefront file for 'CoinCollecteMap2_mesh_0007.obj'

# Vertices (Count = 132)
v -121600 -19200 0
v -124800 -19200 0
v -124800 -16000 0
v -121600 -16000 0
v -124800 -19200 0
v -128000 -19200 0
v -128000 -16000 0
v -124800 -16000 0
v -128000 -19200 0
v -131200 -19200 0
v -131200 -16000 0
v -128000 -16000 0
v -121600 -22400 0
v -124800 -22400 0
v -124800 -19200 0
v -121600 -19200 0
v -124800 -22400 0
v -128000 -22400 0
v -128000 -19200 0
v -124800 -19200 0
v -128000 -22400 0
v -131200 -22400 0
v -131200 -19200 0
v -128000 -19200 0
v -121600 -25600 0
v -124800 -25600 0
v -124800 -22400 0
v -121600 -22400 0
v -124800 -25600 0
v -128000 -25600 0
v -128000 -22400 0
v -124800 -22400 0
v -128000 -25600 0
v -131200 -25600 0
v -131200 -22400 0
v -128000 -22400 0
v -9600 -32000 0
v -12800 -32000 0
v -12800 -28800 0
v -9600 -28800 0
v -12800 -32000 0
v -16000 -32000 0
v -16000 -28800 0
v -12800 -28800 0
v -16000 -32000 0
v -19200 -32000 0
v -19200 -28800 0
v -16000 -28800 0
v -128000 -32000 0
v -131200 -32000 0
v -131200 -28800 0
v -128000 -28800 0
v -131200 -32000 0
v -134400 -32000 0
v -134400 -28800 0
v -131200 -28800 0
v 0 -35200 0
v -3200 -35200 0
v -3200 -32000 0
v 0 -32000 0
v -3200 -35200 0
v -6400 -35200 0
v -6400 -32000 0
v -3200 -32000 0
v -6400 -35200 0
v -9600 -35200 0
v -9600 -32000 0
v -6400 -32000 0
v -9600 -35200 0
v -12800 -35200 0
v -12800 -32000 0
v -9600 -32000 0
v -12800 -35200 0
v -16000 -35200 0
v -16000 -32000 0
v -12800 -32000 0
v -16000 -35200 0
v -19200 -35200 0
v -19200 -32000 0
v -16000 -32000 0
v -128000 -35200 0
v -131200 -35200 0
v -131200 -32000 0
v -128000 -32000 0
v -131200 -35200 0
v -134400 -35200 0
v -134400 -32000 0
v -131200 -32000 0
v 0 -38400 0
v -3200 -38400 0
v -3200 -35200 0
v 0 -35200 0
v -3200 -38400 0
v -6400 -38400 0
v -6400 -35200 0
v -3200 -35200 0
v -6400 -38400 0
v -9600 -38400 0
v -9600 -35200 0
v -6400 -35200 0
v -9600 -38400 0
v -12800 -38400 0
v -12800 -35200 0
v -9600 -35200 0
v -12800 -38400 0
v -16000 -38400 0
v -16000 -35200 0
v -12800 -35200 0
v -16000 -38400 0
v -19200 -38400 0
v -19200 -35200 0
v -16000 -35200 0
v -128000 -38400 0
v -131200 -38400 0
v -131200 -35200 0
v -128000 -35200 0
v -131200 -38400 0
v -134400 -38400 0
v -134400 -35200 0
v -131200 -35200 0
v 0 -41600 0
v -3200 -41600 0
v -3200 -38400 0
v 0 -38400 0
v -3200 -41600 0
v -6400 -41600 0
v -6400 -38400 0
v -3200 -38400 0
v -6400 -41600 0
v -9600 -41600 0
v -9600 -38400 0
v -6400 -38400 0

# Texture cooridinates (Count = 16)
vt 0 0.6666666
vt 0.1666667 0.6666666
vt 0.1666667 1
vt 0 1
vt 0.3333333 0.6666666
vt 0.3333333 1
vt 0.5 0.6666666
vt 0.5 1
vt 0 0.3333333
vt 0.1666667 0.3333333
vt 0.3333333 0.3333333
vt 0.5 0.3333333
vt 0 0
vt 0.1666667 0
vt 0.3333333 0
vt 0.5 0

# Normal
vn 0 0 -1

# Mesh description
g CoinCollecteMap2_mesh_0007

# Faces
f 1/1/1 2/2/1 3/3/1 4/4/1
f 5/2/1 6/5/1 7/6/1 8/3/1
f 9/5/1 10/7/1 11/8/1 12/6/1
f 13/9/1 14/10/1 15/2/1 16/1/1
f 17/10/1 18/11/1 19/5/1 20/2/1
f 21/11/1 22/12/1 23/7/1 24/5/1
f 25/13/1 26/14/1 27/10/1 28/9/1
f 29/14/1 30/15/1 31/11/1 32/10/1
f 33/15/1 34/16/1 35/12/1 36/11/1
f 37/1/1 38/2/1 39/3/1 40/4/1
f 41/2/1 42/5/1 43/6/1 44/3/1
f 45/5/1 46/7/1 47/8/1 48/6/1
f 49/1/1 50/2/1 51/3/1 52/4/1
f 53/2/1 54/5/1 55/6/1 56/3/1
f 57/1/1 58/2/1 59/3/1 60/4/1
f 61/2/1 62/5/1 63/6/1 64/3/1
f 65/5/1 66/7/1 67/8/1 68/6/1
f 69/9/1 70/10/1 71/2/1 72/1/1
f 73/10/1 74/11/1 75/5/1 76/2/1
f 77/11/1 78/12/1 79/7/1 80/5/1
f 81/9/1 82/10/1 83/2/1 84/1/1
f 85/10/1 86/11/1 87/5/1 88/2/1
f 89/9/1 90/10/1 91/2/1 92/1/1
f 93/10/1 94/11/1 95/5/1 96/2/1
f 97/11/1 98/12/1 99/7/1 100/5/1
f 101/13/1 102/14/1 103/10/1 104/9/1
f 105/14/1 106/15/1 107/11/1 108/10/1
f 109/15/1 110/16/1 111/12/1 112/11/1
f 113/13/1 114/14/1 115/10/1 116/9/1
f 117/14/1 118/15/1 119/11/1 120/10/1
f 121/13/1 122/14/1 123/10/1 124/9/1
f 125/14/1 126/15/1 127/11/1 128/10/1
f 129/15/1 130/16/1 131/12/1 132/11/1

