# Tiled2Unity generated file. Do not modify by hand.
# Wavefront file for 'CoinCollecteMap2_mesh_0140.obj'

# Vertices (Count = 108)
v -28800 -131200 0
v -32000 -131200 0
v -32000 -128000 0
v -28800 -128000 0
v -32000 -131200 0
v -35200 -131200 0
v -35200 -128000 0
v -32000 -128000 0
v -35200 -131200 0
v -38400 -131200 0
v -38400 -128000 0
v -35200 -128000 0
v -44800 -131200 0
v -48000 -131200 0
v -48000 -128000 0
v -44800 -128000 0
v -48000 -131200 0
v -51200 -131200 0
v -51200 -128000 0
v -48000 -128000 0
v -51200 -131200 0
v -54400 -131200 0
v -54400 -128000 0
v -51200 -128000 0
v -86400 -131200 0
v -89600 -131200 0
v -89600 -128000 0
v -86400 -128000 0
v -89600 -131200 0
v -92800 -131200 0
v -92800 -128000 0
v -89600 -128000 0
v -92800 -131200 0
v -96000 -131200 0
v -96000 -128000 0
v -92800 -128000 0
v -28800 -134400 0
v -32000 -134400 0
v -32000 -131200 0
v -28800 -131200 0
v -32000 -134400 0
v -35200 -134400 0
v -35200 -131200 0
v -32000 -131200 0
v -35200 -134400 0
v -38400 -134400 0
v -38400 -131200 0
v -35200 -131200 0
v -44800 -134400 0
v -48000 -134400 0
v -48000 -131200 0
v -44800 -131200 0
v -48000 -134400 0
v -51200 -134400 0
v -51200 -131200 0
v -48000 -131200 0
v -51200 -134400 0
v -54400 -134400 0
v -54400 -131200 0
v -51200 -131200 0
v -86400 -134400 0
v -89600 -134400 0
v -89600 -131200 0
v -86400 -131200 0
v -89600 -134400 0
v -92800 -134400 0
v -92800 -131200 0
v -89600 -131200 0
v -92800 -134400 0
v -96000 -134400 0
v -96000 -131200 0
v -92800 -131200 0
v -28800 -137600 0
v -32000 -137600 0
v -32000 -134400 0
v -28800 -134400 0
v -32000 -137600 0
v -35200 -137600 0
v -35200 -134400 0
v -32000 -134400 0
v -35200 -137600 0
v -38400 -137600 0
v -38400 -134400 0
v -35200 -134400 0
v -44800 -137600 0
v -48000 -137600 0
v -48000 -134400 0
v -44800 -134400 0
v -48000 -137600 0
v -51200 -137600 0
v -51200 -134400 0
v -48000 -134400 0
v -51200 -137600 0
v -54400 -137600 0
v -54400 -134400 0
v -51200 -134400 0
v -86400 -137600 0
v -89600 -137600 0
v -89600 -134400 0
v -86400 -134400 0
v -89600 -137600 0
v -92800 -137600 0
v -92800 -134400 0
v -89600 -134400 0
v -92800 -137600 0
v -96000 -137600 0
v -96000 -134400 0
v -92800 -134400 0

# Texture cooridinates (Count = 16)
vt 0 0.6666666
vt 0.1666667 0.6666666
vt 0.1666667 1
vt 0 1
vt 0.3333333 0.6666666
vt 0.3333333 1
vt 0.5 0.6666666
vt 0.5 1
vt 0 0.3333333
vt 0.1666667 0.3333333
vt 0.3333333 0.3333333
vt 0.5 0.3333333
vt 0 0
vt 0.1666667 0
vt 0.3333333 0
vt 0.5 0

# Normal
vn 0 0 -1

# Mesh description
g CoinCollecteMap2_mesh_0140

# Faces
f 1/1/1 2/2/1 3/3/1 4/4/1
f 5/2/1 6/5/1 7/6/1 8/3/1
f 9/5/1 10/7/1 11/8/1 12/6/1
f 13/1/1 14/2/1 15/3/1 16/4/1
f 17/2/1 18/5/1 19/6/1 20/3/1
f 21/5/1 22/7/1 23/8/1 24/6/1
f 25/1/1 26/2/1 27/3/1 28/4/1
f 29/2/1 30/5/1 31/6/1 32/3/1
f 33/5/1 34/7/1 35/8/1 36/6/1
f 37/9/1 38/10/1 39/2/1 40/1/1
f 41/10/1 42/11/1 43/5/1 44/2/1
f 45/11/1 46/12/1 47/7/1 48/5/1
f 49/9/1 50/10/1 51/2/1 52/1/1
f 53/10/1 54/11/1 55/5/1 56/2/1
f 57/11/1 58/12/1 59/7/1 60/5/1
f 61/9/1 62/10/1 63/2/1 64/1/1
f 65/10/1 66/11/1 67/5/1 68/2/1
f 69/11/1 70/12/1 71/7/1 72/5/1
f 73/13/1 74/14/1 75/10/1 76/9/1
f 77/14/1 78/15/1 79/11/1 80/10/1
f 81/15/1 82/16/1 83/12/1 84/11/1
f 85/13/1 86/14/1 87/10/1 88/9/1
f 89/14/1 90/15/1 91/11/1 92/10/1
f 93/15/1 94/16/1 95/12/1 96/11/1
f 97/13/1 98/14/1 99/10/1 100/9/1
f 101/14/1 102/15/1 103/11/1 104/10/1
f 105/15/1 106/16/1 107/12/1 108/11/1

