# Tiled2Unity generated file. Do not modify by hand.
# Wavefront file for 'CoinCollecteMap2_mesh_0006.obj'

# Vertices (Count = 132)
v 0 -16000 0
v -3200 -16000 0
v -3200 -12800 0
v 0 -12800 0
v -3200 -16000 0
v -6400 -16000 0
v -6400 -12800 0
v -3200 -12800 0
v -6400 -16000 0
v -9600 -16000 0
v -9600 -12800 0
v -6400 -12800 0
v 0 -19200 0
v -3200 -19200 0
v -3200 -16000 0
v 0 -16000 0
v -3200 -19200 0
v -6400 -19200 0
v -6400 -16000 0
v -3200 -16000 0
v -6400 -19200 0
v -9600 -19200 0
v -9600 -16000 0
v -6400 -16000 0
v -128000 -19200 0
v -131200 -19200 0
v -131200 -16000 0
v -128000 -16000 0
v -131200 -19200 0
v -134400 -19200 0
v -134400 -16000 0
v -131200 -16000 0
v 0 -22400 0
v -3200 -22400 0
v -3200 -19200 0
v 0 -19200 0
v -3200 -22400 0
v -6400 -22400 0
v -6400 -19200 0
v -3200 -19200 0
v -6400 -22400 0
v -9600 -22400 0
v -9600 -19200 0
v -6400 -19200 0
v -128000 -22400 0
v -131200 -22400 0
v -131200 -19200 0
v -128000 -19200 0
v -131200 -22400 0
v -134400 -22400 0
v -134400 -19200 0
v -131200 -19200 0
v -3200 -25600 0
v -6400 -25600 0
v -6400 -22400 0
v -3200 -22400 0
v -6400 -25600 0
v -9600 -25600 0
v -9600 -22400 0
v -6400 -22400 0
v -9600 -25600 0
v -12800 -25600 0
v -12800 -22400 0
v -9600 -22400 0
v -118400 -25600 0
v -121600 -25600 0
v -121600 -22400 0
v -118400 -22400 0
v -121600 -25600 0
v -124800 -25600 0
v -124800 -22400 0
v -121600 -22400 0
v -124800 -25600 0
v -128000 -25600 0
v -128000 -22400 0
v -124800 -22400 0
v -128000 -25600 0
v -131200 -25600 0
v -131200 -22400 0
v -128000 -22400 0
v -131200 -25600 0
v -134400 -25600 0
v -134400 -22400 0
v -131200 -22400 0
v -3200 -28800 0
v -6400 -28800 0
v -6400 -25600 0
v -3200 -25600 0
v -6400 -28800 0
v -9600 -28800 0
v -9600 -25600 0
v -6400 -25600 0
v -9600 -28800 0
v -12800 -28800 0
v -12800 -25600 0
v -9600 -25600 0
v -118400 -28800 0
v -121600 -28800 0
v -121600 -25600 0
v -118400 -25600 0
v -121600 -28800 0
v -124800 -28800 0
v -124800 -25600 0
v -121600 -25600 0
v -124800 -28800 0
v -128000 -28800 0
v -128000 -25600 0
v -124800 -25600 0
v -3200 -32000 0
v -6400 -32000 0
v -6400 -28800 0
v -3200 -28800 0
v -6400 -32000 0
v -9600 -32000 0
v -9600 -28800 0
v -6400 -28800 0
v -9600 -32000 0
v -12800 -32000 0
v -12800 -28800 0
v -9600 -28800 0
v -118400 -32000 0
v -121600 -32000 0
v -121600 -28800 0
v -118400 -28800 0
v -121600 -32000 0
v -124800 -32000 0
v -124800 -28800 0
v -121600 -28800 0
v -124800 -32000 0
v -128000 -32000 0
v -128000 -28800 0
v -124800 -28800 0

# Texture cooridinates (Count = 16)
vt 0.5 0.6666666
vt 0.6666667 0.6666666
vt 0.6666667 1
vt 0.5 1
vt 0.8333333 0.6666666
vt 0.8333333 1
vt 1 0.6666666
vt 1 1
vt 0.5 0.3333333
vt 0.6666667 0.3333333
vt 0.8333333 0.3333333
vt 1 0.3333333
vt 0.5 0
vt 0.6666667 0
vt 0.8333333 0
vt 1 0

# Normal
vn 0 0 -1

# Mesh description
g CoinCollecteMap2_mesh_0006

# Faces
f 1/1/1 2/2/1 3/3/1 4/4/1
f 5/2/1 6/5/1 7/6/1 8/3/1
f 9/5/1 10/7/1 11/8/1 12/6/1
f 13/9/1 14/10/1 15/2/1 16/1/1
f 17/10/1 18/11/1 19/5/1 20/2/1
f 21/11/1 22/12/1 23/7/1 24/5/1
f 25/1/1 26/2/1 27/3/1 28/4/1
f 29/2/1 30/5/1 31/6/1 32/3/1
f 33/13/1 34/14/1 35/10/1 36/9/1
f 37/14/1 38/15/1 39/11/1 40/10/1
f 41/15/1 42/16/1 43/12/1 44/11/1
f 45/9/1 46/10/1 47/2/1 48/1/1
f 49/10/1 50/11/1 51/5/1 52/2/1
f 53/1/1 54/2/1 55/3/1 56/4/1
f 57/2/1 58/5/1 59/6/1 60/3/1
f 61/5/1 62/7/1 63/8/1 64/6/1
f 65/1/1 66/2/1 67/3/1 68/4/1
f 69/2/1 70/5/1 71/6/1 72/3/1
f 73/5/1 74/7/1 75/8/1 76/6/1
f 77/13/1 78/14/1 79/10/1 80/9/1
f 81/14/1 82/15/1 83/11/1 84/10/1
f 85/9/1 86/10/1 87/2/1 88/1/1
f 89/10/1 90/11/1 91/5/1 92/2/1
f 93/11/1 94/12/1 95/7/1 96/5/1
f 97/9/1 98/10/1 99/2/1 100/1/1
f 101/10/1 102/11/1 103/5/1 104/2/1
f 105/11/1 106/12/1 107/7/1 108/5/1
f 109/13/1 110/14/1 111/10/1 112/9/1
f 113/14/1 114/15/1 115/11/1 116/10/1
f 117/15/1 118/16/1 119/12/1 120/11/1
f 121/13/1 122/14/1 123/10/1 124/9/1
f 125/14/1 126/15/1 127/11/1 128/10/1
f 129/15/1 130/16/1 131/12/1 132/11/1

