# Tiled2Unity generated file. Do not modify by hand.
# Wavefront file for 'CoinCollecteMap2_mesh_0071.obj'

# Vertices (Count = 48)
v 0 -137600 0
v -3200 -137600 0
v -3200 -134400 0
v 0 -134400 0
v 0 -140800 0
v -3200 -140800 0
v -3200 -137600 0
v 0 -137600 0
v 0 -144000 0
v -3200 -144000 0
v -3200 -140800 0
v 0 -140800 0
v 0 -147200 0
v -3200 -147200 0
v -3200 -144000 0
v 0 -144000 0
v -128000 -150400 0
v -131200 -150400 0
v -131200 -147200 0
v -128000 -147200 0
v -131200 -150400 0
v -134400 -150400 0
v -134400 -147200 0
v -131200 -147200 0
v -128000 -153600 0
v -131200 -153600 0
v -131200 -150400 0
v -128000 -150400 0
v -131200 -153600 0
v -134400 -153600 0
v -134400 -150400 0
v -131200 -150400 0
v -128000 -156800 0
v -131200 -156800 0
v -131200 -153600 0
v -128000 -153600 0
v -131200 -156800 0
v -134400 -156800 0
v -134400 -153600 0
v -131200 -153600 0
v -128000 -160000 0
v -131200 -160000 0
v -131200 -156800 0
v -128000 -156800 0
v -131200 -160000 0
v -134400 -160000 0
v -134400 -156800 0
v -131200 -156800 0

# Texture cooridinates (Count = 20)
vt 0.8333333 0.4285714
vt 1 0.4285714
vt 1 0.5714285
vt 0.8333333 0.5714285
vt 0.8333333 0.2857143
vt 1 0.2857143
vt 0.8333333 0.1428571
vt 1 0.1428571
vt 0.8333333 0
vt 1 0
vt 0.5 0.4285714
vt 0.6666667 0.4285714
vt 0.6666667 0.5714285
vt 0.5 0.5714285
vt 0.5 0.2857143
vt 0.6666667 0.2857143
vt 0.5 0.1428571
vt 0.6666667 0.1428571
vt 0.5 0
vt 0.6666667 0

# Normal
vn 0 0 -1

# Mesh description
g CoinCollecteMap2_mesh_0071

# Faces
f 1/1/1 2/2/1 3/3/1 4/4/1
f 5/5/1 6/6/1 7/2/1 8/1/1
f 9/7/1 10/8/1 11/6/1 12/5/1
f 13/9/1 14/10/1 15/8/1 16/7/1
f 17/11/1 18/12/1 19/13/1 20/14/1
f 21/12/1 22/1/1 23/4/1 24/13/1
f 25/15/1 26/16/1 27/12/1 28/11/1
f 29/16/1 30/5/1 31/1/1 32/12/1
f 33/17/1 34/18/1 35/16/1 36/15/1
f 37/18/1 38/7/1 39/5/1 40/16/1
f 41/19/1 42/20/1 43/18/1 44/17/1
f 45/20/1 46/9/1 47/7/1 48/18/1

