# Tiled2Unity generated file. Do not modify by hand.
# Wavefront file for 'CoinCollecteMap2_mesh_0114.obj'

# Vertices (Count = 88)
v -9600 -217600 0
v -12800 -217600 0
v -12800 -214400 0
v -9600 -214400 0
v -115200 -220800 0
v -118400 -220800 0
v -118400 -217600 0
v -115200 -217600 0
v -118400 -220800 0
v -121600 -220800 0
v -121600 -217600 0
v -118400 -217600 0
v -121600 -220800 0
v -124800 -220800 0
v -124800 -217600 0
v -121600 -217600 0
v -115200 -224000 0
v -118400 -224000 0
v -118400 -220800 0
v -115200 -220800 0
v -118400 -224000 0
v -121600 -224000 0
v -121600 -220800 0
v -118400 -220800 0
v -121600 -224000 0
v -124800 -224000 0
v -124800 -220800 0
v -121600 -220800 0
v -115200 -227200 0
v -118400 -227200 0
v -118400 -224000 0
v -115200 -224000 0
v -118400 -227200 0
v -121600 -227200 0
v -121600 -224000 0
v -118400 -224000 0
v -121600 -227200 0
v -124800 -227200 0
v -124800 -224000 0
v -121600 -224000 0
v -12800 -230400 0
v -16000 -230400 0
v -16000 -227200 0
v -12800 -227200 0
v -16000 -230400 0
v -19200 -230400 0
v -19200 -227200 0
v -16000 -227200 0
v -19200 -230400 0
v -22400 -230400 0
v -22400 -227200 0
v -19200 -227200 0
v -115200 -230400 0
v -118400 -230400 0
v -118400 -227200 0
v -115200 -227200 0
v -118400 -230400 0
v -121600 -230400 0
v -121600 -227200 0
v -118400 -227200 0
v -121600 -230400 0
v -124800 -230400 0
v -124800 -227200 0
v -121600 -227200 0
v -12800 -233600 0
v -16000 -233600 0
v -16000 -230400 0
v -12800 -230400 0
v -16000 -233600 0
v -19200 -233600 0
v -19200 -230400 0
v -16000 -230400 0
v -19200 -233600 0
v -22400 -233600 0
v -22400 -230400 0
v -19200 -230400 0
v -12800 -236800 0
v -16000 -236800 0
v -16000 -233600 0
v -12800 -233600 0
v -16000 -236800 0
v -19200 -236800 0
v -19200 -233600 0
v -16000 -233600 0
v -19200 -236800 0
v -22400 -236800 0
v -22400 -233600 0
v -19200 -233600 0

# Texture cooridinates (Count = 20)
vt 0.5 0.4285714
vt 0.6666667 0.4285714
vt 0.6666667 0.5714285
vt 0.5 0.5714285
vt 0.8333333 0.4285714
vt 0.8333333 0.5714285
vt 1 0.4285714
vt 1 0.5714285
vt 0.5 0.2857143
vt 0.6666667 0.2857143
vt 0.8333333 0.2857143
vt 1 0.2857143
vt 0.5 0.1428571
vt 0.6666667 0.1428571
vt 0.8333333 0.1428571
vt 1 0.1428571
vt 0.5 0
vt 0.6666667 0
vt 0.8333333 0
vt 1 0

# Normal
vn 0 0 -1

# Mesh description
g CoinCollecteMap2_mesh_0114

# Faces
f 1/1/1 2/2/1 3/3/1 4/4/1
f 5/1/1 6/2/1 7/3/1 8/4/1
f 9/2/1 10/5/1 11/6/1 12/3/1
f 13/5/1 14/7/1 15/8/1 16/6/1
f 17/9/1 18/10/1 19/2/1 20/1/1
f 21/10/1 22/11/1 23/5/1 24/2/1
f 25/11/1 26/12/1 27/7/1 28/5/1
f 29/13/1 30/14/1 31/10/1 32/9/1
f 33/14/1 34/15/1 35/11/1 36/10/1
f 37/15/1 38/16/1 39/12/1 40/11/1
f 41/9/1 42/10/1 43/2/1 44/1/1
f 45/10/1 46/11/1 47/5/1 48/2/1
f 49/11/1 50/12/1 51/7/1 52/5/1
f 53/17/1 54/18/1 55/14/1 56/13/1
f 57/18/1 58/19/1 59/15/1 60/14/1
f 61/19/1 62/20/1 63/16/1 64/15/1
f 65/13/1 66/14/1 67/10/1 68/9/1
f 69/14/1 70/15/1 71/11/1 72/10/1
f 73/15/1 74/16/1 75/12/1 76/11/1
f 77/17/1 78/18/1 79/14/1 80/13/1
f 81/18/1 82/19/1 83/15/1 84/14/1
f 85/19/1 86/20/1 87/16/1 88/15/1

