# Tiled2Unity generated file. Do not modify by hand.
# Wavefront file for 'CoinCollecteMap2_mesh_0031.obj'

# Vertices (Count = 60)
v -118400 -179200 0
v -121600 -179200 0
v -121600 -176000 0
v -118400 -176000 0
v -121600 -179200 0
v -124800 -179200 0
v -124800 -176000 0
v -121600 -176000 0
v -124800 -179200 0
v -128000 -179200 0
v -128000 -176000 0
v -124800 -176000 0
v -128000 -179200 0
v -131200 -179200 0
v -131200 -176000 0
v -128000 -176000 0
v -131200 -179200 0
v -134400 -179200 0
v -134400 -176000 0
v -131200 -176000 0
v -118400 -182400 0
v -121600 -182400 0
v -121600 -179200 0
v -118400 -179200 0
v -121600 -182400 0
v -124800 -182400 0
v -124800 -179200 0
v -121600 -179200 0
v -124800 -182400 0
v -128000 -182400 0
v -128000 -179200 0
v -124800 -179200 0
v -128000 -182400 0
v -131200 -182400 0
v -131200 -179200 0
v -128000 -179200 0
v -131200 -182400 0
v -134400 -182400 0
v -134400 -179200 0
v -131200 -179200 0
v -118400 -185600 0
v -121600 -185600 0
v -121600 -182400 0
v -118400 -182400 0
v -121600 -185600 0
v -124800 -185600 0
v -124800 -182400 0
v -121600 -182400 0
v -124800 -185600 0
v -128000 -185600 0
v -128000 -182400 0
v -124800 -182400 0
v -128000 -185600 0
v -131200 -185600 0
v -131200 -182400 0
v -128000 -182400 0
v -131200 -185600 0
v -134400 -185600 0
v -134400 -182400 0
v -131200 -182400 0

# Texture cooridinates (Count = 16)
vt 0 0.6666666
vt 0.1666667 0.6666666
vt 0.1666667 1
vt 0 1
vt 0.3333333 0.6666666
vt 0.3333333 1
vt 0.5 0.6666666
vt 0.5 1
vt 0 0.3333333
vt 0.1666667 0.3333333
vt 0.3333333 0.3333333
vt 0.5 0.3333333
vt 0 0
vt 0.1666667 0
vt 0.3333333 0
vt 0.5 0

# Normal
vn 0 0 -1

# Mesh description
g CoinCollecteMap2_mesh_0031

# Faces
f 1/1/1 2/2/1 3/3/1 4/4/1
f 5/2/1 6/5/1 7/6/1 8/3/1
f 9/5/1 10/7/1 11/8/1 12/6/1
f 13/1/1 14/2/1 15/3/1 16/4/1
f 17/2/1 18/5/1 19/6/1 20/3/1
f 21/9/1 22/10/1 23/2/1 24/1/1
f 25/10/1 26/11/1 27/5/1 28/2/1
f 29/11/1 30/12/1 31/7/1 32/5/1
f 33/9/1 34/10/1 35/2/1 36/1/1
f 37/10/1 38/11/1 39/5/1 40/2/1
f 41/13/1 42/14/1 43/10/1 44/9/1
f 45/14/1 46/15/1 47/11/1 48/10/1
f 49/15/1 50/16/1 51/12/1 52/11/1
f 53/13/1 54/14/1 55/10/1 56/9/1
f 57/14/1 58/15/1 59/11/1 60/10/1

