# Tiled2Unity generated file. Do not modify by hand.
# Wavefront file for 'CoinCollecteMap2_mesh_0010.obj'

# Vertices (Count = 144)
v -64000 -28800 0
v -67200 -28800 0
v -67200 -25600 0
v -64000 -25600 0
v -67200 -28800 0
v -70400 -28800 0
v -70400 -25600 0
v -67200 -25600 0
v -70400 -28800 0
v -73600 -28800 0
v -73600 -25600 0
v -70400 -25600 0
v -64000 -32000 0
v -67200 -32000 0
v -67200 -28800 0
v -64000 -28800 0
v -67200 -32000 0
v -70400 -32000 0
v -70400 -28800 0
v -67200 -28800 0
v -70400 -32000 0
v -73600 -32000 0
v -73600 -28800 0
v -70400 -28800 0
v -64000 -35200 0
v -67200 -35200 0
v -67200 -32000 0
v -64000 -32000 0
v -67200 -35200 0
v -70400 -35200 0
v -70400 -32000 0
v -67200 -32000 0
v -70400 -35200 0
v -73600 -35200 0
v -73600 -32000 0
v -70400 -32000 0
v -96000 -35200 0
v -99200 -35200 0
v -99200 -32000 0
v -96000 -32000 0
v -99200 -35200 0
v -102400 -35200 0
v -102400 -32000 0
v -99200 -32000 0
v -102400 -35200 0
v -105600 -35200 0
v -105600 -32000 0
v -102400 -32000 0
v -96000 -38400 0
v -99200 -38400 0
v -99200 -35200 0
v -96000 -35200 0
v -99200 -38400 0
v -102400 -38400 0
v -102400 -35200 0
v -99200 -35200 0
v -102400 -38400 0
v -105600 -38400 0
v -105600 -35200 0
v -102400 -35200 0
v -108800 -38400 0
v -112000 -38400 0
v -112000 -35200 0
v -108800 -35200 0
v -112000 -38400 0
v -115200 -38400 0
v -115200 -35200 0
v -112000 -35200 0
v -115200 -38400 0
v -118400 -38400 0
v -118400 -35200 0
v -115200 -35200 0
v -41600 -41600 0
v -44800 -41600 0
v -44800 -38400 0
v -41600 -38400 0
v -44800 -41600 0
v -48000 -41600 0
v -48000 -38400 0
v -44800 -38400 0
v -48000 -41600 0
v -51200 -41600 0
v -51200 -38400 0
v -48000 -38400 0
v -96000 -41600 0
v -99200 -41600 0
v -99200 -38400 0
v -96000 -38400 0
v -99200 -41600 0
v -102400 -41600 0
v -102400 -38400 0
v -99200 -38400 0
v -102400 -41600 0
v -105600 -41600 0
v -105600 -38400 0
v -102400 -38400 0
v -108800 -41600 0
v -112000 -41600 0
v -112000 -38400 0
v -108800 -38400 0
v -112000 -41600 0
v -115200 -41600 0
v -115200 -38400 0
v -112000 -38400 0
v -115200 -41600 0
v -118400 -41600 0
v -118400 -38400 0
v -115200 -38400 0
v -41600 -44800 0
v -44800 -44800 0
v -44800 -41600 0
v -41600 -41600 0
v -44800 -44800 0
v -48000 -44800 0
v -48000 -41600 0
v -44800 -41600 0
v -48000 -44800 0
v -51200 -44800 0
v -51200 -41600 0
v -48000 -41600 0
v -108800 -44800 0
v -112000 -44800 0
v -112000 -41600 0
v -108800 -41600 0
v -112000 -44800 0
v -115200 -44800 0
v -115200 -41600 0
v -112000 -41600 0
v -115200 -44800 0
v -118400 -44800 0
v -118400 -41600 0
v -115200 -41600 0
v -41600 -48000 0
v -44800 -48000 0
v -44800 -44800 0
v -41600 -44800 0
v -44800 -48000 0
v -48000 -48000 0
v -48000 -44800 0
v -44800 -44800 0
v -48000 -48000 0
v -51200 -48000 0
v -51200 -44800 0
v -48000 -44800 0

# Texture cooridinates (Count = 16)
vt 0.5 0.6666666
vt 0.6666667 0.6666666
vt 0.6666667 1
vt 0.5 1
vt 0.8333333 0.6666666
vt 0.8333333 1
vt 1 0.6666666
vt 1 1
vt 0.5 0.3333333
vt 0.6666667 0.3333333
vt 0.8333333 0.3333333
vt 1 0.3333333
vt 0.5 0
vt 0.6666667 0
vt 0.8333333 0
vt 1 0

# Normal
vn 0 0 -1

# Mesh description
g CoinCollecteMap2_mesh_0010

# Faces
f 1/1/1 2/2/1 3/3/1 4/4/1
f 5/2/1 6/5/1 7/6/1 8/3/1
f 9/5/1 10/7/1 11/8/1 12/6/1
f 13/9/1 14/10/1 15/2/1 16/1/1
f 17/10/1 18/11/1 19/5/1 20/2/1
f 21/11/1 22/12/1 23/7/1 24/5/1
f 25/13/1 26/14/1 27/10/1 28/9/1
f 29/14/1 30/15/1 31/11/1 32/10/1
f 33/15/1 34/16/1 35/12/1 36/11/1
f 37/1/1 38/2/1 39/3/1 40/4/1
f 41/2/1 42/5/1 43/6/1 44/3/1
f 45/5/1 46/7/1 47/8/1 48/6/1
f 49/9/1 50/10/1 51/2/1 52/1/1
f 53/10/1 54/11/1 55/5/1 56/2/1
f 57/11/1 58/12/1 59/7/1 60/5/1
f 61/1/1 62/2/1 63/3/1 64/4/1
f 65/2/1 66/5/1 67/6/1 68/3/1
f 69/5/1 70/7/1 71/8/1 72/6/1
f 73/1/1 74/2/1 75/3/1 76/4/1
f 77/2/1 78/5/1 79/6/1 80/3/1
f 81/5/1 82/7/1 83/8/1 84/6/1
f 85/13/1 86/14/1 87/10/1 88/9/1
f 89/14/1 90/15/1 91/11/1 92/10/1
f 93/15/1 94/16/1 95/12/1 96/11/1
f 97/9/1 98/10/1 99/2/1 100/1/1
f 101/10/1 102/11/1 103/5/1 104/2/1
f 105/11/1 106/12/1 107/7/1 108/5/1
f 109/9/1 110/10/1 111/2/1 112/1/1
f 113/10/1 114/11/1 115/5/1 116/2/1
f 117/11/1 118/12/1 119/7/1 120/5/1
f 121/13/1 122/14/1 123/10/1 124/9/1
f 125/14/1 126/15/1 127/11/1 128/10/1
f 129/15/1 130/16/1 131/12/1 132/11/1
f 133/13/1 134/14/1 135/10/1 136/9/1
f 137/14/1 138/15/1 139/11/1 140/10/1
f 141/15/1 142/16/1 143/12/1 144/11/1

