# Tiled2Unity generated file. Do not modify by hand.
# Wavefront file for 'CoinCollecteMap2_mesh_0147.obj'

# Vertices (Count = 172)
v -38400 -140800 0
v -41600 -140800 0
v -41600 -137600 0
v -38400 -137600 0
v -41600 -140800 0
v -44800 -140800 0
v -44800 -137600 0
v -41600 -137600 0
v -44800 -140800 0
v -48000 -140800 0
v -48000 -137600 0
v -44800 -137600 0
v -80000 -140800 0
v -83200 -140800 0
v -83200 -137600 0
v -80000 -137600 0
v -83200 -140800 0
v -86400 -140800 0
v -86400 -137600 0
v -83200 -137600 0
v -86400 -140800 0
v -89600 -140800 0
v -89600 -137600 0
v -86400 -137600 0
v -32000 -144000 0
v -35200 -144000 0
v -35200 -140800 0
v -32000 -140800 0
v -35200 -144000 0
v -38400 -144000 0
v -38400 -140800 0
v -35200 -140800 0
v -38400 -144000 0
v -41600 -144000 0
v -41600 -140800 0
v -38400 -140800 0
v -41600 -144000 0
v -44800 -144000 0
v -44800 -140800 0
v -41600 -140800 0
v -44800 -144000 0
v -48000 -144000 0
v -48000 -140800 0
v -44800 -140800 0
v -48000 -144000 0
v -51200 -144000 0
v -51200 -140800 0
v -48000 -140800 0
v -51200 -144000 0
v -54400 -144000 0
v -54400 -140800 0
v -51200 -140800 0
v -54400 -144000 0
v -57600 -144000 0
v -57600 -140800 0
v -54400 -140800 0
v -80000 -144000 0
v -83200 -144000 0
v -83200 -140800 0
v -80000 -140800 0
v -83200 -144000 0
v -86400 -144000 0
v -86400 -140800 0
v -83200 -140800 0
v -86400 -144000 0
v -89600 -144000 0
v -89600 -140800 0
v -86400 -140800 0
v -92800 -144000 0
v -96000 -144000 0
v -96000 -140800 0
v -92800 -140800 0
v -96000 -144000 0
v -99200 -144000 0
v -99200 -140800 0
v -96000 -140800 0
v -99200 -144000 0
v -102400 -144000 0
v -102400 -140800 0
v -99200 -140800 0
v -32000 -147200 0
v -35200 -147200 0
v -35200 -144000 0
v -32000 -144000 0
v -35200 -147200 0
v -38400 -147200 0
v -38400 -144000 0
v -35200 -144000 0
v -38400 -147200 0
v -41600 -147200 0
v -41600 -144000 0
v -38400 -144000 0
v -41600 -147200 0
v -44800 -147200 0
v -44800 -144000 0
v -41600 -144000 0
v -44800 -147200 0
v -48000 -147200 0
v -48000 -144000 0
v -44800 -144000 0
v -48000 -147200 0
v -51200 -147200 0
v -51200 -144000 0
v -48000 -144000 0
v -51200 -147200 0
v -54400 -147200 0
v -54400 -144000 0
v -51200 -144000 0
v -54400 -147200 0
v -57600 -147200 0
v -57600 -144000 0
v -54400 -144000 0
v -80000 -147200 0
v -83200 -147200 0
v -83200 -144000 0
v -80000 -144000 0
v -83200 -147200 0
v -86400 -147200 0
v -86400 -144000 0
v -83200 -144000 0
v -86400 -147200 0
v -89600 -147200 0
v -89600 -144000 0
v -86400 -144000 0
v -92800 -147200 0
v -96000 -147200 0
v -96000 -144000 0
v -92800 -144000 0
v -96000 -147200 0
v -99200 -147200 0
v -99200 -144000 0
v -96000 -144000 0
v -99200 -147200 0
v -102400 -147200 0
v -102400 -144000 0
v -99200 -144000 0
v -32000 -150400 0
v -35200 -150400 0
v -35200 -147200 0
v -32000 -147200 0
v -35200 -150400 0
v -38400 -150400 0
v -38400 -147200 0
v -35200 -147200 0
v -38400 -150400 0
v -41600 -150400 0
v -41600 -147200 0
v -38400 -147200 0
v -48000 -150400 0
v -51200 -150400 0
v -51200 -147200 0
v -48000 -147200 0
v -51200 -150400 0
v -54400 -150400 0
v -54400 -147200 0
v -51200 -147200 0
v -54400 -150400 0
v -57600 -150400 0
v -57600 -147200 0
v -54400 -147200 0
v -92800 -150400 0
v -96000 -150400 0
v -96000 -147200 0
v -92800 -147200 0
v -96000 -150400 0
v -99200 -150400 0
v -99200 -147200 0
v -96000 -147200 0
v -99200 -150400 0
v -102400 -150400 0
v -102400 -147200 0
v -99200 -147200 0

# Texture cooridinates (Count = 28)
vt 0.5 0.6666666
vt 0.6666667 0.6666666
vt 0.6666667 1
vt 0.5 1
vt 0.8333333 0.6666666
vt 0.8333333 1
vt 1 0.6666666
vt 1 1
vt 0 0.6666666
vt 0.1666667 0.6666666
vt 0.1666667 1
vt 0 1
vt 0.3333333 0.6666666
vt 0.3333333 1
vt 0.5 0.3333333
vt 0.6666667 0.3333333
vt 0.8333333 0.3333333
vt 1 0.3333333
vt 0 0.3333333
vt 0.1666667 0.3333333
vt 0.3333333 0.3333333
vt 0.5 0
vt 0.6666667 0
vt 0.8333333 0
vt 1 0
vt 0 0
vt 0.1666667 0
vt 0.3333333 0

# Normal
vn 0 0 -1

# Mesh description
g CoinCollecteMap2_mesh_0147

# Faces
f 1/1/1 2/2/1 3/3/1 4/4/1
f 5/2/1 6/5/1 7/6/1 8/3/1
f 9/5/1 10/7/1 11/8/1 12/6/1
f 13/9/1 14/10/1 15/11/1 16/12/1
f 17/10/1 18/13/1 19/14/1 20/11/1
f 21/13/1 22/1/1 23/4/1 24/14/1
f 25/9/1 26/10/1 27/11/1 28/12/1
f 29/10/1 30/13/1 31/14/1 32/11/1
f 33/15/1 34/16/1 35/2/1 36/1/1
f 37/16/1 38/17/1 39/5/1 40/2/1
f 41/17/1 42/18/1 43/7/1 44/5/1
f 45/1/1 46/2/1 47/3/1 48/4/1
f 49/2/1 50/5/1 51/6/1 52/3/1
f 53/5/1 54/7/1 55/8/1 56/6/1
f 57/19/1 58/20/1 59/10/1 60/9/1
f 61/20/1 62/21/1 63/13/1 64/10/1
f 65/21/1 66/15/1 67/1/1 68/13/1
f 69/9/1 70/10/1 71/11/1 72/12/1
f 73/10/1 74/13/1 75/14/1 76/11/1
f 77/13/1 78/1/1 79/4/1 80/14/1
f 81/19/1 82/20/1 83/10/1 84/9/1
f 85/20/1 86/21/1 87/13/1 88/10/1
f 89/22/1 90/23/1 91/16/1 92/15/1
f 93/23/1 94/24/1 95/17/1 96/16/1
f 97/24/1 98/25/1 99/18/1 100/17/1
f 101/15/1 102/16/1 103/2/1 104/1/1
f 105/16/1 106/17/1 107/5/1 108/2/1
f 109/17/1 110/18/1 111/7/1 112/5/1
f 113/26/1 114/27/1 115/20/1 116/19/1
f 117/27/1 118/28/1 119/21/1 120/20/1
f 121/28/1 122/22/1 123/15/1 124/21/1
f 125/19/1 126/20/1 127/10/1 128/9/1
f 129/20/1 130/21/1 131/13/1 132/10/1
f 133/21/1 134/15/1 135/1/1 136/13/1
f 137/26/1 138/27/1 139/20/1 140/19/1
f 141/27/1 142/28/1 143/21/1 144/20/1
f 145/28/1 146/22/1 147/15/1 148/21/1
f 149/22/1 150/23/1 151/16/1 152/15/1
f 153/23/1 154/24/1 155/17/1 156/16/1
f 157/24/1 158/25/1 159/18/1 160/17/1
f 161/26/1 162/27/1 163/20/1 164/19/1
f 165/27/1 166/28/1 167/21/1 168/20/1
f 169/28/1 170/22/1 171/15/1 172/21/1

