# Tiled2Unity generated file. Do not modify by hand.
# Wavefront file for 'CoinCollecteMap2_mesh_0189.obj'

# Vertices (Count = 180)
v -28800 -124800 0
v -32000 -124800 0
v -32000 -121600 0
v -28800 -121600 0
v -32000 -124800 0
v -35200 -124800 0
v -35200 -121600 0
v -32000 -121600 0
v -35200 -124800 0
v -38400 -124800 0
v -38400 -121600 0
v -35200 -121600 0
v -28800 -128000 0
v -32000 -128000 0
v -32000 -124800 0
v -28800 -124800 0
v -32000 -128000 0
v -35200 -128000 0
v -35200 -124800 0
v -32000 -124800 0
v -35200 -128000 0
v -38400 -128000 0
v -38400 -124800 0
v -35200 -124800 0
v -38400 -128000 0
v -41600 -128000 0
v -41600 -124800 0
v -38400 -124800 0
v -41600 -128000 0
v -44800 -128000 0
v -44800 -124800 0
v -41600 -124800 0
v -44800 -128000 0
v -48000 -128000 0
v -48000 -124800 0
v -44800 -124800 0
v -48000 -128000 0
v -51200 -128000 0
v -51200 -124800 0
v -48000 -124800 0
v -51200 -128000 0
v -54400 -128000 0
v -54400 -124800 0
v -51200 -124800 0
v -54400 -128000 0
v -57600 -128000 0
v -57600 -124800 0
v -54400 -124800 0
v -80000 -128000 0
v -83200 -128000 0
v -83200 -124800 0
v -80000 -124800 0
v -83200 -128000 0
v -86400 -128000 0
v -86400 -124800 0
v -83200 -124800 0
v -86400 -128000 0
v -89600 -128000 0
v -89600 -124800 0
v -86400 -124800 0
v -28800 -131200 0
v -32000 -131200 0
v -32000 -128000 0
v -28800 -128000 0
v -32000 -131200 0
v -35200 -131200 0
v -35200 -128000 0
v -32000 -128000 0
v -35200 -131200 0
v -38400 -131200 0
v -38400 -128000 0
v -35200 -128000 0
v -38400 -131200 0
v -41600 -131200 0
v -41600 -128000 0
v -38400 -128000 0
v -41600 -131200 0
v -44800 -131200 0
v -44800 -128000 0
v -41600 -128000 0
v -44800 -131200 0
v -48000 -131200 0
v -48000 -128000 0
v -44800 -128000 0
v -48000 -131200 0
v -51200 -131200 0
v -51200 -128000 0
v -48000 -128000 0
v -51200 -131200 0
v -54400 -131200 0
v -54400 -128000 0
v -51200 -128000 0
v -54400 -131200 0
v -57600 -131200 0
v -57600 -128000 0
v -54400 -128000 0
v -80000 -131200 0
v -83200 -131200 0
v -83200 -128000 0
v -80000 -128000 0
v -83200 -131200 0
v -86400 -131200 0
v -86400 -128000 0
v -83200 -128000 0
v -86400 -131200 0
v -89600 -131200 0
v -89600 -128000 0
v -86400 -128000 0
v -92800 -131200 0
v -96000 -131200 0
v -96000 -128000 0
v -92800 -128000 0
v -96000 -131200 0
v -99200 -131200 0
v -99200 -128000 0
v -96000 -128000 0
v -99200 -131200 0
v -102400 -131200 0
v -102400 -128000 0
v -99200 -128000 0
v -38400 -134400 0
v -41600 -134400 0
v -41600 -131200 0
v -38400 -131200 0
v -41600 -134400 0
v -44800 -134400 0
v -44800 -131200 0
v -41600 -131200 0
v -44800 -134400 0
v -48000 -134400 0
v -48000 -131200 0
v -44800 -131200 0
v -48000 -134400 0
v -51200 -134400 0
v -51200 -131200 0
v -48000 -131200 0
v -51200 -134400 0
v -54400 -134400 0
v -54400 -131200 0
v -51200 -131200 0
v -54400 -134400 0
v -57600 -134400 0
v -57600 -131200 0
v -54400 -131200 0
v -80000 -134400 0
v -83200 -134400 0
v -83200 -131200 0
v -80000 -131200 0
v -83200 -134400 0
v -86400 -134400 0
v -86400 -131200 0
v -83200 -131200 0
v -86400 -134400 0
v -89600 -134400 0
v -89600 -131200 0
v -86400 -131200 0
v -92800 -134400 0
v -96000 -134400 0
v -96000 -131200 0
v -92800 -131200 0
v -96000 -134400 0
v -99200 -134400 0
v -99200 -131200 0
v -96000 -131200 0
v -99200 -134400 0
v -102400 -134400 0
v -102400 -131200 0
v -99200 -131200 0
v -92800 -137600 0
v -96000 -137600 0
v -96000 -134400 0
v -92800 -134400 0
v -96000 -137600 0
v -99200 -137600 0
v -99200 -134400 0
v -96000 -134400 0
v -99200 -137600 0
v -102400 -137600 0
v -102400 -134400 0
v -99200 -134400 0

# Texture cooridinates (Count = 31)
vt 0.5 0.8571429
vt 0.6666667 0.8571429
vt 0.6666667 1
vt 0.5 1
vt 0.8333333 0.8571429
vt 0.8333333 1
vt 1 0.8571429
vt 1 1
vt 0.5 0.7142857
vt 0.6666667 0.7142857
vt 0.8333333 0.7142857
vt 1 0.7142857
vt 0 0.4285714
vt 0.1666667 0.4285714
vt 0.1666667 0.5714285
vt 0 0.5714285
vt 0.3333333 0.4285714
vt 0.3333333 0.5714285
vt 0.5 0.4285714
vt 0.5 0.5714285
vt 0.6666667 0.5714285
vt 0.8333333 0.5714285
vt 1 0.5714285
vt 0 0.2857143
vt 0.1666667 0.2857143
vt 0.3333333 0.2857143
vt 0.5 0.2857143
vt 0 0.1428571
vt 0.1666667 0.1428571
vt 0.3333333 0.1428571
vt 0.5 0.1428571

# Normal
vn 0 0 -1

# Mesh description
g CoinCollecteMap2_mesh_0189

# Faces
f 1/1/1 2/2/1 3/3/1 4/4/1
f 5/2/1 6/5/1 7/6/1 8/3/1
f 9/5/1 10/7/1 11/8/1 12/6/1
f 13/9/1 14/10/1 15/2/1 16/1/1
f 17/10/1 18/11/1 19/5/1 20/2/1
f 21/11/1 22/12/1 23/7/1 24/5/1
f 25/1/1 26/2/1 27/3/1 28/4/1
f 29/2/1 30/5/1 31/6/1 32/3/1
f 33/5/1 34/7/1 35/8/1 36/6/1
f 37/13/1 38/14/1 39/15/1 40/16/1
f 41/14/1 42/17/1 43/18/1 44/15/1
f 45/17/1 46/19/1 47/20/1 48/18/1
f 49/13/1 50/14/1 51/15/1 52/16/1
f 53/14/1 54/17/1 55/18/1 56/15/1
f 57/17/1 58/19/1 59/20/1 60/18/1
f 61/20/1 62/21/1 63/10/1 64/9/1
f 65/21/1 66/22/1 67/11/1 68/10/1
f 69/22/1 70/23/1 71/12/1 72/11/1
f 73/9/1 74/10/1 75/2/1 76/1/1
f 77/10/1 78/11/1 79/5/1 80/2/1
f 81/11/1 82/12/1 83/7/1 84/5/1
f 85/24/1 86/25/1 87/14/1 88/13/1
f 89/25/1 90/26/1 91/17/1 92/14/1
f 93/26/1 94/27/1 95/19/1 96/17/1
f 97/24/1 98/25/1 99/14/1 100/13/1
f 101/25/1 102/26/1 103/17/1 104/14/1
f 105/26/1 106/27/1 107/19/1 108/17/1
f 109/13/1 110/14/1 111/15/1 112/16/1
f 113/14/1 114/17/1 115/18/1 116/15/1
f 117/17/1 118/19/1 119/20/1 120/18/1
f 121/20/1 122/21/1 123/10/1 124/9/1
f 125/21/1 126/22/1 127/11/1 128/10/1
f 129/22/1 130/23/1 131/12/1 132/11/1
f 133/28/1 134/29/1 135/25/1 136/24/1
f 137/29/1 138/30/1 139/26/1 140/25/1
f 141/30/1 142/31/1 143/27/1 144/26/1
f 145/28/1 146/29/1 147/25/1 148/24/1
f 149/29/1 150/30/1 151/26/1 152/25/1
f 153/30/1 154/31/1 155/27/1 156/26/1
f 157/24/1 158/25/1 159/14/1 160/13/1
f 161/25/1 162/26/1 163/17/1 164/14/1
f 165/26/1 166/27/1 167/19/1 168/17/1
f 169/28/1 170/29/1 171/25/1 172/24/1
f 173/29/1 174/30/1 175/26/1 176/25/1
f 177/30/1 178/31/1 179/27/1 180/26/1

