# Tiled2Unity generated file. Do not modify by hand.
# Wavefront file for 'CoinCollecteMap2_mesh_0188.obj'

# Vertices (Count = 72)
v -44800 -124800 0
v -48000 -124800 0
v -48000 -121600 0
v -44800 -121600 0
v -48000 -124800 0
v -51200 -124800 0
v -51200 -121600 0
v -48000 -121600 0
v -51200 -124800 0
v -54400 -124800 0
v -54400 -121600 0
v -51200 -121600 0
v -86400 -124800 0
v -89600 -124800 0
v -89600 -121600 0
v -86400 -121600 0
v -89600 -124800 0
v -92800 -124800 0
v -92800 -121600 0
v -89600 -121600 0
v -92800 -124800 0
v -96000 -124800 0
v -96000 -121600 0
v -92800 -121600 0
v -44800 -128000 0
v -48000 -128000 0
v -48000 -124800 0
v -44800 -124800 0
v -48000 -128000 0
v -51200 -128000 0
v -51200 -124800 0
v -48000 -124800 0
v -51200 -128000 0
v -54400 -128000 0
v -54400 -124800 0
v -51200 -124800 0
v -86400 -128000 0
v -89600 -128000 0
v -89600 -124800 0
v -86400 -124800 0
v -89600 -128000 0
v -92800 -128000 0
v -92800 -124800 0
v -89600 -124800 0
v -92800 -128000 0
v -96000 -128000 0
v -96000 -124800 0
v -92800 -124800 0
v -44800 -131200 0
v -48000 -131200 0
v -48000 -128000 0
v -44800 -128000 0
v -48000 -131200 0
v -51200 -131200 0
v -51200 -128000 0
v -48000 -128000 0
v -51200 -131200 0
v -54400 -131200 0
v -54400 -128000 0
v -51200 -128000 0
v -86400 -131200 0
v -89600 -131200 0
v -89600 -128000 0
v -86400 -128000 0
v -89600 -131200 0
v -92800 -131200 0
v -92800 -128000 0
v -89600 -128000 0
v -92800 -131200 0
v -96000 -131200 0
v -96000 -128000 0
v -92800 -128000 0

# Texture cooridinates (Count = 31)
vt 0.5 0.8571429
vt 0.6666667 0.8571429
vt 0.6666667 1
vt 0.5 1
vt 0.8333333 0.8571429
vt 0.8333333 1
vt 1 0.8571429
vt 1 1
vt 0 0.4285714
vt 0.1666667 0.4285714
vt 0.1666667 0.5714285
vt 0 0.5714285
vt 0.3333333 0.4285714
vt 0.3333333 0.5714285
vt 0.5 0.4285714
vt 0.5 0.5714285
vt 0.5 0.7142857
vt 0.6666667 0.7142857
vt 0.8333333 0.7142857
vt 1 0.7142857
vt 0 0.2857143
vt 0.1666667 0.2857143
vt 0.3333333 0.2857143
vt 0.5 0.2857143
vt 0.6666667 0.5714285
vt 0.8333333 0.5714285
vt 1 0.5714285
vt 0 0.1428571
vt 0.1666667 0.1428571
vt 0.3333333 0.1428571
vt 0.5 0.1428571

# Normal
vn 0 0 -1

# Mesh description
g CoinCollecteMap2_mesh_0188

# Faces
f 1/1/1 2/2/1 3/3/1 4/4/1
f 5/2/1 6/5/1 7/6/1 8/3/1
f 9/5/1 10/7/1 11/8/1 12/6/1
f 13/9/1 14/10/1 15/11/1 16/12/1
f 17/10/1 18/13/1 19/14/1 20/11/1
f 21/13/1 22/15/1 23/16/1 24/14/1
f 25/17/1 26/18/1 27/2/1 28/1/1
f 29/18/1 30/19/1 31/5/1 32/2/1
f 33/19/1 34/20/1 35/7/1 36/5/1
f 37/21/1 38/22/1 39/10/1 40/9/1
f 41/22/1 42/23/1 43/13/1 44/10/1
f 45/23/1 46/24/1 47/15/1 48/13/1
f 49/16/1 50/25/1 51/18/1 52/17/1
f 53/25/1 54/26/1 55/19/1 56/18/1
f 57/26/1 58/27/1 59/20/1 60/19/1
f 61/28/1 62/29/1 63/22/1 64/21/1
f 65/29/1 66/30/1 67/23/1 68/22/1
f 69/30/1 70/31/1 71/24/1 72/23/1

