# Tiled2Unity generated file. Do not modify by hand.
# Wavefront file for 'CoinCollecteMap2_mesh_0037.obj'

# Vertices (Count = 96)
v -9600 -204800 0
v -12800 -204800 0
v -12800 -201600 0
v -9600 -201600 0
v -12800 -204800 0
v -16000 -204800 0
v -16000 -201600 0
v -12800 -201600 0
v -16000 -204800 0
v -19200 -204800 0
v -19200 -201600 0
v -16000 -201600 0
v -9600 -208000 0
v -12800 -208000 0
v -12800 -204800 0
v -9600 -204800 0
v -12800 -208000 0
v -16000 -208000 0
v -16000 -204800 0
v -12800 -204800 0
v -16000 -208000 0
v -19200 -208000 0
v -19200 -204800 0
v -16000 -204800 0
v -9600 -211200 0
v -12800 -211200 0
v -12800 -208000 0
v -9600 -208000 0
v -12800 -211200 0
v -16000 -211200 0
v -16000 -208000 0
v -12800 -208000 0
v -16000 -211200 0
v -19200 -211200 0
v -19200 -208000 0
v -16000 -208000 0
v -115200 -211200 0
v -118400 -211200 0
v -118400 -208000 0
v -115200 -208000 0
v -118400 -211200 0
v -121600 -211200 0
v -121600 -208000 0
v -118400 -208000 0
v -121600 -211200 0
v -124800 -211200 0
v -124800 -208000 0
v -121600 -208000 0
v -128000 -211200 0
v -131200 -211200 0
v -131200 -208000 0
v -128000 -208000 0
v -131200 -211200 0
v -134400 -211200 0
v -134400 -208000 0
v -131200 -208000 0
v -115200 -214400 0
v -118400 -214400 0
v -118400 -211200 0
v -115200 -211200 0
v -118400 -214400 0
v -121600 -214400 0
v -121600 -211200 0
v -118400 -211200 0
v -121600 -214400 0
v -124800 -214400 0
v -124800 -211200 0
v -121600 -211200 0
v -128000 -214400 0
v -131200 -214400 0
v -131200 -211200 0
v -128000 -211200 0
v -131200 -214400 0
v -134400 -214400 0
v -134400 -211200 0
v -131200 -211200 0
v -115200 -217600 0
v -118400 -217600 0
v -118400 -214400 0
v -115200 -214400 0
v -118400 -217600 0
v -121600 -217600 0
v -121600 -214400 0
v -118400 -214400 0
v -121600 -217600 0
v -124800 -217600 0
v -124800 -214400 0
v -121600 -214400 0
v -128000 -217600 0
v -131200 -217600 0
v -131200 -214400 0
v -128000 -214400 0
v -131200 -217600 0
v -134400 -217600 0
v -134400 -214400 0
v -131200 -214400 0

# Texture cooridinates (Count = 24)
vt 0 0.6666666
vt 0.1666667 0.6666666
vt 0.1666667 1
vt 0 1
vt 0.3333333 0.6666666
vt 0.3333333 1
vt 0.5 0.6666666
vt 0.5 1
vt 0 0.3333333
vt 0.1666667 0.3333333
vt 0.3333333 0.3333333
vt 0.5 0.3333333
vt 0 0
vt 0.1666667 0
vt 0.3333333 0
vt 0.5 0
vt 0.6666667 0.6666666
vt 0.6666667 1
vt 0.8333333 0.6666666
vt 0.8333333 1
vt 0.6666667 0.3333333
vt 0.8333333 0.3333333
vt 0.6666667 0
vt 0.8333333 0

# Normal
vn 0 0 -1

# Mesh description
g CoinCollecteMap2_mesh_0037

# Faces
f 1/1/1 2/2/1 3/3/1 4/4/1
f 5/2/1 6/5/1 7/6/1 8/3/1
f 9/5/1 10/7/1 11/8/1 12/6/1
f 13/9/1 14/10/1 15/2/1 16/1/1
f 17/10/1 18/11/1 19/5/1 20/2/1
f 21/11/1 22/12/1 23/7/1 24/5/1
f 25/13/1 26/14/1 27/10/1 28/9/1
f 29/14/1 30/15/1 31/11/1 32/10/1
f 33/15/1 34/16/1 35/12/1 36/11/1
f 37/1/1 38/2/1 39/3/1 40/4/1
f 41/2/1 42/5/1 43/6/1 44/3/1
f 45/5/1 46/7/1 47/8/1 48/6/1
f 49/7/1 50/17/1 51/18/1 52/8/1
f 53/17/1 54/19/1 55/20/1 56/18/1
f 57/9/1 58/10/1 59/2/1 60/1/1
f 61/10/1 62/11/1 63/5/1 64/2/1
f 65/11/1 66/12/1 67/7/1 68/5/1
f 69/12/1 70/21/1 71/17/1 72/7/1
f 73/21/1 74/22/1 75/19/1 76/17/1
f 77/13/1 78/14/1 79/10/1 80/9/1
f 81/14/1 82/15/1 83/11/1 84/10/1
f 85/15/1 86/16/1 87/12/1 88/11/1
f 89/16/1 90/23/1 91/21/1 92/12/1
f 93/23/1 94/24/1 95/22/1 96/21/1

