# Tiled2Unity generated file. Do not modify by hand.
# Wavefront file for 'CoinCollecteMap2_mesh_0015.obj'

# Vertices (Count = 108)
v -131200 -60800 0
v -134400 -60800 0
v -134400 -57600 0
v -131200 -57600 0
v 0 -64000 0
v -3200 -64000 0
v -3200 -60800 0
v 0 -60800 0
v -131200 -64000 0
v -134400 -64000 0
v -134400 -60800 0
v -131200 -60800 0
v 0 -67200 0
v -3200 -67200 0
v -3200 -64000 0
v 0 -64000 0
v -131200 -67200 0
v -134400 -67200 0
v -134400 -64000 0
v -131200 -64000 0
v 0 -70400 0
v -3200 -70400 0
v -3200 -67200 0
v 0 -67200 0
v -6400 -70400 0
v -9600 -70400 0
v -9600 -67200 0
v -6400 -67200 0
v -9600 -70400 0
v -12800 -70400 0
v -12800 -67200 0
v -9600 -67200 0
v -12800 -70400 0
v -16000 -70400 0
v -16000 -67200 0
v -12800 -67200 0
v -6400 -73600 0
v -9600 -73600 0
v -9600 -70400 0
v -6400 -70400 0
v -9600 -73600 0
v -12800 -73600 0
v -12800 -70400 0
v -9600 -70400 0
v -12800 -73600 0
v -16000 -73600 0
v -16000 -70400 0
v -12800 -70400 0
v -121600 -73600 0
v -124800 -73600 0
v -124800 -70400 0
v -121600 -70400 0
v -124800 -73600 0
v -128000 -73600 0
v -128000 -70400 0
v -124800 -70400 0
v -128000 -73600 0
v -131200 -73600 0
v -131200 -70400 0
v -128000 -70400 0
v -6400 -76800 0
v -9600 -76800 0
v -9600 -73600 0
v -6400 -73600 0
v -9600 -76800 0
v -12800 -76800 0
v -12800 -73600 0
v -9600 -73600 0
v -12800 -76800 0
v -16000 -76800 0
v -16000 -73600 0
v -12800 -73600 0
v -121600 -76800 0
v -124800 -76800 0
v -124800 -73600 0
v -121600 -73600 0
v -124800 -76800 0
v -128000 -76800 0
v -128000 -73600 0
v -124800 -73600 0
v -128000 -76800 0
v -131200 -76800 0
v -131200 -73600 0
v -128000 -73600 0
v -121600 -80000 0
v -124800 -80000 0
v -124800 -76800 0
v -121600 -76800 0
v -124800 -80000 0
v -128000 -80000 0
v -128000 -76800 0
v -124800 -76800 0
v -128000 -80000 0
v -131200 -80000 0
v -131200 -76800 0
v -128000 -76800 0
v -131200 -80000 0
v -134400 -80000 0
v -134400 -76800 0
v -131200 -76800 0
v -131200 -83200 0
v -134400 -83200 0
v -134400 -80000 0
v -131200 -80000 0
v -131200 -86400 0
v -134400 -86400 0
v -134400 -83200 0
v -131200 -83200 0

# Texture cooridinates (Count = 28)
vt 0.5 0.6666666
vt 0.6666667 0.6666666
vt 0.6666667 1
vt 0.5 1
vt 0.8333333 0.6666666
vt 1 0.6666666
vt 1 1
vt 0.8333333 1
vt 0.5 0.3333333
vt 0.6666667 0.3333333
vt 0.8333333 0.3333333
vt 1 0.3333333
vt 0.5 0
vt 0.6666667 0
vt 0.8333333 0
vt 1 0
vt 0 0.6666666
vt 0.1666667 0.6666666
vt 0.1666667 1
vt 0 1
vt 0.3333333 0.6666666
vt 0.3333333 1
vt 0 0.3333333
vt 0.1666667 0.3333333
vt 0.3333333 0.3333333
vt 0 0
vt 0.1666667 0
vt 0.3333333 0

# Normal
vn 0 0 -1

# Mesh description
g CoinCollecteMap2_mesh_0015

# Faces
f 1/1/1 2/2/1 3/3/1 4/4/1
f 5/5/1 6/6/1 7/7/1 8/8/1
f 9/9/1 10/10/1 11/2/1 12/1/1
f 13/11/1 14/12/1 15/6/1 16/5/1
f 17/13/1 18/14/1 19/10/1 20/9/1
f 21/15/1 22/16/1 23/12/1 24/11/1
f 25/17/1 26/18/1 27/19/1 28/20/1
f 29/18/1 30/21/1 31/22/1 32/19/1
f 33/21/1 34/1/1 35/4/1 36/22/1
f 37/23/1 38/24/1 39/18/1 40/17/1
f 41/24/1 42/25/1 43/21/1 44/18/1
f 45/25/1 46/9/1 47/1/1 48/21/1
f 49/17/1 50/18/1 51/19/1 52/20/1
f 53/18/1 54/21/1 55/22/1 56/19/1
f 57/21/1 58/1/1 59/4/1 60/22/1
f 61/26/1 62/27/1 63/24/1 64/23/1
f 65/27/1 66/28/1 67/25/1 68/24/1
f 69/28/1 70/13/1 71/9/1 72/25/1
f 73/23/1 74/24/1 75/18/1 76/17/1
f 77/24/1 78/25/1 79/21/1 80/18/1
f 81/25/1 82/9/1 83/1/1 84/21/1
f 85/26/1 86/27/1 87/24/1 88/23/1
f 89/27/1 90/28/1 91/25/1 92/24/1
f 93/28/1 94/13/1 95/9/1 96/25/1
f 97/17/1 98/18/1 99/19/1 100/20/1
f 101/23/1 102/24/1 103/18/1 104/17/1
f 105/26/1 106/27/1 107/24/1 108/23/1

