# Tiled2Unity generated file. Do not modify by hand.
# Wavefront file for 'CoinCollecteMap2_mesh_0066.obj'

# Vertices (Count = 108)
v -112000 -124800 0
v -115200 -124800 0
v -115200 -121600 0
v -112000 -121600 0
v -115200 -124800 0
v -118400 -124800 0
v -118400 -121600 0
v -115200 -121600 0
v -118400 -124800 0
v -121600 -124800 0
v -121600 -121600 0
v -118400 -121600 0
v -121600 -124800 0
v -124800 -124800 0
v -124800 -121600 0
v -121600 -121600 0
v -124800 -124800 0
v -128000 -124800 0
v -128000 -121600 0
v -124800 -121600 0
v -128000 -124800 0
v -131200 -124800 0
v -131200 -121600 0
v -128000 -121600 0
v -112000 -128000 0
v -115200 -128000 0
v -115200 -124800 0
v -112000 -124800 0
v -115200 -128000 0
v -118400 -128000 0
v -118400 -124800 0
v -115200 -124800 0
v -118400 -128000 0
v -121600 -128000 0
v -121600 -124800 0
v -118400 -124800 0
v -121600 -128000 0
v -124800 -128000 0
v -124800 -124800 0
v -121600 -124800 0
v -124800 -128000 0
v -128000 -128000 0
v -128000 -124800 0
v -124800 -124800 0
v -128000 -128000 0
v -131200 -128000 0
v -131200 -124800 0
v -128000 -124800 0
v -112000 -131200 0
v -115200 -131200 0
v -115200 -128000 0
v -112000 -128000 0
v -115200 -131200 0
v -118400 -131200 0
v -118400 -128000 0
v -115200 -128000 0
v -118400 -131200 0
v -121600 -131200 0
v -121600 -128000 0
v -118400 -128000 0
v -121600 -131200 0
v -124800 -131200 0
v -124800 -128000 0
v -121600 -128000 0
v -124800 -131200 0
v -128000 -131200 0
v -128000 -128000 0
v -124800 -128000 0
v -128000 -131200 0
v -131200 -131200 0
v -131200 -128000 0
v -128000 -128000 0
v -131200 -131200 0
v -134400 -131200 0
v -134400 -128000 0
v -131200 -128000 0
v -112000 -134400 0
v -115200 -134400 0
v -115200 -131200 0
v -112000 -131200 0
v -115200 -134400 0
v -118400 -134400 0
v -118400 -131200 0
v -115200 -131200 0
v -118400 -134400 0
v -121600 -134400 0
v -121600 -131200 0
v -118400 -131200 0
v -121600 -134400 0
v -124800 -134400 0
v -124800 -131200 0
v -121600 -131200 0
v -124800 -134400 0
v -128000 -134400 0
v -128000 -131200 0
v -124800 -131200 0
v -128000 -134400 0
v -131200 -134400 0
v -131200 -131200 0
v -128000 -131200 0
v -131200 -134400 0
v -134400 -134400 0
v -134400 -131200 0
v -131200 -131200 0
v -131200 -137600 0
v -134400 -137600 0
v -134400 -134400 0
v -131200 -134400 0

# Texture cooridinates (Count = 28)
vt 0.5 0.4285714
vt 0.6666667 0.4285714
vt 0.6666667 0.5714285
vt 0.5 0.5714285
vt 0.8333333 0.4285714
vt 0.8333333 0.5714285
vt 1 0.4285714
vt 1 0.5714285
vt 0.5 0.2857143
vt 0.6666667 0.2857143
vt 0.8333333 0.2857143
vt 1 0.2857143
vt 0.5 0.1428571
vt 0.6666667 0.1428571
vt 0.8333333 0.1428571
vt 1 0.1428571
vt 0 0.8571429
vt 0.1666667 0.8571429
vt 0.1666667 1
vt 0 1
vt 0.5 0
vt 0.6666667 0
vt 0.8333333 0
vt 1 0
vt 0 0.7142857
vt 0.1666667 0.7142857
vt 0 0.5714285
vt 0.1666667 0.5714285

# Normal
vn 0 0 -1

# Mesh description
g CoinCollecteMap2_mesh_0066

# Faces
f 1/1/1 2/2/1 3/3/1 4/4/1
f 5/2/1 6/5/1 7/6/1 8/3/1
f 9/5/1 10/7/1 11/8/1 12/6/1
f 13/1/1 14/2/1 15/3/1 16/4/1
f 17/2/1 18/5/1 19/6/1 20/3/1
f 21/5/1 22/7/1 23/8/1 24/6/1
f 25/9/1 26/10/1 27/2/1 28/1/1
f 29/10/1 30/11/1 31/5/1 32/2/1
f 33/11/1 34/12/1 35/7/1 36/5/1
f 37/9/1 38/10/1 39/2/1 40/1/1
f 41/10/1 42/11/1 43/5/1 44/2/1
f 45/11/1 46/12/1 47/7/1 48/5/1
f 49/13/1 50/14/1 51/10/1 52/9/1
f 53/14/1 54/15/1 55/11/1 56/10/1
f 57/15/1 58/16/1 59/12/1 60/11/1
f 61/13/1 62/14/1 63/10/1 64/9/1
f 65/14/1 66/15/1 67/11/1 68/10/1
f 69/15/1 70/16/1 71/12/1 72/11/1
f 73/17/1 74/18/1 75/19/1 76/20/1
f 77/21/1 78/22/1 79/14/1 80/13/1
f 81/22/1 82/23/1 83/15/1 84/14/1
f 85/23/1 86/24/1 87/16/1 88/15/1
f 89/21/1 90/22/1 91/14/1 92/13/1
f 93/22/1 94/23/1 95/15/1 96/14/1
f 97/23/1 98/24/1 99/16/1 100/15/1
f 101/25/1 102/26/1 103/18/1 104/17/1
f 105/27/1 106/28/1 107/26/1 108/25/1

