# Tiled2Unity generated file. Do not modify by hand.
# Wavefront file for 'CoinCollecteMap2_mesh_0045.obj'

# Vertices (Count = 48)
v 0 -249600 0
v -3200 -249600 0
v -3200 -246400 0
v 0 -246400 0
v -3200 -249600 0
v -6400 -249600 0
v -6400 -246400 0
v -3200 -246400 0
v -6400 -249600 0
v -9600 -249600 0
v -9600 -246400 0
v -6400 -246400 0
v 0 -252800 0
v -3200 -252800 0
v -3200 -249600 0
v 0 -249600 0
v -3200 -252800 0
v -6400 -252800 0
v -6400 -249600 0
v -3200 -249600 0
v -6400 -252800 0
v -9600 -252800 0
v -9600 -249600 0
v -6400 -249600 0
v 0 -256000 0
v -3200 -256000 0
v -3200 -252800 0
v 0 -252800 0
v -3200 -256000 0
v -6400 -256000 0
v -6400 -252800 0
v -3200 -252800 0
v -6400 -256000 0
v -9600 -256000 0
v -9600 -252800 0
v -6400 -252800 0
v -121600 -256000 0
v -124800 -256000 0
v -124800 -252800 0
v -121600 -252800 0
v -124800 -256000 0
v -128000 -256000 0
v -128000 -252800 0
v -124800 -252800 0
v -128000 -256000 0
v -131200 -256000 0
v -131200 -252800 0
v -128000 -252800 0

# Texture cooridinates (Count = 16)
vt 0 0.6666666
vt 0.1666667 0.6666666
vt 0.1666667 1
vt 0 1
vt 0.3333333 0.6666666
vt 0.3333333 1
vt 0.5 0.6666666
vt 0.5 1
vt 0 0.3333333
vt 0.1666667 0.3333333
vt 0.3333333 0.3333333
vt 0.5 0.3333333
vt 0 0
vt 0.1666667 0
vt 0.3333333 0
vt 0.5 0

# Normal
vn 0 0 -1

# Mesh description
g CoinCollecteMap2_mesh_0045

# Faces
f 1/1/1 2/2/1 3/3/1 4/4/1
f 5/2/1 6/5/1 7/6/1 8/3/1
f 9/5/1 10/7/1 11/8/1 12/6/1
f 13/9/1 14/10/1 15/2/1 16/1/1
f 17/10/1 18/11/1 19/5/1 20/2/1
f 21/11/1 22/12/1 23/7/1 24/5/1
f 25/13/1 26/14/1 27/10/1 28/9/1
f 29/14/1 30/15/1 31/11/1 32/10/1
f 33/15/1 34/16/1 35/12/1 36/11/1
f 37/1/1 38/2/1 39/3/1 40/4/1
f 41/2/1 42/5/1 43/6/1 44/3/1
f 45/5/1 46/7/1 47/8/1 48/6/1

