# Tiled2Unity generated file. Do not modify by hand.
# Wavefront file for 'CoinCollecteMap2_mesh_0195.obj'

# Vertices (Count = 72)
v -64000 -153600 0
v -67200 -153600 0
v -67200 -150400 0
v -64000 -150400 0
v -67200 -153600 0
v -70400 -153600 0
v -70400 -150400 0
v -67200 -150400 0
v -70400 -153600 0
v -73600 -153600 0
v -73600 -150400 0
v -70400 -150400 0
v -83200 -153600 0
v -86400 -153600 0
v -86400 -150400 0
v -83200 -150400 0
v -86400 -153600 0
v -89600 -153600 0
v -89600 -150400 0
v -86400 -150400 0
v -89600 -153600 0
v -92800 -153600 0
v -92800 -150400 0
v -89600 -150400 0
v -64000 -156800 0
v -67200 -156800 0
v -67200 -153600 0
v -64000 -153600 0
v -67200 -156800 0
v -70400 -156800 0
v -70400 -153600 0
v -67200 -153600 0
v -70400 -156800 0
v -73600 -156800 0
v -73600 -153600 0
v -70400 -153600 0
v -83200 -156800 0
v -86400 -156800 0
v -86400 -153600 0
v -83200 -153600 0
v -86400 -156800 0
v -89600 -156800 0
v -89600 -153600 0
v -86400 -153600 0
v -89600 -156800 0
v -92800 -156800 0
v -92800 -153600 0
v -89600 -153600 0
v -64000 -160000 0
v -67200 -160000 0
v -67200 -156800 0
v -64000 -156800 0
v -67200 -160000 0
v -70400 -160000 0
v -70400 -156800 0
v -67200 -156800 0
v -70400 -160000 0
v -73600 -160000 0
v -73600 -156800 0
v -70400 -156800 0
v -83200 -160000 0
v -86400 -160000 0
v -86400 -156800 0
v -83200 -156800 0
v -86400 -160000 0
v -89600 -160000 0
v -89600 -156800 0
v -86400 -156800 0
v -89600 -160000 0
v -92800 -160000 0
v -92800 -156800 0
v -89600 -156800 0

# Texture cooridinates (Count = 28)
vt 0 0.8571429
vt 0.1666667 0.8571429
vt 0.1666667 1
vt 0 1
vt 0.3333333 0.8571429
vt 0.3333333 1
vt 0.5 0.8571429
vt 0.5 1
vt 0 0.4285714
vt 0.1666667 0.4285714
vt 0.1666667 0.5714285
vt 0 0.5714285
vt 0.3333333 0.4285714
vt 0.3333333 0.5714285
vt 0.5 0.4285714
vt 0.5 0.5714285
vt 0 0.7142857
vt 0.1666667 0.7142857
vt 0.3333333 0.7142857
vt 0.5 0.7142857
vt 0 0.2857143
vt 0.1666667 0.2857143
vt 0.3333333 0.2857143
vt 0.5 0.2857143
vt 0 0.1428571
vt 0.1666667 0.1428571
vt 0.3333333 0.1428571
vt 0.5 0.1428571

# Normal
vn 0 0 -1

# Mesh description
g CoinCollecteMap2_mesh_0195

# Faces
f 1/1/1 2/2/1 3/3/1 4/4/1
f 5/2/1 6/5/1 7/6/1 8/3/1
f 9/5/1 10/7/1 11/8/1 12/6/1
f 13/9/1 14/10/1 15/11/1 16/12/1
f 17/10/1 18/13/1 19/14/1 20/11/1
f 21/13/1 22/15/1 23/16/1 24/14/1
f 25/17/1 26/18/1 27/2/1 28/1/1
f 29/18/1 30/19/1 31/5/1 32/2/1
f 33/19/1 34/20/1 35/7/1 36/5/1
f 37/21/1 38/22/1 39/10/1 40/9/1
f 41/22/1 42/23/1 43/13/1 44/10/1
f 45/23/1 46/24/1 47/15/1 48/13/1
f 49/12/1 50/11/1 51/18/1 52/17/1
f 53/11/1 54/14/1 55/19/1 56/18/1
f 57/14/1 58/16/1 59/20/1 60/19/1
f 61/25/1 62/26/1 63/22/1 64/21/1
f 65/26/1 66/27/1 67/23/1 68/22/1
f 69/27/1 70/28/1 71/24/1 72/23/1

