# Tiled2Unity generated file. Do not modify by hand.
# Wavefront file for 'CoinCollecteMap2_mesh_0084.obj'

# Vertices (Count = 108)
v -3200 -201600 0
v -6400 -201600 0
v -6400 -198400 0
v -3200 -198400 0
v -6400 -201600 0
v -9600 -201600 0
v -9600 -198400 0
v -6400 -198400 0
v -9600 -201600 0
v -12800 -201600 0
v -12800 -198400 0
v -9600 -198400 0
v -3200 -204800 0
v -6400 -204800 0
v -6400 -201600 0
v -3200 -201600 0
v -6400 -204800 0
v -9600 -204800 0
v -9600 -201600 0
v -6400 -201600 0
v -9600 -204800 0
v -12800 -204800 0
v -12800 -201600 0
v -9600 -201600 0
v -3200 -208000 0
v -6400 -208000 0
v -6400 -204800 0
v -3200 -204800 0
v -6400 -208000 0
v -9600 -208000 0
v -9600 -204800 0
v -6400 -204800 0
v -9600 -208000 0
v -12800 -208000 0
v -12800 -204800 0
v -9600 -204800 0
v -115200 -208000 0
v -118400 -208000 0
v -118400 -204800 0
v -115200 -204800 0
v -118400 -208000 0
v -121600 -208000 0
v -121600 -204800 0
v -118400 -204800 0
v -121600 -208000 0
v -124800 -208000 0
v -124800 -204800 0
v -121600 -204800 0
v -128000 -208000 0
v -131200 -208000 0
v -131200 -204800 0
v -128000 -204800 0
v -131200 -208000 0
v -134400 -208000 0
v -134400 -204800 0
v -131200 -204800 0
v -3200 -211200 0
v -6400 -211200 0
v -6400 -208000 0
v -3200 -208000 0
v -6400 -211200 0
v -9600 -211200 0
v -9600 -208000 0
v -6400 -208000 0
v -9600 -211200 0
v -12800 -211200 0
v -12800 -208000 0
v -9600 -208000 0
v -115200 -211200 0
v -118400 -211200 0
v -118400 -208000 0
v -115200 -208000 0
v -118400 -211200 0
v -121600 -211200 0
v -121600 -208000 0
v -118400 -208000 0
v -121600 -211200 0
v -124800 -211200 0
v -124800 -208000 0
v -121600 -208000 0
v -128000 -211200 0
v -131200 -211200 0
v -131200 -208000 0
v -128000 -208000 0
v -131200 -211200 0
v -134400 -211200 0
v -134400 -208000 0
v -131200 -208000 0
v -115200 -214400 0
v -118400 -214400 0
v -118400 -211200 0
v -115200 -211200 0
v -118400 -214400 0
v -121600 -214400 0
v -121600 -211200 0
v -118400 -211200 0
v -121600 -214400 0
v -124800 -214400 0
v -124800 -211200 0
v -121600 -211200 0
v -128000 -214400 0
v -131200 -214400 0
v -131200 -211200 0
v -128000 -211200 0
v -131200 -214400 0
v -134400 -214400 0
v -134400 -211200 0
v -131200 -211200 0

# Texture cooridinates (Count = 44)
vt 0.5 0.4285714
vt 0.6666667 0.4285714
vt 0.6666667 0.5714285
vt 0.5 0.5714285
vt 0.8333333 0.4285714
vt 0.8333333 0.5714285
vt 1 0.4285714
vt 1 0.5714285
vt 0.5 0.2857143
vt 0.6666667 0.2857143
vt 0.8333333 0.2857143
vt 1 0.2857143
vt 0.5 0.1428571
vt 0.6666667 0.1428571
vt 0.8333333 0.1428571
vt 1 0.1428571
vt 0 0.8571429
vt 0.1666667 0.8571429
vt 0.1666667 1
vt 0 1
vt 0.3333333 0.8571429
vt 0.3333333 1
vt 0.5 0.8571429
vt 0.5 1
vt 0 0.4285714
vt 0.1666667 0.4285714
vt 0.1666667 0.5714285
vt 0 0.5714285
vt 0.3333333 0.4285714
vt 0.3333333 0.5714285
vt 0.5 0
vt 0.6666667 0
vt 0.8333333 0
vt 1 0
vt 0 0.7142857
vt 0.1666667 0.7142857
vt 0.3333333 0.7142857
vt 0.5 0.7142857
vt 0 0.2857143
vt 0.1666667 0.2857143
vt 0.3333333 0.2857143
vt 0 0.1428571
vt 0.1666667 0.1428571
vt 0.3333333 0.1428571

# Normal
vn 0 0 -1

# Mesh description
g CoinCollecteMap2_mesh_0084

# Faces
f 1/1/1 2/2/1 3/3/1 4/4/1
f 5/2/1 6/5/1 7/6/1 8/3/1
f 9/5/1 10/7/1 11/8/1 12/6/1
f 13/9/1 14/10/1 15/2/1 16/1/1
f 17/10/1 18/11/1 19/5/1 20/2/1
f 21/11/1 22/12/1 23/7/1 24/5/1
f 25/13/1 26/14/1 27/10/1 28/9/1
f 29/14/1 30/15/1 31/11/1 32/10/1
f 33/15/1 34/16/1 35/12/1 36/11/1
f 37/17/1 38/18/1 39/19/1 40/20/1
f 41/18/1 42/21/1 43/22/1 44/19/1
f 45/21/1 46/23/1 47/24/1 48/22/1
f 49/25/1 50/26/1 51/27/1 52/28/1
f 53/26/1 54/29/1 55/30/1 56/27/1
f 57/31/1 58/32/1 59/14/1 60/13/1
f 61/32/1 62/33/1 63/15/1 64/14/1
f 65/33/1 66/34/1 67/16/1 68/15/1
f 69/35/1 70/36/1 71/18/1 72/17/1
f 73/36/1 74/37/1 75/21/1 76/18/1
f 77/37/1 78/38/1 79/23/1 80/21/1
f 81/39/1 82/40/1 83/26/1 84/25/1
f 85/40/1 86/41/1 87/29/1 88/26/1
f 89/28/1 90/27/1 91/36/1 92/35/1
f 93/27/1 94/30/1 95/37/1 96/36/1
f 97/30/1 98/4/1 99/38/1 100/37/1
f 101/42/1 102/43/1 103/40/1 104/39/1
f 105/43/1 106/44/1 107/41/1 108/40/1

