# Tiled2Unity generated file. Do not modify by hand.
# Wavefront file for 'CoinCollecteMap2_mesh_0161.obj'

# Vertices (Count = 140)
v -28800 -220800 0
v -32000 -220800 0
v -32000 -217600 0
v -28800 -217600 0
v -32000 -220800 0
v -35200 -220800 0
v -35200 -217600 0
v -32000 -217600 0
v -35200 -220800 0
v -38400 -220800 0
v -38400 -217600 0
v -35200 -217600 0
v -44800 -220800 0
v -48000 -220800 0
v -48000 -217600 0
v -44800 -217600 0
v -48000 -220800 0
v -51200 -220800 0
v -51200 -217600 0
v -48000 -217600 0
v -51200 -220800 0
v -54400 -220800 0
v -54400 -217600 0
v -51200 -217600 0
v -80000 -220800 0
v -83200 -220800 0
v -83200 -217600 0
v -80000 -217600 0
v -86400 -220800 0
v -89600 -220800 0
v -89600 -217600 0
v -86400 -217600 0
v -96000 -220800 0
v -99200 -220800 0
v -99200 -217600 0
v -96000 -217600 0
v -99200 -220800 0
v -102400 -220800 0
v -102400 -217600 0
v -99200 -217600 0
v -102400 -220800 0
v -105600 -220800 0
v -105600 -217600 0
v -102400 -217600 0
v -28800 -224000 0
v -32000 -224000 0
v -32000 -220800 0
v -28800 -220800 0
v -32000 -224000 0
v -35200 -224000 0
v -35200 -220800 0
v -32000 -220800 0
v -35200 -224000 0
v -38400 -224000 0
v -38400 -220800 0
v -35200 -220800 0
v -44800 -224000 0
v -48000 -224000 0
v -48000 -220800 0
v -44800 -220800 0
v -48000 -224000 0
v -51200 -224000 0
v -51200 -220800 0
v -48000 -220800 0
v -51200 -224000 0
v -54400 -224000 0
v -54400 -220800 0
v -51200 -220800 0
v -80000 -224000 0
v -83200 -224000 0
v -83200 -220800 0
v -80000 -220800 0
v -83200 -224000 0
v -86400 -224000 0
v -86400 -220800 0
v -83200 -220800 0
v -86400 -224000 0
v -89600 -224000 0
v -89600 -220800 0
v -86400 -220800 0
v -96000 -224000 0
v -99200 -224000 0
v -99200 -220800 0
v -96000 -220800 0
v -99200 -224000 0
v -102400 -224000 0
v -102400 -220800 0
v -99200 -220800 0
v -102400 -224000 0
v -105600 -224000 0
v -105600 -220800 0
v -102400 -220800 0
v -28800 -227200 0
v -32000 -227200 0
v -32000 -224000 0
v -28800 -224000 0
v -32000 -227200 0
v -35200 -227200 0
v -35200 -224000 0
v -32000 -224000 0
v -35200 -227200 0
v -38400 -227200 0
v -38400 -224000 0
v -35200 -224000 0
v -44800 -227200 0
v -48000 -227200 0
v -48000 -224000 0
v -44800 -224000 0
v -48000 -227200 0
v -51200 -227200 0
v -51200 -224000 0
v -48000 -224000 0
v -51200 -227200 0
v -54400 -227200 0
v -54400 -224000 0
v -51200 -224000 0
v -80000 -227200 0
v -83200 -227200 0
v -83200 -224000 0
v -80000 -224000 0
v -83200 -227200 0
v -86400 -227200 0
v -86400 -224000 0
v -83200 -224000 0
v -86400 -227200 0
v -89600 -227200 0
v -89600 -224000 0
v -86400 -224000 0
v -96000 -227200 0
v -99200 -227200 0
v -99200 -224000 0
v -96000 -224000 0
v -99200 -227200 0
v -102400 -227200 0
v -102400 -224000 0
v -99200 -224000 0
v -102400 -227200 0
v -105600 -227200 0
v -105600 -224000 0
v -102400 -224000 0

# Texture cooridinates (Count = 16)
vt 0.5 0.6666666
vt 0.6666667 0.6666666
vt 0.6666667 1
vt 0.5 1
vt 0.8333333 0.6666666
vt 0.8333333 1
vt 1 0.6666666
vt 1 1
vt 0.5 0.3333333
vt 0.6666667 0.3333333
vt 0.8333333 0.3333333
vt 1 0.3333333
vt 0.5 0
vt 0.6666667 0
vt 0.8333333 0
vt 1 0

# Normal
vn 0 0 -1

# Mesh description
g CoinCollecteMap2_mesh_0161

# Faces
f 1/1/1 2/2/1 3/3/1 4/4/1
f 5/2/1 6/5/1 7/6/1 8/3/1
f 9/5/1 10/7/1 11/8/1 12/6/1
f 13/1/1 14/2/1 15/3/1 16/4/1
f 17/2/1 18/5/1 19/6/1 20/3/1
f 21/5/1 22/7/1 23/8/1 24/6/1
f 25/1/1 26/2/1 27/3/1 28/4/1
f 29/5/1 30/7/1 31/8/1 32/6/1
f 33/1/1 34/2/1 35/3/1 36/4/1
f 37/2/1 38/5/1 39/6/1 40/3/1
f 41/5/1 42/7/1 43/8/1 44/6/1
f 45/9/1 46/10/1 47/2/1 48/1/1
f 49/10/1 50/11/1 51/5/1 52/2/1
f 53/11/1 54/12/1 55/7/1 56/5/1
f 57/9/1 58/10/1 59/2/1 60/1/1
f 61/10/1 62/11/1 63/5/1 64/2/1
f 65/11/1 66/12/1 67/7/1 68/5/1
f 69/9/1 70/10/1 71/2/1 72/1/1
f 73/10/1 74/11/1 75/5/1 76/2/1
f 77/11/1 78/12/1 79/7/1 80/5/1
f 81/9/1 82/10/1 83/2/1 84/1/1
f 85/10/1 86/11/1 87/5/1 88/2/1
f 89/11/1 90/12/1 91/7/1 92/5/1
f 93/13/1 94/14/1 95/10/1 96/9/1
f 97/14/1 98/15/1 99/11/1 100/10/1
f 101/15/1 102/16/1 103/12/1 104/11/1
f 105/13/1 106/14/1 107/10/1 108/9/1
f 109/14/1 110/15/1 111/11/1 112/10/1
f 113/15/1 114/16/1 115/12/1 116/11/1
f 117/13/1 118/14/1 119/10/1 120/9/1
f 121/14/1 122/15/1 123/11/1 124/10/1
f 125/15/1 126/16/1 127/12/1 128/11/1
f 129/13/1 130/14/1 131/10/1 132/9/1
f 133/14/1 134/15/1 135/11/1 136/10/1
f 137/15/1 138/16/1 139/12/1 140/11/1

