# Tiled2Unity generated file. Do not modify by hand.
# Wavefront file for 'CoinCollecteMap2_mesh_0028.obj'

# Vertices (Count = 84)
v -131200 -147200 0
v -134400 -147200 0
v -134400 -144000 0
v -131200 -144000 0
v -131200 -150400 0
v -134400 -150400 0
v -134400 -147200 0
v -131200 -147200 0
v -131200 -153600 0
v -134400 -153600 0
v -134400 -150400 0
v -131200 -150400 0
v 0 -166400 0
v -3200 -166400 0
v -3200 -163200 0
v 0 -163200 0
v -3200 -166400 0
v -6400 -166400 0
v -6400 -163200 0
v -3200 -163200 0
v -6400 -166400 0
v -9600 -166400 0
v -9600 -163200 0
v -6400 -163200 0
v 0 -169600 0
v -3200 -169600 0
v -3200 -166400 0
v 0 -166400 0
v -3200 -169600 0
v -6400 -169600 0
v -6400 -166400 0
v -3200 -166400 0
v -6400 -169600 0
v -9600 -169600 0
v -9600 -166400 0
v -6400 -166400 0
v 0 -172800 0
v -3200 -172800 0
v -3200 -169600 0
v 0 -169600 0
v -3200 -172800 0
v -6400 -172800 0
v -6400 -169600 0
v -3200 -169600 0
v -6400 -172800 0
v -9600 -172800 0
v -9600 -169600 0
v -6400 -169600 0
v -121600 -172800 0
v -124800 -172800 0
v -124800 -169600 0
v -121600 -169600 0
v -124800 -172800 0
v -128000 -172800 0
v -128000 -169600 0
v -124800 -169600 0
v -128000 -172800 0
v -131200 -172800 0
v -131200 -169600 0
v -128000 -169600 0
v -121600 -176000 0
v -124800 -176000 0
v -124800 -172800 0
v -121600 -172800 0
v -124800 -176000 0
v -128000 -176000 0
v -128000 -172800 0
v -124800 -172800 0
v -128000 -176000 0
v -131200 -176000 0
v -131200 -172800 0
v -128000 -172800 0
v -121600 -179200 0
v -124800 -179200 0
v -124800 -176000 0
v -121600 -176000 0
v -124800 -179200 0
v -128000 -179200 0
v -128000 -176000 0
v -124800 -176000 0
v -128000 -179200 0
v -131200 -179200 0
v -131200 -176000 0
v -128000 -176000 0

# Texture cooridinates (Count = 16)
vt 0.5 0.6666666
vt 0.6666667 0.6666666
vt 0.6666667 1
vt 0.5 1
vt 0.5 0.3333333
vt 0.6666667 0.3333333
vt 0.5 0
vt 0.6666667 0
vt 0.8333333 0.6666666
vt 0.8333333 1
vt 1 0.6666666
vt 1 1
vt 0.8333333 0.3333333
vt 1 0.3333333
vt 0.8333333 0
vt 1 0

# Normal
vn 0 0 -1

# Mesh description
g CoinCollecteMap2_mesh_0028

# Faces
f 1/1/1 2/2/1 3/3/1 4/4/1
f 5/5/1 6/6/1 7/2/1 8/1/1
f 9/7/1 10/8/1 11/6/1 12/5/1
f 13/1/1 14/2/1 15/3/1 16/4/1
f 17/2/1 18/9/1 19/10/1 20/3/1
f 21/9/1 22/11/1 23/12/1 24/10/1
f 25/5/1 26/6/1 27/2/1 28/1/1
f 29/6/1 30/13/1 31/9/1 32/2/1
f 33/13/1 34/14/1 35/11/1 36/9/1
f 37/7/1 38/8/1 39/6/1 40/5/1
f 41/8/1 42/15/1 43/13/1 44/6/1
f 45/15/1 46/16/1 47/14/1 48/13/1
f 49/1/1 50/2/1 51/3/1 52/4/1
f 53/2/1 54/9/1 55/10/1 56/3/1
f 57/9/1 58/11/1 59/12/1 60/10/1
f 61/5/1 62/6/1 63/2/1 64/1/1
f 65/6/1 66/13/1 67/9/1 68/2/1
f 69/13/1 70/14/1 71/11/1 72/9/1
f 73/7/1 74/8/1 75/6/1 76/5/1
f 77/8/1 78/15/1 79/13/1 80/6/1
f 81/15/1 82/16/1 83/14/1 84/13/1

