# Tiled2Unity generated file. Do not modify by hand.
# Wavefront file for 'CoinCollecteMap2_mesh_0091.obj'

# Vertices (Count = 72)
v -124800 -230400 0
v -128000 -230400 0
v -128000 -227200 0
v -124800 -227200 0
v -128000 -230400 0
v -131200 -230400 0
v -131200 -227200 0
v -128000 -227200 0
v -131200 -230400 0
v -134400 -230400 0
v -134400 -227200 0
v -131200 -227200 0
v -3200 -233600 0
v -6400 -233600 0
v -6400 -230400 0
v -3200 -230400 0
v -6400 -233600 0
v -9600 -233600 0
v -9600 -230400 0
v -6400 -230400 0
v -9600 -233600 0
v -12800 -233600 0
v -12800 -230400 0
v -9600 -230400 0
v -124800 -233600 0
v -128000 -233600 0
v -128000 -230400 0
v -124800 -230400 0
v -128000 -233600 0
v -131200 -233600 0
v -131200 -230400 0
v -128000 -230400 0
v -131200 -233600 0
v -134400 -233600 0
v -134400 -230400 0
v -131200 -230400 0
v -3200 -236800 0
v -6400 -236800 0
v -6400 -233600 0
v -3200 -233600 0
v -6400 -236800 0
v -9600 -236800 0
v -9600 -233600 0
v -6400 -233600 0
v -9600 -236800 0
v -12800 -236800 0
v -12800 -233600 0
v -9600 -233600 0
v -124800 -236800 0
v -128000 -236800 0
v -128000 -233600 0
v -124800 -233600 0
v -128000 -236800 0
v -131200 -236800 0
v -131200 -233600 0
v -128000 -233600 0
v -131200 -236800 0
v -134400 -236800 0
v -134400 -233600 0
v -131200 -233600 0
v -3200 -240000 0
v -6400 -240000 0
v -6400 -236800 0
v -3200 -236800 0
v -6400 -240000 0
v -9600 -240000 0
v -9600 -236800 0
v -6400 -236800 0
v -9600 -240000 0
v -12800 -240000 0
v -12800 -236800 0
v -9600 -236800 0

# Texture cooridinates (Count = 16)
vt 0 0.4285714
vt 0.1666667 0.4285714
vt 0.1666667 0.5714285
vt 0 0.5714285
vt 0.3333333 0.4285714
vt 0.3333333 0.5714285
vt 0.5 0.4285714
vt 0.5 0.5714285
vt 0 0.2857143
vt 0.1666667 0.2857143
vt 0.3333333 0.2857143
vt 0.5 0.2857143
vt 0 0.1428571
vt 0.1666667 0.1428571
vt 0.3333333 0.1428571
vt 0.5 0.1428571

# Normal
vn 0 0 -1

# Mesh description
g CoinCollecteMap2_mesh_0091

# Faces
f 1/1/1 2/2/1 3/3/1 4/4/1
f 5/2/1 6/5/1 7/6/1 8/3/1
f 9/5/1 10/7/1 11/8/1 12/6/1
f 13/1/1 14/2/1 15/3/1 16/4/1
f 17/2/1 18/5/1 19/6/1 20/3/1
f 21/5/1 22/7/1 23/8/1 24/6/1
f 25/9/1 26/10/1 27/2/1 28/1/1
f 29/10/1 30/11/1 31/5/1 32/2/1
f 33/11/1 34/12/1 35/7/1 36/5/1
f 37/9/1 38/10/1 39/2/1 40/1/1
f 41/10/1 42/11/1 43/5/1 44/2/1
f 45/11/1 46/12/1 47/7/1 48/5/1
f 49/13/1 50/14/1 51/10/1 52/9/1
f 53/14/1 54/15/1 55/11/1 56/10/1
f 57/15/1 58/16/1 59/12/1 60/11/1
f 61/13/1 62/14/1 63/10/1 64/9/1
f 65/14/1 66/15/1 67/11/1 68/10/1
f 69/15/1 70/16/1 71/12/1 72/11/1

