# Tiled2Unity generated file. Do not modify by hand.
# Wavefront file for 'CoinCollecteMap2_mesh_0124.obj'

# Vertices (Count = 24)
v -44800 -256000 0
v -48000 -256000 0
v -48000 -252800 0
v -44800 -252800 0
v -48000 -256000 0
v -51200 -256000 0
v -51200 -252800 0
v -48000 -252800 0
v -51200 -256000 0
v -54400 -256000 0
v -54400 -252800 0
v -51200 -252800 0
v -60800 -256000 0
v -64000 -256000 0
v -64000 -252800 0
v -60800 -252800 0
v -64000 -256000 0
v -67200 -256000 0
v -67200 -252800 0
v -64000 -252800 0
v -67200 -256000 0
v -70400 -256000 0
v -70400 -252800 0
v -67200 -252800 0

# Texture cooridinates (Count = 8)
vt 0 0.8571429
vt 0.1666667 0.8571429
vt 0.1666667 1
vt 0 1
vt 0.3333333 0.8571429
vt 0.3333333 1
vt 0.5 0.8571429
vt 0.5 1

# Normal
vn 0 0 -1

# Mesh description
g CoinCollecteMap2_mesh_0124

# Faces
f 1/1/1 2/2/1 3/3/1 4/4/1
f 5/2/1 6/5/1 7/6/1 8/3/1
f 9/5/1 10/7/1 11/8/1 12/6/1
f 13/1/1 14/2/1 15/3/1 16/4/1
f 17/2/1 18/5/1 19/6/1 20/3/1
f 21/5/1 22/7/1 23/8/1 24/6/1

