# Tiled2Unity generated file. Do not modify by hand.
# Wavefront file for 'CoinCollecteMap2_mesh_0088.obj'

# Vertices (Count = 56)
v 0 -217600 0
v -3200 -217600 0
v -3200 -214400 0
v 0 -214400 0
v -3200 -217600 0
v -6400 -217600 0
v -6400 -214400 0
v -3200 -214400 0
v 0 -220800 0
v -3200 -220800 0
v -3200 -217600 0
v 0 -217600 0
v -3200 -220800 0
v -6400 -220800 0
v -6400 -217600 0
v -3200 -217600 0
v 0 -224000 0
v -3200 -224000 0
v -3200 -220800 0
v 0 -220800 0
v -3200 -224000 0
v -6400 -224000 0
v -6400 -220800 0
v -3200 -220800 0
v -128000 -224000 0
v -131200 -224000 0
v -131200 -220800 0
v -128000 -220800 0
v -131200 -224000 0
v -134400 -224000 0
v -134400 -220800 0
v -131200 -220800 0
v 0 -227200 0
v -3200 -227200 0
v -3200 -224000 0
v 0 -224000 0
v -3200 -227200 0
v -6400 -227200 0
v -6400 -224000 0
v -3200 -224000 0
v -128000 -227200 0
v -131200 -227200 0
v -131200 -224000 0
v -128000 -224000 0
v -131200 -227200 0
v -134400 -227200 0
v -134400 -224000 0
v -131200 -224000 0
v -128000 -230400 0
v -131200 -230400 0
v -131200 -227200 0
v -128000 -227200 0
v -131200 -230400 0
v -134400 -230400 0
v -134400 -227200 0
v -131200 -227200 0

# Texture cooridinates (Count = 27)
vt 0.6666667 0.4285714
vt 0.8333333 0.4285714
vt 0.8333333 0.5714285
vt 0.6666667 0.5714285
vt 1 0.4285714
vt 1 0.5714285
vt 0.6666667 0.2857143
vt 0.8333333 0.2857143
vt 1 0.2857143
vt 0.6666667 0.1428571
vt 0.8333333 0.1428571
vt 1 0.1428571
vt 0 0.8571429
vt 0.1666667 0.8571429
vt 0.1666667 1
vt 0 1
vt 0.3333333 0.8571429
vt 0.3333333 1
vt 0.6666667 0
vt 0.8333333 0
vt 1 0
vt 0 0.7142857
vt 0.1666667 0.7142857
vt 0.3333333 0.7142857
vt 0 0.5714285
vt 0.1666667 0.5714285
vt 0.3333333 0.5714285

# Normal
vn 0 0 -1

# Mesh description
g CoinCollecteMap2_mesh_0088

# Faces
f 1/1/1 2/2/1 3/3/1 4/4/1
f 5/2/1 6/5/1 7/6/1 8/3/1
f 9/7/1 10/8/1 11/2/1 12/1/1
f 13/8/1 14/9/1 15/5/1 16/2/1
f 17/10/1 18/11/1 19/8/1 20/7/1
f 21/11/1 22/12/1 23/9/1 24/8/1
f 25/13/1 26/14/1 27/15/1 28/16/1
f 29/14/1 30/17/1 31/18/1 32/15/1
f 33/19/1 34/20/1 35/11/1 36/10/1
f 37/20/1 38/21/1 39/12/1 40/11/1
f 41/22/1 42/23/1 43/14/1 44/13/1
f 45/23/1 46/24/1 47/17/1 48/14/1
f 49/25/1 50/26/1 51/23/1 52/22/1
f 53/26/1 54/27/1 55/24/1 56/23/1

