# Tiled2Unity generated file. Do not modify by hand.
# Wavefront file for 'CoinCollecteMap2_mesh_0120.obj'

# Vertices (Count = 288)
v -112000 -240000 0
v -115200 -240000 0
v -115200 -236800 0
v -112000 -236800 0
v -115200 -240000 0
v -118400 -240000 0
v -118400 -236800 0
v -115200 -236800 0
v -118400 -240000 0
v -121600 -240000 0
v -121600 -236800 0
v -118400 -236800 0
v -16000 -243200 0
v -19200 -243200 0
v -19200 -240000 0
v -16000 -240000 0
v -19200 -243200 0
v -22400 -243200 0
v -22400 -240000 0
v -19200 -240000 0
v -22400 -243200 0
v -25600 -243200 0
v -25600 -240000 0
v -22400 -240000 0
v -38400 -243200 0
v -41600 -243200 0
v -41600 -240000 0
v -38400 -240000 0
v -41600 -243200 0
v -44800 -243200 0
v -44800 -240000 0
v -41600 -240000 0
v -44800 -243200 0
v -48000 -243200 0
v -48000 -240000 0
v -44800 -240000 0
v -73600 -243200 0
v -76800 -243200 0
v -76800 -240000 0
v -73600 -240000 0
v -76800 -243200 0
v -80000 -243200 0
v -80000 -240000 0
v -76800 -240000 0
v -80000 -243200 0
v -83200 -243200 0
v -83200 -240000 0
v -80000 -240000 0
v -86400 -243200 0
v -89600 -243200 0
v -89600 -240000 0
v -86400 -240000 0
v -89600 -243200 0
v -92800 -243200 0
v -92800 -240000 0
v -89600 -240000 0
v -92800 -243200 0
v -96000 -243200 0
v -96000 -240000 0
v -92800 -240000 0
v -96000 -243200 0
v -99200 -243200 0
v -99200 -240000 0
v -96000 -240000 0
v -99200 -243200 0
v -102400 -243200 0
v -102400 -240000 0
v -99200 -240000 0
v -102400 -243200 0
v -105600 -243200 0
v -105600 -240000 0
v -102400 -240000 0
v -112000 -243200 0
v -115200 -243200 0
v -115200 -240000 0
v -112000 -240000 0
v -115200 -243200 0
v -118400 -243200 0
v -118400 -240000 0
v -115200 -240000 0
v -118400 -243200 0
v -121600 -243200 0
v -121600 -240000 0
v -118400 -240000 0
v -16000 -246400 0
v -19200 -246400 0
v -19200 -243200 0
v -16000 -243200 0
v -19200 -246400 0
v -22400 -246400 0
v -22400 -243200 0
v -19200 -243200 0
v -22400 -246400 0
v -25600 -246400 0
v -25600 -243200 0
v -22400 -243200 0
v -38400 -246400 0
v -41600 -246400 0
v -41600 -243200 0
v -38400 -243200 0
v -41600 -246400 0
v -44800 -246400 0
v -44800 -243200 0
v -41600 -243200 0
v -44800 -246400 0
v -48000 -246400 0
v -48000 -243200 0
v -44800 -243200 0
v -73600 -246400 0
v -76800 -246400 0
v -76800 -243200 0
v -73600 -243200 0
v -76800 -246400 0
v -80000 -246400 0
v -80000 -243200 0
v -76800 -243200 0
v -80000 -246400 0
v -83200 -246400 0
v -83200 -243200 0
v -80000 -243200 0
v -86400 -246400 0
v -89600 -246400 0
v -89600 -243200 0
v -86400 -243200 0
v -89600 -246400 0
v -92800 -246400 0
v -92800 -243200 0
v -89600 -243200 0
v -92800 -246400 0
v -96000 -246400 0
v -96000 -243200 0
v -92800 -243200 0
v -96000 -246400 0
v -99200 -246400 0
v -99200 -243200 0
v -96000 -243200 0
v -99200 -246400 0
v -102400 -246400 0
v -102400 -243200 0
v -99200 -243200 0
v -102400 -246400 0
v -105600 -246400 0
v -105600 -243200 0
v -102400 -243200 0
v -112000 -246400 0
v -115200 -246400 0
v -115200 -243200 0
v -112000 -243200 0
v -115200 -246400 0
v -118400 -246400 0
v -118400 -243200 0
v -115200 -243200 0
v -118400 -246400 0
v -121600 -246400 0
v -121600 -243200 0
v -118400 -243200 0
v -16000 -249600 0
v -19200 -249600 0
v -19200 -246400 0
v -16000 -246400 0
v -19200 -249600 0
v -22400 -249600 0
v -22400 -246400 0
v -19200 -246400 0
v -22400 -249600 0
v -25600 -249600 0
v -25600 -246400 0
v -22400 -246400 0
v -38400 -249600 0
v -41600 -249600 0
v -41600 -246400 0
v -38400 -246400 0
v -41600 -249600 0
v -44800 -249600 0
v -44800 -246400 0
v -41600 -246400 0
v -44800 -249600 0
v -48000 -249600 0
v -48000 -246400 0
v -44800 -246400 0
v -73600 -249600 0
v -76800 -249600 0
v -76800 -246400 0
v -73600 -246400 0
v -76800 -249600 0
v -80000 -249600 0
v -80000 -246400 0
v -76800 -246400 0
v -80000 -249600 0
v -83200 -249600 0
v -83200 -246400 0
v -80000 -246400 0
v -86400 -249600 0
v -89600 -249600 0
v -89600 -246400 0
v -86400 -246400 0
v -89600 -249600 0
v -92800 -249600 0
v -92800 -246400 0
v -89600 -246400 0
v -92800 -249600 0
v -96000 -249600 0
v -96000 -246400 0
v -92800 -246400 0
v -96000 -249600 0
v -99200 -249600 0
v -99200 -246400 0
v -96000 -246400 0
v -99200 -249600 0
v -102400 -249600 0
v -102400 -246400 0
v -99200 -246400 0
v -102400 -249600 0
v -105600 -249600 0
v -105600 -246400 0
v -102400 -246400 0
v -112000 -249600 0
v -115200 -249600 0
v -115200 -246400 0
v -112000 -246400 0
v -115200 -249600 0
v -118400 -249600 0
v -118400 -246400 0
v -115200 -246400 0
v -118400 -249600 0
v -121600 -249600 0
v -121600 -246400 0
v -118400 -246400 0
v -16000 -252800 0
v -19200 -252800 0
v -19200 -249600 0
v -16000 -249600 0
v -19200 -252800 0
v -22400 -252800 0
v -22400 -249600 0
v -19200 -249600 0
v -22400 -252800 0
v -25600 -252800 0
v -25600 -249600 0
v -22400 -249600 0
v -38400 -252800 0
v -41600 -252800 0
v -41600 -249600 0
v -38400 -249600 0
v -41600 -252800 0
v -44800 -252800 0
v -44800 -249600 0
v -41600 -249600 0
v -44800 -252800 0
v -48000 -252800 0
v -48000 -249600 0
v -44800 -249600 0
v -73600 -252800 0
v -76800 -252800 0
v -76800 -249600 0
v -73600 -249600 0
v -76800 -252800 0
v -80000 -252800 0
v -80000 -249600 0
v -76800 -249600 0
v -80000 -252800 0
v -83200 -252800 0
v -83200 -249600 0
v -80000 -249600 0
v -86400 -252800 0
v -89600 -252800 0
v -89600 -249600 0
v -86400 -249600 0
v -89600 -252800 0
v -92800 -252800 0
v -92800 -249600 0
v -89600 -249600 0
v -92800 -252800 0
v -96000 -252800 0
v -96000 -249600 0
v -92800 -249600 0
v -96000 -252800 0
v -99200 -252800 0
v -99200 -249600 0
v -96000 -249600 0
v -99200 -252800 0
v -102400 -252800 0
v -102400 -249600 0
v -99200 -249600 0
v -102400 -252800 0
v -105600 -252800 0
v -105600 -249600 0
v -102400 -249600 0

# Texture cooridinates (Count = 20)
vt 0.5 0.4285714
vt 0.6666667 0.4285714
vt 0.6666667 0.5714285
vt 0.5 0.5714285
vt 0.8333333 0.4285714
vt 0.8333333 0.5714285
vt 1 0.4285714
vt 1 0.5714285
vt 0.5 0.2857143
vt 0.6666667 0.2857143
vt 0.8333333 0.2857143
vt 1 0.2857143
vt 0.5 0.1428571
vt 0.6666667 0.1428571
vt 0.8333333 0.1428571
vt 1 0.1428571
vt 0.5 0
vt 0.6666667 0
vt 0.8333333 0
vt 1 0

# Normal
vn 0 0 -1

# Mesh description
g CoinCollecteMap2_mesh_0120

# Faces
f 1/1/1 2/2/1 3/3/1 4/4/1
f 5/2/1 6/5/1 7/6/1 8/3/1
f 9/5/1 10/7/1 11/8/1 12/6/1
f 13/1/1 14/2/1 15/3/1 16/4/1
f 17/2/1 18/5/1 19/6/1 20/3/1
f 21/5/1 22/7/1 23/8/1 24/6/1
f 25/1/1 26/2/1 27/3/1 28/4/1
f 29/2/1 30/5/1 31/6/1 32/3/1
f 33/5/1 34/7/1 35/8/1 36/6/1
f 37/1/1 38/2/1 39/3/1 40/4/1
f 41/2/1 42/5/1 43/6/1 44/3/1
f 45/5/1 46/7/1 47/8/1 48/6/1
f 49/1/1 50/2/1 51/3/1 52/4/1
f 53/2/1 54/5/1 55/6/1 56/3/1
f 57/5/1 58/7/1 59/8/1 60/6/1
f 61/1/1 62/2/1 63/3/1 64/4/1
f 65/2/1 66/5/1 67/6/1 68/3/1
f 69/5/1 70/7/1 71/8/1 72/6/1
f 73/9/1 74/10/1 75/2/1 76/1/1
f 77/10/1 78/11/1 79/5/1 80/2/1
f 81/11/1 82/12/1 83/7/1 84/5/1
f 85/9/1 86/10/1 87/2/1 88/1/1
f 89/10/1 90/11/1 91/5/1 92/2/1
f 93/11/1 94/12/1 95/7/1 96/5/1
f 97/9/1 98/10/1 99/2/1 100/1/1
f 101/10/1 102/11/1 103/5/1 104/2/1
f 105/11/1 106/12/1 107/7/1 108/5/1
f 109/9/1 110/10/1 111/2/1 112/1/1
f 113/10/1 114/11/1 115/5/1 116/2/1
f 117/11/1 118/12/1 119/7/1 120/5/1
f 121/9/1 122/10/1 123/2/1 124/1/1
f 125/10/1 126/11/1 127/5/1 128/2/1
f 129/11/1 130/12/1 131/7/1 132/5/1
f 133/9/1 134/10/1 135/2/1 136/1/1
f 137/10/1 138/11/1 139/5/1 140/2/1
f 141/11/1 142/12/1 143/7/1 144/5/1
f 145/13/1 146/14/1 147/10/1 148/9/1
f 149/14/1 150/15/1 151/11/1 152/10/1
f 153/15/1 154/16/1 155/12/1 156/11/1
f 157/13/1 158/14/1 159/10/1 160/9/1
f 161/14/1 162/15/1 163/11/1 164/10/1
f 165/15/1 166/16/1 167/12/1 168/11/1
f 169/13/1 170/14/1 171/10/1 172/9/1
f 173/14/1 174/15/1 175/11/1 176/10/1
f 177/15/1 178/16/1 179/12/1 180/11/1
f 181/13/1 182/14/1 183/10/1 184/9/1
f 185/14/1 186/15/1 187/11/1 188/10/1
f 189/15/1 190/16/1 191/12/1 192/11/1
f 193/13/1 194/14/1 195/10/1 196/9/1
f 197/14/1 198/15/1 199/11/1 200/10/1
f 201/15/1 202/16/1 203/12/1 204/11/1
f 205/13/1 206/14/1 207/10/1 208/9/1
f 209/14/1 210/15/1 211/11/1 212/10/1
f 213/15/1 214/16/1 215/12/1 216/11/1
f 217/17/1 218/18/1 219/14/1 220/13/1
f 221/18/1 222/19/1 223/15/1 224/14/1
f 225/19/1 226/20/1 227/16/1 228/15/1
f 229/17/1 230/18/1 231/14/1 232/13/1
f 233/18/1 234/19/1 235/15/1 236/14/1
f 237/19/1 238/20/1 239/16/1 240/15/1
f 241/17/1 242/18/1 243/14/1 244/13/1
f 245/18/1 246/19/1 247/15/1 248/14/1
f 249/19/1 250/20/1 251/16/1 252/15/1
f 253/17/1 254/18/1 255/14/1 256/13/1
f 257/18/1 258/19/1 259/15/1 260/14/1
f 261/19/1 262/20/1 263/16/1 264/15/1
f 265/17/1 266/18/1 267/14/1 268/13/1
f 269/18/1 270/19/1 271/15/1 272/14/1
f 273/19/1 274/20/1 275/16/1 276/15/1
f 277/17/1 278/18/1 279/14/1 280/13/1
f 281/18/1 282/19/1 283/15/1 284/14/1
f 285/19/1 286/20/1 287/16/1 288/15/1

