# Tiled2Unity generated file. Do not modify by hand.
# Wavefront file for 'CoinCollecteMap2_mesh_0072.obj'

# Vertices (Count = 60)
v 0 -147200 0
v -3200 -147200 0
v -3200 -144000 0
v 0 -144000 0
v -3200 -147200 0
v -6400 -147200 0
v -6400 -144000 0
v -3200 -144000 0
v -6400 -147200 0
v -9600 -147200 0
v -9600 -144000 0
v -6400 -144000 0
v 0 -150400 0
v -3200 -150400 0
v -3200 -147200 0
v 0 -147200 0
v -3200 -150400 0
v -6400 -150400 0
v -6400 -147200 0
v -3200 -147200 0
v -6400 -150400 0
v -9600 -150400 0
v -9600 -147200 0
v -6400 -147200 0
v 0 -153600 0
v -3200 -153600 0
v -3200 -150400 0
v 0 -150400 0
v -3200 -153600 0
v -6400 -153600 0
v -6400 -150400 0
v -3200 -150400 0
v -6400 -153600 0
v -9600 -153600 0
v -9600 -150400 0
v -6400 -150400 0
v -128000 -160000 0
v -131200 -160000 0
v -131200 -156800 0
v -128000 -156800 0
v -131200 -160000 0
v -134400 -160000 0
v -134400 -156800 0
v -131200 -156800 0
v -128000 -163200 0
v -131200 -163200 0
v -131200 -160000 0
v -128000 -160000 0
v -131200 -163200 0
v -134400 -163200 0
v -134400 -160000 0
v -131200 -160000 0
v -128000 -166400 0
v -131200 -166400 0
v -131200 -163200 0
v -128000 -163200 0
v -131200 -166400 0
v -134400 -166400 0
v -134400 -163200 0
v -131200 -163200 0

# Texture cooridinates (Count = 16)
vt 0 0.8571429
vt 0.1666667 0.8571429
vt 0.1666667 1
vt 0 1
vt 0.3333333 0.8571429
vt 0.3333333 1
vt 0.5 0.8571429
vt 0.5 1
vt 0 0.7142857
vt 0.1666667 0.7142857
vt 0.3333333 0.7142857
vt 0.5 0.7142857
vt 0 0.5714285
vt 0.1666667 0.5714285
vt 0.3333333 0.5714285
vt 0.5 0.5714285

# Normal
vn 0 0 -1

# Mesh description
g CoinCollecteMap2_mesh_0072

# Faces
f 1/1/1 2/2/1 3/3/1 4/4/1
f 5/2/1 6/5/1 7/6/1 8/3/1
f 9/5/1 10/7/1 11/8/1 12/6/1
f 13/9/1 14/10/1 15/2/1 16/1/1
f 17/10/1 18/11/1 19/5/1 20/2/1
f 21/11/1 22/12/1 23/7/1 24/5/1
f 25/13/1 26/14/1 27/10/1 28/9/1
f 29/14/1 30/15/1 31/11/1 32/10/1
f 33/15/1 34/16/1 35/12/1 36/11/1
f 37/1/1 38/2/1 39/3/1 40/4/1
f 41/2/1 42/5/1 43/6/1 44/3/1
f 45/9/1 46/10/1 47/2/1 48/1/1
f 49/10/1 50/11/1 51/5/1 52/2/1
f 53/13/1 54/14/1 55/10/1 56/9/1
f 57/14/1 58/15/1 59/11/1 60/10/1

