# Tiled2Unity generated file. Do not modify by hand.
# Wavefront file for 'CoinCollecteMap2_mesh_0121.obj'

# Vertices (Count = 144)
v -51200 -246400 0
v -54400 -246400 0
v -54400 -243200 0
v -51200 -243200 0
v -54400 -246400 0
v -57600 -246400 0
v -57600 -243200 0
v -54400 -243200 0
v -57600 -246400 0
v -60800 -246400 0
v -60800 -243200 0
v -57600 -243200 0
v -12800 -249600 0
v -16000 -249600 0
v -16000 -246400 0
v -12800 -246400 0
v -16000 -249600 0
v -19200 -249600 0
v -19200 -246400 0
v -16000 -246400 0
v -19200 -249600 0
v -22400 -249600 0
v -22400 -246400 0
v -19200 -246400 0
v -51200 -249600 0
v -54400 -249600 0
v -54400 -246400 0
v -51200 -246400 0
v -54400 -249600 0
v -57600 -249600 0
v -57600 -246400 0
v -54400 -246400 0
v -57600 -249600 0
v -60800 -249600 0
v -60800 -246400 0
v -57600 -246400 0
v -70400 -249600 0
v -73600 -249600 0
v -73600 -246400 0
v -70400 -246400 0
v -73600 -249600 0
v -76800 -249600 0
v -76800 -246400 0
v -73600 -246400 0
v -76800 -249600 0
v -80000 -249600 0
v -80000 -246400 0
v -76800 -246400 0
v -99200 -249600 0
v -102400 -249600 0
v -102400 -246400 0
v -99200 -246400 0
v -102400 -249600 0
v -105600 -249600 0
v -105600 -246400 0
v -102400 -246400 0
v -105600 -249600 0
v -108800 -249600 0
v -108800 -246400 0
v -105600 -246400 0
v -12800 -252800 0
v -16000 -252800 0
v -16000 -249600 0
v -12800 -249600 0
v -16000 -252800 0
v -19200 -252800 0
v -19200 -249600 0
v -16000 -249600 0
v -19200 -252800 0
v -22400 -252800 0
v -22400 -249600 0
v -19200 -249600 0
v -51200 -252800 0
v -54400 -252800 0
v -54400 -249600 0
v -51200 -249600 0
v -54400 -252800 0
v -57600 -252800 0
v -57600 -249600 0
v -54400 -249600 0
v -57600 -252800 0
v -60800 -252800 0
v -60800 -249600 0
v -57600 -249600 0
v -70400 -252800 0
v -73600 -252800 0
v -73600 -249600 0
v -70400 -249600 0
v -73600 -252800 0
v -76800 -252800 0
v -76800 -249600 0
v -73600 -249600 0
v -76800 -252800 0
v -80000 -252800 0
v -80000 -249600 0
v -76800 -249600 0
v -99200 -252800 0
v -102400 -252800 0
v -102400 -249600 0
v -99200 -249600 0
v -102400 -252800 0
v -105600 -252800 0
v -105600 -249600 0
v -102400 -249600 0
v -105600 -252800 0
v -108800 -252800 0
v -108800 -249600 0
v -105600 -249600 0
v -12800 -256000 0
v -16000 -256000 0
v -16000 -252800 0
v -12800 -252800 0
v -16000 -256000 0
v -19200 -256000 0
v -19200 -252800 0
v -16000 -252800 0
v -19200 -256000 0
v -22400 -256000 0
v -22400 -252800 0
v -19200 -252800 0
v -70400 -256000 0
v -73600 -256000 0
v -73600 -252800 0
v -70400 -252800 0
v -73600 -256000 0
v -76800 -256000 0
v -76800 -252800 0
v -73600 -252800 0
v -76800 -256000 0
v -80000 -256000 0
v -80000 -252800 0
v -76800 -252800 0
v -99200 -256000 0
v -102400 -256000 0
v -102400 -252800 0
v -99200 -252800 0
v -102400 -256000 0
v -105600 -256000 0
v -105600 -252800 0
v -102400 -252800 0
v -105600 -256000 0
v -108800 -256000 0
v -108800 -252800 0
v -105600 -252800 0

# Texture cooridinates (Count = 16)
vt 0 0.4285714
vt 0.1666667 0.4285714
vt 0.1666667 0.5714285
vt 0 0.5714285
vt 0.3333333 0.4285714
vt 0.3333333 0.5714285
vt 0.5 0.4285714
vt 0.5 0.5714285
vt 0 0.2857143
vt 0.1666667 0.2857143
vt 0.3333333 0.2857143
vt 0.5 0.2857143
vt 0 0.1428571
vt 0.1666667 0.1428571
vt 0.3333333 0.1428571
vt 0.5 0.1428571

# Normal
vn 0 0 -1

# Mesh description
g CoinCollecteMap2_mesh_0121

# Faces
f 1/1/1 2/2/1 3/3/1 4/4/1
f 5/2/1 6/5/1 7/6/1 8/3/1
f 9/5/1 10/7/1 11/8/1 12/6/1
f 13/1/1 14/2/1 15/3/1 16/4/1
f 17/2/1 18/5/1 19/6/1 20/3/1
f 21/5/1 22/7/1 23/8/1 24/6/1
f 25/9/1 26/10/1 27/2/1 28/1/1
f 29/10/1 30/11/1 31/5/1 32/2/1
f 33/11/1 34/12/1 35/7/1 36/5/1
f 37/1/1 38/2/1 39/3/1 40/4/1
f 41/2/1 42/5/1 43/6/1 44/3/1
f 45/5/1 46/7/1 47/8/1 48/6/1
f 49/1/1 50/2/1 51/3/1 52/4/1
f 53/2/1 54/5/1 55/6/1 56/3/1
f 57/5/1 58/7/1 59/8/1 60/6/1
f 61/9/1 62/10/1 63/2/1 64/1/1
f 65/10/1 66/11/1 67/5/1 68/2/1
f 69/11/1 70/12/1 71/7/1 72/5/1
f 73/13/1 74/14/1 75/10/1 76/9/1
f 77/14/1 78/15/1 79/11/1 80/10/1
f 81/15/1 82/16/1 83/12/1 84/11/1
f 85/9/1 86/10/1 87/2/1 88/1/1
f 89/10/1 90/11/1 91/5/1 92/2/1
f 93/11/1 94/12/1 95/7/1 96/5/1
f 97/9/1 98/10/1 99/2/1 100/1/1
f 101/10/1 102/11/1 103/5/1 104/2/1
f 105/11/1 106/12/1 107/7/1 108/5/1
f 109/13/1 110/14/1 111/10/1 112/9/1
f 113/14/1 114/15/1 115/11/1 116/10/1
f 117/15/1 118/16/1 119/12/1 120/11/1
f 121/13/1 122/14/1 123/10/1 124/9/1
f 125/14/1 126/15/1 127/11/1 128/10/1
f 129/15/1 130/16/1 131/12/1 132/11/1
f 133/13/1 134/14/1 135/10/1 136/9/1
f 137/14/1 138/15/1 139/11/1 140/10/1
f 141/15/1 142/16/1 143/12/1 144/11/1

