# Tiled2Unity generated file. Do not modify by hand.
# Wavefront file for 'CoinCollecteMap2_mesh_0020.obj'

# Vertices (Count = 192)
v -6400 -115200 0
v -9600 -115200 0
v -9600 -112000 0
v -6400 -112000 0
v -9600 -115200 0
v -12800 -115200 0
v -12800 -112000 0
v -9600 -112000 0
v -12800 -115200 0
v -16000 -115200 0
v -16000 -112000 0
v -12800 -112000 0
v -6400 -118400 0
v -9600 -118400 0
v -9600 -115200 0
v -6400 -115200 0
v -9600 -118400 0
v -12800 -118400 0
v -12800 -115200 0
v -9600 -115200 0
v -12800 -118400 0
v -16000 -118400 0
v -16000 -115200 0
v -12800 -115200 0
v -112000 -118400 0
v -115200 -118400 0
v -115200 -115200 0
v -112000 -115200 0
v -115200 -118400 0
v -118400 -118400 0
v -118400 -115200 0
v -115200 -115200 0
v -118400 -118400 0
v -121600 -118400 0
v -121600 -115200 0
v -118400 -115200 0
v 0 -121600 0
v -3200 -121600 0
v -3200 -118400 0
v 0 -118400 0
v -3200 -121600 0
v -6400 -121600 0
v -6400 -118400 0
v -3200 -118400 0
v -6400 -121600 0
v -9600 -121600 0
v -9600 -118400 0
v -6400 -118400 0
v -9600 -121600 0
v -12800 -121600 0
v -12800 -118400 0
v -9600 -118400 0
v -12800 -121600 0
v -16000 -121600 0
v -16000 -118400 0
v -12800 -118400 0
v -16000 -121600 0
v -19200 -121600 0
v -19200 -118400 0
v -16000 -118400 0
v -19200 -121600 0
v -22400 -121600 0
v -22400 -118400 0
v -19200 -118400 0
v -112000 -121600 0
v -115200 -121600 0
v -115200 -118400 0
v -112000 -118400 0
v -115200 -121600 0
v -118400 -121600 0
v -118400 -118400 0
v -115200 -118400 0
v -118400 -121600 0
v -121600 -121600 0
v -121600 -118400 0
v -118400 -118400 0
v -121600 -121600 0
v -124800 -121600 0
v -124800 -118400 0
v -121600 -118400 0
v -124800 -121600 0
v -128000 -121600 0
v -128000 -118400 0
v -124800 -118400 0
v -128000 -121600 0
v -131200 -121600 0
v -131200 -118400 0
v -128000 -118400 0
v 0 -124800 0
v -3200 -124800 0
v -3200 -121600 0
v 0 -121600 0
v -3200 -124800 0
v -6400 -124800 0
v -6400 -121600 0
v -3200 -121600 0
v -6400 -124800 0
v -9600 -124800 0
v -9600 -121600 0
v -6400 -121600 0
v -12800 -124800 0
v -16000 -124800 0
v -16000 -121600 0
v -12800 -121600 0
v -16000 -124800 0
v -19200 -124800 0
v -19200 -121600 0
v -16000 -121600 0
v -19200 -124800 0
v -22400 -124800 0
v -22400 -121600 0
v -19200 -121600 0
v -112000 -124800 0
v -115200 -124800 0
v -115200 -121600 0
v -112000 -121600 0
v -115200 -124800 0
v -118400 -124800 0
v -118400 -121600 0
v -115200 -121600 0
v -118400 -124800 0
v -121600 -124800 0
v -121600 -121600 0
v -118400 -121600 0
v -121600 -124800 0
v -124800 -124800 0
v -124800 -121600 0
v -121600 -121600 0
v -124800 -124800 0
v -128000 -124800 0
v -128000 -121600 0
v -124800 -121600 0
v -128000 -124800 0
v -131200 -124800 0
v -131200 -121600 0
v -128000 -121600 0
v 0 -128000 0
v -3200 -128000 0
v -3200 -124800 0
v 0 -124800 0
v -3200 -128000 0
v -6400 -128000 0
v -6400 -124800 0
v -3200 -124800 0
v -6400 -128000 0
v -9600 -128000 0
v -9600 -124800 0
v -6400 -124800 0
v -12800 -128000 0
v -16000 -128000 0
v -16000 -124800 0
v -12800 -124800 0
v -16000 -128000 0
v -19200 -128000 0
v -19200 -124800 0
v -16000 -124800 0
v -19200 -128000 0
v -22400 -128000 0
v -22400 -124800 0
v -19200 -124800 0
v -121600 -128000 0
v -124800 -128000 0
v -124800 -124800 0
v -121600 -124800 0
v -124800 -128000 0
v -128000 -128000 0
v -128000 -124800 0
v -124800 -124800 0
v -128000 -128000 0
v -131200 -128000 0
v -131200 -124800 0
v -128000 -124800 0
v -131200 -128000 0
v -134400 -128000 0
v -134400 -124800 0
v -131200 -124800 0
v -128000 -131200 0
v -131200 -131200 0
v -131200 -128000 0
v -128000 -128000 0
v -131200 -131200 0
v -134400 -131200 0
v -134400 -128000 0
v -131200 -128000 0
v -128000 -134400 0
v -131200 -134400 0
v -131200 -131200 0
v -128000 -131200 0
v -131200 -134400 0
v -134400 -134400 0
v -134400 -131200 0
v -131200 -131200 0

# Texture cooridinates (Count = 28)
vt 0.5 0.6666666
vt 0.6666667 0.6666666
vt 0.6666667 1
vt 0.5 1
vt 0.8333333 0.6666666
vt 0.8333333 1
vt 1 0.6666666
vt 1 1
vt 0.5 0.3333333
vt 0.6666667 0.3333333
vt 0.8333333 0.3333333
vt 1 0.3333333
vt 0.6666667 0
vt 0.8333333 0
vt 0 0.6666666
vt 0.1666667 0.6666666
vt 0.1666667 1
vt 0 1
vt 0.3333333 0.6666666
vt 0.3333333 1
vt 0.5 0
vt 1 0
vt 0 0.3333333
vt 0.1666667 0.3333333
vt 0.3333333 0.3333333
vt 0 0
vt 0.1666667 0
vt 0.3333333 0

# Normal
vn 0 0 -1

# Mesh description
g CoinCollecteMap2_mesh_0020

# Faces
f 1/1/1 2/2/1 3/3/1 4/4/1
f 5/2/1 6/5/1 7/6/1 8/3/1
f 9/5/1 10/7/1 11/8/1 12/6/1
f 13/9/1 14/10/1 15/2/1 16/1/1
f 17/10/1 18/11/1 19/5/1 20/2/1
f 21/11/1 22/12/1 23/7/1 24/5/1
f 25/1/1 26/2/1 27/3/1 28/4/1
f 29/2/1 30/5/1 31/6/1 32/3/1
f 33/5/1 34/7/1 35/8/1 36/6/1
f 37/1/1 38/2/1 39/3/1 40/4/1
f 41/2/1 42/5/1 43/6/1 44/3/1
f 45/5/1 46/7/1 47/8/1 48/6/1
f 49/13/1 50/14/1 51/11/1 52/10/1
f 53/1/1 54/2/1 55/3/1 56/4/1
f 57/2/1 58/5/1 59/6/1 60/3/1
f 61/5/1 62/7/1 63/8/1 64/6/1
f 65/9/1 66/10/1 67/2/1 68/1/1
f 69/10/1 70/11/1 71/5/1 72/2/1
f 73/11/1 74/12/1 75/7/1 76/5/1
f 77/15/1 78/16/1 79/17/1 80/18/1
f 81/16/1 82/19/1 83/20/1 84/17/1
f 85/19/1 86/1/1 87/4/1 88/20/1
f 89/9/1 90/10/1 91/2/1 92/1/1
f 93/10/1 94/11/1 95/5/1 96/2/1
f 97/11/1 98/12/1 99/7/1 100/5/1
f 101/9/1 102/10/1 103/2/1 104/1/1
f 105/10/1 106/11/1 107/5/1 108/2/1
f 109/11/1 110/12/1 111/7/1 112/5/1
f 113/21/1 114/13/1 115/10/1 116/9/1
f 117/13/1 118/14/1 119/11/1 120/10/1
f 121/14/1 122/22/1 123/12/1 124/11/1
f 125/23/1 126/24/1 127/16/1 128/15/1
f 129/24/1 130/25/1 131/19/1 132/16/1
f 133/25/1 134/9/1 135/1/1 136/19/1
f 137/21/1 138/13/1 139/10/1 140/9/1
f 141/13/1 142/14/1 143/11/1 144/10/1
f 145/14/1 146/22/1 147/12/1 148/11/1
f 149/21/1 150/13/1 151/10/1 152/9/1
f 153/13/1 154/14/1 155/11/1 156/10/1
f 157/14/1 158/22/1 159/12/1 160/11/1
f 161/26/1 162/27/1 163/24/1 164/23/1
f 165/27/1 166/28/1 167/25/1 168/24/1
f 169/28/1 170/21/1 171/9/1 172/25/1
f 173/16/1 174/19/1 175/20/1 176/17/1
f 177/23/1 178/24/1 179/16/1 180/15/1
f 181/24/1 182/25/1 183/19/1 184/16/1
f 185/26/1 186/27/1 187/24/1 188/23/1
f 189/27/1 190/28/1 191/25/1 192/24/1

