# Tiled2Unity generated file. Do not modify by hand.
# Wavefront file for 'CoinCollecteMap2_mesh_0141.obj'

# Vertices (Count = 108)
v -38400 -134400 0
v -41600 -134400 0
v -41600 -131200 0
v -38400 -131200 0
v -41600 -134400 0
v -44800 -134400 0
v -44800 -131200 0
v -41600 -131200 0
v -44800 -134400 0
v -48000 -134400 0
v -48000 -131200 0
v -44800 -131200 0
v -48000 -134400 0
v -51200 -134400 0
v -51200 -131200 0
v -48000 -131200 0
v -51200 -134400 0
v -54400 -134400 0
v -54400 -131200 0
v -51200 -131200 0
v -54400 -134400 0
v -57600 -134400 0
v -57600 -131200 0
v -54400 -131200 0
v -38400 -137600 0
v -41600 -137600 0
v -41600 -134400 0
v -38400 -134400 0
v -41600 -137600 0
v -44800 -137600 0
v -44800 -134400 0
v -41600 -134400 0
v -44800 -137600 0
v -48000 -137600 0
v -48000 -134400 0
v -44800 -134400 0
v -48000 -137600 0
v -51200 -137600 0
v -51200 -134400 0
v -48000 -134400 0
v -51200 -137600 0
v -54400 -137600 0
v -54400 -134400 0
v -51200 -134400 0
v -54400 -137600 0
v -57600 -137600 0
v -57600 -134400 0
v -54400 -134400 0
v -89600 -137600 0
v -92800 -137600 0
v -92800 -134400 0
v -89600 -134400 0
v -92800 -137600 0
v -96000 -137600 0
v -96000 -134400 0
v -92800 -134400 0
v -96000 -137600 0
v -99200 -137600 0
v -99200 -134400 0
v -96000 -134400 0
v -38400 -140800 0
v -41600 -140800 0
v -41600 -137600 0
v -38400 -137600 0
v -41600 -140800 0
v -44800 -140800 0
v -44800 -137600 0
v -41600 -137600 0
v -44800 -140800 0
v -48000 -140800 0
v -48000 -137600 0
v -44800 -137600 0
v -48000 -140800 0
v -51200 -140800 0
v -51200 -137600 0
v -48000 -137600 0
v -51200 -140800 0
v -54400 -140800 0
v -54400 -137600 0
v -51200 -137600 0
v -54400 -140800 0
v -57600 -140800 0
v -57600 -137600 0
v -54400 -137600 0
v -89600 -140800 0
v -92800 -140800 0
v -92800 -137600 0
v -89600 -137600 0
v -92800 -140800 0
v -96000 -140800 0
v -96000 -137600 0
v -92800 -137600 0
v -96000 -140800 0
v -99200 -140800 0
v -99200 -137600 0
v -96000 -137600 0
v -89600 -144000 0
v -92800 -144000 0
v -92800 -140800 0
v -89600 -140800 0
v -92800 -144000 0
v -96000 -144000 0
v -96000 -140800 0
v -92800 -140800 0
v -96000 -144000 0
v -99200 -144000 0
v -99200 -140800 0
v -96000 -140800 0

# Texture cooridinates (Count = 28)
vt 0 0.6666666
vt 0.1666667 0.6666666
vt 0.1666667 1
vt 0 1
vt 0.3333333 0.6666666
vt 0.3333333 1
vt 0.5 0.6666666
vt 0.5 1
vt 0.6666667 0.6666666
vt 0.6666667 1
vt 0.8333333 0.6666666
vt 0.8333333 1
vt 1 0.6666666
vt 1 1
vt 0 0.3333333
vt 0.1666667 0.3333333
vt 0.3333333 0.3333333
vt 0.5 0.3333333
vt 0.6666667 0.3333333
vt 0.8333333 0.3333333
vt 1 0.3333333
vt 0 0
vt 0.1666667 0
vt 0.3333333 0
vt 0.5 0
vt 0.6666667 0
vt 0.8333333 0
vt 1 0

# Normal
vn 0 0 -1

# Mesh description
g CoinCollecteMap2_mesh_0141

# Faces
f 1/1/1 2/2/1 3/3/1 4/4/1
f 5/2/1 6/5/1 7/6/1 8/3/1
f 9/5/1 10/7/1 11/8/1 12/6/1
f 13/7/1 14/9/1 15/10/1 16/8/1
f 17/9/1 18/11/1 19/12/1 20/10/1
f 21/11/1 22/13/1 23/14/1 24/12/1
f 25/15/1 26/16/1 27/2/1 28/1/1
f 29/16/1 30/17/1 31/5/1 32/2/1
f 33/17/1 34/18/1 35/7/1 36/5/1
f 37/18/1 38/19/1 39/9/1 40/7/1
f 41/19/1 42/20/1 43/11/1 44/9/1
f 45/20/1 46/21/1 47/13/1 48/11/1
f 49/7/1 50/9/1 51/10/1 52/8/1
f 53/9/1 54/11/1 55/12/1 56/10/1
f 57/11/1 58/13/1 59/14/1 60/12/1
f 61/22/1 62/23/1 63/16/1 64/15/1
f 65/23/1 66/24/1 67/17/1 68/16/1
f 69/24/1 70/25/1 71/18/1 72/17/1
f 73/25/1 74/26/1 75/19/1 76/18/1
f 77/26/1 78/27/1 79/20/1 80/19/1
f 81/27/1 82/28/1 83/21/1 84/20/1
f 85/18/1 86/19/1 87/9/1 88/7/1
f 89/19/1 90/20/1 91/11/1 92/9/1
f 93/20/1 94/21/1 95/13/1 96/11/1
f 97/25/1 98/26/1 99/19/1 100/18/1
f 101/26/1 102/27/1 103/20/1 104/19/1
f 105/27/1 106/28/1 107/21/1 108/20/1

