# Tiled2Unity generated file. Do not modify by hand.
# Wavefront file for 'CoinCollecteMap2_mesh_0090.obj'

# Vertices (Count = 96)
v -6400 -224000 0
v -9600 -224000 0
v -9600 -220800 0
v -6400 -220800 0
v -9600 -224000 0
v -12800 -224000 0
v -12800 -220800 0
v -9600 -220800 0
v -12800 -224000 0
v -16000 -224000 0
v -16000 -220800 0
v -12800 -220800 0
v -121600 -224000 0
v -124800 -224000 0
v -124800 -220800 0
v -121600 -220800 0
v -124800 -224000 0
v -128000 -224000 0
v -128000 -220800 0
v -124800 -220800 0
v -128000 -224000 0
v -131200 -224000 0
v -131200 -220800 0
v -128000 -220800 0
v 0 -227200 0
v -3200 -227200 0
v -3200 -224000 0
v 0 -224000 0
v -3200 -227200 0
v -6400 -227200 0
v -6400 -224000 0
v -3200 -224000 0
v -6400 -227200 0
v -9600 -227200 0
v -9600 -224000 0
v -6400 -224000 0
v -9600 -227200 0
v -12800 -227200 0
v -12800 -224000 0
v -9600 -224000 0
v -12800 -227200 0
v -16000 -227200 0
v -16000 -224000 0
v -12800 -224000 0
v -121600 -227200 0
v -124800 -227200 0
v -124800 -224000 0
v -121600 -224000 0
v -124800 -227200 0
v -128000 -227200 0
v -128000 -224000 0
v -124800 -224000 0
v -128000 -227200 0
v -131200 -227200 0
v -131200 -224000 0
v -128000 -224000 0
v 0 -230400 0
v -3200 -230400 0
v -3200 -227200 0
v 0 -227200 0
v -3200 -230400 0
v -6400 -230400 0
v -6400 -227200 0
v -3200 -227200 0
v -6400 -230400 0
v -9600 -230400 0
v -9600 -227200 0
v -6400 -227200 0
v -9600 -230400 0
v -12800 -230400 0
v -12800 -227200 0
v -9600 -227200 0
v -12800 -230400 0
v -16000 -230400 0
v -16000 -227200 0
v -12800 -227200 0
v -121600 -230400 0
v -124800 -230400 0
v -124800 -227200 0
v -121600 -227200 0
v -124800 -230400 0
v -128000 -230400 0
v -128000 -227200 0
v -124800 -227200 0
v -128000 -230400 0
v -131200 -230400 0
v -131200 -227200 0
v -128000 -227200 0
v 0 -233600 0
v -3200 -233600 0
v -3200 -230400 0
v 0 -230400 0
v -3200 -233600 0
v -6400 -233600 0
v -6400 -230400 0
v -3200 -230400 0

# Texture cooridinates (Count = 31)
vt 0.5 0.8571429
vt 0.6666667 0.8571429
vt 0.6666667 1
vt 0.5 1
vt 0.8333333 0.8571429
vt 0.8333333 1
vt 1 0.8571429
vt 1 1
vt 0 0.4285714
vt 0.1666667 0.4285714
vt 0.1666667 0.5714285
vt 0 0.5714285
vt 0.3333333 0.4285714
vt 0.3333333 0.5714285
vt 0.5 0.4285714
vt 0.5 0.5714285
vt 0.5 0.7142857
vt 0.6666667 0.7142857
vt 0.8333333 0.7142857
vt 1 0.7142857
vt 0 0.2857143
vt 0.1666667 0.2857143
vt 0.3333333 0.2857143
vt 0.5 0.2857143
vt 0.6666667 0.5714285
vt 0.8333333 0.5714285
vt 1 0.5714285
vt 0 0.1428571
vt 0.1666667 0.1428571
vt 0.3333333 0.1428571
vt 0.5 0.1428571

# Normal
vn 0 0 -1

# Mesh description
g CoinCollecteMap2_mesh_0090

# Faces
f 1/1/1 2/2/1 3/3/1 4/4/1
f 5/2/1 6/5/1 7/6/1 8/3/1
f 9/5/1 10/7/1 11/8/1 12/6/1
f 13/9/1 14/10/1 15/11/1 16/12/1
f 17/10/1 18/13/1 19/14/1 20/11/1
f 21/13/1 22/15/1 23/16/1 24/14/1
f 25/10/1 26/13/1 27/14/1 28/11/1
f 29/13/1 30/15/1 31/16/1 32/14/1
f 33/17/1 34/18/1 35/2/1 36/1/1
f 37/18/1 38/19/1 39/5/1 40/2/1
f 41/19/1 42/20/1 43/7/1 44/5/1
f 45/21/1 46/22/1 47/10/1 48/9/1
f 49/22/1 50/23/1 51/13/1 52/10/1
f 53/23/1 54/24/1 55/15/1 56/13/1
f 57/22/1 58/23/1 59/13/1 60/10/1
f 61/23/1 62/24/1 63/15/1 64/13/1
f 65/16/1 66/25/1 67/18/1 68/17/1
f 69/25/1 70/26/1 71/19/1 72/18/1
f 73/26/1 74/27/1 75/20/1 76/19/1
f 77/28/1 78/29/1 79/22/1 80/21/1
f 81/29/1 82/30/1 83/23/1 84/22/1
f 85/30/1 86/31/1 87/24/1 88/23/1
f 89/29/1 90/30/1 91/23/1 92/22/1
f 93/30/1 94/31/1 95/24/1 96/23/1

