# Tiled2Unity generated file. Do not modify by hand.
# Wavefront file for 'CoinCollecteMap2_mesh_0018.obj'

# Vertices (Count = 164)
v -115200 -96000 0
v -118400 -96000 0
v -118400 -92800 0
v -115200 -92800 0
v -118400 -96000 0
v -121600 -96000 0
v -121600 -92800 0
v -118400 -92800 0
v -121600 -96000 0
v -124800 -96000 0
v -124800 -92800 0
v -121600 -92800 0
v 0 -99200 0
v -3200 -99200 0
v -3200 -96000 0
v 0 -96000 0
v -3200 -99200 0
v -6400 -99200 0
v -6400 -96000 0
v -3200 -96000 0
v -6400 -99200 0
v -9600 -99200 0
v -9600 -96000 0
v -6400 -96000 0
v -9600 -99200 0
v -12800 -99200 0
v -12800 -96000 0
v -9600 -96000 0
v -12800 -99200 0
v -16000 -99200 0
v -16000 -96000 0
v -12800 -96000 0
v -115200 -99200 0
v -118400 -99200 0
v -118400 -96000 0
v -115200 -96000 0
v -118400 -99200 0
v -121600 -99200 0
v -121600 -96000 0
v -118400 -96000 0
v -121600 -99200 0
v -124800 -99200 0
v -124800 -96000 0
v -121600 -96000 0
v 0 -102400 0
v -3200 -102400 0
v -3200 -99200 0
v 0 -99200 0
v -3200 -102400 0
v -6400 -102400 0
v -6400 -99200 0
v -3200 -99200 0
v -6400 -102400 0
v -9600 -102400 0
v -9600 -99200 0
v -6400 -99200 0
v -9600 -102400 0
v -12800 -102400 0
v -12800 -99200 0
v -9600 -99200 0
v -12800 -102400 0
v -16000 -102400 0
v -16000 -99200 0
v -12800 -99200 0
v -115200 -102400 0
v -118400 -102400 0
v -118400 -99200 0
v -115200 -99200 0
v -118400 -102400 0
v -121600 -102400 0
v -121600 -99200 0
v -118400 -99200 0
v -121600 -102400 0
v -124800 -102400 0
v -124800 -99200 0
v -121600 -99200 0
v -124800 -102400 0
v -128000 -102400 0
v -128000 -99200 0
v -124800 -99200 0
v -128000 -102400 0
v -131200 -102400 0
v -131200 -99200 0
v -128000 -99200 0
v -131200 -102400 0
v -134400 -102400 0
v -134400 -99200 0
v -131200 -99200 0
v 0 -105600 0
v -3200 -105600 0
v -3200 -102400 0
v 0 -102400 0
v -3200 -105600 0
v -6400 -105600 0
v -6400 -102400 0
v -3200 -102400 0
v -6400 -105600 0
v -9600 -105600 0
v -9600 -102400 0
v -6400 -102400 0
v -9600 -105600 0
v -12800 -105600 0
v -12800 -102400 0
v -9600 -102400 0
v -12800 -105600 0
v -16000 -105600 0
v -16000 -102400 0
v -12800 -102400 0
v -121600 -105600 0
v -124800 -105600 0
v -124800 -102400 0
v -121600 -102400 0
v -124800 -105600 0
v -128000 -105600 0
v -128000 -102400 0
v -124800 -102400 0
v -128000 -105600 0
v -131200 -105600 0
v -131200 -102400 0
v -128000 -102400 0
v -131200 -105600 0
v -134400 -105600 0
v -134400 -102400 0
v -131200 -102400 0
v -121600 -108800 0
v -124800 -108800 0
v -124800 -105600 0
v -121600 -105600 0
v -124800 -108800 0
v -128000 -108800 0
v -128000 -105600 0
v -124800 -105600 0
v -128000 -108800 0
v -131200 -108800 0
v -131200 -105600 0
v -128000 -105600 0
v -131200 -108800 0
v -134400 -108800 0
v -134400 -105600 0
v -131200 -105600 0
v -128000 -112000 0
v -131200 -112000 0
v -131200 -108800 0
v -128000 -108800 0
v -131200 -112000 0
v -134400 -112000 0
v -134400 -108800 0
v -131200 -108800 0
v -128000 -115200 0
v -131200 -115200 0
v -131200 -112000 0
v -128000 -112000 0
v -131200 -115200 0
v -134400 -115200 0
v -134400 -112000 0
v -131200 -112000 0
v -128000 -118400 0
v -131200 -118400 0
v -131200 -115200 0
v -128000 -115200 0
v -131200 -118400 0
v -134400 -118400 0
v -134400 -115200 0
v -131200 -115200 0

# Texture cooridinates (Count = 16)
vt 0.5 0.6666666
vt 0.6666667 0.6666666
vt 0.6666667 1
vt 0.5 1
vt 0.8333333 0.6666666
vt 0.8333333 1
vt 1 0.6666666
vt 1 1
vt 0.5 0.3333333
vt 0.6666667 0.3333333
vt 0.8333333 0.3333333
vt 1 0.3333333
vt 0.5 0
vt 0.6666667 0
vt 0.8333333 0
vt 1 0

# Normal
vn 0 0 -1

# Mesh description
g CoinCollecteMap2_mesh_0018

# Faces
f 1/1/1 2/2/1 3/3/1 4/4/1
f 5/2/1 6/5/1 7/6/1 8/3/1
f 9/5/1 10/7/1 11/8/1 12/6/1
f 13/2/1 14/5/1 15/6/1 16/3/1
f 17/5/1 18/7/1 19/8/1 20/6/1
f 21/1/1 22/2/1 23/3/1 24/4/1
f 25/2/1 26/5/1 27/6/1 28/3/1
f 29/5/1 30/7/1 31/8/1 32/6/1
f 33/9/1 34/10/1 35/2/1 36/1/1
f 37/10/1 38/11/1 39/5/1 40/2/1
f 41/11/1 42/12/1 43/7/1 44/5/1
f 45/10/1 46/11/1 47/5/1 48/2/1
f 49/11/1 50/12/1 51/7/1 52/5/1
f 53/9/1 54/10/1 55/2/1 56/1/1
f 57/10/1 58/11/1 59/5/1 60/2/1
f 61/11/1 62/12/1 63/7/1 64/5/1
f 65/13/1 66/14/1 67/10/1 68/9/1
f 69/14/1 70/15/1 71/11/1 72/10/1
f 73/1/1 74/2/1 75/3/1 76/4/1
f 77/2/1 78/5/1 79/6/1 80/3/1
f 81/5/1 82/7/1 83/8/1 84/6/1
f 85/1/1 86/2/1 87/3/1 88/4/1
f 89/14/1 90/15/1 91/11/1 92/10/1
f 93/15/1 94/16/1 95/12/1 96/11/1
f 97/13/1 98/14/1 99/10/1 100/9/1
f 101/14/1 102/15/1 103/11/1 104/10/1
f 105/15/1 106/16/1 107/12/1 108/11/1
f 109/9/1 110/10/1 111/2/1 112/1/1
f 113/10/1 114/11/1 115/5/1 116/2/1
f 117/11/1 118/12/1 119/7/1 120/5/1
f 121/9/1 122/10/1 123/2/1 124/1/1
f 125/13/1 126/14/1 127/10/1 128/9/1
f 129/14/1 130/15/1 131/11/1 132/10/1
f 133/15/1 134/16/1 135/12/1 136/11/1
f 137/13/1 138/14/1 139/10/1 140/9/1
f 141/1/1 142/2/1 143/3/1 144/4/1
f 145/2/1 146/5/1 147/6/1 148/3/1
f 149/9/1 150/10/1 151/2/1 152/1/1
f 153/10/1 154/11/1 155/5/1 156/2/1
f 157/13/1 158/14/1 159/10/1 160/9/1
f 161/14/1 162/15/1 163/11/1 164/10/1

