# Tiled2Unity generated file. Do not modify by hand.
# Wavefront file for 'CoinCollecteMap2_mesh_0178.obj'

# Vertices (Count = 108)
v -28800 -80000 0
v -32000 -80000 0
v -32000 -76800 0
v -28800 -76800 0
v -32000 -80000 0
v -35200 -80000 0
v -35200 -76800 0
v -32000 -76800 0
v -35200 -80000 0
v -38400 -80000 0
v -38400 -76800 0
v -35200 -76800 0
v -28800 -83200 0
v -32000 -83200 0
v -32000 -80000 0
v -28800 -80000 0
v -32000 -83200 0
v -35200 -83200 0
v -35200 -80000 0
v -32000 -80000 0
v -35200 -83200 0
v -38400 -83200 0
v -38400 -80000 0
v -35200 -80000 0
v -41600 -83200 0
v -44800 -83200 0
v -44800 -80000 0
v -41600 -80000 0
v -44800 -83200 0
v -48000 -83200 0
v -48000 -80000 0
v -44800 -80000 0
v -48000 -83200 0
v -51200 -83200 0
v -51200 -80000 0
v -48000 -80000 0
v -96000 -83200 0
v -99200 -83200 0
v -99200 -80000 0
v -96000 -80000 0
v -99200 -83200 0
v -102400 -83200 0
v -102400 -80000 0
v -99200 -80000 0
v -102400 -83200 0
v -105600 -83200 0
v -105600 -80000 0
v -102400 -80000 0
v -28800 -86400 0
v -32000 -86400 0
v -32000 -83200 0
v -28800 -83200 0
v -32000 -86400 0
v -35200 -86400 0
v -35200 -83200 0
v -32000 -83200 0
v -35200 -86400 0
v -38400 -86400 0
v -38400 -83200 0
v -35200 -83200 0
v -41600 -86400 0
v -44800 -86400 0
v -44800 -83200 0
v -41600 -83200 0
v -44800 -86400 0
v -48000 -86400 0
v -48000 -83200 0
v -44800 -83200 0
v -48000 -86400 0
v -51200 -86400 0
v -51200 -83200 0
v -48000 -83200 0
v -96000 -86400 0
v -99200 -86400 0
v -99200 -83200 0
v -96000 -83200 0
v -99200 -86400 0
v -102400 -86400 0
v -102400 -83200 0
v -99200 -83200 0
v -102400 -86400 0
v -105600 -86400 0
v -105600 -83200 0
v -102400 -83200 0
v -41600 -89600 0
v -44800 -89600 0
v -44800 -86400 0
v -41600 -86400 0
v -44800 -89600 0
v -48000 -89600 0
v -48000 -86400 0
v -44800 -86400 0
v -48000 -89600 0
v -51200 -89600 0
v -51200 -86400 0
v -48000 -86400 0
v -96000 -89600 0
v -99200 -89600 0
v -99200 -86400 0
v -96000 -86400 0
v -99200 -89600 0
v -102400 -89600 0
v -102400 -86400 0
v -99200 -86400 0
v -102400 -89600 0
v -105600 -89600 0
v -105600 -86400 0
v -102400 -86400 0

# Texture cooridinates (Count = 16)
vt 0 0.4285714
vt 0.1666667 0.4285714
vt 0.1666667 0.5714285
vt 0 0.5714285
vt 0.3333333 0.4285714
vt 0.3333333 0.5714285
vt 0.5 0.4285714
vt 0.5 0.5714285
vt 0 0.2857143
vt 0.1666667 0.2857143
vt 0.3333333 0.2857143
vt 0.5 0.2857143
vt 0 0.1428571
vt 0.1666667 0.1428571
vt 0.3333333 0.1428571
vt 0.5 0.1428571

# Normal
vn 0 0 -1

# Mesh description
g CoinCollecteMap2_mesh_0178

# Faces
f 1/1/1 2/2/1 3/3/1 4/4/1
f 5/2/1 6/5/1 7/6/1 8/3/1
f 9/5/1 10/7/1 11/8/1 12/6/1
f 13/9/1 14/10/1 15/2/1 16/1/1
f 17/10/1 18/11/1 19/5/1 20/2/1
f 21/11/1 22/12/1 23/7/1 24/5/1
f 25/1/1 26/2/1 27/3/1 28/4/1
f 29/2/1 30/5/1 31/6/1 32/3/1
f 33/5/1 34/7/1 35/8/1 36/6/1
f 37/1/1 38/2/1 39/3/1 40/4/1
f 41/2/1 42/5/1 43/6/1 44/3/1
f 45/5/1 46/7/1 47/8/1 48/6/1
f 49/13/1 50/14/1 51/10/1 52/9/1
f 53/14/1 54/15/1 55/11/1 56/10/1
f 57/15/1 58/16/1 59/12/1 60/11/1
f 61/9/1 62/10/1 63/2/1 64/1/1
f 65/10/1 66/11/1 67/5/1 68/2/1
f 69/11/1 70/12/1 71/7/1 72/5/1
f 73/9/1 74/10/1 75/2/1 76/1/1
f 77/10/1 78/11/1 79/5/1 80/2/1
f 81/11/1 82/12/1 83/7/1 84/5/1
f 85/13/1 86/14/1 87/10/1 88/9/1
f 89/14/1 90/15/1 91/11/1 92/10/1
f 93/15/1 94/16/1 95/12/1 96/11/1
f 97/13/1 98/14/1 99/10/1 100/9/1
f 101/14/1 102/15/1 103/11/1 104/10/1
f 105/15/1 106/16/1 107/12/1 108/11/1

