# Tiled2Unity generated file. Do not modify by hand.
# Wavefront file for 'CoinCollecteMap2_mesh_0134.obj'

# Vertices (Count = 216)
v -86400 -96000 0
v -89600 -96000 0
v -89600 -92800 0
v -86400 -92800 0
v -89600 -96000 0
v -92800 -96000 0
v -92800 -92800 0
v -89600 -92800 0
v -92800 -96000 0
v -96000 -96000 0
v -96000 -92800 0
v -92800 -92800 0
v -51200 -99200 0
v -54400 -99200 0
v -54400 -96000 0
v -51200 -96000 0
v -54400 -99200 0
v -57600 -99200 0
v -57600 -96000 0
v -54400 -96000 0
v -57600 -99200 0
v -60800 -99200 0
v -60800 -96000 0
v -57600 -96000 0
v -60800 -99200 0
v -64000 -99200 0
v -64000 -96000 0
v -60800 -96000 0
v -64000 -99200 0
v -67200 -99200 0
v -67200 -96000 0
v -64000 -96000 0
v -67200 -99200 0
v -70400 -99200 0
v -70400 -96000 0
v -67200 -96000 0
v -76800 -99200 0
v -80000 -99200 0
v -80000 -96000 0
v -76800 -96000 0
v -80000 -99200 0
v -83200 -99200 0
v -83200 -96000 0
v -80000 -96000 0
v -83200 -99200 0
v -86400 -99200 0
v -86400 -96000 0
v -83200 -96000 0
v -86400 -99200 0
v -89600 -99200 0
v -89600 -96000 0
v -86400 -96000 0
v -89600 -99200 0
v -92800 -99200 0
v -92800 -96000 0
v -89600 -96000 0
v -92800 -99200 0
v -96000 -99200 0
v -96000 -96000 0
v -92800 -96000 0
v -96000 -99200 0
v -99200 -99200 0
v -99200 -96000 0
v -96000 -96000 0
v -99200 -99200 0
v -102400 -99200 0
v -102400 -96000 0
v -99200 -96000 0
v -102400 -99200 0
v -105600 -99200 0
v -105600 -96000 0
v -102400 -96000 0
v -32000 -102400 0
v -35200 -102400 0
v -35200 -99200 0
v -32000 -99200 0
v -35200 -102400 0
v -38400 -102400 0
v -38400 -99200 0
v -35200 -99200 0
v -38400 -102400 0
v -41600 -102400 0
v -41600 -99200 0
v -38400 -99200 0
v -51200 -102400 0
v -54400 -102400 0
v -54400 -99200 0
v -51200 -99200 0
v -54400 -102400 0
v -57600 -102400 0
v -57600 -99200 0
v -54400 -99200 0
v -57600 -102400 0
v -60800 -102400 0
v -60800 -99200 0
v -57600 -99200 0
v -60800 -102400 0
v -64000 -102400 0
v -64000 -99200 0
v -60800 -99200 0
v -64000 -102400 0
v -67200 -102400 0
v -67200 -99200 0
v -64000 -99200 0
v -67200 -102400 0
v -70400 -102400 0
v -70400 -99200 0
v -67200 -99200 0
v -76800 -102400 0
v -80000 -102400 0
v -80000 -99200 0
v -76800 -99200 0
v -80000 -102400 0
v -83200 -102400 0
v -83200 -99200 0
v -80000 -99200 0
v -83200 -102400 0
v -86400 -102400 0
v -86400 -99200 0
v -83200 -99200 0
v -86400 -102400 0
v -89600 -102400 0
v -89600 -99200 0
v -86400 -99200 0
v -89600 -102400 0
v -92800 -102400 0
v -92800 -99200 0
v -89600 -99200 0
v -92800 -102400 0
v -96000 -102400 0
v -96000 -99200 0
v -92800 -99200 0
v -96000 -102400 0
v -99200 -102400 0
v -99200 -99200 0
v -96000 -99200 0
v -99200 -102400 0
v -102400 -102400 0
v -102400 -99200 0
v -99200 -99200 0
v -102400 -102400 0
v -105600 -102400 0
v -105600 -99200 0
v -102400 -99200 0
v -32000 -105600 0
v -35200 -105600 0
v -35200 -102400 0
v -32000 -102400 0
v -35200 -105600 0
v -38400 -105600 0
v -38400 -102400 0
v -35200 -102400 0
v -38400 -105600 0
v -41600 -105600 0
v -41600 -102400 0
v -38400 -102400 0
v -51200 -105600 0
v -54400 -105600 0
v -54400 -102400 0
v -51200 -102400 0
v -54400 -105600 0
v -57600 -105600 0
v -57600 -102400 0
v -54400 -102400 0
v -57600 -105600 0
v -60800 -105600 0
v -60800 -102400 0
v -57600 -102400 0
v -60800 -105600 0
v -64000 -105600 0
v -64000 -102400 0
v -60800 -102400 0
v -64000 -105600 0
v -67200 -105600 0
v -67200 -102400 0
v -64000 -102400 0
v -67200 -105600 0
v -70400 -105600 0
v -70400 -102400 0
v -67200 -102400 0
v -76800 -105600 0
v -80000 -105600 0
v -80000 -102400 0
v -76800 -102400 0
v -80000 -105600 0
v -83200 -105600 0
v -83200 -102400 0
v -80000 -102400 0
v -83200 -105600 0
v -86400 -105600 0
v -86400 -102400 0
v -83200 -102400 0
v -96000 -105600 0
v -99200 -105600 0
v -99200 -102400 0
v -96000 -102400 0
v -99200 -105600 0
v -102400 -105600 0
v -102400 -102400 0
v -99200 -102400 0
v -102400 -105600 0
v -105600 -105600 0
v -105600 -102400 0
v -102400 -102400 0
v -32000 -108800 0
v -35200 -108800 0
v -35200 -105600 0
v -32000 -105600 0
v -35200 -108800 0
v -38400 -108800 0
v -38400 -105600 0
v -35200 -105600 0
v -38400 -108800 0
v -41600 -108800 0
v -41600 -105600 0
v -38400 -105600 0

# Texture cooridinates (Count = 28)
vt 0.5 0.6666666
vt 0.6666667 0.6666666
vt 0.6666667 1
vt 0.5 1
vt 0.8333333 0.6666666
vt 0.8333333 1
vt 1 0.6666666
vt 1 1
vt 0 0.6666666
vt 0.1666667 0.6666666
vt 0.1666667 1
vt 0 1
vt 0.3333333 0.6666666
vt 0.3333333 1
vt 0.5 0.3333333
vt 0.6666667 0.3333333
vt 0.8333333 0.3333333
vt 1 0.3333333
vt 0 0.3333333
vt 0.1666667 0.3333333
vt 0.3333333 0.3333333
vt 0.5 0
vt 0.6666667 0
vt 0.8333333 0
vt 1 0
vt 0 0
vt 0.1666667 0
vt 0.3333333 0

# Normal
vn 0 0 -1

# Mesh description
g CoinCollecteMap2_mesh_0134

# Faces
f 1/1/1 2/2/1 3/3/1 4/4/1
f 5/2/1 6/5/1 7/6/1 8/3/1
f 9/5/1 10/7/1 11/8/1 12/6/1
f 13/1/1 14/2/1 15/3/1 16/4/1
f 17/2/1 18/5/1 19/6/1 20/3/1
f 21/5/1 22/7/1 23/8/1 24/6/1
f 25/9/1 26/10/1 27/11/1 28/12/1
f 29/10/1 30/13/1 31/14/1 32/11/1
f 33/13/1 34/1/1 35/4/1 36/14/1
f 37/1/1 38/2/1 39/3/1 40/4/1
f 41/2/1 42/5/1 43/6/1 44/3/1
f 45/5/1 46/7/1 47/8/1 48/6/1
f 49/15/1 50/16/1 51/2/1 52/1/1
f 53/16/1 54/17/1 55/5/1 56/2/1
f 57/17/1 58/18/1 59/7/1 60/5/1
f 61/1/1 62/2/1 63/3/1 64/4/1
f 65/2/1 66/5/1 67/6/1 68/3/1
f 69/5/1 70/7/1 71/8/1 72/6/1
f 73/1/1 74/2/1 75/3/1 76/4/1
f 77/2/1 78/5/1 79/6/1 80/3/1
f 81/5/1 82/7/1 83/8/1 84/6/1
f 85/15/1 86/16/1 87/2/1 88/1/1
f 89/16/1 90/17/1 91/5/1 92/2/1
f 93/17/1 94/18/1 95/7/1 96/5/1
f 97/19/1 98/20/1 99/10/1 100/9/1
f 101/20/1 102/21/1 103/13/1 104/10/1
f 105/21/1 106/15/1 107/1/1 108/13/1
f 109/15/1 110/16/1 111/2/1 112/1/1
f 113/16/1 114/17/1 115/5/1 116/2/1
f 117/17/1 118/18/1 119/7/1 120/5/1
f 121/22/1 122/23/1 123/16/1 124/15/1
f 125/23/1 126/24/1 127/17/1 128/16/1
f 129/24/1 130/25/1 131/18/1 132/17/1
f 133/15/1 134/16/1 135/2/1 136/1/1
f 137/16/1 138/17/1 139/5/1 140/2/1
f 141/17/1 142/18/1 143/7/1 144/5/1
f 145/15/1 146/16/1 147/2/1 148/1/1
f 149/16/1 150/17/1 151/5/1 152/2/1
f 153/17/1 154/18/1 155/7/1 156/5/1
f 157/22/1 158/23/1 159/16/1 160/15/1
f 161/23/1 162/24/1 163/17/1 164/16/1
f 165/24/1 166/25/1 167/18/1 168/17/1
f 169/26/1 170/27/1 171/20/1 172/19/1
f 173/27/1 174/28/1 175/21/1 176/20/1
f 177/28/1 178/22/1 179/15/1 180/21/1
f 181/22/1 182/23/1 183/16/1 184/15/1
f 185/23/1 186/24/1 187/17/1 188/16/1
f 189/24/1 190/25/1 191/18/1 192/17/1
f 193/22/1 194/23/1 195/16/1 196/15/1
f 197/23/1 198/24/1 199/17/1 200/16/1
f 201/24/1 202/25/1 203/18/1 204/17/1
f 205/22/1 206/23/1 207/16/1 208/15/1
f 209/23/1 210/24/1 211/17/1 212/16/1
f 213/24/1 214/25/1 215/18/1 216/17/1

