# Tiled2Unity generated file. Do not modify by hand.
# Wavefront file for 'CoinCollecteMap2_mesh_0174.obj'

# Vertices (Count = 144)
v -44800 -64000 0
v -48000 -64000 0
v -48000 -60800 0
v -44800 -60800 0
v -48000 -64000 0
v -51200 -64000 0
v -51200 -60800 0
v -48000 -60800 0
v -51200 -64000 0
v -54400 -64000 0
v -54400 -60800 0
v -51200 -60800 0
v -83200 -64000 0
v -86400 -64000 0
v -86400 -60800 0
v -83200 -60800 0
v -86400 -64000 0
v -89600 -64000 0
v -89600 -60800 0
v -86400 -60800 0
v -89600 -64000 0
v -92800 -64000 0
v -92800 -60800 0
v -89600 -60800 0
v -35200 -67200 0
v -38400 -67200 0
v -38400 -64000 0
v -35200 -64000 0
v -38400 -67200 0
v -41600 -67200 0
v -41600 -64000 0
v -38400 -64000 0
v -41600 -67200 0
v -44800 -67200 0
v -44800 -64000 0
v -41600 -64000 0
v -44800 -67200 0
v -48000 -67200 0
v -48000 -64000 0
v -44800 -64000 0
v -48000 -67200 0
v -51200 -67200 0
v -51200 -64000 0
v -48000 -64000 0
v -51200 -67200 0
v -54400 -67200 0
v -54400 -64000 0
v -51200 -64000 0
v -83200 -67200 0
v -86400 -67200 0
v -86400 -64000 0
v -83200 -64000 0
v -86400 -67200 0
v -89600 -67200 0
v -89600 -64000 0
v -86400 -64000 0
v -89600 -67200 0
v -92800 -67200 0
v -92800 -64000 0
v -89600 -64000 0
v -35200 -70400 0
v -38400 -70400 0
v -38400 -67200 0
v -35200 -67200 0
v -38400 -70400 0
v -41600 -70400 0
v -41600 -67200 0
v -38400 -67200 0
v -41600 -70400 0
v -44800 -70400 0
v -44800 -67200 0
v -41600 -67200 0
v -44800 -70400 0
v -48000 -70400 0
v -48000 -67200 0
v -44800 -67200 0
v -48000 -70400 0
v -51200 -70400 0
v -51200 -67200 0
v -48000 -67200 0
v -51200 -70400 0
v -54400 -70400 0
v -54400 -67200 0
v -51200 -67200 0
v -83200 -70400 0
v -86400 -70400 0
v -86400 -67200 0
v -83200 -67200 0
v -86400 -70400 0
v -89600 -70400 0
v -89600 -67200 0
v -86400 -67200 0
v -89600 -70400 0
v -92800 -70400 0
v -92800 -67200 0
v -89600 -67200 0
v -99200 -70400 0
v -102400 -70400 0
v -102400 -67200 0
v -99200 -67200 0
v -102400 -70400 0
v -105600 -70400 0
v -105600 -67200 0
v -102400 -67200 0
v -105600 -70400 0
v -108800 -70400 0
v -108800 -67200 0
v -105600 -67200 0
v -35200 -73600 0
v -38400 -73600 0
v -38400 -70400 0
v -35200 -70400 0
v -38400 -73600 0
v -41600 -73600 0
v -41600 -70400 0
v -38400 -70400 0
v -41600 -73600 0
v -44800 -73600 0
v -44800 -70400 0
v -41600 -70400 0
v -99200 -73600 0
v -102400 -73600 0
v -102400 -70400 0
v -99200 -70400 0
v -102400 -73600 0
v -105600 -73600 0
v -105600 -70400 0
v -102400 -70400 0
v -105600 -73600 0
v -108800 -73600 0
v -108800 -70400 0
v -105600 -70400 0
v -99200 -76800 0
v -102400 -76800 0
v -102400 -73600 0
v -99200 -73600 0
v -102400 -76800 0
v -105600 -76800 0
v -105600 -73600 0
v -102400 -73600 0
v -105600 -76800 0
v -108800 -76800 0
v -108800 -73600 0
v -105600 -73600 0

# Texture cooridinates (Count = 28)
vt 0 0.4285714
vt 0.1666667 0.4285714
vt 0.1666667 0.5714285
vt 0 0.5714285
vt 0.3333333 0.4285714
vt 0.3333333 0.5714285
vt 0.5 0.4285714
vt 0.5 0.5714285
vt 0 0.8571429
vt 0.1666667 0.8571429
vt 0.1666667 1
vt 0 1
vt 0.3333333 0.8571429
vt 0.3333333 1
vt 0.5 0.8571429
vt 0.5 1
vt 0 0.2857143
vt 0.1666667 0.2857143
vt 0.3333333 0.2857143
vt 0.5 0.2857143
vt 0 0.7142857
vt 0.1666667 0.7142857
vt 0.3333333 0.7142857
vt 0.5 0.7142857
vt 0 0.1428571
vt 0.1666667 0.1428571
vt 0.3333333 0.1428571
vt 0.5 0.1428571

# Normal
vn 0 0 -1

# Mesh description
g CoinCollecteMap2_mesh_0174

# Faces
f 1/1/1 2/2/1 3/3/1 4/4/1
f 5/2/1 6/5/1 7/6/1 8/3/1
f 9/5/1 10/7/1 11/8/1 12/6/1
f 13/1/1 14/2/1 15/3/1 16/4/1
f 17/2/1 18/5/1 19/6/1 20/3/1
f 21/5/1 22/7/1 23/8/1 24/6/1
f 25/9/1 26/10/1 27/11/1 28/12/1
f 29/10/1 30/13/1 31/14/1 32/11/1
f 33/13/1 34/15/1 35/16/1 36/14/1
f 37/17/1 38/18/1 39/2/1 40/1/1
f 41/18/1 42/19/1 43/5/1 44/2/1
f 45/19/1 46/20/1 47/7/1 48/5/1
f 49/17/1 50/18/1 51/2/1 52/1/1
f 53/18/1 54/19/1 55/5/1 56/2/1
f 57/19/1 58/20/1 59/7/1 60/5/1
f 61/21/1 62/22/1 63/10/1 64/9/1
f 65/22/1 66/23/1 67/13/1 68/10/1
f 69/23/1 70/24/1 71/15/1 72/13/1
f 73/25/1 74/26/1 75/18/1 76/17/1
f 77/26/1 78/27/1 79/19/1 80/18/1
f 81/27/1 82/28/1 83/20/1 84/19/1
f 85/25/1 86/26/1 87/18/1 88/17/1
f 89/26/1 90/27/1 91/19/1 92/18/1
f 93/27/1 94/28/1 95/20/1 96/19/1
f 97/9/1 98/10/1 99/11/1 100/12/1
f 101/10/1 102/13/1 103/14/1 104/11/1
f 105/13/1 106/15/1 107/16/1 108/14/1
f 109/4/1 110/3/1 111/22/1 112/21/1
f 113/3/1 114/6/1 115/23/1 116/22/1
f 117/6/1 118/8/1 119/24/1 120/23/1
f 121/21/1 122/22/1 123/10/1 124/9/1
f 125/22/1 126/23/1 127/13/1 128/10/1
f 129/23/1 130/24/1 131/15/1 132/13/1
f 133/4/1 134/3/1 135/22/1 136/21/1
f 137/3/1 138/6/1 139/23/1 140/22/1
f 141/6/1 142/8/1 143/24/1 144/23/1

