# Tiled2Unity generated file. Do not modify by hand.
# Wavefront file for 'CoinCollecteMap2_mesh_0100.obj'

# Vertices (Count = 44)
v -108800 -195200 0
v -112000 -195200 0
v -112000 -192000 0
v -108800 -192000 0
v -112000 -195200 0
v -115200 -195200 0
v -115200 -192000 0
v -112000 -192000 0
v -115200 -195200 0
v -118400 -195200 0
v -118400 -192000 0
v -115200 -192000 0
v -19200 -198400 0
v -22400 -198400 0
v -22400 -195200 0
v -19200 -195200 0
v -108800 -198400 0
v -112000 -198400 0
v -112000 -195200 0
v -108800 -195200 0
v -112000 -198400 0
v -115200 -198400 0
v -115200 -195200 0
v -112000 -195200 0
v -115200 -198400 0
v -118400 -198400 0
v -118400 -195200 0
v -115200 -195200 0
v -108800 -201600 0
v -112000 -201600 0
v -112000 -198400 0
v -108800 -198400 0
v -112000 -201600 0
v -115200 -201600 0
v -115200 -198400 0
v -112000 -198400 0
v -115200 -201600 0
v -118400 -201600 0
v -118400 -198400 0
v -115200 -198400 0
v -19200 -204800 0
v -22400 -204800 0
v -22400 -201600 0
v -19200 -201600 0

# Texture cooridinates (Count = 16)
vt 0.5 0.6666666
vt 0.6666667 0.6666666
vt 0.6666667 1
vt 0.5 1
vt 0.8333333 0.6666666
vt 0.8333333 1
vt 1 0.6666666
vt 1 1
vt 0.5 0.3333333
vt 0.6666667 0.3333333
vt 0.8333333 0.3333333
vt 1 0.3333333
vt 0.5 0
vt 0.6666667 0
vt 0.8333333 0
vt 1 0

# Normal
vn 0 0 -1

# Mesh description
g CoinCollecteMap2_mesh_0100

# Faces
f 1/1/1 2/2/1 3/3/1 4/4/1
f 5/2/1 6/5/1 7/6/1 8/3/1
f 9/5/1 10/7/1 11/8/1 12/6/1
f 13/5/1 14/7/1 15/8/1 16/6/1
f 17/9/1 18/10/1 19/2/1 20/1/1
f 21/10/1 22/11/1 23/5/1 24/2/1
f 25/11/1 26/12/1 27/7/1 28/5/1
f 29/13/1 30/14/1 31/10/1 32/9/1
f 33/14/1 34/15/1 35/11/1 36/10/1
f 37/15/1 38/16/1 39/12/1 40/11/1
f 41/15/1 42/16/1 43/12/1 44/11/1

