# Tiled2Unity generated file. Do not modify by hand.
# Wavefront file for 'CoinCollecteMap2_mesh_0078.obj'

# Vertices (Count = 108)
v 0 -172800 0
v -3200 -172800 0
v -3200 -169600 0
v 0 -169600 0
v -3200 -172800 0
v -6400 -172800 0
v -6400 -169600 0
v -3200 -169600 0
v -6400 -172800 0
v -9600 -172800 0
v -9600 -169600 0
v -6400 -169600 0
v 0 -176000 0
v -3200 -176000 0
v -3200 -172800 0
v 0 -172800 0
v -3200 -176000 0
v -6400 -176000 0
v -6400 -172800 0
v -3200 -172800 0
v -6400 -176000 0
v -9600 -176000 0
v -9600 -172800 0
v -6400 -172800 0
v -118400 -176000 0
v -121600 -176000 0
v -121600 -172800 0
v -118400 -172800 0
v -121600 -176000 0
v -124800 -176000 0
v -124800 -172800 0
v -121600 -172800 0
v -124800 -176000 0
v -128000 -176000 0
v -128000 -172800 0
v -124800 -172800 0
v -128000 -176000 0
v -131200 -176000 0
v -131200 -172800 0
v -128000 -172800 0
v -131200 -176000 0
v -134400 -176000 0
v -134400 -172800 0
v -131200 -172800 0
v 0 -179200 0
v -3200 -179200 0
v -3200 -176000 0
v 0 -176000 0
v -3200 -179200 0
v -6400 -179200 0
v -6400 -176000 0
v -3200 -176000 0
v -6400 -179200 0
v -9600 -179200 0
v -9600 -176000 0
v -6400 -176000 0
v -118400 -179200 0
v -121600 -179200 0
v -121600 -176000 0
v -118400 -176000 0
v -121600 -179200 0
v -124800 -179200 0
v -124800 -176000 0
v -121600 -176000 0
v -124800 -179200 0
v -128000 -179200 0
v -128000 -176000 0
v -124800 -176000 0
v -128000 -179200 0
v -131200 -179200 0
v -131200 -176000 0
v -128000 -176000 0
v -131200 -179200 0
v -134400 -179200 0
v -134400 -176000 0
v -131200 -176000 0
v 0 -182400 0
v -3200 -182400 0
v -3200 -179200 0
v 0 -179200 0
v -3200 -182400 0
v -6400 -182400 0
v -6400 -179200 0
v -3200 -179200 0
v -6400 -182400 0
v -9600 -182400 0
v -9600 -179200 0
v -6400 -179200 0
v -118400 -182400 0
v -121600 -182400 0
v -121600 -179200 0
v -118400 -179200 0
v -121600 -182400 0
v -124800 -182400 0
v -124800 -179200 0
v -121600 -179200 0
v -124800 -182400 0
v -128000 -182400 0
v -128000 -179200 0
v -124800 -179200 0
v -128000 -182400 0
v -131200 -182400 0
v -131200 -179200 0
v -128000 -179200 0
v -131200 -182400 0
v -134400 -182400 0
v -134400 -179200 0
v -131200 -179200 0

# Texture cooridinates (Count = 35)
vt 0.5 0.4285714
vt 0.6666667 0.4285714
vt 0.6666667 0.5714285
vt 0.5 0.5714285
vt 0.8333333 0.4285714
vt 0.8333333 0.5714285
vt 1 0.4285714
vt 1 0.5714285
vt 0.5 0.2857143
vt 0.6666667 0.2857143
vt 0.8333333 0.2857143
vt 1 0.2857143
vt 0 0.8571429
vt 0.1666667 0.8571429
vt 0.1666667 1
vt 0 1
vt 0.3333333 0.8571429
vt 0.3333333 1
vt 0.5 0.8571429
vt 0.5 1
vt 0.5 0.1428571
vt 0.6666667 0.1428571
vt 0.8333333 0.1428571
vt 1 0.1428571
vt 0 0.7142857
vt 0.1666667 0.7142857
vt 0.3333333 0.7142857
vt 0.5 0.7142857
vt 0.5 0
vt 0.6666667 0
vt 0.8333333 0
vt 1 0
vt 0 0.5714285
vt 0.1666667 0.5714285
vt 0.3333333 0.5714285

# Normal
vn 0 0 -1

# Mesh description
g CoinCollecteMap2_mesh_0078

# Faces
f 1/1/1 2/2/1 3/3/1 4/4/1
f 5/2/1 6/5/1 7/6/1 8/3/1
f 9/5/1 10/7/1 11/8/1 12/6/1
f 13/9/1 14/10/1 15/2/1 16/1/1
f 17/10/1 18/11/1 19/5/1 20/2/1
f 21/11/1 22/12/1 23/7/1 24/5/1
f 25/13/1 26/14/1 27/15/1 28/16/1
f 29/14/1 30/17/1 31/18/1 32/15/1
f 33/17/1 34/19/1 35/20/1 36/18/1
f 37/13/1 38/14/1 39/15/1 40/16/1
f 41/14/1 42/17/1 43/18/1 44/15/1
f 45/21/1 46/22/1 47/10/1 48/9/1
f 49/22/1 50/23/1 51/11/1 52/10/1
f 53/23/1 54/24/1 55/12/1 56/11/1
f 57/25/1 58/26/1 59/14/1 60/13/1
f 61/26/1 62/27/1 63/17/1 64/14/1
f 65/27/1 66/28/1 67/19/1 68/17/1
f 69/25/1 70/26/1 71/14/1 72/13/1
f 73/26/1 74/27/1 75/17/1 76/14/1
f 77/29/1 78/30/1 79/22/1 80/21/1
f 81/30/1 82/31/1 83/23/1 84/22/1
f 85/31/1 86/32/1 87/24/1 88/23/1
f 89/33/1 90/34/1 91/26/1 92/25/1
f 93/34/1 94/35/1 95/27/1 96/26/1
f 97/35/1 98/4/1 99/28/1 100/27/1
f 101/33/1 102/34/1 103/26/1 104/25/1
f 105/34/1 106/35/1 107/27/1 108/26/1

