# Tiled2Unity generated file. Do not modify by hand.
# Wavefront file for 'CoinCollecteMap2_mesh_0047.obj'

# Vertices (Count = 240)
v -16000 -3200 0
v -19200 -3200 0
v -19200 0 0
v -16000 0 0
v -19200 -3200 0
v -22400 -3200 0
v -22400 0 0
v -19200 0 0
v -22400 -3200 0
v -25600 -3200 0
v -25600 0 0
v -22400 0 0
v -38400 -3200 0
v -41600 -3200 0
v -41600 0 0
v -38400 0 0
v -41600 -3200 0
v -44800 -3200 0
v -44800 0 0
v -41600 0 0
v -44800 -3200 0
v -48000 -3200 0
v -48000 0 0
v -44800 0 0
v -57600 -3200 0
v -60800 -3200 0
v -60800 0 0
v -57600 0 0
v -60800 -3200 0
v -64000 -3200 0
v -64000 0 0
v -60800 0 0
v -64000 -3200 0
v -67200 -3200 0
v -67200 0 0
v -64000 0 0
v -80000 -3200 0
v -83200 -3200 0
v -83200 0 0
v -80000 0 0
v -83200 -3200 0
v -86400 -3200 0
v -86400 0 0
v -83200 0 0
v -86400 -3200 0
v -89600 -3200 0
v -89600 0 0
v -86400 0 0
v -99200 -3200 0
v -102400 -3200 0
v -102400 0 0
v -99200 0 0
v -102400 -3200 0
v -105600 -3200 0
v -105600 0 0
v -102400 0 0
v -105600 -3200 0
v -108800 -3200 0
v -108800 0 0
v -105600 0 0
v -115200 -3200 0
v -118400 -3200 0
v -118400 0 0
v -115200 0 0
v -118400 -3200 0
v -121600 -3200 0
v -121600 0 0
v -118400 0 0
v -121600 -3200 0
v -124800 -3200 0
v -124800 0 0
v -121600 0 0
v -128000 -3200 0
v -131200 -3200 0
v -131200 0 0
v -128000 0 0
v -131200 -3200 0
v -134400 -3200 0
v -134400 0 0
v -131200 0 0
v -16000 -6400 0
v -19200 -6400 0
v -19200 -3200 0
v -16000 -3200 0
v -19200 -6400 0
v -22400 -6400 0
v -22400 -3200 0
v -19200 -3200 0
v -22400 -6400 0
v -25600 -6400 0
v -25600 -3200 0
v -22400 -3200 0
v -38400 -6400 0
v -41600 -6400 0
v -41600 -3200 0
v -38400 -3200 0
v -41600 -6400 0
v -44800 -6400 0
v -44800 -3200 0
v -41600 -3200 0
v -44800 -6400 0
v -48000 -6400 0
v -48000 -3200 0
v -44800 -3200 0
v -57600 -6400 0
v -60800 -6400 0
v -60800 -3200 0
v -57600 -3200 0
v -60800 -6400 0
v -64000 -6400 0
v -64000 -3200 0
v -60800 -3200 0
v -64000 -6400 0
v -67200 -6400 0
v -67200 -3200 0
v -64000 -3200 0
v -80000 -6400 0
v -83200 -6400 0
v -83200 -3200 0
v -80000 -3200 0
v -83200 -6400 0
v -86400 -6400 0
v -86400 -3200 0
v -83200 -3200 0
v -86400 -6400 0
v -89600 -6400 0
v -89600 -3200 0
v -86400 -3200 0
v -99200 -6400 0
v -102400 -6400 0
v -102400 -3200 0
v -99200 -3200 0
v -102400 -6400 0
v -105600 -6400 0
v -105600 -3200 0
v -102400 -3200 0
v -105600 -6400 0
v -108800 -6400 0
v -108800 -3200 0
v -105600 -3200 0
v -115200 -6400 0
v -118400 -6400 0
v -118400 -3200 0
v -115200 -3200 0
v -118400 -6400 0
v -121600 -6400 0
v -121600 -3200 0
v -118400 -3200 0
v -121600 -6400 0
v -124800 -6400 0
v -124800 -3200 0
v -121600 -3200 0
v -128000 -6400 0
v -131200 -6400 0
v -131200 -3200 0
v -128000 -3200 0
v -131200 -6400 0
v -134400 -6400 0
v -134400 -3200 0
v -131200 -3200 0
v -16000 -9600 0
v -19200 -9600 0
v -19200 -6400 0
v -16000 -6400 0
v -19200 -9600 0
v -22400 -9600 0
v -22400 -6400 0
v -19200 -6400 0
v -22400 -9600 0
v -25600 -9600 0
v -25600 -6400 0
v -22400 -6400 0
v -38400 -9600 0
v -41600 -9600 0
v -41600 -6400 0
v -38400 -6400 0
v -41600 -9600 0
v -44800 -9600 0
v -44800 -6400 0
v -41600 -6400 0
v -44800 -9600 0
v -48000 -9600 0
v -48000 -6400 0
v -44800 -6400 0
v -57600 -9600 0
v -60800 -9600 0
v -60800 -6400 0
v -57600 -6400 0
v -60800 -9600 0
v -64000 -9600 0
v -64000 -6400 0
v -60800 -6400 0
v -64000 -9600 0
v -67200 -9600 0
v -67200 -6400 0
v -64000 -6400 0
v -80000 -9600 0
v -83200 -9600 0
v -83200 -6400 0
v -80000 -6400 0
v -83200 -9600 0
v -86400 -9600 0
v -86400 -6400 0
v -83200 -6400 0
v -86400 -9600 0
v -89600 -9600 0
v -89600 -6400 0
v -86400 -6400 0
v -99200 -9600 0
v -102400 -9600 0
v -102400 -6400 0
v -99200 -6400 0
v -102400 -9600 0
v -105600 -9600 0
v -105600 -6400 0
v -102400 -6400 0
v -105600 -9600 0
v -108800 -9600 0
v -108800 -6400 0
v -105600 -6400 0
v -115200 -9600 0
v -118400 -9600 0
v -118400 -6400 0
v -115200 -6400 0
v -118400 -9600 0
v -121600 -9600 0
v -121600 -6400 0
v -118400 -6400 0
v -121600 -9600 0
v -124800 -9600 0
v -124800 -6400 0
v -121600 -6400 0
v -128000 -9600 0
v -131200 -9600 0
v -131200 -6400 0
v -128000 -6400 0
v -131200 -9600 0
v -134400 -9600 0
v -134400 -6400 0
v -131200 -6400 0

# Texture cooridinates (Count = 29)
vt 0 0.4285714
vt 0.1666667 0.4285714
vt 0.1666667 0.5714285
vt 0 0.5714285
vt 0.3333333 0.4285714
vt 0.3333333 0.5714285
vt 0.5 0.4285714
vt 0.5 0.5714285
vt 0.5 0.2857143
vt 0.6666667 0.2857143
vt 0.6666667 0.4285714
vt 0.8333333 0.2857143
vt 0.8333333 0.4285714
vt 1 0.2857143
vt 1 0.4285714
vt 0 0.2857143
vt 0.1666667 0.2857143
vt 0.3333333 0.2857143
vt 0.5 0.1428571
vt 0.6666667 0.1428571
vt 0.8333333 0.1428571
vt 1 0.1428571
vt 0 0.1428571
vt 0.1666667 0.1428571
vt 0.3333333 0.1428571
vt 0.5 0
vt 0.6666667 0
vt 0.8333333 0
vt 1 0

# Normal
vn 0 0 -1

# Mesh description
g CoinCollecteMap2_mesh_0047

# Faces
f 1/1/1 2/2/1 3/3/1 4/4/1
f 5/2/1 6/5/1 7/6/1 8/3/1
f 9/5/1 10/7/1 11/8/1 12/6/1
f 13/9/1 14/10/1 15/11/1 16/7/1
f 17/10/1 18/12/1 19/13/1 20/11/1
f 21/12/1 22/14/1 23/15/1 24/13/1
f 25/9/1 26/10/1 27/11/1 28/7/1
f 29/10/1 30/12/1 31/13/1 32/11/1
f 33/12/1 34/14/1 35/15/1 36/13/1
f 37/9/1 38/10/1 39/11/1 40/7/1
f 41/10/1 42/12/1 43/13/1 44/11/1
f 45/12/1 46/14/1 47/15/1 48/13/1
f 49/9/1 50/10/1 51/11/1 52/7/1
f 53/10/1 54/12/1 55/13/1 56/11/1
f 57/12/1 58/14/1 59/15/1 60/13/1
f 61/9/1 62/10/1 63/11/1 64/7/1
f 65/10/1 66/12/1 67/13/1 68/11/1
f 69/12/1 70/14/1 71/15/1 72/13/1
f 73/9/1 74/10/1 75/11/1 76/7/1
f 77/10/1 78/12/1 79/13/1 80/11/1
f 81/16/1 82/17/1 83/2/1 84/1/1
f 85/17/1 86/18/1 87/5/1 88/2/1
f 89/18/1 90/9/1 91/7/1 92/5/1
f 93/19/1 94/20/1 95/10/1 96/9/1
f 97/20/1 98/21/1 99/12/1 100/10/1
f 101/21/1 102/22/1 103/14/1 104/12/1
f 105/19/1 106/20/1 107/10/1 108/9/1
f 109/20/1 110/21/1 111/12/1 112/10/1
f 113/21/1 114/22/1 115/14/1 116/12/1
f 117/19/1 118/20/1 119/10/1 120/9/1
f 121/20/1 122/21/1 123/12/1 124/10/1
f 125/21/1 126/22/1 127/14/1 128/12/1
f 129/19/1 130/20/1 131/10/1 132/9/1
f 133/20/1 134/21/1 135/12/1 136/10/1
f 137/21/1 138/22/1 139/14/1 140/12/1
f 141/19/1 142/20/1 143/10/1 144/9/1
f 145/20/1 146/21/1 147/12/1 148/10/1
f 149/21/1 150/22/1 151/14/1 152/12/1
f 153/19/1 154/20/1 155/10/1 156/9/1
f 157/20/1 158/21/1 159/12/1 160/10/1
f 161/23/1 162/24/1 163/17/1 164/16/1
f 165/24/1 166/25/1 167/18/1 168/17/1
f 169/25/1 170/19/1 171/9/1 172/18/1
f 173/26/1 174/27/1 175/20/1 176/19/1
f 177/27/1 178/28/1 179/21/1 180/20/1
f 181/28/1 182/29/1 183/22/1 184/21/1
f 185/26/1 186/27/1 187/20/1 188/19/1
f 189/27/1 190/28/1 191/21/1 192/20/1
f 193/28/1 194/29/1 195/22/1 196/21/1
f 197/26/1 198/27/1 199/20/1 200/19/1
f 201/27/1 202/28/1 203/21/1 204/20/1
f 205/28/1 206/29/1 207/22/1 208/21/1
f 209/26/1 210/27/1 211/20/1 212/19/1
f 213/27/1 214/28/1 215/21/1 216/20/1
f 217/28/1 218/29/1 219/22/1 220/21/1
f 221/26/1 222/27/1 223/20/1 224/19/1
f 225/27/1 226/28/1 227/21/1 228/20/1
f 229/28/1 230/29/1 231/22/1 232/21/1
f 233/26/1 234/27/1 235/20/1 236/19/1
f 237/27/1 238/28/1 239/21/1 240/20/1

