# Tiled2Unity generated file. Do not modify by hand.
# Wavefront file for 'CoinCollecteMap2_mesh_0003.obj'

# Vertices (Count = 216)
v -9600 -3200 0
v -12800 -3200 0
v -12800 0 0
v -9600 0 0
v -12800 -3200 0
v -16000 -3200 0
v -16000 0 0
v -12800 0 0
v -16000 -3200 0
v -19200 -3200 0
v -19200 0 0
v -16000 0 0
v -28800 -3200 0
v -32000 -3200 0
v -32000 0 0
v -28800 0 0
v -32000 -3200 0
v -35200 -3200 0
v -35200 0 0
v -32000 0 0
v -35200 -3200 0
v -38400 -3200 0
v -38400 0 0
v -35200 0 0
v -44800 -3200 0
v -48000 -3200 0
v -48000 0 0
v -44800 0 0
v -48000 -3200 0
v -51200 -3200 0
v -51200 0 0
v -48000 0 0
v -51200 -3200 0
v -54400 -3200 0
v -54400 0 0
v -51200 0 0
v -70400 -3200 0
v -73600 -3200 0
v -73600 0 0
v -70400 0 0
v -73600 -3200 0
v -76800 -3200 0
v -76800 0 0
v -73600 0 0
v -76800 -3200 0
v -80000 -3200 0
v -80000 0 0
v -76800 0 0
v -92800 -3200 0
v -96000 -3200 0
v -96000 0 0
v -92800 0 0
v -96000 -3200 0
v -99200 -3200 0
v -99200 0 0
v -96000 0 0
v -99200 -3200 0
v -102400 -3200 0
v -102400 0 0
v -99200 0 0
v -108800 -3200 0
v -112000 -3200 0
v -112000 0 0
v -108800 0 0
v -112000 -3200 0
v -115200 -3200 0
v -115200 0 0
v -112000 0 0
v -115200 -3200 0
v -118400 -3200 0
v -118400 0 0
v -115200 0 0
v -124800 -3200 0
v -128000 -3200 0
v -128000 0 0
v -124800 0 0
v -128000 -3200 0
v -131200 -3200 0
v -131200 0 0
v -128000 0 0
v -131200 -3200 0
v -134400 -3200 0
v -134400 0 0
v -131200 0 0
v -9600 -6400 0
v -12800 -6400 0
v -12800 -3200 0
v -9600 -3200 0
v -12800 -6400 0
v -16000 -6400 0
v -16000 -3200 0
v -12800 -3200 0
v -16000 -6400 0
v -19200 -6400 0
v -19200 -3200 0
v -16000 -3200 0
v -28800 -6400 0
v -32000 -6400 0
v -32000 -3200 0
v -28800 -3200 0
v -32000 -6400 0
v -35200 -6400 0
v -35200 -3200 0
v -32000 -3200 0
v -35200 -6400 0
v -38400 -6400 0
v -38400 -3200 0
v -35200 -3200 0
v -44800 -6400 0
v -48000 -6400 0
v -48000 -3200 0
v -44800 -3200 0
v -48000 -6400 0
v -51200 -6400 0
v -51200 -3200 0
v -48000 -3200 0
v -51200 -6400 0
v -54400 -6400 0
v -54400 -3200 0
v -51200 -3200 0
v -70400 -6400 0
v -73600 -6400 0
v -73600 -3200 0
v -70400 -3200 0
v -73600 -6400 0
v -76800 -6400 0
v -76800 -3200 0
v -73600 -3200 0
v -76800 -6400 0
v -80000 -6400 0
v -80000 -3200 0
v -76800 -3200 0
v -92800 -6400 0
v -96000 -6400 0
v -96000 -3200 0
v -92800 -3200 0
v -96000 -6400 0
v -99200 -6400 0
v -99200 -3200 0
v -96000 -3200 0
v -99200 -6400 0
v -102400 -6400 0
v -102400 -3200 0
v -99200 -3200 0
v -108800 -6400 0
v -112000 -6400 0
v -112000 -3200 0
v -108800 -3200 0
v -112000 -6400 0
v -115200 -6400 0
v -115200 -3200 0
v -112000 -3200 0
v -115200 -6400 0
v -118400 -6400 0
v -118400 -3200 0
v -115200 -3200 0
v -124800 -6400 0
v -128000 -6400 0
v -128000 -3200 0
v -124800 -3200 0
v -128000 -6400 0
v -131200 -6400 0
v -131200 -3200 0
v -128000 -3200 0
v -131200 -6400 0
v -134400 -6400 0
v -134400 -3200 0
v -131200 -3200 0
v -9600 -9600 0
v -12800 -9600 0
v -12800 -6400 0
v -9600 -6400 0
v -12800 -9600 0
v -16000 -9600 0
v -16000 -6400 0
v -12800 -6400 0
v -16000 -9600 0
v -19200 -9600 0
v -19200 -6400 0
v -16000 -6400 0
v -28800 -9600 0
v -32000 -9600 0
v -32000 -6400 0
v -28800 -6400 0
v -32000 -9600 0
v -35200 -9600 0
v -35200 -6400 0
v -32000 -6400 0
v -35200 -9600 0
v -38400 -9600 0
v -38400 -6400 0
v -35200 -6400 0
v -70400 -9600 0
v -73600 -9600 0
v -73600 -6400 0
v -70400 -6400 0
v -73600 -9600 0
v -76800 -9600 0
v -76800 -6400 0
v -73600 -6400 0
v -76800 -9600 0
v -80000 -9600 0
v -80000 -6400 0
v -76800 -6400 0
v -108800 -9600 0
v -112000 -9600 0
v -112000 -6400 0
v -108800 -6400 0
v -112000 -9600 0
v -115200 -9600 0
v -115200 -6400 0
v -112000 -6400 0
v -115200 -9600 0
v -118400 -9600 0
v -118400 -6400 0
v -115200 -6400 0

# Texture cooridinates (Count = 28)
vt 0.5 0.6666666
vt 0.6666667 0.6666666
vt 0.6666667 1
vt 0.5 1
vt 0.8333333 0.6666666
vt 0.8333333 1
vt 1 0.6666666
vt 1 1
vt 0.5 0.3333333
vt 0.6666667 0.3333333
vt 0.8333333 0.3333333
vt 1 0.3333333
vt 0 0.6666666
vt 0.1666667 0.6666666
vt 0.1666667 1
vt 0 1
vt 0.3333333 0.6666666
vt 0.3333333 1
vt 0.5 0
vt 0.6666667 0
vt 0.8333333 0
vt 1 0
vt 0 0.3333333
vt 0.1666667 0.3333333
vt 0.3333333 0.3333333
vt 0 0
vt 0.1666667 0
vt 0.3333333 0

# Normal
vn 0 0 -1

# Mesh description
g CoinCollecteMap2_mesh_0003

# Faces
f 1/1/1 2/2/1 3/3/1 4/4/1
f 5/2/1 6/5/1 7/6/1 8/3/1
f 9/5/1 10/7/1 11/8/1 12/6/1
f 13/1/1 14/2/1 15/3/1 16/4/1
f 17/2/1 18/5/1 19/6/1 20/3/1
f 21/5/1 22/7/1 23/8/1 24/6/1
f 25/9/1 26/10/1 27/2/1 28/1/1
f 29/10/1 30/11/1 31/5/1 32/2/1
f 33/11/1 34/12/1 35/7/1 36/5/1
f 37/1/1 38/2/1 39/3/1 40/4/1
f 41/2/1 42/5/1 43/6/1 44/3/1
f 45/5/1 46/7/1 47/8/1 48/6/1
f 49/9/1 50/10/1 51/2/1 52/1/1
f 53/10/1 54/11/1 55/5/1 56/2/1
f 57/11/1 58/12/1 59/7/1 60/5/1
f 61/13/1 62/14/1 63/15/1 64/16/1
f 65/14/1 66/17/1 67/18/1 68/15/1
f 69/17/1 70/1/1 71/4/1 72/18/1
f 73/9/1 74/10/1 75/2/1 76/1/1
f 77/10/1 78/11/1 79/5/1 80/2/1
f 81/11/1 82/12/1 83/7/1 84/5/1
f 85/9/1 86/10/1 87/2/1 88/1/1
f 89/10/1 90/11/1 91/5/1 92/2/1
f 93/11/1 94/12/1 95/7/1 96/5/1
f 97/9/1 98/10/1 99/2/1 100/1/1
f 101/10/1 102/11/1 103/5/1 104/2/1
f 105/11/1 106/12/1 107/7/1 108/5/1
f 109/19/1 110/20/1 111/10/1 112/9/1
f 113/20/1 114/21/1 115/11/1 116/10/1
f 117/21/1 118/22/1 119/12/1 120/11/1
f 121/9/1 122/10/1 123/2/1 124/1/1
f 125/10/1 126/11/1 127/5/1 128/2/1
f 129/11/1 130/12/1 131/7/1 132/5/1
f 133/19/1 134/20/1 135/10/1 136/9/1
f 137/20/1 138/21/1 139/11/1 140/10/1
f 141/21/1 142/22/1 143/12/1 144/11/1
f 145/23/1 146/24/1 147/14/1 148/13/1
f 149/24/1 150/25/1 151/17/1 152/14/1
f 153/25/1 154/9/1 155/1/1 156/17/1
f 157/19/1 158/20/1 159/10/1 160/9/1
f 161/20/1 162/21/1 163/11/1 164/10/1
f 165/21/1 166/22/1 167/12/1 168/11/1
f 169/19/1 170/20/1 171/10/1 172/9/1
f 173/20/1 174/21/1 175/11/1 176/10/1
f 177/21/1 178/22/1 179/12/1 180/11/1
f 181/19/1 182/20/1 183/10/1 184/9/1
f 185/20/1 186/21/1 187/11/1 188/10/1
f 189/21/1 190/22/1 191/12/1 192/11/1
f 193/19/1 194/20/1 195/10/1 196/9/1
f 197/20/1 198/21/1 199/11/1 200/10/1
f 201/21/1 202/22/1 203/12/1 204/11/1
f 205/26/1 206/27/1 207/24/1 208/23/1
f 209/27/1 210/28/1 211/25/1 212/24/1
f 213/28/1 214/19/1 215/9/1 216/25/1

