# Tiled2Unity generated file. Do not modify by hand.
# Wavefront file for 'CoinCollecteMap2_mesh_0158.obj'

# Vertices (Count = 108)
v -54400 -185600 0
v -57600 -185600 0
v -57600 -182400 0
v -54400 -182400 0
v -57600 -185600 0
v -60800 -185600 0
v -60800 -182400 0
v -57600 -182400 0
v -60800 -185600 0
v -64000 -185600 0
v -64000 -182400 0
v -60800 -182400 0
v -64000 -185600 0
v -67200 -185600 0
v -67200 -182400 0
v -64000 -182400 0
v -67200 -185600 0
v -70400 -185600 0
v -70400 -182400 0
v -67200 -182400 0
v -70400 -185600 0
v -73600 -185600 0
v -73600 -182400 0
v -70400 -182400 0
v -54400 -188800 0
v -57600 -188800 0
v -57600 -185600 0
v -54400 -185600 0
v -57600 -188800 0
v -60800 -188800 0
v -60800 -185600 0
v -57600 -185600 0
v -60800 -188800 0
v -64000 -188800 0
v -64000 -185600 0
v -60800 -185600 0
v -64000 -188800 0
v -67200 -188800 0
v -67200 -185600 0
v -64000 -185600 0
v -67200 -188800 0
v -70400 -188800 0
v -70400 -185600 0
v -67200 -185600 0
v -70400 -188800 0
v -73600 -188800 0
v -73600 -185600 0
v -70400 -185600 0
v -80000 -188800 0
v -83200 -188800 0
v -83200 -185600 0
v -80000 -185600 0
v -83200 -188800 0
v -86400 -188800 0
v -86400 -185600 0
v -83200 -185600 0
v -86400 -188800 0
v -89600 -188800 0
v -89600 -185600 0
v -86400 -185600 0
v -54400 -192000 0
v -57600 -192000 0
v -57600 -188800 0
v -54400 -188800 0
v -57600 -192000 0
v -60800 -192000 0
v -60800 -188800 0
v -57600 -188800 0
v -60800 -192000 0
v -64000 -192000 0
v -64000 -188800 0
v -60800 -188800 0
v -64000 -192000 0
v -67200 -192000 0
v -67200 -188800 0
v -64000 -188800 0
v -67200 -192000 0
v -70400 -192000 0
v -70400 -188800 0
v -67200 -188800 0
v -70400 -192000 0
v -73600 -192000 0
v -73600 -188800 0
v -70400 -188800 0
v -80000 -192000 0
v -83200 -192000 0
v -83200 -188800 0
v -80000 -188800 0
v -83200 -192000 0
v -86400 -192000 0
v -86400 -188800 0
v -83200 -188800 0
v -86400 -192000 0
v -89600 -192000 0
v -89600 -188800 0
v -86400 -188800 0
v -80000 -195200 0
v -83200 -195200 0
v -83200 -192000 0
v -80000 -192000 0
v -83200 -195200 0
v -86400 -195200 0
v -86400 -192000 0
v -83200 -192000 0
v -86400 -195200 0
v -89600 -195200 0
v -89600 -192000 0
v -86400 -192000 0

# Texture cooridinates (Count = 16)
vt 0 0.6666666
vt 0.1666667 0.6666666
vt 0.1666667 1
vt 0 1
vt 0.3333333 0.6666666
vt 0.3333333 1
vt 0.5 0.6666666
vt 0.5 1
vt 0 0.3333333
vt 0.1666667 0.3333333
vt 0.3333333 0.3333333
vt 0.5 0.3333333
vt 0 0
vt 0.1666667 0
vt 0.3333333 0
vt 0.5 0

# Normal
vn 0 0 -1

# Mesh description
g CoinCollecteMap2_mesh_0158

# Faces
f 1/1/1 2/2/1 3/3/1 4/4/1
f 5/2/1 6/5/1 7/6/1 8/3/1
f 9/5/1 10/7/1 11/8/1 12/6/1
f 13/1/1 14/2/1 15/3/1 16/4/1
f 17/2/1 18/5/1 19/6/1 20/3/1
f 21/5/1 22/7/1 23/8/1 24/6/1
f 25/9/1 26/10/1 27/2/1 28/1/1
f 29/10/1 30/11/1 31/5/1 32/2/1
f 33/11/1 34/12/1 35/7/1 36/5/1
f 37/9/1 38/10/1 39/2/1 40/1/1
f 41/10/1 42/11/1 43/5/1 44/2/1
f 45/11/1 46/12/1 47/7/1 48/5/1
f 49/1/1 50/2/1 51/3/1 52/4/1
f 53/2/1 54/5/1 55/6/1 56/3/1
f 57/5/1 58/7/1 59/8/1 60/6/1
f 61/13/1 62/14/1 63/10/1 64/9/1
f 65/14/1 66/15/1 67/11/1 68/10/1
f 69/15/1 70/16/1 71/12/1 72/11/1
f 73/13/1 74/14/1 75/10/1 76/9/1
f 77/14/1 78/15/1 79/11/1 80/10/1
f 81/15/1 82/16/1 83/12/1 84/11/1
f 85/9/1 86/10/1 87/2/1 88/1/1
f 89/10/1 90/11/1 91/5/1 92/2/1
f 93/11/1 94/12/1 95/7/1 96/5/1
f 97/13/1 98/14/1 99/10/1 100/9/1
f 101/14/1 102/15/1 103/11/1 104/10/1
f 105/15/1 106/16/1 107/12/1 108/11/1

