# Tiled2Unity generated file. Do not modify by hand.
# Wavefront file for 'CoinCollecteMap2_mesh_0017.obj'

# Vertices (Count = 140)
v -9600 -86400 0
v -12800 -86400 0
v -12800 -83200 0
v -9600 -83200 0
v -12800 -86400 0
v -16000 -86400 0
v -16000 -83200 0
v -12800 -83200 0
v -16000 -86400 0
v -19200 -86400 0
v -19200 -83200 0
v -16000 -83200 0
v -118400 -86400 0
v -121600 -86400 0
v -121600 -83200 0
v -118400 -83200 0
v -121600 -86400 0
v -124800 -86400 0
v -124800 -83200 0
v -121600 -83200 0
v -124800 -86400 0
v -128000 -86400 0
v -128000 -83200 0
v -124800 -83200 0
v 0 -89600 0
v -3200 -89600 0
v -3200 -86400 0
v 0 -86400 0
v -3200 -89600 0
v -6400 -89600 0
v -6400 -86400 0
v -3200 -86400 0
v -6400 -89600 0
v -9600 -89600 0
v -9600 -86400 0
v -6400 -86400 0
v -9600 -89600 0
v -12800 -89600 0
v -12800 -86400 0
v -9600 -86400 0
v -12800 -89600 0
v -16000 -89600 0
v -16000 -86400 0
v -12800 -86400 0
v -16000 -89600 0
v -19200 -89600 0
v -19200 -86400 0
v -16000 -86400 0
v -118400 -89600 0
v -121600 -89600 0
v -121600 -86400 0
v -118400 -86400 0
v -121600 -89600 0
v -124800 -89600 0
v -124800 -86400 0
v -121600 -86400 0
v -124800 -89600 0
v -128000 -89600 0
v -128000 -86400 0
v -124800 -86400 0
v 0 -92800 0
v -3200 -92800 0
v -3200 -89600 0
v 0 -89600 0
v -3200 -92800 0
v -6400 -92800 0
v -6400 -89600 0
v -3200 -89600 0
v -6400 -92800 0
v -9600 -92800 0
v -9600 -89600 0
v -6400 -89600 0
v -9600 -92800 0
v -12800 -92800 0
v -12800 -89600 0
v -9600 -89600 0
v -12800 -92800 0
v -16000 -92800 0
v -16000 -89600 0
v -12800 -89600 0
v -16000 -92800 0
v -19200 -92800 0
v -19200 -89600 0
v -16000 -89600 0
v -118400 -92800 0
v -121600 -92800 0
v -121600 -89600 0
v -118400 -89600 0
v -121600 -92800 0
v -124800 -92800 0
v -124800 -89600 0
v -121600 -89600 0
v -124800 -92800 0
v -128000 -92800 0
v -128000 -89600 0
v -124800 -89600 0
v -128000 -92800 0
v -131200 -92800 0
v -131200 -89600 0
v -128000 -89600 0
v -131200 -92800 0
v -134400 -92800 0
v -134400 -89600 0
v -131200 -89600 0
v 0 -96000 0
v -3200 -96000 0
v -3200 -92800 0
v 0 -92800 0
v -3200 -96000 0
v -6400 -96000 0
v -6400 -92800 0
v -3200 -92800 0
v -6400 -96000 0
v -9600 -96000 0
v -9600 -92800 0
v -6400 -92800 0
v -124800 -96000 0
v -128000 -96000 0
v -128000 -92800 0
v -124800 -92800 0
v -128000 -96000 0
v -131200 -96000 0
v -131200 -92800 0
v -128000 -92800 0
v -131200 -96000 0
v -134400 -96000 0
v -134400 -92800 0
v -131200 -92800 0
v -124800 -99200 0
v -128000 -99200 0
v -128000 -96000 0
v -124800 -96000 0
v -128000 -99200 0
v -131200 -99200 0
v -131200 -96000 0
v -128000 -96000 0
v -131200 -99200 0
v -134400 -99200 0
v -134400 -96000 0
v -131200 -96000 0

# Texture cooridinates (Count = 16)
vt 0.5 0.6666666
vt 0.6666667 0.6666666
vt 0.6666667 1
vt 0.5 1
vt 0.8333333 0.6666666
vt 0.8333333 1
vt 1 0.6666666
vt 1 1
vt 0.5 0.3333333
vt 0.6666667 0.3333333
vt 0.8333333 0.3333333
vt 1 0.3333333
vt 0.5 0
vt 0.6666667 0
vt 0.8333333 0
vt 1 0

# Normal
vn 0 0 -1

# Mesh description
g CoinCollecteMap2_mesh_0017

# Faces
f 1/1/1 2/2/1 3/3/1 4/4/1
f 5/2/1 6/5/1 7/6/1 8/3/1
f 9/5/1 10/7/1 11/8/1 12/6/1
f 13/1/1 14/2/1 15/3/1 16/4/1
f 17/2/1 18/5/1 19/6/1 20/3/1
f 21/5/1 22/7/1 23/8/1 24/6/1
f 25/1/1 26/2/1 27/3/1 28/4/1
f 29/2/1 30/5/1 31/6/1 32/3/1
f 33/5/1 34/7/1 35/8/1 36/6/1
f 37/9/1 38/10/1 39/2/1 40/1/1
f 41/10/1 42/11/1 43/5/1 44/2/1
f 45/11/1 46/12/1 47/7/1 48/5/1
f 49/9/1 50/10/1 51/2/1 52/1/1
f 53/10/1 54/11/1 55/5/1 56/2/1
f 57/11/1 58/12/1 59/7/1 60/5/1
f 61/9/1 62/10/1 63/2/1 64/1/1
f 65/10/1 66/11/1 67/5/1 68/2/1
f 69/11/1 70/12/1 71/7/1 72/5/1
f 73/13/1 74/14/1 75/10/1 76/9/1
f 77/14/1 78/15/1 79/11/1 80/10/1
f 81/15/1 82/16/1 83/12/1 84/11/1
f 85/13/1 86/14/1 87/10/1 88/9/1
f 89/14/1 90/15/1 91/11/1 92/10/1
f 93/1/1 94/2/1 95/3/1 96/4/1
f 97/2/1 98/5/1 99/6/1 100/3/1
f 101/5/1 102/7/1 103/8/1 104/6/1
f 105/13/1 106/14/1 107/10/1 108/9/1
f 109/14/1 110/15/1 111/11/1 112/10/1
f 113/15/1 114/16/1 115/12/1 116/11/1
f 117/9/1 118/10/1 119/2/1 120/1/1
f 121/10/1 122/11/1 123/5/1 124/2/1
f 125/11/1 126/12/1 127/7/1 128/5/1
f 129/13/1 130/14/1 131/10/1 132/9/1
f 133/14/1 134/15/1 135/11/1 136/10/1
f 137/15/1 138/16/1 139/12/1 140/11/1

