# Tiled2Unity generated file. Do not modify by hand.
# Wavefront file for 'CoinCollecteMap2_mesh_0004.obj'

# Vertices (Count = 276)
v 0 -6400 0
v -3200 -6400 0
v -3200 -3200 0
v 0 -3200 0
v -3200 -6400 0
v -6400 -6400 0
v -6400 -3200 0
v -3200 -3200 0
v -6400 -6400 0
v -9600 -6400 0
v -9600 -3200 0
v -6400 -3200 0
v -16000 -6400 0
v -19200 -6400 0
v -19200 -3200 0
v -16000 -3200 0
v -19200 -6400 0
v -22400 -6400 0
v -22400 -3200 0
v -19200 -3200 0
v -22400 -6400 0
v -25600 -6400 0
v -25600 -3200 0
v -22400 -3200 0
v -38400 -6400 0
v -41600 -6400 0
v -41600 -3200 0
v -38400 -3200 0
v -41600 -6400 0
v -44800 -6400 0
v -44800 -3200 0
v -41600 -3200 0
v -44800 -6400 0
v -48000 -6400 0
v -48000 -3200 0
v -44800 -3200 0
v -57600 -6400 0
v -60800 -6400 0
v -60800 -3200 0
v -57600 -3200 0
v -60800 -6400 0
v -64000 -6400 0
v -64000 -3200 0
v -60800 -3200 0
v -64000 -6400 0
v -67200 -6400 0
v -67200 -3200 0
v -64000 -3200 0
v -80000 -6400 0
v -83200 -6400 0
v -83200 -3200 0
v -80000 -3200 0
v -83200 -6400 0
v -86400 -6400 0
v -86400 -3200 0
v -83200 -3200 0
v -86400 -6400 0
v -89600 -6400 0
v -89600 -3200 0
v -86400 -3200 0
v -99200 -6400 0
v -102400 -6400 0
v -102400 -3200 0
v -99200 -3200 0
v -102400 -6400 0
v -105600 -6400 0
v -105600 -3200 0
v -102400 -3200 0
v -105600 -6400 0
v -108800 -6400 0
v -108800 -3200 0
v -105600 -3200 0
v -115200 -6400 0
v -118400 -6400 0
v -118400 -3200 0
v -115200 -3200 0
v -118400 -6400 0
v -121600 -6400 0
v -121600 -3200 0
v -118400 -3200 0
v -121600 -6400 0
v -124800 -6400 0
v -124800 -3200 0
v -121600 -3200 0
v -128000 -6400 0
v -131200 -6400 0
v -131200 -3200 0
v -128000 -3200 0
v -131200 -6400 0
v -134400 -6400 0
v -134400 -3200 0
v -131200 -3200 0
v 0 -9600 0
v -3200 -9600 0
v -3200 -6400 0
v 0 -6400 0
v -3200 -9600 0
v -6400 -9600 0
v -6400 -6400 0
v -3200 -6400 0
v -6400 -9600 0
v -9600 -9600 0
v -9600 -6400 0
v -6400 -6400 0
v -16000 -9600 0
v -19200 -9600 0
v -19200 -6400 0
v -16000 -6400 0
v -19200 -9600 0
v -22400 -9600 0
v -22400 -6400 0
v -19200 -6400 0
v -22400 -9600 0
v -25600 -9600 0
v -25600 -6400 0
v -22400 -6400 0
v -38400 -9600 0
v -41600 -9600 0
v -41600 -6400 0
v -38400 -6400 0
v -41600 -9600 0
v -44800 -9600 0
v -44800 -6400 0
v -41600 -6400 0
v -44800 -9600 0
v -48000 -9600 0
v -48000 -6400 0
v -44800 -6400 0
v -57600 -9600 0
v -60800 -9600 0
v -60800 -6400 0
v -57600 -6400 0
v -60800 -9600 0
v -64000 -9600 0
v -64000 -6400 0
v -60800 -6400 0
v -64000 -9600 0
v -67200 -9600 0
v -67200 -6400 0
v -64000 -6400 0
v -80000 -9600 0
v -83200 -9600 0
v -83200 -6400 0
v -80000 -6400 0
v -83200 -9600 0
v -86400 -9600 0
v -86400 -6400 0
v -83200 -6400 0
v -86400 -9600 0
v -89600 -9600 0
v -89600 -6400 0
v -86400 -6400 0
v -99200 -9600 0
v -102400 -9600 0
v -102400 -6400 0
v -99200 -6400 0
v -102400 -9600 0
v -105600 -9600 0
v -105600 -6400 0
v -102400 -6400 0
v -105600 -9600 0
v -108800 -9600 0
v -108800 -6400 0
v -105600 -6400 0
v -115200 -9600 0
v -118400 -9600 0
v -118400 -6400 0
v -115200 -6400 0
v -118400 -9600 0
v -121600 -9600 0
v -121600 -6400 0
v -118400 -6400 0
v -121600 -9600 0
v -124800 -9600 0
v -124800 -6400 0
v -121600 -6400 0
v -128000 -9600 0
v -131200 -9600 0
v -131200 -6400 0
v -128000 -6400 0
v -131200 -9600 0
v -134400 -9600 0
v -134400 -6400 0
v -131200 -6400 0
v 0 -12800 0
v -3200 -12800 0
v -3200 -9600 0
v 0 -9600 0
v -3200 -12800 0
v -6400 -12800 0
v -6400 -9600 0
v -3200 -9600 0
v -6400 -12800 0
v -9600 -12800 0
v -9600 -9600 0
v -6400 -9600 0
v -16000 -12800 0
v -19200 -12800 0
v -19200 -9600 0
v -16000 -9600 0
v -19200 -12800 0
v -22400 -12800 0
v -22400 -9600 0
v -19200 -9600 0
v -22400 -12800 0
v -25600 -12800 0
v -25600 -9600 0
v -22400 -9600 0
v -38400 -12800 0
v -41600 -12800 0
v -41600 -9600 0
v -38400 -9600 0
v -41600 -12800 0
v -44800 -12800 0
v -44800 -9600 0
v -41600 -9600 0
v -44800 -12800 0
v -48000 -12800 0
v -48000 -9600 0
v -44800 -9600 0
v -57600 -12800 0
v -60800 -12800 0
v -60800 -9600 0
v -57600 -9600 0
v -60800 -12800 0
v -64000 -12800 0
v -64000 -9600 0
v -60800 -9600 0
v -64000 -12800 0
v -67200 -12800 0
v -67200 -9600 0
v -64000 -9600 0
v -80000 -12800 0
v -83200 -12800 0
v -83200 -9600 0
v -80000 -9600 0
v -83200 -12800 0
v -86400 -12800 0
v -86400 -9600 0
v -83200 -9600 0
v -86400 -12800 0
v -89600 -12800 0
v -89600 -9600 0
v -86400 -9600 0
v -99200 -12800 0
v -102400 -12800 0
v -102400 -9600 0
v -99200 -9600 0
v -102400 -12800 0
v -105600 -12800 0
v -105600 -9600 0
v -102400 -9600 0
v -105600 -12800 0
v -108800 -12800 0
v -108800 -9600 0
v -105600 -9600 0
v -115200 -12800 0
v -118400 -12800 0
v -118400 -9600 0
v -115200 -9600 0
v -118400 -12800 0
v -121600 -12800 0
v -121600 -9600 0
v -118400 -9600 0
v -121600 -12800 0
v -124800 -12800 0
v -124800 -9600 0
v -121600 -9600 0
v -128000 -12800 0
v -131200 -12800 0
v -131200 -9600 0
v -128000 -9600 0
v -131200 -12800 0
v -134400 -12800 0
v -134400 -9600 0
v -131200 -9600 0

# Texture cooridinates (Count = 16)
vt 0.5 0.6666666
vt 0.6666667 0.6666666
vt 0.6666667 1
vt 0.5 1
vt 0.8333333 0.6666666
vt 0.8333333 1
vt 1 0.6666666
vt 1 1
vt 0.5 0.3333333
vt 0.6666667 0.3333333
vt 0.8333333 0.3333333
vt 1 0.3333333
vt 0.5 0
vt 0.6666667 0
vt 0.8333333 0
vt 1 0

# Normal
vn 0 0 -1

# Mesh description
g CoinCollecteMap2_mesh_0004

# Faces
f 1/1/1 2/2/1 3/3/1 4/4/1
f 5/2/1 6/5/1 7/6/1 8/3/1
f 9/5/1 10/7/1 11/8/1 12/6/1
f 13/1/1 14/2/1 15/3/1 16/4/1
f 17/2/1 18/5/1 19/6/1 20/3/1
f 21/5/1 22/7/1 23/8/1 24/6/1
f 25/1/1 26/2/1 27/3/1 28/4/1
f 29/2/1 30/5/1 31/6/1 32/3/1
f 33/5/1 34/7/1 35/8/1 36/6/1
f 37/1/1 38/2/1 39/3/1 40/4/1
f 41/2/1 42/5/1 43/6/1 44/3/1
f 45/5/1 46/7/1 47/8/1 48/6/1
f 49/1/1 50/2/1 51/3/1 52/4/1
f 53/2/1 54/5/1 55/6/1 56/3/1
f 57/5/1 58/7/1 59/8/1 60/6/1
f 61/1/1 62/2/1 63/3/1 64/4/1
f 65/2/1 66/5/1 67/6/1 68/3/1
f 69/5/1 70/7/1 71/8/1 72/6/1
f 73/1/1 74/2/1 75/3/1 76/4/1
f 77/2/1 78/5/1 79/6/1 80/3/1
f 81/5/1 82/7/1 83/8/1 84/6/1
f 85/1/1 86/2/1 87/3/1 88/4/1
f 89/2/1 90/5/1 91/6/1 92/3/1
f 93/9/1 94/10/1 95/2/1 96/1/1
f 97/10/1 98/11/1 99/5/1 100/2/1
f 101/11/1 102/12/1 103/7/1 104/5/1
f 105/9/1 106/10/1 107/2/1 108/1/1
f 109/10/1 110/11/1 111/5/1 112/2/1
f 113/11/1 114/12/1 115/7/1 116/5/1
f 117/9/1 118/10/1 119/2/1 120/1/1
f 121/10/1 122/11/1 123/5/1 124/2/1
f 125/11/1 126/12/1 127/7/1 128/5/1
f 129/9/1 130/10/1 131/2/1 132/1/1
f 133/10/1 134/11/1 135/5/1 136/2/1
f 137/11/1 138/12/1 139/7/1 140/5/1
f 141/9/1 142/10/1 143/2/1 144/1/1
f 145/10/1 146/11/1 147/5/1 148/2/1
f 149/11/1 150/12/1 151/7/1 152/5/1
f 153/9/1 154/10/1 155/2/1 156/1/1
f 157/10/1 158/11/1 159/5/1 160/2/1
f 161/11/1 162/12/1 163/7/1 164/5/1
f 165/9/1 166/10/1 167/2/1 168/1/1
f 169/10/1 170/11/1 171/5/1 172/2/1
f 173/11/1 174/12/1 175/7/1 176/5/1
f 177/9/1 178/10/1 179/2/1 180/1/1
f 181/10/1 182/11/1 183/5/1 184/2/1
f 185/13/1 186/14/1 187/10/1 188/9/1
f 189/14/1 190/15/1 191/11/1 192/10/1
f 193/15/1 194/16/1 195/12/1 196/11/1
f 197/13/1 198/14/1 199/10/1 200/9/1
f 201/14/1 202/15/1 203/11/1 204/10/1
f 205/15/1 206/16/1 207/12/1 208/11/1
f 209/13/1 210/14/1 211/10/1 212/9/1
f 213/14/1 214/15/1 215/11/1 216/10/1
f 217/15/1 218/16/1 219/12/1 220/11/1
f 221/13/1 222/14/1 223/10/1 224/9/1
f 225/14/1 226/15/1 227/11/1 228/10/1
f 229/15/1 230/16/1 231/12/1 232/11/1
f 233/13/1 234/14/1 235/10/1 236/9/1
f 237/14/1 238/15/1 239/11/1 240/10/1
f 241/15/1 242/16/1 243/12/1 244/11/1
f 245/13/1 246/14/1 247/10/1 248/9/1
f 249/14/1 250/15/1 251/11/1 252/10/1
f 253/15/1 254/16/1 255/12/1 256/11/1
f 257/13/1 258/14/1 259/10/1 260/9/1
f 261/14/1 262/15/1 263/11/1 264/10/1
f 265/15/1 266/16/1 267/12/1 268/11/1
f 269/13/1 270/14/1 271/10/1 272/9/1
f 273/14/1 274/15/1 275/11/1 276/10/1

