# Tiled2Unity generated file. Do not modify by hand.
# Wavefront file for 'CoinCollecteMap2_mesh_0197.obj'

# Vertices (Count = 204)
v -32000 -156800 0
v -35200 -156800 0
v -35200 -153600 0
v -32000 -153600 0
v -35200 -156800 0
v -38400 -156800 0
v -38400 -153600 0
v -35200 -153600 0
v -38400 -156800 0
v -41600 -156800 0
v -41600 -153600 0
v -38400 -153600 0
v -41600 -156800 0
v -44800 -156800 0
v -44800 -153600 0
v -41600 -153600 0
v -44800 -156800 0
v -48000 -156800 0
v -48000 -153600 0
v -44800 -153600 0
v -48000 -156800 0
v -51200 -156800 0
v -51200 -153600 0
v -48000 -153600 0
v -51200 -156800 0
v -54400 -156800 0
v -54400 -153600 0
v -51200 -153600 0
v -54400 -156800 0
v -57600 -156800 0
v -57600 -153600 0
v -54400 -153600 0
v -57600 -156800 0
v -60800 -156800 0
v -60800 -153600 0
v -57600 -153600 0
v -67200 -156800 0
v -70400 -156800 0
v -70400 -153600 0
v -67200 -153600 0
v -70400 -156800 0
v -73600 -156800 0
v -73600 -153600 0
v -70400 -153600 0
v -73600 -156800 0
v -76800 -156800 0
v -76800 -153600 0
v -73600 -153600 0
v -32000 -160000 0
v -35200 -160000 0
v -35200 -156800 0
v -32000 -156800 0
v -35200 -160000 0
v -38400 -160000 0
v -38400 -156800 0
v -35200 -156800 0
v -38400 -160000 0
v -41600 -160000 0
v -41600 -156800 0
v -38400 -156800 0
v -41600 -160000 0
v -44800 -160000 0
v -44800 -156800 0
v -41600 -156800 0
v -44800 -160000 0
v -48000 -160000 0
v -48000 -156800 0
v -44800 -156800 0
v -48000 -160000 0
v -51200 -160000 0
v -51200 -156800 0
v -48000 -156800 0
v -51200 -160000 0
v -54400 -160000 0
v -54400 -156800 0
v -51200 -156800 0
v -54400 -160000 0
v -57600 -160000 0
v -57600 -156800 0
v -54400 -156800 0
v -57600 -160000 0
v -60800 -160000 0
v -60800 -156800 0
v -57600 -156800 0
v -67200 -160000 0
v -70400 -160000 0
v -70400 -156800 0
v -67200 -156800 0
v -70400 -160000 0
v -73600 -160000 0
v -73600 -156800 0
v -70400 -156800 0
v -73600 -160000 0
v -76800 -160000 0
v -76800 -156800 0
v -73600 -156800 0
v -92800 -160000 0
v -96000 -160000 0
v -96000 -156800 0
v -92800 -156800 0
v -96000 -160000 0
v -99200 -160000 0
v -99200 -156800 0
v -96000 -156800 0
v -99200 -160000 0
v -102400 -160000 0
v -102400 -156800 0
v -99200 -156800 0
v -32000 -163200 0
v -35200 -163200 0
v -35200 -160000 0
v -32000 -160000 0
v -35200 -163200 0
v -38400 -163200 0
v -38400 -160000 0
v -35200 -160000 0
v -38400 -163200 0
v -41600 -163200 0
v -41600 -160000 0
v -38400 -160000 0
v -41600 -163200 0
v -44800 -163200 0
v -44800 -160000 0
v -41600 -160000 0
v -44800 -163200 0
v -48000 -163200 0
v -48000 -160000 0
v -44800 -160000 0
v -48000 -163200 0
v -51200 -163200 0
v -51200 -160000 0
v -48000 -160000 0
v -51200 -163200 0
v -54400 -163200 0
v -54400 -160000 0
v -51200 -160000 0
v -54400 -163200 0
v -57600 -163200 0
v -57600 -160000 0
v -54400 -160000 0
v -57600 -163200 0
v -60800 -163200 0
v -60800 -160000 0
v -57600 -160000 0
v -67200 -163200 0
v -70400 -163200 0
v -70400 -160000 0
v -67200 -160000 0
v -70400 -163200 0
v -73600 -163200 0
v -73600 -160000 0
v -70400 -160000 0
v -73600 -163200 0
v -76800 -163200 0
v -76800 -160000 0
v -73600 -160000 0
v -92800 -163200 0
v -96000 -163200 0
v -96000 -160000 0
v -92800 -160000 0
v -96000 -163200 0
v -99200 -163200 0
v -99200 -160000 0
v -96000 -160000 0
v -99200 -163200 0
v -102400 -163200 0
v -102400 -160000 0
v -99200 -160000 0
v -51200 -166400 0
v -54400 -166400 0
v -54400 -163200 0
v -51200 -163200 0
v -54400 -166400 0
v -57600 -166400 0
v -57600 -163200 0
v -54400 -163200 0
v -57600 -166400 0
v -60800 -166400 0
v -60800 -163200 0
v -57600 -163200 0
v -67200 -166400 0
v -70400 -166400 0
v -70400 -163200 0
v -67200 -163200 0
v -70400 -166400 0
v -73600 -166400 0
v -73600 -163200 0
v -70400 -163200 0
v -73600 -166400 0
v -76800 -166400 0
v -76800 -163200 0
v -73600 -163200 0
v -92800 -166400 0
v -96000 -166400 0
v -96000 -163200 0
v -92800 -163200 0
v -96000 -166400 0
v -99200 -166400 0
v -99200 -163200 0
v -96000 -163200 0
v -99200 -166400 0
v -102400 -166400 0
v -102400 -163200 0
v -99200 -163200 0

# Texture cooridinates (Count = 44)
vt 0 0.8571429
vt 0.1666667 0.8571429
vt 0.1666667 1
vt 0 1
vt 0.3333333 0.8571429
vt 0.3333333 1
vt 0.5 0.8571429
vt 0.5 1
vt 0 0.4285714
vt 0.1666667 0.4285714
vt 0.1666667 0.5714285
vt 0 0.5714285
vt 0.3333333 0.4285714
vt 0.3333333 0.5714285
vt 0.5 0.4285714
vt 0.5 0.5714285
vt 0.6666667 0.4285714
vt 0.6666667 0.5714285
vt 0.8333333 0.4285714
vt 0.8333333 0.5714285
vt 1 0.4285714
vt 1 0.5714285
vt 0 0.7142857
vt 0.1666667 0.7142857
vt 0.3333333 0.7142857
vt 0.5 0.7142857
vt 0 0.2857143
vt 0.1666667 0.2857143
vt 0.3333333 0.2857143
vt 0.5 0.2857143
vt 0.6666667 0.2857143
vt 0.8333333 0.2857143
vt 1 0.2857143
vt 0 0.1428571
vt 0.1666667 0.1428571
vt 0.3333333 0.1428571
vt 0.5 0.1428571
vt 0.6666667 0.1428571
vt 0.8333333 0.1428571
vt 1 0.1428571
vt 0.5 0
vt 0.6666667 0
vt 0.8333333 0
vt 1 0

# Normal
vn 0 0 -1

# Mesh description
g CoinCollecteMap2_mesh_0197

# Faces
f 1/1/1 2/2/1 3/3/1 4/4/1
f 5/2/1 6/5/1 7/6/1 8/3/1
f 9/5/1 10/7/1 11/8/1 12/6/1
f 13/9/1 14/10/1 15/11/1 16/12/1
f 17/10/1 18/13/1 19/14/1 20/11/1
f 21/13/1 22/15/1 23/16/1 24/14/1
f 25/15/1 26/17/1 27/18/1 28/16/1
f 29/17/1 30/19/1 31/20/1 32/18/1
f 33/19/1 34/21/1 35/22/1 36/20/1
f 37/15/1 38/17/1 39/18/1 40/16/1
f 41/17/1 42/19/1 43/20/1 44/18/1
f 45/19/1 46/21/1 47/22/1 48/20/1
f 49/23/1 50/24/1 51/2/1 52/1/1
f 53/24/1 54/25/1 55/5/1 56/2/1
f 57/25/1 58/26/1 59/7/1 60/5/1
f 61/27/1 62/28/1 63/10/1 64/9/1
f 65/28/1 66/29/1 67/13/1 68/10/1
f 69/29/1 70/30/1 71/15/1 72/13/1
f 73/30/1 74/31/1 75/17/1 76/15/1
f 77/31/1 78/32/1 79/19/1 80/17/1
f 81/32/1 82/33/1 83/21/1 84/19/1
f 85/30/1 86/31/1 87/17/1 88/15/1
f 89/31/1 90/32/1 91/19/1 92/17/1
f 93/32/1 94/33/1 95/21/1 96/19/1
f 97/1/1 98/2/1 99/3/1 100/4/1
f 101/2/1 102/5/1 103/6/1 104/3/1
f 105/5/1 106/7/1 107/8/1 108/6/1
f 109/12/1 110/11/1 111/24/1 112/23/1
f 113/11/1 114/14/1 115/25/1 116/24/1
f 117/14/1 118/16/1 119/26/1 120/25/1
f 121/34/1 122/35/1 123/28/1 124/27/1
f 125/35/1 126/36/1 127/29/1 128/28/1
f 129/36/1 130/37/1 131/30/1 132/29/1
f 133/37/1 134/38/1 135/31/1 136/30/1
f 137/38/1 138/39/1 139/32/1 140/31/1
f 141/39/1 142/40/1 143/33/1 144/32/1
f 145/37/1 146/38/1 147/31/1 148/30/1
f 149/38/1 150/39/1 151/32/1 152/31/1
f 153/39/1 154/40/1 155/33/1 156/32/1
f 157/23/1 158/24/1 159/2/1 160/1/1
f 161/24/1 162/25/1 163/5/1 164/2/1
f 165/25/1 166/26/1 167/7/1 168/5/1
f 169/41/1 170/42/1 171/38/1 172/37/1
f 173/42/1 174/43/1 175/39/1 176/38/1
f 177/43/1 178/44/1 179/40/1 180/39/1
f 181/41/1 182/42/1 183/38/1 184/37/1
f 185/42/1 186/43/1 187/39/1 188/38/1
f 189/43/1 190/44/1 191/40/1 192/39/1
f 193/12/1 194/11/1 195/24/1 196/23/1
f 197/11/1 198/14/1 199/25/1 200/24/1
f 201/14/1 202/16/1 203/26/1 204/25/1

