# Tiled2Unity generated file. Do not modify by hand.
# Wavefront file for 'CoinCollecteMap2_mesh_0138.obj'

# Vertices (Count = 180)
v -28800 -108800 0
v -32000 -108800 0
v -32000 -105600 0
v -28800 -105600 0
v -32000 -108800 0
v -35200 -108800 0
v -35200 -105600 0
v -32000 -105600 0
v -35200 -108800 0
v -38400 -108800 0
v -38400 -105600 0
v -35200 -105600 0
v -48000 -108800 0
v -51200 -108800 0
v -51200 -105600 0
v -48000 -105600 0
v -51200 -108800 0
v -54400 -108800 0
v -54400 -105600 0
v -51200 -105600 0
v -54400 -108800 0
v -57600 -108800 0
v -57600 -105600 0
v -54400 -105600 0
v -64000 -108800 0
v -67200 -108800 0
v -67200 -105600 0
v -64000 -105600 0
v -67200 -108800 0
v -70400 -108800 0
v -70400 -105600 0
v -67200 -105600 0
v -70400 -108800 0
v -73600 -108800 0
v -73600 -105600 0
v -70400 -105600 0
v -80000 -108800 0
v -83200 -108800 0
v -83200 -105600 0
v -80000 -105600 0
v -83200 -108800 0
v -86400 -108800 0
v -86400 -105600 0
v -83200 -105600 0
v -86400 -108800 0
v -89600 -108800 0
v -89600 -105600 0
v -86400 -105600 0
v -96000 -108800 0
v -99200 -108800 0
v -99200 -105600 0
v -96000 -105600 0
v -99200 -108800 0
v -102400 -108800 0
v -102400 -105600 0
v -99200 -105600 0
v -102400 -108800 0
v -105600 -108800 0
v -105600 -105600 0
v -102400 -105600 0
v -28800 -112000 0
v -32000 -112000 0
v -32000 -108800 0
v -28800 -108800 0
v -32000 -112000 0
v -35200 -112000 0
v -35200 -108800 0
v -32000 -108800 0
v -35200 -112000 0
v -38400 -112000 0
v -38400 -108800 0
v -35200 -108800 0
v -48000 -112000 0
v -51200 -112000 0
v -51200 -108800 0
v -48000 -108800 0
v -51200 -112000 0
v -54400 -112000 0
v -54400 -108800 0
v -51200 -108800 0
v -54400 -112000 0
v -57600 -112000 0
v -57600 -108800 0
v -54400 -108800 0
v -64000 -112000 0
v -67200 -112000 0
v -67200 -108800 0
v -64000 -108800 0
v -67200 -112000 0
v -70400 -112000 0
v -70400 -108800 0
v -67200 -108800 0
v -70400 -112000 0
v -73600 -112000 0
v -73600 -108800 0
v -70400 -108800 0
v -80000 -112000 0
v -83200 -112000 0
v -83200 -108800 0
v -80000 -108800 0
v -83200 -112000 0
v -86400 -112000 0
v -86400 -108800 0
v -83200 -108800 0
v -86400 -112000 0
v -89600 -112000 0
v -89600 -108800 0
v -86400 -108800 0
v -96000 -112000 0
v -99200 -112000 0
v -99200 -108800 0
v -96000 -108800 0
v -99200 -112000 0
v -102400 -112000 0
v -102400 -108800 0
v -99200 -108800 0
v -102400 -112000 0
v -105600 -112000 0
v -105600 -108800 0
v -102400 -108800 0
v -28800 -115200 0
v -32000 -115200 0
v -32000 -112000 0
v -28800 -112000 0
v -32000 -115200 0
v -35200 -115200 0
v -35200 -112000 0
v -32000 -112000 0
v -35200 -115200 0
v -38400 -115200 0
v -38400 -112000 0
v -35200 -112000 0
v -48000 -115200 0
v -51200 -115200 0
v -51200 -112000 0
v -48000 -112000 0
v -51200 -115200 0
v -54400 -115200 0
v -54400 -112000 0
v -51200 -112000 0
v -54400 -115200 0
v -57600 -115200 0
v -57600 -112000 0
v -54400 -112000 0
v -64000 -115200 0
v -67200 -115200 0
v -67200 -112000 0
v -64000 -112000 0
v -67200 -115200 0
v -70400 -115200 0
v -70400 -112000 0
v -67200 -112000 0
v -70400 -115200 0
v -73600 -115200 0
v -73600 -112000 0
v -70400 -112000 0
v -80000 -115200 0
v -83200 -115200 0
v -83200 -112000 0
v -80000 -112000 0
v -83200 -115200 0
v -86400 -115200 0
v -86400 -112000 0
v -83200 -112000 0
v -86400 -115200 0
v -89600 -115200 0
v -89600 -112000 0
v -86400 -112000 0
v -96000 -115200 0
v -99200 -115200 0
v -99200 -112000 0
v -96000 -112000 0
v -99200 -115200 0
v -102400 -115200 0
v -102400 -112000 0
v -99200 -112000 0
v -102400 -115200 0
v -105600 -115200 0
v -105600 -112000 0
v -102400 -112000 0

# Texture cooridinates (Count = 16)
vt 0.5 0.6666666
vt 0.6666667 0.6666666
vt 0.6666667 1
vt 0.5 1
vt 0.8333333 0.6666666
vt 0.8333333 1
vt 1 0.6666666
vt 1 1
vt 0.5 0.3333333
vt 0.6666667 0.3333333
vt 0.8333333 0.3333333
vt 1 0.3333333
vt 0.5 0
vt 0.6666667 0
vt 0.8333333 0
vt 1 0

# Normal
vn 0 0 -1

# Mesh description
g CoinCollecteMap2_mesh_0138

# Faces
f 1/1/1 2/2/1 3/3/1 4/4/1
f 5/2/1 6/5/1 7/6/1 8/3/1
f 9/5/1 10/7/1 11/8/1 12/6/1
f 13/1/1 14/2/1 15/3/1 16/4/1
f 17/2/1 18/5/1 19/6/1 20/3/1
f 21/5/1 22/7/1 23/8/1 24/6/1
f 25/1/1 26/2/1 27/3/1 28/4/1
f 29/2/1 30/5/1 31/6/1 32/3/1
f 33/5/1 34/7/1 35/8/1 36/6/1
f 37/1/1 38/2/1 39/3/1 40/4/1
f 41/2/1 42/5/1 43/6/1 44/3/1
f 45/5/1 46/7/1 47/8/1 48/6/1
f 49/1/1 50/2/1 51/3/1 52/4/1
f 53/2/1 54/5/1 55/6/1 56/3/1
f 57/5/1 58/7/1 59/8/1 60/6/1
f 61/9/1 62/10/1 63/2/1 64/1/1
f 65/10/1 66/11/1 67/5/1 68/2/1
f 69/11/1 70/12/1 71/7/1 72/5/1
f 73/9/1 74/10/1 75/2/1 76/1/1
f 77/10/1 78/11/1 79/5/1 80/2/1
f 81/11/1 82/12/1 83/7/1 84/5/1
f 85/9/1 86/10/1 87/2/1 88/1/1
f 89/10/1 90/11/1 91/5/1 92/2/1
f 93/11/1 94/12/1 95/7/1 96/5/1
f 97/9/1 98/10/1 99/2/1 100/1/1
f 101/10/1 102/11/1 103/5/1 104/2/1
f 105/11/1 106/12/1 107/7/1 108/5/1
f 109/9/1 110/10/1 111/2/1 112/1/1
f 113/10/1 114/11/1 115/5/1 116/2/1
f 117/11/1 118/12/1 119/7/1 120/5/1
f 121/13/1 122/14/1 123/10/1 124/9/1
f 125/14/1 126/15/1 127/11/1 128/10/1
f 129/15/1 130/16/1 131/12/1 132/11/1
f 133/13/1 134/14/1 135/10/1 136/9/1
f 137/14/1 138/15/1 139/11/1 140/10/1
f 141/15/1 142/16/1 143/12/1 144/11/1
f 145/13/1 146/14/1 147/10/1 148/9/1
f 149/14/1 150/15/1 151/11/1 152/10/1
f 153/15/1 154/16/1 155/12/1 156/11/1
f 157/13/1 158/14/1 159/10/1 160/9/1
f 161/14/1 162/15/1 163/11/1 164/10/1
f 165/15/1 166/16/1 167/12/1 168/11/1
f 169/13/1 170/14/1 171/10/1 172/9/1
f 173/14/1 174/15/1 175/11/1 176/10/1
f 177/15/1 178/16/1 179/12/1 180/11/1

