# Tiled2Unity generated file. Do not modify by hand.
# Wavefront file for 'CoinCollecteMap2_mesh_0060.obj'

# Vertices (Count = 60)
v -131200 -89600 0
v -134400 -89600 0
v -134400 -86400 0
v -131200 -86400 0
v -131200 -92800 0
v -134400 -92800 0
v -134400 -89600 0
v -131200 -89600 0
v -121600 -96000 0
v -124800 -96000 0
v -124800 -92800 0
v -121600 -92800 0
v -124800 -96000 0
v -128000 -96000 0
v -128000 -92800 0
v -124800 -92800 0
v -128000 -96000 0
v -131200 -96000 0
v -131200 -92800 0
v -128000 -92800 0
v -131200 -96000 0
v -134400 -96000 0
v -134400 -92800 0
v -131200 -92800 0
v -121600 -99200 0
v -124800 -99200 0
v -124800 -96000 0
v -121600 -96000 0
v -124800 -99200 0
v -128000 -99200 0
v -128000 -96000 0
v -124800 -96000 0
v -128000 -99200 0
v -131200 -99200 0
v -131200 -96000 0
v -128000 -96000 0
v -131200 -99200 0
v -134400 -99200 0
v -134400 -96000 0
v -131200 -96000 0
v -121600 -102400 0
v -124800 -102400 0
v -124800 -99200 0
v -121600 -99200 0
v -124800 -102400 0
v -128000 -102400 0
v -128000 -99200 0
v -124800 -99200 0
v -128000 -102400 0
v -131200 -102400 0
v -131200 -99200 0
v -128000 -99200 0
v -131200 -102400 0
v -134400 -102400 0
v -134400 -99200 0
v -131200 -99200 0
v -131200 -105600 0
v -134400 -105600 0
v -134400 -102400 0
v -131200 -102400 0

# Texture cooridinates (Count = 16)
vt 0 0.4285714
vt 0.1666667 0.4285714
vt 0.1666667 0.5714285
vt 0 0.5714285
vt 0 0.2857143
vt 0.1666667 0.2857143
vt 0.3333333 0.4285714
vt 0.3333333 0.5714285
vt 0.5 0.4285714
vt 0.5 0.5714285
vt 0 0.1428571
vt 0.1666667 0.1428571
vt 0.3333333 0.2857143
vt 0.5 0.2857143
vt 0.3333333 0.1428571
vt 0.5 0.1428571

# Normal
vn 0 0 -1

# Mesh description
g CoinCollecteMap2_mesh_0060

# Faces
f 1/1/1 2/2/1 3/3/1 4/4/1
f 5/5/1 6/6/1 7/2/1 8/1/1
f 9/1/1 10/2/1 11/3/1 12/4/1
f 13/2/1 14/7/1 15/8/1 16/3/1
f 17/7/1 18/9/1 19/10/1 20/8/1
f 21/11/1 22/12/1 23/6/1 24/5/1
f 25/5/1 26/6/1 27/2/1 28/1/1
f 29/6/1 30/13/1 31/7/1 32/2/1
f 33/13/1 34/14/1 35/9/1 36/7/1
f 37/1/1 38/2/1 39/3/1 40/4/1
f 41/11/1 42/12/1 43/6/1 44/5/1
f 45/12/1 46/15/1 47/13/1 48/6/1
f 49/15/1 50/16/1 51/14/1 52/13/1
f 53/5/1 54/6/1 55/2/1 56/1/1
f 57/11/1 58/12/1 59/6/1 60/5/1

