# Tiled2Unity generated file. Do not modify by hand.
# Wavefront file for 'CoinCollecteMap2_mesh_0053.obj'

# Vertices (Count = 120)
v -19200 -41600 0
v -22400 -41600 0
v -22400 -38400 0
v -19200 -38400 0
v -22400 -41600 0
v -25600 -41600 0
v -25600 -38400 0
v -22400 -38400 0
v -25600 -41600 0
v -28800 -41600 0
v -28800 -38400 0
v -25600 -38400 0
v -19200 -44800 0
v -22400 -44800 0
v -22400 -41600 0
v -19200 -41600 0
v -22400 -44800 0
v -25600 -44800 0
v -25600 -41600 0
v -22400 -41600 0
v -25600 -44800 0
v -28800 -44800 0
v -28800 -41600 0
v -25600 -41600 0
v -19200 -48000 0
v -22400 -48000 0
v -22400 -44800 0
v -19200 -44800 0
v -22400 -48000 0
v -25600 -48000 0
v -25600 -44800 0
v -22400 -44800 0
v -25600 -48000 0
v -28800 -48000 0
v -28800 -44800 0
v -25600 -44800 0
v -128000 -48000 0
v -131200 -48000 0
v -131200 -44800 0
v -128000 -44800 0
v -131200 -48000 0
v -134400 -48000 0
v -134400 -44800 0
v -131200 -44800 0
v 0 -51200 0
v -3200 -51200 0
v -3200 -48000 0
v 0 -48000 0
v -3200 -51200 0
v -6400 -51200 0
v -6400 -48000 0
v -3200 -48000 0
v -128000 -51200 0
v -131200 -51200 0
v -131200 -48000 0
v -128000 -48000 0
v -131200 -51200 0
v -134400 -51200 0
v -134400 -48000 0
v -131200 -48000 0
v 0 -54400 0
v -3200 -54400 0
v -3200 -51200 0
v 0 -51200 0
v -3200 -54400 0
v -6400 -54400 0
v -6400 -51200 0
v -3200 -51200 0
v -128000 -54400 0
v -131200 -54400 0
v -131200 -51200 0
v -128000 -51200 0
v -131200 -54400 0
v -134400 -54400 0
v -134400 -51200 0
v -131200 -51200 0
v 0 -57600 0
v -3200 -57600 0
v -3200 -54400 0
v 0 -54400 0
v -3200 -57600 0
v -6400 -57600 0
v -6400 -54400 0
v -3200 -54400 0
v -121600 -57600 0
v -124800 -57600 0
v -124800 -54400 0
v -121600 -54400 0
v -124800 -57600 0
v -128000 -57600 0
v -128000 -54400 0
v -124800 -54400 0
v -128000 -57600 0
v -131200 -57600 0
v -131200 -54400 0
v -128000 -54400 0
v -121600 -60800 0
v -124800 -60800 0
v -124800 -57600 0
v -121600 -57600 0
v -124800 -60800 0
v -128000 -60800 0
v -128000 -57600 0
v -124800 -57600 0
v -128000 -60800 0
v -131200 -60800 0
v -131200 -57600 0
v -128000 -57600 0
v -121600 -64000 0
v -124800 -64000 0
v -124800 -60800 0
v -121600 -60800 0
v -124800 -64000 0
v -128000 -64000 0
v -128000 -60800 0
v -124800 -60800 0
v -128000 -64000 0
v -131200 -64000 0
v -131200 -60800 0
v -128000 -60800 0

# Texture cooridinates (Count = 31)
vt 0.5 0.8571429
vt 0.6666667 0.8571429
vt 0.6666667 1
vt 0.5 1
vt 0.8333333 0.8571429
vt 0.8333333 1
vt 1 0.8571429
vt 1 1
vt 0.5 0.7142857
vt 0.6666667 0.7142857
vt 0.8333333 0.7142857
vt 1 0.7142857
vt 0.5 0.5714285
vt 0.6666667 0.5714285
vt 0.8333333 0.5714285
vt 1 0.5714285
vt 0 0.4285714
vt 0.1666667 0.4285714
vt 0.1666667 0.5714285
vt 0 0.5714285
vt 0.3333333 0.4285714
vt 0.3333333 0.5714285
vt 0.5 0.4285714
vt 0 0.2857143
vt 0.1666667 0.2857143
vt 0.3333333 0.2857143
vt 0.5 0.2857143
vt 0 0.1428571
vt 0.1666667 0.1428571
vt 0.3333333 0.1428571
vt 0.5 0.1428571

# Normal
vn 0 0 -1

# Mesh description
g CoinCollecteMap2_mesh_0053

# Faces
f 1/1/1 2/2/1 3/3/1 4/4/1
f 5/2/1 6/5/1 7/6/1 8/3/1
f 9/5/1 10/7/1 11/8/1 12/6/1
f 13/9/1 14/10/1 15/2/1 16/1/1
f 17/10/1 18/11/1 19/5/1 20/2/1
f 21/11/1 22/12/1 23/7/1 24/5/1
f 25/13/1 26/14/1 27/10/1 28/9/1
f 29/14/1 30/15/1 31/11/1 32/10/1
f 33/15/1 34/16/1 35/12/1 36/11/1
f 37/17/1 38/18/1 39/19/1 40/20/1
f 41/18/1 42/21/1 43/22/1 44/19/1
f 45/18/1 46/21/1 47/22/1 48/19/1
f 49/21/1 50/23/1 51/13/1 52/22/1
f 53/24/1 54/25/1 55/18/1 56/17/1
f 57/25/1 58/26/1 59/21/1 60/18/1
f 61/25/1 62/26/1 63/21/1 64/18/1
f 65/26/1 66/27/1 67/23/1 68/21/1
f 69/28/1 70/29/1 71/25/1 72/24/1
f 73/29/1 74/30/1 75/26/1 76/25/1
f 77/29/1 78/30/1 79/26/1 80/25/1
f 81/30/1 82/31/1 83/27/1 84/26/1
f 85/17/1 86/18/1 87/19/1 88/20/1
f 89/18/1 90/21/1 91/22/1 92/19/1
f 93/21/1 94/23/1 95/13/1 96/22/1
f 97/24/1 98/25/1 99/18/1 100/17/1
f 101/25/1 102/26/1 103/21/1 104/18/1
f 105/26/1 106/27/1 107/23/1 108/21/1
f 109/28/1 110/29/1 111/25/1 112/24/1
f 113/29/1 114/30/1 115/26/1 116/25/1
f 117/30/1 118/31/1 119/27/1 120/26/1

