# Tiled2Unity generated file. Do not modify by hand.
# Wavefront file for 'CoinCollecteMap2_mesh_0191.obj'

# Vertices (Count = 180)
v -25600 -131200 0
v -28800 -131200 0
v -28800 -128000 0
v -25600 -128000 0
v -28800 -131200 0
v -32000 -131200 0
v -32000 -128000 0
v -28800 -128000 0
v -32000 -131200 0
v -35200 -131200 0
v -35200 -128000 0
v -32000 -128000 0
v -25600 -134400 0
v -28800 -134400 0
v -28800 -131200 0
v -25600 -131200 0
v -28800 -134400 0
v -32000 -134400 0
v -32000 -131200 0
v -28800 -131200 0
v -32000 -134400 0
v -35200 -134400 0
v -35200 -131200 0
v -32000 -131200 0
v -86400 -134400 0
v -89600 -134400 0
v -89600 -131200 0
v -86400 -131200 0
v -89600 -134400 0
v -92800 -134400 0
v -92800 -131200 0
v -89600 -131200 0
v -92800 -134400 0
v -96000 -134400 0
v -96000 -131200 0
v -92800 -131200 0
v -99200 -134400 0
v -102400 -134400 0
v -102400 -131200 0
v -99200 -131200 0
v -102400 -134400 0
v -105600 -134400 0
v -105600 -131200 0
v -102400 -131200 0
v -105600 -134400 0
v -108800 -134400 0
v -108800 -131200 0
v -105600 -131200 0
v -25600 -137600 0
v -28800 -137600 0
v -28800 -134400 0
v -25600 -134400 0
v -28800 -137600 0
v -32000 -137600 0
v -32000 -134400 0
v -28800 -134400 0
v -32000 -137600 0
v -35200 -137600 0
v -35200 -134400 0
v -32000 -134400 0
v -38400 -137600 0
v -41600 -137600 0
v -41600 -134400 0
v -38400 -134400 0
v -41600 -137600 0
v -44800 -137600 0
v -44800 -134400 0
v -41600 -134400 0
v -44800 -137600 0
v -48000 -137600 0
v -48000 -134400 0
v -44800 -134400 0
v -86400 -137600 0
v -89600 -137600 0
v -89600 -134400 0
v -86400 -134400 0
v -89600 -137600 0
v -92800 -137600 0
v -92800 -134400 0
v -89600 -134400 0
v -92800 -137600 0
v -96000 -137600 0
v -96000 -134400 0
v -92800 -134400 0
v -99200 -137600 0
v -102400 -137600 0
v -102400 -134400 0
v -99200 -134400 0
v -102400 -137600 0
v -105600 -137600 0
v -105600 -134400 0
v -102400 -134400 0
v -105600 -137600 0
v -108800 -137600 0
v -108800 -134400 0
v -105600 -134400 0
v -38400 -140800 0
v -41600 -140800 0
v -41600 -137600 0
v -38400 -137600 0
v -41600 -140800 0
v -44800 -140800 0
v -44800 -137600 0
v -41600 -137600 0
v -44800 -140800 0
v -48000 -140800 0
v -48000 -137600 0
v -44800 -137600 0
v -86400 -140800 0
v -89600 -140800 0
v -89600 -137600 0
v -86400 -137600 0
v -89600 -140800 0
v -92800 -140800 0
v -92800 -137600 0
v -89600 -137600 0
v -92800 -140800 0
v -96000 -140800 0
v -96000 -137600 0
v -92800 -137600 0
v -99200 -140800 0
v -102400 -140800 0
v -102400 -137600 0
v -99200 -137600 0
v -102400 -140800 0
v -105600 -140800 0
v -105600 -137600 0
v -102400 -137600 0
v -105600 -140800 0
v -108800 -140800 0
v -108800 -137600 0
v -105600 -137600 0
v -38400 -144000 0
v -41600 -144000 0
v -41600 -140800 0
v -38400 -140800 0
v -41600 -144000 0
v -44800 -144000 0
v -44800 -140800 0
v -41600 -140800 0
v -44800 -144000 0
v -48000 -144000 0
v -48000 -140800 0
v -44800 -140800 0
v -99200 -144000 0
v -102400 -144000 0
v -102400 -140800 0
v -99200 -140800 0
v -102400 -144000 0
v -105600 -144000 0
v -105600 -140800 0
v -102400 -140800 0
v -105600 -144000 0
v -108800 -144000 0
v -108800 -140800 0
v -105600 -140800 0
v -99200 -147200 0
v -102400 -147200 0
v -102400 -144000 0
v -99200 -144000 0
v -102400 -147200 0
v -105600 -147200 0
v -105600 -144000 0
v -102400 -144000 0
v -105600 -147200 0
v -108800 -147200 0
v -108800 -144000 0
v -105600 -144000 0
v -99200 -150400 0
v -102400 -150400 0
v -102400 -147200 0
v -99200 -147200 0
v -102400 -150400 0
v -105600 -150400 0
v -105600 -147200 0
v -102400 -147200 0
v -105600 -150400 0
v -108800 -150400 0
v -108800 -147200 0
v -105600 -147200 0

# Texture cooridinates (Count = 28)
vt 0 0.4285714
vt 0.1666667 0.4285714
vt 0.1666667 0.5714285
vt 0 0.5714285
vt 0.3333333 0.4285714
vt 0.3333333 0.5714285
vt 0.5 0.4285714
vt 0.5 0.5714285
vt 0 0.2857143
vt 0.1666667 0.2857143
vt 0.3333333 0.2857143
vt 0.5 0.2857143
vt 0 0.8571429
vt 0.1666667 0.8571429
vt 0.1666667 1
vt 0 1
vt 0.3333333 0.8571429
vt 0.3333333 1
vt 0.5 0.8571429
vt 0.5 1
vt 0 0.1428571
vt 0.1666667 0.1428571
vt 0.3333333 0.1428571
vt 0.5 0.1428571
vt 0 0.7142857
vt 0.1666667 0.7142857
vt 0.3333333 0.7142857
vt 0.5 0.7142857

# Normal
vn 0 0 -1

# Mesh description
g CoinCollecteMap2_mesh_0191

# Faces
f 1/1/1 2/2/1 3/3/1 4/4/1
f 5/2/1 6/5/1 7/6/1 8/3/1
f 9/5/1 10/7/1 11/8/1 12/6/1
f 13/9/1 14/10/1 15/2/1 16/1/1
f 17/10/1 18/11/1 19/5/1 20/2/1
f 21/11/1 22/12/1 23/7/1 24/5/1
f 25/13/1 26/14/1 27/15/1 28/16/1
f 29/14/1 30/17/1 31/18/1 32/15/1
f 33/17/1 34/19/1 35/20/1 36/18/1
f 37/1/1 38/2/1 39/3/1 40/4/1
f 41/2/1 42/5/1 43/6/1 44/3/1
f 45/5/1 46/7/1 47/8/1 48/6/1
f 49/21/1 50/22/1 51/10/1 52/9/1
f 53/22/1 54/23/1 55/11/1 56/10/1
f 57/23/1 58/24/1 59/12/1 60/11/1
f 61/1/1 62/2/1 63/3/1 64/4/1
f 65/2/1 66/5/1 67/6/1 68/3/1
f 69/5/1 70/7/1 71/8/1 72/6/1
f 73/25/1 74/26/1 75/14/1 76/13/1
f 77/26/1 78/27/1 79/17/1 80/14/1
f 81/27/1 82/28/1 83/19/1 84/17/1
f 85/9/1 86/10/1 87/2/1 88/1/1
f 89/10/1 90/11/1 91/5/1 92/2/1
f 93/11/1 94/12/1 95/7/1 96/5/1
f 97/9/1 98/10/1 99/2/1 100/1/1
f 101/10/1 102/11/1 103/5/1 104/2/1
f 105/11/1 106/12/1 107/7/1 108/5/1
f 109/4/1 110/3/1 111/26/1 112/25/1
f 113/3/1 114/6/1 115/27/1 116/26/1
f 117/6/1 118/8/1 119/28/1 120/27/1
f 121/21/1 122/22/1 123/10/1 124/9/1
f 125/22/1 126/23/1 127/11/1 128/10/1
f 129/23/1 130/24/1 131/12/1 132/11/1
f 133/21/1 134/22/1 135/10/1 136/9/1
f 137/22/1 138/23/1 139/11/1 140/10/1
f 141/23/1 142/24/1 143/12/1 144/11/1
f 145/1/1 146/2/1 147/3/1 148/4/1
f 149/2/1 150/5/1 151/6/1 152/3/1
f 153/5/1 154/7/1 155/8/1 156/6/1
f 157/9/1 158/10/1 159/2/1 160/1/1
f 161/10/1 162/11/1 163/5/1 164/2/1
f 165/11/1 166/12/1 167/7/1 168/5/1
f 169/21/1 170/22/1 171/10/1 172/9/1
f 173/22/1 174/23/1 175/11/1 176/10/1
f 177/23/1 178/24/1 179/12/1 180/11/1

