# Tiled2Unity generated file. Do not modify by hand.
# Wavefront file for 'CoinCollecteMap2_mesh_0149.obj'

# Vertices (Count = 216)
v -32000 -150400 0
v -35200 -150400 0
v -35200 -147200 0
v -32000 -147200 0
v -35200 -150400 0
v -38400 -150400 0
v -38400 -147200 0
v -35200 -147200 0
v -38400 -150400 0
v -41600 -150400 0
v -41600 -147200 0
v -38400 -147200 0
v -44800 -150400 0
v -48000 -150400 0
v -48000 -147200 0
v -44800 -147200 0
v -48000 -150400 0
v -51200 -150400 0
v -51200 -147200 0
v -48000 -147200 0
v -51200 -150400 0
v -54400 -150400 0
v -54400 -147200 0
v -51200 -147200 0
v -57600 -150400 0
v -60800 -150400 0
v -60800 -147200 0
v -57600 -147200 0
v -60800 -150400 0
v -64000 -150400 0
v -64000 -147200 0
v -60800 -147200 0
v -64000 -150400 0
v -67200 -150400 0
v -67200 -147200 0
v -64000 -147200 0
v -67200 -150400 0
v -70400 -150400 0
v -70400 -147200 0
v -67200 -147200 0
v -70400 -150400 0
v -73600 -150400 0
v -73600 -147200 0
v -70400 -147200 0
v -73600 -150400 0
v -76800 -150400 0
v -76800 -147200 0
v -73600 -147200 0
v -80000 -150400 0
v -83200 -150400 0
v -83200 -147200 0
v -80000 -147200 0
v -83200 -150400 0
v -86400 -150400 0
v -86400 -147200 0
v -83200 -147200 0
v -86400 -150400 0
v -89600 -150400 0
v -89600 -147200 0
v -86400 -147200 0
v -92800 -150400 0
v -96000 -150400 0
v -96000 -147200 0
v -92800 -147200 0
v -96000 -150400 0
v -99200 -150400 0
v -99200 -147200 0
v -96000 -147200 0
v -99200 -150400 0
v -102400 -150400 0
v -102400 -147200 0
v -99200 -147200 0
v -32000 -153600 0
v -35200 -153600 0
v -35200 -150400 0
v -32000 -150400 0
v -35200 -153600 0
v -38400 -153600 0
v -38400 -150400 0
v -35200 -150400 0
v -38400 -153600 0
v -41600 -153600 0
v -41600 -150400 0
v -38400 -150400 0
v -44800 -153600 0
v -48000 -153600 0
v -48000 -150400 0
v -44800 -150400 0
v -48000 -153600 0
v -51200 -153600 0
v -51200 -150400 0
v -48000 -150400 0
v -51200 -153600 0
v -54400 -153600 0
v -54400 -150400 0
v -51200 -150400 0
v -57600 -153600 0
v -60800 -153600 0
v -60800 -150400 0
v -57600 -150400 0
v -60800 -153600 0
v -64000 -153600 0
v -64000 -150400 0
v -60800 -150400 0
v -64000 -153600 0
v -67200 -153600 0
v -67200 -150400 0
v -64000 -150400 0
v -67200 -153600 0
v -70400 -153600 0
v -70400 -150400 0
v -67200 -150400 0
v -70400 -153600 0
v -73600 -153600 0
v -73600 -150400 0
v -70400 -150400 0
v -73600 -153600 0
v -76800 -153600 0
v -76800 -150400 0
v -73600 -150400 0
v -80000 -153600 0
v -83200 -153600 0
v -83200 -150400 0
v -80000 -150400 0
v -83200 -153600 0
v -86400 -153600 0
v -86400 -150400 0
v -83200 -150400 0
v -86400 -153600 0
v -89600 -153600 0
v -89600 -150400 0
v -86400 -150400 0
v -92800 -153600 0
v -96000 -153600 0
v -96000 -150400 0
v -92800 -150400 0
v -96000 -153600 0
v -99200 -153600 0
v -99200 -150400 0
v -96000 -150400 0
v -99200 -153600 0
v -102400 -153600 0
v -102400 -150400 0
v -99200 -150400 0
v -32000 -156800 0
v -35200 -156800 0
v -35200 -153600 0
v -32000 -153600 0
v -35200 -156800 0
v -38400 -156800 0
v -38400 -153600 0
v -35200 -153600 0
v -38400 -156800 0
v -41600 -156800 0
v -41600 -153600 0
v -38400 -153600 0
v -44800 -156800 0
v -48000 -156800 0
v -48000 -153600 0
v -44800 -153600 0
v -48000 -156800 0
v -51200 -156800 0
v -51200 -153600 0
v -48000 -153600 0
v -51200 -156800 0
v -54400 -156800 0
v -54400 -153600 0
v -51200 -153600 0
v -57600 -156800 0
v -60800 -156800 0
v -60800 -153600 0
v -57600 -153600 0
v -60800 -156800 0
v -64000 -156800 0
v -64000 -153600 0
v -60800 -153600 0
v -64000 -156800 0
v -67200 -156800 0
v -67200 -153600 0
v -64000 -153600 0
v -67200 -156800 0
v -70400 -156800 0
v -70400 -153600 0
v -67200 -153600 0
v -70400 -156800 0
v -73600 -156800 0
v -73600 -153600 0
v -70400 -153600 0
v -73600 -156800 0
v -76800 -156800 0
v -76800 -153600 0
v -73600 -153600 0
v -80000 -156800 0
v -83200 -156800 0
v -83200 -153600 0
v -80000 -153600 0
v -83200 -156800 0
v -86400 -156800 0
v -86400 -153600 0
v -83200 -153600 0
v -86400 -156800 0
v -89600 -156800 0
v -89600 -153600 0
v -86400 -153600 0
v -92800 -156800 0
v -96000 -156800 0
v -96000 -153600 0
v -92800 -153600 0
v -96000 -156800 0
v -99200 -156800 0
v -99200 -153600 0
v -96000 -153600 0
v -99200 -156800 0
v -102400 -156800 0
v -102400 -153600 0
v -99200 -153600 0

# Texture cooridinates (Count = 28)
vt 0 0.6666666
vt 0.1666667 0.6666666
vt 0.1666667 1
vt 0 1
vt 0.3333333 0.6666666
vt 0.3333333 1
vt 0.5 0.6666666
vt 0.5 1
vt 0.6666667 0.6666666
vt 0.6666667 1
vt 0.8333333 0.6666666
vt 0.8333333 1
vt 1 0.6666666
vt 1 1
vt 0 0.3333333
vt 0.1666667 0.3333333
vt 0.3333333 0.3333333
vt 0.5 0.3333333
vt 0.6666667 0.3333333
vt 0.8333333 0.3333333
vt 1 0.3333333
vt 0 0
vt 0.1666667 0
vt 0.3333333 0
vt 0.5 0
vt 0.6666667 0
vt 0.8333333 0
vt 1 0

# Normal
vn 0 0 -1

# Mesh description
g CoinCollecteMap2_mesh_0149

# Faces
f 1/1/1 2/2/1 3/3/1 4/4/1
f 5/2/1 6/5/1 7/6/1 8/3/1
f 9/5/1 10/7/1 11/8/1 12/6/1
f 13/1/1 14/2/1 15/3/1 16/4/1
f 17/2/1 18/5/1 19/6/1 20/3/1
f 21/5/1 22/7/1 23/8/1 24/6/1
f 25/1/1 26/2/1 27/3/1 28/4/1
f 29/2/1 30/5/1 31/6/1 32/3/1
f 33/5/1 34/7/1 35/8/1 36/6/1
f 37/7/1 38/9/1 39/10/1 40/8/1
f 41/9/1 42/11/1 43/12/1 44/10/1
f 45/11/1 46/13/1 47/14/1 48/12/1
f 49/1/1 50/2/1 51/3/1 52/4/1
f 53/2/1 54/5/1 55/6/1 56/3/1
f 57/5/1 58/7/1 59/8/1 60/6/1
f 61/1/1 62/2/1 63/3/1 64/4/1
f 65/2/1 66/5/1 67/6/1 68/3/1
f 69/5/1 70/7/1 71/8/1 72/6/1
f 73/15/1 74/16/1 75/2/1 76/1/1
f 77/16/1 78/17/1 79/5/1 80/2/1
f 81/17/1 82/18/1 83/7/1 84/5/1
f 85/15/1 86/16/1 87/2/1 88/1/1
f 89/16/1 90/17/1 91/5/1 92/2/1
f 93/17/1 94/18/1 95/7/1 96/5/1
f 97/15/1 98/16/1 99/2/1 100/1/1
f 101/16/1 102/17/1 103/5/1 104/2/1
f 105/17/1 106/18/1 107/7/1 108/5/1
f 109/18/1 110/19/1 111/9/1 112/7/1
f 113/19/1 114/20/1 115/11/1 116/9/1
f 117/20/1 118/21/1 119/13/1 120/11/1
f 121/15/1 122/16/1 123/2/1 124/1/1
f 125/16/1 126/17/1 127/5/1 128/2/1
f 129/17/1 130/18/1 131/7/1 132/5/1
f 133/15/1 134/16/1 135/2/1 136/1/1
f 137/16/1 138/17/1 139/5/1 140/2/1
f 141/17/1 142/18/1 143/7/1 144/5/1
f 145/22/1 146/23/1 147/16/1 148/15/1
f 149/23/1 150/24/1 151/17/1 152/16/1
f 153/24/1 154/25/1 155/18/1 156/17/1
f 157/22/1 158/23/1 159/16/1 160/15/1
f 161/23/1 162/24/1 163/17/1 164/16/1
f 165/24/1 166/25/1 167/18/1 168/17/1
f 169/22/1 170/23/1 171/16/1 172/15/1
f 173/23/1 174/24/1 175/17/1 176/16/1
f 177/24/1 178/25/1 179/18/1 180/17/1
f 181/25/1 182/26/1 183/19/1 184/18/1
f 185/26/1 186/27/1 187/20/1 188/19/1
f 189/27/1 190/28/1 191/21/1 192/20/1
f 193/22/1 194/23/1 195/16/1 196/15/1
f 197/23/1 198/24/1 199/17/1 200/16/1
f 201/24/1 202/25/1 203/18/1 204/17/1
f 205/22/1 206/23/1 207/16/1 208/15/1
f 209/23/1 210/24/1 211/17/1 212/16/1
f 213/24/1 214/25/1 215/18/1 216/17/1

