# Tiled2Unity generated file. Do not modify by hand.
# Wavefront file for 'CoinCollecteMap2_mesh_0125.obj'

# Vertices (Count = 144)
v -83200 -60800 0
v -86400 -60800 0
v -86400 -57600 0
v -83200 -57600 0
v -86400 -60800 0
v -89600 -60800 0
v -89600 -57600 0
v -86400 -57600 0
v -89600 -60800 0
v -92800 -60800 0
v -92800 -57600 0
v -89600 -57600 0
v -44800 -64000 0
v -48000 -64000 0
v -48000 -60800 0
v -44800 -60800 0
v -48000 -64000 0
v -51200 -64000 0
v -51200 -60800 0
v -48000 -60800 0
v -51200 -64000 0
v -54400 -64000 0
v -54400 -60800 0
v -51200 -60800 0
v -83200 -64000 0
v -86400 -64000 0
v -86400 -60800 0
v -83200 -60800 0
v -86400 -64000 0
v -89600 -64000 0
v -89600 -60800 0
v -86400 -60800 0
v -89600 -64000 0
v -92800 -64000 0
v -92800 -60800 0
v -89600 -60800 0
v -102400 -64000 0
v -105600 -64000 0
v -105600 -60800 0
v -102400 -60800 0
v -105600 -64000 0
v -108800 -64000 0
v -108800 -60800 0
v -105600 -60800 0
v -108800 -64000 0
v -112000 -64000 0
v -112000 -60800 0
v -108800 -60800 0
v -32000 -67200 0
v -35200 -67200 0
v -35200 -64000 0
v -32000 -64000 0
v -35200 -67200 0
v -38400 -67200 0
v -38400 -64000 0
v -35200 -64000 0
v -38400 -67200 0
v -41600 -67200 0
v -41600 -64000 0
v -38400 -64000 0
v -44800 -67200 0
v -48000 -67200 0
v -48000 -64000 0
v -44800 -64000 0
v -48000 -67200 0
v -51200 -67200 0
v -51200 -64000 0
v -48000 -64000 0
v -51200 -67200 0
v -54400 -67200 0
v -54400 -64000 0
v -51200 -64000 0
v -83200 -67200 0
v -86400 -67200 0
v -86400 -64000 0
v -83200 -64000 0
v -86400 -67200 0
v -89600 -67200 0
v -89600 -64000 0
v -86400 -64000 0
v -89600 -67200 0
v -92800 -67200 0
v -92800 -64000 0
v -89600 -64000 0
v -102400 -67200 0
v -105600 -67200 0
v -105600 -64000 0
v -102400 -64000 0
v -105600 -67200 0
v -108800 -67200 0
v -108800 -64000 0
v -105600 -64000 0
v -108800 -67200 0
v -112000 -67200 0
v -112000 -64000 0
v -108800 -64000 0
v -32000 -70400 0
v -35200 -70400 0
v -35200 -67200 0
v -32000 -67200 0
v -35200 -70400 0
v -38400 -70400 0
v -38400 -67200 0
v -35200 -67200 0
v -38400 -70400 0
v -41600 -70400 0
v -41600 -67200 0
v -38400 -67200 0
v -44800 -70400 0
v -48000 -70400 0
v -48000 -67200 0
v -44800 -67200 0
v -48000 -70400 0
v -51200 -70400 0
v -51200 -67200 0
v -48000 -67200 0
v -51200 -70400 0
v -54400 -70400 0
v -54400 -67200 0
v -51200 -67200 0
v -102400 -70400 0
v -105600 -70400 0
v -105600 -67200 0
v -102400 -67200 0
v -105600 -70400 0
v -108800 -70400 0
v -108800 -67200 0
v -105600 -67200 0
v -108800 -70400 0
v -112000 -70400 0
v -112000 -67200 0
v -108800 -67200 0
v -32000 -73600 0
v -35200 -73600 0
v -35200 -70400 0
v -32000 -70400 0
v -35200 -73600 0
v -38400 -73600 0
v -38400 -70400 0
v -35200 -70400 0
v -38400 -73600 0
v -41600 -73600 0
v -41600 -70400 0
v -38400 -70400 0

# Texture cooridinates (Count = 28)
vt 0.5 0.6666666
vt 0.6666667 0.6666666
vt 0.6666667 1
vt 0.5 1
vt 0.8333333 0.6666666
vt 0.8333333 1
vt 1 0.6666666
vt 1 1
vt 0.5 0.3333333
vt 0.6666667 0.3333333
vt 0.8333333 0.3333333
vt 1 0.3333333
vt 0 0.6666666
vt 0.1666667 0.6666666
vt 0.1666667 1
vt 0 1
vt 0.3333333 0.6666666
vt 0.3333333 1
vt 0.5 0
vt 0.6666667 0
vt 0.8333333 0
vt 1 0
vt 0 0.3333333
vt 0.1666667 0.3333333
vt 0.3333333 0.3333333
vt 0 0
vt 0.1666667 0
vt 0.3333333 0

# Normal
vn 0 0 -1

# Mesh description
g CoinCollecteMap2_mesh_0125

# Faces
f 1/1/1 2/2/1 3/3/1 4/4/1
f 5/2/1 6/5/1 7/6/1 8/3/1
f 9/5/1 10/7/1 11/8/1 12/6/1
f 13/1/1 14/2/1 15/3/1 16/4/1
f 17/2/1 18/5/1 19/6/1 20/3/1
f 21/5/1 22/7/1 23/8/1 24/6/1
f 25/9/1 26/10/1 27/2/1 28/1/1
f 29/10/1 30/11/1 31/5/1 32/2/1
f 33/11/1 34/12/1 35/7/1 36/5/1
f 37/1/1 38/2/1 39/3/1 40/4/1
f 41/2/1 42/5/1 43/6/1 44/3/1
f 45/5/1 46/7/1 47/8/1 48/6/1
f 49/13/1 50/14/1 51/15/1 52/16/1
f 53/14/1 54/17/1 55/18/1 56/15/1
f 57/17/1 58/1/1 59/4/1 60/18/1
f 61/9/1 62/10/1 63/2/1 64/1/1
f 65/10/1 66/11/1 67/5/1 68/2/1
f 69/11/1 70/12/1 71/7/1 72/5/1
f 73/19/1 74/20/1 75/10/1 76/9/1
f 77/20/1 78/21/1 79/11/1 80/10/1
f 81/21/1 82/22/1 83/12/1 84/11/1
f 85/9/1 86/10/1 87/2/1 88/1/1
f 89/10/1 90/11/1 91/5/1 92/2/1
f 93/11/1 94/12/1 95/7/1 96/5/1
f 97/23/1 98/24/1 99/14/1 100/13/1
f 101/24/1 102/25/1 103/17/1 104/14/1
f 105/25/1 106/9/1 107/1/1 108/17/1
f 109/19/1 110/20/1 111/10/1 112/9/1
f 113/20/1 114/21/1 115/11/1 116/10/1
f 117/21/1 118/22/1 119/12/1 120/11/1
f 121/19/1 122/20/1 123/10/1 124/9/1
f 125/20/1 126/21/1 127/11/1 128/10/1
f 129/21/1 130/22/1 131/12/1 132/11/1
f 133/26/1 134/27/1 135/24/1 136/23/1
f 137/27/1 138/28/1 139/25/1 140/24/1
f 141/28/1 142/19/1 143/9/1 144/25/1

