# Tiled2Unity generated file. Do not modify by hand.
# Wavefront file for 'CoinCollecteMap2_mesh_0034.obj'

# Vertices (Count = 164)
v 0 -179200 0
v -3200 -179200 0
v -3200 -176000 0
v 0 -176000 0
v -3200 -179200 0
v -6400 -179200 0
v -6400 -176000 0
v -3200 -176000 0
v -6400 -179200 0
v -9600 -179200 0
v -9600 -176000 0
v -6400 -176000 0
v 0 -182400 0
v -3200 -182400 0
v -3200 -179200 0
v 0 -179200 0
v -3200 -182400 0
v -6400 -182400 0
v -6400 -179200 0
v -3200 -179200 0
v -6400 -182400 0
v -9600 -182400 0
v -9600 -179200 0
v -6400 -179200 0
v 0 -185600 0
v -3200 -185600 0
v -3200 -182400 0
v 0 -182400 0
v -3200 -185600 0
v -6400 -185600 0
v -6400 -182400 0
v -3200 -182400 0
v -6400 -185600 0
v -9600 -185600 0
v -9600 -182400 0
v -6400 -182400 0
v 0 -188800 0
v -3200 -188800 0
v -3200 -185600 0
v 0 -185600 0
v -3200 -188800 0
v -6400 -188800 0
v -6400 -185600 0
v -3200 -185600 0
v -9600 -188800 0
v -12800 -188800 0
v -12800 -185600 0
v -9600 -185600 0
v -12800 -188800 0
v -16000 -188800 0
v -16000 -185600 0
v -12800 -185600 0
v -16000 -188800 0
v -19200 -188800 0
v -19200 -185600 0
v -16000 -185600 0
v 0 -192000 0
v -3200 -192000 0
v -3200 -188800 0
v 0 -188800 0
v -3200 -192000 0
v -6400 -192000 0
v -6400 -188800 0
v -3200 -188800 0
v -9600 -192000 0
v -12800 -192000 0
v -12800 -188800 0
v -9600 -188800 0
v -12800 -192000 0
v -16000 -192000 0
v -16000 -188800 0
v -12800 -188800 0
v -16000 -192000 0
v -19200 -192000 0
v -19200 -188800 0
v -16000 -188800 0
v -121600 -192000 0
v -124800 -192000 0
v -124800 -188800 0
v -121600 -188800 0
v -124800 -192000 0
v -128000 -192000 0
v -128000 -188800 0
v -124800 -188800 0
v -128000 -192000 0
v -131200 -192000 0
v -131200 -188800 0
v -128000 -188800 0
v 0 -195200 0
v -3200 -195200 0
v -3200 -192000 0
v 0 -192000 0
v -3200 -195200 0
v -6400 -195200 0
v -6400 -192000 0
v -3200 -192000 0
v -9600 -195200 0
v -12800 -195200 0
v -12800 -192000 0
v -9600 -192000 0
v -12800 -195200 0
v -16000 -195200 0
v -16000 -192000 0
v -12800 -192000 0
v -16000 -195200 0
v -19200 -195200 0
v -19200 -192000 0
v -16000 -192000 0
v -121600 -195200 0
v -124800 -195200 0
v -124800 -192000 0
v -121600 -192000 0
v -124800 -195200 0
v -128000 -195200 0
v -128000 -192000 0
v -124800 -192000 0
v -128000 -195200 0
v -131200 -195200 0
v -131200 -192000 0
v -128000 -192000 0
v -115200 -198400 0
v -118400 -198400 0
v -118400 -195200 0
v -115200 -195200 0
v -118400 -198400 0
v -121600 -198400 0
v -121600 -195200 0
v -118400 -195200 0
v -121600 -198400 0
v -124800 -198400 0
v -124800 -195200 0
v -121600 -195200 0
v -124800 -198400 0
v -128000 -198400 0
v -128000 -195200 0
v -124800 -195200 0
v -128000 -198400 0
v -131200 -198400 0
v -131200 -195200 0
v -128000 -195200 0
v -115200 -201600 0
v -118400 -201600 0
v -118400 -198400 0
v -115200 -198400 0
v -118400 -201600 0
v -121600 -201600 0
v -121600 -198400 0
v -118400 -198400 0
v -121600 -201600 0
v -124800 -201600 0
v -124800 -198400 0
v -121600 -198400 0
v -115200 -204800 0
v -118400 -204800 0
v -118400 -201600 0
v -115200 -201600 0
v -118400 -204800 0
v -121600 -204800 0
v -121600 -201600 0
v -118400 -201600 0
v -121600 -204800 0
v -124800 -204800 0
v -124800 -201600 0
v -121600 -201600 0

# Texture cooridinates (Count = 16)
vt 0.5 0.6666666
vt 0.6666667 0.6666666
vt 0.6666667 1
vt 0.5 1
vt 0.8333333 0.6666666
vt 0.8333333 1
vt 1 0.6666666
vt 1 1
vt 0.5 0.3333333
vt 0.6666667 0.3333333
vt 0.8333333 0.3333333
vt 1 0.3333333
vt 0.5 0
vt 0.6666667 0
vt 0.8333333 0
vt 1 0

# Normal
vn 0 0 -1

# Mesh description
g CoinCollecteMap2_mesh_0034

# Faces
f 1/1/1 2/2/1 3/3/1 4/4/1
f 5/2/1 6/5/1 7/6/1 8/3/1
f 9/5/1 10/7/1 11/8/1 12/6/1
f 13/9/1 14/10/1 15/2/1 16/1/1
f 17/10/1 18/11/1 19/5/1 20/2/1
f 21/11/1 22/12/1 23/7/1 24/5/1
f 25/13/1 26/14/1 27/10/1 28/9/1
f 29/14/1 30/15/1 31/11/1 32/10/1
f 33/15/1 34/16/1 35/12/1 36/11/1
f 37/2/1 38/5/1 39/6/1 40/3/1
f 41/5/1 42/7/1 43/8/1 44/6/1
f 45/1/1 46/2/1 47/3/1 48/4/1
f 49/2/1 50/5/1 51/6/1 52/3/1
f 53/5/1 54/7/1 55/8/1 56/6/1
f 57/10/1 58/11/1 59/5/1 60/2/1
f 61/11/1 62/12/1 63/7/1 64/5/1
f 65/9/1 66/10/1 67/2/1 68/1/1
f 69/10/1 70/11/1 71/5/1 72/2/1
f 73/11/1 74/12/1 75/7/1 76/5/1
f 77/1/1 78/2/1 79/3/1 80/4/1
f 81/2/1 82/5/1 83/6/1 84/3/1
f 85/5/1 86/7/1 87/8/1 88/6/1
f 89/14/1 90/15/1 91/11/1 92/10/1
f 93/15/1 94/16/1 95/12/1 96/11/1
f 97/13/1 98/14/1 99/10/1 100/9/1
f 101/14/1 102/15/1 103/11/1 104/10/1
f 105/15/1 106/16/1 107/12/1 108/11/1
f 109/9/1 110/10/1 111/2/1 112/1/1
f 113/10/1 114/11/1 115/5/1 116/2/1
f 117/11/1 118/12/1 119/7/1 120/5/1
f 121/1/1 122/2/1 123/3/1 124/4/1
f 125/2/1 126/5/1 127/6/1 128/3/1
f 129/5/1 130/7/1 131/8/1 132/6/1
f 133/14/1 134/15/1 135/11/1 136/10/1
f 137/15/1 138/16/1 139/12/1 140/11/1
f 141/9/1 142/10/1 143/2/1 144/1/1
f 145/10/1 146/11/1 147/5/1 148/2/1
f 149/11/1 150/12/1 151/7/1 152/5/1
f 153/13/1 154/14/1 155/10/1 156/9/1
f 157/14/1 158/15/1 159/11/1 160/10/1
f 161/15/1 162/16/1 163/12/1 164/11/1

