# Tiled2Unity generated file. Do not modify by hand.
# Wavefront file for 'CoinCollecteMap2_mesh_0116.obj'

# Vertices (Count = 72)
v -112000 -233600 0
v -115200 -233600 0
v -115200 -230400 0
v -112000 -230400 0
v -115200 -233600 0
v -118400 -233600 0
v -118400 -230400 0
v -115200 -230400 0
v -118400 -233600 0
v -121600 -233600 0
v -121600 -230400 0
v -118400 -230400 0
v -112000 -236800 0
v -115200 -236800 0
v -115200 -233600 0
v -112000 -233600 0
v -115200 -236800 0
v -118400 -236800 0
v -118400 -233600 0
v -115200 -233600 0
v -118400 -236800 0
v -121600 -236800 0
v -121600 -233600 0
v -118400 -233600 0
v -9600 -240000 0
v -12800 -240000 0
v -12800 -236800 0
v -9600 -236800 0
v -12800 -240000 0
v -16000 -240000 0
v -16000 -236800 0
v -12800 -236800 0
v -16000 -240000 0
v -19200 -240000 0
v -19200 -236800 0
v -16000 -236800 0
v -112000 -240000 0
v -115200 -240000 0
v -115200 -236800 0
v -112000 -236800 0
v -115200 -240000 0
v -118400 -240000 0
v -118400 -236800 0
v -115200 -236800 0
v -118400 -240000 0
v -121600 -240000 0
v -121600 -236800 0
v -118400 -236800 0
v -9600 -243200 0
v -12800 -243200 0
v -12800 -240000 0
v -9600 -240000 0
v -12800 -243200 0
v -16000 -243200 0
v -16000 -240000 0
v -12800 -240000 0
v -16000 -243200 0
v -19200 -243200 0
v -19200 -240000 0
v -16000 -240000 0
v -9600 -246400 0
v -12800 -246400 0
v -12800 -243200 0
v -9600 -243200 0
v -12800 -246400 0
v -16000 -246400 0
v -16000 -243200 0
v -12800 -243200 0
v -16000 -246400 0
v -19200 -246400 0
v -19200 -243200 0
v -16000 -243200 0

# Texture cooridinates (Count = 16)
vt 0 0.8571429
vt 0.1666667 0.8571429
vt 0.1666667 1
vt 0 1
vt 0.3333333 0.8571429
vt 0.3333333 1
vt 0.5 0.8571429
vt 0.5 1
vt 0 0.7142857
vt 0.1666667 0.7142857
vt 0.3333333 0.7142857
vt 0.5 0.7142857
vt 0 0.5714285
vt 0.1666667 0.5714285
vt 0.3333333 0.5714285
vt 0.5 0.5714285

# Normal
vn 0 0 -1

# Mesh description
g CoinCollecteMap2_mesh_0116

# Faces
f 1/1/1 2/2/1 3/3/1 4/4/1
f 5/2/1 6/5/1 7/6/1 8/3/1
f 9/5/1 10/7/1 11/8/1 12/6/1
f 13/9/1 14/10/1 15/2/1 16/1/1
f 17/10/1 18/11/1 19/5/1 20/2/1
f 21/11/1 22/12/1 23/7/1 24/5/1
f 25/1/1 26/2/1 27/3/1 28/4/1
f 29/2/1 30/5/1 31/6/1 32/3/1
f 33/5/1 34/7/1 35/8/1 36/6/1
f 37/13/1 38/14/1 39/10/1 40/9/1
f 41/14/1 42/15/1 43/11/1 44/10/1
f 45/15/1 46/16/1 47/12/1 48/11/1
f 49/9/1 50/10/1 51/2/1 52/1/1
f 53/10/1 54/11/1 55/5/1 56/2/1
f 57/11/1 58/12/1 59/7/1 60/5/1
f 61/13/1 62/14/1 63/10/1 64/9/1
f 65/14/1 66/15/1 67/11/1 68/10/1
f 69/15/1 70/16/1 71/12/1 72/11/1

