# Tiled2Unity generated file. Do not modify by hand.
# Wavefront file for 'CoinCollecteMap2_mesh_0201.obj'

# Vertices (Count = 108)
v -54400 -169600 0
v -57600 -169600 0
v -57600 -166400 0
v -54400 -166400 0
v -57600 -169600 0
v -60800 -169600 0
v -60800 -166400 0
v -57600 -166400 0
v -60800 -169600 0
v -64000 -169600 0
v -64000 -166400 0
v -60800 -166400 0
v -64000 -169600 0
v -67200 -169600 0
v -67200 -166400 0
v -64000 -166400 0
v -67200 -169600 0
v -70400 -169600 0
v -70400 -166400 0
v -67200 -166400 0
v -70400 -169600 0
v -73600 -169600 0
v -73600 -166400 0
v -70400 -166400 0
v -54400 -172800 0
v -57600 -172800 0
v -57600 -169600 0
v -54400 -169600 0
v -57600 -172800 0
v -60800 -172800 0
v -60800 -169600 0
v -57600 -169600 0
v -60800 -172800 0
v -64000 -172800 0
v -64000 -169600 0
v -60800 -169600 0
v -64000 -172800 0
v -67200 -172800 0
v -67200 -169600 0
v -64000 -169600 0
v -67200 -172800 0
v -70400 -172800 0
v -70400 -169600 0
v -67200 -169600 0
v -70400 -172800 0
v -73600 -172800 0
v -73600 -169600 0
v -70400 -169600 0
v -73600 -172800 0
v -76800 -172800 0
v -76800 -169600 0
v -73600 -169600 0
v -76800 -172800 0
v -80000 -172800 0
v -80000 -169600 0
v -76800 -169600 0
v -80000 -172800 0
v -83200 -172800 0
v -83200 -169600 0
v -80000 -169600 0
v -54400 -176000 0
v -57600 -176000 0
v -57600 -172800 0
v -54400 -172800 0
v -57600 -176000 0
v -60800 -176000 0
v -60800 -172800 0
v -57600 -172800 0
v -60800 -176000 0
v -64000 -176000 0
v -64000 -172800 0
v -60800 -172800 0
v -64000 -176000 0
v -67200 -176000 0
v -67200 -172800 0
v -64000 -172800 0
v -67200 -176000 0
v -70400 -176000 0
v -70400 -172800 0
v -67200 -172800 0
v -70400 -176000 0
v -73600 -176000 0
v -73600 -172800 0
v -70400 -172800 0
v -73600 -176000 0
v -76800 -176000 0
v -76800 -172800 0
v -73600 -172800 0
v -76800 -176000 0
v -80000 -176000 0
v -80000 -172800 0
v -76800 -172800 0
v -80000 -176000 0
v -83200 -176000 0
v -83200 -172800 0
v -80000 -172800 0
v -73600 -179200 0
v -76800 -179200 0
v -76800 -176000 0
v -73600 -176000 0
v -76800 -179200 0
v -80000 -179200 0
v -80000 -176000 0
v -76800 -176000 0
v -80000 -179200 0
v -83200 -179200 0
v -83200 -176000 0
v -80000 -176000 0

# Texture cooridinates (Count = 28)
vt 0 0.4285714
vt 0.1666667 0.4285714
vt 0.1666667 0.5714285
vt 0 0.5714285
vt 0.3333333 0.4285714
vt 0.3333333 0.5714285
vt 0.5 0.4285714
vt 0.5 0.5714285
vt 0 0.8571429
vt 0.1666667 0.8571429
vt 0.1666667 1
vt 0 1
vt 0.3333333 0.8571429
vt 0.3333333 1
vt 0.5 0.8571429
vt 0.5 1
vt 0 0.2857143
vt 0.1666667 0.2857143
vt 0.3333333 0.2857143
vt 0.5 0.2857143
vt 0 0.7142857
vt 0.1666667 0.7142857
vt 0.3333333 0.7142857
vt 0.5 0.7142857
vt 0 0.1428571
vt 0.1666667 0.1428571
vt 0.3333333 0.1428571
vt 0.5 0.1428571

# Normal
vn 0 0 -1

# Mesh description
g CoinCollecteMap2_mesh_0201

# Faces
f 1/1/1 2/2/1 3/3/1 4/4/1
f 5/2/1 6/5/1 7/6/1 8/3/1
f 9/5/1 10/7/1 11/8/1 12/6/1
f 13/9/1 14/10/1 15/11/1 16/12/1
f 17/10/1 18/13/1 19/14/1 20/11/1
f 21/13/1 22/15/1 23/16/1 24/14/1
f 25/17/1 26/18/1 27/2/1 28/1/1
f 29/18/1 30/19/1 31/5/1 32/2/1
f 33/19/1 34/20/1 35/7/1 36/5/1
f 37/21/1 38/22/1 39/10/1 40/9/1
f 41/22/1 42/23/1 43/13/1 44/10/1
f 45/23/1 46/24/1 47/15/1 48/13/1
f 49/9/1 50/10/1 51/11/1 52/12/1
f 53/10/1 54/13/1 55/14/1 56/11/1
f 57/13/1 58/15/1 59/16/1 60/14/1
f 61/25/1 62/26/1 63/18/1 64/17/1
f 65/26/1 66/27/1 67/19/1 68/18/1
f 69/27/1 70/28/1 71/20/1 72/19/1
f 73/4/1 74/3/1 75/22/1 76/21/1
f 77/3/1 78/6/1 79/23/1 80/22/1
f 81/6/1 82/8/1 83/24/1 84/23/1
f 85/21/1 86/22/1 87/10/1 88/9/1
f 89/22/1 90/23/1 91/13/1 92/10/1
f 93/23/1 94/24/1 95/15/1 96/13/1
f 97/4/1 98/3/1 99/22/1 100/21/1
f 101/3/1 102/6/1 103/23/1 104/22/1
f 105/6/1 106/8/1 107/24/1 108/23/1

